<?xml version="1.0" encoding="utf-8"?>
<!-- Generator: Adobe Illustrator 16.0.4, SVG Export Plug-In . SVG Version: 6.00 Build 0)  -->
<!DOCTYPE svg PUBLIC "-//W3C//DTD SVG 1.1//EN" "http://www.w3.org/Graphics/SVG/1.1/DTD/svg11.dtd">
<svg version="1.1" id="_x39_72_Width" xmlns="http://www.w3.org/2000/svg" xmlns:xlink="http://www.w3.org/1999/xlink" x="0px"
	 y="0px" width="1440px" height="910px" viewBox="0 0 1440 910" enable-background="new 0 0 1440 910" xml:space="preserve">
<polyline fill="none" stroke="#999999" stroke-width="3" stroke-miterlimit="10" points="1255.2,60.5 1220.2,66.6 1124.3,132.4 
	1079.6,163.8 1029.7,190.4 998,203 972.4,212.1 944.2,218.6 915.1,222.1 899.2,219.9 851.9,218.6 813,217.9 762.8,214.4 
	730.1,211.5 716.8,210.2 696.4,213.4 657.2,220.2 633.5,228 627.7,228 619.3,227.7 546.4,213.4 539.6,213.4 515.9,219.2 
	494.2,224.1 481,223.8 451.8,217.6 435.9,212.1 409,197.2 388.3,184.2 376.3,176.5 365,171.9 350.4,170.3 339.1,170.3 324.2,172.6 
	254.8,187.8 199.8,199.5 "/>
<polyline fill="none" stroke="#CCCCCC" stroke-miterlimit="10" points="1255.2,60.5 1220.2,66.6 1124.3,132.4 1079.6,163.8 
	1029.7,190.4 998,203 972.4,212.1 944.2,218.6 915.1,222.1 899.2,219.9 851.9,218.6 813,217.9 762.8,214.4 730.1,211.5 716.8,210.2 
	696.4,213.4 657.2,220.2 633.5,228 627.7,228 619.3,227.7 546.4,213.4 539.6,213.4 515.9,219.2 494.2,224.1 481,223.8 451.8,217.6 
	435.9,212.1 409,197.2 388.3,184.2 376.3,176.5 365,171.9 350.4,170.3 339.1,170.3 324.2,172.6 254.8,187.8 199.8,199.5 "/>
<polyline fill="none" stroke="#999999" stroke-width="3" stroke-miterlimit="10" points="256.8,187.9 248.5,197.7 243,207.2 
	239.5,217.8 239.4,239.7 244.3,274.7 248.9,298.5 253.1,329.9 255.9,359.7 259.8,409.9 262.6,442.7 264.3,481.8 263.4,526.7 
	263.3,552.6 259,580.1 253.9,609 247.7,646.1 240.5,680.5 229.4,726.1 215.9,765.3 200.5,809.8 "/>
<polyline fill="none" stroke="#CCCCCC" stroke-miterlimit="10" points="256.8,187.9 248.5,197.7 243,207.2 239.5,217.8 239.4,239.7 
	244.3,274.7 248.9,298.5 253.1,329.9 255.9,359.7 259.8,409.9 262.6,442.7 264.3,481.8 263.4,526.7 263.3,552.6 259,580.1 
	253.9,609 247.7,646.1 240.5,680.5 229.4,726.1 215.9,765.3 200.5,809.8 "/>
<polyline fill="none" stroke="#999999" stroke-width="3" stroke-miterlimit="10" points="915.3,223.6 936.1,243 955.7,260.6 
	986.8,285.8 1012.9,306.1 1035.3,323.4 1056.4,341.4 1077.7,359.1 1077.4,370.7 1105.2,368.9 1116.1,399.4 1121.3,419.8 
	1124.5,440.4 1131.4,465.8 1143.2,499.9 1159.3,540.2 1175,575.6 1189.6,605.2 1204.1,633.5 1206.5,636.4 1219.5,645.3 1242.7,661 
	"/>
<polyline fill="none" stroke="#CCCCCC" stroke-miterlimit="10" points="915.3,223.6 936.1,243 955.7,260.6 986.8,285.8 
	1012.9,306.1 1035.3,323.4 1056.4,341.4 1077.7,359.1 1077.4,370.7 1105.2,368.9 1116.1,399.4 1121.3,419.8 1124.5,440.4 
	1131.4,465.8 1143.2,499.9 1159.3,540.2 1175,575.6 1189.6,605.2 1204.1,633.5 1206.5,636.4 1219.5,645.3 1242.7,661 "/>
<path fill="none" stroke="#999999" stroke-width="3" stroke-miterlimit="10" d="M1092.8,155.8"/>
<path fill="none" stroke="#CCCCCC" stroke-miterlimit="10" d="M1092.8,155.8"/>
<polyline fill="none" stroke="#999999" stroke-width="3" stroke-miterlimit="10" points="1092.4,154.9 1103.9,177.4 1106.6,187.6 
	1107.9,201 1108.6,207.6 1114.8,228.5 1117.1,243.9 1121.7,269.5 1122.3,274.7 1123.5,329 1125.9,353 1117.1,366.3 1106.5,368.2 "/>
<polyline fill="none" stroke="#CCCCCC" stroke-miterlimit="10" points="1092.4,154.9 1103.9,177.4 1106.6,187.6 1107.9,201 
	1108.6,207.6 1114.8,228.5 1117.1,243.9 1121.7,269.5 1122.3,274.7 1123.5,329 1125.9,353 1117.1,366.3 1106.5,368.2 "/>
</svg>
