<svg id="Troops" xmlns="http://www.w3.org/2000/svg" viewBox="0 0 1440 910">
  <style>
    .st0{fill:#ED2939;} .st1{fill:none;stroke:#ED2939;stroke-width:3;stroke-miterlimit:10;} .st2{fill:none;stroke:#ED2939;stroke-width:3;stroke-miterlimit:10;stroke-dasharray:7.91,5.93;} .st3{fill:none;stroke:#ED2939;stroke-width:3;stroke-miterlimit:10;stroke-dasharray:7.75,5.81;} .st4{fill:#0072BB;} .st5{fill:none;stroke:#0072BB;stroke-width:3;stroke-miterlimit:10;} .st6{fill:none;stroke:#0072BB;stroke-width:3;stroke-miterlimit:10;stroke-dasharray:7.72,5.79;} .st7{fill:none;stroke:#0072BB;stroke-width:3;stroke-miterlimit:10;stroke-dasharray:8.31,6.23;} .st8{font-family:&apos;DroidSans&apos;;} .st9{font-size:9.98px;} .st10{fill:#FFFFFF;stroke:#0072BB;stroke-width:0.75;stroke-miterlimit:10;} .st11{font-family:&apos;DroidSans-Bold&apos;;} .st12{font-size:13.3px;} .st13{fill:none;} .st14{font-size:14.96px;} .st15{fill:none;stroke:#0072BB;stroke-width:0.75;stroke-miterlimit:10;} .st16{fill:#FFFFFF;stroke:#ED2939;stroke-width:0.75;stroke-miterlimit:10;}
  </style>
  <path id="Liechtenstein-3" class="st0" d="M827.864 296.366L839.6 265.31l7.764 2.935-11.736 31.055z"/>
  <path id="Kollowrath-3" class="st0" d="M804.07 424.562l14.4-29.917 7.48 3.6-14.4 29.917z"/>
  <path id="Pribischewski-3" class="st0" d="M919.51 353.412l10.677-31.542 7.862 2.66-10.68 31.543z"/>
  <path id="Langeron-3" class="st0" d="M779.218 491.235l6.676-32.523 8.13 1.67-6.676 32.522z"/>
  <path id="Doctorov-3" class="st0" d="M626.205 583.658l23.476-23.476 5.87 5.87-23.472 23.475z"/>
  <path id="Kienmayer-2" class="st0" d="M1026.2 311.367l23.547-23.546 5.87 5.87-23.547 23.55z"/>
  <path id="Bagration-3" class="st0" d="M903.7 208.3h8.3v33.2h-8.3z"/>
  <path class="st1" d="M997.3 400.2l4-.6"/>
  <path class="st2" d="M1007.2 399.4c23.7 0 75.4 8.5 113.6 38"/>
  <path class="st1" d="M1123.2 439.2l3.1 2.6"/>
  <path class="st0" d="M1135.5 450.5l-18.1-6.9 8.1-2.4 1.8-8.3z"/>
  <path class="st1" d="M784.8 489.7l4 .2"/>
  <path class="st3" d="M794.6 490.6c8 1.3 15.7 3.8 22.9 7.5"/>
  <path class="st1" d="M820.1 499.4l3.4 2.1"/>
  <path class="st0" d="M833 510l-18.4-6.1 8-2.8 1.5-8.3z"/>
  <path class="st1" d="M812.1 425.9l4 .2"/>
  <path class="st3" d="M821.9 426.8c8 1.3 15.7 3.8 22.9 7.5"/>
  <path class="st1" d="M847.3 435.7l3.4 2.1"/>
  <path class="st0" d="M860.2 446.2l-18.3-6.1 8-2.8 1.5-8.3z"/>
  <path class="st1" d="M832.8 294.4c1.3 0 2.6.2 3.9.6"/>
  <path class="st3" d="M842.2 297c15 6.8 36.7 25.5 51.2 39.5"/>
  <path class="st1" d="M895.5 338.6l2.8 2.8"/>
  <path class="st0" d="M907 350.7l-17.6-8 8.2-1.9 2.5-8.1z"/>
  <path class="st1" d="M912.8 210l2.2-3.3"/>
  <path class="st3" d="M918.6 202.1c5.2-6.2 11.3-11.5 18.2-15.8"/>
  <path class="st1" d="M939.3 184.8l3.6-1.8"/>
  <path class="st0" d="M955 179.2l-14.7 12.6 1.7-8.3-6.3-5.6z"/>
  <path id="Friant-3" class="st4" d="M591.96 576.87l23.547-23.545 5.87 5.87-23.547 23.545z"/>
  <path class="st5" d="M810.8 295.4c1.3 0 2.7.2 4 .5"/>
  <path class="st6" d="M820.3 297.7c15.5 5.9 38.8 22.1 54.3 34.7"/>
  <path class="st5" d="M876.8 334.2l3 2.6"/>
  <path class="st4" d="M889 345.7l-18-7.1 8.1-2.3 2-8.2z"/>
  <path id="Murat-3" class="st4" d="M804.564 296.264l11.988-31.07 7.744 2.99-11.988 31.068z"/>
  <path id="Lannes-3" class="st4" d="M834.7 208.3h8.3v33.2h-8.3z"/>
  <path class="st5" d="M772.6 391.7c.5 1.2.9 2.5 1.1 3.8"/>
  <path class="st6" d="M774.3 401.3c.7 16.5-4.9 44.4-10.5 63.6"/>
  <path class="st5" d="M763 467.7l-1.2 3.8"/>
  <path class="st4" d="M757.2 483.4l-.6-19.3 5.4 6.5 8.3-1.4z"/>
  <path id="Soult-3" class="st4" d="M761.575 391.082l20.546-26.203 6.536 5.12-20.546 26.2z"/>
  <path class="st5" d="M791.8 324.4c1.3 0 2.7.2 4 .5"/>
  <path class="st6" d="M801.3 326.7c15.5 5.9 38.8 22.1 54.3 34.7"/>
  <path class="st5" d="M857.8 363.2l3 2.6"/>
  <path class="st4" d="M870 374.7l-18-7.1 8.1-2.3 2-8.2z"/>
  <path id="Bernadotte-3" class="st4" d="M783.374 336.308l15.428-29.51 7.356 3.845-15.428 29.51z"/>
  <path class="st5" d="M724.1 251.7l2.7 2.9"/>
  <path class="st7" d="M731 259.3c17.2 19.1 62.2 70.8 86.6 112.7"/>
  <path class="st5" d="M819.1 374.7l1.9 3.5"/>
  <path class="st4" d="M826.7 389.6L812 376.9l8.5.5 4.6-7.1z"/>
  <text transform="translate(668.1 228.4)" class="st4 st8 st9">
    XXXX
  </text>
  <path class="st10" d="M662.4 229.9h33.2v16.6h-33.2z"/>
  <text transform="translate(701.4 243.1)" class="st4 st11 st12">
    Napoleon
  </text>
  <path class="st13" d="M662.4 246.6l33.2-16.7M508.7 557.3H542v16.6h-33.3z"/>
  <text transform="translate(547.7 570.5)" class="st4 st11 st12">
    Friant
  </text>
  <path class="st13" d="M508.7 573.9l33.2-16.6"/>
  <text transform="translate(245.5 807.9)" class="st4 st8 st9">
    XXX
  </text>
  <path class="st10" d="M237.1 809.5h33.3v16.6h-33.3z"/>
  <text transform="translate(276.1 822.7)" class="st4 st11 st12">
    Davout
  </text>
  <text transform="translate(245.8 823.1)" class="st4 st8 st14">
    III
  </text>
  <text transform="translate(276.1 834.7)" class="st4 st8 st9">
    At ?
  </text>
  <path class="st13" d="M237.1 826.1l33.2-16.6"/>
  <text transform="translate(732.9 266.9)" class="st4 st8 st9">
    XXX
  </text>
  <path class="st10" d="M724.5 268.4h33.3V285h-33.3z"/>
  <text transform="translate(763.6 281.6)" class="st4 st11 st12">
    Mu
  </text>
  <text transform="translate(784.1 281.6)" class="st4 st11 st12">
    r
  </text>
  <text transform="translate(789.7 281.6)" class="st4 st11 st12">
    at
  </text>
  <path class="st15" d="M724.5 285.1l33.3-16.7"/>
  <text transform="translate(752.3 209.3)" class="st4 st8 st9">
    XXX
  </text>
  <path class="st10" d="M743.8 210.8h33.3v16.6h-33.3z"/>
  <text transform="translate(782.9 224)" class="st4 st11 st12">
    Lannes
  </text>
  <text transform="translate(755.9 224.5)" class="st4 st8 st14">
    V
  </text>
  <path class="st13" d="M743.8 227.5l33.3-16.7"/>
  <text transform="translate(704.4 362.4)" class="st4 st8 st9">
    XXX
  </text>
  <path class="st10" d="M695.9 364h33.3v16.6h-33.3z"/>
  <text transform="translate(705.5 377.7)" class="st4 st8 st14">
    IV
  </text>
  <text transform="translate(735 377.2)" class="st4 st11 st12">
    Soult
  </text>
  <path class="st13" d="M695.9 380.6l33.3-16.6"/>
  <text transform="translate(663 305.9)" class="st4 st8 st9">
    XXX
  </text>
  <path class="st10" d="M654.5 307.4h33.3V324h-33.3z"/>
  <text transform="translate(668.3 321.1)" class="st4 st8 st14">
    I
  </text>
  <text transform="translate(693.6 320.6)" class="st4 st11 st12">
    Bernado
  </text>
  <text transform="translate(747.7 320.6)" class="st4 st11 st12">
    t
  </text>
  <text transform="translate(753.3 320.6)" class="st4 st11 st12">
    te
  </text>
  <path class="st13" d="M654.5 324.1l33.3-16.7"/>
  <text transform="translate(941.3 382.1)" class="st0 st8 st9">
    XXXX
  </text>
  <path class="st16" d="M935.6 383.6h33.2v16.6h-33.2z"/>
  <text transform="translate(974.7 396.8)" class="st0 st11 st12">
    Alexander
  </text>
  <path class="st13" d="M935.6 400.3l33.3-16.7"/>
  <text transform="translate(245.5 91.5)" class="st0 st8 st9">
    XXX
  </text>
  <path class="st16" d="M237.1 93h33.3v16.6h-33.3z"/>
  <text transform="translate(276.2 106.2)" class="st0 st11 st12">
    Ferdinand
  </text>
  <path class="st13" d="M237.1 109.6L270.3 93"/>
  <text transform="translate(276.2 118.2)" class="st0 st8 st9">
    At P
  </text>
  <text transform="translate(294 118.2)" class="st0 st8 st9">
    r
  </text>
  <text transform="translate(297.9 118.2)" class="st0 st8 st9">
    ague
  </text>
  <path class="st13" d="M805.8 283H839v16.6h-33.2z"/>
  <text transform="translate(844.8 296.1)" class="st0 st11 st12">
    Liechtenstein
  </text>
  <path class="st13" d="M805.8 299.6L839 283m-52.1 129.6h33.2v16.6h-33.2z"/>
  <text transform="translate(826 425.8)" class="st0 st11 st12">
    Kollow
  </text>
  <text transform="translate(869.2 425.8)" class="st0 st11 st12">
    r
  </text>
  <text transform="translate(874.8 425.8)" class="st0 st11 st12">
    ath
  </text>
  <path class="st13" d="M786.9 429.3l33.3-16.7m80.9-77h33.2v16.6h-33.2z"/>
  <text transform="translate(940.1 348.8)" class="st0 st11 st12">
    Pribischewski
  </text>
  <path class="st13" d="M901.1 352.2l33.2-16.6M758.1 477.7h33.2v16.6h-33.2z"/>
  <text transform="translate(797.1 490.9)" class="st0 st11 st12">
    Langeron
  </text>
  <path class="st13" d="M758.1 494.3l33.2-16.6m-176.1 94.1h33.2v16.6h-33.2z"/>
  <text transform="translate(654.3 585)" class="st0 st11 st12">
    Doctorov
  </text>
  <path class="st13" d="M615.2 588.5l33.3-16.7m370.6-275.5h33.3v16.6h-33.3z"/>
  <text transform="translate(1058.2 309.4)" class="st0 st11 st12">
    Kienmayer
  </text>
  <path class="st13" d="M1019.1 312.9l33.3-16.6m-159.6-83.7H926v16.6h-33.2z"/>
  <text transform="translate(931.8 225.8)" class="st0 st11 st12">
    Bag
  </text>
  <text transform="translate(955.3 225.8)" class="st0 st11 st12">
    r
  </text>
  <text transform="translate(961 225.8)" class="st0 st11 st12">
    ation
  </text>
  <path class="st13" d="M892.8 229.2l33.2-16.6"/>
</svg>
