<?xml version="1.0" encoding="utf-8"?>
<!-- Generator: Adobe Illustrator 16.0.0, SVG Export Plug-In . SVG Version: 6.00 Build 0)  -->
<!DOCTYPE svg PUBLIC "-//W3C//DTD SVG 1.1//EN" "http://www.w3.org/Graphics/SVG/1.1/DTD/svg11.dtd">
<svg version="1.1" id="Layer_1" xmlns="http://www.w3.org/2000/svg" xmlns:xlink="http://www.w3.org/1999/xlink" x="0px" y="0px"
	 width="1440px" height="910px" viewBox="0 0 1440 910" enable-background="new 0 0 1440 910" xml:space="preserve">
<g>
	<path fill="none" stroke="#CCCCCC" stroke-width="3" stroke-miterlimit="10" d="M491.42,225.79c0,0-6.75,7.42-8.67,11.67
		s-0.92,14.92-0.75,17.75s4.75,28.25,5.75,33.58s2.67,24.33,3.33,34.42s1.42,16.75,2.42,25.92s0.83,33.25,0.67,40.08
		s0.33,18.25-0.17,23.5s-5.25,26.33-6.25,33.92s-7.75,36.17-8.33,39.67s-12,36.75-12,36.75l-5.97,16.46
		c1.3,10.63,0.64,10.62,7.3,15.96s46.59,38.67,44.63,44.67s-6.87,24-6.75,27.33s-52.84,24-53.688,28.67
		c-0.852,4.67-14.852,26.96-28.852,28.48c-14,1.52-50.28,30.96-57.14,32.91c0,0-10.19-2.592-8.19,22.01
		c2,24.6,16.021,89.42,22.01,93.34c5.99,3.92,73.99,60.34,75.99,62.72"/>
	<path fill="none" stroke="#CCCCCC" stroke-width="3" stroke-miterlimit="10" d="M1112.67,0c-1.75,2.13-28,34.87-27.75,37.62
		s-85,67-88.88,70s-2.88,14.25-3.38,21.5s-9,31.25-12.08,36.83c-1.33,2.42-64.33,44.17-70.83,48.33
		c-6.5,4.16-20.33,11.5-23.67,12.83c-3.34,1.33-11.67,4.17-16.17,6.33c-4.5,2.16-17,5.5-24.33,7.33s-20.5,2.83-25.67,1.33
		s-19.67-1.67-23-1.67s-22.33-0.67-30.33-0.83c-8-0.16-28.33-2-35.5-2.83s-17.83,1.33-17.83,1.33s-10,1.67-18.5,3.5
		s-9.58,3.83-16.75,4.17s-27.92-5.33-36.17-6.67c-8.25-1.34-6.33-0.92-17.75,2.17s-16.92,2.33-21.83,1.67
		c-4.91-0.66-12-1.25-19.67-4.75s-16.42-8.17-23.75-13.33c-7.33-5.16-13.33-7-18.25-7.58c-4.92-0.58-13.5,0.83-19.17,1.58
		s-9.5,3.83-12.33,5.08s-4.08,1.33-11.08,1.58s-8,0.33-11.33,1.25s-24.75,5.17-24.75,5.17c-2.25,1.17-25.34-3.94-24.479-1.46
		c0.858,2.48-5.021,35.87-16.771,41.37s-18.25,10.75-21.25,9.25s-62-27.25-82.5-34.25s-84.5-21.5-87.75-26s-29.25-47.75-64.25-52.75
		s-35.25-11.25-42.75-24.75s-18.25-45.25-29.25-51.5S10.92,49.6,4.67,46.6s-13.25-9.75-13.25-9.75"/>
	<path fill="none" stroke="#CCCCCC" stroke-width="3" stroke-miterlimit="10" d="M826.17,242.99c0,0,1.69,2.75,14.061,13.75
		c12.369,11,46.939,37.5,49.939,40.13S908.42,312,908.42,312l16,10.25c0,0,5.63,15.5,6.13,19.25s2.13,16,4,20.63s5,15.88,9.75,28.75
		s25.25,55.88,26.5,57.75s2.25,4.63,5.13,6s14.13,9.13,14.13,9.13s23.04,36.472,27.382,53.09c4.34,16.62,10.998,33.95,13.328,37.28
		s4.33,13.67,4,18c-0.328,4.33,9,15.63,6,23.48c-3,7.85-2.14,8.64,0.602,14.52s9.81,20,6.438,22s-9.87,14-10.87,18s-7,47-4,53
		s1.5,12,2.5,15.5s5.5,0.5,8.5,2.5s5.24,3,3.87,7s-5.37,62-3.37,65s9.5,9,9.5,9s-10.459,2.86-12.979,6.43
		c-2.521,3.57-11.271,19.07-12.65,23.07s-22.898,16.75-22.39,21.63s11.01,35.25,8.51,40.312c-2.5,5.06-7,13.06-5.5,19.56"/>
	<path fill="none" stroke="#CCCCCC" stroke-width="3" stroke-miterlimit="10" d="M924.54,321.99l8.79-11.63c0,0-1.58-17.5-1.42-21
		s1.04-17.79,0.08-20.54s-3.04-15.71-3.04-16.63s-0.13-2.79-1.58-7s-3.33-13.67-3.33-15.54s-0.42-5.92-2.25-9.63
		s-5.13-10.33-5.13-10.33"/>
	<path fill="none" stroke="#CCCCCC" stroke-width="3" stroke-miterlimit="10" d="M1444.75,720.12c0,0-27.33-9.771-42.67-10.88
		c-15.34-1.11-46.67-6.45-48.67-12.45s-29.33-38.58-32.67-36.29c-3.342,2.29-34.67-5.71-41.33-5.71s-44.67,13.42-54,5.71
		s-10.67-21.04-22-19.04s-17.65,14.67-25.49,10s-19.84-16.64-22.51-34.99c-2.67-18.35,0-35.01-11.33-35.68s-21.66-7.33-27.83-7.33
		s-11.95,0-14.73,0c-2.778,0,1.25-8-8.43-6.67s-54.75,14.85-54.75,14.85"/>
</g>
<g>
	<path fill="none" stroke="#FFFFFF" stroke-miterlimit="10" d="M491.42,225.79c0,0-6.75,7.42-8.67,11.67s-0.92,14.92-0.75,17.75
		s4.75,28.25,5.75,33.58s2.67,24.33,3.33,34.42s1.42,16.75,2.42,25.92s0.83,33.25,0.67,40.08s0.33,18.25-0.17,23.5
		s-5.25,26.33-6.25,33.92s-7.75,36.17-8.33,39.67s-12,36.75-12,36.75l-5.97,16.46c1.3,10.63,0.64,10.62,7.3,15.96
		s46.59,38.67,44.63,44.67s-6.87,24-6.75,27.33s-52.84,24-53.688,28.67c-0.852,4.67-14.852,26.96-28.852,28.48
		c-14,1.52-50.28,30.96-57.14,32.91c0,0-10.19-2.592-8.19,22.01c2,24.6,16.021,89.42,22.01,93.34c5.99,3.92,73.99,60.34,75.99,62.72
		"/>
	<path fill="none" stroke="#FFFFFF" stroke-miterlimit="10" d="M1112.67,0c-1.75,2.13-28,34.87-27.75,37.62s-85,67-88.88,70
		s-2.88,14.25-3.38,21.5s-9,31.25-12.08,36.83c-1.33,2.42-64.33,44.17-70.83,48.33c-6.5,4.16-20.33,11.5-23.67,12.83
		c-3.34,1.33-11.67,4.17-16.17,6.33c-4.5,2.16-17,5.5-24.33,7.33s-20.5,2.83-25.67,1.33s-19.67-1.67-23-1.67s-22.33-0.67-30.33-0.83
		c-8-0.16-28.33-2-35.5-2.83s-17.83,1.33-17.83,1.33s-10,1.67-18.5,3.5s-9.58,3.83-16.75,4.17s-27.92-5.33-36.17-6.67
		c-8.25-1.34-6.33-0.92-17.75,2.17s-16.92,2.33-21.83,1.67c-4.91-0.66-12-1.25-19.67-4.75s-16.42-8.17-23.75-13.33
		c-7.33-5.16-13.33-7-18.25-7.58c-4.92-0.58-13.5,0.83-19.17,1.58s-9.5,3.83-12.33,5.08s-4.08,1.33-11.08,1.58s-8,0.33-11.33,1.25
		s-24.75,5.17-24.75,5.17c-2.25,1.17-25.34-3.94-24.479-1.46c0.858,2.48-5.021,35.87-16.771,41.37s-18.25,10.75-21.25,9.25
		s-62-27.25-82.5-34.25s-84.5-21.5-87.75-26s-29.25-47.75-64.25-52.75s-35.25-11.25-42.75-24.75s-18.25-45.25-29.25-51.5
		S10.92,49.6,4.67,46.6s-13.25-9.75-13.25-9.75"/>
	<path fill="none" stroke="#FFFFFF" stroke-miterlimit="10" d="M826.17,242.99c0,0,1.69,2.75,14.061,13.75
		c12.369,11,46.939,37.5,49.939,40.13S908.42,312,908.42,312l16,10.25c0,0,5.63,15.5,6.13,19.25s2.13,16,4,20.63s5,15.88,9.75,28.75
		s25.25,55.88,26.5,57.75s2.25,4.63,5.13,6s14.13,9.13,14.13,9.13s23.04,36.472,27.382,53.09c4.34,16.62,10.998,33.95,13.328,37.28
		s4.33,13.67,4,18c-0.328,4.33,9,15.63,6,23.48c-3,7.85-2.14,8.64,0.602,14.52s9.81,20,6.438,22s-9.87,14-10.87,18s-7,47-4,53
		s1.5,12,2.5,15.5s5.5,0.5,8.5,2.5s5.24,3,3.87,7s-5.37,62-3.37,65s9.5,9,9.5,9s-10.459,2.86-12.979,6.43
		c-2.521,3.57-11.271,19.07-12.65,23.07s-22.898,16.75-22.39,21.63s11.01,35.25,8.51,40.312c-2.5,5.06-7,13.06-5.5,19.56"/>
	<path fill="none" stroke="#FFFFFF" stroke-miterlimit="10" d="M924.54,321.99l8.79-11.63c0,0-1.58-17.5-1.42-21
		s1.04-17.79,0.08-20.54s-3.04-15.71-3.04-16.63s-0.13-2.79-1.58-7s-3.33-13.67-3.33-15.54s-0.42-5.92-2.25-9.63
		s-5.13-10.33-5.13-10.33"/>
	<path fill="none" stroke="#FFFFFF" stroke-miterlimit="10" d="M1444.75,720.12c0,0-27.33-9.771-42.67-10.88
		c-15.34-1.11-46.67-6.45-48.67-12.45s-29.33-38.58-32.67-36.29c-3.342,2.29-34.67-5.71-41.33-5.71s-44.67,13.42-54,5.71
		s-10.67-21.04-22-19.04s-17.65,14.67-25.49,10s-19.84-16.64-22.51-34.99c-2.67-18.35,0-35.01-11.33-35.68s-21.66-7.33-27.83-7.33
		s-11.95,0-14.73,0c-2.778,0,1.25-8-8.43-6.67s-54.75,14.85-54.75,14.85"/>
</g>
</svg>
