<?xml version="1.0" encoding="utf-8"?>
<!-- Generator: Adobe Illustrator 21.1.0, SVG Export Plug-In . SVG Version: 6.00 Build 0)  -->
<svg version="1.1" id="Troops" xmlns="http://www.w3.org/2000/svg" xmlns:xlink="http://www.w3.org/1999/xlink" x="0px" y="0px"
	 viewBox="0 0 1440 910" style="enable-background:new 0 0 1440 910;" xml:space="preserve">
<style type="text/css">
	.st0{fill:none;stroke:#0072BB;stroke-width:3;stroke-linecap:round;stroke-linejoin:round;}
	.st1{fill:none;stroke:#0072BB;stroke-width:3;stroke-linecap:round;stroke-linejoin:round;stroke-dasharray:7.32,3.66;}
	.st2{fill:#0072BB;}
	.st3{fill:none;stroke:#999999;stroke-width:10;stroke-linecap:round;stroke-linejoin:round;}
	.st4{fill:#999999;}
	.st5{font-family:'DroidSans';}
	.st6{font-size:12px;}
	.st7{fill:none;stroke:#0072BB;stroke-width:10;stroke-linecap:round;}
	.st8{fill:none;stroke:#999999;stroke-width:3;stroke-linecap:round;}
	.st9{fill:none;stroke:#999999;stroke-width:10;stroke-linecap:round;}
	.st10{fill:none;stroke:#0072BB;stroke-width:3;stroke-linejoin:round;}
	.st11{fill:none;stroke:#ED2939;stroke-width:3;stroke-linecap:round;stroke-linejoin:round;}
	.st12{fill:#ED2939;}
	.st13{fill:#FFFFFF;stroke:#0072BB;stroke-width:0.75;stroke-miterlimit:10;}
	.st14{font-family:'DroidSans-Bold';}
	.st15{fill:none;}
	.st16{fill:#FFFFFF;stroke:#ED2939;stroke-width:0.75;stroke-miterlimit:10;}
</style>
<path class="st0" d="M842.9,316.5c1.3-0.2,2.6-0.5,3.9-0.9"/>
<path class="st1" d="M850.4,315.8l3.8,0.4c0.9,0,3.6,0.7,6.4,1.2s7.8,2.4,9,2.2h0.6"/>
<path class="st0" d="M871.9,319.3c1-0.2,2.1-0.2,3.1,0.1l0.8,0.2"/>
<polygon class="st2" points="888.5,321.3 869.7,326 874.9,319.4 871.8,311.5 "/>
<path id="Saint_Cloud-16" class="st3" d="M482.6,382.5L482.6,382.5"/>
<text transform="matrix(1 0 0 1 484.8 397.2)" class="st4 st5 st6">Saint-Cloud</text>
<path class="st7" d="M691.9,348.4L691.9,348.4"/>
<text transform="matrix(1 0 0 1 697.4 342.9)" class="st4 st5 st6">Saarlouis</text>
<path class="st8" d="M662.8,328.6L662.8,328.6"/>
<path class="st9" d="M705.8,364.3L705.8,364.3"/>
<text transform="matrix(1 0 0 1 714.4 365.4)" class="st4 st5 st6">Sarreguemines</text>
<path class="st8" d="M628.4,360.6L628.4,360.6"/>
<path class="st8" d="M689,364.5L689,364.5"/>
<path class="st10" d="M684.2,363.3c1.1,0.1,3.6,1,4.7,1.2s2.8,0.9,3.6,0.6l0.5-0.2"/>
<polygon class="st2" points="705.8,364.4 688.3,372.6 692.2,365.1 687.6,358 "/>
<path id="Luneville-2" class="st9" d="M679.5,400L679.5,400"/>
<text transform="matrix(1 0 0 1 685 412.5)" class="st4 st5 st6">Lunéville</text>
<polygon class="st2" points="679.5,400 660.4,403.3 666.1,397.1 663.6,389 "/>
<path class="st9" d="M721.5,270.4L721.5,270.4"/>
<text transform="matrix(1 0 0 1 727 288.5)" class="st4 st5 st6">Andernach</text>
<path class="st8" d="M707.2,247.9L707.2,247.9"/>
<path class="st0" d="M707.2,247.9c0,0,3.6,4.6,4.1,5.4s0.9,5.3,2.2,6.5l0.4,0.4"/>
<polygon class="st2" points="721.6,270.4 705,260.5 713.4,259.5 716.6,251.7 "/>
<path class="st9" d="M780.4,258.7L780.4,258.7"/>
<text transform="matrix(1 0 0 1 785.3 271.2)" class="st4 st5 st6">Giessen</text>
<polygon class="st2" points="780.4,258.5 782.5,239.2 786.9,246.4 795.4,246.2 "/>
<path class="st11" d="M878.9,433.2c-0.9-0.2-6.4-0.2-11.8-0.2"/>
<polygon class="st12" points="854.4,433.9 871.8,425.5 868,433 872.8,440.1 "/>
<text transform="matrix(1 0 0 1 691.3 232.2)" class="st2 st5 st6">XXX</text>
<rect x="683.7" y="233.6" class="st13" width="30" height="15"/>
<text transform="matrix(1 0 0 1 693.9 245.9)" class="st2 st5 st6">II</text>
<text transform="matrix(1 0 0 1 624 245.5)" class="st2 st14 st6">Marmont</text>
<line class="st15" x1="683.7" y1="248.6" x2="713.7" y2="233.6"/>
<text transform="matrix(1 0 0 1 667.4 320)" class="st2 st5 st6">XXX</text>
<rect x="659.7" y="321.4" class="st13" width="30" height="15"/>
<text transform="matrix(1 0 0 1 613.6 333.3)" class="st2 st14 st6">Davout</text>
<text transform="matrix(1 0 0 1 667.6 333.7)" class="st2 st5 st6">III</text>
<line class="st15" x1="659.7" y1="336.4" x2="689.7" y2="321.4"/>
<text transform="matrix(1 0 0 1 661.9 350.3)" class="st2 st5 st6">XXX</text>
<rect x="654.3" y="351.7" class="st13" width="30" height="15"/>
<text transform="matrix(1 0 0 1 663 364)" class="st2 st5 st6">IV</text>
<text transform="matrix(1 0 0 1 619.9 363.6)" class="st2 st14 st6">Soult</text>
<line class="st15" x1="654.3" y1="366.7" x2="684.3" y2="351.7"/>
<text transform="matrix(1 0 0 1 923.4 675.3)" class="st2 st5 st6">XXX</text>
<rect x="915.8" y="676.7" class="st13" width="30" height="15"/>
<text transform="matrix(1 0 0 1 874 688.6)" class="st2 st14 st6">St. Cyr</text>
<line class="st15" x1="915.8" y1="691.7" x2="945.8" y2="676.7"/>
<text transform="matrix(1 0 0 1 806 606.4)" class="st2 st5 st6">XXXX</text>
<rect x="800.8" y="607.8" class="st13" width="30" height="15"/>
<text transform="matrix(1 0 0 1 809.4 620.1)" class="st2 st5 st6">VI</text>
<text transform="matrix(1 0 0 1 745.3 619.7)" class="st2 st14 st6">Masséna</text>
<line class="st15" x1="800.8" y1="622.8" x2="830.8" y2="607.8"/>
<text transform="matrix(1 0 0 1 488.9 409.6)" class="st2 st5 st6">XXXX</text>
<rect x="483.8" y="411" class="st13" width="30" height="15"/>
<text transform="matrix(1 0 0 1 422.9 422.9)" class="st2 st14 st6">Napoleon</text>
<line class="st15" x1="483.8" y1="426" x2="513.8" y2="411"/>
<text transform="matrix(1 0 0 1 850.5 295.1)" class="st2 st5 st6">XXX</text>
<rect x="842.9" y="296.5" class="st13" width="30" height="15"/>
<text transform="matrix(1 0 0 1 781.1 308.4)" class="st2 st14 st6">Bavarians</text>
<line class="st15" x1="842.9" y1="311.5" x2="872.9" y2="296.5"/>
<text transform="matrix(1 0 0 1 810.1 225.2)" class="st2 st5 st6">XXX</text>
<rect x="802.5" y="226.6" class="st13" width="30" height="15"/>
<text transform="matrix(1 0 0 1 815 239)" class="st2 st5 st6">I</text>
<text transform="matrix(1 0 0 1 732.9 238.5)" class="st2 st14 st6">Bernado</text>
<text transform="matrix(1 0 0 1 781.7 238.5)" class="st2 st14 st6">t</text>
<text transform="matrix(1 0 0 1 786.8 238.5)" class="st2 st14 st6">te</text>
<line class="st15" x1="802.5" y1="241.6" x2="832.5" y2="226.6"/>
<text transform="matrix(1 0 0 1 639.6 387.5)" class="st2 st5 st6">XXX</text>
<rect x="632" y="388.9" class="st13" width="30" height="15"/>
<text transform="matrix(1 0 0 1 640.6 401.2)" class="st2 st5 st6">VI</text>
<text transform="matrix(1 0 0 1 604.4 400.8)" class="st2 st14 st6">Ney</text>
<line class="st15" x1="632" y1="403.9" x2="662" y2="388.9"/>
<text transform="matrix(1 0 0 1 822.1 398.1)" class="st12 st5 st6">XXX</text>
<rect x="814.5" y="399.5" class="st16" width="30" height="15"/>
<text transform="matrix(1 0 0 1 849.7 411.4)" class="st12 st14 st6">Mack</text>
<line class="st15" x1="814.5" y1="414.5" x2="844.5" y2="399.5"/>
<text transform="matrix(1 0 0 1 924.7 515.2)" class="st12 st5 st6">XX</text>
<rect x="914.6" y="516.7" class="st16" width="30" height="15"/>
<text transform="matrix(1 0 0 1 949.9 528.5)" class="st12 st14 st6">Hiller</text>
<line class="st15" x1="914.6" y1="531.7" x2="944.6" y2="516.7"/>
<text transform="matrix(1 0 0 1 896.6 617.3)" class="st12 st5 st6">XXX</text>
<rect x="889" y="618.7" class="st16" width="30" height="15"/>
<text transform="matrix(1 0 0 1 924.3 630.6)" class="st12 st14 st6">Charles</text>
<line class="st15" x1="889" y1="633.7" x2="919" y2="618.7"/>
<text transform="matrix(1 0 0 1 963.7 439.8)" class="st12 st5 st6">XX</text>
<rect x="953.6" y="441.2" class="st16" width="30" height="15"/>
<text transform="matrix(1 0 0 1 988.9 453.1)" class="st12 st14 st6">Gyulai</text>
<line class="st15" x1="953.6" y1="456.2" x2="983.6" y2="441.2"/>
<text transform="matrix(1 0 0 1 921.7 464.3)" class="st12 st5 st6">XXX</text>
<rect x="914.1" y="465.7" class="st16" width="30" height="15"/>
<text transform="matrix(1 0 0 1 949.3 477.6)" class="st12 st14 st6">Ferdinand</text>
<line class="st15" x1="914.1" y1="480.7" x2="944.1" y2="465.7"/>
<text transform="matrix(1 0 0 1 932.7 375.6)" class="st12 st5 st6">XXX</text>
<rect x="925.1" y="377" class="st16" width="30" height="15"/>
<text transform="matrix(1 0 0 1 960.3 388.9)" class="st12 st14 st6">Kienmayer</text>
<line class="st15" x1="925.1" y1="392" x2="955.1" y2="377"/>
<text transform="matrix(1 0 0 1 920.7 418.9)" class="st12 st5 st6">XX</text>
<rect x="910.6" y="420.3" class="st16" width="30" height="15"/>
<text transform="matrix(1 0 0 1 942.9 432.2)" class="st12 st14 st6">Go</text>
<text transform="matrix(1 0 0 1 958.8 432.2)" class="st12 st14 st6">t</text>
<text transform="matrix(1 0 0 1 963.9 432.2)" class="st12 st14 st6">tesheim</text>
<line class="st15" x1="910.6" y1="435.3" x2="940.6" y2="420.3"/>
<text transform="matrix(1 0 0 1 781.1 414.9)" class="st12 st5 st6">XX</text>
<rect x="771" y="416.3" class="st16" width="30" height="15"/>
<text transform="matrix(1 0 0 1 806.3 428.2)" class="st12 st14 st6">Klenau</text>
<line class="st15" x1="771" y1="431.3" x2="801" y2="416.3"/>
<text transform="matrix(1 0 0 1 815.5 491.6)" class="st12 st5 st6">XXX</text>
<rect x="807.9" y="493" class="st16" width="30" height="15"/>
<text transform="matrix(1 0 0 1 844.2 504.9)" class="st12 st14 st6">John</text>
<line class="st15" x1="807.9" y1="508" x2="837.9" y2="493"/>
<text transform="matrix(1 0 0 1 1018.9 400.9)" class="st12 st5 st6">XX</text>
<rect x="1008.8" y="402.3" class="st16" width="30" height="15"/>
<text transform="matrix(1 0 0 1 1044.1 414.2)" class="st12 st14 st6">Riesch</text>
<line class="st15" x1="1008.8" y1="417.3" x2="1038.8" y2="402.3"/>
<text transform="matrix(1 0 0 1 813.1 441.3)" class="st12 st5 st6">XX</text>
<line class="st15" x1="803" y1="457.7" x2="833" y2="442.7"/>
<rect x="803" y="442.7" class="st16" width="30" height="15"/>
<text transform="matrix(1 0 0 1 839.2 454.6)" class="st12 st14 st6">Jellachich</text>
</svg>
