<?xml version="1.0" encoding="utf-8"?>
<!-- Generator: Adobe Illustrator 21.1.0, SVG Export Plug-In . SVG Version: 6.00 Build 0)  -->
<svg version="1.1" id="Troops" xmlns="http://www.w3.org/2000/svg" xmlns:xlink="http://www.w3.org/1999/xlink" x="0px" y="0px"
	 viewBox="0 0 1440 910" style="enable-background:new 0 0 1440 910;" xml:space="preserve">
<style type="text/css">
	.st0{fill:none;stroke:#999999;stroke-width:10;stroke-linecap:round;stroke-linejoin:round;}
	.st1{fill:#999999;}
	.st2{font-family:'DroidSans';}
	.st3{font-size:12px;}
	.st4{fill:none;stroke:#999999;stroke-width:3;stroke-linecap:round;stroke-linejoin:round;}
	.st5{fill:none;stroke:#999999;stroke-width:10;stroke-linecap:round;}
	.st6{fill:none;stroke:#0072BB;stroke-width:3;stroke-linecap:round;stroke-linejoin:round;}
	.st7{fill:#0072BB;}
	.st8{fill:none;stroke:#ED2939;stroke-width:3;stroke-linecap:round;stroke-linejoin:round;stroke-dasharray:6.99;}
	.st9{fill:#ED2939;}
	.st10{fill:none;stroke:#ED2939;stroke-width:3;stroke-linecap:round;stroke-linejoin:round;}
	.st11{fill:none;stroke:#ED2939;stroke-width:3;stroke-linecap:round;stroke-linejoin:round;stroke-dasharray:9.48,4.74;}
	.st12{fill:none;stroke:#ED2939;stroke-width:3;stroke-linecap:round;stroke-linejoin:round;stroke-dasharray:7.34,3.67;}
	.st13{fill:#FFFFFF;stroke:#0072BB;stroke-width:0.75;stroke-miterlimit:10;}
	.st14{font-family:'DroidSans-Bold';}
	.st15{fill:none;}
	.st16{fill:#FFFFFF;stroke:#ED2939;stroke-width:0.75;stroke-miterlimit:10;}
</style>
<path id="Pont_de_Briques-8" class="st0" d="M456,251.9L456,251.9"/>
<text transform="matrix(1 0 0 1 359.8 263.8)" class="st1 st2 st3">Pont de Briques</text>
<path id="Pont_de_Briques-10" class="st4" d="M456,251.9L456,251.9"/>
<path class="st5" d="M536.9,257.3L536.9,257.3"/>
<text transform="matrix(1 0 0 1 542.4 251.8)" class="st1 st2 st3">T</text>
<text transform="matrix(1 0 0 1 547.9 251.8)" class="st1 st2 st3">ournai</text>
<path class="st6" d="M513.2,254.2c0.7,0.4,6.3,1.4,10.9,2.2"/>
<polygon class="st7" points="536.8,257.3 518.4,263.1 523.2,256.2 519.6,248.5 "/>
<path class="st5" d="M502.3,262.9L502.3,262.9"/>
<text transform="matrix(1 0 0 1 508.9 276.8)" class="st1 st2 st3">Béthune</text>
<path class="st6" d="M484,243.7l9.4,9.8"/>
<polygon class="st7" points="502.2,262.7 484.5,254.9 492.7,252.8 495,244.7 "/>
<path id="Bapume" class="st5" d="M512.3,293.4L512.3,293.4"/>
<text transform="matrix(1 0 0 1 514.4 309.6)" class="st1 st2 st3">Bapaume</text>
<path class="st5" d="M599.6,92.2L599.6,92.2"/>
<text transform="matrix(1 0 0 1 605.1 86.7)" class="st1 st2 st3">&apos;</text>
<text transform="matrix(1 0 0 1 608.1 86.7)" class="st1 st2 st3">t Zand</text>
<path class="st5" d="M829.5,135.1L829.5,135.1"/>
<text transform="matrix(1 0 0 1 835 129.6)" class="st1 st2 st3">Pa</text>
<text transform="matrix(1 0 0 1 848.3 129.6)" class="st1 st2 st3">t</text>
<text transform="matrix(1 0 0 1 852.5 129.6)" class="st1 st2 st3">tensen</text>
<path class="st6" d="M817.2,114.8l6.2,9"/>
<polygon class="st7" points="829.5,135 814.3,123 822.8,123.1 827,115.8 "/>
<path class="st4" d="M1132.5,423L1132.5,423"/>
<path class="st0" d="M1132.5,423L1132.5,423"/>
<text transform="matrix(1 0 0 1 1134.7 418.1)" class="st1 st2 st3">Vienna</text>
<path class="st5" d="M1024.5,429.9L1024.5,429.9"/>
<text transform="matrix(1 0 0 1 1028.3 442.6)" class="st1 st2 st3">W</text>
<text transform="matrix(1 0 0 1 1038.7001 442.6)" class="st1 st2 st3">els</text>
<path class="st8" d="M1041.7,401.6c-2.7,0.1-2,4.1-2.1,4.6l-0.5,1.2"/>
<polygon class="st9" points="1035.7,419.6 1033.5,400.4 1039.4,406.5 1047.6,404.4 "/>
<path class="st10" d="M1060.7,419.1l3.2-2.4"/>
<path class="st11" d="M1066.6,412.9c0.3-1.3,1.3-2.3,2.5-2.7c0.3-0.2,11.8-6.2,13.4-7.6s1.8-3,1.4-2s0.5-1.8,1-1.9l1.1-0.3"/>
<path class="st10" d="M1088.1,397.6l0.4-0.3c1.1-0.8,2.5-0.5,3.4-0.5"/>
<polygon class="st9" points="1049,424.1 1068.4,423.3 1061.4,418.4 1062.2,410 "/>
<path class="st10" d="M991.7,397l3.9,0.9"/>
<path class="st12" d="M999.2,398.7c3.1,0.8,6.3,1.8,7.4,2.6l1.1,0.8"/>
<path class="st10" d="M1009.1,403.1l3.2,2.4"/>
<polygon class="st9" points="1016.9,417.4 1002.8,404.1 1011.2,404.9 1016.1,398 "/>
<text transform="matrix(1 0 0 1 610.3 103.2)" class="st7 st2 st3">XXX</text>
<rect x="602.7" y="104.6" class="st13" width="30" height="15"/>
<text transform="matrix(1 0 0 1 612.9 116.9)" class="st7 st2 st3">II</text>
<text transform="matrix(1 0 0 1 543 116.5)" class="st7 st14 st3">Marmont</text>
<line class="st15" x1="602.7" y1="119.6" x2="632.7" y2="104.6"/>
<text transform="matrix(1 0 0 1 560.1 217.9)" class="st7 st2 st3">XXX</text>
<rect x="552.5" y="219.3" class="st13" width="30" height="15"/>
<text transform="matrix(1 0 0 1 506.3 231.2)" class="st7 st14 st3">Davout</text>
<text transform="matrix(1 0 0 1 560.4 231.6)" class="st7 st2 st3">III</text>
<line class="st15" x1="552.5" y1="234.3" x2="582.5" y2="219.3"/>
<text transform="matrix(1 0 0 1 557.1 282.8)" class="st7 st2 st3">XXX</text>
<rect x="549.5" y="284.2" class="st13" width="30" height="15"/>
<text transform="matrix(1 0 0 1 558.1 296.5)" class="st7 st2 st3">IV</text>
<text transform="matrix(1 0 0 1 515.1 296.1)" class="st7 st14 st3">Soult</text>
<line class="st15" x1="549.5" y1="299.2" x2="579.5" y2="284.2"/>
<text transform="matrix(1 0 0 1 1008.4 760.5)" class="st7 st2 st3">XXX</text>
<rect x="1000.8" y="761.9" class="st13" width="30" height="15"/>
<text transform="matrix(1 0 0 1 959 773.8)" class="st7 st14 st3">St. Cyr</text>
<line class="st15" x1="1000.8" y1="776.9" x2="1030.8" y2="761.9"/>
<text transform="matrix(1 0 0 1 433.7 237.7)" class="st7 st2 st3">XXXX</text>
<rect x="428.5" y="239.1" class="st13" width="30" height="15"/>
<text transform="matrix(1 0 0 1 367.6 251)" class="st7 st14 st3">Napoleon</text>
<line class="st15" x1="428.5" y1="254.1" x2="458.5" y2="239.1"/>
<text transform="matrix(1 0 0 1 871.3 447.4)" class="st7 st2 st3">XXX</text>
<rect x="863.7" y="448.8" class="st13" width="30" height="15"/>
<text transform="matrix(1 0 0 1 801.9 460.7)" class="st7 st14 st3">Bavarians</text>
<line class="st15" x1="863.7" y1="463.8" x2="893.7" y2="448.8"/>
<text transform="matrix(1 0 0 1 847.1 100.2)" class="st7 st2 st3">XXX</text>
<rect x="839.5" y="101.6" class="st13" width="30" height="15"/>
<text transform="matrix(1 0 0 1 852 114)" class="st7 st2 st3">I</text>
<text transform="matrix(1 0 0 1 769.9 113.5)" class="st7 st14 st3">Bernado</text>
<text transform="matrix(1 0 0 1 818.7 113.5)" class="st7 st14 st3">t</text>
<text transform="matrix(1 0 0 1 823.8 113.5)" class="st7 st14 st3">te</text>
<line class="st15" x1="839.5" y1="116.6" x2="869.5" y2="101.6"/>
<text transform="matrix(1 0 0 1 527.8 321.3)" class="st7 st2 st3">XXX</text>
<rect x="520.2" y="322.8" class="st13" width="30" height="15"/>
<text transform="matrix(1 0 0 1 528.8 335.1)" class="st7 st2 st3">VI</text>
<text transform="matrix(1 0 0 1 492.6 334.6)" class="st7 st14 st3">Ney</text>
<line class="st15" x1="520.2" y1="337.8" x2="550.2" y2="322.8"/>
<text transform="matrix(1 0 0 1 1150.8 456.1)" class="st9 st2 st3">XXX</text>
<rect x="1143.1" y="457.5" class="st16" width="30" height="15"/>
<text transform="matrix(1 0 0 1 1178.4 469.4)" class="st9 st14 st3">Mack</text>
<line class="st15" x1="1143.1" y1="472.5" x2="1173.1" y2="457.5"/>
<text transform="matrix(1 0 0 1 924.7 515.2)" class="st9 st2 st3">XX</text>
<rect x="914.6" y="516.7" class="st16" width="30" height="15"/>
<text transform="matrix(1 0 0 1 949.9 528.5)" class="st9 st14 st3">Hiller</text>
<line class="st15" x1="914.6" y1="531.7" x2="944.6" y2="516.7"/>
<text transform="matrix(1 0 0 1 1062.6 578.3)" class="st9 st2 st3">XXX</text>
<rect x="1055" y="579.7" class="st16" width="30" height="15"/>
<text transform="matrix(1 0 0 1 1090.3 591.6)" class="st9 st14 st3">Charles</text>
<line class="st15" x1="1055" y1="594.7" x2="1085" y2="579.7"/>
<text transform="matrix(1 0 0 1 1150.8 430.8)" class="st9 st2 st3">XXX</text>
<rect x="1143.1" y="432.2" class="st16" width="30" height="15"/>
<text transform="matrix(1 0 0 1 1178.4 444.1)" class="st9 st14 st3">Ferdinand</text>
<line class="st15" x1="1143.1" y1="447.2" x2="1173.1" y2="432.2"/>
<text transform="matrix(1 0 0 1 1064.3 479.1)" class="st9 st2 st3">XX</text>
<rect x="1054.2" y="480.5" class="st16" width="30" height="15"/>
<text transform="matrix(1 0 0 1 1087.4 492.4)" class="st9 st14 st3">Go</text>
<text transform="matrix(1 0 0 1 1103.3 492.4)" class="st9 st14 st3">t</text>
<text transform="matrix(1 0 0 1 1108.4 492.4)" class="st9 st14 st3">tesheim</text>
<line class="st15" x1="1054.2" y1="495.5" x2="1084.2" y2="480.5"/>
<text transform="matrix(1 0 0 1 1019.2 380.6)" class="st9 st2 st3">XX</text>
<rect x="1009.1" y="382" class="st16" width="30" height="15"/>
<text transform="matrix(1 0 0 1 1044.3 393.9)" class="st9 st14 st3">Klenau</text>
<line class="st15" x1="1009.1" y1="397" x2="1039.1" y2="382"/>
<text transform="matrix(1 0 0 1 815.5 491.6)" class="st9 st2 st3">XXX</text>
<rect x="807.9" y="493" class="st16" width="30" height="15"/>
<text transform="matrix(1 0 0 1 844.2 504.9)" class="st9 st14 st3">John</text>
<line class="st15" x1="807.9" y1="508" x2="837.9" y2="493"/>
<text transform="matrix(1 0 0 1 873.1 476.3)" class="st9 st2 st3">XX</text>
<line class="st15" x1="863" y1="492.7" x2="893" y2="477.7"/>
<rect x="863" y="477.7" class="st16" width="30" height="15"/>
<text transform="matrix(1 0 0 1 899.2 489.6)" class="st9 st14 st3">Jellachich</text>
</svg>
