<?xml version="1.0" encoding="utf-8"?>
<!-- Generator: Adobe Illustrator 21.1.0, SVG Export Plug-In . SVG Version: 6.00 Build 0)  -->
<svg version="1.1" id="Troops" xmlns="http://www.w3.org/2000/svg" xmlns:xlink="http://www.w3.org/1999/xlink" x="0px" y="0px"
	 viewBox="0 0 1440 910" style="enable-background:new 0 0 1440 910;" xml:space="preserve">
<style type="text/css">
	.st0{fill:none;stroke:#999999;stroke-width:10;stroke-linecap:round;stroke-linejoin:round;}
	.st1{fill:#999999;}
	.st2{font-family:'DroidSans';}
	.st3{font-size:12px;}
	.st4{fill:none;stroke:#999999;stroke-width:3;stroke-linecap:round;stroke-linejoin:round;}
	.st5{fill:none;stroke:#999999;stroke-width:10;stroke-linecap:round;}
	.st6{fill:none;stroke:#0072BB;stroke-width:3;stroke-linecap:round;}
	.st7{fill:none;stroke:#0072BB;stroke-width:3;stroke-linecap:round;stroke-linejoin:round;}
	.st8{fill:#0072BB;}
	.st9{fill:#FFFFFF;stroke:#0072BB;stroke-width:0.75;stroke-miterlimit:10;}
	.st10{font-family:'DroidSans-Bold';}
	.st11{fill:none;}
	.st12{fill:#ED2939;}
	.st13{fill:#FFFFFF;stroke:#ED2939;stroke-width:0.75;stroke-miterlimit:10;}
</style>
<path id="Pont_de_Briques-12" class="st0" d="M456,251.9L456,251.9"/>
<text transform="matrix(1 0 0 1 359.8 263.8)" class="st1 st2 st3">Pont de Briques</text>
<path id="Pont_de_Briques-14" class="st4" d="M456,251.9L456,251.9"/>
<path class="st5" d="M521.7,255.6L521.7,255.6"/>
<text transform="matrix(1 0 0 1 527.3 250.1)" class="st1 st2 st3">Lille</text>
<path class="st6" d="M507,247.9L507,247.9"/>
<path class="st7" d="M500.6,244.6l6.2,3.1c1.2,0.2,2.2,0.6,3.2,1.3l0.6,0.4"/>
<polygon class="st8" points="521.7,255.6 502.5,253.2 509.8,248.9 509.7,240.4 "/>
<path class="st5" d="M491.1,255.1L491.1,255.1"/>
<text transform="matrix(1 0 0 1 495.5 271.2)" class="st1 st2 st3">Aire-sur-la-Lys</text>
<path class="st6" d="M484.5,247L484.5,247"/>
<path class="st7" d="M474.3,239.6c0.7-0.3,5.8,3.7,8.5,5.9"/>
<polygon class="st8" points="491.1,255.1 473.7,246.6 482,244.9 484.6,236.9 "/>
<path id="Bapume-2" class="st5" d="M512.3,293.4L512.3,293.4"/>
<text transform="matrix(1 0 0 1 514.4 309.6)" class="st1 st2 st3">Bapaume</text>
<path class="st7" d="M503.8,273.9c0.5,0.3,2.7,4,4.5,7.4"/>
<polygon class="st8" points="512.3,293.4 499.5,278.9 507.8,280.5 513.3,274.1 "/>
<path class="st5" d="M599.6,92.2L599.6,92.2"/>
<text transform="matrix(1 0 0 1 605.1 86.7)" class="st1 st2 st3">&apos;</text>
<text transform="matrix(1 0 0 1 608.1 86.7)" class="st1 st2 st3">t Zand</text>
<path class="st5" d="M827.2,125.8L827.2,125.8"/>
<text transform="matrix(1 0 0 1 830.7 120.3)" class="st1 st2 st3">Hanover</text>
<path class="st4" d="M1132.5,423L1132.5,423"/>
<path class="st0" d="M1132.5,423L1132.5,423"/>
<text transform="matrix(1 0 0 1 1134.7 418.1)" class="st1 st2 st3">Vienna</text>
<path class="st5" d="M1024.5,429.9L1024.5,429.9"/>
<text transform="matrix(1 0 0 1 1028.3 442.6)" class="st1 st2 st3">W</text>
<text transform="matrix(1 0 0 1 1038.7001 442.6)" class="st1 st2 st3">els</text>
<text transform="matrix(1 0 0 1 610.3 103.2)" class="st8 st2 st3">XXX</text>
<rect x="602.7" y="104.6" class="st9" width="30" height="15"/>
<text transform="matrix(1 0 0 1 612.9 116.9)" class="st8 st2 st3">II</text>
<text transform="matrix(1 0 0 1 543 116.5)" class="st8 st10 st3">Marmont</text>
<line class="st11" x1="602.7" y1="119.6" x2="632.7" y2="104.6"/>
<text transform="matrix(1 0 0 1 530.1 207.9)" class="st8 st2 st3">XXX</text>
<rect x="522.5" y="209.3" class="st9" width="30" height="15"/>
<text transform="matrix(1 0 0 1 476.3 221.2)" class="st8 st10 st3">Davout</text>
<text transform="matrix(1 0 0 1 530.4 221.6)" class="st8 st2 st3">III</text>
<line class="st11" x1="522.5" y1="224.3" x2="552.5" y2="209.3"/>
<text transform="matrix(1 0 0 1 557.1 282.8)" class="st8 st2 st3">XXX</text>
<rect x="549.5" y="284.2" class="st9" width="30" height="15"/>
<text transform="matrix(1 0 0 1 558.1 296.5)" class="st8 st2 st3">IV</text>
<text transform="matrix(1 0 0 1 515.1 296.1)" class="st8 st10 st3">Soult</text>
<line class="st11" x1="549.5" y1="299.2" x2="579.5" y2="284.2"/>
<text transform="matrix(1 0 0 1 1011.4 765)" class="st8 st2 st3">XXX</text>
<rect x="1003.8" y="766.4" class="st9" width="30" height="15"/>
<text transform="matrix(1 0 0 1 962 778.3)" class="st8 st10 st3">St. Cyr</text>
<line class="st11" x1="1003.8" y1="781.4" x2="1033.8" y2="766.4"/>
<text transform="matrix(1 0 0 1 433.7 237.7)" class="st8 st2 st3">XXXX</text>
<rect x="428.5" y="239.1" class="st9" width="30" height="15"/>
<text transform="matrix(1 0 0 1 367.6 251)" class="st8 st10 st3">Napoleon</text>
<line class="st11" x1="428.5" y1="254.1" x2="458.5" y2="239.1"/>
<text transform="matrix(1 0 0 1 871.3 447.4)" class="st8 st2 st3">XXX</text>
<rect x="863.7" y="448.8" class="st9" width="30" height="15"/>
<text transform="matrix(1 0 0 1 801.9 460.7)" class="st8 st10 st3">Bavarians</text>
<line class="st11" x1="863.7" y1="463.8" x2="893.7" y2="448.8"/>
<text transform="matrix(1 0 0 1 800.1 100.2)" class="st8 st2 st3">XXX</text>
<rect x="792.5" y="101.6" class="st9" width="30" height="15"/>
<text transform="matrix(1 0 0 1 805 114)" class="st8 st2 st3">I</text>
<text transform="matrix(1 0 0 1 722.9 113.5)" class="st8 st10 st3">Bernado</text>
<text transform="matrix(1 0 0 1 771.7 113.5)" class="st8 st10 st3">t</text>
<text transform="matrix(1 0 0 1 776.8 113.5)" class="st8 st10 st3">te</text>
<line class="st11" x1="792.5" y1="116.6" x2="822.5" y2="101.6"/>
<text transform="matrix(1 0 0 1 527.8 321.3)" class="st8 st2 st3">XXX</text>
<rect x="520.2" y="322.8" class="st9" width="30" height="15"/>
<text transform="matrix(1 0 0 1 528.8 335.1)" class="st8 st2 st3">VI</text>
<text transform="matrix(1 0 0 1 492.6 334.6)" class="st8 st10 st3">Ney</text>
<line class="st11" x1="520.2" y1="337.8" x2="550.2" y2="322.8"/>
<text transform="matrix(1 0 0 1 1150.8 456.1)" class="st12 st2 st3">XXX</text>
<rect x="1143.1" y="457.5" class="st13" width="30" height="15"/>
<text transform="matrix(1 0 0 1 1178.4 469.4)" class="st12 st10 st3">Mack</text>
<line class="st11" x1="1143.1" y1="472.5" x2="1173.1" y2="457.5"/>
<text transform="matrix(1 0 0 1 924.7 515.2)" class="st12 st2 st3">XX</text>
<rect x="914.6" y="516.7" class="st13" width="30" height="15"/>
<text transform="matrix(1 0 0 1 949.9 528.5)" class="st12 st10 st3">Hiller</text>
<line class="st11" x1="914.6" y1="531.7" x2="944.6" y2="516.7"/>
<text transform="matrix(1 0 0 1 1062.6 578.3)" class="st12 st2 st3">XXX</text>
<rect x="1055" y="579.7" class="st13" width="30" height="15"/>
<text transform="matrix(1 0 0 1 1090.3 591.6)" class="st12 st10 st3">Charles</text>
<line class="st11" x1="1055" y1="594.7" x2="1085" y2="579.7"/>
<text transform="matrix(1 0 0 1 1150.8 430.8)" class="st12 st2 st3">XXX</text>
<rect x="1143.1" y="432.2" class="st13" width="30" height="15"/>
<text transform="matrix(1 0 0 1 1178.4 444.1)" class="st12 st10 st3">Ferdinand</text>
<line class="st11" x1="1143.1" y1="447.2" x2="1173.1" y2="432.2"/>
<text transform="matrix(1 0 0 1 1064.3 479.1)" class="st12 st2 st3">XX</text>
<rect x="1054.2" y="480.5" class="st13" width="30" height="15"/>
<text transform="matrix(1 0 0 1 1087.4 492.4)" class="st12 st10 st3">Go</text>
<text transform="matrix(1 0 0 1 1103.3 492.4)" class="st12 st10 st3">t</text>
<text transform="matrix(1 0 0 1 1108.4 492.4)" class="st12 st10 st3">tesheim</text>
<line class="st11" x1="1054.2" y1="495.5" x2="1084.2" y2="480.5"/>
<text transform="matrix(1 0 0 1 1019.2 380.6)" class="st12 st2 st3">XX</text>
<rect x="1009.1" y="382" class="st13" width="30" height="15"/>
<text transform="matrix(1 0 0 1 1044.3 393.9)" class="st12 st10 st3">Klenau</text>
<line class="st11" x1="1009.1" y1="397" x2="1039.1" y2="382"/>
<text transform="matrix(1 0 0 1 815.5 491.6)" class="st12 st2 st3">XXX</text>
<rect x="807.9" y="493" class="st13" width="30" height="15"/>
<text transform="matrix(1 0 0 1 844.2 504.9)" class="st12 st10 st3">John</text>
<line class="st11" x1="807.9" y1="508" x2="837.9" y2="493"/>
<text transform="matrix(1 0 0 1 873.1 476.3)" class="st12 st2 st3">XX</text>
<line class="st11" x1="863" y1="492.7" x2="893" y2="477.7"/>
<rect x="863" y="477.7" class="st13" width="30" height="15"/>
<text transform="matrix(1 0 0 1 899.2 489.6)" class="st12 st10 st3">Jellachich</text>
</svg>
