<?xml version="1.0" encoding="utf-8"?>
<!-- Generator: Adobe Illustrator 21.1.0, SVG Export Plug-In . SVG Version: 6.00 Build 0)  -->
<svg version="1.1" id="Troops" xmlns="http://www.w3.org/2000/svg" xmlns:xlink="http://www.w3.org/1999/xlink" x="0px" y="0px"
	 viewBox="0 0 1440 910" style="enable-background:new 0 0 1440 910;" xml:space="preserve">
<style type="text/css">
	.st0{fill:none;stroke:#999999;stroke-width:10;stroke-linecap:round;stroke-linejoin:round;}
	.st1{fill:#999999;}
	.st2{font-family:'DroidSans';}
	.st3{font-size:12px;}
	.st4{fill:none;stroke:#999999;stroke-width:3;stroke-linecap:round;stroke-linejoin:round;}
	.st5{fill:none;stroke:#999999;stroke-width:10;stroke-linecap:round;}
	.st6{fill:none;stroke:#0072BB;stroke-width:3;stroke-linecap:round;}
	.st7{fill:none;stroke:#0072BB;stroke-width:3;stroke-linecap:round;stroke-linejoin:round;}
	.st8{fill:#0072BB;}
	.st9{fill:none;stroke:#ED2939;stroke-width:3;stroke-linecap:round;stroke-linejoin:round;}
	.st10{fill:none;stroke:#ED2939;stroke-width:3;stroke-linecap:round;}
	.st11{fill:#FFFFFF;stroke:#0072BB;stroke-width:0.75;stroke-miterlimit:10;}
	.st12{font-family:'DroidSans-Bold';}
	.st13{fill:none;}
	.st14{fill:#ED2939;}
	.st15{fill:#FFFFFF;stroke:#ED2939;stroke-width:0.75;stroke-miterlimit:10;}
</style>
<path id="Pont_de_Briques-4" class="st0" d="M456,251.9L456,251.9"/>
<text transform="matrix(1 0 0 1 359.8 263.8)" class="st1 st2 st3">Pont de Briques</text>
<path id="Pont_de_Briques-6" class="st4" d="M456,251.9L456,251.9"/>
<path class="st5" d="M536.9,257.3L536.9,257.3"/>
<text transform="matrix(1 0 0 1 542.4 251.8)" class="st1 st2 st3">T</text>
<text transform="matrix(1 0 0 1 547.9 251.8)" class="st1 st2 st3">ournai</text>
<path class="st5" d="M511.1,270.2L511.1,270.2"/>
<text transform="matrix(1 0 0 1 519.5 283.4)" class="st1 st2 st3">Lens</text>
<path class="st6" d="M502.3,262.9L502.3,262.9"/>
<line class="st7" x1="492.2" y1="252.7" x2="501.7" y2="261.6"/>
<polygon class="st8" points="511,270.2 492.9,263.4 501,260.9 502.9,252.7 "/>
<path id="Peronne-2" class="st5" d="M516.1,305.7L516.1,305.7"/>
<text transform="matrix(1 0 0 1 518.6 321)" class="st1 st2 st3">Péronne</text>
<path class="st7" d="M510.7,280.2c0.1,0.2,1.8,7.2,3.1,12.9"/>
<polygon class="st8" points="516,305.6 505.6,289.3 513.5,292.1 519.9,286.6 "/>
<path class="st5" d="M599.6,92.2L599.6,92.2"/>
<text transform="matrix(1 0 0 1 605.1 86.7)" class="st1 st2 st3">&apos;</text>
<text transform="matrix(1 0 0 1 608.1 86.7)" class="st1 st2 st3">t Zand</text>
<path class="st5" d="M828.5,145.9L828.5,145.9"/>
<text transform="matrix(1 0 0 1 834 140.4)" class="st1 st2 st3">Elze</text>
<path class="st6" d="M829.5,135.1L829.5,135.1"/>
<path class="st7" d="M828.2,122.8c0,0-0.9,6.5-0.5,7.6l1.1,2.8"/>
<polygon class="st8" points="828.4,145.9 820.8,128.1 828.2,132.2 835.5,127.9 "/>
<path class="st9" d="M1132.5,423L1132.5,423"/>
<path class="st0" d="M1132.5,423L1132.5,423"/>
<text transform="matrix(1 0 0 1 1134.7 418.1)" class="st1 st2 st3">Vienna</text>
<path class="st10" d="M1024.5,429.9L1024.5,429.9"/>
<text transform="matrix(1 0 0 1 1028.3 442.6)" class="st1 st2 st3">W</text>
<text transform="matrix(1 0 0 1 1038.7001 442.6)" class="st1 st2 st3">els</text>
<path class="st5" d="M1024.5,429.9L1024.5,429.9"/>
<text transform="matrix(1 0 0 1 610.3 103.2)" class="st8 st2 st3">XXX</text>
<rect x="602.7" y="104.6" class="st11" width="30" height="15"/>
<text transform="matrix(1 0 0 1 612.9 116.9)" class="st8 st2 st3">II</text>
<text transform="matrix(1 0 0 1 543 116.5)" class="st8 st12 st3">Marmont</text>
<line class="st13" x1="602.7" y1="119.6" x2="632.7" y2="104.6"/>
<text transform="matrix(1 0 0 1 560.1 217.9)" class="st8 st2 st3">XXX</text>
<rect x="552.5" y="219.3" class="st11" width="30" height="15"/>
<text transform="matrix(1 0 0 1 506.3 231.2)" class="st8 st12 st3">Davout</text>
<text transform="matrix(1 0 0 1 560.4 231.6)" class="st8 st2 st3">III</text>
<line class="st13" x1="552.5" y1="234.3" x2="582.5" y2="219.3"/>
<text transform="matrix(1 0 0 1 562.1 282.8)" class="st8 st2 st3">XXX</text>
<rect x="554.5" y="284.2" class="st11" width="30" height="15"/>
<text transform="matrix(1 0 0 1 563.1 296.5)" class="st8 st2 st3">IV</text>
<text transform="matrix(1 0 0 1 520.1 296.1)" class="st8 st12 st3">Soult</text>
<line class="st13" x1="554.5" y1="299.2" x2="584.5" y2="284.2"/>
<text transform="matrix(1 0 0 1 1005.4 756)" class="st8 st2 st3">XXX</text>
<rect x="997.8" y="757.4" class="st11" width="30" height="15"/>
<text transform="matrix(1 0 0 1 956 769.3)" class="st8 st12 st3">St. Cyr</text>
<line class="st13" x1="997.8" y1="772.4" x2="1027.8" y2="757.4"/>
<text transform="matrix(1 0 0 1 433.7 237.7)" class="st8 st2 st3">XXXX</text>
<rect x="428.5" y="239.1" class="st11" width="30" height="15"/>
<text transform="matrix(1 0 0 1 367.6 251)" class="st8 st12 st3">Napoleon</text>
<line class="st13" x1="428.5" y1="254.1" x2="458.5" y2="239.1"/>
<text transform="matrix(1 0 0 1 871.3 447.4)" class="st8 st2 st3">XXX</text>
<rect x="863.7" y="448.8" class="st11" width="30" height="15"/>
<text transform="matrix(1 0 0 1 801.9 460.7)" class="st8 st12 st3">Bavarians</text>
<line class="st13" x1="863.7" y1="463.8" x2="893.7" y2="448.8"/>
<text transform="matrix(1 0 0 1 850.1 110.2)" class="st8 st2 st3">XXX</text>
<rect x="842.5" y="111.6" class="st11" width="30" height="15"/>
<text transform="matrix(1 0 0 1 855 124)" class="st8 st2 st3">I</text>
<text transform="matrix(1 0 0 1 772.9 123.5)" class="st8 st12 st3">Bernado</text>
<text transform="matrix(1 0 0 1 821.7 123.5)" class="st8 st12 st3">t</text>
<text transform="matrix(1 0 0 1 826.8 123.5)" class="st8 st12 st3">te</text>
<line class="st13" x1="842.5" y1="126.6" x2="872.5" y2="111.6"/>
<text transform="matrix(1 0 0 1 527.8 329.3)" class="st8 st2 st3">XXX</text>
<rect x="520.2" y="330.8" class="st11" width="30" height="15"/>
<text transform="matrix(1 0 0 1 528.8 343.1)" class="st8 st2 st3">VI</text>
<text transform="matrix(1 0 0 1 492.6 342.6)" class="st8 st12 st3">Ney</text>
<line class="st13" x1="520.2" y1="345.8" x2="550.2" y2="330.8"/>
<text transform="matrix(1 0 0 1 1150.8 456.1)" class="st14 st2 st3">XXX</text>
<rect x="1143.1" y="457.5" class="st15" width="30" height="15"/>
<text transform="matrix(1 0 0 1 1178.4 469.4)" class="st14 st12 st3">Mack</text>
<line class="st13" x1="1143.1" y1="472.5" x2="1173.1" y2="457.5"/>
<text transform="matrix(1 0 0 1 924.7 515.2)" class="st14 st2 st3">XX</text>
<rect x="914.6" y="516.7" class="st15" width="30" height="15"/>
<text transform="matrix(1 0 0 1 949.9 528.5)" class="st14 st12 st3">Hiller</text>
<line class="st13" x1="914.6" y1="531.7" x2="944.6" y2="516.7"/>
<text transform="matrix(1 0 0 1 1062.6 578.3)" class="st14 st2 st3">XXX</text>
<rect x="1055" y="579.7" class="st15" width="30" height="15"/>
<text transform="matrix(1 0 0 1 1090.3 591.6)" class="st14 st12 st3">Charles</text>
<line class="st13" x1="1055" y1="594.7" x2="1085" y2="579.7"/>
<text transform="matrix(1 0 0 1 1150.8 430.8)" class="st14 st2 st3">XXX</text>
<rect x="1143.1" y="432.2" class="st15" width="30" height="15"/>
<text transform="matrix(1 0 0 1 1178.4 444.1)" class="st14 st12 st3">Ferdinand</text>
<line class="st13" x1="1143.1" y1="447.2" x2="1173.1" y2="432.2"/>
<text transform="matrix(1 0 0 1 1064.3 479.1)" class="st14 st2 st3">XX</text>
<rect x="1054.2" y="480.5" class="st15" width="30" height="15"/>
<text transform="matrix(1 0 0 1 1087.4 492.4)" class="st14 st12 st3">Go</text>
<text transform="matrix(1 0 0 1 1103.3 492.4)" class="st14 st12 st3">t</text>
<text transform="matrix(1 0 0 1 1108.4 492.4)" class="st14 st12 st3">tesheim</text>
<line class="st13" x1="1054.2" y1="495.5" x2="1084.2" y2="480.5"/>
<text transform="matrix(1 0 0 1 1019.2 380.6)" class="st14 st2 st3">XX</text>
<rect x="1009.1" y="382" class="st15" width="30" height="15"/>
<text transform="matrix(1 0 0 1 1044.3 393.9)" class="st14 st12 st3">Klenau</text>
<line class="st13" x1="1009.1" y1="397" x2="1039.1" y2="382"/>
<text transform="matrix(1 0 0 1 815.5 491.6)" class="st14 st2 st3">XXX</text>
<rect x="807.9" y="493" class="st15" width="30" height="15"/>
<text transform="matrix(1 0 0 1 844.2 504.9)" class="st14 st12 st3">John</text>
<line class="st13" x1="807.9" y1="508" x2="837.9" y2="493"/>
<text transform="matrix(1 0 0 1 873.1 476.3)" class="st14 st2 st3">XX</text>
<line class="st13" x1="863" y1="492.7" x2="893" y2="477.7"/>
<rect x="863" y="477.7" class="st15" width="30" height="15"/>
<text transform="matrix(1 0 0 1 899.2 489.6)" class="st14 st12 st3">Jellachich</text>
</svg>
