<?xml version="1.0" encoding="utf-8"?>
<!-- Generator: Adobe Illustrator 21.1.0, SVG Export Plug-In . SVG Version: 6.00 Build 0)  -->
<svg version="1.1" id="Troops" xmlns="http://www.w3.org/2000/svg" xmlns:xlink="http://www.w3.org/1999/xlink" x="0px" y="0px"
	 viewBox="0 0 1440 910" style="enable-background:new 0 0 1440 910;" xml:space="preserve">
<style type="text/css">
	.st0{fill:none;stroke:#999999;stroke-width:10;stroke-linecap:round;stroke-linejoin:round;}
	.st1{fill:#999999;}
	.st2{font-family:'DroidSans';}
	.st3{font-size:12px;}
	.st4{fill:none;stroke:#999999;stroke-width:10;stroke-linecap:round;}
	.st5{fill:none;stroke:#999999;stroke-width:3;stroke-linecap:round;}
	.st6{fill:none;stroke:#0072BB;stroke-width:3;stroke-linecap:round;stroke-linejoin:round;}
	.st7{fill:#0072BB;}
	.st8{fill:none;stroke:#0072BB;stroke-width:3;stroke-linejoin:round;}
	.st9{fill:none;stroke:#999999;stroke-width:3;stroke-linecap:round;stroke-linejoin:round;}
	.st10{fill:#FFFFFF;stroke:#0072BB;stroke-width:0.75;stroke-miterlimit:10;}
	.st11{font-family:'DroidSans-Bold';}
	.st12{fill:none;}
	.st13{fill:#ED2939;}
	.st14{fill:#FFFFFF;stroke:#ED2939;stroke-width:0.75;stroke-miterlimit:10;}
</style>
<path id="Saint_Cloud-22" class="st0" d="M482.6,382.5L482.6,382.5"/>
<text transform="matrix(1 0 0 1 484.8 397.2)" class="st1 st2 st3">Saint-Cloud</text>
<path class="st4" d="M664.6,346.5L664.6,346.5"/>
<text transform="matrix(1 0 0 1 673.1 351)" class="st1 st2 st3">Thionville</text>
<path class="st5" d="M662.8,328.6L662.8,328.6"/>
<path class="st4" d="M664.7,363.4L664.7,363.4"/>
<text transform="matrix(1 0 0 1 672 373.7)" class="st1 st2 st3">Metz</text>
<path id="Toul-4" class="st4" d="M651.9,394L651.9,394"/>
<text transform="matrix(1 0 0 1 656.7 408.5)" class="st1 st2 st3">T</text>
<text transform="matrix(1 0 0 1 662.2 408.5)" class="st1 st2 st3">oul</text>
<path id="Ligney_en_Barrois" class="st5" d="M639.1,393.3L639.1,393.3"/>
<path class="st6" d="M627.3,390.7l11.8,2.4h0.2"/>
<polygon class="st7" points="652,394 633.5,399.8 638.4,392.9 634.7,385.2 "/>
<path class="st4" d="M688.4,213.9L688.4,213.9"/>
<text transform="matrix(1 0 0 1 693.9 208.3)" class="st1 st2 st3">Neuss</text>
<path class="st4" d="M811.5,215.8L811.5,215.8"/>
<text transform="matrix(1 0 0 1 817 228.4)" class="st1 st2 st3">Gudensbe</text>
<text transform="matrix(1 0 0 1 871.7 228.4)" class="st1 st2 st3">r</text>
<text transform="matrix(1 0 0 1 876.4 228.4)" class="st1 st2 st3">g</text>
<path class="st8" d="M822.3,202.1c-0.6,1-1,2.6-3.4,3.2h-0.2"/>
<polygon class="st7" points="811.3,215.7 817,197.3 820,205.2 828.3,206.6 "/>
<path class="st0" d="M964.8,445.8L964.8,445.8"/>
<path class="st9" d="M1132.5,423L1132.5,423"/>
<path class="st0" d="M1132.5,423L1132.5,423"/>
<text transform="matrix(1 0 0 1 1134.7 418.1)" class="st1 st2 st3">Vienna</text>
<path class="st9" d="M1132.5,423L1132.5,423"/>
<path class="st5" d="M919.2,413.6L919.2,413.6"/>
<text transform="matrix(1 0 0 1 691.3 182.2)" class="st7 st2 st3">XXX</text>
<rect x="683.7" y="183.6" class="st10" width="30" height="15"/>
<text transform="matrix(1 0 0 1 693.9 195.9)" class="st7 st2 st3">II</text>
<text transform="matrix(1 0 0 1 624 195.5)" class="st7 st11 st3">Marmont</text>
<line class="st12" x1="683.7" y1="198.6" x2="713.7" y2="183.6"/>
<text transform="matrix(1 0 0 1 667.4 320)" class="st7 st2 st3">XXX</text>
<rect x="659.7" y="321.4" class="st10" width="30" height="15"/>
<text transform="matrix(1 0 0 1 613.6 333.3)" class="st7 st11 st3">Davout</text>
<text transform="matrix(1 0 0 1 667.6 333.7)" class="st7 st2 st3">III</text>
<line class="st12" x1="659.7" y1="336.4" x2="689.7" y2="321.4"/>
<text transform="matrix(1 0 0 1 634.9 350.3)" class="st7 st2 st3">XXX</text>
<rect x="627.3" y="351.7" class="st10" width="30" height="15"/>
<text transform="matrix(1 0 0 1 636 364)" class="st7 st2 st3">IV</text>
<text transform="matrix(1 0 0 1 592.9 363.6)" class="st7 st11 st3">Soult</text>
<line class="st12" x1="627.3" y1="366.7" x2="657.3" y2="351.7"/>
<text transform="matrix(1 0 0 1 938.4 688.8)" class="st7 st2 st3">XXX</text>
<rect x="930.8" y="690.2" class="st10" width="30" height="15"/>
<text transform="matrix(1 0 0 1 889 702.1)" class="st7 st11 st3">St. Cyr</text>
<line class="st12" x1="930.8" y1="705.2" x2="960.8" y2="690.2"/>
<text transform="matrix(1 0 0 1 806 606.4)" class="st7 st2 st3">XXXX</text>
<rect x="800.8" y="607.8" class="st10" width="30" height="15"/>
<text transform="matrix(1 0 0 1 809.4 620.1)" class="st7 st2 st3">VI</text>
<text transform="matrix(1 0 0 1 745.3 619.7)" class="st7 st11 st3">Masséna</text>
<line class="st12" x1="800.8" y1="622.8" x2="830.8" y2="607.8"/>
<text transform="matrix(1 0 0 1 488.9 409.6)" class="st7 st2 st3">XXXX</text>
<rect x="483.8" y="411" class="st10" width="30" height="15"/>
<text transform="matrix(1 0 0 1 422.9 422.9)" class="st7 st11 st3">Napoleon</text>
<line class="st12" x1="483.8" y1="426" x2="513.8" y2="411"/>
<text transform="matrix(1 0 0 1 850.5 295.1)" class="st7 st2 st3">XXX</text>
<rect x="842.9" y="296.5" class="st10" width="30" height="15"/>
<text transform="matrix(1 0 0 1 781.1 308.4)" class="st7 st11 st3">Bavarians</text>
<line class="st12" x1="842.9" y1="311.5" x2="872.9" y2="296.5"/>
<text transform="matrix(1 0 0 1 810.1 185.2)" class="st7 st2 st3">XXX</text>
<rect x="802.5" y="186.6" class="st10" width="30" height="15"/>
<text transform="matrix(1 0 0 1 815 199)" class="st7 st2 st3">I</text>
<text transform="matrix(1 0 0 1 732.9 198.5)" class="st7 st11 st3">Bernado</text>
<text transform="matrix(1 0 0 1 781.7 198.5)" class="st7 st11 st3">t</text>
<text transform="matrix(1 0 0 1 786.8 198.5)" class="st7 st11 st3">te</text>
<line class="st12" x1="802.5" y1="201.6" x2="832.5" y2="186.6"/>
<text transform="matrix(1 0 0 1 649.6 417.5)" class="st7 st2 st3">XXX</text>
<rect x="642" y="418.9" class="st10" width="30" height="15"/>
<text transform="matrix(1 0 0 1 650.6 431.2)" class="st7 st2 st3">VI</text>
<text transform="matrix(1 0 0 1 614.4 430.8)" class="st7 st11 st3">Ney</text>
<line class="st12" x1="642" y1="433.9" x2="672" y2="418.9"/>
<text transform="matrix(1 0 0 1 811.6 424.1)" class="st13 st2 st3">XXX</text>
<rect x="804" y="425.5" class="st14" width="30" height="15"/>
<text transform="matrix(1 0 0 1 839.7 437.4)" class="st13 st11 st3">Mack</text>
<line class="st12" x1="804" y1="440.5" x2="834" y2="425.5"/>
<text transform="matrix(1 0 0 1 924.7 515.2)" class="st13 st2 st3">XX</text>
<rect x="914.6" y="516.7" class="st14" width="30" height="15"/>
<text transform="matrix(1 0 0 1 949.9 528.5)" class="st13 st11 st3">Hiller</text>
<line class="st12" x1="914.6" y1="531.7" x2="944.6" y2="516.7"/>
<text transform="matrix(1 0 0 1 922.6 598.3)" class="st13 st2 st3">XXX</text>
<rect x="915" y="599.7" class="st14" width="30" height="15"/>
<text transform="matrix(1 0 0 1 950.3 611.6)" class="st13 st11 st3">Charles</text>
<line class="st12" x1="915" y1="614.7" x2="945" y2="599.7"/>
<text transform="matrix(1 0 0 1 973.8 459.9)" class="st13 st2 st3">XX</text>
<rect x="963.8" y="461.3" class="st14" width="30" height="15"/>
<text transform="matrix(1 0 0 1 999 473.2)" class="st13 st11 st3">Gyulai</text>
<line class="st12" x1="963.8" y1="476.3" x2="993.8" y2="461.3"/>
<text transform="matrix(1 0 0 1 1150.8 430.8)" class="st13 st2 st3">XXX</text>
<rect x="1143.1" y="432.2" class="st14" width="30" height="15"/>
<text transform="matrix(1 0 0 1 1178.4 444.1)" class="st13 st11 st3">Ferdinand</text>
<line class="st12" x1="1143.1" y1="447.2" x2="1173.1" y2="432.2"/>
<text transform="matrix(1 0 0 1 932.7 375.6)" class="st13 st2 st3">XXX</text>
<rect x="925.1" y="377" class="st14" width="30" height="15"/>
<text transform="matrix(1 0 0 1 960.3 388.9)" class="st13 st11 st3">Kienmayer</text>
<line class="st12" x1="925.1" y1="392" x2="955.1" y2="377"/>
<text transform="matrix(1 0 0 1 910.7 408.9)" class="st13 st2 st3">XX</text>
<rect x="900.6" y="410.3" class="st14" width="30" height="15"/>
<text transform="matrix(1 0 0 1 933.9 422.2)" class="st13 st11 st3">Go</text>
<text transform="matrix(1 0 0 1 949.8 422.2)" class="st13 st11 st3">t</text>
<text transform="matrix(1 0 0 1 954.9 422.2)" class="st13 st11 st3">tesheim</text>
<line class="st12" x1="900.6" y1="425.3" x2="930.6" y2="410.3"/>
<text transform="matrix(1 0 0 1 885.2 434.6)" class="st13 st2 st3">XX</text>
<rect x="875.1" y="436" class="st14" width="30" height="15"/>
<text transform="matrix(1 0 0 1 910.3 447.9)" class="st13 st11 st3">Klenau</text>
<line class="st12" x1="875.1" y1="451" x2="905.1" y2="436"/>
<text transform="matrix(1 0 0 1 815.5 491.6)" class="st13 st2 st3">XXX</text>
<rect x="807.9" y="493" class="st14" width="30" height="15"/>
<text transform="matrix(1 0 0 1 844.2 504.9)" class="st13 st11 st3">John</text>
<line class="st12" x1="807.9" y1="508" x2="837.9" y2="493"/>
<text transform="matrix(1 0 0 1 965.9 433.9)" class="st13 st2 st3">XX</text>
<rect x="955.8" y="435.3" class="st14" width="30" height="15"/>
<text transform="matrix(1 0 0 1 991.1 447.2)" class="st13 st11 st3">Riesch</text>
<line class="st12" x1="955.8" y1="450.3" x2="985.8" y2="435.3"/>
<text transform="matrix(1 0 0 1 813.1 448.3)" class="st13 st2 st3">XX</text>
<line class="st12" x1="803" y1="464.7" x2="833" y2="449.7"/>
<rect x="803" y="449.7" class="st14" width="30" height="15"/>
<text transform="matrix(1 0 0 1 839.2 461.6)" class="st13 st11 st3">Jellachich</text>
</svg>
