<?xml version="1.0" encoding="utf-8"?>
<!-- Generator: Adobe Illustrator 21.1.0, SVG Export Plug-In . SVG Version: 6.00 Build 0)  -->
<svg version="1.1" id="Troops" xmlns="http://www.w3.org/2000/svg" xmlns:xlink="http://www.w3.org/1999/xlink" x="0px" y="0px"
	 viewBox="0 0 1440 910" style="enable-background:new 0 0 1440 910;" xml:space="preserve">
<style type="text/css">
	.st0{fill:none;stroke:#0072BB;stroke-width:3;stroke-linecap:round;stroke-linejoin:round;}
	.st1{fill:none;stroke:#0072BB;stroke-width:3;stroke-linecap:round;stroke-linejoin:round;stroke-dasharray:7.32,3.66;}
	.st2{fill:#0072BB;}
	.st3{fill:none;stroke:#999999;stroke-width:10;stroke-linecap:round;stroke-linejoin:round;}
	.st4{fill:#999999;}
	.st5{font-family:'DroidSans';}
	.st6{font-size:12px;}
	.st7{fill:none;stroke:#999999;stroke-width:10;stroke-linecap:round;}
	.st8{fill:none;stroke:#999999;stroke-width:3;stroke-linecap:round;}
	.st9{fill:none;stroke:#0072BB;stroke-width:3;stroke-linejoin:round;}
	.st10{fill:none;stroke:#999999;stroke-width:3;stroke-linecap:round;stroke-linejoin:round;}
	.st11{fill:none;stroke:#ED2939;stroke-width:3;stroke-linecap:round;stroke-linejoin:round;}
	.st12{fill:#ED2939;}
	.st13{fill:#FFFFFF;stroke:#0072BB;stroke-width:0.75;stroke-miterlimit:10;}
	.st14{font-family:'DroidSans-Bold';}
	.st15{fill:none;}
	.st16{fill:#FFFFFF;stroke:#ED2939;stroke-width:0.75;stroke-miterlimit:10;}
</style>
<path class="st0" d="M842.9,316.5c1.3-0.2,2.6-0.5,3.9-0.9"/>
<path class="st1" d="M850.4,315.8l3.8,0.4c0.9,0,3.6,0.7,6.4,1.2s7.8,2.4,9,2.2h0.6"/>
<path class="st0" d="M871.9,319.3c1-0.2,2.1-0.2,3.1,0.1l0.8,0.2"/>
<polygon class="st2" points="888.5,321.3 869.7,326 874.9,319.4 871.8,311.5 "/>
<path id="Saint_Cloud-18" class="st3" d="M482.6,382.5L482.6,382.5"/>
<text transform="matrix(1 0 0 1 484.8 397.2)" class="st4 st5 st6">Saint-Cloud</text>
<path class="st7" d="M691.9,348.4L691.9,348.4"/>
<text transform="matrix(1 0 0 1 697.4 342.9)" class="st4 st5 st6">Saarlouis</text>
<path class="st8" d="M662.8,328.6L662.8,328.6"/>
<path class="st8" d="M681.5,351.2L681.5,351.2"/>
<path class="st9" d="M677.9,350.7l1.2,0.3"/>
<polygon class="st2" points="691.6,348.5 675.1,358.5 678.1,350.6 672.8,344.1 "/>
<path class="st7" d="M689,364.5L689,364.5"/>
<text transform="matrix(1 0 0 1 697.4 377.7)" class="st4 st5 st6">Saint-Avold</text>
<path class="st8" d="M628.4,360.6L628.4,360.6"/>
<path class="st8" d="M675.2,364.1L675.2,364.1"/>
<path class="st9" d="M675.2,364.1l1,0.3"/>
<polygon class="st2" points="688.9,364.5 670.9,371.4 675.3,364.1 671.2,356.7 "/>
<path id="Nancy-2" class="st7" d="M665.4,393.1L665.4,393.1"/>
<text transform="matrix(1 0 0 1 670 404.2)" class="st4 st5 st6">Nancy</text>
<path class="st7" d="M707.2,247.9L707.2,247.9"/>
<text transform="matrix(1 0 0 1 712.7 242.4)" class="st4 st5 st6">Bonn</text>
<path class="st8" d="M700.9,233.4L700.9,233.4"/>
<path class="st0" d="M700.9,233.5c0,1.1,0.1,2.1,0.2,3.2"/>
<polygon class="st2" points="707.2,247.9 692.8,235.1 701.2,235.6 705.9,228.6 "/>
<path class="st7" d="M791.3,241.5L791.3,241.5"/>
<polygon class="st2" points="791.3,241.5 797.3,223.1 800.1,231.1 808.4,232.6 "/>
<path class="st3" d="M1132.5,423L1132.5,423"/>
<text transform="matrix(1 0 0 1 1134.7 418.1)" class="st4 st5 st6">Vienna</text>
<path class="st10" d="M1132.5,423L1132.5,423"/>
<path class="st11" d="M886.2,430.8c-1.5,0.1-5,1.7-6.7,2.2c-1.7,0.3-3.4,0.4-5.1,0.3"/>
<polygon class="st12" points="861.7,433.1 879.7,426.1 875.3,433.4 879.4,440.8 "/>
<text transform="matrix(1 0 0 1 691.3 210.2)" class="st2 st5 st6">XXX</text>
<rect x="683.7" y="211.6" class="st13" width="30" height="15"/>
<text transform="matrix(1 0 0 1 693.9 223.9)" class="st2 st5 st6">II</text>
<text transform="matrix(1 0 0 1 624 223.5)" class="st2 st14 st6">Marmont</text>
<line class="st15" x1="683.7" y1="226.6" x2="713.7" y2="211.6"/>
<text transform="matrix(1 0 0 1 667.4 320)" class="st2 st5 st6">XXX</text>
<rect x="659.7" y="321.4" class="st13" width="30" height="15"/>
<text transform="matrix(1 0 0 1 613.6 333.3)" class="st2 st14 st6">Davout</text>
<text transform="matrix(1 0 0 1 667.6 333.7)" class="st2 st5 st6">III</text>
<line class="st15" x1="659.7" y1="336.4" x2="689.7" y2="321.4"/>
<text transform="matrix(1 0 0 1 634.9 350.3)" class="st2 st5 st6">XXX</text>
<rect x="627.3" y="351.7" class="st13" width="30" height="15"/>
<text transform="matrix(1 0 0 1 636 364)" class="st2 st5 st6">IV</text>
<text transform="matrix(1 0 0 1 592.9 363.6)" class="st2 st14 st6">Soult</text>
<line class="st15" x1="627.3" y1="366.7" x2="657.3" y2="351.7"/>
<text transform="matrix(1 0 0 1 928.4 679.8)" class="st2 st5 st6">XXX</text>
<rect x="920.8" y="681.2" class="st13" width="30" height="15"/>
<text transform="matrix(1 0 0 1 879 693.1)" class="st2 st14 st6">St. Cyr</text>
<line class="st15" x1="920.8" y1="696.2" x2="950.8" y2="681.2"/>
<text transform="matrix(1 0 0 1 806 606.4)" class="st2 st5 st6">XXXX</text>
<rect x="800.8" y="607.8" class="st13" width="30" height="15"/>
<text transform="matrix(1 0 0 1 809.4 620.1)" class="st2 st5 st6">VI</text>
<text transform="matrix(1 0 0 1 745.3 619.7)" class="st2 st14 st6">Masséna</text>
<line class="st15" x1="800.8" y1="622.8" x2="830.8" y2="607.8"/>
<text transform="matrix(1 0 0 1 488.9 409.6)" class="st2 st5 st6">XXXX</text>
<rect x="483.8" y="411" class="st13" width="30" height="15"/>
<text transform="matrix(1 0 0 1 422.9 422.9)" class="st2 st14 st6">Napoleon</text>
<line class="st15" x1="483.8" y1="426" x2="513.8" y2="411"/>
<text transform="matrix(1 0 0 1 850.5 295.1)" class="st2 st5 st6">XXX</text>
<rect x="842.9" y="296.5" class="st13" width="30" height="15"/>
<text transform="matrix(1 0 0 1 781.1 308.4)" class="st2 st14 st6">Bavarians</text>
<line class="st15" x1="842.9" y1="311.5" x2="872.9" y2="296.5"/>
<text transform="matrix(1 0 0 1 810.1 208.2)" class="st2 st5 st6">XXX</text>
<rect x="802.5" y="209.6" class="st13" width="30" height="15"/>
<text transform="matrix(1 0 0 1 815 222)" class="st2 st5 st6">I</text>
<text transform="matrix(1 0 0 1 732.9 221.5)" class="st2 st14 st6">Bernado</text>
<text transform="matrix(1 0 0 1 781.7 221.5)" class="st2 st14 st6">t</text>
<text transform="matrix(1 0 0 1 786.8 221.5)" class="st2 st14 st6">te</text>
<line class="st15" x1="802.5" y1="224.6" x2="832.5" y2="209.6"/>
<text transform="matrix(1 0 0 1 649.6 417.5)" class="st2 st5 st6">XXX</text>
<rect x="642" y="418.9" class="st13" width="30" height="15"/>
<text transform="matrix(1 0 0 1 650.6 431.2)" class="st2 st5 st6">VI</text>
<text transform="matrix(1 0 0 1 614.4 430.8)" class="st2 st14 st6">Ney</text>
<line class="st15" x1="642" y1="433.9" x2="672" y2="418.9"/>
<text transform="matrix(1 0 0 1 794.6 426.1)" class="st12 st5 st6">XXX</text>
<rect x="787" y="427.5" class="st16" width="30" height="15"/>
<text transform="matrix(1 0 0 1 822.7 439.4)" class="st12 st14 st6">Mack</text>
<line class="st15" x1="787" y1="442.5" x2="817" y2="427.5"/>
<text transform="matrix(1 0 0 1 924.7 515.2)" class="st12 st5 st6">XX</text>
<rect x="914.6" y="516.7" class="st16" width="30" height="15"/>
<text transform="matrix(1 0 0 1 949.9 528.5)" class="st12 st14 st6">Hiller</text>
<line class="st15" x1="914.6" y1="531.7" x2="944.6" y2="516.7"/>
<text transform="matrix(1 0 0 1 902.6 598.3)" class="st12 st5 st6">XXX</text>
<rect x="895" y="599.7" class="st16" width="30" height="15"/>
<text transform="matrix(1 0 0 1 930.3 611.6)" class="st12 st14 st6">Charles</text>
<line class="st15" x1="895" y1="614.7" x2="925" y2="599.7"/>
<text transform="matrix(1 0 0 1 1009.8 449.9)" class="st12 st5 st6">XX</text>
<rect x="999.8" y="451.3" class="st16" width="30" height="15"/>
<text transform="matrix(1 0 0 1 1035 463.2)" class="st12 st14 st6">Gyulai</text>
<line class="st15" x1="999.8" y1="466.3" x2="1029.8" y2="451.3"/>
<text transform="matrix(1 0 0 1 1150.8 430.8)" class="st12 st5 st6">XXX</text>
<rect x="1143.1" y="432.2" class="st16" width="30" height="15"/>
<text transform="matrix(1 0 0 1 1178.4 444.1)" class="st12 st14 st6">Ferdinand</text>
<line class="st15" x1="1143.1" y1="447.2" x2="1173.1" y2="432.2"/>
<text transform="matrix(1 0 0 1 932.7 375.6)" class="st12 st5 st6">XXX</text>
<rect x="925.1" y="377" class="st16" width="30" height="15"/>
<text transform="matrix(1 0 0 1 960.3 388.9)" class="st12 st14 st6">Kienmayer</text>
<line class="st15" x1="925.1" y1="392" x2="955.1" y2="377"/>
<text transform="matrix(1 0 0 1 920.7 418.9)" class="st12 st5 st6">XX</text>
<rect x="910.6" y="420.3" class="st16" width="30" height="15"/>
<text transform="matrix(1 0 0 1 942.9 432.2)" class="st12 st14 st6">Go</text>
<text transform="matrix(1 0 0 1 958.8 432.2)" class="st12 st14 st6">t</text>
<text transform="matrix(1 0 0 1 963.9 432.2)" class="st12 st14 st6">tesheim</text>
<line class="st15" x1="910.6" y1="435.3" x2="940.6" y2="420.3"/>
<text transform="matrix(1 0 0 1 873.2 467.6)" class="st12 st5 st6">XX</text>
<rect x="863.1" y="469" class="st16" width="30" height="15"/>
<text transform="matrix(1 0 0 1 898.3 480.9)" class="st12 st14 st6">Klenau</text>
<line class="st15" x1="863.1" y1="484" x2="893.1" y2="469"/>
<text transform="matrix(1 0 0 1 815.5 491.6)" class="st12 st5 st6">XXX</text>
<rect x="807.9" y="493" class="st16" width="30" height="15"/>
<text transform="matrix(1 0 0 1 844.2 504.9)" class="st12 st14 st6">John</text>
<line class="st15" x1="807.9" y1="508" x2="837.9" y2="493"/>
<text transform="matrix(1 0 0 1 1018.9 400.9)" class="st12 st5 st6">XX</text>
<rect x="1008.8" y="402.3" class="st16" width="30" height="15"/>
<text transform="matrix(1 0 0 1 1044.1 414.2)" class="st12 st14 st6">Riesch</text>
<line class="st15" x1="1008.8" y1="417.3" x2="1038.8" y2="402.3"/>
<text transform="matrix(1 0 0 1 813.1 447.3)" class="st12 st5 st6">XX</text>
<line class="st15" x1="803" y1="463.7" x2="833" y2="448.7"/>
<rect x="803" y="448.7" class="st16" width="30" height="15"/>
<text transform="matrix(1 0 0 1 839.2 460.6)" class="st12 st14 st6">Jellachich</text>
</svg>
