<?xml version="1.0" encoding="utf-8"?>
<!-- Generator: Adobe Illustrator 21.1.0, SVG Export Plug-In . SVG Version: 6.00 Build 0)  -->
<svg version="1.1" id="Troops" xmlns="http://www.w3.org/2000/svg" xmlns:xlink="http://www.w3.org/1999/xlink" x="0px" y="0px"
	 viewBox="0 0 1440 910" style="enable-background:new 0 0 1440 910;" xml:space="preserve">
<style type="text/css">
	.st0{fill:none;stroke:#999999;stroke-width:10;stroke-linecap:round;stroke-linejoin:round;}
	.st1{fill:#999999;}
	.st2{font-family:'DroidSans';}
	.st3{font-size:12px;}
	.st4{fill:none;stroke:#999999;stroke-width:10;stroke-linecap:round;}
	.st5{fill:none;stroke:#0072BB;stroke-width:3;stroke-linecap:round;stroke-linejoin:round;}
	.st6{fill:#0072BB;}
	.st7{fill:none;stroke:#999999;stroke-width:3;stroke-linecap:round;}
	.st8{fill:none;stroke:#999999;stroke-width:3;stroke-linecap:round;stroke-linejoin:round;}
	.st9{fill:#FFFFFF;stroke:#0072BB;stroke-width:0.75;stroke-miterlimit:10;}
	.st10{font-family:'DroidSans-Bold';}
	.st11{fill:none;}
	.st12{fill:#ED2939;}
	.st13{fill:#FFFFFF;stroke:#ED2939;stroke-width:0.75;stroke-miterlimit:10;}
</style>
<path id="Saint_Cloud-34" class="st0" d="M482.6,382.5L482.6,382.5"/>
<text transform="matrix(1 0 0 1 484.8 397.2)" class="st1 st2 st3">Saint-Cloud</text>
<path class="st4" d="M628.1,299L628.1,299"/>
<text transform="matrix(1 0 0 1 633.6 293.5)" class="st1 st2 st3">Saint-Hubert</text>
<path class="st5" d="M624,273.8c0.3,0.5,1.3,7.4,2,12.5"/>
<polygon class="st6" points="628,298.9 618,282.3 625.9,285.4 632.5,280 "/>
<path class="st4" d="M607.9,322.2L607.9,322.2"/>
<text transform="matrix(1 0 0 1 614.7 330.6)" class="st1 st2 st3">Sedan</text>
<path class="st7" d="M598.1,318L598.1,318"/>
<path class="st5" d="M582.1,312.4l13.9,4.8"/>
<polygon class="st6" points="607.9,322 588.5,322.3 595.1,317 593.8,308.6 "/>
<path id="Chalons_en_Chanpagne" class="st4" d="M581.7,374.6L581.7,374.6"/>
<text transform="matrix(1 0 0 1 587.3 369.1)" class="st1 st2 st3">Châlons-en-Champagne</text>
<path class="st4" d="M650.1,166.7L650.1,166.7"/>
<text transform="matrix(1 0 0 1 655.6 161.2)" class="st1 st2 st3">Nijmegen</text>
<path class="st7" d="M630.5,163.4L630.5,163.4"/>
<path class="st5" d="M622.4,160.2c0,0,12.3,3.1,13.7,3h1.7"/>
<polygon class="st6" points="650.1,166.7 631,169.4 636.9,163.4 634.6,155.2 "/>
<path class="st4" d="M837.2,189.3L837.2,189.3"/>
<text transform="matrix(1 0 0 1 846.6 189.3)" class="st1 st2 st3">Gö</text>
<text transform="matrix(1 0 0 1 861.8 189.3)" class="st1 st2 st3">t</text>
<text transform="matrix(1 0 0 1 866 189.3)" class="st1 st2 st3">tingen</text>
<path class="st8" d="M1132.5,423L1132.5,423"/>
<path class="st0" d="M1132.5,423L1132.5,423"/>
<text transform="matrix(1 0 0 1 1134.7 418.1)" class="st1 st2 st3">Vienna</text>
<path class="st8" d="M1132.5,423L1132.5,423"/>
<text transform="matrix(1 0 0 1 676.3 135.2)" class="st6 st2 st3">XXX</text>
<rect x="668.7" y="136.6" class="st9" width="30" height="15"/>
<text transform="matrix(1 0 0 1 678.9 148.9)" class="st6 st2 st3">II</text>
<text transform="matrix(1 0 0 1 609 148.5)" class="st6 st10 st3">Marmont</text>
<line class="st11" x1="668.7" y1="151.6" x2="698.7" y2="136.6"/>
<text transform="matrix(1 0 0 1 667.4 305)" class="st6 st2 st3">XXX</text>
<rect x="659.7" y="306.4" class="st9" width="30" height="15"/>
<text transform="matrix(1 0 0 1 613.6 318.3)" class="st6 st10 st3">Davout</text>
<text transform="matrix(1 0 0 1 667.6 318.7)" class="st6 st2 st3">III</text>
<line class="st11" x1="659.7" y1="321.4" x2="689.7" y2="306.4"/>
<text transform="matrix(1 0 0 1 629.9 342.3)" class="st6 st2 st3">XXX</text>
<rect x="622.3" y="343.7" class="st9" width="30" height="15"/>
<text transform="matrix(1 0 0 1 631 356)" class="st6 st2 st3">IV</text>
<text transform="matrix(1 0 0 1 587.9 355.6)" class="st6 st10 st3">Soult</text>
<line class="st11" x1="622.3" y1="358.7" x2="652.3" y2="343.7"/>
<text transform="matrix(1 0 0 1 968.4 715.7)" class="st6 st2 st3">XXX</text>
<rect x="960.8" y="717.1" class="st9" width="30" height="15"/>
<text transform="matrix(1 0 0 1 919 729)" class="st6 st10 st3">St. Cyr</text>
<line class="st11" x1="960.8" y1="732.1" x2="990.8" y2="717.1"/>
<text transform="matrix(1 0 0 1 806 606.4)" class="st6 st2 st3">XXXX</text>
<rect x="800.8" y="607.8" class="st9" width="30" height="15"/>
<text transform="matrix(1 0 0 1 809.4 620.1)" class="st6 st2 st3">VI</text>
<text transform="matrix(1 0 0 1 745.3 619.7)" class="st6 st10 st3">Masséna</text>
<line class="st11" x1="800.8" y1="622.8" x2="830.8" y2="607.8"/>
<text transform="matrix(1 0 0 1 488.9 409.6)" class="st6 st2 st3">XXXX</text>
<rect x="483.8" y="411" class="st9" width="30" height="15"/>
<text transform="matrix(1 0 0 1 422.9 422.9)" class="st6 st10 st3">Napoleon</text>
<line class="st11" x1="483.8" y1="426" x2="513.8" y2="411"/>
<text transform="matrix(1 0 0 1 840.5 350.1)" class="st6 st2 st3">XXX</text>
<rect x="832.9" y="351.5" class="st9" width="30" height="15"/>
<text transform="matrix(1 0 0 1 771.1 363.4)" class="st6 st10 st3">Bavarians</text>
<line class="st11" x1="832.9" y1="366.5" x2="862.9" y2="351.5"/>
<text transform="matrix(1 0 0 1 850.1 159.2)" class="st6 st2 st3">XXX</text>
<rect x="842.5" y="160.6" class="st9" width="30" height="15"/>
<text transform="matrix(1 0 0 1 855 173)" class="st6 st2 st3">I</text>
<text transform="matrix(1 0 0 1 772.9 172.5)" class="st6 st10 st3">Bernado</text>
<text transform="matrix(1 0 0 1 821.7 172.5)" class="st6 st10 st3">t</text>
<text transform="matrix(1 0 0 1 826.8 172.5)" class="st6 st10 st3">te</text>
<line class="st11" x1="842.5" y1="175.6" x2="872.5" y2="160.6"/>
<text transform="matrix(1 0 0 1 599.6 379.5)" class="st6 st2 st3">XXX</text>
<rect x="592" y="380.9" class="st9" width="30" height="15"/>
<text transform="matrix(1 0 0 1 600.6 393.2)" class="st6 st2 st3">VI</text>
<text transform="matrix(1 0 0 1 564.4 392.8)" class="st6 st10 st3">Ney</text>
<line class="st11" x1="592" y1="395.9" x2="622" y2="380.9"/>
<text transform="matrix(1 0 0 1 1150.8 456.1)" class="st12 st2 st3">XXX</text>
<rect x="1143.1" y="457.5" class="st13" width="30" height="15"/>
<text transform="matrix(1 0 0 1 1178.4 469.4)" class="st12 st10 st3">Mack</text>
<line class="st11" x1="1143.1" y1="472.5" x2="1173.1" y2="457.5"/>
<text transform="matrix(1 0 0 1 924.7 515.2)" class="st12 st2 st3">XX</text>
<rect x="914.6" y="516.7" class="st13" width="30" height="15"/>
<text transform="matrix(1 0 0 1 949.9 528.5)" class="st12 st10 st3">Hiller</text>
<line class="st11" x1="914.6" y1="531.7" x2="944.6" y2="516.7"/>
<text transform="matrix(1 0 0 1 1042.6 578.3)" class="st12 st2 st3">XXX</text>
<rect x="1035" y="579.7" class="st13" width="30" height="15"/>
<text transform="matrix(1 0 0 1 1070.3 591.6)" class="st12 st10 st3">Charles</text>
<line class="st11" x1="1035" y1="594.7" x2="1065" y2="579.7"/>
<text transform="matrix(1 0 0 1 1150.8 430.8)" class="st12 st2 st3">XXX</text>
<rect x="1143.1" y="432.2" class="st13" width="30" height="15"/>
<text transform="matrix(1 0 0 1 1178.4 444.1)" class="st12 st10 st3">Ferdinand</text>
<line class="st11" x1="1143.1" y1="447.2" x2="1173.1" y2="432.2"/>
<text transform="matrix(1 0 0 1 994.3 393.1)" class="st12 st2 st3">XX</text>
<rect x="984.2" y="394.5" class="st13" width="30" height="15"/>
<text transform="matrix(1 0 0 1 1015.4 406.4)" class="st12 st10 st3">Go</text>
<text transform="matrix(1 0 0 1 1031.3 406.4)" class="st12 st10 st3">t</text>
<text transform="matrix(1 0 0 1 1036.4 406.4)" class="st12 st10 st3">tesheim</text>
<line class="st11" x1="984.2" y1="409.5" x2="1014.2" y2="394.5"/>
<text transform="matrix(1 0 0 1 963.2 435.6)" class="st12 st2 st3">XX</text>
<rect x="953.1" y="437" class="st13" width="30" height="15"/>
<text transform="matrix(1 0 0 1 988.3 448.9)" class="st12 st10 st3">Klenau</text>
<line class="st11" x1="953.1" y1="452" x2="983.1" y2="437"/>
<text transform="matrix(1 0 0 1 815.5 491.6)" class="st12 st2 st3">XXX</text>
<rect x="807.9" y="493" class="st13" width="30" height="15"/>
<text transform="matrix(1 0 0 1 844.2 504.9)" class="st12 st10 st3">John</text>
<line class="st11" x1="807.9" y1="508" x2="837.9" y2="493"/>
<text transform="matrix(1 0 0 1 813.1 441.3)" class="st12 st2 st3">XX</text>
<line class="st11" x1="803" y1="457.7" x2="833" y2="442.7"/>
<rect x="803" y="442.7" class="st13" width="30" height="15"/>
<text transform="matrix(1 0 0 1 839.2 454.6)" class="st12 st10 st3">Jellachich</text>
</svg>
