<?xml version="1.0" encoding="utf-8"?>
<!-- Generator: Adobe Illustrator 21.1.0, SVG Export Plug-In . SVG Version: 6.00 Build 0)  -->
<svg version="1.1" id="Troops" xmlns="http://www.w3.org/2000/svg" xmlns:xlink="http://www.w3.org/1999/xlink" x="0px" y="0px"
	 viewBox="0 0 1440 910" style="enable-background:new 0 0 1440 910;" xml:space="preserve">
<style type="text/css">
	.st0{fill:none;stroke:#999999;stroke-width:10;stroke-linecap:round;stroke-linejoin:round;}
	.st1{fill:#999999;}
	.st2{font-family:'DroidSans';}
	.st3{font-size:12px;}
	.st4{fill:none;stroke:#999999;stroke-width:10;stroke-linecap:round;}
	.st5{fill:none;stroke:#0072BB;stroke-width:3;stroke-linecap:round;stroke-linejoin:round;}
	.st6{fill:#0072BB;}
	.st7{fill:none;stroke:#999999;stroke-width:3;stroke-linecap:round;stroke-linejoin:round;}
	.st8{fill:#FFFFFF;stroke:#0072BB;stroke-width:0.75;stroke-miterlimit:10;}
	.st9{font-family:'DroidSans-Bold';}
	.st10{fill:none;}
	.st11{fill:#ED2939;}
	.st12{fill:#FFFFFF;stroke:#ED2939;stroke-width:0.75;stroke-miterlimit:10;}
</style>
<path id="Saint_Cloud-36" class="st0" d="M482.6,382.5L482.6,382.5"/>
<text transform="matrix(1 0 0 1 484.8 397.2)" class="st1 st2 st3">Saint-Cloud</text>
<path class="st4" d="M626.8,284.5L626.8,284.5"/>
<text transform="matrix(1 0 0 1 632.3 279)" class="st1 st2 st3">Marche-en-Famenne</text>
<path class="st5" d="M600.6,272c0.3,0.9,11.7,6.1,14.4,7.4"/>
<polygon class="st6" points="626.7,284.6 607.3,283.9 614.2,279 613.3,270.6 "/>
<path class="st4" d="M598.1,318L598.1,318"/>
<text transform="matrix(1 0 0 1 605.5 321.4)" class="st1 st2 st3">Charleville-Mézières</text>
<path id="Chalons_en_Chanpagne-2" class="st4" d="M581.7,374.6L581.7,374.6"/>
<text transform="matrix(1 0 0 1 587.3 369.1)" class="st1 st2 st3">Châlons-en-Champagne</text>
<path class="st5" d="M571.1,351.3c0.6,1.7,2.8,7.2,5,12.3"/>
<polygon class="st6" points="581.7,374.9 567.3,362 575.8,362.7 580.5,355.6 "/>
<path class="st4" d="M630.5,163.4L630.5,163.4"/>
<text transform="matrix(1 0 0 1 636 157.9)" class="st1 st2 st3">Tiel</text>
<path class="st5" d="M608.2,150.3c3.2,2,6.3,4.1,9.3,6.5c0.5,0.4,1,0.7,1.5,0.9"/>
<polygon class="st6" points="630.4,163.2 611.1,161.9 618.2,157.2 617.6,148.8 "/>
<path class="st4" d="M837.2,189.3L837.2,189.3"/>
<text transform="matrix(1 0 0 1 846.6 189.3)" class="st1 st2 st3">Gö</text>
<text transform="matrix(1 0 0 1 861.8 189.3)" class="st1 st2 st3">t</text>
<text transform="matrix(1 0 0 1 866 189.3)" class="st1 st2 st3">tingen</text>
<path class="st7" d="M1132.5,423L1132.5,423"/>
<path class="st0" d="M1132.5,423L1132.5,423"/>
<text transform="matrix(1 0 0 1 1134.7 418.1)" class="st1 st2 st3">Vienna</text>
<path class="st7" d="M1132.5,423L1132.5,423"/>
<text transform="matrix(1 0 0 1 646.3 130.2)" class="st6 st2 st3">XXX</text>
<rect x="638.7" y="131.6" class="st8" width="30" height="15"/>
<text transform="matrix(1 0 0 1 648.9 143.9)" class="st6 st2 st3">II</text>
<text transform="matrix(1 0 0 1 579 143.5)" class="st6 st9 st3">Marmont</text>
<line class="st10" x1="638.7" y1="146.6" x2="668.7" y2="131.6"/>
<text transform="matrix(1 0 0 1 637.4 290)" class="st6 st2 st3">XXX</text>
<rect x="629.7" y="291.4" class="st8" width="30" height="15"/>
<text transform="matrix(1 0 0 1 583.6 303.3)" class="st6 st9 st3">Davout</text>
<text transform="matrix(1 0 0 1 637.6 303.7)" class="st6 st2 st3">III</text>
<line class="st10" x1="629.7" y1="306.4" x2="659.7" y2="291.4"/>
<text transform="matrix(1 0 0 1 609.9 330.3)" class="st6 st2 st3">XXX</text>
<rect x="602.3" y="331.7" class="st8" width="30" height="15"/>
<text transform="matrix(1 0 0 1 611 344)" class="st6 st2 st3">IV</text>
<text transform="matrix(1 0 0 1 567.9 343.6)" class="st6 st9 st3">Soult</text>
<line class="st10" x1="602.3" y1="346.7" x2="632.3" y2="331.7"/>
<text transform="matrix(1 0 0 1 973.4 720.2)" class="st6 st2 st3">XXX</text>
<rect x="965.8" y="721.6" class="st8" width="30" height="15"/>
<text transform="matrix(1 0 0 1 924 733.5)" class="st6 st9 st3">St. Cyr</text>
<line class="st10" x1="965.8" y1="736.6" x2="995.8" y2="721.6"/>
<text transform="matrix(1 0 0 1 806 606.4)" class="st6 st2 st3">XXXX</text>
<rect x="800.8" y="607.8" class="st8" width="30" height="15"/>
<text transform="matrix(1 0 0 1 809.4 620.1)" class="st6 st2 st3">VI</text>
<text transform="matrix(1 0 0 1 745.3 619.7)" class="st6 st9 st3">Masséna</text>
<line class="st10" x1="800.8" y1="622.8" x2="830.8" y2="607.8"/>
<text transform="matrix(1 0 0 1 488.9 409.6)" class="st6 st2 st3">XXXX</text>
<rect x="483.8" y="411" class="st8" width="30" height="15"/>
<text transform="matrix(1 0 0 1 422.9 422.9)" class="st6 st9 st3">Napoleon</text>
<line class="st10" x1="483.8" y1="426" x2="513.8" y2="411"/>
<text transform="matrix(1 0 0 1 840.5 350.1)" class="st6 st2 st3">XXX</text>
<rect x="832.9" y="351.5" class="st8" width="30" height="15"/>
<text transform="matrix(1 0 0 1 771.1 363.4)" class="st6 st9 st3">Bavarians</text>
<line class="st10" x1="832.9" y1="366.5" x2="862.9" y2="351.5"/>
<text transform="matrix(1 0 0 1 850.1 159.2)" class="st6 st2 st3">XXX</text>
<rect x="842.5" y="160.6" class="st8" width="30" height="15"/>
<text transform="matrix(1 0 0 1 855 173)" class="st6 st2 st3">I</text>
<text transform="matrix(1 0 0 1 772.9 172.5)" class="st6 st9 st3">Bernado</text>
<text transform="matrix(1 0 0 1 821.7 172.5)" class="st6 st9 st3">t</text>
<text transform="matrix(1 0 0 1 826.8 172.5)" class="st6 st9 st3">te</text>
<line class="st10" x1="842.5" y1="175.6" x2="872.5" y2="160.6"/>
<text transform="matrix(1 0 0 1 599.6 379.5)" class="st6 st2 st3">XXX</text>
<rect x="592" y="380.9" class="st8" width="30" height="15"/>
<text transform="matrix(1 0 0 1 600.6 393.2)" class="st6 st2 st3">VI</text>
<text transform="matrix(1 0 0 1 564.4 392.8)" class="st6 st9 st3">Ney</text>
<line class="st10" x1="592" y1="395.9" x2="622" y2="380.9"/>
<text transform="matrix(1 0 0 1 1150.8 456.1)" class="st11 st2 st3">XXX</text>
<rect x="1143.1" y="457.5" class="st12" width="30" height="15"/>
<text transform="matrix(1 0 0 1 1178.4 469.4)" class="st11 st9 st3">Mack</text>
<line class="st10" x1="1143.1" y1="472.5" x2="1173.1" y2="457.5"/>
<text transform="matrix(1 0 0 1 924.7 515.2)" class="st11 st2 st3">XX</text>
<rect x="914.6" y="516.7" class="st12" width="30" height="15"/>
<text transform="matrix(1 0 0 1 949.9 528.5)" class="st11 st9 st3">Hiller</text>
<line class="st10" x1="914.6" y1="531.7" x2="944.6" y2="516.7"/>
<text transform="matrix(1 0 0 1 1062.6 578.3)" class="st11 st2 st3">XXX</text>
<rect x="1055" y="579.7" class="st12" width="30" height="15"/>
<text transform="matrix(1 0 0 1 1090.3 591.6)" class="st11 st9 st3">Charles</text>
<line class="st10" x1="1055" y1="594.7" x2="1085" y2="579.7"/>
<text transform="matrix(1 0 0 1 1150.8 430.8)" class="st11 st2 st3">XXX</text>
<rect x="1143.1" y="432.2" class="st12" width="30" height="15"/>
<text transform="matrix(1 0 0 1 1178.4 444.1)" class="st11 st9 st3">Ferdinand</text>
<line class="st10" x1="1143.1" y1="447.2" x2="1173.1" y2="432.2"/>
<text transform="matrix(1 0 0 1 1004.3 403.1)" class="st11 st2 st3">XX</text>
<rect x="994.2" y="404.5" class="st12" width="30" height="15"/>
<text transform="matrix(1 0 0 1 1027.4 416.4)" class="st11 st9 st3">Go</text>
<text transform="matrix(1 0 0 1 1043.3 416.4)" class="st11 st9 st3">t</text>
<text transform="matrix(1 0 0 1 1048.4 416.4)" class="st11 st9 st3">tesheim</text>
<line class="st10" x1="994.2" y1="419.5" x2="1024.2" y2="404.5"/>
<text transform="matrix(1 0 0 1 983.2 445.6)" class="st11 st2 st3">XX</text>
<rect x="973.1" y="447" class="st12" width="30" height="15"/>
<text transform="matrix(1 0 0 1 1008.3 458.9)" class="st11 st9 st3">Klenau</text>
<line class="st10" x1="973.1" y1="462" x2="1003.1" y2="447"/>
<text transform="matrix(1 0 0 1 815.5 491.6)" class="st11 st2 st3">XXX</text>
<rect x="807.9" y="493" class="st12" width="30" height="15"/>
<text transform="matrix(1 0 0 1 844.2 504.9)" class="st11 st9 st3">John</text>
<line class="st10" x1="807.9" y1="508" x2="837.9" y2="493"/>
<text transform="matrix(1 0 0 1 873.1 476.3)" class="st11 st2 st3">XX</text>
<line class="st10" x1="863" y1="492.7" x2="893" y2="477.7"/>
<rect x="863" y="477.7" class="st12" width="30" height="15"/>
<text transform="matrix(1 0 0 1 899.2 489.6)" class="st11 st9 st3">Jellachich</text>
</svg>
