<?xml version="1.0" encoding="utf-8"?>
<!-- Generator: Adobe Illustrator 21.1.0, SVG Export Plug-In . SVG Version: 6.00 Build 0)  -->
<svg version="1.1" id="Troops" xmlns="http://www.w3.org/2000/svg" xmlns:xlink="http://www.w3.org/1999/xlink" x="0px" y="0px"
	 viewBox="0 0 1440 910" style="enable-background:new 0 0 1440 910;" xml:space="preserve">
<style type="text/css">
	.st0{fill:none;stroke:#999999;stroke-width:10;stroke-linecap:round;stroke-linejoin:round;}
	.st1{fill:#999999;}
	.st2{font-family:'DroidSans';}
	.st3{font-size:12px;}
	.st4{fill:none;stroke:#999999;stroke-width:10;stroke-linecap:round;}
	.st5{fill:none;stroke:#0072BB;stroke-width:3;stroke-linecap:round;stroke-linejoin:round;}
	.st6{fill:#0072BB;}
	.st7{fill:none;stroke:#0072BB;stroke-width:3;stroke-linecap:round;}
	.st8{fill:none;stroke:#999999;stroke-width:3;stroke-linecap:round;stroke-linejoin:round;}
	.st9{fill:none;stroke:#ED2939;stroke-width:3;stroke-linecap:round;}
	.st10{fill:none;stroke:#ED2939;stroke-width:3;stroke-linecap:round;stroke-linejoin:round;}
	.st11{fill:#ED2939;}
	.st12{fill:#FFFFFF;stroke:#0072BB;stroke-width:0.75;stroke-miterlimit:10;}
	.st13{font-family:'DroidSans-Bold';}
	.st14{fill:none;}
	.st15{fill:#FFFFFF;stroke:#ED2939;stroke-width:0.75;stroke-miterlimit:10;}
</style>
<path id="Saint_Cloud-40" class="st0" d="M482.6,382.5L482.6,382.5"/>
<text transform="matrix(1 0 0 1 484.8 397.2)" class="st1 st2 st3">Saint-Cloud</text>
<path class="st4" d="M604.9,267.5L604.9,267.5"/>
<text transform="matrix(1 0 0 1 610.4 262)" class="st1 st2 st3">Namur</text>
<path class="st5" d="M578.5,264.8c0.5-0.1,8,0.6,13.6,1.1"/>
<polygon class="st6" points="604.7,267.5 586,272.5 591.1,265.8 587.8,258 "/>
<path class="st4" d="M568.6,306.8L568.6,306.8"/>
<text transform="matrix(1 0 0 1 574.1 300.1)" class="st1 st2 st3">Hirson</text>
<path class="st5" d="M557.3,283.6c0,0,6.2,9.8,7.4,11"/>
<polygon class="st6" points="568.6,306.8 555.6,292.4 563.9,293.9 569.3,287.4 "/>
<path id="Rhemis-2" class="st4" d="M566.5,353.5L566.5,353.5"/>
<text transform="matrix(1 0 0 1 572 348)" class="st1 st2 st3">Rheims</text>
<path class="st5" d="M550.3,332.1c1.2,0.3,8.1,8.7,8.8,9.6l0.6,0.9"/>
<polygon class="st6" points="566.3,353.5 550.7,342 559.1,341.8 563.1,334.4 "/>
<path class="st4" d="M615.9,148.3L615.9,148.3"/>
<text transform="matrix(1 0 0 1 621.4 142.8)" class="st1 st2 st3">Utrecht</text>
<path class="st7" d="M611.9,139.2L611.9,139.2"/>
<path class="st5" d="M604.2,129.7l5.7,7.5"/>
<polygon class="st6" points="615.9,148.3 600.8,136.2 609.3,136.4 613.6,129.1 "/>
<path class="st4" d="M837.2,189.3L837.2,189.3"/>
<text transform="matrix(1 0 0 1 846.6 189.3)" class="st1 st2 st3">Gö</text>
<text transform="matrix(1 0 0 1 861.8 189.3)" class="st1 st2 st3">t</text>
<text transform="matrix(1 0 0 1 866 189.3)" class="st1 st2 st3">tingen</text>
<path class="st8" d="M1132.5,423L1132.5,423"/>
<path class="st0" d="M1132.5,423L1132.5,423"/>
<text transform="matrix(1 0 0 1 1134.7 418.1)" class="st1 st2 st3">Vienna</text>
<path class="st8" d="M1132.5,423L1132.5,423"/>
<path class="st9" d="M1024.5,429.9L1024.5,429.9"/>
<path class="st10" d="M1005.3,419.1c0.5,0.6,1.1,1.1,1.7,1.5c2,1.2,4.4,2.2,4.7,2.6s3.6,2.7,4.9,2.4s5.7-1.6,7.1,0s0.8,4.2,0.8,4.2"
	/>
<polygon class="st11" points="996.9,409.6 1003.5,427.8 1006.1,419.7 1014.4,418 "/>
<text transform="matrix(1 0 0 1 626.3 115.2)" class="st6 st2 st3">XXX</text>
<rect x="618.7" y="116.6" class="st12" width="30" height="15"/>
<text transform="matrix(1 0 0 1 628.9 128.9)" class="st6 st2 st3">II</text>
<text transform="matrix(1 0 0 1 559 128.5)" class="st6 st13 st3">Marmont</text>
<line class="st14" x1="618.7" y1="131.6" x2="648.7" y2="116.6"/>
<text transform="matrix(1 0 0 1 617.4 271)" class="st6 st2 st3">XXX</text>
<rect x="609.7" y="272.4" class="st12" width="30" height="15"/>
<text transform="matrix(1 0 0 1 563.6 284.3)" class="st6 st13 st3">Davout</text>
<text transform="matrix(1 0 0 1 617.6 284.7)" class="st6 st2 st3">III</text>
<line class="st14" x1="609.7" y1="287.4" x2="639.7" y2="272.4"/>
<text transform="matrix(1 0 0 1 579.9 310.3)" class="st6 st2 st3">XXX</text>
<rect x="572.3" y="311.7" class="st12" width="30" height="15"/>
<text transform="matrix(1 0 0 1 581 324)" class="st6 st2 st3">IV</text>
<text transform="matrix(1 0 0 1 537.9 323.6)" class="st6 st13 st3">Soult</text>
<line class="st14" x1="572.3" y1="326.7" x2="602.3" y2="311.7"/>
<text transform="matrix(1 0 0 1 983.4 729.1)" class="st6 st2 st3">XXX</text>
<rect x="975.8" y="730.5" class="st12" width="30" height="15"/>
<text transform="matrix(1 0 0 1 934 742.4)" class="st6 st13 st3">St. Cyr</text>
<line class="st14" x1="975.8" y1="745.5" x2="1005.8" y2="730.5"/>
<text transform="matrix(1 0 0 1 806 606.4)" class="st6 st2 st3">XXXX</text>
<rect x="800.8" y="607.8" class="st12" width="30" height="15"/>
<text transform="matrix(1 0 0 1 809.4 620.1)" class="st6 st2 st3">VI</text>
<text transform="matrix(1 0 0 1 745.3 619.7)" class="st6 st13 st3">Masséna</text>
<line class="st14" x1="800.8" y1="622.8" x2="830.8" y2="607.8"/>
<text transform="matrix(1 0 0 1 488.9 409.6)" class="st6 st2 st3">XXXX</text>
<rect x="483.8" y="411" class="st12" width="30" height="15"/>
<text transform="matrix(1 0 0 1 422.9 422.9)" class="st6 st13 st3">Napoleon</text>
<line class="st14" x1="483.8" y1="426" x2="513.8" y2="411"/>
<text transform="matrix(1 0 0 1 871.3 449.4)" class="st6 st2 st3">XXX</text>
<rect x="863.7" y="450.8" class="st12" width="30" height="15"/>
<text transform="matrix(1 0 0 1 801.9 462.7)" class="st6 st13 st3">Bavarians</text>
<line class="st14" x1="863.7" y1="465.8" x2="893.7" y2="450.8"/>
<text transform="matrix(1 0 0 1 850.1 159.2)" class="st6 st2 st3">XXX</text>
<rect x="842.5" y="160.6" class="st12" width="30" height="15"/>
<text transform="matrix(1 0 0 1 855 173)" class="st6 st2 st3">I</text>
<text transform="matrix(1 0 0 1 772.9 172.5)" class="st6 st13 st3">Bernado</text>
<text transform="matrix(1 0 0 1 821.7 172.5)" class="st6 st13 st3">t</text>
<text transform="matrix(1 0 0 1 826.8 172.5)" class="st6 st13 st3">te</text>
<line class="st14" x1="842.5" y1="175.6" x2="872.5" y2="160.6"/>
<text transform="matrix(1 0 0 1 579.6 359.5)" class="st6 st2 st3">XXX</text>
<rect x="572" y="360.9" class="st12" width="30" height="15"/>
<text transform="matrix(1 0 0 1 580.6 373.2)" class="st6 st2 st3">VI</text>
<text transform="matrix(1 0 0 1 544.4 372.8)" class="st6 st13 st3">Ney</text>
<line class="st14" x1="572" y1="375.9" x2="602" y2="360.9"/>
<text transform="matrix(1 0 0 1 1150.8 456.1)" class="st11 st2 st3">XXX</text>
<rect x="1143.1" y="457.5" class="st15" width="30" height="15"/>
<text transform="matrix(1 0 0 1 1178.4 469.4)" class="st11 st13 st3">Mack</text>
<line class="st14" x1="1143.1" y1="472.5" x2="1173.1" y2="457.5"/>
<text transform="matrix(1 0 0 1 924.7 515.2)" class="st11 st2 st3">XX</text>
<rect x="914.6" y="516.7" class="st15" width="30" height="15"/>
<text transform="matrix(1 0 0 1 949.9 528.5)" class="st11 st13 st3">Hiller</text>
<line class="st14" x1="914.6" y1="531.7" x2="944.6" y2="516.7"/>
<text transform="matrix(1 0 0 1 1062.6 578.3)" class="st11 st2 st3">XXX</text>
<rect x="1055" y="579.7" class="st15" width="30" height="15"/>
<text transform="matrix(1 0 0 1 1090.3 591.6)" class="st11 st13 st3">Charles</text>
<line class="st14" x1="1055" y1="594.7" x2="1085" y2="579.7"/>
<text transform="matrix(1 0 0 1 1150.8 430.8)" class="st11 st2 st3">XXX</text>
<rect x="1143.1" y="432.2" class="st15" width="30" height="15"/>
<text transform="matrix(1 0 0 1 1178.4 444.1)" class="st11 st13 st3">Ferdinand</text>
<line class="st14" x1="1143.1" y1="447.2" x2="1173.1" y2="432.2"/>
<text transform="matrix(1 0 0 1 1034.3 393.1)" class="st11 st2 st3">XX</text>
<rect x="1024.2" y="394.5" class="st15" width="30" height="15"/>
<text transform="matrix(1 0 0 1 951.4 406.4)" class="st11 st13 st3">Go</text>
<text transform="matrix(1 0 0 1 967.3 406.4)" class="st11 st13 st3">t</text>
<text transform="matrix(1 0 0 1 972.4 406.4)" class="st11 st13 st3">tesheim</text>
<line class="st14" x1="1024.2" y1="409.5" x2="1054.2" y2="394.5"/>
<text transform="matrix(1 0 0 1 963.2 435.6)" class="st11 st2 st3">XX</text>
<rect x="953.1" y="437" class="st15" width="30" height="15"/>
<text transform="matrix(1 0 0 1 988.3 448.9)" class="st11 st13 st3">Klenau</text>
<line class="st14" x1="953.1" y1="452" x2="983.1" y2="437"/>
<text transform="matrix(1 0 0 1 815.5 491.6)" class="st11 st2 st3">XXX</text>
<rect x="807.9" y="493" class="st15" width="30" height="15"/>
<text transform="matrix(1 0 0 1 844.2 504.9)" class="st11 st13 st3">John</text>
<line class="st14" x1="807.9" y1="508" x2="837.9" y2="493"/>
<text transform="matrix(1 0 0 1 823.1 428.3)" class="st11 st2 st3">XX</text>
<line class="st14" x1="813" y1="444.7" x2="843" y2="429.7"/>
<rect x="813" y="429.7" class="st15" width="30" height="15"/>
<text transform="matrix(1 0 0 1 849.2 441.6)" class="st11 st13 st3">Jellachich</text>
</svg>
