<?xml version="1.0" encoding="utf-8"?>
<!-- Generator: Adobe Illustrator 21.1.0, SVG Export Plug-In . SVG Version: 6.00 Build 0)  -->
<svg version="1.1" id="Troops" xmlns="http://www.w3.org/2000/svg" xmlns:xlink="http://www.w3.org/1999/xlink" x="0px" y="0px"
	 viewBox="0 0 1440 910" style="enable-background:new 0 0 1440 910;" xml:space="preserve">
<style type="text/css">
	.st0{fill:none;stroke:#999999;stroke-width:10;stroke-linecap:round;stroke-linejoin:round;}
	.st1{fill:#999999;}
	.st2{font-family:'DroidSans';}
	.st3{font-size:12px;}
	.st4{fill:none;stroke:#999999;stroke-width:10;stroke-linecap:round;}
	.st5{fill:none;stroke:#0072BB;stroke-width:3;stroke-linecap:round;stroke-linejoin:round;}
	.st6{fill:#0072BB;}
	.st7{fill:none;stroke:#999999;stroke-width:3;stroke-linecap:round;}
	.st8{fill:none;stroke:#999999;stroke-width:3;stroke-linecap:round;stroke-linejoin:round;}
	.st9{fill:#FFFFFF;stroke:#0072BB;stroke-width:0.75;stroke-miterlimit:10;}
	.st10{font-family:'DroidSans-Bold';}
	.st11{fill:none;}
	.st12{fill:#ED2939;}
	.st13{fill:#FFFFFF;stroke:#ED2939;stroke-width:0.75;stroke-miterlimit:10;}
</style>
<path id="Saint_Cloud-30" class="st0" d="M482.6,382.5L482.6,382.5"/>
<text transform="matrix(1 0 0 1 484.8 397.2)" class="st1 st2 st3">Saint-Cloud</text>
<text transform="matrix(1 0 0 1 636.4 306.7)" class="st1 st2 st3">Neufchâteau</text>
<path class="st4" d="M630.9,312.2L630.9,312.2"/>
<path class="st4" d="M628.4,360.6L628.4,360.6"/>
<text transform="matrix(1 0 0 1 632.9 356.2)" class="st1 st2 st3">V</text>
<text transform="matrix(1 0 0 1 639.4 356.2)" class="st1 st2 st3">erdun</text>
<path class="st5" d="M619.2,336.9c-0.3,1.6,1.2,6.7,2.1,8.6l1.9,3.7"/>
<polygon class="st6" points="628.5,360.7 614.3,347.6 622.7,348.3 627.5,341.4 "/>
<path id="Saint_Dizier-2" class="st4" d="M608.6,396.9L608.6,396.9"/>
<text transform="matrix(1 0 0 1 614.1 391.4)" class="st1 st2 st3">Saint-Dizier</text>
<path class="st5" d="M580.9,390.6c1.3,0.7,10.2,2.8,17,4.3"/>
<polygon class="st6" points="610.6,394.5 592.7,401.8 596.9,394.5 592.6,387.2 "/>
<path class="st4" d="M671.8,190.6L671.8,190.6"/>
<text transform="matrix(1 0 0 1 677.3 185.1)" class="st1 st2 st3">Geldern</text>
<path class="st7" d="M662.7,170.9L662.7,170.9"/>
<path class="st5" d="M662.7,170.9c0.7,0.7,1.1,1.6,1.3,2.5c0.1,1.2-0.6,4.1,0.7,6.6"/>
<polygon class="st6" points="671.6,190.6 656,179.2 664.4,179 668.5,171.5 "/>
<path class="st4" d="M837.2,189.3L837.2,189.3"/>
<text transform="matrix(1 0 0 1 846.6 189.3)" class="st1 st2 st3">Gö</text>
<text transform="matrix(1 0 0 1 861.8 189.3)" class="st1 st2 st3">t</text>
<text transform="matrix(1 0 0 1 866 189.3)" class="st1 st2 st3">tingen</text>
<path class="st8" d="M1132.5,423L1132.5,423"/>
<path class="st0" d="M1132.5,423L1132.5,423"/>
<text transform="matrix(1 0 0 1 1134.7 418.1)" class="st1 st2 st3">Vienna</text>
<path class="st8" d="M1132.5,423L1132.5,423"/>
<text transform="matrix(1 0 0 1 681.3 155.2)" class="st6 st2 st3">XXX</text>
<rect x="673.7" y="156.6" class="st9" width="30" height="15"/>
<text transform="matrix(1 0 0 1 683.9 168.9)" class="st6 st2 st3">II</text>
<text transform="matrix(1 0 0 1 614 168.5)" class="st6 st10 st3">Marmont</text>
<line class="st11" x1="673.7" y1="171.6" x2="703.7" y2="156.6"/>
<text transform="matrix(1 0 0 1 667.4 320)" class="st6 st2 st3">XXX</text>
<rect x="659.7" y="321.4" class="st9" width="30" height="15"/>
<text transform="matrix(1 0 0 1 613.6 333.3)" class="st6 st10 st3">Davout</text>
<text transform="matrix(1 0 0 1 667.6 333.7)" class="st6 st2 st3">III</text>
<line class="st11" x1="659.7" y1="336.4" x2="689.7" y2="321.4"/>
<text transform="matrix(1 0 0 1 683.9 352.3)" class="st6 st2 st3">XXX</text>
<rect x="676.3" y="353.7" class="st9" width="30" height="15"/>
<text transform="matrix(1 0 0 1 685 366)" class="st6 st2 st3">IV</text>
<text transform="matrix(1 0 0 1 641.9 365.6)" class="st6 st10 st3">Soult</text>
<line class="st11" x1="676.3" y1="368.7" x2="706.3" y2="353.7"/>
<text transform="matrix(1 0 0 1 958.4 706.7)" class="st6 st2 st3">XXX</text>
<rect x="950.8" y="708.1" class="st9" width="30" height="15"/>
<text transform="matrix(1 0 0 1 909 720)" class="st6 st10 st3">St. Cyr</text>
<line class="st11" x1="950.8" y1="723.1" x2="980.8" y2="708.1"/>
<text transform="matrix(1 0 0 1 806 606.4)" class="st6 st2 st3">XXXX</text>
<rect x="800.8" y="607.8" class="st9" width="30" height="15"/>
<text transform="matrix(1 0 0 1 809.4 620.1)" class="st6 st2 st3">VI</text>
<text transform="matrix(1 0 0 1 745.3 619.7)" class="st6 st10 st3">Masséna</text>
<line class="st11" x1="800.8" y1="622.8" x2="830.8" y2="607.8"/>
<text transform="matrix(1 0 0 1 488.9 409.6)" class="st6 st2 st3">XXXX</text>
<rect x="483.8" y="411" class="st9" width="30" height="15"/>
<text transform="matrix(1 0 0 1 422.9 422.9)" class="st6 st10 st3">Napoleon</text>
<line class="st11" x1="483.8" y1="426" x2="513.8" y2="411"/>
<text transform="matrix(1 0 0 1 850.5 295.1)" class="st6 st2 st3">XXX</text>
<rect x="842.9" y="296.5" class="st9" width="30" height="15"/>
<text transform="matrix(1 0 0 1 781.1 308.4)" class="st6 st10 st3">Bavarians</text>
<line class="st11" x1="842.9" y1="311.5" x2="872.9" y2="296.5"/>
<text transform="matrix(1 0 0 1 850.1 159.2)" class="st6 st2 st3">XXX</text>
<rect x="842.5" y="160.6" class="st9" width="30" height="15"/>
<text transform="matrix(1 0 0 1 855 173)" class="st6 st2 st3">I</text>
<text transform="matrix(1 0 0 1 772.9 172.5)" class="st6 st10 st3">Bernado</text>
<text transform="matrix(1 0 0 1 821.7 172.5)" class="st6 st10 st3">t</text>
<text transform="matrix(1 0 0 1 826.8 172.5)" class="st6 st10 st3">te</text>
<line class="st11" x1="842.5" y1="175.6" x2="872.5" y2="160.6"/>
<text transform="matrix(1 0 0 1 649.6 402.5)" class="st6 st2 st3">XXX</text>
<rect x="642" y="403.9" class="st9" width="30" height="15"/>
<text transform="matrix(1 0 0 1 650.6 416.2)" class="st6 st2 st3">VI</text>
<text transform="matrix(1 0 0 1 614.4 415.8)" class="st6 st10 st3">Ney</text>
<line class="st11" x1="642" y1="418.9" x2="672" y2="403.9"/>
<text transform="matrix(1 0 0 1 1150.8 456.1)" class="st12 st2 st3">XXX</text>
<rect x="1143.1" y="457.5" class="st13" width="30" height="15"/>
<text transform="matrix(1 0 0 1 1178.4 469.4)" class="st12 st10 st3">Mack</text>
<line class="st11" x1="1143.1" y1="472.5" x2="1173.1" y2="457.5"/>
<text transform="matrix(1 0 0 1 924.7 515.2)" class="st12 st2 st3">XX</text>
<rect x="914.6" y="516.7" class="st13" width="30" height="15"/>
<text transform="matrix(1 0 0 1 949.9 528.5)" class="st12 st10 st3">Hiller</text>
<line class="st11" x1="914.6" y1="531.7" x2="944.6" y2="516.7"/>
<text transform="matrix(1 0 0 1 1002.6 578.3)" class="st12 st2 st3">XXX</text>
<rect x="995" y="579.7" class="st13" width="30" height="15"/>
<text transform="matrix(1 0 0 1 1030.3 591.6)" class="st12 st10 st3">Charles</text>
<line class="st11" x1="995" y1="594.7" x2="1025" y2="579.7"/>
<text transform="matrix(1 0 0 1 1150.8 430.8)" class="st12 st2 st3">XXX</text>
<rect x="1143.1" y="432.2" class="st13" width="30" height="15"/>
<text transform="matrix(1 0 0 1 1178.4 444.1)" class="st12 st10 st3">Ferdinand</text>
<line class="st11" x1="1143.1" y1="447.2" x2="1173.1" y2="432.2"/>
<text transform="matrix(1 0 0 1 1012.7 404.6)" class="st12 st2 st3">XXX</text>
<rect x="1005.1" y="406" class="st13" width="30" height="15"/>
<text transform="matrix(1 0 0 1 1040.3 417.9)" class="st12 st10 st3">Kienmayer</text>
<line class="st11" x1="1005.1" y1="421" x2="1035.1" y2="406"/>
<text transform="matrix(1 0 0 1 924.3 413.1)" class="st12 st2 st3">XX</text>
<rect x="914.2" y="414.5" class="st13" width="30" height="15"/>
<text transform="matrix(1 0 0 1 946.4 426.4)" class="st12 st10 st3">Go</text>
<text transform="matrix(1 0 0 1 962.3 426.4)" class="st12 st10 st3">t</text>
<text transform="matrix(1 0 0 1 967.4 426.4)" class="st12 st10 st3">tesheim</text>
<line class="st11" x1="914.2" y1="429.5" x2="944.2" y2="414.5"/>
<text transform="matrix(1 0 0 1 943.2 450.6)" class="st12 st2 st3">XX</text>
<rect x="933.1" y="452" class="st13" width="30" height="15"/>
<text transform="matrix(1 0 0 1 968.3 463.9)" class="st12 st10 st3">Klenau</text>
<line class="st11" x1="933.1" y1="467" x2="963.1" y2="452"/>
<text transform="matrix(1 0 0 1 815.5 491.6)" class="st12 st2 st3">XXX</text>
<rect x="807.9" y="493" class="st13" width="30" height="15"/>
<text transform="matrix(1 0 0 1 844.2 504.9)" class="st12 st10 st3">John</text>
<line class="st11" x1="807.9" y1="508" x2="837.9" y2="493"/>
<text transform="matrix(1 0 0 1 1262.2 289.4)" class="st12 st2 st3">XX</text>
<rect x="1252.1" y="290.8" class="st13" width="30" height="15"/>
<text transform="matrix(1 0 0 1 1287.3 302.7)" class="st12 st10 st3">Riesch</text>
<line class="st11" x1="1252.1" y1="305.8" x2="1282.1" y2="290.8"/>
<text transform="matrix(1 0 0 1 813.1 441.3)" class="st12 st2 st3">XX</text>
<line class="st11" x1="803" y1="457.7" x2="833" y2="442.7"/>
<rect x="803" y="442.7" class="st13" width="30" height="15"/>
<text transform="matrix(1 0 0 1 839.2 454.6)" class="st12 st10 st3">Jellachich</text>
</svg>
