<?xml version="1.0" encoding="utf-8"?>
<!-- Generator: Adobe Illustrator 21.1.0, SVG Export Plug-In . SVG Version: 6.00 Build 0)  -->
<svg version="1.1" id="Troops" xmlns="http://www.w3.org/2000/svg" xmlns:xlink="http://www.w3.org/1999/xlink" x="0px" y="0px"
	 viewBox="0 0 1440 910" style="enable-background:new 0 0 1440 910;" xml:space="preserve">
<style type="text/css">
	.st0{fill:none;stroke:#999999;stroke-width:10;stroke-linecap:round;stroke-linejoin:round;}
	.st1{fill:#999999;}
	.st2{font-family:'DroidSans';}
	.st3{font-size:12px;}
	.st4{fill:none;stroke:#999999;stroke-width:10;stroke-linecap:round;}
	.st5{fill:none;stroke:#999999;stroke-width:3;stroke-linecap:round;}
	.st6{fill:none;stroke:#0072BB;stroke-width:3;stroke-linecap:round;stroke-linejoin:round;}
	.st7{fill:#0072BB;}
	.st8{fill:none;stroke:#999999;stroke-width:3;stroke-linecap:round;stroke-linejoin:round;}
	.st9{fill:#FFFFFF;stroke:#0072BB;stroke-width:0.75;stroke-miterlimit:10;}
	.st10{font-family:'DroidSans-Bold';}
	.st11{fill:none;}
	.st12{fill:#ED2939;}
	.st13{fill:#FFFFFF;stroke:#ED2939;stroke-width:0.75;stroke-miterlimit:10;}
</style>
<path id="Saint_Cloud-32" class="st0" d="M482.6,382.5L482.6,382.5"/>
<text transform="matrix(1 0 0 1 484.8 397.2)" class="st1 st2 st3">Saint-Cloud</text>
<text transform="matrix(1 0 0 1 636.4 306.7)" class="st1 st2 st3">Neufchâteau</text>
<path class="st4" d="M630.9,312.2L630.9,312.2"/>
<path class="st5" d="M628.1,299L628.1,299"/>
<path class="st6" d="M624,282.9c0,0,2.5,11.1,3.5,17.1"/>
<polygon class="st7" points="630.9,312.2 619.2,296.7 627.4,299 633.4,293 "/>
<path class="st4" d="M619.3,337.1L619.3,337.1"/>
<text transform="matrix(1 0 0 1 627 354.6)" class="st1 st2 st3">Stenay</text>
<path class="st5" d="M607.9,322.2L607.9,322.2"/>
<path class="st6" d="M597.7,309.9c1-0.1,9.8,10.4,10.2,12.1s2.9,4,2.9,4l0.9,0.9"/>
<polygon class="st7" points="619.3,337 602.5,327.4 610.9,326.2 614,318.4 "/>
<path id="Vitry_le_Francois" class="st4" d="M592,390.7L592,390.7"/>
<text transform="matrix(1 0 0 1 597.5 385.2)" class="st1 st2 st3">Vitry-le-F</text>
<text transform="matrix(1 0 0 1 645.3 385.2)" class="st1 st2 st3">r</text>
<text transform="matrix(1 0 0 1 650 385.2)" class="st1 st2 st3">ançois</text>
<path class="st6" d="M576.7,365.1c0,0,5.7,8.5,9.3,14.2"/>
<polygon class="st7" points="592,390.6 577,378.4 585.4,378.6 589.8,371.3 "/>
<path class="st4" d="M662.7,170.9L662.7,170.9"/>
<text transform="matrix(1 0 0 1 668.3 165.4)" class="st1 st2 st3">Kleve</text>
<path class="st5" d="M650.1,166.7L650.1,166.7"/>
<path class="st6" d="M634.1,160.7l16.3,6.9"/>
<polygon class="st7" points="662.7,170.8 643.5,173.1 649.5,167.2 647.4,159 "/>
<path class="st4" d="M837.2,189.3L837.2,189.3"/>
<text transform="matrix(1 0 0 1 846.6 189.3)" class="st1 st2 st3">Gö</text>
<text transform="matrix(1 0 0 1 861.8 189.3)" class="st1 st2 st3">t</text>
<text transform="matrix(1 0 0 1 866 189.3)" class="st1 st2 st3">tingen</text>
<path class="st8" d="M1132.5,423L1132.5,423"/>
<path class="st0" d="M1132.5,423L1132.5,423"/>
<text transform="matrix(1 0 0 1 1134.7 418.1)" class="st1 st2 st3">Vienna</text>
<path class="st8" d="M1132.5,423L1132.5,423"/>
<text transform="matrix(1 0 0 1 676.3 135.2)" class="st7 st2 st3">XXX</text>
<rect x="668.7" y="136.6" class="st9" width="30" height="15"/>
<text transform="matrix(1 0 0 1 678.9 148.9)" class="st7 st2 st3">II</text>
<text transform="matrix(1 0 0 1 609 148.5)" class="st7 st10 st3">Marmont</text>
<line class="st11" x1="668.7" y1="151.6" x2="698.7" y2="136.6"/>
<text transform="matrix(1 0 0 1 674.4 314)" class="st7 st2 st3">XXX</text>
<rect x="666.7" y="315.4" class="st9" width="30" height="15"/>
<text transform="matrix(1 0 0 1 620.6 327.3)" class="st7 st10 st3">Davout</text>
<text transform="matrix(1 0 0 1 674.6 327.7)" class="st7 st2 st3">III</text>
<line class="st11" x1="666.7" y1="330.4" x2="696.7" y2="315.4"/>
<text transform="matrix(1 0 0 1 669.9 352.3)" class="st7 st2 st3">XXX</text>
<rect x="662.3" y="353.7" class="st9" width="30" height="15"/>
<text transform="matrix(1 0 0 1 671 366)" class="st7 st2 st3">IV</text>
<text transform="matrix(1 0 0 1 627.9 365.6)" class="st7 st10 st3">Soult</text>
<line class="st11" x1="662.3" y1="368.7" x2="692.3" y2="353.7"/>
<text transform="matrix(1 0 0 1 963.4 711.2)" class="st7 st2 st3">XXX</text>
<rect x="955.8" y="712.6" class="st9" width="30" height="15"/>
<text transform="matrix(1 0 0 1 914 724.5)" class="st7 st10 st3">St. Cyr</text>
<line class="st11" x1="955.8" y1="727.6" x2="985.8" y2="712.6"/>
<text transform="matrix(1 0 0 1 806 606.4)" class="st7 st2 st3">XXXX</text>
<rect x="800.8" y="607.8" class="st9" width="30" height="15"/>
<text transform="matrix(1 0 0 1 809.4 620.1)" class="st7 st2 st3">VI</text>
<text transform="matrix(1 0 0 1 745.3 619.7)" class="st7 st10 st3">Masséna</text>
<line class="st11" x1="800.8" y1="622.8" x2="830.8" y2="607.8"/>
<text transform="matrix(1 0 0 1 488.9 409.6)" class="st7 st2 st3">XXXX</text>
<rect x="483.8" y="411" class="st9" width="30" height="15"/>
<text transform="matrix(1 0 0 1 422.9 422.9)" class="st7 st10 st3">Napoleon</text>
<line class="st11" x1="483.8" y1="426" x2="513.8" y2="411"/>
<text transform="matrix(1 0 0 1 840.5 350.1)" class="st7 st2 st3">XXX</text>
<rect x="832.9" y="351.5" class="st9" width="30" height="15"/>
<text transform="matrix(1 0 0 1 771.1 363.4)" class="st7 st10 st3">Bavarians</text>
<line class="st11" x1="832.9" y1="366.5" x2="862.9" y2="351.5"/>
<text transform="matrix(1 0 0 1 850.1 159.2)" class="st7 st2 st3">XXX</text>
<rect x="842.5" y="160.6" class="st9" width="30" height="15"/>
<text transform="matrix(1 0 0 1 855 173)" class="st7 st2 st3">I</text>
<text transform="matrix(1 0 0 1 772.9 172.5)" class="st7 st10 st3">Bernado</text>
<text transform="matrix(1 0 0 1 821.7 172.5)" class="st7 st10 st3">t</text>
<text transform="matrix(1 0 0 1 826.8 172.5)" class="st7 st10 st3">te</text>
<line class="st11" x1="842.5" y1="175.6" x2="872.5" y2="160.6"/>
<text transform="matrix(1 0 0 1 609.6 397.5)" class="st7 st2 st3">XXX</text>
<rect x="602" y="398.9" class="st9" width="30" height="15"/>
<text transform="matrix(1 0 0 1 610.6 411.2)" class="st7 st2 st3">VI</text>
<text transform="matrix(1 0 0 1 574.4 410.8)" class="st7 st10 st3">Ney</text>
<line class="st11" x1="602" y1="413.9" x2="632" y2="398.9"/>
<text transform="matrix(1 0 0 1 1150.8 456.1)" class="st12 st2 st3">XXX</text>
<rect x="1143.1" y="457.5" class="st13" width="30" height="15"/>
<text transform="matrix(1 0 0 1 1178.4 469.4)" class="st12 st10 st3">Mack</text>
<line class="st11" x1="1143.1" y1="472.5" x2="1173.1" y2="457.5"/>
<text transform="matrix(1 0 0 1 924.7 515.2)" class="st12 st2 st3">XX</text>
<rect x="914.6" y="516.7" class="st13" width="30" height="15"/>
<text transform="matrix(1 0 0 1 949.9 528.5)" class="st12 st10 st3">Hiller</text>
<line class="st11" x1="914.6" y1="531.7" x2="944.6" y2="516.7"/>
<text transform="matrix(1 0 0 1 1022.6 578.3)" class="st12 st2 st3">XXX</text>
<rect x="1015" y="579.7" class="st13" width="30" height="15"/>
<text transform="matrix(1 0 0 1 1050.3 591.6)" class="st12 st10 st3">Charles</text>
<line class="st11" x1="1015" y1="594.7" x2="1045" y2="579.7"/>
<text transform="matrix(1 0 0 1 1150.8 430.8)" class="st12 st2 st3">XXX</text>
<rect x="1143.1" y="432.2" class="st13" width="30" height="15"/>
<text transform="matrix(1 0 0 1 1178.4 444.1)" class="st12 st10 st3">Ferdinand</text>
<line class="st11" x1="1143.1" y1="447.2" x2="1173.1" y2="432.2"/>
<text transform="matrix(1 0 0 1 974.3 393.1)" class="st12 st2 st3">XX</text>
<rect x="964.2" y="394.5" class="st13" width="30" height="15"/>
<text transform="matrix(1 0 0 1 997.4 406.4)" class="st12 st10 st3">Go</text>
<text transform="matrix(1 0 0 1 1013.3 406.4)" class="st12 st10 st3">t</text>
<text transform="matrix(1 0 0 1 1018.4 406.4)" class="st12 st10 st3">tesheim</text>
<line class="st11" x1="964.2" y1="409.5" x2="994.2" y2="394.5"/>
<text transform="matrix(1 0 0 1 943.2 425.6)" class="st12 st2 st3">XX</text>
<rect x="933.1" y="427" class="st13" width="30" height="15"/>
<text transform="matrix(1 0 0 1 968.3 438.9)" class="st12 st10 st3">Klenau</text>
<line class="st11" x1="933.1" y1="442" x2="963.1" y2="427"/>
<text transform="matrix(1 0 0 1 815.5 491.6)" class="st12 st2 st3">XXX</text>
<rect x="807.9" y="493" class="st13" width="30" height="15"/>
<text transform="matrix(1 0 0 1 844.2 504.9)" class="st12 st10 st3">John</text>
<line class="st11" x1="807.9" y1="508" x2="837.9" y2="493"/>
<text transform="matrix(1 0 0 1 813.1 441.3)" class="st12 st2 st3">XX</text>
<line class="st11" x1="803" y1="457.7" x2="833" y2="442.7"/>
<rect x="803" y="442.7" class="st13" width="30" height="15"/>
<text transform="matrix(1 0 0 1 839.2 454.6)" class="st12 st10 st3">Jellachich</text>
</svg>
