<?xml version="1.0" encoding="utf-8"?>
<!-- Generator: Adobe Illustrator 21.1.0, SVG Export Plug-In . SVG Version: 6.00 Build 0)  -->
<svg version="1.1" id="Troops" xmlns="http://www.w3.org/2000/svg" xmlns:xlink="http://www.w3.org/1999/xlink" x="0px" y="0px"
	 viewBox="0 0 1440 910" style="enable-background:new 0 0 1440 910;" xml:space="preserve">
<style type="text/css">
	.st0{fill:#999999;}
	.st1{font-family:'DroidSans';}
	.st2{font-size:12px;}
	.st3{fill:none;stroke:#999999;stroke-width:10;stroke-linecap:round;}
	.st4{fill:none;stroke:#0072BB;stroke-width:3;stroke-linecap:round;}
	.st5{fill:none;stroke:#0072BB;stroke-width:3;stroke-linecap:round;stroke-linejoin:round;}
	.st6{fill:#0072BB;}
	.st7{fill:none;stroke:#999999;stroke-width:3;stroke-linecap:round;stroke-linejoin:round;}
	.st8{fill:none;stroke:#999999;stroke-width:10;stroke-linecap:round;stroke-linejoin:round;}
	.st9{fill:none;stroke:#999999;stroke-width:3;stroke-linecap:round;}
	.st10{fill:#FFFFFF;stroke:#0072BB;stroke-width:0.75;stroke-miterlimit:10;}
	.st11{font-family:'DroidSans-Bold';}
	.st12{fill:none;}
	.st13{fill:#ED2939;}
	.st14{fill:#FFFFFF;stroke:#ED2939;stroke-width:0.75;stroke-miterlimit:10;}
</style>
<text transform="matrix(1 0 0 1 484.8 397.2)" class="st0 st1 st2">Saint-Cloud</text>
<path id="Laon-5" class="st3" d="M482.6,382.8L482.6,382.8"/>
<path class="st3" d="M572.8,271.4L572.8,271.4"/>
<text transform="matrix(1 0 0 1 578.3 265.9)" class="st0 st1 st2">Binche</text>
<path class="st4" d="M563,268.3L563,268.3"/>
<path class="st5" d="M552.7,262.2c0.2,0.4,5.4,3.3,8.3,4.9"/>
<polygon class="st6" points="573,271.4 553.7,272 560.2,266.6 558.7,258.3 "/>
<path class="st3" d="M529.7,288.6L529.7,288.6"/>
<text transform="matrix(1 0 0 1 534.7 302.4)" class="st0 st1 st2">Camb</text>
<text transform="matrix(1 0 0 1 566.1 302.4)" class="st0 st1 st2">r</text>
<text transform="matrix(1 0 0 1 570.8 302.4)" class="st0 st1 st2">ai</text>
<path class="st5" d="M517,267.8c0.1,0.7,3.2,5.8,5.9,10.2"/>
<polygon class="st6" points="529.7,288.6 513.9,277.4 522.3,277.1 526.2,269.6 "/>
<path id="Laon-7" class="st3" d="M547.6,331.9L547.6,331.9"/>
<text transform="matrix(1 0 0 1 552.6 348.4)" class="st0 st1 st2">Laon</text>
<path class="st5" d="M527.4,321.1c0.9,0.3,5,2.5,9,4.6"/>
<polygon class="st6" points="547.5,331.8 528.3,329.7 535.5,325.3 535.2,316.8 "/>
<path class="st3" d="M599.4,107.5L599.4,107.5"/>
<text transform="matrix(1 0 0 1 604.9 102)" class="st0 st1 st2">Alkmaar</text>
<path class="st4" d="M601.6,95.7L601.6,95.7"/>
<line class="st5" x1="599.4" y1="84.1" x2="601.4" y2="95.1"/>
<polygon class="st6" points="599.3,107.6 594.3,88.9 601,94.1 608.8,90.8 "/>
<path class="st3" d="M840.3,177.3L840.3,177.3"/>
<text transform="matrix(1 0 0 1 845.8 171.8)" class="st0 st1 st2">Northeim</text>
<path class="st4" d="M838.9,165.9L838.9,165.9"/>
<path class="st5" d="M831.4,154c0.7,1,4.1,9.8,4.8,10.1l1.2,0.7"/>
<polygon class="st6" points="840.3,177.3 827.8,162.5 836.1,164.3 841.7,158 "/>
<path class="st7" d="M1132.5,423L1132.5,423"/>
<path class="st8" d="M1132.5,423L1132.5,423"/>
<text transform="matrix(1 0 0 1 1134.7 418.1)" class="st0 st1 st2">Vienna</text>
<path class="st7" d="M1132.5,423L1132.5,423"/>
<path class="st9" d="M1024.5,429.9L1024.5,429.9"/>
<text transform="matrix(1 0 0 1 1028.3 442.6)" class="st0 st1 st2">W</text>
<text transform="matrix(1 0 0 1 1038.7001 442.6)" class="st0 st1 st2">els</text>
<path class="st9" d="M1024.5,429.9L1024.5,429.9"/>
<path class="st3" d="M1024.5,429.8L1024.5,429.8"/>
<path class="st9" d="M1024.5,429.8L1024.5,429.8"/>
<text transform="matrix(1 0 0 1 610.3 73.2)" class="st6 st1 st2">XXX</text>
<rect x="602.7" y="74.6" class="st10" width="30" height="15"/>
<text transform="matrix(1 0 0 1 612.9 86.9)" class="st6 st1 st2">II</text>
<text transform="matrix(1 0 0 1 543 86.5)" class="st6 st11 st2">Marmont</text>
<line class="st12" x1="602.7" y1="89.6" x2="632.7" y2="74.6"/>
<text transform="matrix(1 0 0 1 617.4 271)" class="st6 st1 st2">XXX</text>
<rect x="609.7" y="272.4" class="st10" width="30" height="15"/>
<text transform="matrix(1 0 0 1 563.6 284.3)" class="st6 st11 st2">Davout</text>
<text transform="matrix(1 0 0 1 617.6 284.7)" class="st6 st1 st2">III</text>
<line class="st12" x1="609.7" y1="287.4" x2="639.7" y2="272.4"/>
<text transform="matrix(1 0 0 1 579.9 307.3)" class="st6 st1 st2">XXX</text>
<rect x="572.3" y="308.7" class="st10" width="30" height="15"/>
<text transform="matrix(1 0 0 1 581 321)" class="st6 st1 st2">IV</text>
<text transform="matrix(1 0 0 1 537.9 320.6)" class="st6 st11 st2">Soult</text>
<line class="st12" x1="572.3" y1="323.7" x2="602.3" y2="308.7"/>
<text transform="matrix(1 0 0 1 996.4 742.6)" class="st6 st1 st2">XXX</text>
<rect x="988.8" y="744" class="st10" width="30" height="15"/>
<text transform="matrix(1 0 0 1 947 755.9)" class="st6 st11 st2">St. Cyr</text>
<line class="st12" x1="988.8" y1="759" x2="1018.8" y2="744"/>
<text transform="matrix(1 0 0 1 488.9 409.6)" class="st6 st1 st2">XXXX</text>
<rect x="483.8" y="411" class="st10" width="30" height="15"/>
<text transform="matrix(1 0 0 1 422.9 422.9)" class="st6 st11 st2">Napoleon</text>
<line class="st12" x1="483.8" y1="426" x2="513.8" y2="411"/>
<text transform="matrix(1 0 0 1 871.3 449.4)" class="st6 st1 st2">XXX</text>
<rect x="863.7" y="450.8" class="st10" width="30" height="15"/>
<text transform="matrix(1 0 0 1 801.9 462.7)" class="st6 st11 st2">Bavarians</text>
<line class="st12" x1="863.7" y1="465.8" x2="893.7" y2="450.8"/>
<text transform="matrix(1 0 0 1 850.1 139.2)" class="st6 st1 st2">XXX</text>
<rect x="842.5" y="140.6" class="st10" width="30" height="15"/>
<text transform="matrix(1 0 0 1 855 153)" class="st6 st1 st2">I</text>
<text transform="matrix(1 0 0 1 772.9 152.5)" class="st6 st11 st2">Bernado</text>
<text transform="matrix(1 0 0 1 821.7 152.5)" class="st6 st11 st2">t</text>
<text transform="matrix(1 0 0 1 826.8 152.5)" class="st6 st11 st2">te</text>
<line class="st12" x1="842.5" y1="155.6" x2="872.5" y2="140.6"/>
<text transform="matrix(1 0 0 1 579.6 349.5)" class="st6 st1 st2">XXX</text>
<rect x="572" y="350.9" class="st10" width="30" height="15"/>
<text transform="matrix(1 0 0 1 580.6 363.2)" class="st6 st1 st2">VI</text>
<text transform="matrix(1 0 0 1 544.4 362.8)" class="st6 st11 st2">Ney</text>
<line class="st12" x1="572" y1="365.9" x2="602" y2="350.9"/>
<text transform="matrix(1 0 0 1 1150.8 456.1)" class="st13 st1 st2">XXX</text>
<rect x="1143.1" y="457.5" class="st14" width="30" height="15"/>
<text transform="matrix(1 0 0 1 1178.4 469.4)" class="st13 st11 st2">Mack</text>
<line class="st12" x1="1143.1" y1="472.5" x2="1173.1" y2="457.5"/>
<text transform="matrix(1 0 0 1 924.7 515.2)" class="st13 st1 st2">XX</text>
<rect x="914.6" y="516.7" class="st14" width="30" height="15"/>
<text transform="matrix(1 0 0 1 949.9 528.5)" class="st13 st11 st2">Hiller</text>
<line class="st12" x1="914.6" y1="531.7" x2="944.6" y2="516.7"/>
<text transform="matrix(1 0 0 1 1062.6 578.3)" class="st13 st1 st2">XXX</text>
<rect x="1055" y="579.7" class="st14" width="30" height="15"/>
<text transform="matrix(1 0 0 1 1090.3 591.6)" class="st13 st11 st2">Charles</text>
<line class="st12" x1="1055" y1="594.7" x2="1085" y2="579.7"/>
<text transform="matrix(1 0 0 1 1150.8 430.8)" class="st13 st1 st2">XXX</text>
<rect x="1143.1" y="432.2" class="st14" width="30" height="15"/>
<text transform="matrix(1 0 0 1 1178.4 444.1)" class="st13 st11 st2">Ferdinand</text>
<line class="st12" x1="1143.1" y1="447.2" x2="1173.1" y2="432.2"/>
<text transform="matrix(1 0 0 1 1064.3 479.1)" class="st13 st1 st2">XX</text>
<rect x="1054.2" y="480.5" class="st14" width="30" height="15"/>
<text transform="matrix(1 0 0 1 1087.4 492.4)" class="st13 st11 st2">Go</text>
<text transform="matrix(1 0 0 1 1103.3 492.4)" class="st13 st11 st2">t</text>
<text transform="matrix(1 0 0 1 1108.4 492.4)" class="st13 st11 st2">tesheim</text>
<line class="st12" x1="1054.2" y1="495.5" x2="1084.2" y2="480.5"/>
<text transform="matrix(1 0 0 1 1019.2 402.6)" class="st13 st1 st2">XX</text>
<rect x="1009.1" y="404" class="st14" width="30" height="15"/>
<text transform="matrix(1 0 0 1 1044.3 415.9)" class="st13 st11 st2">Klenau</text>
<line class="st12" x1="1009.1" y1="419" x2="1039.1" y2="404"/>
<text transform="matrix(1 0 0 1 815.5 491.6)" class="st13 st1 st2">XXX</text>
<rect x="807.9" y="493" class="st14" width="30" height="15"/>
<text transform="matrix(1 0 0 1 844.2 504.9)" class="st13 st11 st2">John</text>
<line class="st12" x1="807.9" y1="508" x2="837.9" y2="493"/>
<text transform="matrix(1 0 0 1 823.1 428.3)" class="st13 st1 st2">XX</text>
<line class="st12" x1="813" y1="444.7" x2="843" y2="429.7"/>
<rect x="813" y="429.7" class="st14" width="30" height="15"/>
<text transform="matrix(1 0 0 1 849.2 441.6)" class="st13 st11 st2">Jellachich</text>
</svg>
