<?xml version="1.0" encoding="utf-8"?>
<!-- Generator: Adobe Illustrator 21.1.0, SVG Export Plug-In . SVG Version: 6.00 Build 0)  -->
<svg version="1.1" id="Troops" xmlns="http://www.w3.org/2000/svg" xmlns:xlink="http://www.w3.org/1999/xlink" x="0px" y="0px"
	 viewBox="0 0 1440 910" style="enable-background:new 0 0 1440 910;" xml:space="preserve">
<style type="text/css">
	.st0{fill:none;stroke:#999999;stroke-width:10;stroke-linecap:round;stroke-linejoin:round;}
	.st1{fill:#999999;}
	.st2{font-family:'DroidSans';}
	.st3{font-size:12px;}
	.st4{fill:none;stroke:#999999;stroke-width:10;stroke-linecap:round;}
	.st5{fill:none;stroke:#999999;stroke-width:3;stroke-linecap:round;}
	.st6{fill:none;stroke:#0072BB;stroke-width:3;stroke-linejoin:round;}
	.st7{fill:#0072BB;}
	.st8{fill:none;stroke:#0072BB;stroke-width:3;stroke-linecap:round;}
	.st9{fill:none;stroke:#0072BB;stroke-width:3;stroke-linecap:round;stroke-linejoin:round;}
	.st10{fill:none;stroke:#999999;stroke-width:3;stroke-linecap:round;stroke-linejoin:round;}
	.st11{fill:#FFFFFF;stroke:#0072BB;stroke-width:0.75;stroke-miterlimit:10;}
	.st12{font-family:'DroidSans-Bold';}
	.st13{fill:none;}
	.st14{fill:#ED2939;}
	.st15{fill:#FFFFFF;stroke:#ED2939;stroke-width:0.75;stroke-miterlimit:10;}
</style>
<path id="Saint_Cloud-20" class="st0" d="M482.6,382.5L482.6,382.5"/>
<text transform="matrix(1 0 0 1 484.8 397.2)" class="st1 st2 st3">Saint-Cloud</text>
<path class="st4" d="M681.5,351.2L681.5,351.2"/>
<text transform="matrix(1 0 0 1 687 345.7)" class="st1 st2 st3">Bou</text>
<text transform="matrix(1 0 0 1 708.4 345.7)" class="st1 st2 st3">z</text>
<text transform="matrix(1 0 0 1 713.6 345.7)" class="st1 st2 st3">onville</text>
<path class="st4" d="M675.2,364.1L675.2,364.1"/>
<text transform="matrix(1 0 0 1 681.5 377.7)" class="st1 st2 st3">Courcelles-Chaussy</text>
<path class="st5" d="M664.7,363.4L664.7,363.4"/>
<path class="st6" d="M656.7,364.6c1-0.6,2.1-1.3,4.7-0.5l1.2,0.2"/>
<polygon class="st7" points="675.2,364.1 657.2,371.3 661.5,364.1 657.3,356.7 "/>
<path class="st5" d="M662.8,328.6L662.8,328.6"/>
<path class="st8" d="M664.6,346.5L664.6,346.5"/>
<path class="st6" d="M664.3,346.5c1.2,1.3,2.8,2.2,4.6,2.6"/>
<polygon class="st7" points="681.4,351.1 662.5,355 668,348.6 665.2,340.7 "/>
<path id="Nancy-4" class="st4" d="M665.4,393.1L665.4,393.1"/>
<text transform="matrix(1 0 0 1 670 404.2)" class="st1 st2 st3">Nancy</text>
<path id="Toul-2" class="st5" d="M651.9,394L651.9,394"/>
<polygon class="st7" points="665.3,393.1 648,401.6 651.7,394 647,387 "/>
<path class="st4" d="M700.9,233.4L700.9,233.4"/>
<text transform="matrix(1 0 0 1 706.4 227.8)" class="st1 st2 st3">Cologne</text>
<path class="st9" d="M692.1,216.8c0.9,1,1.7,2.2,2.2,3.4c0.3,0.6,0.7,1.2,1.2,1.8"/>
<polygon class="st7" points="700.9,233.5 686.4,220.7 694.9,221.3 699.6,214.2 "/>
<path class="st4" d="M797.5,232.2L797.5,232.2"/>
<text transform="matrix(1 0 0 1 804.5 245.8)" class="st1 st2 st3">Gilserbe</text>
<text transform="matrix(1 0 0 1 849.1 245.8)" class="st1 st2 st3">r</text>
<text transform="matrix(1 0 0 1 853.7 245.8)" class="st1 st2 st3">g</text>
<path class="st6" d="M807.6,219c-0.4,1.2-0.8,2.4-1.3,3.6l-0.2,0.2"/>
<polygon class="st7" points="797.5,232.1 803.7,213.8 806.4,221.8 814.7,223.4 "/>
<path class="st10" d="M964.8,445.8L964.8,445.8"/>
<path class="st10" d="M1132.5,423L1132.5,423"/>
<path class="st0" d="M1132.5,423L1132.5,423"/>
<text transform="matrix(1 0 0 1 1134.7 418.1)" class="st1 st2 st3">Vienna</text>
<path class="st10" d="M1132.5,423L1132.5,423"/>
<path class="st5" d="M919.2,413.6L919.2,413.6"/>
<text transform="matrix(1 0 0 1 691.3 199.2)" class="st7 st2 st3">XXX</text>
<rect x="683.7" y="200.6" class="st11" width="30" height="15"/>
<text transform="matrix(1 0 0 1 693.9 212.9)" class="st7 st2 st3">II</text>
<text transform="matrix(1 0 0 1 624 212.5)" class="st7 st12 st3">Marmont</text>
<line class="st13" x1="683.7" y1="215.6" x2="713.7" y2="200.6"/>
<text transform="matrix(1 0 0 1 667.4 320)" class="st7 st2 st3">XXX</text>
<rect x="659.7" y="321.4" class="st11" width="30" height="15"/>
<text transform="matrix(1 0 0 1 613.6 333.3)" class="st7 st12 st3">Davout</text>
<text transform="matrix(1 0 0 1 667.6 333.7)" class="st7 st2 st3">III</text>
<line class="st13" x1="659.7" y1="336.4" x2="689.7" y2="321.4"/>
<text transform="matrix(1 0 0 1 634.9 350.3)" class="st7 st2 st3">XXX</text>
<rect x="627.3" y="351.7" class="st11" width="30" height="15"/>
<text transform="matrix(1 0 0 1 636 364)" class="st7 st2 st3">IV</text>
<text transform="matrix(1 0 0 1 592.9 363.6)" class="st7 st12 st3">Soult</text>
<line class="st13" x1="627.3" y1="366.7" x2="657.3" y2="351.7"/>
<text transform="matrix(1 0 0 1 933.4 684.3)" class="st7 st2 st3">XXX</text>
<rect x="925.8" y="685.7" class="st11" width="30" height="15"/>
<text transform="matrix(1 0 0 1 884 697.6)" class="st7 st12 st3">St. Cyr</text>
<line class="st13" x1="925.8" y1="700.7" x2="955.8" y2="685.7"/>
<text transform="matrix(1 0 0 1 806 606.4)" class="st7 st2 st3">XXXX</text>
<rect x="800.8" y="607.8" class="st11" width="30" height="15"/>
<text transform="matrix(1 0 0 1 809.4 620.1)" class="st7 st2 st3">VI</text>
<text transform="matrix(1 0 0 1 745.3 619.7)" class="st7 st12 st3">Masséna</text>
<line class="st13" x1="800.8" y1="622.8" x2="830.8" y2="607.8"/>
<text transform="matrix(1 0 0 1 488.9 409.6)" class="st7 st2 st3">XXXX</text>
<rect x="483.8" y="411" class="st11" width="30" height="15"/>
<text transform="matrix(1 0 0 1 422.9 422.9)" class="st7 st12 st3">Napoleon</text>
<line class="st13" x1="483.8" y1="426" x2="513.8" y2="411"/>
<text transform="matrix(1 0 0 1 850.5 295.1)" class="st7 st2 st3">XXX</text>
<rect x="842.9" y="296.5" class="st11" width="30" height="15"/>
<text transform="matrix(1 0 0 1 781.1 308.4)" class="st7 st12 st3">Bavarians</text>
<line class="st13" x1="842.9" y1="311.5" x2="872.9" y2="296.5"/>
<text transform="matrix(1 0 0 1 810.1 201.2)" class="st7 st2 st3">XXX</text>
<rect x="802.5" y="202.6" class="st11" width="30" height="15"/>
<text transform="matrix(1 0 0 1 815 215)" class="st7 st2 st3">I</text>
<text transform="matrix(1 0 0 1 732.9 214.5)" class="st7 st12 st3">Bernado</text>
<text transform="matrix(1 0 0 1 781.7 214.5)" class="st7 st12 st3">t</text>
<text transform="matrix(1 0 0 1 786.8 214.5)" class="st7 st12 st3">te</text>
<line class="st13" x1="802.5" y1="217.6" x2="832.5" y2="202.6"/>
<text transform="matrix(1 0 0 1 650.1 417.5)" class="st7 st2 st3">XXX</text>
<rect x="642.5" y="418.9" class="st11" width="30" height="15"/>
<text transform="matrix(1 0 0 1 651.1 431.2)" class="st7 st2 st3">VI</text>
<text transform="matrix(1 0 0 1 614.9 430.8)" class="st7 st12 st3">Ney</text>
<line class="st13" x1="642.5" y1="433.9" x2="672.5" y2="418.9"/>
<text transform="matrix(1 0 0 1 803.6 424.1)" class="st14 st2 st3">XXX</text>
<rect x="796" y="425.5" class="st15" width="30" height="15"/>
<text transform="matrix(1 0 0 1 831.7 437.4)" class="st14 st12 st3">Mack</text>
<line class="st13" x1="796" y1="440.5" x2="826" y2="425.5"/>
<text transform="matrix(1 0 0 1 924.7 515.2)" class="st14 st2 st3">XX</text>
<rect x="914.6" y="516.7" class="st15" width="30" height="15"/>
<text transform="matrix(1 0 0 1 949.9 528.5)" class="st14 st12 st3">Hiller</text>
<line class="st13" x1="914.6" y1="531.7" x2="944.6" y2="516.7"/>
<text transform="matrix(1 0 0 1 912.6 598.3)" class="st14 st2 st3">XXX</text>
<rect x="905" y="599.7" class="st15" width="30" height="15"/>
<text transform="matrix(1 0 0 1 940.3 611.6)" class="st14 st12 st3">Charles</text>
<line class="st13" x1="905" y1="614.7" x2="935" y2="599.7"/>
<text transform="matrix(1 0 0 1 926.8 447.9)" class="st14 st2 st3">XX</text>
<rect x="916.8" y="449.3" class="st15" width="30" height="15"/>
<text transform="matrix(1 0 0 1 952 461.2)" class="st14 st12 st3">Gyulai</text>
<line class="st13" x1="916.8" y1="464.3" x2="946.8" y2="449.3"/>
<text transform="matrix(1 0 0 1 1150.8 430.8)" class="st14 st2 st3">XXX</text>
<rect x="1143.1" y="432.2" class="st15" width="30" height="15"/>
<text transform="matrix(1 0 0 1 1178.4 444.1)" class="st14 st12 st3">Ferdinand</text>
<line class="st13" x1="1143.1" y1="447.2" x2="1173.1" y2="432.2"/>
<text transform="matrix(1 0 0 1 930.2 375.6)" class="st14 st2 st3">XXXX</text>
<rect x="925.1" y="377" class="st15" width="30" height="15"/>
<text transform="matrix(1 0 0 1 960.3 388.9)" class="st14 st12 st3">Kienmayer</text>
<line class="st13" x1="925.1" y1="392" x2="955.1" y2="377"/>
<text transform="matrix(1 0 0 1 910.7 408.9)" class="st14 st2 st3">XX</text>
<rect x="900.6" y="410.3" class="st15" width="30" height="15"/>
<text transform="matrix(1 0 0 1 933.9 422.2)" class="st14 st12 st3">Go</text>
<text transform="matrix(1 0 0 1 949.8 422.2)" class="st14 st12 st3">t</text>
<text transform="matrix(1 0 0 1 954.9 422.2)" class="st14 st12 st3">tesheim</text>
<line class="st13" x1="900.6" y1="425.3" x2="930.6" y2="410.3"/>
<text transform="matrix(1 0 0 1 865.2 471.6)" class="st14 st2 st3">XX</text>
<rect x="855.1" y="473" class="st15" width="30" height="15"/>
<text transform="matrix(1 0 0 1 890.3 484.9)" class="st14 st12 st3">Klenau</text>
<line class="st13" x1="855.1" y1="488" x2="885.1" y2="473"/>
<text transform="matrix(1 0 0 1 815.5 491.6)" class="st14 st2 st3">XXX</text>
<rect x="807.9" y="493" class="st15" width="30" height="15"/>
<text transform="matrix(1 0 0 1 844.2 504.9)" class="st14 st12 st3">John</text>
<line class="st13" x1="807.9" y1="508" x2="837.9" y2="493"/>
<text transform="matrix(1 0 0 1 962.9 430.9)" class="st14 st2 st3">XX</text>
<rect x="952.8" y="432.3" class="st15" width="30" height="15"/>
<text transform="matrix(1 0 0 1 988.1 444.2)" class="st14 st12 st3">Riesch</text>
<line class="st13" x1="952.8" y1="447.3" x2="982.8" y2="432.3"/>
<text transform="matrix(1 0 0 1 813.1 448.3)" class="st14 st2 st3">XX</text>
<line class="st13" x1="803" y1="464.7" x2="833" y2="449.7"/>
<rect x="803" y="449.7" class="st15" width="30" height="15"/>
<text transform="matrix(1 0 0 1 839.2 461.6)" class="st14 st12 st3">Jellachich</text>
</svg>
