<?xml version="1.0" encoding="utf-8"?>
<!-- Generator: Adobe Illustrator 21.1.0, SVG Export Plug-In . SVG Version: 6.00 Build 0)  -->
<svg version="1.1" id="Troops" xmlns="http://www.w3.org/2000/svg" xmlns:xlink="http://www.w3.org/1999/xlink" x="0px" y="0px"
	 viewBox="0 0 1440 910" style="enable-background:new 0 0 1440 910;" xml:space="preserve">
<style type="text/css">
	.st0{fill:#999999;}
	.st1{font-family:'DroidSans';}
	.st2{font-size:12px;}
	.st3{fill:none;stroke:#999999;stroke-width:10;stroke-linecap:round;}
	.st4{fill:none;stroke:#0072BB;stroke-width:3;stroke-linecap:round;}
	.st5{fill:none;stroke:#0072BB;stroke-width:3;stroke-linecap:round;stroke-linejoin:round;}
	.st6{fill:#0072BB;}
	.st7{fill:none;stroke:#999999;stroke-width:3;stroke-linecap:round;stroke-linejoin:round;}
	.st8{fill:none;stroke:#999999;stroke-width:10;stroke-linecap:round;stroke-linejoin:round;}
	.st9{fill:#FFFFFF;stroke:#0072BB;stroke-width:0.75;stroke-miterlimit:10;}
	.st10{font-family:'DroidSans-Bold';}
	.st11{fill:none;}
	.st12{fill:#ED2939;}
	.st13{fill:#FFFFFF;stroke:#ED2939;stroke-width:0.75;stroke-miterlimit:10;}
</style>
<text transform="matrix(1 0 0 1 359.8 263.8)" class="st0 st1 st2">Pont de Briques</text>
<path class="st3" d="M507,247.9L507,247.9"/>
<text transform="matrix(1 0 0 1 512.5 242.4)" class="st0 st1 st2">Bailleul</text>
<path class="st4" d="M495.5,243.3L495.5,243.3"/>
<path class="st5" d="M487.2,239.1l7.9,4"/>
<polygon class="st6" points="506.9,247.7 487.5,247.8 494.2,242.6 493,234.2 "/>
<path class="st3" d="M484.5,247L484.5,247"/>
<text transform="matrix(1 0 0 1 487.8 262)" class="st0 st1 st2">Saint-Omer</text>
<path class="st5" d="M461.9,247.7c0,0,6.5-1.4,9.8-1.4"/>
<polygon class="st6" points="484.4,246.8 466.3,253.5 470.8,246.4 466.7,238.9 "/>
<path id="Arras-2" class="st3" d="M508.9,280L508.9,280"/>
<text transform="matrix(1 0 0 1 514.4 292)" class="st0 st1 st2">Ar</text>
<text transform="matrix(1 0 0 1 526.5 292)" class="st0 st1 st2">r</text>
<text transform="matrix(1 0 0 1 531.2 292)" class="st0 st1 st2">as</text>
<path class="st5" d="M490.2,273.9c1.2,0.2,4,1.1,6.4,1.8h0.2"/>
<polygon class="st6" points="508.8,279.9 489.5,281 495.9,275.5 494.3,267.2 "/>
<path class="st3" d="M599.6,92.2L599.6,92.2"/>
<text transform="matrix(1 0 0 1 605.1 86.7)" class="st0 st1 st2">&apos;</text>
<text transform="matrix(1 0 0 1 608.1 86.7)" class="st0 st1 st2">t Zand</text>
<path class="st3" d="M827.2,125.8L827.2,125.8"/>
<text transform="matrix(1 0 0 1 830.7 120.3)" class="st0 st1 st2">Hanover</text>
<path class="st7" d="M1132.5,423L1132.5,423"/>
<path class="st8" d="M1132.5,423L1132.5,423"/>
<text transform="matrix(1 0 0 1 1134.7 418.1)" class="st0 st1 st2">Vienna</text>
<path class="st3" d="M1024.5,429.9L1024.5,429.9"/>
<text transform="matrix(1 0 0 1 1028.3 442.6)" class="st0 st1 st2">W</text>
<text transform="matrix(1 0 0 1 1038.7001 442.6)" class="st0 st1 st2">els</text>
<text transform="matrix(1 0 0 1 610.3 103.2)" class="st6 st1 st2">XXX</text>
<rect x="602.7" y="104.6" class="st9" width="30" height="15"/>
<text transform="matrix(1 0 0 1 612.9 116.9)" class="st6 st1 st2">II</text>
<text transform="matrix(1 0 0 1 543 116.5)" class="st6 st10 st2">Marmont</text>
<line class="st11" x1="602.7" y1="119.6" x2="632.7" y2="104.6"/>
<text transform="matrix(1 0 0 1 500.1 207.9)" class="st6 st1 st2">XXX</text>
<rect x="492.5" y="209.3" class="st9" width="30" height="15"/>
<text transform="matrix(1 0 0 1 446.3 221.2)" class="st6 st10 st2">Davout</text>
<text transform="matrix(1 0 0 1 500.4 221.6)" class="st6 st1 st2">III</text>
<line class="st11" x1="492.5" y1="224.3" x2="522.5" y2="209.3"/>
<text transform="matrix(1 0 0 1 557.1 258.7)" class="st6 st1 st2">XXX</text>
<rect x="549.5" y="260.1" class="st9" width="30" height="15"/>
<text transform="matrix(1 0 0 1 558.1 272.4)" class="st6 st1 st2">IV</text>
<text transform="matrix(1 0 0 1 515.1 272)" class="st6 st10 st2">Soult</text>
<line class="st11" x1="549.5" y1="275.1" x2="579.5" y2="260.1"/>
<text transform="matrix(1 0 0 1 1014.4 769.5)" class="st6 st1 st2">XXX</text>
<rect x="1006.8" y="770.9" class="st9" width="30" height="15"/>
<text transform="matrix(1 0 0 1 965 782.8)" class="st6 st10 st2">St. Cyr</text>
<line class="st11" x1="1006.8" y1="785.9" x2="1036.8" y2="770.9"/>
<text transform="matrix(1 0 0 1 433.7 237.7)" class="st6 st1 st2">XXXX</text>
<rect x="428.5" y="239.1" class="st9" width="30" height="15"/>
<text transform="matrix(1 0 0 1 367.6 251)" class="st6 st10 st2">Napoleon</text>
<line class="st11" x1="428.5" y1="254.1" x2="458.5" y2="239.1"/>
<text transform="matrix(1 0 0 1 871.3 447.4)" class="st6 st1 st2">XXX</text>
<rect x="863.7" y="448.8" class="st9" width="30" height="15"/>
<text transform="matrix(1 0 0 1 801.9 460.7)" class="st6 st10 st2">Bavarians</text>
<line class="st11" x1="863.7" y1="463.8" x2="893.7" y2="448.8"/>
<text transform="matrix(1 0 0 1 800.1 100.2)" class="st6 st1 st2">XXX</text>
<rect x="792.5" y="101.6" class="st9" width="30" height="15"/>
<text transform="matrix(1 0 0 1 805 114)" class="st6 st1 st2">I</text>
<text transform="matrix(1 0 0 1 722.9 113.5)" class="st6 st10 st2">Bernado</text>
<text transform="matrix(1 0 0 1 771.7 113.5)" class="st6 st10 st2">t</text>
<text transform="matrix(1 0 0 1 776.8 113.5)" class="st6 st10 st2">te</text>
<line class="st11" x1="792.5" y1="116.6" x2="822.5" y2="101.6"/>
<text transform="matrix(1 0 0 1 510.6 302.5)" class="st6 st1 st2">XXX</text>
<rect x="503" y="303.9" class="st9" width="30" height="15"/>
<text transform="matrix(1 0 0 1 511.6 316.2)" class="st6 st1 st2">VI</text>
<text transform="matrix(1 0 0 1 475.4 315.8)" class="st6 st10 st2">Ney</text>
<line class="st11" x1="503" y1="318.9" x2="533" y2="303.9"/>
<text transform="matrix(1 0 0 1 1150.8 456.1)" class="st12 st1 st2">XXX</text>
<rect x="1143.1" y="457.5" class="st13" width="30" height="15"/>
<text transform="matrix(1 0 0 1 1178.4 469.4)" class="st12 st10 st2">Mack</text>
<line class="st11" x1="1143.1" y1="472.5" x2="1173.1" y2="457.5"/>
<text transform="matrix(1 0 0 1 924.7 515.2)" class="st12 st1 st2">XX</text>
<rect x="914.6" y="516.7" class="st13" width="30" height="15"/>
<text transform="matrix(1 0 0 1 949.9 528.5)" class="st12 st10 st2">Hiller</text>
<line class="st11" x1="914.6" y1="531.7" x2="944.6" y2="516.7"/>
<text transform="matrix(1 0 0 1 1062.6 578.3)" class="st12 st1 st2">XXX</text>
<rect x="1055" y="579.7" class="st13" width="30" height="15"/>
<text transform="matrix(1 0 0 1 1090.3 591.6)" class="st12 st10 st2">Charles</text>
<line class="st11" x1="1055" y1="594.7" x2="1085" y2="579.7"/>
<text transform="matrix(1 0 0 1 1150.8 430.8)" class="st12 st1 st2">XXX</text>
<rect x="1143.1" y="432.2" class="st13" width="30" height="15"/>
<text transform="matrix(1 0 0 1 1178.4 444.1)" class="st12 st10 st2">Ferdinand</text>
<line class="st11" x1="1143.1" y1="447.2" x2="1173.1" y2="432.2"/>
<text transform="matrix(1 0 0 1 1064.3 479.1)" class="st12 st1 st2">XX</text>
<rect x="1054.2" y="480.5" class="st13" width="30" height="15"/>
<text transform="matrix(1 0 0 1 1087.4 492.4)" class="st12 st10 st2">Go</text>
<text transform="matrix(1 0 0 1 1103.3 492.4)" class="st12 st10 st2">t</text>
<text transform="matrix(1 0 0 1 1108.4 492.4)" class="st12 st10 st2">tesheim</text>
<line class="st11" x1="1054.2" y1="495.5" x2="1084.2" y2="480.5"/>
<text transform="matrix(1 0 0 1 1019.2 380.6)" class="st12 st1 st2">XX</text>
<rect x="1009.1" y="382" class="st13" width="30" height="15"/>
<text transform="matrix(1 0 0 1 1044.3 393.9)" class="st12 st10 st2">Klenau</text>
<line class="st11" x1="1009.1" y1="397" x2="1039.1" y2="382"/>
<text transform="matrix(1 0 0 1 815.5 491.6)" class="st12 st1 st2">XXX</text>
<rect x="807.9" y="493" class="st13" width="30" height="15"/>
<text transform="matrix(1 0 0 1 844.2 504.9)" class="st12 st10 st2">John</text>
<line class="st11" x1="807.9" y1="508" x2="837.9" y2="493"/>
<text transform="matrix(1 0 0 1 873.1 476.3)" class="st12 st1 st2">XX</text>
<line class="st11" x1="863" y1="492.7" x2="893" y2="477.7"/>
<rect x="863" y="477.7" class="st13" width="30" height="15"/>
<text transform="matrix(1 0 0 1 899.2 489.6)" class="st12 st10 st2">Jellachich</text>
</svg>
