<?xml version="1.0" encoding="utf-8"?>
<!-- Generator: Adobe Illustrator 21.1.0, SVG Export Plug-In . SVG Version: 6.00 Build 0)  -->
<svg version="1.1" id="Troops" xmlns="http://www.w3.org/2000/svg" xmlns:xlink="http://www.w3.org/1999/xlink" x="0px" y="0px"
	 viewBox="0 0 1440 910" style="enable-background:new 0 0 1440 910;" xml:space="preserve">
<style type="text/css">
	.st0{fill:none;stroke:#003A9E;stroke-width:10;stroke-linecap:round;}
	.st1{fill:#003A9E;}
	.st2{font-family:'DroidSans';}
	.st3{font-size:12px;}
	.st4{fill:none;stroke:#999999;stroke-width:10;stroke-linecap:round;}
	.st5{fill:none;stroke:#999999;stroke-width:10;stroke-linecap:round;stroke-linejoin:round;}
	.st6{fill:#999999;}
	.st7{fill:none;stroke:#0072BB;stroke-width:3;stroke-linecap:round;stroke-linejoin:round;}
	.st8{fill:#0072BB;}
	.st9{fill:none;stroke:#999999;stroke-width:3;stroke-linecap:round;}
	.st10{fill:none;stroke:#F23A33;stroke-width:3;stroke-linecap:round;}
	.st11{fill:none;stroke:#F23A33;stroke-width:3;stroke-linecap:round;stroke-linejoin:round;}
	.st12{fill:none;stroke:#999999;stroke-width:3;stroke-linecap:round;stroke-linejoin:round;}
	.st13{fill:#FFFFFF;stroke:#0072BB;stroke-width:0.75;stroke-miterlimit:10;}
	.st14{font-family:'DroidSans-Bold';}
	.st15{fill:none;}
	.st16{fill:#ED2939;}
	.st17{fill:#FFFFFF;stroke:#ED2939;stroke-width:0.75;stroke-miterlimit:10;}
</style>
<path class="st0" d="M837.3,316.3L837.3,316.3"/>
<text transform="matrix(1 0 0 1 843.4 310.2)" class="st1 st2 st3">W</text>
<text transform="matrix(1 0 0 1 853.9 310.2)" class="st1 st2 st3">ürzbu</text>
<text transform="matrix(1 0 0 1 885.1 310.2)" class="st1 st2 st3">r</text>
<text transform="matrix(1 0 0 1 889.8 310.2)" class="st1 st2 st3">g</text>
<path class="st4" d="M837.3,316.3L837.3,316.3"/>
<path id="Saint_Cloud-26" class="st5" d="M482.6,382.5L482.6,382.5"/>
<text transform="matrix(1 0 0 1 484.8 397.2)" class="st6 st2 st3">Saint-Cloud</text>
<path class="st4" d="M662.8,328.6L662.8,328.6"/>
<text transform="matrix(1 0 0 1 670.3 332.1)" class="st6 st2 st3">Luxembou</text>
<text transform="matrix(1 0 0 1 727.5 332.1)" class="st6 st2 st3">r</text>
<text transform="matrix(1 0 0 1 732.1 332.1)" class="st6 st2 st3">g</text>
<path class="st7" d="M636.1,323.2l14.2,2.2"/>
<polygon class="st8" points="662.7,328.5 643.5,331.5 649.4,325.3 646.9,317.2 "/>
<path class="st4" d="M664.7,363.4L664.7,363.4"/>
<text transform="matrix(1 0 0 1 672 375.7)" class="st6 st2 st3">Metz</text>
<path class="st9" d="M651.4,364.9L651.4,364.9"/>
<path class="st7" d="M640.1,364.9h12"/>
<polygon class="st8" points="664.7,363.4 647.7,372.6 651.2,364.9 646.1,358.1 "/>
<path id="Ligney_en_Barrois-3" class="st4" d="M625.9,393.4L625.9,393.4"/>
<text transform="matrix(1 0 0 1 634 407.8)" class="st6 st2 st3">Ligny-en-Barrois</text>
<path class="st4" d="M688.4,213.9L688.4,213.9"/>
<text transform="matrix(1 0 0 1 693.9 208.3)" class="st6 st2 st3">Neuss</text>
<path class="st9" d="M683.7,204L683.7,204"/>
<path class="st7" d="M675.8,190.2c0.8,0.5,5.1,8.5,7,12.1"/>
<polygon class="st8" points="688.1,213.9 673.9,200.7 682.3,201.5 687.2,194.5 "/>
<path class="st4" d="M837.2,189.3L837.2,189.3"/>
<text transform="matrix(1 0 0 1 846.6 189.3)" class="st6 st2 st3">Gö</text>
<text transform="matrix(1 0 0 1 861.8 189.3)" class="st6 st2 st3">t</text>
<text transform="matrix(1 0 0 1 866 189.3)" class="st6 st2 st3">tingen</text>
<path class="st10" d="M997.3,406.2L997.3,406.2"/>
<path class="st10" d="M981.5,408.7L981.5,408.7"/>
<path id="FML_Kienmeyer" class="st11" d="M997.3,406.2l-4.6-0.6c-0.8,0-4,1-4.9,1.1c-2.2,0.5-4.4,1.2-6.4,2.3"/>
<path class="st12" d="M1132.5,423L1132.5,423"/>
<path class="st5" d="M1132.5,423L1132.5,423"/>
<text transform="matrix(1 0 0 1 1134.7 418.1)" class="st6 st2 st3">Vienna</text>
<path class="st12" d="M1132.5,423L1132.5,423"/>
<text transform="matrix(1 0 0 1 691.3 175.2)" class="st8 st2 st3">XXX</text>
<rect x="683.7" y="176.6" class="st13" width="30" height="15"/>
<text transform="matrix(1 0 0 1 693.9 188.9)" class="st8 st2 st3">II</text>
<text transform="matrix(1 0 0 1 624 188.5)" class="st8 st14 st3">Marmont</text>
<line class="st15" x1="683.7" y1="191.6" x2="713.7" y2="176.6"/>
<text transform="matrix(1 0 0 1 681.4 342)" class="st8 st2 st3">XXX</text>
<rect x="673.7" y="343.4" class="st13" width="30" height="15"/>
<text transform="matrix(1 0 0 1 627.6 355.3)" class="st8 st14 st3">Davout</text>
<text transform="matrix(1 0 0 1 681.6 355.7)" class="st8 st2 st3">III</text>
<line class="st15" x1="673.7" y1="358.4" x2="703.7" y2="343.4"/>
<text transform="matrix(1 0 0 1 705.9 378.3)" class="st8 st2 st3">XXX</text>
<rect x="698.3" y="379.7" class="st13" width="30" height="15"/>
<text transform="matrix(1 0 0 1 707 392)" class="st8 st2 st3">IV</text>
<text transform="matrix(1 0 0 1 663.9 391.6)" class="st8 st14 st3">Soult</text>
<line class="st15" x1="698.3" y1="394.7" x2="728.3" y2="379.7"/>
<text transform="matrix(1 0 0 1 948.4 697.7)" class="st8 st2 st3">XXX</text>
<rect x="940.8" y="699.2" class="st13" width="30" height="15"/>
<text transform="matrix(1 0 0 1 899 711)" class="st8 st14 st3">St. Cyr</text>
<line class="st15" x1="940.8" y1="714.2" x2="970.8" y2="699.2"/>
<text transform="matrix(1 0 0 1 806 606.4)" class="st8 st2 st3">XXXX</text>
<rect x="800.8" y="607.8" class="st13" width="30" height="15"/>
<text transform="matrix(1 0 0 1 809.4 620.1)" class="st8 st2 st3">VI</text>
<text transform="matrix(1 0 0 1 745.3 619.7)" class="st8 st14 st3">Masséna</text>
<line class="st15" x1="800.8" y1="622.8" x2="830.8" y2="607.8"/>
<text transform="matrix(1 0 0 1 488.9 409.6)" class="st8 st2 st3">XXXX</text>
<rect x="483.8" y="411" class="st13" width="30" height="15"/>
<text transform="matrix(1 0 0 1 422.9 422.9)" class="st8 st14 st3">Napoleon</text>
<line class="st15" x1="483.8" y1="426" x2="513.8" y2="411"/>
<text transform="matrix(1 0 0 1 850.5 295.1)" class="st8 st2 st3">XXX</text>
<rect x="842.9" y="296.5" class="st13" width="30" height="15"/>
<text transform="matrix(1 0 0 1 781.1 308.4)" class="st8 st14 st3">Bavarians</text>
<line class="st15" x1="842.9" y1="311.5" x2="872.9" y2="296.5"/>
<text transform="matrix(1 0 0 1 810.1 169.2)" class="st8 st2 st3">XXX</text>
<rect x="802.5" y="170.6" class="st13" width="30" height="15"/>
<text transform="matrix(1 0 0 1 815 183)" class="st8 st2 st3">I</text>
<text transform="matrix(1 0 0 1 732.9 182.5)" class="st8 st14 st3">Bernado</text>
<text transform="matrix(1 0 0 1 781.7 182.5)" class="st8 st14 st3">t</text>
<text transform="matrix(1 0 0 1 786.8 182.5)" class="st8 st14 st3">te</text>
<line class="st15" x1="802.5" y1="185.6" x2="832.5" y2="170.6"/>
<text transform="matrix(1 0 0 1 652.6 420.5)" class="st8 st2 st3">XXX</text>
<rect x="645" y="421.9" class="st13" width="30" height="15"/>
<text transform="matrix(1 0 0 1 653.6 434.2)" class="st8 st2 st3">VI</text>
<text transform="matrix(1 0 0 1 617.4 433.8)" class="st8 st14 st3">Ney</text>
<line class="st15" x1="645" y1="436.9" x2="675" y2="421.9"/>
<text transform="matrix(1 0 0 1 821.6 414.1)" class="st16 st2 st3">XXX</text>
<rect x="814" y="415.5" class="st17" width="30" height="15"/>
<text transform="matrix(1 0 0 1 849.7 427.4)" class="st16 st14 st3">Mack</text>
<line class="st15" x1="814" y1="430.5" x2="844" y2="415.5"/>
<text transform="matrix(1 0 0 1 924.7 515.2)" class="st16 st2 st3">XX</text>
<rect x="914.6" y="516.7" class="st17" width="30" height="15"/>
<text transform="matrix(1 0 0 1 949.9 528.5)" class="st16 st14 st3">Hiller</text>
<line class="st15" x1="914.6" y1="531.7" x2="944.6" y2="516.7"/>
<text transform="matrix(1 0 0 1 962.6 588.3)" class="st16 st2 st3">XXX</text>
<rect x="955" y="589.7" class="st17" width="30" height="15"/>
<text transform="matrix(1 0 0 1 990.3 601.6)" class="st16 st14 st3">Charles</text>
<line class="st15" x1="955" y1="604.7" x2="985" y2="589.7"/>
<text transform="matrix(1 0 0 1 984.5 456.9)" class="st16 st2 st3">XX</text>
<rect x="974.4" y="458.4" class="st17" width="30" height="15"/>
<text transform="matrix(1 0 0 1 1009.7 470.2)" class="st16 st14 st3">Gyulai</text>
<line class="st15" x1="974.4" y1="473.4" x2="1004.4" y2="458.4"/>
<text transform="matrix(1 0 0 1 1150.8 430.8)" class="st16 st2 st3">XXX</text>
<rect x="1143.1" y="432.2" class="st17" width="30" height="15"/>
<text transform="matrix(1 0 0 1 1178.4 444.1)" class="st16 st14 st3">Ferdinand</text>
<line class="st15" x1="1143.1" y1="447.2" x2="1173.1" y2="432.2"/>
<text transform="matrix(1 0 0 1 982.8 393.7)" class="st16 st2 st3">XXX</text>
<rect x="975.2" y="395.1" class="st17" width="30" height="15"/>
<text transform="matrix(1 0 0 1 1010.4 407)" class="st16 st14 st3">Kienmayer</text>
<line class="st15" x1="975.2" y1="410.1" x2="1005.2" y2="395.1"/>
<text transform="matrix(1 0 0 1 910.7 406.9)" class="st16 st2 st3">XX</text>
<rect x="900.6" y="408.3" class="st17" width="30" height="15"/>
<text transform="matrix(1 0 0 1 933.9 420.2)" class="st16 st14 st3">Go</text>
<text transform="matrix(1 0 0 1 949.8 420.2)" class="st16 st14 st3">t</text>
<text transform="matrix(1 0 0 1 954.9 420.2)" class="st16 st14 st3">tesheim</text>
<line class="st15" x1="900.6" y1="423.3" x2="930.6" y2="408.3"/>
<text transform="matrix(1 0 0 1 905.2 440.6)" class="st16 st2 st3">XX</text>
<rect x="895.1" y="442" class="st17" width="30" height="15"/>
<text transform="matrix(1 0 0 1 930.3 453.9)" class="st16 st14 st3">Klenau</text>
<line class="st15" x1="895.1" y1="457" x2="925.1" y2="442"/>
<text transform="matrix(1 0 0 1 815.5 491.6)" class="st16 st2 st3">XXX</text>
<rect x="807.9" y="493" class="st17" width="30" height="15"/>
<text transform="matrix(1 0 0 1 844.2 504.9)" class="st16 st14 st3">John</text>
<line class="st15" x1="807.9" y1="508" x2="837.9" y2="493"/>
<text transform="matrix(1 0 0 1 964.4 428.7)" class="st16 st2 st3">XX</text>
<rect x="954.3" y="430.1" class="st17" width="30" height="15"/>
<text transform="matrix(1 0 0 1 989.6 442)" class="st16 st14 st3">Riesch</text>
<line class="st15" x1="954.3" y1="445.1" x2="984.3" y2="430.1"/>
<text transform="matrix(1 0 0 1 813.1 441.3)" class="st16 st2 st3">XX</text>
<line class="st15" x1="803" y1="457.7" x2="833" y2="442.7"/>
<rect x="803" y="442.7" class="st17" width="30" height="15"/>
<text transform="matrix(1 0 0 1 839.2 454.6)" class="st16 st14 st3">Jellachich</text>
</svg>
