<?xml version="1.0" encoding="utf-8"?>
<!-- Generator: Adobe Illustrator 21.1.0, SVG Export Plug-In . SVG Version: 6.00 Build 0)  -->
<svg version="1.1" id="Troops" xmlns="http://www.w3.org/2000/svg" xmlns:xlink="http://www.w3.org/1999/xlink" x="0px" y="0px"
	 viewBox="0 0 1440 910" style="enable-background:new 0 0 1440 910;" xml:space="preserve">
<style type="text/css">
	.st0{fill:none;stroke:#999999;stroke-width:10;stroke-linecap:round;stroke-linejoin:round;}
	.st1{fill:#999999;}
	.st2{font-family:'DroidSans';}
	.st3{font-size:12px;}
	.st4{fill:none;stroke:#999999;stroke-width:10;stroke-linecap:round;}
	.st5{fill:none;stroke:#999999;stroke-width:3;stroke-linecap:round;}
	.st6{fill:none;stroke:#0072BB;stroke-width:3;stroke-linecap:round;stroke-linejoin:round;}
	.st7{fill:#0072BB;}
	.st8{fill:none;stroke:#ED2939;stroke-width:10;stroke-linecap:round;}
	.st9{fill:#ED2939;}
	.st10{fill:none;stroke:#999999;stroke-width:3;stroke-linecap:round;stroke-linejoin:round;}
	.st11{fill:#FFFFFF;stroke:#0072BB;stroke-width:0.75;stroke-miterlimit:10;}
	.st12{font-family:'DroidSans-Bold';}
	.st13{fill:none;}
	.st14{fill:#FFFFFF;stroke:#ED2939;stroke-width:0.75;stroke-miterlimit:10;}
</style>
<path id="Saint_Cloud-24" class="st0" d="M482.6,382.5L482.6,382.5"/>
<text transform="matrix(1 0 0 1 484.8 397.2)" class="st1 st2 st3">Saint-Cloud</text>
<path class="st4" d="M664.6,346.5L664.6,346.5"/>
<text transform="matrix(1 0 0 1 670.1 341)" class="st1 st2 st3">Thionville</text>
<path class="st5" d="M662.8,328.6L662.8,328.6"/>
<path class="st6" d="M661.7,326.5c0.4,0.7,2.3,4.6,3.4,7.3"/>
<polygon class="st7" points="664.3,346.5 657.1,328.5 664.4,332.8 671.7,328.6 "/>
<text transform="matrix(1 0 0 1 673 380.7)" class="st1 st2 st3">Metz</text>
<path id="Ligney_en_Barrois-2" class="st4" d="M639.1,393.3L639.1,393.3"/>
<text transform="matrix(1 0 0 1 645.7 408.4)" class="st1 st2 st3">V</text>
<text transform="matrix(1 0 0 1 652.2 408.4)" class="st1 st2 st3">oid-</text>
<text transform="matrix(1 0 0 1 673.1 408.4)" class="st1 st2 st3">V</text>
<text transform="matrix(1 0 0 1 679.5 408.4)" class="st1 st2 st3">acon</text>
<path class="st6" d="M611.6,386.1c1.2,0.1,8.6,2.3,15.1,4.3"/>
<polygon class="st7" points="639.1,393.1 620.1,396.4 625.8,390.1 623.2,382.1 "/>
<path class="st4" d="M688.4,213.9L688.4,213.9"/>
<text transform="matrix(1 0 0 1 693.9 208.3)" class="st1 st2 st3">Neuss</text>
<path class="st4" d="M825.2,198.1L825.2,198.1"/>
<text transform="matrix(1 0 0 1 831.8 211)" class="st1 st2 st3">Munden</text>
<path class="st5" d="M837.2,189.3L837.2,189.3"/>
<path class="st6" d="M847.3,179.3c-0.5,1.1-8.1,9-11.3,12.2"/>
<polygon class="st7" points="825.1,198.1 836.2,182.3 836.6,190.7 844.1,194.6 "/>
<path class="st8" d="M828.1,446.6L828.1,446.6"/>
<text transform="matrix(1 0 0 1 752.1 453.6)" class="st9 st2 st3">Bad </text>
<text transform="matrix(1 0 0 1 776.1 453.6)" class="st9 st2 st3">W</text>
<text transform="matrix(1 0 0 1 786.4 453.6)" class="st9 st2 st3">aldsee</text>
<path class="st10" d="M1132.5,423L1132.5,423"/>
<path class="st0" d="M1132.5,423L1132.5,423"/>
<text transform="matrix(1 0 0 1 1134.7 418.1)" class="st1 st2 st3">Vienna</text>
<path class="st10" d="M1132.5,423L1132.5,423"/>
<text transform="matrix(1 0 0 1 691.3 182.2)" class="st7 st2 st3">XXX</text>
<rect x="683.7" y="183.6" class="st11" width="30" height="15"/>
<text transform="matrix(1 0 0 1 693.9 195.9)" class="st7 st2 st3">II</text>
<text transform="matrix(1 0 0 1 624 195.5)" class="st7 st12 st3">Marmont</text>
<line class="st13" x1="683.7" y1="198.6" x2="713.7" y2="183.6"/>
<text transform="matrix(1 0 0 1 687.4 312)" class="st7 st2 st3">XXX</text>
<rect x="679.7" y="313.4" class="st11" width="30" height="15"/>
<text transform="matrix(1 0 0 1 633.6 325.3)" class="st7 st12 st3">Davout</text>
<text transform="matrix(1 0 0 1 687.6 325.7)" class="st7 st2 st3">III</text>
<line class="st13" x1="679.7" y1="328.4" x2="709.7" y2="313.4"/>
<text transform="matrix(1 0 0 1 679.9 352.3)" class="st7 st2 st3">XXX</text>
<rect x="672.3" y="353.7" class="st11" width="30" height="15"/>
<text transform="matrix(1 0 0 1 681 366)" class="st7 st2 st3">IV</text>
<text transform="matrix(1 0 0 1 637.9 365.6)" class="st7 st12 st3">Soult</text>
<line class="st13" x1="672.3" y1="368.7" x2="702.3" y2="353.7"/>
<text transform="matrix(1 0 0 1 943.4 693.3)" class="st7 st2 st3">XXX</text>
<rect x="935.8" y="694.7" class="st11" width="30" height="15"/>
<text transform="matrix(1 0 0 1 894 706.6)" class="st7 st12 st3">St. Cyr</text>
<line class="st13" x1="935.8" y1="709.7" x2="965.8" y2="694.7"/>
<text transform="matrix(1 0 0 1 806 606.4)" class="st7 st2 st3">XXXX</text>
<rect x="800.8" y="607.8" class="st11" width="30" height="15"/>
<text transform="matrix(1 0 0 1 809.4 620.1)" class="st7 st2 st3">VI</text>
<text transform="matrix(1 0 0 1 745.3 619.7)" class="st7 st12 st3">Masséna</text>
<line class="st13" x1="800.8" y1="622.8" x2="830.8" y2="607.8"/>
<text transform="matrix(1 0 0 1 488.9 409.6)" class="st7 st2 st3">XXXX</text>
<rect x="483.8" y="411" class="st11" width="30" height="15"/>
<text transform="matrix(1 0 0 1 422.9 422.9)" class="st7 st12 st3">Napoleon</text>
<line class="st13" x1="483.8" y1="426" x2="513.8" y2="411"/>
<text transform="matrix(1 0 0 1 850.5 295.1)" class="st7 st2 st3">XXX</text>
<rect x="842.9" y="296.5" class="st11" width="30" height="15"/>
<text transform="matrix(1 0 0 1 781.1 308.4)" class="st7 st12 st3">Bavarians</text>
<line class="st13" x1="842.9" y1="311.5" x2="872.9" y2="296.5"/>
<text transform="matrix(1 0 0 1 807.1 173.2)" class="st7 st2 st3">XXX</text>
<rect x="799.5" y="174.6" class="st11" width="30" height="15"/>
<text transform="matrix(1 0 0 1 812 187)" class="st7 st2 st3">I</text>
<text transform="matrix(1 0 0 1 729.9 186.5)" class="st7 st12 st3">Bernado</text>
<text transform="matrix(1 0 0 1 778.7 186.5)" class="st7 st12 st3">t</text>
<text transform="matrix(1 0 0 1 783.8 186.5)" class="st7 st12 st3">te</text>
<line class="st13" x1="799.5" y1="189.6" x2="829.5" y2="174.6"/>
<text transform="matrix(1 0 0 1 649.6 419.5)" class="st7 st2 st3">XXX</text>
<rect x="642" y="420.9" class="st11" width="30" height="15"/>
<text transform="matrix(1 0 0 1 650.6 433.2)" class="st7 st2 st3">VI</text>
<text transform="matrix(1 0 0 1 614.4 432.8)" class="st7 st12 st3">Ney</text>
<line class="st13" x1="642" y1="435.9" x2="672" y2="420.9"/>
<text transform="matrix(1 0 0 1 821.6 411.1)" class="st9 st2 st3">XXX</text>
<rect x="814" y="412.5" class="st14" width="30" height="15"/>
<text transform="matrix(1 0 0 1 849.7 424.4)" class="st9 st12 st3">Mack</text>
<line class="st13" x1="814" y1="427.5" x2="844" y2="412.5"/>
<text transform="matrix(1 0 0 1 924.7 515.2)" class="st9 st2 st3">XX</text>
<rect x="914.6" y="516.7" class="st14" width="30" height="15"/>
<text transform="matrix(1 0 0 1 949.9 528.5)" class="st9 st12 st3">Hiller</text>
<line class="st13" x1="914.6" y1="531.7" x2="944.6" y2="516.7"/>
<text transform="matrix(1 0 0 1 942.6 588.3)" class="st9 st2 st3">XXX</text>
<rect x="935" y="589.7" class="st14" width="30" height="15"/>
<text transform="matrix(1 0 0 1 970.3 601.6)" class="st9 st12 st3">Charles</text>
<line class="st13" x1="935" y1="604.7" x2="965" y2="589.7"/>
<text transform="matrix(1 0 0 1 984.5 447.9)" class="st9 st2 st3">XX</text>
<rect x="974.4" y="449.4" class="st14" width="30" height="15"/>
<text transform="matrix(1 0 0 1 1009.7 461.2)" class="st9 st12 st3">Gyulai</text>
<line class="st13" x1="974.4" y1="464.4" x2="1004.4" y2="449.4"/>
<text transform="matrix(1 0 0 1 1150.8 430.8)" class="st9 st2 st3">XXX</text>
<rect x="1143.1" y="432.2" class="st14" width="30" height="15"/>
<text transform="matrix(1 0 0 1 1178.4 444.1)" class="st9 st12 st3">Ferdinand</text>
<line class="st13" x1="1143.1" y1="447.2" x2="1173.1" y2="432.2"/>
<text transform="matrix(1 0 0 1 952.8 391.4)" class="st9 st2 st3">XXX</text>
<rect x="945.2" y="392.8" class="st14" width="30" height="15"/>
<text transform="matrix(1 0 0 1 980.4 404.7)" class="st9 st12 st3">Kienmayer</text>
<line class="st13" x1="945.2" y1="407.8" x2="975.2" y2="392.8"/>
<text transform="matrix(1 0 0 1 910.7 368.9)" class="st9 st2 st3">XX</text>
<rect x="900.6" y="370.3" class="st14" width="30" height="15"/>
<text transform="matrix(1 0 0 1 933.9 382.2)" class="st9 st12 st3">Go</text>
<text transform="matrix(1 0 0 1 949.8 382.2)" class="st9 st12 st3">t</text>
<text transform="matrix(1 0 0 1 954.9 382.2)" class="st9 st12 st3">tesheim</text>
<line class="st13" x1="900.6" y1="385.3" x2="930.6" y2="370.3"/>
<text transform="matrix(1 0 0 1 905.2 440.6)" class="st9 st2 st3">XX</text>
<rect x="895.1" y="442" class="st14" width="30" height="15"/>
<text transform="matrix(1 0 0 1 930.3 453.9)" class="st9 st12 st3">Klenau</text>
<line class="st13" x1="895.1" y1="457" x2="925.1" y2="442"/>
<text transform="matrix(1 0 0 1 815.5 491.6)" class="st9 st2 st3">XXX</text>
<rect x="807.9" y="493" class="st14" width="30" height="15"/>
<text transform="matrix(1 0 0 1 844.2 504.9)" class="st9 st12 st3">John</text>
<line class="st13" x1="807.9" y1="508" x2="837.9" y2="493"/>
<text transform="matrix(1 0 0 1 958.9 423.9)" class="st9 st2 st3">XX</text>
<rect x="948.8" y="425.3" class="st14" width="30" height="15"/>
<text transform="matrix(1 0 0 1 984.1 437.2)" class="st9 st12 st3">Riesch</text>
<line class="st13" x1="948.8" y1="440.3" x2="978.8" y2="425.3"/>
<text transform="matrix(1 0 0 1 813.1 441.3)" class="st9 st2 st3">XX</text>
<line class="st13" x1="803" y1="457.7" x2="833" y2="442.7"/>
<rect x="803" y="442.7" class="st14" width="30" height="15"/>
<text transform="matrix(1 0 0 1 839.2 454.6)" class="st9 st12 st3">Jellachich</text>
</svg>
