<?xml version="1.0" encoding="utf-8"?>
<!-- Generator: Adobe Illustrator 21.1.0, SVG Export Plug-In . SVG Version: 6.00 Build 0)  -->
<svg version="1.1" id="Troops" xmlns="http://www.w3.org/2000/svg" xmlns:xlink="http://www.w3.org/1999/xlink" x="0px" y="0px"
	 viewBox="0 0 1440 910" style="enable-background:new 0 0 1440 910;" xml:space="preserve">
<style type="text/css">
	.st0{fill:none;stroke:#999999;stroke-width:10;stroke-linecap:round;stroke-linejoin:round;}
	.st1{fill:#999999;}
	.st2{font-family:'DroidSans';}
	.st3{font-size:12px;}
	.st4{fill:none;stroke:#999999;stroke-width:10;stroke-linecap:round;}
	.st5{fill:none;stroke:#999999;stroke-width:3;stroke-linecap:round;}
	.st6{fill:none;stroke:#0072BB;stroke-width:3;stroke-linecap:round;stroke-linejoin:round;}
	.st7{fill:#0072BB;}
	.st8{fill:none;stroke:#0072BB;stroke-width:3;stroke-linejoin:round;}
	.st9{fill:none;stroke:#999999;stroke-width:3;stroke-linecap:round;stroke-linejoin:round;}
	.st10{fill:none;stroke:#ED2939;stroke-width:3;stroke-linecap:round;stroke-linejoin:round;}
	.st11{fill:#ED2939;}
	.st12{fill:#FFFFFF;stroke:#0072BB;stroke-width:0.75;stroke-miterlimit:10;}
	.st13{font-family:'DroidSans-Bold';}
	.st14{fill:none;}
	.st15{fill:#FFFFFF;stroke:#ED2939;stroke-width:0.75;stroke-miterlimit:10;}
</style>
<path id="Saint_Cloud-38" class="st0" d="M482.6,382.5L482.6,382.5"/>
<text transform="matrix(1 0 0 1 484.8 397.2)" class="st1 st2 st3">Saint-Cloud</text>
<path class="st4" d="M615.6,279.7L615.6,279.7"/>
<text transform="matrix(1 0 0 1 621.1 274.2)" class="st1 st2 st3">Ciney</text>
<path class="st5" d="M604.9,267.5L604.9,267.5"/>
<path class="st6" d="M594.7,257.5l12.9,12.4"/>
<polygon class="st7" points="615.6,279.7 598.5,270.7 606.8,269.2 609.7,261.3 "/>
<path class="st4" d="M598.1,318L598.1,318"/>
<text transform="matrix(1 0 0 1 605.5 321.4)" class="st1 st2 st3">Charleville-Mézières</text>
<path class="st5" d="M568.6,306.8L568.6,306.8"/>
<path class="st8" d="M568.6,306.8c0,0,2.3,3.1,3.2,3.2s5.4,1.2,6.1,0.9c1.2-0.5,2.6-0.7,3.9-0.7c1.7,0.4,3.3,1,4.9,1.6h0.3"/>
<polygon class="st7" points="598.1,318 578.8,316 586,311.6 585.7,303.1 "/>
<path id="Les_Petites-Loges-2" class="st4" d="M575.9,362.9L575.9,362.9"/>
<text transform="matrix(1 0 0 1 583.4 362.4)" class="st1 st2 st3">Les Petites-Loges</text>
<path class="st6" d="M559,343.8c0.4,0.2,5.2,5.1,8.8,9.2"/>
<polygon class="st7" points="575.9,362.8 558.8,353.8 567.2,352.3 570,344.4 "/>
<path class="st4" d="M621.9,159.1L621.9,159.1"/>
<text transform="matrix(1 0 0 1 629.1 153)" class="st1 st2 st3">Wijk bij Duurstede</text>
<path class="st5" d="M615.9,148.3L615.9,148.3"/>
<path class="st6" d="M607.9,136.1c0.5,0.5,6.6,10.1,7.8,11.9"/>
<polygon class="st7" points="621.9,159.1 606.7,147.2 615.2,147.2 619.5,139.9 "/>
<path class="st4" d="M837.2,189.3L837.2,189.3"/>
<text transform="matrix(1 0 0 1 846.6 189.3)" class="st1 st2 st3">Gö</text>
<text transform="matrix(1 0 0 1 861.8 189.3)" class="st1 st2 st3">t</text>
<text transform="matrix(1 0 0 1 866 189.3)" class="st1 st2 st3">tingen</text>
<path class="st9" d="M1132.5,423L1132.5,423"/>
<path class="st0" d="M1132.5,423L1132.5,423"/>
<text transform="matrix(1 0 0 1 1134.7 418.1)" class="st1 st2 st3">Vienna</text>
<path class="st9" d="M1132.5,423L1132.5,423"/>
<path class="st10" d="M976.7,416.1h0.2c2.5-0.5,4.9-1.1,7.3-1.9c2.2-0.7,4.8-3.5,5.4-3.8"/>
<polygon class="st11" points="964.1,417.5 982.7,422.7 977.7,416 981.1,408.2 "/>
<text transform="matrix(1 0 0 1 646.3 120.2)" class="st7 st2 st3">XXX</text>
<rect x="638.7" y="121.6" class="st12" width="30" height="15"/>
<text transform="matrix(1 0 0 1 648.9 133.9)" class="st7 st2 st3">II</text>
<text transform="matrix(1 0 0 1 579 133.5)" class="st7 st13 st3">Marmont</text>
<line class="st14" x1="638.7" y1="136.6" x2="668.7" y2="121.6"/>
<text transform="matrix(1 0 0 1 637.4 290)" class="st7 st2 st3">XXX</text>
<rect x="629.7" y="291.4" class="st12" width="30" height="15"/>
<text transform="matrix(1 0 0 1 583.6 303.3)" class="st7 st13 st3">Davout</text>
<text transform="matrix(1 0 0 1 637.6 303.7)" class="st7 st2 st3">III</text>
<line class="st14" x1="629.7" y1="306.4" x2="659.7" y2="291.4"/>
<text transform="matrix(1 0 0 1 609.9 330.3)" class="st7 st2 st3">XXX</text>
<rect x="602.3" y="331.7" class="st12" width="30" height="15"/>
<text transform="matrix(1 0 0 1 611 344)" class="st7 st2 st3">IV</text>
<text transform="matrix(1 0 0 1 567.9 343.6)" class="st7 st13 st3">Soult</text>
<line class="st14" x1="602.3" y1="346.7" x2="632.3" y2="331.7"/>
<text transform="matrix(1 0 0 1 978.4 724.6)" class="st7 st2 st3">XXX</text>
<rect x="970.8" y="726" class="st12" width="30" height="15"/>
<text transform="matrix(1 0 0 1 929 737.9)" class="st7 st13 st3">St. Cyr</text>
<line class="st14" x1="970.8" y1="741" x2="1000.8" y2="726"/>
<text transform="matrix(1 0 0 1 806 606.4)" class="st7 st2 st3">XXXX</text>
<rect x="800.8" y="607.8" class="st12" width="30" height="15"/>
<text transform="matrix(1 0 0 1 809.4 620.1)" class="st7 st2 st3">VI</text>
<text transform="matrix(1 0 0 1 745.3 619.7)" class="st7 st13 st3">Masséna</text>
<line class="st14" x1="800.8" y1="622.8" x2="830.8" y2="607.8"/>
<text transform="matrix(1 0 0 1 488.9 409.6)" class="st7 st2 st3">XXXX</text>
<rect x="483.8" y="411" class="st12" width="30" height="15"/>
<text transform="matrix(1 0 0 1 422.9 422.9)" class="st7 st13 st3">Napoleon</text>
<line class="st14" x1="483.8" y1="426" x2="513.8" y2="411"/>
<text transform="matrix(1 0 0 1 840.5 350.1)" class="st7 st2 st3">XXX</text>
<rect x="832.9" y="351.5" class="st12" width="30" height="15"/>
<text transform="matrix(1 0 0 1 771.1 363.4)" class="st7 st13 st3">Bavarians</text>
<line class="st14" x1="832.9" y1="366.5" x2="862.9" y2="351.5"/>
<text transform="matrix(1 0 0 1 850.1 159.2)" class="st7 st2 st3">XXX</text>
<rect x="842.5" y="160.6" class="st12" width="30" height="15"/>
<text transform="matrix(1 0 0 1 855 173)" class="st7 st2 st3">I</text>
<text transform="matrix(1 0 0 1 772.9 172.5)" class="st7 st13 st3">Bernado</text>
<text transform="matrix(1 0 0 1 821.7 172.5)" class="st7 st13 st3">t</text>
<text transform="matrix(1 0 0 1 826.8 172.5)" class="st7 st13 st3">te</text>
<line class="st14" x1="842.5" y1="175.6" x2="872.5" y2="160.6"/>
<text transform="matrix(1 0 0 1 594.6 374.5)" class="st7 st2 st3">XXX</text>
<rect x="587" y="375.9" class="st12" width="30" height="15"/>
<text transform="matrix(1 0 0 1 595.6 388.2)" class="st7 st2 st3">VI</text>
<text transform="matrix(1 0 0 1 559.4 387.8)" class="st7 st13 st3">Ney</text>
<line class="st14" x1="587" y1="390.9" x2="617" y2="375.9"/>
<text transform="matrix(1 0 0 1 1150.8 456.1)" class="st11 st2 st3">XXX</text>
<rect x="1143.1" y="457.5" class="st15" width="30" height="15"/>
<text transform="matrix(1 0 0 1 1178.4 469.4)" class="st11 st13 st3">Mack</text>
<line class="st14" x1="1143.1" y1="472.5" x2="1173.1" y2="457.5"/>
<text transform="matrix(1 0 0 1 924.7 515.2)" class="st11 st2 st3">XX</text>
<rect x="914.6" y="516.7" class="st15" width="30" height="15"/>
<text transform="matrix(1 0 0 1 949.9 528.5)" class="st11 st13 st3">Hiller</text>
<line class="st14" x1="914.6" y1="531.7" x2="944.6" y2="516.7"/>
<text transform="matrix(1 0 0 1 1062.6 578.3)" class="st11 st2 st3">XXX</text>
<rect x="1055" y="579.7" class="st15" width="30" height="15"/>
<text transform="matrix(1 0 0 1 1090.3 591.6)" class="st11 st13 st3">Charles</text>
<line class="st14" x1="1055" y1="594.7" x2="1085" y2="579.7"/>
<text transform="matrix(1 0 0 1 1150.8 430.8)" class="st11 st2 st3">XXX</text>
<rect x="1143.1" y="432.2" class="st15" width="30" height="15"/>
<text transform="matrix(1 0 0 1 1178.4 444.1)" class="st11 st13 st3">Ferdinand</text>
<line class="st14" x1="1143.1" y1="447.2" x2="1173.1" y2="432.2"/>
<text transform="matrix(1 0 0 1 1014.3 393.1)" class="st11 st2 st3">XX</text>
<rect x="1004.2" y="394.5" class="st15" width="30" height="15"/>
<text transform="matrix(1 0 0 1 931.4 406.4)" class="st11 st13 st3">Go</text>
<text transform="matrix(1 0 0 1 947.3 406.4)" class="st11 st13 st3">t</text>
<text transform="matrix(1 0 0 1 952.4 406.4)" class="st11 st13 st3">tesheim</text>
<line class="st14" x1="1004.2" y1="409.5" x2="1034.2" y2="394.5"/>
<text transform="matrix(1 0 0 1 983.2 445.6)" class="st11 st2 st3">XX</text>
<rect x="973.1" y="447" class="st15" width="30" height="15"/>
<text transform="matrix(1 0 0 1 1008.3 458.9)" class="st11 st13 st3">Klenau</text>
<line class="st14" x1="973.1" y1="462" x2="1003.1" y2="447"/>
<text transform="matrix(1 0 0 1 815.5 491.6)" class="st11 st2 st3">XXX</text>
<rect x="807.9" y="493" class="st15" width="30" height="15"/>
<text transform="matrix(1 0 0 1 844.2 504.9)" class="st11 st13 st3">John</text>
<line class="st14" x1="807.9" y1="508" x2="837.9" y2="493"/>
<text transform="matrix(1 0 0 1 823.1 428.3)" class="st11 st2 st3">XX</text>
<line class="st14" x1="813" y1="444.7" x2="843" y2="429.7"/>
<rect x="813" y="429.7" class="st15" width="30" height="15"/>
<text transform="matrix(1 0 0 1 849.2 441.6)" class="st11 st13 st3">Jellachich</text>
</svg>
