<?xml version="1.0" encoding="utf-8"?>
<!-- Generator: Adobe Illustrator 21.1.0, SVG Export Plug-In . SVG Version: 6.00 Build 0)  -->
<svg version="1.1" id="Troops" xmlns="http://www.w3.org/2000/svg" xmlns:xlink="http://www.w3.org/1999/xlink" x="0px" y="0px"
	 viewBox="0 0 1440 910" style="enable-background:new 0 0 1440 910;" xml:space="preserve">
<style type="text/css">
	.st0{fill:none;stroke:#0072BB;stroke-width:3;stroke-linecap:round;stroke-linejoin:round;}
	.st1{fill:#0072BB;}
	.st2{fill:none;stroke:#999999;stroke-width:10;stroke-linecap:round;}
	.st3{fill:#999999;}
	.st4{font-family:'DroidSans';}
	.st5{font-size:12px;}
	.st6{fill:none;stroke:#0072BB;stroke-width:3;stroke-linecap:round;}
	.st7{fill:none;stroke:#999999;stroke-width:3;stroke-linecap:round;stroke-linejoin:round;}
	.st8{fill:none;stroke:#999999;stroke-width:10;stroke-linecap:round;stroke-linejoin:round;}
	.st9{fill:none;stroke:#999999;stroke-width:3;stroke-linecap:round;}
	.st10{fill:#FFFFFF;stroke:#0072BB;stroke-width:0.75;stroke-miterlimit:10;}
	.st11{font-family:'DroidSans-Bold';}
	.st12{fill:none;}
	.st13{fill:#ED2939;}
	.st14{fill:#FFFFFF;stroke:#ED2939;stroke-width:0.75;stroke-miterlimit:10;}
</style>
<path id="Pont_de_Briques-2" class="st0" d="M456,251.9L456,251.9"/>
<path class="st0" d="M456,251.9c4.1,12.1,9.6,32.5,9.8,48.4"/>
<polygon class="st1" points="464.3,312.9 458.8,294.4 465.7,299.3 473.4,295.8 "/>
<path class="st2" d="M554.8,255.6L554.8,255.6"/>
<text transform="matrix(1 0 0 1 560.3 250.1)" class="st3 st4 st5">Ath</text>
<path class="st0" d="M528.5,262.3c0.8-0.1,7.5-1.9,13.9-3.7"/>
<polygon class="st1" points="554.6,255.4 539.2,267.1 541.4,258.9 535.4,252.9 "/>
<path class="st2" d="M522.5,274.7L522.5,274.7"/>
<text transform="matrix(1 0 0 1 527.1 290.3)" class="st3 st4 st5">Douai</text>
<path class="st0" d="M497.1,263l13.7,6.3"/>
<polygon class="st1" points="522.4,274.6 503,273.8 509.9,268.9 509.1,260.5 "/>
<path id="Saint_Quentin-2" class="st2" d="M532.3,311.8L532.3,311.8"/>
<text transform="matrix(1 0 0 1 535.6 329.4)" class="st3 st4 st5">Saint-Quentin</text>
<path class="st0" d="M509.5,305.6c0.6,0.7,7,2.5,10.3,3.5"/>
<polygon class="st1" points="532.2,311.8 513.1,314.9 518.9,308.7 516.4,300.7 "/>
<path class="st2" d="M599.6,92.2L599.6,92.2"/>
<text transform="matrix(1 0 0 1 605.1 86.7)" class="st3 st4 st5">&apos;</text>
<text transform="matrix(1 0 0 1 608.1 86.7)" class="st3 st4 st5">t Zand</text>
<path class="st2" d="M832.8,156.2L832.8,156.2"/>
<text transform="matrix(1 0 0 1 838.3 150.7)" class="st3 st4 st5">Alfeld</text>
<path class="st6" d="M828.5,145.9L828.5,145.9"/>
<path class="st0" d="M826.8,133.5c0,0.4,0.9,7.7,1.3,10.9"/>
<polygon class="st1" points="832.8,156.2 819.8,141.9 828.2,143.4 833.6,136.9 "/>
<path class="st7" d="M1132.5,423L1132.5,423"/>
<path class="st8" d="M1132.5,423L1132.5,423"/>
<text transform="matrix(1 0 0 1 1134.7 418.1)" class="st3 st4 st5">Vienna</text>
<path class="st7" d="M1132.5,423L1132.5,423"/>
<path class="st9" d="M1024.5,429.9L1024.5,429.9"/>
<text transform="matrix(1 0 0 1 1028.3 442.6)" class="st3 st4 st5">W</text>
<text transform="matrix(1 0 0 1 1038.7001 442.6)" class="st3 st4 st5">els</text>
<path class="st9" d="M1024.5,429.9L1024.5,429.9"/>
<path class="st2" d="M1024.5,429.8L1024.5,429.8"/>
<path class="st9" d="M1024.5,429.8L1024.5,429.8"/>
<text transform="matrix(1 0 0 1 610.3 103.2)" class="st1 st4 st5">XXX</text>
<rect x="602.7" y="104.6" class="st10" width="30" height="15"/>
<text transform="matrix(1 0 0 1 612.9 116.9)" class="st1 st4 st5">II</text>
<text transform="matrix(1 0 0 1 543 116.5)" class="st1 st11 st5">Marmont</text>
<line class="st12" x1="602.7" y1="119.6" x2="632.7" y2="104.6"/>
<text transform="matrix(1 0 0 1 587.4 259)" class="st1 st4 st5">XXX</text>
<rect x="579.7" y="260.4" class="st10" width="30" height="15"/>
<text transform="matrix(1 0 0 1 533.6 272.3)" class="st1 st11 st5">Davout</text>
<text transform="matrix(1 0 0 1 587.6 272.7)" class="st1 st4 st5">III</text>
<line class="st12" x1="579.7" y1="275.4" x2="609.7" y2="260.4"/>
<text transform="matrix(1 0 0 1 579.9 298.3)" class="st1 st4 st5">XXX</text>
<rect x="572.3" y="299.7" class="st10" width="30" height="15"/>
<text transform="matrix(1 0 0 1 581 312)" class="st1 st4 st5">IV</text>
<text transform="matrix(1 0 0 1 537.9 311.6)" class="st1 st11 st5">Soult</text>
<line class="st12" x1="572.3" y1="314.7" x2="602.3" y2="299.7"/>
<text transform="matrix(1 0 0 1 1002.4 751.5)" class="st1 st4 st5">XXX</text>
<rect x="994.8" y="752.9" class="st10" width="30" height="15"/>
<text transform="matrix(1 0 0 1 953 764.8)" class="st1 st11 st5">St. Cyr</text>
<line class="st12" x1="994.8" y1="767.9" x2="1024.8" y2="752.9"/>
<text transform="matrix(1 0 0 1 436.9 309.6)" class="st1 st4 st5">XXXX</text>
<rect x="431.8" y="311" class="st10" width="30" height="15"/>
<text transform="matrix(1 0 0 1 370.9 322.9)" class="st1 st11 st5">Napoleon</text>
<line class="st12" x1="431.8" y1="326" x2="461.8" y2="311"/>
<text transform="matrix(1 0 0 1 871.3 449.4)" class="st1 st4 st5">XXX</text>
<rect x="863.7" y="450.8" class="st10" width="30" height="15"/>
<text transform="matrix(1 0 0 1 801.9 462.7)" class="st1 st11 st5">Bavarians</text>
<line class="st12" x1="863.7" y1="465.8" x2="893.7" y2="450.8"/>
<text transform="matrix(1 0 0 1 850.1 120.2)" class="st1 st4 st5">XXX</text>
<rect x="842.5" y="121.6" class="st10" width="30" height="15"/>
<text transform="matrix(1 0 0 1 855 134)" class="st1 st4 st5">I</text>
<text transform="matrix(1 0 0 1 772.9 133.5)" class="st1 st11 st5">Bernado</text>
<text transform="matrix(1 0 0 1 821.7 133.5)" class="st1 st11 st5">t</text>
<text transform="matrix(1 0 0 1 826.8 133.5)" class="st1 st11 st5">te</text>
<line class="st12" x1="842.5" y1="136.6" x2="872.5" y2="121.6"/>
<text transform="matrix(1 0 0 1 549.6 341.5)" class="st1 st4 st5">XXX</text>
<rect x="542" y="342.9" class="st10" width="30" height="15"/>
<text transform="matrix(1 0 0 1 550.6 355.2)" class="st1 st4 st5">VI</text>
<text transform="matrix(1 0 0 1 514.4 354.8)" class="st1 st11 st5">Ney</text>
<line class="st12" x1="542" y1="357.9" x2="572" y2="342.9"/>
<text transform="matrix(1 0 0 1 1150.8 456.1)" class="st13 st4 st5">XXX</text>
<rect x="1143.1" y="457.5" class="st14" width="30" height="15"/>
<text transform="matrix(1 0 0 1 1178.4 469.4)" class="st13 st11 st5">Mack</text>
<line class="st12" x1="1143.1" y1="472.5" x2="1173.1" y2="457.5"/>
<text transform="matrix(1 0 0 1 924.7 515.2)" class="st13 st4 st5">XX</text>
<rect x="914.6" y="516.7" class="st14" width="30" height="15"/>
<text transform="matrix(1 0 0 1 949.9 528.5)" class="st13 st11 st5">Hiller</text>
<line class="st12" x1="914.6" y1="531.7" x2="944.6" y2="516.7"/>
<text transform="matrix(1 0 0 1 1062.6 578.3)" class="st13 st4 st5">XXX</text>
<rect x="1055" y="579.7" class="st14" width="30" height="15"/>
<text transform="matrix(1 0 0 1 1090.3 591.6)" class="st13 st11 st5">Charles</text>
<line class="st12" x1="1055" y1="594.7" x2="1085" y2="579.7"/>
<text transform="matrix(1 0 0 1 1150.8 430.8)" class="st13 st4 st5">XXX</text>
<rect x="1143.1" y="432.2" class="st14" width="30" height="15"/>
<text transform="matrix(1 0 0 1 1178.4 444.1)" class="st13 st11 st5">Ferdinand</text>
<line class="st12" x1="1143.1" y1="447.2" x2="1173.1" y2="432.2"/>
<text transform="matrix(1 0 0 1 1064.3 479.1)" class="st13 st4 st5">XX</text>
<rect x="1054.2" y="480.5" class="st14" width="30" height="15"/>
<text transform="matrix(1 0 0 1 1087.4 492.4)" class="st13 st11 st5">Go</text>
<text transform="matrix(1 0 0 1 1103.3 492.4)" class="st13 st11 st5">t</text>
<text transform="matrix(1 0 0 1 1108.4 492.4)" class="st13 st11 st5">tesheim</text>
<line class="st12" x1="1054.2" y1="495.5" x2="1084.2" y2="480.5"/>
<text transform="matrix(1 0 0 1 1019.2 402.6)" class="st13 st4 st5">XX</text>
<rect x="1009.1" y="404" class="st14" width="30" height="15"/>
<text transform="matrix(1 0 0 1 1044.3 415.9)" class="st13 st11 st5">Klenau</text>
<line class="st12" x1="1009.1" y1="419" x2="1039.1" y2="404"/>
<text transform="matrix(1 0 0 1 815.5 491.6)" class="st13 st4 st5">XXX</text>
<rect x="807.9" y="493" class="st14" width="30" height="15"/>
<text transform="matrix(1 0 0 1 844.2 504.9)" class="st13 st11 st5">John</text>
<line class="st12" x1="807.9" y1="508" x2="837.9" y2="493"/>
<text transform="matrix(1 0 0 1 823.1 428.3)" class="st13 st4 st5">XX</text>
<line class="st12" x1="813" y1="444.7" x2="843" y2="429.7"/>
<rect x="813" y="429.7" class="st14" width="30" height="15"/>
<text transform="matrix(1 0 0 1 849.2 441.6)" class="st13 st11 st5">Jellachich</text>
</svg>
