<?xml version="1.0" encoding="utf-8"?>
<!-- Generator: Adobe Illustrator 21.1.0, SVG Export Plug-In . SVG Version: 6.00 Build 0)  -->
<svg version="1.1" id="Troops" xmlns="http://www.w3.org/2000/svg" xmlns:xlink="http://www.w3.org/1999/xlink" x="0px" y="0px"
	 viewBox="0 0 1440 910" style="enable-background:new 0 0 1440 910;" xml:space="preserve">
<style type="text/css">
	.st0{fill:none;stroke:#999999;stroke-width:10;stroke-linecap:round;stroke-linejoin:round;}
	.st1{fill:#999999;}
	.st2{font-family:'DroidSans';}
	.st3{font-size:12px;}
	.st4{fill:none;stroke:#999999;stroke-width:10;stroke-linecap:round;}
	.st5{fill:#0072BB;}
	.st6{fill:#FFFFFF;stroke:#0072BB;stroke-width:0.75;stroke-miterlimit:10;}
	.st7{font-family:'DroidSans-Bold';}
	.st8{fill:none;}
	.st9{fill:#ED2939;}
	.st10{fill:#FFFFFF;stroke:#ED2939;stroke-width:0.75;stroke-miterlimit:10;}
</style>
<path id="Pont_de_Briques-23" class="st0" d="M456,251.9L456,251.9"/>
<text transform="matrix(1 0 0 1 359.8 263.8)" class="st1 st2 st3">Pont de Briques</text>
<path class="st4" d="M599.6,92.2L599.6,92.2"/>
<text transform="matrix(1 0 0 1 605.1 86.7)" class="st1 st2 st3">&apos;</text>
<text transform="matrix(1 0 0 1 608.1 86.7)" class="st1 st2 st3">t Zand</text>
<path class="st4" d="M827.2,125.8L827.2,125.8"/>
<text transform="matrix(1 0 0 1 830.7 120.3)" class="st1 st2 st3">Hanover</text>
<path class="st0" d="M1132.5,423L1132.5,423"/>
<text transform="matrix(1 0 0 1 1134.7 418.1)" class="st1 st2 st3">Vienna</text>
<path class="st4" d="M1024.5,429.9L1024.5,429.9"/>
<text transform="matrix(1 0 0 1 1028.3 442.6)" class="st1 st2 st3">W</text>
<text transform="matrix(1 0 0 1 1038.7001 442.6)" class="st1 st2 st3">els</text>
<path class="st4" d="M979.2,427.8L979.2,427.8"/>
<text transform="matrix(1 0 0 1 979.6 424.2)" class="st1 st2 st3">B</text>
<text transform="matrix(1 0 0 1 987.1 424.2)" class="st1 st2 st3">r</text>
<text transform="matrix(1 0 0 1 991.7 424.2)" class="st1 st2 st3">aunau</text>
<text transform="matrix(1 0 0 1 610.3 103.2)" class="st5 st2 st3">XXX</text>
<rect x="602.7" y="104.6" class="st6" width="30" height="15"/>
<text transform="matrix(1 0 0 1 612.9 116.9)" class="st5 st2 st3">II</text>
<text transform="matrix(1 0 0 1 543 116.5)" class="st5 st7 st3">Marmont</text>
<line class="st8" x1="602.7" y1="119.6" x2="632.7" y2="104.6"/>
<text transform="matrix(1 0 0 1 475.1 207.9)" class="st5 st2 st3">XXX</text>
<rect x="467.5" y="209.3" class="st6" width="30" height="15"/>
<text transform="matrix(1 0 0 1 501.3 221.2)" class="st5 st7 st3">Davout</text>
<text transform="matrix(1 0 0 1 475.4 221.6)" class="st5 st2 st3">III</text>
<line class="st8" x1="467.5" y1="224.3" x2="497.5" y2="209.3"/>
<text transform="matrix(1 0 0 1 449.2 227.4)" class="st5 st2 st3">XXX</text>
<rect x="441.6" y="228.8" class="st6" width="30" height="15"/>
<text transform="matrix(1 0 0 1 450.2 241.1)" class="st5 st2 st3">IV</text>
<text transform="matrix(1 0 0 1 407.2 240.7)" class="st5 st7 st3">Soult</text>
<line class="st8" x1="441.6" y1="243.8" x2="471.6" y2="228.8"/>
<text transform="matrix(1 0 0 1 1023.4 782.9)" class="st5 st2 st3">XXX</text>
<rect x="1015.8" y="784.3" class="st6" width="30" height="15"/>
<text transform="matrix(1 0 0 1 974 796.2)" class="st5 st7 st3">St. Cyr</text>
<line class="st8" x1="1015.8" y1="799.3" x2="1045.8" y2="784.3"/>
<text transform="matrix(1 0 0 1 438.7 269.7)" class="st5 st2 st3">XXXX</text>
<rect x="433.5" y="271.1" class="st6" width="30" height="15"/>
<text transform="matrix(1 0 0 1 372.6 283)" class="st5 st7 st3">Napoleon</text>
<line class="st8" x1="433.5" y1="286.1" x2="463.5" y2="271.1"/>
<text transform="matrix(1 0 0 1 871.3 447.4)" class="st5 st2 st3">XXX</text>
<rect x="863.7" y="448.8" class="st6" width="30" height="15"/>
<text transform="matrix(1 0 0 1 801.9 460.7)" class="st5 st7 st3">Bavarians</text>
<line class="st8" x1="863.7" y1="463.8" x2="893.7" y2="448.8"/>
<text transform="matrix(1 0 0 1 800.1 100.2)" class="st5 st2 st3">XXX</text>
<rect x="792.5" y="101.6" class="st6" width="30" height="15"/>
<text transform="matrix(1 0 0 1 805 114)" class="st5 st2 st3">I</text>
<text transform="matrix(1 0 0 1 722.9 113.5)" class="st5 st7 st3">Bernado</text>
<text transform="matrix(1 0 0 1 771.7 113.5)" class="st5 st7 st3">t</text>
<text transform="matrix(1 0 0 1 776.8 113.5)" class="st5 st7 st3">te</text>
<line class="st8" x1="792.5" y1="116.6" x2="822.5" y2="101.6"/>
<text transform="matrix(1 0 0 1 472.6 289.5)" class="st5 st2 st3">XXX</text>
<rect x="465" y="290.9" class="st6" width="30" height="15"/>
<text transform="matrix(1 0 0 1 473.6 303.2)" class="st5 st2 st3">VI</text>
<text transform="matrix(1 0 0 1 437.4 302.8)" class="st5 st7 st3">Ney</text>
<line class="st8" x1="465" y1="305.9" x2="495" y2="290.9"/>
<text transform="matrix(1 0 0 1 1150.8 456.1)" class="st9 st2 st3">XXX</text>
<rect x="1143.1" y="457.5" class="st10" width="30" height="15"/>
<text transform="matrix(1 0 0 1 1178.4 469.4)" class="st9 st7 st3">Mack</text>
<line class="st8" x1="1143.1" y1="472.5" x2="1173.1" y2="457.5"/>
<text transform="matrix(1 0 0 1 924.7 515.2)" class="st9 st2 st3">XX</text>
<rect x="914.6" y="516.7" class="st10" width="30" height="15"/>
<text transform="matrix(1 0 0 1 949.9 528.5)" class="st9 st7 st3">Hiller</text>
<line class="st8" x1="914.6" y1="531.7" x2="944.6" y2="516.7"/>
<text transform="matrix(1 0 0 1 1062.6 578.3)" class="st9 st2 st3">XXX</text>
<rect x="1055" y="579.7" class="st10" width="30" height="15"/>
<text transform="matrix(1 0 0 1 1090.3 591.6)" class="st9 st7 st3">Charles</text>
<line class="st8" x1="1055" y1="594.7" x2="1085" y2="579.7"/>
<text transform="matrix(1 0 0 1 1150.8 430.8)" class="st9 st2 st3">XXX</text>
<rect x="1143.1" y="432.2" class="st10" width="30" height="15"/>
<text transform="matrix(1 0 0 1 1178.4 444.1)" class="st9 st7 st3">Ferdinand</text>
<line class="st8" x1="1143.1" y1="447.2" x2="1173.1" y2="432.2"/>
<text transform="matrix(1 0 0 1 1064.3 479.1)" class="st9 st2 st3">XX</text>
<rect x="1054.2" y="480.5" class="st10" width="30" height="15"/>
<text transform="matrix(1 0 0 1 1087.4 492.4)" class="st9 st7 st3">Go</text>
<text transform="matrix(1 0 0 1 1103.3 492.4)" class="st9 st7 st3">t</text>
<text transform="matrix(1 0 0 1 1108.4 492.4)" class="st9 st7 st3">tesheim</text>
<line class="st8" x1="1054.2" y1="495.5" x2="1084.2" y2="480.5"/>
<text transform="matrix(1 0 0 1 1019.2 380.6)" class="st9 st2 st3">XX</text>
<rect x="1009.1" y="382" class="st10" width="30" height="15"/>
<text transform="matrix(1 0 0 1 1044.3 393.9)" class="st9 st7 st3">Klenau</text>
<line class="st8" x1="1009.1" y1="397" x2="1039.1" y2="382"/>
<text transform="matrix(1 0 0 1 873.1 476.3)" class="st9 st2 st3">XX</text>
<line class="st8" x1="863" y1="492.7" x2="893" y2="477.7"/>
<rect x="863" y="477.7" class="st10" width="30" height="15"/>
<text transform="matrix(1 0 0 1 899.2 489.6)" class="st9 st7 st3">Jellachich</text>
<text transform="matrix(1 0 0 1 815.5 491.6)" class="st9 st2 st3">XXX</text>
<rect x="807.9" y="493" class="st10" width="30" height="15"/>
<text transform="matrix(1 0 0 1 844.2 504.9)" class="st9 st7 st3">John</text>
<line class="st8" x1="807.9" y1="508" x2="837.9" y2="493"/>
</svg>
