<?xml version="1.0" encoding="utf-8"?>
<!-- Generator: Adobe Illustrator 21.1.0, SVG Export Plug-In . SVG Version: 6.00 Build 0)  -->
<svg version="1.1" id="Troops" xmlns="http://www.w3.org/2000/svg" xmlns:xlink="http://www.w3.org/1999/xlink" x="0px" y="0px"
	 viewBox="0 0 1440 910" style="enable-background:new 0 0 1440 910;" xml:space="preserve">
<style type="text/css">
	.st0{fill:none;stroke:#999999;stroke-width:10;stroke-linecap:round;}
	.st1{fill:#999999;}
	.st2{font-family:'DroidSans';}
	.st3{font-size:12px;}
	.st4{fill:none;stroke:#0072BB;stroke-width:3;stroke-linecap:round;}
	.st5{fill:none;stroke:#0072BB;stroke-width:3;stroke-linecap:round;stroke-linejoin:round;}
	.st6{fill:#0072BB;}
	.st7{fill:none;stroke:#ED2939;stroke-width:3;stroke-linecap:round;stroke-linejoin:round;}
	.st8{fill:none;stroke:#999999;stroke-width:10;stroke-linecap:round;stroke-linejoin:round;}
	.st9{fill:none;stroke:#999999;stroke-width:3;stroke-linecap:round;stroke-linejoin:round;}
	.st10{fill:none;stroke:#ED2939;stroke-width:3;stroke-linecap:round;}
	.st11{fill:none;stroke:#999999;stroke-width:3;stroke-linecap:round;}
	.st12{fill:#ED2939;}
	.st13{fill:#FFFFFF;stroke:#0072BB;stroke-width:0.75;stroke-miterlimit:10;}
	.st14{font-family:'DroidSans-Bold';}
	.st15{fill:none;}
	.st16{fill:#FFFFFF;stroke:#ED2939;stroke-width:0.75;stroke-miterlimit:10;}
</style>
<path id="Saint_Cloud-42" class="st0" d="M482.6,382.5L482.6,382.5"/>
<text transform="matrix(1 0 0 1 484.8 397.2)" class="st1 st2 st3">Saint-Cloud</text>
<path class="st0" d="M585.5,271.4L585.5,271.4"/>
<text transform="matrix(1 0 0 1 588 262.9)" class="st1 st2 st3">Charleroi</text>
<path class="st0" d="M562.4,292.6L562.4,292.6"/>
<text transform="matrix(1 0 0 1 569.8 296.8)" class="st1 st2 st3">Avesnes sur Helpe</text>
<path class="st4" d="M550.6,292.1L550.6,292.1"/>
<path class="st5" d="M536.7,292.5l12.9-0.5"/>
<polygon class="st6" points="562.3,292.6 544.1,299.3 548.6,292.1 544.7,284.6 "/>
<path id="Craonne-2" class="st0" d="M555.2,340.8L555.2,340.8"/>
<text transform="matrix(1 0 0 1 561.7 338.3)" class="st1 st2 st3">C</text>
<text transform="matrix(1 0 0 1 568.9 338.3)" class="st1 st2 st3">r</text>
<text transform="matrix(1 0 0 1 573.6 338.3)" class="st1 st2 st3">aonne</text>
<path id="Laon-2" class="st4" d="M547.6,331.9L547.6,331.9"/>
<path class="st5" d="M537.5,321.8l10.2,10.9"/>
<polygon class="st6" points="557.3,341.1 539.1,334.6 547.1,332 548.9,323.7 "/>
<path class="st0" d="M611.9,139.2L611.9,139.2"/>
<text transform="matrix(1 0 0 1 617.4 133.7)" class="st1 st2 st3">Loenen aan de </text>
<text transform="matrix(1 0 0 1 699.8 133.7)" class="st1 st2 st3">V</text>
<text transform="matrix(1 0 0 1 706.3 133.7)" class="st1 st2 st3">echt</text>
<path class="st4" d="M594.1,126.3L594.1,126.3"/>
<path class="st5" d="M594.1,126.2c0.8,0.5,1.7,0.9,2.6,1.2c1.1,0.4,2.1,1.1,2.9,1.9c0.8,0.7,1.7,1.3,2.6,1.9"/>
<polygon class="st6" points="612,139.3 593.5,133.6 601.4,130.6 602.7,122.3 "/>
<path class="st0" d="M837.2,189.3L837.2,189.3"/>
<text transform="matrix(1 0 0 1 846.6 189.3)" class="st1 st2 st3">Gö</text>
<text transform="matrix(1 0 0 1 861.8 189.3)" class="st1 st2 st3">t</text>
<text transform="matrix(1 0 0 1 866 189.3)" class="st1 st2 st3">tingen</text>
<path class="st7" d="M1132.5,423L1132.5,423"/>
<path class="st8" d="M1132.5,423L1132.5,423"/>
<text transform="matrix(1 0 0 1 1134.7 418.1)" class="st1 st2 st3">Vienna</text>
<path class="st9" d="M1132.5,423L1132.5,423"/>
<path class="st0" d="M1024.5,429.9L1024.5,429.9"/>
<text transform="matrix(1 0 0 1 1028.3 442.6)" class="st1 st2 st3">W</text>
<text transform="matrix(1 0 0 1 1038.7001 442.6)" class="st1 st2 st3">els</text>
<path class="st10" d="M1024.5,429.9L1024.5,429.9"/>
<path class="st0" d="M979.2,427.8L979.2,427.8"/>
<text transform="matrix(1 0 0 1 977.5 448.3)" class="st1 st2 st3">B</text>
<text transform="matrix(1 0 0 1 985 448.3)" class="st1 st2 st3">r</text>
<text transform="matrix(1 0 0 1 989.6 448.3)" class="st1 st2 st3">aunau</text>
<path class="st11" d="M1024.5,429.8L1024.5,429.8"/>
<path class="st11" d="M979.2,427.8L979.2,427.8"/>
<path class="st7" d="M1023.3,428.1c-0.9-0.1-1.9-0.1-2.8,0c-0.9,0.2-2.3,1.1-9.6,0s-8.3-1.3-9.7-1.4s-3.8,0.6-8-0.7"/>
<polygon class="st12" points="980.5,427.4 997.9,418.9 994.1,426.5 998.9,433.4 "/>
<text transform="matrix(1 0 0 1 626.3 110.2)" class="st6 st2 st3">XXX</text>
<rect x="618.7" y="111.6" class="st13" width="30" height="15"/>
<text transform="matrix(1 0 0 1 628.9 123.9)" class="st6 st2 st3">II</text>
<text transform="matrix(1 0 0 1 559 123.5)" class="st6 st14 st3">Marmont</text>
<line class="st15" x1="618.7" y1="126.6" x2="648.7" y2="111.6"/>
<text transform="matrix(1 0 0 1 617.4 271)" class="st6 st2 st3">XXX</text>
<rect x="609.7" y="272.4" class="st13" width="30" height="15"/>
<text transform="matrix(1 0 0 1 563.6 284.3)" class="st6 st14 st3">Davout</text>
<text transform="matrix(1 0 0 1 617.6 284.7)" class="st6 st2 st3">III</text>
<line class="st15" x1="609.7" y1="287.4" x2="639.7" y2="272.4"/>
<text transform="matrix(1 0 0 1 579.9 306.3)" class="st6 st2 st3">XXX</text>
<rect x="572.3" y="307.7" class="st13" width="30" height="15"/>
<text transform="matrix(1 0 0 1 581 320)" class="st6 st2 st3">IV</text>
<text transform="matrix(1 0 0 1 537.9 319.6)" class="st6 st14 st3">Soult</text>
<line class="st15" x1="572.3" y1="322.7" x2="602.3" y2="307.7"/>
<text transform="matrix(1 0 0 1 988.4 733.6)" class="st6 st2 st3">XXX</text>
<rect x="980.8" y="735" class="st13" width="30" height="15"/>
<text transform="matrix(1 0 0 1 939 746.9)" class="st6 st14 st3">St. Cyr</text>
<line class="st15" x1="980.8" y1="750" x2="1010.8" y2="735"/>
<text transform="matrix(1 0 0 1 806 606.4)" class="st6 st2 st3">XXXX</text>
<rect x="800.8" y="607.8" class="st13" width="30" height="15"/>
<text transform="matrix(1 0 0 1 809.4 620.1)" class="st6 st2 st3">VI</text>
<text transform="matrix(1 0 0 1 745.3 619.7)" class="st6 st14 st3">Masséna</text>
<line class="st15" x1="800.8" y1="622.8" x2="830.8" y2="607.8"/>
<text transform="matrix(1 0 0 1 488.9 409.6)" class="st6 st2 st3">XXXX</text>
<rect x="483.8" y="411" class="st13" width="30" height="15"/>
<text transform="matrix(1 0 0 1 422.9 422.9)" class="st6 st14 st3">Napoleon</text>
<line class="st15" x1="483.8" y1="426" x2="513.8" y2="411"/>
<text transform="matrix(1 0 0 1 871.3 449.4)" class="st6 st2 st3">XXX</text>
<rect x="863.7" y="450.8" class="st13" width="30" height="15"/>
<text transform="matrix(1 0 0 1 801.9 462.7)" class="st6 st14 st3">Bavarians</text>
<line class="st15" x1="863.7" y1="465.8" x2="893.7" y2="450.8"/>
<text transform="matrix(1 0 0 1 850.1 159.2)" class="st6 st2 st3">XXX</text>
<rect x="842.5" y="160.6" class="st13" width="30" height="15"/>
<text transform="matrix(1 0 0 1 855 173)" class="st6 st2 st3">I</text>
<text transform="matrix(1 0 0 1 772.9 172.5)" class="st6 st14 st3">Bernado</text>
<text transform="matrix(1 0 0 1 821.7 172.5)" class="st6 st14 st3">t</text>
<text transform="matrix(1 0 0 1 826.8 172.5)" class="st6 st14 st3">te</text>
<line class="st15" x1="842.5" y1="175.6" x2="872.5" y2="160.6"/>
<text transform="matrix(1 0 0 1 566.6 347.5)" class="st6 st2 st3">XXX</text>
<rect x="559" y="348.9" class="st13" width="30" height="15"/>
<text transform="matrix(1 0 0 1 567.6 361.2)" class="st6 st2 st3">VI</text>
<text transform="matrix(1 0 0 1 531.4 360.8)" class="st6 st14 st3">Ney</text>
<line class="st15" x1="559" y1="363.9" x2="589" y2="348.9"/>
<text transform="matrix(1 0 0 1 1150.8 456.1)" class="st12 st2 st3">XXX</text>
<rect x="1143.1" y="457.5" class="st16" width="30" height="15"/>
<text transform="matrix(1 0 0 1 1178.4 469.4)" class="st12 st14 st3">Mack</text>
<line class="st15" x1="1143.1" y1="472.5" x2="1173.1" y2="457.5"/>
<text transform="matrix(1 0 0 1 924.7 515.2)" class="st12 st2 st3">XX</text>
<rect x="914.6" y="516.7" class="st16" width="30" height="15"/>
<text transform="matrix(1 0 0 1 949.9 528.5)" class="st12 st14 st3">Hiller</text>
<line class="st15" x1="914.6" y1="531.7" x2="944.6" y2="516.7"/>
<text transform="matrix(1 0 0 1 1062.6 578.3)" class="st12 st2 st3">XXX</text>
<rect x="1055" y="579.7" class="st16" width="30" height="15"/>
<text transform="matrix(1 0 0 1 1090.3 591.6)" class="st12 st14 st3">Charles</text>
<line class="st15" x1="1055" y1="594.7" x2="1085" y2="579.7"/>
<text transform="matrix(1 0 0 1 1150.8 430.8)" class="st12 st2 st3">XXX</text>
<rect x="1143.1" y="432.2" class="st16" width="30" height="15"/>
<text transform="matrix(1 0 0 1 1178.4 444.1)" class="st12 st14 st3">Ferdinand</text>
<line class="st15" x1="1143.1" y1="447.2" x2="1173.1" y2="432.2"/>
<text transform="matrix(1 0 0 1 1034.3 373.1)" class="st12 st2 st3">XX</text>
<rect x="1024.2" y="374.5" class="st16" width="30" height="15"/>
<text transform="matrix(1 0 0 1 1057.4 386.4)" class="st12 st14 st3">Go</text>
<text transform="matrix(1 0 0 1 1073.3 386.4)" class="st12 st14 st3">t</text>
<text transform="matrix(1 0 0 1 1078.4 386.4)" class="st12 st14 st3">tesheim</text>
<line class="st15" x1="1024.2" y1="389.5" x2="1054.2" y2="374.5"/>
<text transform="matrix(1 0 0 1 963.2 455.6)" class="st12 st2 st3">XX</text>
<rect x="953.1" y="457" class="st16" width="30" height="15"/>
<text transform="matrix(1 0 0 1 988.3 468.9)" class="st12 st14 st3">Klenau</text>
<line class="st15" x1="953.1" y1="472" x2="983.1" y2="457"/>
<text transform="matrix(1 0 0 1 815.5 491.6)" class="st12 st2 st3">XXX</text>
<rect x="807.9" y="493" class="st16" width="30" height="15"/>
<text transform="matrix(1 0 0 1 844.2 504.9)" class="st12 st14 st3">John</text>
<line class="st15" x1="807.9" y1="508" x2="837.9" y2="493"/>
<text transform="matrix(1 0 0 1 823.1 428.3)" class="st12 st2 st3">XX</text>
<line class="st15" x1="813" y1="444.7" x2="843" y2="429.7"/>
<rect x="813" y="429.7" class="st16" width="30" height="15"/>
<text transform="matrix(1 0 0 1 849.2 441.6)" class="st12 st14 st3">Jellachich</text>
</svg>
