<?xml version="1.0" encoding="utf-8"?>
<!-- Generator: Adobe Illustrator 21.1.0, SVG Export Plug-In . SVG Version: 6.00 Build 0)  -->
<svg version="1.1" id="Troops" xmlns="http://www.w3.org/2000/svg" xmlns:xlink="http://www.w3.org/1999/xlink" x="0px" y="0px"
	 viewBox="0 0 1440 910" style="enable-background:new 0 0 1440 910;" xml:space="preserve">
<style type="text/css">
	.st0{fill:none;stroke:#999999;stroke-width:10;stroke-linecap:round;stroke-linejoin:round;}
	.st1{fill:#999999;}
	.st2{font-family:'DroidSans';}
	.st3{font-size:12px;}
	.st4{fill:none;stroke:#999999;stroke-width:10;stroke-linecap:round;}
	.st5{fill:none;stroke:#0072BB;stroke-width:3;stroke-linecap:round;stroke-linejoin:round;}
	.st6{fill:#0072BB;}
	.st7{fill:none;stroke:#999999;stroke-width:3;stroke-linecap:round;stroke-linejoin:round;}
	.st8{fill:none;stroke:#999999;stroke-width:3;stroke-linecap:round;}
	.st9{fill:#FFFFFF;stroke:#0072BB;stroke-width:0.75;stroke-miterlimit:10;}
	.st10{font-family:'DroidSans-Bold';}
	.st11{fill:none;}
	.st12{fill:#ED2939;}
	.st13{fill:#FFFFFF;stroke:#ED2939;stroke-width:0.75;stroke-miterlimit:10;}
</style>
<path id="Malmaison-10" class="st0" d="M482.8,382.7L482.8,382.7"/>
<text transform="matrix(1 0 0 1 486.5 398.3)" class="st1 st2 st3">Malmaison</text>
<path class="st4" d="M563,268.3L563,268.3"/>
<text transform="matrix(1 0 0 1 568.5 262.8)" class="st1 st2 st3">Mons</text>
<path class="st5" d="M547.6,249.4c0.4,0,5.5,4.7,9,7.9"/>
<polygon class="st6" points="563,268.3 547.3,257 555.8,256.7 559.7,249.2 "/>
<path class="st4" d="M522.5,274.7L522.5,274.7"/>
<text transform="matrix(1 0 0 1 527.1 290.3)" class="st1 st2 st3">Douai</text>
<path id="La_Fere-2" class="st4" d="M536,325L536,325"/>
<text transform="matrix(1 0 0 1 539.3 343.7)" class="st1 st2 st3">La Fère</text>
<path class="st5" d="M529.2,300.8c0,0,2.5,7.3,3.9,11.8"/>
<polygon class="st6" points="535.7,325 524.6,309.1 532.7,311.7 538.9,305.9 "/>
<path class="st4" d="M601.6,95.7L601.6,95.7"/>
<text transform="matrix(1 0 0 1 607.1 90.2)" class="st1 st2 st3">Schagen</text>
<path class="st4" d="M838.9,165.9L838.9,165.9"/>
<text transform="matrix(1 0 0 1 844.4 160.4)" class="st1 st2 st3">Kreiensen</text>
<path class="st5" d="M821.4,142.6c0.2,0.5,8.3,9.5,10.8,12.6"/>
<polygon class="st6" points="838.9,165.9 823,154.9 831.5,154.5 835.3,146.9 "/>
<path class="st7" d="M1132.5,423L1132.5,423"/>
<path class="st0" d="M1132.5,423L1132.5,423"/>
<text transform="matrix(1 0 0 1 1134.7 418.1)" class="st1 st2 st3">Vienna</text>
<path class="st7" d="M1132.5,423L1132.5,423"/>
<path class="st8" d="M1024.5,429.9L1024.5,429.9"/>
<text transform="matrix(1 0 0 1 1028.3 442.6)" class="st1 st2 st3">W</text>
<text transform="matrix(1 0 0 1 1038.7001 442.6)" class="st1 st2 st3">els</text>
<path class="st8" d="M1024.5,429.9L1024.5,429.9"/>
<path class="st4" d="M1024.5,429.8L1024.5,429.8"/>
<path class="st8" d="M1024.5,429.8L1024.5,429.8"/>
<text transform="matrix(1 0 0 1 610.3 103.2)" class="st6 st2 st3">XXX</text>
<rect x="602.7" y="104.6" class="st9" width="30" height="15"/>
<text transform="matrix(1 0 0 1 612.9 116.9)" class="st6 st2 st3">II</text>
<text transform="matrix(1 0 0 1 543 116.5)" class="st6 st10 st3">Marmont</text>
<line class="st11" x1="602.7" y1="119.6" x2="632.7" y2="104.6"/>
<text transform="matrix(1 0 0 1 587.4 268)" class="st6 st2 st3">XXX</text>
<rect x="579.7" y="269.4" class="st9" width="30" height="15"/>
<text transform="matrix(1 0 0 1 533.6 281.3)" class="st6 st10 st3">Davout</text>
<text transform="matrix(1 0 0 1 587.6 281.7)" class="st6 st2 st3">III</text>
<line class="st11" x1="579.7" y1="284.4" x2="609.7" y2="269.4"/>
<text transform="matrix(1 0 0 1 581.9 300.3)" class="st6 st2 st3">XXX</text>
<rect x="574.3" y="301.7" class="st9" width="30" height="15"/>
<text transform="matrix(1 0 0 1 583 314)" class="st6 st2 st3">IV</text>
<text transform="matrix(1 0 0 1 539.9 313.6)" class="st6 st10 st3">Soult</text>
<line class="st11" x1="574.3" y1="316.7" x2="604.3" y2="301.7"/>
<text transform="matrix(1 0 0 1 999.4 747.1)" class="st6 st2 st3">XXX</text>
<rect x="991.8" y="748.5" class="st9" width="30" height="15"/>
<text transform="matrix(1 0 0 1 950 760.4)" class="st6 st10 st3">St. Cyr</text>
<line class="st11" x1="991.8" y1="763.5" x2="1021.8" y2="748.5"/>
<text transform="matrix(1 0 0 1 488.9 409.6)" class="st6 st2 st3">XXXX</text>
<rect x="483.8" y="411" class="st9" width="30" height="15"/>
<text transform="matrix(1 0 0 1 422.9 422.9)" class="st6 st10 st3">Napoleon</text>
<line class="st11" x1="483.8" y1="426" x2="513.8" y2="411"/>
<text transform="matrix(1 0 0 1 871.3 449.4)" class="st6 st2 st3">XXX</text>
<rect x="863.7" y="450.8" class="st9" width="30" height="15"/>
<text transform="matrix(1 0 0 1 801.9 462.7)" class="st6 st10 st3">Bavarians</text>
<line class="st11" x1="863.7" y1="465.8" x2="893.7" y2="450.8"/>
<text transform="matrix(1 0 0 1 850.1 126.2)" class="st6 st2 st3">XXX</text>
<rect x="842.5" y="127.6" class="st9" width="30" height="15"/>
<text transform="matrix(1 0 0 1 855 140)" class="st6 st2 st3">I</text>
<text transform="matrix(1 0 0 1 772.9 139.5)" class="st6 st10 st3">Bernado</text>
<text transform="matrix(1 0 0 1 821.7 139.5)" class="st6 st10 st3">t</text>
<text transform="matrix(1 0 0 1 826.8 139.5)" class="st6 st10 st3">te</text>
<line class="st11" x1="842.5" y1="142.6" x2="872.5" y2="127.6"/>
<text transform="matrix(1 0 0 1 549.6 351.5)" class="st6 st2 st3">XXX</text>
<rect x="542" y="352.9" class="st9" width="30" height="15"/>
<text transform="matrix(1 0 0 1 550.6 365.2)" class="st6 st2 st3">VI</text>
<text transform="matrix(1 0 0 1 514.4 364.8)" class="st6 st10 st3">Ney</text>
<line class="st11" x1="542" y1="367.9" x2="572" y2="352.9"/>
<text transform="matrix(1 0 0 1 1150.8 456.1)" class="st12 st2 st3">XXX</text>
<rect x="1143.1" y="457.5" class="st13" width="30" height="15"/>
<text transform="matrix(1 0 0 1 1178.4 469.4)" class="st12 st10 st3">Mack</text>
<line class="st11" x1="1143.1" y1="472.5" x2="1173.1" y2="457.5"/>
<text transform="matrix(1 0 0 1 924.7 515.2)" class="st12 st2 st3">XX</text>
<rect x="914.6" y="516.7" class="st13" width="30" height="15"/>
<text transform="matrix(1 0 0 1 949.9 528.5)" class="st12 st10 st3">Hiller</text>
<line class="st11" x1="914.6" y1="531.7" x2="944.6" y2="516.7"/>
<text transform="matrix(1 0 0 1 1062.6 578.3)" class="st12 st2 st3">XXX</text>
<rect x="1055" y="579.7" class="st13" width="30" height="15"/>
<text transform="matrix(1 0 0 1 1090.3 591.6)" class="st12 st10 st3">Charles</text>
<line class="st11" x1="1055" y1="594.7" x2="1085" y2="579.7"/>
<text transform="matrix(1 0 0 1 1150.8 430.8)" class="st12 st2 st3">XXX</text>
<rect x="1143.1" y="432.2" class="st13" width="30" height="15"/>
<text transform="matrix(1 0 0 1 1178.4 444.1)" class="st12 st10 st3">Ferdinand</text>
<line class="st11" x1="1143.1" y1="447.2" x2="1173.1" y2="432.2"/>
<text transform="matrix(1 0 0 1 1064.3 479.1)" class="st12 st2 st3">XX</text>
<rect x="1054.2" y="480.5" class="st13" width="30" height="15"/>
<text transform="matrix(1 0 0 1 1087.4 492.4)" class="st12 st10 st3">Go</text>
<text transform="matrix(1 0 0 1 1103.3 492.4)" class="st12 st10 st3">t</text>
<text transform="matrix(1 0 0 1 1108.4 492.4)" class="st12 st10 st3">tesheim</text>
<line class="st11" x1="1054.2" y1="495.5" x2="1084.2" y2="480.5"/>
<text transform="matrix(1 0 0 1 1019.2 402.6)" class="st12 st2 st3">XX</text>
<rect x="1009.1" y="404" class="st13" width="30" height="15"/>
<text transform="matrix(1 0 0 1 1044.3 415.9)" class="st12 st10 st3">Klenau</text>
<line class="st11" x1="1009.1" y1="419" x2="1039.1" y2="404"/>
<text transform="matrix(1 0 0 1 815.5 491.6)" class="st12 st2 st3">XXX</text>
<rect x="807.9" y="493" class="st13" width="30" height="15"/>
<text transform="matrix(1 0 0 1 844.2 504.9)" class="st12 st10 st3">John</text>
<line class="st11" x1="807.9" y1="508" x2="837.9" y2="493"/>
<text transform="matrix(1 0 0 1 823.1 428.3)" class="st12 st2 st3">XX</text>
<line class="st11" x1="813" y1="444.7" x2="843" y2="429.7"/>
<rect x="813" y="429.7" class="st13" width="30" height="15"/>
<text transform="matrix(1 0 0 1 849.2 441.6)" class="st12 st10 st3">Jellachich</text>
</svg>
