<?xml version="1.0" encoding="utf-8"?>
<!-- Generator: Adobe Illustrator 21.1.0, SVG Export Plug-In . SVG Version: 6.00 Build 0)  -->
<svg version="1.1" id="Troops" xmlns="http://www.w3.org/2000/svg" xmlns:xlink="http://www.w3.org/1999/xlink" x="0px" y="0px"
	 viewBox="0 0 1440 910" style="enable-background:new 0 0 1440 910;" xml:space="preserve">
<style type="text/css">
	.st0{fill:none;stroke:#003A9E;stroke-width:10;stroke-linecap:round;}
	.st1{fill:#999999;}
	.st2{font-family:'DroidSans';}
	.st3{font-size:12px;}
	.st4{fill:none;stroke:#999999;stroke-width:10;stroke-linecap:round;}
	.st5{fill:none;stroke:#999999;stroke-width:10;stroke-linecap:round;stroke-linejoin:round;}
	.st6{fill:none;stroke:#999999;stroke-width:3;stroke-linecap:round;}
	.st7{fill:none;stroke:#0072BB;stroke-width:3;stroke-linejoin:round;}
	.st8{fill:#0072BB;}
	.st9{fill:none;stroke:#0072BB;stroke-width:3;stroke-linecap:round;stroke-linejoin:round;}
	.st10{fill:none;stroke:#999999;stroke-width:3;stroke-linecap:round;stroke-linejoin:round;}
	.st11{fill:#FFFFFF;stroke:#0072BB;stroke-width:0.75;stroke-miterlimit:10;}
	.st12{font-family:'DroidSans-Bold';}
	.st13{fill:none;}
	.st14{fill:#ED2939;}
	.st15{fill:#FFFFFF;stroke:#ED2939;stroke-width:0.75;stroke-miterlimit:10;}
</style>
<path class="st0" d="M837.3,316.3L837.3,316.3"/>
<text transform="matrix(1 0 0 1 843.4 310.2)" class="st1 st2 st3">W</text>
<text transform="matrix(1 0 0 1 853.9 310.2)" class="st1 st2 st3">ürzbu</text>
<text transform="matrix(1 0 0 1 885.1 310.2)" class="st1 st2 st3">r</text>
<text transform="matrix(1 0 0 1 889.8 310.2)" class="st1 st2 st3">g</text>
<path class="st4" d="M837.3,316.3L837.3,316.3"/>
<path id="Saint_Cloud-28" class="st5" d="M482.6,382.5L482.6,382.5"/>
<text transform="matrix(1 0 0 1 484.8 397.2)" class="st1 st2 st3">Saint-Cloud</text>
<path class="st4" d="M646.9,323.4L646.9,323.4"/>
<path class="st4" d="M651.4,364.9L651.4,364.9"/>
<text transform="matrix(1 0 0 1 659.5 367)" class="st1 st2 st3">Mars-la</text>
<text transform="matrix(1 0 0 1 699.8 367)" class="st1 st2 st3">-</text>
<text transform="matrix(1 0 0 1 703.1 367)" class="st1 st2 st3">T</text>
<text transform="matrix(1 0 0 1 708.6 367)" class="st1 st2 st3">our</text>
<path class="st6" d="M628.4,360.6L628.4,360.6"/>
<path class="st7" d="M628.5,360.7c-0.1,1,0.6,0.9,1.9,1.4c2,0.7,4.1,1.1,6.2,1.3l2,0.3"/>
<polygon class="st8" points="651.2,364.9 632.7,370.5 637.6,363.6 634.1,355.9 "/>
<path id="Ligney_en_Barrois-4" class="st4" d="M625.9,393.4L625.9,393.4"/>
<text transform="matrix(1 0 0 1 632 404.8)" class="st1 st2 st3">Ligny-en-Barrois</text>
<path class="st9" d="M598.6,396.5c1.1-0.6,10.3-2.5,14.6-4.3"/>
<polygon class="st8" points="625.8,393.3 607.6,399.9 612.1,392.7 608.2,385.2 "/>
<path class="st4" d="M683.7,204L683.7,204"/>
<text transform="matrix(1 0 0 1 689.2 198.5)" class="st1 st2 st3">Krefeld</text>
<path class="st6" d="M671.8,190.6L671.8,190.6"/>
<path class="st9" d="M668.6,181.6c0,0,2.8,11.2,4.3,12.5l1.6,1.1"/>
<polygon class="st8" points="683.7,204 665.6,197.2 673.7,194.7 675.6,186.5 "/>
<path class="st4" d="M837.2,189.3L837.2,189.3"/>
<text transform="matrix(1 0 0 1 846.6 189.3)" class="st1 st2 st3">Gö</text>
<text transform="matrix(1 0 0 1 861.8 189.3)" class="st1 st2 st3">t</text>
<text transform="matrix(1 0 0 1 866 189.3)" class="st1 st2 st3">tingen</text>
<path class="st10" d="M1132.5,423L1132.5,423"/>
<path class="st5" d="M1132.5,423L1132.5,423"/>
<text transform="matrix(1 0 0 1 1134.7 418.1)" class="st1 st2 st3">Vienna</text>
<path class="st10" d="M1132.5,423L1132.5,423"/>
<text transform="matrix(1 0 0 1 691.3 165.2)" class="st8 st2 st3">XXX</text>
<rect x="683.7" y="166.6" class="st11" width="30" height="15"/>
<text transform="matrix(1 0 0 1 693.9 178.9)" class="st8 st2 st3">II</text>
<text transform="matrix(1 0 0 1 624 178.5)" class="st8 st12 st3">Marmont</text>
<line class="st13" x1="683.7" y1="181.6" x2="713.7" y2="166.6"/>
<text transform="matrix(1 0 0 1 667.4 339)" class="st8 st2 st3">XXX</text>
<rect x="659.7" y="340.4" class="st11" width="30" height="15"/>
<text transform="matrix(1 0 0 1 613.6 352.3)" class="st8 st12 st3">Davout</text>
<text transform="matrix(1 0 0 1 667.6 352.7)" class="st8 st2 st3">III</text>
<line class="st13" x1="659.7" y1="355.4" x2="689.7" y2="340.4"/>
<text transform="matrix(1 0 0 1 679.9 377.3)" class="st8 st2 st3">XXX</text>
<rect x="672.3" y="378.7" class="st11" width="30" height="15"/>
<text transform="matrix(1 0 0 1 681 391)" class="st8 st2 st3">IV</text>
<text transform="matrix(1 0 0 1 637.9 390.6)" class="st8 st12 st3">Soult</text>
<line class="st13" x1="672.3" y1="393.7" x2="702.3" y2="378.7"/>
<text transform="matrix(1 0 0 1 953.4 702.2)" class="st8 st2 st3">XXX</text>
<rect x="945.8" y="703.6" class="st11" width="30" height="15"/>
<text transform="matrix(1 0 0 1 904 715.5)" class="st8 st12 st3">St. Cyr</text>
<line class="st13" x1="945.8" y1="718.6" x2="975.8" y2="703.6"/>
<text transform="matrix(1 0 0 1 806 606.4)" class="st8 st2 st3">XXXX</text>
<rect x="800.8" y="607.8" class="st11" width="30" height="15"/>
<text transform="matrix(1 0 0 1 809.4 620.1)" class="st8 st2 st3">VI</text>
<text transform="matrix(1 0 0 1 745.3 619.7)" class="st8 st12 st3">Masséna</text>
<line class="st13" x1="800.8" y1="622.8" x2="830.8" y2="607.8"/>
<text transform="matrix(1 0 0 1 488.9 409.6)" class="st8 st2 st3">XXXX</text>
<rect x="483.8" y="411" class="st11" width="30" height="15"/>
<text transform="matrix(1 0 0 1 422.9 422.9)" class="st8 st12 st3">Napoleon</text>
<line class="st13" x1="483.8" y1="426" x2="513.8" y2="411"/>
<text transform="matrix(1 0 0 1 850.5 295.1)" class="st8 st2 st3">XXX</text>
<rect x="842.9" y="296.5" class="st11" width="30" height="15"/>
<text transform="matrix(1 0 0 1 781.1 308.4)" class="st8 st12 st3">Bavarians</text>
<line class="st13" x1="842.9" y1="311.5" x2="872.9" y2="296.5"/>
<text transform="matrix(1 0 0 1 820.1 169.2)" class="st8 st2 st3">XXX</text>
<rect x="812.5" y="170.6" class="st11" width="30" height="15"/>
<text transform="matrix(1 0 0 1 825 183)" class="st8 st2 st3">I</text>
<text transform="matrix(1 0 0 1 742.9 182.5)" class="st8 st12 st3">Bernado</text>
<text transform="matrix(1 0 0 1 791.7 182.5)" class="st8 st12 st3">t</text>
<text transform="matrix(1 0 0 1 796.8 182.5)" class="st8 st12 st3">te</text>
<line class="st13" x1="812.5" y1="185.6" x2="842.5" y2="170.6"/>
<text transform="matrix(1 0 0 1 649.6 412.5)" class="st8 st2 st3">XXX</text>
<rect x="642" y="413.9" class="st11" width="30" height="15"/>
<text transform="matrix(1 0 0 1 650.6 426.2)" class="st8 st2 st3">VI</text>
<text transform="matrix(1 0 0 1 614.4 425.8)" class="st8 st12 st3">Ney</text>
<line class="st13" x1="642" y1="428.9" x2="672" y2="413.9"/>
<text transform="matrix(1 0 0 1 1150.8 456.1)" class="st14 st2 st3">XXX</text>
<rect x="1143.1" y="457.5" class="st15" width="30" height="15"/>
<text transform="matrix(1 0 0 1 1178.4 469.4)" class="st14 st12 st3">Mack</text>
<line class="st13" x1="1143.1" y1="472.5" x2="1173.1" y2="457.5"/>
<text transform="matrix(1 0 0 1 924.7 515.2)" class="st14 st2 st3">XX</text>
<rect x="914.6" y="516.7" class="st15" width="30" height="15"/>
<text transform="matrix(1 0 0 1 949.9 528.5)" class="st14 st12 st3">Hiller</text>
<line class="st13" x1="914.6" y1="531.7" x2="944.6" y2="516.7"/>
<text transform="matrix(1 0 0 1 982.6 578.3)" class="st14 st2 st3">XXX</text>
<rect x="975" y="579.7" class="st15" width="30" height="15"/>
<text transform="matrix(1 0 0 1 1010.3 591.6)" class="st14 st12 st3">Charles</text>
<line class="st13" x1="975" y1="594.7" x2="1005" y2="579.7"/>
<text transform="matrix(1 0 0 1 1018.7 448.9)" class="st14 st2 st3">XX</text>
<rect x="1008.7" y="450.3" class="st15" width="30" height="15"/>
<text transform="matrix(1 0 0 1 1043.9 462.2)" class="st14 st12 st3">Gyulai</text>
<line class="st13" x1="1008.7" y1="465.3" x2="1038.7" y2="450.3"/>
<text transform="matrix(1 0 0 1 1150.8 430.8)" class="st14 st2 st3">XXX</text>
<rect x="1143.1" y="432.2" class="st15" width="30" height="15"/>
<text transform="matrix(1 0 0 1 1178.4 444.1)" class="st14 st12 st3">Ferdinand</text>
<line class="st13" x1="1143.1" y1="447.2" x2="1173.1" y2="432.2"/>
<text transform="matrix(1 0 0 1 952.7 385.6)" class="st14 st2 st3">XXX</text>
<rect x="945.1" y="387" class="st15" width="30" height="15"/>
<text transform="matrix(1 0 0 1 980.3 398.9)" class="st14 st12 st3">Kienmayer</text>
<line class="st13" x1="945.1" y1="402" x2="975.1" y2="387"/>
<text transform="matrix(1 0 0 1 910.7 406.9)" class="st14 st2 st3">XX</text>
<rect x="900.6" y="408.3" class="st15" width="30" height="15"/>
<text transform="matrix(1 0 0 1 933.9 420.2)" class="st14 st12 st3">Go</text>
<text transform="matrix(1 0 0 1 949.8 420.2)" class="st14 st12 st3">t</text>
<text transform="matrix(1 0 0 1 954.9 420.2)" class="st14 st12 st3">tesheim</text>
<line class="st13" x1="900.6" y1="423.3" x2="930.6" y2="408.3"/>
<text transform="matrix(1 0 0 1 923.2 454.6)" class="st14 st2 st3">XX</text>
<rect x="913.1" y="456" class="st15" width="30" height="15"/>
<text transform="matrix(1 0 0 1 948.3 467.9)" class="st14 st12 st3">Klenau</text>
<line class="st13" x1="913.1" y1="471" x2="943.1" y2="456"/>
<text transform="matrix(1 0 0 1 815.5 491.6)" class="st14 st2 st3">XXX</text>
<rect x="807.9" y="493" class="st15" width="30" height="15"/>
<text transform="matrix(1 0 0 1 844.2 504.9)" class="st14 st12 st3">John</text>
<line class="st13" x1="807.9" y1="508" x2="837.9" y2="493"/>
<text transform="matrix(1 0 0 1 964.4 428.7)" class="st14 st2 st3">XX</text>
<rect x="954.3" y="430.1" class="st15" width="30" height="15"/>
<text transform="matrix(1 0 0 1 989.6 442)" class="st14 st12 st3">Riesch</text>
<line class="st13" x1="954.3" y1="445.1" x2="984.3" y2="430.1"/>
<text transform="matrix(1 0 0 1 813.1 441.3)" class="st14 st2 st3">XX</text>
<line class="st13" x1="803" y1="457.7" x2="833" y2="442.7"/>
<rect x="803" y="442.7" class="st15" width="30" height="15"/>
<text transform="matrix(1 0 0 1 839.2 454.6)" class="st14 st12 st3">Jellachich</text>
</svg>
