<?xml version="1.0" encoding="utf-8"?>
<!-- Generator: Adobe Illustrator 21.1.0, SVG Export Plug-In . SVG Version: 6.00 Build 0)  -->
<svg version="1.1" id="Troops" xmlns="http://www.w3.org/2000/svg" xmlns:xlink="http://www.w3.org/1999/xlink" x="0px" y="0px"
	 viewBox="0 0 1440 910" style="enable-background:new 0 0 1440 910;" xml:space="preserve">
<style type="text/css">
	.st0{fill:none;stroke:#999999;stroke-width:10;stroke-linecap:round;}
	.st1{fill:#999999;}
	.st2{font-family:'DroidSans';}
	.st3{font-size:12px;}
	.st4{fill:none;stroke:#999999;stroke-width:3;stroke-linecap:round;}
	.st5{fill:none;stroke:#0072BB;stroke-width:3;stroke-linecap:round;stroke-linejoin:round;}
	.st6{fill:#0072BB;}
	.st7{fill:none;stroke:#0072BB;stroke-width:3;stroke-linecap:round;}
	.st8{fill:none;stroke:#999999;stroke-width:3;stroke-linecap:round;stroke-linejoin:round;}
	.st9{fill:none;stroke:#999999;stroke-width:10;stroke-linecap:round;stroke-linejoin:round;}
	.st10{fill:#FFFFFF;stroke:#0072BB;stroke-width:0.75;stroke-miterlimit:10;}
	.st11{font-family:'DroidSans-Bold';}
	.st12{fill:none;}
	.st13{fill:#ED2939;}
	.st14{fill:#FFFFFF;stroke:#ED2939;stroke-width:0.75;stroke-miterlimit:10;}
</style>
<path id="Saint_Cloud-44" class="st0" d="M482.6,382.5L482.6,382.5"/>
<text transform="matrix(1 0 0 1 484.8 397.2)" class="st1 st2 st3">Saint-Cloud</text>
<path class="st0" d="M585.5,271.4L585.5,271.4"/>
<text transform="matrix(1 0 0 1 588 262.9)" class="st1 st2 st3">Charleroi</text>
<path class="st4" d="M572.8,271.4L572.8,271.4"/>
<path class="st5" d="M560,270.4l12.6,1"/>
<polygon class="st6" points="585.3,271.4 567.3,278.5 571.6,271.2 567.5,263.9 "/>
<path class="st0" d="M550.6,292.1L550.6,292.1"/>
<text transform="matrix(1 0 0 1 560.8 297.1)" class="st1 st2 st3">Landrecies</text>
<path class="st5" d="M523.6,299.4c0.9-0.1,8.1-2.1,14.6-4"/>
<polygon class="st6" points="550.4,292 535.2,303.9 537.3,295.7 531.2,289.8 "/>
<path id="Laon-4" class="st0" d="M547.6,331.9L547.6,331.9"/>
<text transform="matrix(1 0 0 1 555.1 335.4)" class="st1 st2 st3">Laon</text>
<path class="st0" d="M594.1,126.3L594.1,126.3"/>
<text transform="matrix(1 0 0 1 600.8 121.9)" class="st1 st2 st3">Haarlem</text>
<path class="st5" d="M599.3,107.6c0,0-2.5,4.8-3.3,5.7l-0.2,0.3"/>
<polygon class="st6" points="594.1,126.2 590.2,107.2 596.6,112.7 604.6,109.9 "/>
<path class="st7" d="M601.4,104.5l-2,3"/>
<path class="st0" d="M837.2,189.3L837.2,189.3"/>
<text transform="matrix(1 0 0 1 846.6 189.3)" class="st1 st2 st3">Gö</text>
<text transform="matrix(1 0 0 1 861.8 189.3)" class="st1 st2 st3">t</text>
<text transform="matrix(1 0 0 1 866 189.3)" class="st1 st2 st3">tingen</text>
<path class="st4" d="M840.3,177.3L840.3,177.3"/>
<path class="st5" d="M839.9,164.4c0.4,4.2,0.5,8.4,0.4,12.6"/>
<polygon class="st6" points="837.3,189.3 834.1,170.2 840.3,176 848.3,173.5 "/>
<path class="st8" d="M1132.5,423L1132.5,423"/>
<path class="st9" d="M1132.5,423L1132.5,423"/>
<text transform="matrix(1 0 0 1 1134.7 418.1)" class="st1 st2 st3">Vienna</text>
<path class="st8" d="M1132.5,423L1132.5,423"/>
<path class="st4" d="M1024.5,429.9L1024.5,429.9"/>
<text transform="matrix(1 0 0 1 1028.3 442.6)" class="st1 st2 st3">W</text>
<text transform="matrix(1 0 0 1 1038.7001 442.6)" class="st1 st2 st3">els</text>
<path class="st4" d="M1024.5,429.9L1024.5,429.9"/>
<path class="st0" d="M1024.5,429.8L1024.5,429.8"/>
<path class="st4" d="M1024.5,429.8L1024.5,429.8"/>
<text transform="matrix(1 0 0 1 616.3 90.2)" class="st6 st2 st3">XXX</text>
<rect x="608.7" y="91.6" class="st10" width="30" height="15"/>
<text transform="matrix(1 0 0 1 618.9 103.9)" class="st6 st2 st3">II</text>
<text transform="matrix(1 0 0 1 549 103.5)" class="st6 st11 st3">Marmont</text>
<line class="st12" x1="608.7" y1="106.6" x2="638.7" y2="91.6"/>
<text transform="matrix(1 0 0 1 617.4 271)" class="st6 st2 st3">XXX</text>
<rect x="609.7" y="272.4" class="st10" width="30" height="15"/>
<text transform="matrix(1 0 0 1 563.6 284.3)" class="st6 st11 st3">Davout</text>
<text transform="matrix(1 0 0 1 617.6 284.7)" class="st6 st2 st3">III</text>
<line class="st12" x1="609.7" y1="287.4" x2="639.7" y2="272.4"/>
<text transform="matrix(1 0 0 1 579.9 306.3)" class="st6 st2 st3">XXX</text>
<rect x="572.3" y="307.7" class="st10" width="30" height="15"/>
<text transform="matrix(1 0 0 1 581 320)" class="st6 st2 st3">IV</text>
<text transform="matrix(1 0 0 1 537.9 319.6)" class="st6 st11 st3">Soult</text>
<line class="st12" x1="572.3" y1="322.7" x2="602.3" y2="307.7"/>
<text transform="matrix(1 0 0 1 993.4 738.1)" class="st6 st2 st3">XXX</text>
<rect x="985.8" y="739.5" class="st10" width="30" height="15"/>
<text transform="matrix(1 0 0 1 944 751.4)" class="st6 st11 st3">St. Cyr</text>
<line class="st12" x1="985.8" y1="754.5" x2="1015.8" y2="739.5"/>
<text transform="matrix(1 0 0 1 488.9 409.6)" class="st6 st2 st3">XXXX</text>
<rect x="483.8" y="411" class="st10" width="30" height="15"/>
<text transform="matrix(1 0 0 1 422.9 422.9)" class="st6 st11 st3">Napoleon</text>
<line class="st12" x1="483.8" y1="426" x2="513.8" y2="411"/>
<text transform="matrix(1 0 0 1 871.3 449.4)" class="st6 st2 st3">XXX</text>
<rect x="863.7" y="450.8" class="st10" width="30" height="15"/>
<text transform="matrix(1 0 0 1 801.9 462.7)" class="st6 st11 st3">Bavarians</text>
<line class="st12" x1="863.7" y1="465.8" x2="893.7" y2="450.8"/>
<text transform="matrix(1 0 0 1 850.1 153.2)" class="st6 st2 st3">XXX</text>
<rect x="842.5" y="154.6" class="st10" width="30" height="15"/>
<text transform="matrix(1 0 0 1 855 167)" class="st6 st2 st3">I</text>
<text transform="matrix(1 0 0 1 772.9 166.5)" class="st6 st11 st3">Bernado</text>
<text transform="matrix(1 0 0 1 821.7 166.5)" class="st6 st11 st3">t</text>
<text transform="matrix(1 0 0 1 826.8 166.5)" class="st6 st11 st3">te</text>
<line class="st12" x1="842.5" y1="169.6" x2="872.5" y2="154.6"/>
<text transform="matrix(1 0 0 1 566.6 347.5)" class="st6 st2 st3">XXX</text>
<rect x="559" y="348.9" class="st10" width="30" height="15"/>
<text transform="matrix(1 0 0 1 567.6 361.2)" class="st6 st2 st3">VI</text>
<text transform="matrix(1 0 0 1 531.4 360.8)" class="st6 st11 st3">Ney</text>
<line class="st12" x1="559" y1="363.9" x2="589" y2="348.9"/>
<text transform="matrix(1 0 0 1 1150.8 456.1)" class="st13 st2 st3">XXX</text>
<rect x="1143.1" y="457.5" class="st14" width="30" height="15"/>
<text transform="matrix(1 0 0 1 1178.4 469.4)" class="st13 st11 st3">Mack</text>
<line class="st12" x1="1143.1" y1="472.5" x2="1173.1" y2="457.5"/>
<text transform="matrix(1 0 0 1 924.7 515.2)" class="st13 st2 st3">XX</text>
<rect x="914.6" y="516.7" class="st14" width="30" height="15"/>
<text transform="matrix(1 0 0 1 949.9 528.5)" class="st13 st11 st3">Hiller</text>
<line class="st12" x1="914.6" y1="531.7" x2="944.6" y2="516.7"/>
<text transform="matrix(1 0 0 1 1062.6 578.3)" class="st13 st2 st3">XXX</text>
<rect x="1055" y="579.7" class="st14" width="30" height="15"/>
<text transform="matrix(1 0 0 1 1090.3 591.6)" class="st13 st11 st3">Charles</text>
<line class="st12" x1="1055" y1="594.7" x2="1085" y2="579.7"/>
<text transform="matrix(1 0 0 1 1150.8 430.8)" class="st13 st2 st3">XXX</text>
<rect x="1143.1" y="432.2" class="st14" width="30" height="15"/>
<text transform="matrix(1 0 0 1 1178.4 444.1)" class="st13 st11 st3">Ferdinand</text>
<line class="st12" x1="1143.1" y1="447.2" x2="1173.1" y2="432.2"/>
<text transform="matrix(1 0 0 1 1064.3 479.1)" class="st13 st2 st3">XX</text>
<rect x="1054.2" y="480.5" class="st14" width="30" height="15"/>
<text transform="matrix(1 0 0 1 1087.4 492.4)" class="st13 st11 st3">Go</text>
<text transform="matrix(1 0 0 1 1103.3 492.4)" class="st13 st11 st3">t</text>
<text transform="matrix(1 0 0 1 1108.4 492.4)" class="st13 st11 st3">tesheim</text>
<line class="st12" x1="1054.2" y1="495.5" x2="1084.2" y2="480.5"/>
<text transform="matrix(1 0 0 1 949.2 422.6)" class="st13 st2 st3">XX</text>
<rect x="939.1" y="424" class="st14" width="30" height="15"/>
<text transform="matrix(1 0 0 1 974.3 435.9)" class="st13 st11 st3">Klenau</text>
<line class="st12" x1="939.1" y1="439" x2="969.1" y2="424"/>
<text transform="matrix(1 0 0 1 815.5 491.6)" class="st13 st2 st3">XXX</text>
<rect x="807.9" y="493" class="st14" width="30" height="15"/>
<text transform="matrix(1 0 0 1 844.2 504.9)" class="st13 st11 st3">John</text>
<line class="st12" x1="807.9" y1="508" x2="837.9" y2="493"/>
<text transform="matrix(1 0 0 1 823.1 428.3)" class="st13 st2 st3">XX</text>
<line class="st12" x1="813" y1="444.7" x2="843" y2="429.7"/>
<rect x="813" y="429.7" class="st14" width="30" height="15"/>
<text transform="matrix(1 0 0 1 849.2 441.6)" class="st13 st11 st3">Jellachich</text>
</svg>
