<?xml version="1.0" encoding="utf-8"?>
<!-- Generator: Adobe Illustrator 16.0.4, SVG Export Plug-In . SVG Version: 6.00 Build 0)  -->
<!DOCTYPE svg PUBLIC "-//W3C//DTD SVG 1.1//EN" "http://www.w3.org/Graphics/SVG/1.1/DTD/svg11.dtd">
<svg version="1.1" id="Layer_1" xmlns="http://www.w3.org/2000/svg" xmlns:xlink="http://www.w3.org/1999/xlink" x="0px" y="0px"
	 width="1440px" height="910px" viewBox="0 0 1440 910" enable-background="new 0 0 1440 910" xml:space="preserve">
<defs>
  <link xmlns="http://www.w3.org/1999/xhtml" href='http://fonts.googleapis.com/css?family=Droid+Sans:400,700' rel='stylesheet' type='text/css' />
  <style type="text/css">
  <![CDATA[
  /*@font-face {
    font-family: DroidSans;
    src: url('http://fonts.googleapis.com/css?family=Droid+Sans:400,700');
  }*/
  text {
    font-family: DroidSans, 'DroidSans', 'Droid Sans', verdana, sans-serif;
    font-size: 12px;
    stroke-miterlimit: 10;
  }
  .commander {
    font-weight: bold;
    font-size: 12px;
  }
  .ident {
    font-size: 13.5px;
  }
  .size {
    font-size: 9px;
  }
  ]]>
  </style>
</defs>
<path fill="none" stroke="#003A9E" stroke-width="3" stroke-linecap="round" d="M686.5,355.4c0.1,1.2,0.9,2.3,2,3.2
	c10,0.3,17.9,2.6,23.7,6.5c3.9,1,8.9,1.7,13.6-1.5c4.8,1.6,9.7,2,12.5,0c0.6,0.7,9.9,1,9.8,1.9c3.2,1.9,8.1,2.3,13.8,3.1"/>
<polygon fill="#003A9E" points="774.3,372 755.1,374.6 761,368.6 758.7,360.4 "/>
<path fill="#003A9E" stroke="#003A9E" d="M773.2,367.7c2.5,0,4.5,2,4.5,4.5c0,2.5-2,4.5-4.5,4.5s-4.5-2-4.5-4.5
	C768.7,369.7,770.7,367.7,773.2,367.7z"/>
<text transform="matrix(1 0 0 1 705.6934 388.8262)" fill="#003A9E">Möckmühl</text>
<path fill="#2C74DD" stroke="#2C74DD" d="M850.4,376.8c2.5,0,4.5,2,4.5,4.5c0,2.5-2,4.5-4.5,4.5c-2.5,0-4.5-2-4.5-4.5
	C845.9,378.8,847.9,376.8,850.4,376.8z"/>
<path fill="none" stroke="#003A9E" stroke-width="3" stroke-linecap="round" d="M772.8,338.8c1.8,1,8.9,8.1,7.5,10.5
	c1.1,3,8.5-1.6,6.1,6c-2.5,8.1,4.4,21,13.6,23.9c2.8,1.1,8.2,1.4,9.5,4.2c-0.3-0.6,33.1-15.8,31.6-0.5c0,0,1.3,0.4,1.3,0.4
	c3.1,1.6,9.2,6.7,10.7,10.5c0.5,1.9,21.8,37,52.1,40.3"/>
<polygon fill="#003A9E" points="918,433.6 900.3,441.3 904.4,433.9 899.9,426.7 "/>
<path fill="#003A9E" stroke="#003A9E" d="M920,428.9c2.5,0,4.5,2,4.5,4.5s-2,4.5-4.5,4.5c-2.5,0-4.5-2-4.5-4.5
	S917.5,428.9,920,428.9z"/>
<text transform="matrix(1 0 0 1 872.8057 447.7617)" fill="#003A9E">Ilshofen</text>
<path fill="none" stroke="#003A9E" stroke-width="3" stroke-linecap="round" d="M900.1,394.3c0.5,2.6,1.5,6.5,2.6,10.9"/>
<polygon fill="#003A9E" points="905.9,417.5 894.3,402.1 902.5,404.3 908.5,398.4 "/>
<path fill="none" d="M845,384.7"/>
<path fill="none" stroke="#00235E" stroke-width="3" stroke-linecap="round" d="M721.9,360.2c5.6-0.5,11.2-0.8,15.6-0.3
	c9.4,1,20.7,2.9,31.3,7.6c2.6,1.2,6.4,5.4,6.6,5.5c-0.2-0.1,27.7,14.1,27.7,14.1c4.4,0.9,18.7-4.6,29.7-8.6"/>
<polygon fill="#00235E" points="845,374.7 830.3,387.2 832,378.9 825.7,373.3 "/>
<path fill="#00235E" stroke="#00235E" d="M854.4,376.8c2.5,0,4.5,2,4.5,4.5c0,2.5-2,4.5-4.5,4.5c-2.5,0-4.5-2-4.5-4.5
	C849.9,378.8,851.9,376.8,854.4,376.8z"/>
<text transform="matrix(1 0 0 1 855.7676 374.9229)" fill="#00235E">Ingelfingen</text>
<path fill="none" stroke="#00235E" stroke-width="3" stroke-linecap="round" d="M796.9,375.9c-1,1.3-1.1,2.8-0.4,4.3
	c12.6,2,7.4,14.6,30.8,4c5.6,9.9,11.3,14.7,29.6,19.8c5.7,1.6,17.5,3.5,17.4,3.4c8.5,1.5,32.5,7.3,44.1,11.6
	c5.9,2.2,14.2,9.1,23.1,16.3"/>
<polygon fill="#00235E" points="951.6,443.2 932.9,438 940.8,434.8 941.9,426.4 "/>
<circle fill="#00235E" stroke="#00235E" cx="958.3" cy="447.3" r="4.5"/>
<text transform="matrix(1 0 0 1 961.7305 440.9297)" fill="#00235E">Crailsheim</text>
<path fill="none" stroke="#00235E" stroke-width="3" stroke-linecap="round" d="M801.1,394.4c0.1-0.2,0.2-0.3,0.3-0.5
	c0,0,3.6-2.5,3.5-2.2c11.7,6.2,14.4,6.8,24.8,11.9c19,1.9,10.2,3,29.3,9.3c1,0.3,6,2.8,6,2.8c8.5,14.4,34.3,26.6,53.9,22.1
	c7.4,1.1,15.5,3.1,22.6,5.5"/>
<polygon fill="#00235E" points="953.3,448.3 934,448.4 940.7,443.2 939.5,434.8 "/>
<circle fill="#00235E" stroke="#00235E" cx="958.3" cy="447.3" r="4.5"/>
<text transform="matrix(1 0 0 1 961.7305 440.9297)" fill="#00235E">Crailsheim</text>
<path fill="none" stroke="#00235E" stroke-width="3" stroke-linecap="round" d="M804.4,403.3c8.3-12.1,11.1-10.3,34.3-18.1
	c5.4,4.1,9.1,7.5,9.8,8.4l9.8,14.7c10.3,2.7,21,3.1,28.2,5.1"/>
<polygon fill="#00235E" points="898.6,417.1 879.4,419 885.5,413.2 883.5,405 "/>
<path fill="#00235E" stroke="#00235E" d="M902.2,407c2.5,0,4.5,2,4.5,4.5c0,2.5-2,4.5-4.5,4.5c-2.5,0-4.5-2-4.5-4.5
	C897.7,409.1,899.7,407,902.2,407z"/>
<text transform="matrix(1 0 0 1 908.5771 412.127)" fill="#00235E">Nesselbach</text>
<rect x="688.2" y="381.2" fill="none" width="22.5" height="15"/>
<rect x="684.4" y="389.5" fill="#FFFFFF" stroke="#003A9E" stroke-width="0.75" stroke-miterlimit="10" width="30" height="15"/>
<text transform="matrix(1 0 0 1 719.6738 401.3721)" fill="#003A9E" class="commander">Nansouty</text>
<line fill="none" stroke="#003A9E" stroke-miterlimit="10" x1="684.4" y1="404.5" x2="714.4" y2="389.5"/>
<rect x="811.6" y="337.4" fill="none" width="22.5" height="15"/>
<rect x="807.7" y="345.5" fill="#FFFFFF" stroke="#2C74DD" stroke-width="0.75" stroke-miterlimit="10" width="30" height="15"/>
<circle fill="#2C74DD" cx="822.7" cy="353" r="3.7"/>
<text transform="matrix(1 0 0 1 843.1104 357.5215)" fill="#2C74DD" class="commander">Sorbier</text>
<line fill="none" x1="807.9" y1="360.6" x2="837.9" y2="345.6"/>
<rect x="825.2" y="439.5" fill="none" width="22.5" height="15"/>
<rect x="821.4" y="447.8" fill="#FFFFFF" stroke="#003A9E" stroke-width="0.75" stroke-miterlimit="10" width="30" height="15"/>
<text transform="matrix(1 0 0 1 856.6738 459.6807)" fill="#003A9E" class="commander">Vialannes</text>
<line fill="none" stroke="#003A9E" stroke-miterlimit="10" x1="821.4" y1="462.8" x2="851.4" y2="447.8"/>
<rect x="898.8" y="377" fill="none" width="22.5" height="15"/>
<text transform="matrix(1 0 0 1 907.5811 383.8135)" fill="#003A9E" class="size">X</text>
<rect x="895" y="385.2" fill="#FFFFFF" stroke="#003A9E" stroke-width="0.75" stroke-miterlimit="10" width="30" height="15"/>
<text transform="matrix(1 0 0 1 907.5068 397.542)" fill="#003A9E" class="ident">I</text>
<text transform="matrix(1 0 0 1 930.292 397.1143)" fill="#003A9E" class="commander">Eppler</text>
<line fill="none" x1="895" y1="400.2" x2="925" y2="385.2"/>
<rect x="811.4" y="314.9" fill="none" width="22.5" height="15"/>
<text transform="matrix(1 0 0 1 817.7393 321.7598)" fill="#00235E" class="size">XX</text>
<rect x="807.7" y="323.2" fill="#FFFFFF" stroke="#00235E" stroke-width="0.75" stroke-miterlimit="10" width="30" height="15"/>
<text transform="matrix(1 0 0 1 815.5508 335.4883)" fill="#00235E" class="ident">III</text>
<text transform="matrix(1 0 0 1 842.9111 335.0605)" fill="#00235E" class="commander">Gudin</text>
<line fill="none" x1="807.7" y1="338.2" x2="837.7" y2="323.2"/>
<rect x="928.5" y="476.1" fill="none" width="22.5" height="15"/>
<text transform="matrix(1 0 0 1 934.8271 482.9863)" fill="#00235E" class="size">XX</text>
<rect x="924.7" y="484.4" fill="#FFFFFF" stroke="#00235E" stroke-width="0.75" stroke-miterlimit="10" width="30" height="15"/>
<text transform="matrix(1 0 0 1 934.9258 496.7148)" fill="#00235E" class="ident">II</text>
<text transform="matrix(1 0 0 1 959.999 496.2871)" fill="#00235E" class="commander">Friant</text>
<line fill="none" x1="924.7" y1="499.4" x2="954.7" y2="484.4"/>
<rect x="928.5" y="450.5" fill="none" width="22.5" height="15"/>
<text transform="matrix(1 0 0 1 934.8271 457.3691)" fill="#00235E" class="size">XX</text>
<rect x="924.7" y="458.8" fill="#FFFFFF" stroke="#00235E" stroke-width="0.75" stroke-miterlimit="10" width="30" height="15"/>
<text transform="matrix(1 0 0 1 937.2139 471.0977)" fill="#00235E" class="ident">I</text>
<text transform="matrix(1 0 0 1 959.999 470.6699)" fill="#00235E" class="commander">Bisson</text>
<line fill="none" x1="924.7" y1="473.8" x2="954.7" y2="458.8"/>
<rect x="976.2" y="393" fill="none" width="22.5" height="15"/>
<text transform="matrix(1 0 0 1 980.0811 399.8115)" fill="#00235E" class="size">XXX</text>
<rect x="972.5" y="401.2" fill="#FFFFFF" stroke="#00235E" stroke-width="0.75" stroke-miterlimit="10" width="30" height="15"/>
<text transform="matrix(1 0 0 1 984.9287 413.54)" fill="#00235E" class="ident">I</text>
<text transform="matrix(1 0 0 1 1007.7139 413.1123)" fill="#00235E" class="commander">Davout</text>
<line fill="none" x1="972.5" y1="416.2" x2="1002.5" y2="401.2"/>
</svg>
