<?xml version="1.0" encoding="utf-8"?>
<!-- Generator: Adobe Illustrator 16.0.4, SVG Export Plug-In . SVG Version: 6.00 Build 0)  -->
<!DOCTYPE svg PUBLIC "-//W3C//DTD SVG 1.1//EN" "http://www.w3.org/Graphics/SVG/1.1/DTD/svg11.dtd">
<svg version="1.1" id="Layer_1" xmlns="http://www.w3.org/2000/svg" xmlns:xlink="http://www.w3.org/1999/xlink" x="0px" y="0px"
	 width="1440px" height="910px" viewBox="0 0 1440 910" enable-background="new 0 0 1440 910" xml:space="preserve">
<defs>
  <link xmlns="http://www.w3.org/1999/xhtml" href='http://fonts.googleapis.com/css?family=Droid+Sans:400,700' rel='stylesheet' type='text/css' />
  <style type="text/css">
  <![CDATA[
  /*@font-face {
    font-family: DroidSans;
    src: url('http://fonts.googleapis.com/css?family=Droid+Sans:400,700');
  }*/
  text {
    font-family: DroidSans, 'DroidSans', 'Droid Sans', verdana, sans-serif;
    font-size: 12px;
    stroke-miterlimit: 10;
  }
  .commander {
    font-weight: bold;
    font-size: 12px;
  }
  .ident {
    font-size: 13.5px;
  }
  .size {
    font-size: 9px;
  }
  ]]>
  </style>
</defs>
<path fill="none" stroke="#2C74DD" stroke-width="3" stroke-linecap="round" d="M269.2,389.8c15.6-11.3,25.5-21.8,40.8-32.5
	c6-4.2,17.8-11.1,28.5-17.4"/>
<polygon fill="#2C74DD" points="349.5,333.3 337.9,348.8 337.8,340.4 330.3,336.3 "/>
<path fill="#2C74DD" stroke="#2C74DD" d="M354.2,320.6c2.5,0,4.5,2,4.5,4.5c0,2.5-2,4.5-4.5,4.5c-2.5,0-4.5-2-4.5-4.5
	C349.7,322.6,351.7,320.6,354.2,320.6z"/>
<text transform="matrix(1 0 0 1 265.6162 322.7461)" fill="#2C74DD">Kaiserslautern</text>
<circle fill="#003A9E" stroke="#003A9E" cx="541.4" cy="306" r="4.5"/>
<text transform="matrix(1 0 0 1 544.0518 299.6006)" fill="#003A9E">Mannheim</text>
<path fill="none" stroke="#003A9E" stroke-width="3" stroke-linecap="round" d="M596.2,346.8c0.1,1.2-0.3,2.4-0.9,3
	c13.9,6.2,17.1,4.5,34.4,7.6c6.5,1.1,16.3,4.6,20.9,5c1.3,1.2,5,2.8,9.4,4.4"/>
<polygon fill="#003A9E" points="671,373.4 651.8,370.7 659.2,366.5 659.2,358.1 "/>
<path fill="#003A9E" stroke="#003A9E" d="M675,366.3c2.5,0,4.5,2,4.5,4.5c0,2.5-2,4.5-4.5,4.5c-2.5,0-4.5-2-4.5-4.5
	C670.5,368.4,672.5,366.3,675,366.3z"/>
<text transform="matrix(1 0 0 1 675.75 364.4365)" fill="#003A9E">Helmstadt</text>
<path fill="none" stroke="#00235E" stroke-width="3" stroke-linecap="round" d="M360.1,328.2c17.9-2.2,42.9-4.4,60.9-6.5
	c6.3-0.8,13.4-0.7,19.3-0.3"/>
<polygon fill="#00235E" points="452.9,322.5 434.5,328.3 439.3,321.4 435.7,313.7 "/>
<path fill="#00235E" stroke="#00235E" d="M462.9,312.2c2.5,0,4.5,2,4.5,4.5c0,2.5-2,4.5-4.5,4.5c-2.5,0-4.5-2-4.5-4.5
	C458.4,314.3,460.4,312.2,462.9,312.2z"/>
<text transform="matrix(1 0 0 1 454.5107 332.4346)" fill="#00235E">Bad Dürkheim</text>
<path fill="none" stroke="#00235E" stroke-width="3" stroke-linecap="round" d="M463,324.4c9.1-5.9,24-13.4,41.9-14.5"/>
<polygon fill="#00235E" points="517.6,310.2 499.6,317.3 504,310 499.8,302.6 "/>
<circle fill="#00235E" stroke="#00235E" cx="541.3" cy="305.4" r="4.5"/>
<text transform="matrix(1 0 0 1 544.0518 299.5996)" fill="#00235E">Mannheim</text>
<path fill="none" stroke="#00235E" stroke-width="3" d="M615.5,342.8c8-1.4,17.4-3.4,20.4-5.1c7.2-4.3,10.8-2.3,19.3-17"/>
<polygon fill="#00235E" points="602.9,344.8 621.7,349.2 616.4,342.6 619.5,334.7 "/>
<path fill="#00235E" stroke="#00235E" d="M595.1,336.8c2.5,0,4.5,2,4.5,4.5c0,2.5-2,4.5-4.5,4.5c-2.5,0-4.5-2-4.5-4.5
	C590.6,338.8,592.7,336.8,595.1,336.8z"/>
<text transform="matrix(1 0 0 1 530.7842 349.5586)" fill="#00235E">Heidelberg</text>
<path fill="#00235E" stroke="#00235E" d="M515.7,299.9c2.5,0,4.5,2,4.5,4.5c0,2.5-2,4.5-4.5,4.5c-2.5,0-4.5-2-4.5-4.5
	C511.2,301.9,513.3,299.9,515.7,299.9z"/>
<text transform="matrix(1 0 0 1 459.4883 298.1582)" fill="#00235E">Oggersheim</text>
<rect x="325" y="347.4" fill="none" width="22.5" height="15"/>
<rect x="321" y="355.5" fill="#FFFFFF" stroke="#2C74DD" stroke-width="0.75" stroke-miterlimit="10" width="30" height="15"/>
<circle fill="#2C74DD" cx="336" cy="363" r="3.7"/>
<text transform="matrix(1 0 0 1 356.4756 367.5215)" fill="#2C74DD" class="commander">Sorbier</text>
<line fill="none" x1="321.2" y1="370.6" x2="351.2" y2="355.6"/>
<rect x="562.3" y="260.6" fill="none" width="22.5" height="15"/>
<rect x="558.6" y="268.9" fill="#FFFFFF" stroke="#003A9E" stroke-width="0.75" stroke-miterlimit="10" width="30" height="15"/>
<text transform="matrix(1 0 0 1 593.8428 280.7666)" fill="#003A9E" class="commander">Vialannes</text>
<line fill="none" stroke="#003A9E" stroke-miterlimit="10" x1="558.6" y1="283.9" x2="588.6" y2="268.9"/>
<rect x="698.8" y="366" fill="none" width="22.5" height="15"/>
<text transform="matrix(1 0 0 1 707.5811 372.8135)" fill="#003A9E" class="size">X</text>
<rect x="695" y="374.2" fill="#FFFFFF" stroke="#003A9E" stroke-width="0.75" stroke-miterlimit="10" width="30" height="15"/>
<text transform="matrix(1 0 0 1 707.5068 386.542)" fill="#003A9E" class="ident">I</text>
<text transform="matrix(1 0 0 1 730.292 386.1143)" fill="#003A9E" class="commander">Eppler</text>
<line fill="none" x1="695" y1="389.2" x2="725" y2="374.2"/>
<rect x="437.3" y="331.1" fill="none" width="22.5" height="15"/>
<text transform="matrix(1 0 0 1 443.6709 337.9863)" fill="#00235E" class="size">XX</text>
<rect x="433.6" y="339.4" fill="#FFFFFF" stroke="#00235E" stroke-width="0.75" stroke-miterlimit="10" width="30" height="15"/>
<text transform="matrix(1 0 0 1 441.4824 351.7148)" fill="#00235E" class="ident">III</text>
<text transform="matrix(1 0 0 1 468.8428 351.2871)" fill="#00235E" class="commander">Gudin</text>
<line fill="none" x1="433.6" y1="354.4" x2="463.6" y2="339.4"/>
<rect x="562.3" y="241.1" fill="none" width="22.5" height="15"/>
<text transform="matrix(1 0 0 1 568.6709 247.9863)" fill="#00235E" class="size">XX</text>
<rect x="558.6" y="249.4" fill="#FFFFFF" stroke="#00235E" stroke-width="0.75" stroke-miterlimit="10" width="30" height="15"/>
<text transform="matrix(1 0 0 1 568.7695 261.7148)" fill="#00235E" class="ident">II</text>
<text transform="matrix(1 0 0 1 593.8428 261.2871)" fill="#00235E" class="commander">Friant</text>
<line fill="none" x1="558.6" y1="264.4" x2="588.6" y2="249.4"/>
<rect x="578.5" y="306.5" fill="none" width="22.5" height="15"/>
<text transform="matrix(1 0 0 1 584.8271 313.3691)" fill="#00235E" class="size">XX</text>
<rect x="574.7" y="314.8" fill="#FFFFFF" stroke="#00235E" stroke-width="0.75" stroke-miterlimit="10" width="30" height="15"/>
<text transform="matrix(1 0 0 1 587.2139 327.0977)" fill="#00235E" class="ident">I</text>
<text transform="matrix(1 0 0 1 609.999 326.6699)" fill="#00235E" class="commander">Bisson</text>
<line fill="none" x1="574.7" y1="329.8" x2="604.7" y2="314.8"/>
<rect x="446.2" y="263" fill="none" width="22.5" height="15"/>
<text transform="matrix(1 0 0 1 450.0811 269.8115)" fill="#00235E" class="size">XXX</text>
<rect x="442.5" y="271.2" fill="#FFFFFF" stroke="#00235E" stroke-width="0.75" stroke-miterlimit="10" width="30" height="15"/>
<text transform="matrix(1 0 0 1 454.9287 283.54)" fill="#00235E" class="ident">I</text>
<text transform="matrix(1 0 0 1 477.7139 283.1123)" fill="#00235E" class="commander">Davout</text>
<line fill="none" x1="442.5" y1="286.2" x2="472.5" y2="271.2"/>
</svg>
