<?xml version="1.0" encoding="utf-8"?>
<!-- Generator: Adobe Illustrator 16.0.4, SVG Export Plug-In . SVG Version: 6.00 Build 0)  -->
<!DOCTYPE svg PUBLIC "-//W3C//DTD SVG 1.1//EN" "http://www.w3.org/Graphics/SVG/1.1/DTD/svg11.dtd">
<svg version="1.1" id="Layer_1" xmlns="http://www.w3.org/2000/svg" xmlns:xlink="http://www.w3.org/1999/xlink" x="0px" y="0px"
	 width="1440px" height="910px" viewBox="0 0 1440 910" enable-background="new 0 0 1440 910" xml:space="preserve">
<defs>
  <link xmlns="http://www.w3.org/1999/xhtml" href='http://fonts.googleapis.com/css?family=Droid+Sans:400,700' rel='stylesheet' type='text/css' />
  <style type="text/css">
  <![CDATA[
  /*@font-face {
    font-family: DroidSans;
    src: url('http://fonts.googleapis.com/css?family=Droid+Sans:400,700');
  }*/
  text {
    font-family: DroidSans, 'DroidSans', 'Droid Sans', verdana, sans-serif;
    font-size: 12px;
    stroke-miterlimit: 10;
  }
  .commander {
    font-weight: bold;
    font-size: 12px;
  }
  .ident {
    font-size: 13.5px;
  }
  .size {
    font-size: 9px;
  }
  ]]>
  </style>
</defs>
<path fill="#2C74DD" stroke="#2C74DD" d="M462.9,312.6c2.5,0,4.5,2,4.5,4.5c0,2.5-2,4.5-4.5,4.5c-2.5,0-4.5-2-4.5-4.5
	C458.4,314.6,460.4,312.6,462.9,312.6z"/>
<text transform="matrix(1 0 0 1 454.5107 332.4346)" fill="#2C74DD">Bad Dürkheim</text>
<path fill="none" stroke="#003A9E" stroke-width="3" stroke-linecap="round" d="M587.1,327.3c2.1,1.7,7.5,5.4,7.5,5.2
	c0.1-1.7,3.5,2.7,5.3,2.3c13.8-3.9,23.1,1.4,27.7,9.6c0.1,0,0.2,0,0.3,0c0.7,0.1,1.3,0,1.8-0.4c2.9,0.1,4.9-0.3,7.1-1.3
	c2.5,1.2,2.9,3.6,1.7,6.6c0.3-0.4,0.5-1.4,0.5-2.1c0.6-0.2,1.3-0.1,1.8,0.2c0.4-0.1,0.5-0.3,0.4-0.6c1,0.7,2.1,0.8,3.2,0.4
	c2.4,0.2,6,3.1,5.9,2.9c-1.5-1.5,3.8,1,5.9,2.5c8.4,0.8,16.2,3.8,20.9,8.6c3.7,1,7.2,1.7,10.5,2.2"/>
<polygon fill="#003A9E" points="700.3,363.9 682,370.3 686.7,363.2 682.8,355.6 "/>
<path fill="#003A9E" stroke="#003A9E" d="M707.6,355.8c2.5,0,4.5,2,4.5,4.5c0,2.5-2,4.5-4.5,4.5c-2.5,0-4.5-2-4.5-4.5
	C703.1,357.8,705.1,355.8,707.6,355.8z"/>
<text transform="matrix(1 0 0 1 695.3242 352.9395)" fill="#003A9E">Obrigheim</text>
<path fill="none" stroke="#003A9E" stroke-width="3" stroke-linecap="round" d="M708.3,376.2c1,0.4,2.1,0,3.1-0.7"/>
<polygon fill="#003A9E" points="722.3,368.7 710.8,384.3 710.6,375.8 703.2,371.8 "/>
<path fill="#003A9E" stroke="#003A9E" d="M714.6,357.1c2.5,0,4.5,2,4.5,4.5c0,2.5-2,4.5-4.5,4.5c-2.5,0-4.5-2-4.5-4.5
	C710.1,359.1,712.1,357.1,714.6,357.1z"/>
<text transform="matrix(1 0 0 1 720.0166 365.208)" fill="#003A9E">Mosbach</text>
<path fill="none" stroke="#00235E" stroke-width="3" stroke-linecap="round" d="M534.1,314c0.8-0.2,1.2-1.3,0.1-1.5
	c21.4,0,64.3,27.3,72.6,30.3c2.9,1.1,4.3,1.9,5.4,2.6"/>
<polygon fill="#00235E" points="623.9,350.5 604.6,349.8 611.5,344.9 610.6,336.5 "/>
<path fill="#00235E" stroke="#00235E" d="M629.2,342c2.5,0,4.5,2,4.5,4.5c0,2.5-2,4.5-4.5,4.5c-2.5,0-4.5-2-4.5-4.5
	C624.7,344,626.7,342,629.2,342z"/>
<text transform="matrix(1 0 0 1 535.2236 364.0762)" fill="#00235E">Neckargemünd</text>
<path fill="none" stroke="#00235E" stroke-width="3" stroke-linecap="round" d="M628.2,345.1c9.2,10.9,22.8,14.9,48.2,13.3
	c-1.2,0.1-1.2-0.8-0.6-2.2"/>
<polygon fill="#00235E" points="682.8,345.6 679.7,364.7 675.7,357.3 667.2,357 "/>
<path fill="#00235E" stroke="#00235E" d="M682.7,340c2.5,0,4.5,2,4.5,4.5c0,2.5-2,4.5-4.5,4.5c-2.5,0-4.5-2-4.5-4.5
	C678.2,342.1,680.2,340,682.7,340z"/>
<text transform="matrix(1 0 0 1 671.7734 338.1445)" fill="#00235E">Neunkirchen</text>
<path fill="none" stroke="#00235E" stroke-width="3" stroke-linecap="round" d="M680.5,347.5c5.5,4.2,11.8,9.3,17.5,13.4"/>
<polygon fill="#00235E" points="708.8,367.6 689.7,364.2 697.3,360.3 697.6,351.8 "/>
<path fill="#00235E" stroke="#00235E" d="M712.5,360.9c2.5,0,4.5,2,4.5,4.5c0,2.5-2,4.5-4.5,4.5c-2.5,0-4.5-2-4.5-4.5
	C708,362.9,710,360.9,712.5,360.9z"/>
<text transform="matrix(1 0 0 1 652.6396 384.0293)" fill="#00235E">Neckarelz</text>
<circle fill="#00235E" stroke="#00235E" cx="541.3" cy="305.4" r="4.5"/>
<text transform="matrix(1 0 0 1 544.0527 299.5996)" fill="#00235E">Mannheim</text>
<rect x="405" y="287.4" fill="none" width="22.5" height="15"/>
<rect x="401" y="295.5" fill="#FFFFFF" stroke="#2C74DD" stroke-width="0.75" stroke-miterlimit="10" width="30" height="15"/>
<circle fill="#2C74DD" cx="416" cy="303" r="3.7"/>
<text transform="matrix(1 0 0 1 436.4756 307.5215)" fill="#2C74DD" class="commander">Sorbier</text>
<line fill="none" x1="401.2" y1="310.6" x2="431.2" y2="295.6"/>
<rect x="765.7" y="321" fill="none" width="22.5" height="15"/>
<rect x="761.9" y="329.3" fill="#FFFFFF" stroke="#003A9E" stroke-width="0.75" stroke-miterlimit="10" width="30" height="15"/>
<text transform="matrix(1 0 0 1 797.1738 341.1807)" fill="#003A9E" class="commander">Vialannes</text>
<line fill="none" stroke="#003A9E" stroke-miterlimit="10" x1="761.9" y1="344.3" x2="791.9" y2="329.3"/>
<rect x="729.8" y="364" fill="none" width="22.5" height="15"/>
<text transform="matrix(1 0 0 1 738.5811 370.8135)" fill="#003A9E" class="size">X</text>
<rect x="726" y="372.2" fill="#FFFFFF" stroke="#003A9E" stroke-width="0.75" stroke-miterlimit="10" width="30" height="15"/>
<text transform="matrix(1 0 0 1 738.5068 384.542)" fill="#003A9E" class="ident">I</text>
<text transform="matrix(1 0 0 1 761.292 384.1143)" fill="#003A9E" class="commander">Eppler</text>
<line fill="none" x1="726" y1="387.2" x2="756" y2="372.2"/>
<rect x="569.9" y="368.9" fill="none" width="22.5" height="15"/>
<text transform="matrix(1 0 0 1 576.2393 375.7598)" fill="#00235E" class="size">XX</text>
<rect x="566.2" y="377.2" fill="#FFFFFF" stroke="#00235E" stroke-width="0.75" stroke-miterlimit="10" width="30" height="15"/>
<text transform="matrix(1 0 0 1 574.0508 389.4883)" fill="#00235E" class="ident">III</text>
<text transform="matrix(1 0 0 1 601.4111 389.0605)" fill="#00235E" class="commander">Gudin</text>
<line fill="none" x1="566.2" y1="392.2" x2="596.2" y2="377.2"/>
<rect x="672.3" y="298.1" fill="none" width="22.5" height="15"/>
<text transform="matrix(1 0 0 1 678.6709 304.9863)" fill="#00235E" class="size">XX</text>
<rect x="668.6" y="306.4" fill="#FFFFFF" stroke="#00235E" stroke-width="0.75" stroke-miterlimit="10" width="30" height="15"/>
<text transform="matrix(1 0 0 1 678.7695 318.7148)" fill="#00235E" class="ident">II</text>
<text transform="matrix(1 0 0 1 703.8428 318.2871)" fill="#00235E" class="commander">Friant</text>
<line fill="none" x1="668.6" y1="321.4" x2="698.6" y2="306.4"/>
<rect x="658.5" y="389.5" fill="none" width="22.5" height="15"/>
<text transform="matrix(1 0 0 1 664.8271 396.3691)" fill="#00235E" class="size">XX</text>
<rect x="654.7" y="397.8" fill="#FFFFFF" stroke="#00235E" stroke-width="0.75" stroke-miterlimit="10" width="30" height="15"/>
<text transform="matrix(1 0 0 1 667.2139 410.0977)" fill="#00235E" class="ident">I</text>
<text transform="matrix(1 0 0 1 689.999 409.6699)" fill="#00235E" class="commander">Bisson</text>
<line fill="none" x1="654.7" y1="412.8" x2="684.7" y2="397.8"/>
<rect x="526.2" y="259" fill="none" width="22.5" height="15"/>
<text transform="matrix(1 0 0 1 530.0811 265.8115)" fill="#00235E" class="size">XXX</text>
<rect x="522.5" y="267.2" fill="#FFFFFF" stroke="#00235E" stroke-width="0.75" stroke-miterlimit="10" width="30" height="15"/>
<text transform="matrix(1 0 0 1 534.9287 279.54)" fill="#00235E" class="ident">I</text>
<text transform="matrix(1 0 0 1 557.7139 279.1123)" fill="#00235E" class="commander">Davout</text>
<line fill="none" x1="522.5" y1="282.2" x2="552.5" y2="267.2"/>
</svg>
