<?xml version="1.0" encoding="utf-8"?>
<!-- Generator: Adobe Illustrator 16.0.4, SVG Export Plug-In . SVG Version: 6.00 Build 0)  -->
<!DOCTYPE svg PUBLIC "-//W3C//DTD SVG 1.1//EN" "http://www.w3.org/Graphics/SVG/1.1/DTD/svg11.dtd">
<svg version="1.1" id="Layer_1" xmlns="http://www.w3.org/2000/svg" xmlns:xlink="http://www.w3.org/1999/xlink" x="0px" y="0px"
	 width="1440px" height="910px" viewBox="0 0 1440 910" enable-background="new 0 0 1440 910" xml:space="preserve">
<defs>
  <link xmlns="http://www.w3.org/1999/xhtml" href='http://fonts.googleapis.com/css?family=Droid+Sans:400,700' rel='stylesheet' type='text/css' />
  <style type="text/css">
  <![CDATA[
  /*@font-face {
    font-family: DroidSans;
    src: url('http://fonts.googleapis.com/css?family=Droid+Sans:400,700');
  }*/
  text {
    font-family: DroidSans, 'DroidSans', 'Droid Sans', verdana, sans-serif;
    font-size: 12px;
    stroke-miterlimit: 10;
  }
  .commander {
    font-weight: bold;
    font-size: 12px;
  }
  .ident {
    font-size: 13.5px;
  }
  .size {
    font-size: 9px;
  }
  ]]>
  </style>
</defs>
<circle fill="#2C74DD" stroke="#2C74DD" cx="254.1" cy="401.6" r="4.5"/>
<text transform="matrix(1 0 0 1 257.833 397.1514)" fill="#2C74DD">Zweibrücken</text>
<circle fill="#003A9E" stroke="#003A9E" cx="595.1" cy="341.3" r="4.5"/>
<text transform="matrix(1 0 0 1 530.7842 349.5586)" fill="#003A9E">Heidelberg</text>
<circle fill="#00235E" stroke="#00235E" cx="354.2" cy="324.5" r="4.5"/>
<text transform="matrix(1 0 0 1 265.6172 322.7471)" fill="#00235E">Kaiserslautern</text>
<path fill="#00235E" stroke="#00235E" d="M462.8,312.2c2.5,0,4.5,2,4.5,4.5c0,2.5-2,4.5-4.5,4.5s-4.5-2-4.5-4.5
	C458.3,314.3,460.3,312.2,462.8,312.2z"/>
<text transform="matrix(1 0 0 1 454.5107 332.4346)" fill="#00235E">Bad Dürkheim</text>
<path fill="#00235E" stroke="#00235E" d="M649.7,328.5c2.5,0,4.5,2,4.5,4.5c0,2.5-2,4.5-4.5,4.5c-2.5,0-4.5-2-4.5-4.5
	C645.2,330.5,647.2,328.5,649.7,328.5z"/>
<text transform="matrix(1 0 0 1 652.7939 329.5469)" fill="#00235E">Neckarhausen</text>
<path fill="#00235E" stroke="#00235E" d="M515.7,299.9c2.5,0,4.5,2,4.5,4.5c0,2.5-2,4.5-4.5,4.5c-2.5,0-4.5-2-4.5-4.5
	C511.2,301.9,513.3,299.9,515.7,299.9z"/>
<text transform="matrix(1 0 0 1 459.4883 298.1582)" fill="#00235E">Oggersheim</text>
<rect x="265" y="397.4" fill="none" width="22.5" height="15"/>
<rect x="261" y="405.5" fill="#FFFFFF" stroke="#2C74DD" stroke-width="0.75" stroke-miterlimit="10" width="30" height="15"/>
<circle fill="#2C74DD" cx="276" cy="413" r="3.7"/>
<text transform="matrix(1 0 0 1 296.4756 417.5215)" fill="#2C74DD" class="commander">Sorbier</text>
<line fill="none" x1="261.2" y1="420.6" x2="291.2" y2="405.6"/>
<rect x="579.8" y="363" fill="none" width="22.5" height="15"/>
<text transform="matrix(1 0 0 1 588.5811 369.8135)" fill="#003A9E" class="size">X</text>
<rect x="576" y="371.2" fill="#FFFFFF" stroke="#003A9E" stroke-width="0.75" stroke-miterlimit="10" width="30" height="15"/>
<text transform="matrix(1 0 0 1 588.5068 383.542)" fill="#003A9E" class="ident">I</text>
<text transform="matrix(1 0 0 1 611.292 383.1143)" fill="#003A9E" class="commander">Eppler</text>
<line fill="none" x1="576" y1="386.2" x2="606" y2="371.2"/>
<rect x="317.9" y="280.9" fill="none" width="22.5" height="15"/>
<text transform="matrix(1 0 0 1 324.2393 287.7598)" fill="#00235E" class="size">XX</text>
<rect x="314.2" y="289.2" fill="#FFFFFF" stroke="#00235E" stroke-width="0.75" stroke-miterlimit="10" width="30" height="15"/>
<text transform="matrix(1 0 0 1 322.0508 301.4883)" fill="#00235E" class="ident">III</text>
<text transform="matrix(1 0 0 1 349.4111 301.0605)" fill="#00235E" class="commander">Gudin</text>
<line fill="none" x1="314.2" y1="304.2" x2="344.2" y2="289.2"/>
<rect x="437.3" y="331.1" fill="none" width="22.5" height="15"/>
<text transform="matrix(1 0 0 1 443.6709 337.9863)" fill="#00235E" class="size">XX</text>
<rect x="433.6" y="339.4" fill="#FFFFFF" stroke="#00235E" stroke-width="0.75" stroke-miterlimit="10" width="30" height="15"/>
<text transform="matrix(1 0 0 1 443.7695 351.7148)" fill="#00235E" class="ident">II</text>
<text transform="matrix(1 0 0 1 468.8428 351.2871)" fill="#00235E" class="commander">Friant</text>
<line fill="none" x1="433.6" y1="354.4" x2="463.6" y2="339.4"/>
<rect x="658.5" y="283.5" fill="none" width="22.5" height="15"/>
<text transform="matrix(1 0 0 1 664.8271 290.3691)" fill="#00235E" class="size">XX</text>
<rect x="654.7" y="291.8" fill="#FFFFFF" stroke="#00235E" stroke-width="0.75" stroke-miterlimit="10" width="30" height="15"/>
<text transform="matrix(1 0 0 1 667.2139 304.0977)" fill="#00235E" class="ident">I</text>
<text transform="matrix(1 0 0 1 689.999 303.6699)" fill="#00235E" class="commander">Bisson</text>
<line fill="none" x1="654.7" y1="306.8" x2="684.7" y2="291.8"/>
<rect x="446.2" y="263" fill="none" width="22.5" height="15"/>
<text transform="matrix(1 0 0 1 450.0811 269.8115)" fill="#00235E" class="size">XXX</text>
<rect x="442.5" y="271.2" fill="#FFFFFF" stroke="#00235E" stroke-width="0.75" stroke-miterlimit="10" width="30" height="15"/>
<text transform="matrix(1 0 0 1 454.9287 283.54)" fill="#00235E" class="ident">I</text>
<text transform="matrix(1 0 0 1 477.7139 283.1123)" fill="#00235E" class="commander">Davout</text>
<line fill="none" x1="442.5" y1="286.2" x2="472.5" y2="271.2"/>
</svg>
