<?xml version="1.0" encoding="utf-8"?>
<!-- Generator: Adobe Illustrator 16.0.4, SVG Export Plug-In . SVG Version: 6.00 Build 0)  -->
<!DOCTYPE svg PUBLIC "-//W3C//DTD SVG 1.1//EN" "http://www.w3.org/Graphics/SVG/1.1/DTD/svg11.dtd">
<svg version="1.1" id="Layer_1" xmlns="http://www.w3.org/2000/svg" xmlns:xlink="http://www.w3.org/1999/xlink" x="0px" y="0px"
	 width="1440px" height="910px" viewBox="0 0 1440 910" enable-background="new 0 0 1440 910" xml:space="preserve">
<defs>
  <link xmlns="http://www.w3.org/1999/xhtml" href='http://fonts.googleapis.com/css?family=Droid+Sans:400,700' rel='stylesheet' type='text/css' />
  <style type="text/css">
  <![CDATA[
  /*@font-face {
    font-family: DroidSans;
    src: url('http://fonts.googleapis.com/css?family=Droid+Sans:400,700');
  }*/
  text {
    font-family: DroidSans, 'DroidSans', 'Droid Sans', verdana, sans-serif;
    font-size: 12px;
    stroke-miterlimit: 10;
  }
  .commander {
    font-weight: bold;
    font-size: 12px;
  }
  .ident {
    font-size: 13.5px;
  }
  .size {
    font-size: 9px;
  }
  ]]>
  </style>
</defs>
<path fill="none" stroke="#003A9E" stroke-width="3" stroke-linecap="round" d="M931.5,428.2c0.4,0.1,8.7,6.7,17.3,6.6
	c0.6,6.5,11.2,6.1,11.8,12.6c1.1,0.9,9.8,1.5,9.8,1.6c0,0.1,12.2,3.5,12.2,3.5c21.1,5.7,40.6,16.9,55,33c4.7,5.2,8.2,9.7,10.9,13.7"
	/>
<polygon fill="#003A9E" points="1054.3,510.4 1039.3,498.1 1047.8,498.4 1052.2,491.2 "/>
<path fill="#003A9E" stroke="#003A9E" d="M1051.1,513.7c2.5,0,4.5,2,4.5,4.5c0,2.5-2,4.5-4.5,4.5c-2.5,0-4.5-2-4.5-4.5
	C1046.6,515.7,1048.6,513.7,1051.1,513.7z"/>
<text transform="matrix(1 0 0 1 1055.8691 521.7656)" fill="#003A9E">Nördlingen</text>
<path fill="none" stroke="#003A9E" stroke-width="3" stroke-linecap="round" d="M925.6,451.7c10.5,0.6,18.3,2,24.2,4.5h1
	c17.9,7,25.1,4.5,40.2,11.7c8.1,3.9,17.1,10,26,16.1"/>
<polygon fill="#003A9E" points="1027.4,491.3 1008.4,487.2 1016.1,483.5 1016.7,475.1 "/>
<path fill="#003A9E" stroke="#003A9E" d="M1034.8,488.9c2.5,0,4.5,2,4.5,4.5c0,2.5-2,4.5-4.5,4.5c-2.5,0-4.5-2-4.5-4.5
	C1030.3,490.9,1032.4,488.9,1034.8,488.9z"/>
<text transform="matrix(1 0 0 1 969.2832 506.9795)" fill="#003A9E">Mönchsroth</text>
<path fill="none" stroke="#00235E" stroke-width="3" stroke-linecap="round" d="M906.9,415.7c10.1,12.1,29.2,21.5,48.6,25.6
	c21.5,4.5,44.3,11.5,60.8,21.5c3,1.8,6.2,4.2,9.4,6.9"/>
<polygon fill="#00235E" points="1035.3,478 1017,471.8 1025,469 1026.6,460.7 "/>
<path fill="#00235E" stroke="#00235E" d="M1035.2,484.6c2.5,0,4.5,2,4.5,4.5c0,2.5-2,4.5-4.5,4.5c-2.5,0-4.5-2-4.5-4.5
	C1030.7,486.6,1032.7,484.6,1035.2,484.6z"/>
<text transform="matrix(1 0 0 1 1037.2471 482.7168)" fill="#00235E">Diederstetten</text>
<circle fill="#00235E" stroke="#00235E" cx="1016.7" cy="456.8" r="4.5"/>
<path fill="none" stroke="#00235E" stroke-width="3" stroke-linecap="round" d="M916,437.9c12,1.7,26,9.4,35.6,11.1
	c19.5,3.5,40.4,9.6,58.3,19.6c4.5,2.5,8.4,4.9,11.9,7.3"/>
<polygon fill="#00235E" points="1031.6,484 1013,478.5 1020.9,475.5 1022.2,467.1 "/>
<path fill="#00235E" stroke="#00235E" d="M1034.8,488.8c2.5,0,4.5,2,4.5,4.5c0,2.5-2,4.5-4.5,4.5c-2.5,0-4.5-2-4.5-4.5
	C1030.3,490.8,1032.3,488.8,1034.8,488.8z"/>
<text transform="matrix(1 0 0 1 969.2627 506.8359)" fill="#00235E">Monchsroth</text>
<path fill="none" stroke="#00235E" stroke-width="3" stroke-linecap="round" d="M916.9,447.2c19.2-2,37.7,7.3,47.3,8.8
	c26.6,4.3,40.5,14.9,55,23.7c0.3,0.2,0.7,0.5,1.1,0.8"/>
<polygon fill="#00235E" points="1028.7,490 1011.1,481.9 1019.4,480.1 1021.8,472 "/>
<path fill="#00235E" stroke="#00235E" d="M1034.8,488.8c2.5,0,4.5,2,4.5,4.5c0,2.5-2,4.5-4.5,4.5c-2.5,0-4.5-2-4.5-4.5
	C1030.3,490.8,1032.3,488.8,1034.8,488.8z"/>
<text transform="matrix(1 0 0 1 969.2627 506.8359)" fill="#00235E">Monchsroth</text>
<rect x="1053.8" y="426.7" fill="none" width="22.5" height="15"/>
<rect x="1050" y="435" fill="#FFFFFF" stroke="#003A9E" stroke-width="0.75" stroke-miterlimit="10" width="30" height="15"/>
<text transform="matrix(1 0 0 1 1085.2764 446.8721)" fill="#003A9E" class="commander">Nansouty</text>
<line fill="none" stroke="#003A9E" stroke-miterlimit="10" x1="1050" y1="450" x2="1080" y2="435"/>
<rect x="1054" y="447.4" fill="none" width="22.5" height="15"/>
<rect x="1050" y="455.5" fill="#FFFFFF" stroke="#2C74DD" stroke-width="0.75" stroke-miterlimit="10" width="30" height="15"/>
<circle fill="#2C74DD" cx="1065" cy="463" r="3.7"/>
<text transform="matrix(1 0 0 1 1085.4756 467.5215)" fill="#2C74DD" class="commander">Sorbier</text>
<line fill="none" x1="1050.2" y1="470.6" x2="1080.2" y2="455.6"/>
<rect x="1068.7" y="517.5" fill="none" width="22.5" height="15"/>
<rect x="1064.9" y="525.8" fill="#FFFFFF" stroke="#003A9E" stroke-width="0.75" stroke-miterlimit="10" width="30" height="15"/>
<text transform="matrix(1 0 0 1 1100.1738 537.6807)" fill="#003A9E" class="commander">Vialannes</text>
<line fill="none" stroke="#003A9E" stroke-miterlimit="10" x1="1064.9" y1="540.8" x2="1094.9" y2="525.8"/>
<rect x="949.8" y="554" fill="none" width="22.5" height="15"/>
<text transform="matrix(1 0 0 1 958.5811 560.8135)" fill="#003A9E" class="size">X</text>
<rect x="946" y="562.2" fill="#FFFFFF" stroke="#003A9E" stroke-width="0.75" stroke-miterlimit="10" width="30" height="15"/>
<text transform="matrix(1 0 0 1 958.5068 574.542)" fill="#003A9E" class="ident">I</text>
<text transform="matrix(1 0 0 1 981.292 574.1143)" fill="#003A9E" class="commander">Eppler</text>
<line fill="none" x1="946" y1="577.2" x2="976" y2="562.2"/>
<rect x="1053.8" y="406.4" fill="none" width="22.5" height="15"/>
<text transform="matrix(1 0 0 1 1060.1045 413.2598)" fill="#00235E" class="size">XX</text>
<rect x="1050" y="414.7" fill="#FFFFFF" stroke="#00235E" stroke-width="0.75" stroke-miterlimit="10" width="30" height="15"/>
<text transform="matrix(1 0 0 1 1057.916 426.9883)" fill="#00235E" class="ident">III</text>
<text transform="matrix(1 0 0 1 1085.2764 426.5605)" fill="#00235E" class="commander">Gudin</text>
<line fill="none" x1="1050" y1="429.7" x2="1080" y2="414.7"/>
<rect x="976.3" y="426.1" fill="none" width="22.5" height="15"/>
<text transform="matrix(1 0 0 1 982.6709 432.9863)" fill="#00235E" class="size">XX</text>
<rect x="972.6" y="434.4" fill="#FFFFFF" stroke="#00235E" stroke-width="0.75" stroke-miterlimit="10" width="30" height="15"/>
<text transform="matrix(1 0 0 1 982.7695 446.7148)" fill="#00235E" class="ident">II</text>
<text transform="matrix(1 0 0 1 1007.8428 446.2871)" fill="#00235E" class="commander">Friant</text>
<line fill="none" x1="972.6" y1="449.4" x2="1002.6" y2="434.4"/>
<rect x="949.8" y="503.5" fill="none" width="22.5" height="15"/>
<text transform="matrix(1 0 0 1 956.1201 510.3691)" fill="#00235E" class="size">XX</text>
<rect x="946" y="511.8" fill="#FFFFFF" stroke="#00235E" stroke-width="0.75" stroke-miterlimit="10" width="30" height="15"/>
<text transform="matrix(1 0 0 1 958.5068 524.0977)" fill="#00235E" class="ident">I</text>
<text transform="matrix(1 0 0 1 981.292 523.6699)" fill="#00235E" class="commander">Bisson</text>
<line fill="none" x1="946" y1="526.8" x2="976" y2="511.8"/>
<rect x="949.8" y="529" fill="none" width="22.5" height="15"/>
<text transform="matrix(1 0 0 1 953.6592 535.8115)" fill="#00235E" class="size">XXX</text>
<rect x="946" y="537.2" fill="#FFFFFF" stroke="#00235E" stroke-width="0.75" stroke-miterlimit="10" width="30" height="15"/>
<text transform="matrix(1 0 0 1 958.5068 549.54)" fill="#00235E" class="ident">I</text>
<text transform="matrix(1 0 0 1 981.292 549.1123)" fill="#00235E" class="commander">Davout</text>
<line fill="none" x1="946" y1="552.2" x2="976" y2="537.2"/>
</svg>
