<?xml version="1.0" encoding="utf-8"?>
<!-- Generator: Adobe Illustrator 16.0.4, SVG Export Plug-In . SVG Version: 6.00 Build 0)  -->
<!DOCTYPE svg PUBLIC "-//W3C//DTD SVG 1.1//EN" "http://www.w3.org/Graphics/SVG/1.1/DTD/svg11.dtd">
<svg version="1.1" id="Layer_1" xmlns="http://www.w3.org/2000/svg" xmlns:xlink="http://www.w3.org/1999/xlink" x="0px" y="0px"
	 width="1440px" height="910px" viewBox="0 0 1440 910" enable-background="new 0 0 1440 910" xml:space="preserve">
<defs>
  <link xmlns="http://www.w3.org/1999/xhtml" href='http://fonts.googleapis.com/css?family=Droid+Sans:400,700' rel='stylesheet' type='text/css' />
  <style type="text/css">
  <![CDATA[
  /*@font-face {
    font-family: DroidSans;
    src: url('http://fonts.googleapis.com/css?family=Droid+Sans:400,700');
  }*/
  text {
    font-family: DroidSans, 'DroidSans', 'Droid Sans', verdana, sans-serif;
    font-size: 12px;
    stroke-miterlimit: 10;
  }
  .commander {
    font-weight: bold;
    font-size: 12px;
  }
  .ident {
    font-size: 13.5px;
  }
  .size {
    font-size: 9px;
  }
  ]]>
  </style>
</defs>
<polygon fill="#003A9E" points="547.3,307.5 555.4,325.1 557.3,316.8 565.4,314.4 "/>
<circle fill="#003A9E" stroke="#003A9E" cx="541.4" cy="306" r="4.5"/>
<text transform="matrix(1 0 0 1 544.0518 299.6006)" fill="#003A9E">Mannheim</text>
<path fill="none" stroke="#2C74DD" stroke-width="3" stroke-linecap="round" d="M623.4,346.7c13.8,6.4,27.9,6.4,41,6.4
	c14.8-0.1,20.3-0.9,33.5,6.8"/>
<polygon fill="#2C74DD" points="708.5,366.8 689.5,363.4 697,359.5 697.3,351 "/>
<path fill="#2C74DD" stroke="#2C74DD" d="M714.6,357.1c2.5,0,4.5,2,4.5,4.5c0,2.5-2,4.5-4.5,4.5c-2.5,0-4.5-2-4.5-4.5
	C710.1,359.1,712.1,357.1,714.6,357.1z"/>
<text transform="matrix(1 0 0 1 720.0176 365.208)" fill="#2C74DD">Mosbach</text>
<path fill="#003A9E" stroke="#003A9E" d="M712.5,361c2.5,0,4.5,2,4.5,4.5c0,2.5-2,4.5-4.5,4.5c-2.5,0-4.5-2-4.5-4.5
	C708,363,710,361,712.5,361z"/>
<text transform="matrix(1 0 0 1 652.6396 379.0293)" fill="#003A9E">Neckarelz</text>
<path fill="none" stroke="#003A9E" stroke-width="3" stroke-linecap="round" d="M768.9,379c11.5-7.3,15-4.1,21.9-1"/>
<polygon fill="#003A9E" points="803.2,381.1 784,383.4 790,377.5 787.8,369.3 "/>
<path fill="#003A9E" stroke="#003A9E" d="M806.1,384.7c2.5,0,4.5,2,4.5,4.5c0,2.5-2,4.5-4.5,4.5c-2.5,0-4.5-2-4.5-4.5
	C801.6,386.7,803.6,384.7,806.1,384.7z"/>
<text transform="matrix(1 0 0 1 810.1592 382.7451)" fill="#003A9E">Sindringen</text>
<path fill="#00235E" stroke="#00235E" d="M704.9,355.8c2.5,0,4.5,2,4.5,4.5c0,2.5-2,4.5-4.5,4.5c-2.5,0-4.5-2-4.5-4.5
	C700.4,357.9,702.4,355.8,704.9,355.8z"/>
<text transform="matrix(1 0 0 1 669.3242 352.9395)" fill="#00235E">Obrigheim</text>
<path fill="none" stroke="#00235E" stroke-width="3" stroke-linecap="round" d="M707.8,367.8c1.5-2.3-3.4-3.9-0.9-0.1
	c1.6-1.7,6.5-5.5,11.3-9"/>
<polygon fill="#00235E" points="729.1,352 717.9,367.7 717.5,359.3 710,355.4 "/>
<path fill="#00235E" stroke="#00235E" d="M730.6,342.3c2.5,0,4.5,2,4.5,4.5c0,2.5-2,4.5-4.5,4.5c-2.5,0-4.5-2-4.5-4.5
	C726.1,344.3,728.1,342.3,730.6,342.3z"/>
<text transform="matrix(1 0 0 1 734.6953 340.3555)" fill="#00235E">Necharburken</text>
<path fill="#00235E" stroke="#00235E" d="M714.4,356.8c2.5,0,4.5,2,4.5,4.5c0,2.5-2,4.5-4.5,4.5c-2.5,0-4.5-2-4.5-4.5
	C709.9,358.8,712,356.8,714.4,356.8z"/>
<text transform="matrix(1 0 0 1 720.0176 365.208)" fill="#00235E">Mosbach</text>
<path fill="none" stroke="#00235E" stroke-width="3" stroke-linecap="round" d="M608.5,342.9c5.9,5,17,9.8,29.1,13
	c12.6,3.3,31.9-1,51.7,3.3"/>
<polygon fill="#00235E" points="701.4,363.1 682.1,364.8 688.3,359.1 686.4,350.8 "/>
<path fill="#00235E" stroke="#00235E" d="M714.4,356.8c2.5,0,4.5,2,4.5,4.5c0,2.5-2,4.5-4.5,4.5c-2.5,0-4.5-2-4.5-4.5
	C709.9,358.8,712,356.8,714.4,356.8z"/>
<text transform="matrix(1 0 0 1 720.0176 365.208)" fill="#00235E">Mosbach</text>
<rect x="519.2" y="260.7" fill="none" width="22.5" height="15"/>
<rect x="515.4" y="269" fill="#FFFFFF" stroke="#003A9E" stroke-width="0.75" stroke-miterlimit="10" width="30" height="15"/>
<text transform="matrix(1 0 0 1 550.6738 280.8721)" fill="#003A9E" class="commander">Nansouty</text>
<line fill="none" stroke="#003A9E" stroke-miterlimit="10" x1="515.4" y1="284" x2="545.4" y2="269"/>
<rect x="708.7" y="418.4" fill="none" width="22.5" height="15"/>
<rect x="704.7" y="426.5" fill="#FFFFFF" stroke="#2C74DD" stroke-width="0.75" stroke-miterlimit="10" width="30" height="15"/>
<circle fill="#2C74DD" cx="719.7" cy="434" r="3.7"/>
<text transform="matrix(1 0 0 1 740.1982 438.5215)" fill="#2C74DD" class="commander">Sorbier</text>
<line fill="none" x1="704.9" y1="441.6" x2="734.9" y2="426.6"/>
<rect x="610.5" y="372" fill="none" width="22.5" height="15"/>
<rect x="606.7" y="380.3" fill="#FFFFFF" stroke="#003A9E" stroke-width="0.75" stroke-miterlimit="10" width="30" height="15"/>
<text transform="matrix(1 0 0 1 641.999 392.1807)" fill="#003A9E" class="commander">Vialannes</text>
<line fill="none" stroke="#003A9E" stroke-miterlimit="10" x1="606.7" y1="395.3" x2="636.7" y2="380.3"/>
<rect x="819.8" y="384" fill="none" width="22.5" height="15"/>
<text transform="matrix(1 0 0 1 828.5811 390.8135)" fill="#003A9E" class="size">X</text>
<rect x="816" y="392.2" fill="#FFFFFF" stroke="#003A9E" stroke-width="0.75" stroke-miterlimit="10" width="30" height="15"/>
<text transform="matrix(1 0 0 1 828.5068 404.542)" fill="#003A9E" class="ident">I</text>
<text transform="matrix(1 0 0 1 851.292 404.1143)" fill="#003A9E" class="commander">Eppler</text>
<line fill="none" x1="816" y1="407.2" x2="846" y2="392.2"/>
<rect x="642.4" y="318.9" fill="none" width="22.5" height="15"/>
<text transform="matrix(1 0 0 1 648.7393 325.7598)" fill="#00235E" class="size">XX</text>
<rect x="638.7" y="327.2" fill="#FFFFFF" stroke="#00235E" stroke-width="0.75" stroke-miterlimit="10" width="30" height="15"/>
<text transform="matrix(1 0 0 1 646.5508 339.4883)" fill="#00235E" class="ident">III</text>
<text transform="matrix(1 0 0 1 673.9111 339.0605)" fill="#00235E" class="commander">Gudin</text>
<line fill="none" x1="638.7" y1="342.2" x2="668.7" y2="327.2"/>
<rect x="752.3" y="303.1" fill="none" width="22.5" height="15"/>
<text transform="matrix(1 0 0 1 758.6709 309.9863)" fill="#00235E" class="size">XX</text>
<rect x="748.6" y="311.4" fill="#FFFFFF" stroke="#00235E" stroke-width="0.75" stroke-miterlimit="10" width="30" height="15"/>
<text transform="matrix(1 0 0 1 758.7695 323.7148)" fill="#00235E" class="ident">II</text>
<text transform="matrix(1 0 0 1 783.8428 323.2871)" fill="#00235E" class="commander">Friant</text>
<line fill="none" x1="748.6" y1="326.4" x2="778.6" y2="311.4"/>
<rect x="708.5" y="368.5" fill="none" width="22.5" height="15"/>
<text transform="matrix(1 0 0 1 714.8271 375.3691)" fill="#00235E" class="size">XX</text>
<rect x="704.7" y="376.8" fill="#FFFFFF" stroke="#00235E" stroke-width="0.75" stroke-miterlimit="10" width="30" height="15"/>
<text transform="matrix(1 0 0 1 717.2139 389.0977)" fill="#00235E" class="ident">I</text>
<text transform="matrix(1 0 0 1 739.999 388.6699)" fill="#00235E" class="commander">Bisson</text>
<line fill="none" x1="704.7" y1="391.8" x2="734.7" y2="376.8"/>
<rect x="708.5" y="395" fill="none" width="22.5" height="15"/>
<text transform="matrix(1 0 0 1 712.3662 401.8115)" fill="#00235E" class="size">XXX</text>
<rect x="704.7" y="403.2" fill="#FFFFFF" stroke="#00235E" stroke-width="0.75" stroke-miterlimit="10" width="30" height="15"/>
<text transform="matrix(1 0 0 1 717.2139 415.54)" fill="#00235E" class="ident">I</text>
<text transform="matrix(1 0 0 1 739.999 415.1123)" fill="#00235E" class="commander">Davout</text>
<line fill="none" x1="704.7" y1="418.2" x2="734.7" y2="403.2"/>
</svg>
