<?xml version="1.0" encoding="utf-8"?>
<!-- Generator: Adobe Illustrator 16.0.4, SVG Export Plug-In . SVG Version: 6.00 Build 0)  -->
<!DOCTYPE svg PUBLIC "-//W3C//DTD SVG 1.1//EN" "http://www.w3.org/Graphics/SVG/1.1/DTD/svg11.dtd">
<svg version="1.1" id="Layer_1" xmlns="http://www.w3.org/2000/svg" xmlns:xlink="http://www.w3.org/1999/xlink" x="0px" y="0px"
	 width="1440px" height="910px" viewBox="0 0 1440 910" enable-background="new 0 0 1440 910" xml:space="preserve">
<defs>
  <link xmlns="http://www.w3.org/1999/xhtml" href='http://fonts.googleapis.com/css?family=Droid+Sans:400,700' rel='stylesheet' type='text/css' />
  <style type="text/css">
  <![CDATA[
  /*@font-face {
    font-family: DroidSans;
    src: url('http://fonts.googleapis.com/css?family=Droid+Sans:400,700');
  }*/
  text {
    font-family: DroidSans, 'DroidSans', 'Droid Sans', verdana, sans-serif;
    font-size: 12px;
    stroke-miterlimit: 10;
  }
  .commander {
    font-weight: bold;
    font-size: 12px;
  }
  .ident {
    font-size: 13.5px;
  }
  .size {
    font-size: 9px;
  }
  ]]>
  </style>
</defs>
<path fill="#003A9E" stroke="#003A9E" d="M565.7,311c2.5,0,4.5,2,4.5,4.5c0,2.5-2,4.5-4.5,4.5c-2.5,0-4.5-2-4.5-4.5
	C561.2,313,563.2,311,565.7,311z"/>
<text transform="matrix(1 0 0 1 548.4482 309.0713)" fill="#003A9E">Seckenheim</text>
<path fill="none" stroke="#2C74DD" stroke-width="3" stroke-linecap="round" d="M540.1,328.4c-0.1-0.1-0.6,0.2-0.5,0.2
	c0.1,0.1-0.2-0.5-0.1-0.4c-15.1-35,42.9-9.7,70.7,5.3c2,1.1,3.7,2.2,5.1,3.2"/>
<polygon fill="#2C74DD" points="623.4,346.7 606.2,337.9 614.5,336.4 617.3,328.4 "/>
<path fill="none" stroke="#003A9E" stroke-width="3" stroke-linecap="round" d="M701.8,363.7c1.1-0.1,2.1-0.3,3.1-0.5"/>
<polygon fill="#003A9E" points="716.8,358.5 702.5,371.6 704,363.2 697.5,357.8 "/>
<path fill="#003A9E" stroke="#003A9E" d="M712.5,361c2.5,0,4.5,2,4.5,4.5c0,2.5-2,4.5-4.5,4.5c-2.5,0-4.5-2-4.5-4.5
	C708,363,710,361,712.5,361z"/>
<text transform="matrix(1 0 0 1 652.6396 384.0293)" fill="#003A9E">Neckarelz</text>
<path fill="none" stroke="#003A9E" stroke-width="3" stroke-linecap="round" d="M721.9,369c0.1-0.1,0.3-0.2,0.4-0.2
	c19.2-8.8,22.5-7.2,32.6-3.3c3.1,1.2,5.5,2.1,7.4,2.7"/>
<polygon fill="#003A9E" points="768.9,379 752.4,368.8 760.9,368 764.3,360.2 "/>
<path fill="#003A9E" stroke="#003A9E" d="M773.2,367.7c2.5,0,4.5,2,4.5,4.5c0,2.5-2,4.5-4.5,4.5s-4.5-2-4.5-4.5
	C768.7,369.7,770.7,367.7,773.2,367.7z"/>
<text transform="matrix(1 0 0 1 777.6934 370.8262)" fill="#003A9E">Möckmühl</text>
<path fill="none" stroke="#00235E" stroke-width="3" stroke-linecap="round" d="M636.3,356.7c11,3.2,28.9,5.7,45.3,9.4"/>
<polygon fill="#00235E" points="694,369.2 674.8,372 680.7,365.9 678.3,357.8 "/>
<path fill="#00235E" stroke="#00235E" d="M704.9,355.8c2.5,0,4.5,2,4.5,4.5c0,2.5-2,4.5-4.5,4.5c-2.5,0-4.5-2-4.5-4.5
	C700.4,357.9,702.4,355.8,704.9,355.8z"/>
<text transform="matrix(1 0 0 1 669.3242 352.9395)" fill="#00235E">Obrigheim</text>
<path fill="none" stroke="#00235E" stroke-width="3" stroke-linecap="round" d="M682.8,345.6c5.6,9.9,9.3,11.5,14.2,14.1"/>
<polygon fill="#00235E" points="707,367.6 688.3,362.6 696.1,359.3 697.2,350.9 "/>
<path fill="#00235E" stroke="#00235E" d="M714.4,356.8c2.5,0,4.5,2,4.5,4.5c0,2.5-2,4.5-4.5,4.5c-2.5,0-4.5-2-4.5-4.5
	C709.9,358.8,712,356.8,714.4,356.8z"/>
<text transform="matrix(1 0 0 1 720.0176 365.208)" fill="#00235E">Mosbach</text>
<polygon fill="#00235E" points="725.6,368.2 713.2,383 713.6,374.6 706.4,370.1 "/>
<path fill="#00235E" stroke="#00235E" d="M714.4,356.8c2.5,0,4.5,2,4.5,4.5c0,2.5-2,4.5-4.5,4.5c-2.5,0-4.5-2-4.5-4.5
	C709.9,358.8,712,356.8,714.4,356.8z"/>
<text transform="matrix(1 0 0 1 720.0176 365.208)" fill="#00235E">Mosbach</text>
<path fill="none" stroke="#00235E" stroke-width="3" stroke-linecap="round" d="M547.4,314.5c16.3,1.5,27.1,8.3,37,14.6"/>
<polygon fill="#00235E" points="595.3,335.7 576.2,332.6 583.6,328.6 583.8,320.1 "/>
<path fill="#00235E" stroke="#00235E" d="M595.1,336.8c2.5,0,4.5,2,4.5,4.5c0,2.5-2,4.5-4.5,4.5c-2.5,0-4.5-2-4.5-4.5
	C590.6,338.8,592.7,336.8,595.1,336.8z"/>
<text transform="matrix(1 0 0 1 530.7842 349.5596)" fill="#00235E">Heidelberg</text>
<rect x="536.2" y="271.7" fill="none" width="22.5" height="15"/>
<rect x="532.4" y="280" fill="#FFFFFF" stroke="#003A9E" stroke-width="0.75" stroke-miterlimit="10" width="30" height="15"/>
<text transform="matrix(1 0 0 1 567.6738 291.8721)" fill="#003A9E" class="commander">Nansouty</text>
<line fill="none" stroke="#003A9E" stroke-miterlimit="10" x1="532.4" y1="295" x2="562.4" y2="280"/>
<rect x="595" y="303.4" fill="none" width="22.5" height="15"/>
<rect x="591" y="311.5" fill="#FFFFFF" stroke="#2C74DD" stroke-width="0.75" stroke-miterlimit="10" width="30" height="15"/>
<circle fill="#2C74DD" cx="606" cy="319" r="3.7"/>
<text transform="matrix(1 0 0 1 626.4756 323.5215)" fill="#2C74DD" class="commander">Sorbier</text>
<line fill="none" x1="591.2" y1="326.6" x2="621.2" y2="311.6"/>
<rect x="626.5" y="378" fill="none" width="22.5" height="15"/>
<rect x="622.7" y="386.3" fill="#FFFFFF" stroke="#003A9E" stroke-width="0.75" stroke-miterlimit="10" width="30" height="15"/>
<text transform="matrix(1 0 0 1 657.999 398.1807)" fill="#003A9E" class="commander">Vialannes</text>
<line fill="none" stroke="#003A9E" stroke-miterlimit="10" x1="622.7" y1="401.3" x2="652.7" y2="386.3"/>
<rect x="779.8" y="374" fill="none" width="22.5" height="15"/>
<text transform="matrix(1 0 0 1 788.5811 380.8135)" fill="#003A9E" class="size">X</text>
<rect x="776" y="382.2" fill="#FFFFFF" stroke="#003A9E" stroke-width="0.75" stroke-miterlimit="10" width="30" height="15"/>
<text transform="matrix(1 0 0 1 788.5068 394.542)" fill="#003A9E" class="ident">I</text>
<text transform="matrix(1 0 0 1 811.292 394.1143)" fill="#003A9E" class="commander">Eppler</text>
<line fill="none" x1="776" y1="397.2" x2="806" y2="382.2"/>
<rect x="664.5" y="318.1" fill="none" width="22.5" height="15"/>
<text transform="matrix(1 0 0 1 670.8271 324.9863)" fill="#00235E" class="size">XX</text>
<rect x="660.7" y="326.4" fill="#FFFFFF" stroke="#00235E" stroke-width="0.75" stroke-miterlimit="10" width="30" height="15"/>
<text transform="matrix(1 0 0 1 668.6387 338.7148)" fill="#00235E" class="ident">III</text>
<text transform="matrix(1 0 0 1 695.999 338.2871)" fill="#00235E" class="commander">Gudin</text>
<line fill="none" x1="660.7" y1="341.4" x2="690.7" y2="326.4"/>
<rect x="743.5" y="330.1" fill="none" width="22.5" height="15"/>
<text transform="matrix(1 0 0 1 749.8271 336.9863)" fill="#00235E" class="size">XX</text>
<rect x="739.7" y="338.4" fill="#FFFFFF" stroke="#00235E" stroke-width="0.75" stroke-miterlimit="10" width="30" height="15"/>
<text transform="matrix(1 0 0 1 749.9258 350.7148)" fill="#00235E" class="ident">II</text>
<text transform="matrix(1 0 0 1 774.999 350.2871)" fill="#00235E" class="commander">Friant</text>
<line fill="none" x1="739.7" y1="353.4" x2="769.7" y2="338.4"/>
<rect x="743.5" y="304.5" fill="none" width="22.5" height="15"/>
<text transform="matrix(1 0 0 1 749.8271 311.3691)" fill="#00235E" class="size">XX</text>
<rect x="739.7" y="312.8" fill="#FFFFFF" stroke="#00235E" stroke-width="0.75" stroke-miterlimit="10" width="30" height="15"/>
<text transform="matrix(1 0 0 1 752.2139 325.0977)" fill="#00235E" class="ident">I</text>
<text transform="matrix(1 0 0 1 774.999 324.6699)" fill="#00235E" class="commander">Bisson</text>
<line fill="none" x1="739.7" y1="327.8" x2="769.7" y2="312.8"/>
<rect x="551.2" y="352" fill="none" width="22.5" height="15"/>
<text transform="matrix(1 0 0 1 555.0811 358.8115)" fill="#00235E" class="size">XXX</text>
<rect x="547.5" y="360.2" fill="#FFFFFF" stroke="#00235E" stroke-width="0.75" stroke-miterlimit="10" width="30" height="15"/>
<text transform="matrix(1 0 0 1 559.9287 372.54)" fill="#00235E" class="ident">I</text>
<text transform="matrix(1 0 0 1 582.7139 372.1123)" fill="#00235E" class="commander">Davout</text>
<line fill="none" x1="547.5" y1="375.2" x2="577.5" y2="360.2"/>
</svg>
