<?xml version="1.0" encoding="utf-8"?>
<!-- Generator: Adobe Illustrator 16.0.4, SVG Export Plug-In . SVG Version: 6.00 Build 0)  -->
<!DOCTYPE svg PUBLIC "-//W3C//DTD SVG 1.1//EN" "http://www.w3.org/Graphics/SVG/1.1/DTD/svg11.dtd">
<svg version="1.1" id="Layer_1" xmlns="http://www.w3.org/2000/svg" xmlns:xlink="http://www.w3.org/1999/xlink" x="0px" y="0px"
	 width="1440px" height="910px" viewBox="0 0 1440 910" enable-background="new 0 0 1440 910" xml:space="preserve">
<defs>
  <link xmlns="http://www.w3.org/1999/xhtml" href='http://fonts.googleapis.com/css?family=Droid+Sans:400,700' rel='stylesheet' type='text/css' />
  <style type="text/css">
  <![CDATA[
  /*@font-face {
    font-family: DroidSans;
    src: url('http://fonts.googleapis.com/css?family=Droid+Sans:400,700');
  }*/
  text {
    font-family: DroidSans, 'DroidSans', 'Droid Sans', verdana, sans-serif;
    font-size: 12px;
    stroke-miterlimit: 10;
  }
  .commander {
    font-weight: bold;
    font-size: 12px;
  }
  .ident {
    font-size: 13.5px;
  }
  .size {
    font-size: 9px;
  }
  ]]>
  </style>
</defs>
<path fill="none" stroke="#003A9E" stroke-width="3" stroke-linecap="round" d="M857,424.1c12.5,6,27.9,10.2,43.5,11.1"/>
<polygon fill="#003A9E" points="913.2,435.2 895.3,442.4 899.6,435.1 895.4,427.7 "/>
<path fill="#003A9E" stroke="#003A9E" d="M920,428.9c2.5,0,4.5,2,4.5,4.5s-2,4.5-4.5,4.5c-2.5,0-4.5-2-4.5-4.5
	S917.5,428.9,920,428.9z"/>
<text transform="matrix(1 0 0 1 872.8057 447.7617)" fill="#003A9E">Ilshofen</text>
<polygon fill="#003A9E" points="910.8,428.9 892.2,434.4 897.2,427.5 893.7,419.8 "/>
<circle fill="#003A9E" stroke="#003A9E" cx="920" cy="433.4" r="4.5"/>
<text transform="matrix(1 0 0 1 872.8057 447.7617)" fill="#003A9E">Ilshofen</text>
<path fill="none" stroke="#00235E" stroke-width="3" stroke-linecap="round" d="M841.5,381.3c14.7,0.4,32.3,5.7,45.2,14.2"/>
<polygon fill="#00235E" points="896.4,403.7 877.9,398.1 885.8,395.1 887.2,386.7 "/>
<path fill="#00235E" stroke="#00235E" d="M902.2,407.1c2.5,0,4.5,2,4.5,4.5c0,2.5-2,4.5-4.5,4.5c-2.5,0-4.5-2-4.5-4.5
	C897.7,409.1,899.7,407.1,902.2,407.1z"/>
<text transform="matrix(1 0 0 1 908.5771 412.2119)" fill="#00235E">Nesselbach</text>
<path fill="none" stroke="#00235E" stroke-width="3" d="M949.4,441.6c1.8,1.4,3.7,2.7,5.5,4"/>
<polygon fill="#00235E" points="939.5,433.8 949.1,450.5 950.2,442.2 958.1,439 "/>
<path fill="#00235E" stroke="#00235E" d="M935.7,425.5c2.5,0,4.5,2,4.5,4.5s-2,4.5-4.5,4.5c-2.5,0-4.5-2-4.5-4.5
	S933.2,425.5,935.7,425.5z"/>
<text transform="matrix(1 0 0 1 941.7393 428.5732)" fill="#00235E">Herboldshausen</text>
<path fill="none" stroke="#00235E" stroke-width="3" d="M931.3,441c7.9,2.7,15.3,6.4,21,9.4"/>
<polygon fill="#00235E" points="919,437.9 934.5,449.5 932.2,441.3 938.2,435.3 "/>
<circle fill="#00235E" stroke="#00235E" cx="920" cy="433.4" r="4.5"/>
<text transform="matrix(1 0 0 1 872.8057 447.7617)" fill="#00235E">Ilshofen</text>
<path fill="none" stroke="#00235E" stroke-width="3" stroke-linecap="round" d="M900.6,416.1c1.1,2,2.9,3.5,5,5.1"/>
<polygon fill="#00235E" points="915,429.7 896.8,423.1 904.8,420.5 906.6,412.3 "/>
<path fill="#00235E" stroke="#00235E" d="M920,428.9c2.5,0,4.5,2,4.5,4.5c0,2.5-2,4.5-4.5,4.5c-2.5,0-4.5-2-4.5-4.5
	C915.5,430.9,917.5,428.9,920,428.9z"/>
<text transform="matrix(1 0 0 1 872.8057 447.7617)" fill="#00235E">Ilshofen</text>
<rect x="901" y="336.2" fill="none" width="22.5" height="15"/>
<rect x="897.3" y="344.5" fill="#FFFFFF" stroke="#003A9E" stroke-width="0.75" stroke-miterlimit="10" width="30" height="15"/>
<text transform="matrix(1 0 0 1 932.5068 356.3721)" fill="#003A9E" class="commander">Nansouty</text>
<line fill="none" stroke="#003A9E" stroke-miterlimit="10" x1="897.3" y1="359.5" x2="927.3" y2="344.5"/>
<rect x="871.1" y="314.4" fill="none" width="22.5" height="15"/>
<rect x="867.2" y="322.5" fill="#FFFFFF" stroke="#2C74DD" stroke-width="0.75" stroke-miterlimit="10" width="30" height="15"/>
<circle fill="#2C74DD" cx="882.2" cy="330" r="3.7"/>
<text transform="matrix(1 0 0 1 902.6426 334.5215)" fill="#2C74DD" class="commander">Sorbier</text>
<line fill="none" x1="867.4" y1="337.6" x2="897.4" y2="322.6"/>
<rect x="786.7" y="418" fill="none" width="22.5" height="15"/>
<rect x="782.9" y="426.3" fill="#FFFFFF" stroke="#003A9E" stroke-width="0.75" stroke-miterlimit="10" width="30" height="15"/>
<text transform="matrix(1 0 0 1 818.1738 438.1807)" fill="#003A9E" class="commander">Vialannes</text>
<line fill="none" stroke="#003A9E" stroke-miterlimit="10" x1="782.9" y1="441.3" x2="812.9" y2="426.3"/>
<rect x="821.8" y="399" fill="none" width="22.5" height="15"/>
<text transform="matrix(1 0 0 1 830.5811 405.8135)" fill="#003A9E" class="size">X</text>
<rect x="818" y="407.2" fill="#FFFFFF" stroke="#003A9E" stroke-width="0.75" stroke-miterlimit="10" width="30" height="15"/>
<text transform="matrix(1 0 0 1 830.5068 419.542)" fill="#003A9E" class="ident">I</text>
<text transform="matrix(1 0 0 1 853.292 419.1143)" fill="#003A9E" class="commander">Eppler</text>
<line fill="none" x1="818" y1="422.2" x2="848" y2="407.2"/>
<rect x="885.4" y="364.9" fill="none" width="22.5" height="15"/>
<text transform="matrix(1 0 0 1 891.7393 371.7598)" fill="#00235E" class="size">XX</text>
<rect x="881.7" y="373.2" fill="#FFFFFF" stroke="#00235E" stroke-width="0.75" stroke-miterlimit="10" width="30" height="15"/>
<text transform="matrix(1 0 0 1 889.5508 385.4883)" fill="#00235E" class="ident">III</text>
<text transform="matrix(1 0 0 1 916.9111 385.0605)" fill="#00235E" class="commander">Gudin</text>
<line fill="none" x1="881.7" y1="388.2" x2="911.7" y2="373.2"/>
<rect x="992.3" y="430.1" fill="none" width="22.5" height="15"/>
<text transform="matrix(1 0 0 1 998.6709 436.9863)" fill="#00235E" class="size">XX</text>
<rect x="988.6" y="438.4" fill="#FFFFFF" stroke="#00235E" stroke-width="0.75" stroke-miterlimit="10" width="30" height="15"/>
<text transform="matrix(1 0 0 1 998.7695 450.7148)" fill="#00235E" class="ident">II</text>
<text transform="matrix(1 0 0 1 1023.8428 450.2871)" fill="#00235E" class="commander">Friant</text>
<line fill="none" x1="988.6" y1="453.4" x2="1018.6" y2="438.4"/>
<rect x="889.2" y="448.5" fill="none" width="22.5" height="15"/>
<text transform="matrix(1 0 0 1 895.542 455.3691)" fill="#00235E" class="size">XX</text>
<rect x="885.5" y="456.8" fill="#FFFFFF" stroke="#00235E" stroke-width="0.75" stroke-miterlimit="10" width="30" height="15"/>
<text transform="matrix(1 0 0 1 897.9287 469.0977)" fill="#00235E" class="ident">I</text>
<text transform="matrix(1 0 0 1 920.7139 468.6699)" fill="#00235E" class="commander">Bisson</text>
<line fill="none" x1="885.5" y1="471.8" x2="915.5" y2="456.8"/>
<rect x="889.2" y="474" fill="none" width="22.5" height="15"/>
<text transform="matrix(1 0 0 1 893.0811 480.8115)" fill="#00235E" class="size">XXX</text>
<rect x="885.5" y="482.2" fill="#FFFFFF" stroke="#00235E" stroke-width="0.75" stroke-miterlimit="10" width="30" height="15"/>
<text transform="matrix(1 0 0 1 897.9287 494.54)" fill="#00235E" class="ident">I</text>
<text transform="matrix(1 0 0 1 920.7139 494.1123)" fill="#00235E" class="commander">Davout</text>
<line fill="none" x1="885.5" y1="497.2" x2="915.5" y2="482.2"/>
</svg>
