<?xml version="1.0" encoding="utf-8"?>
<!-- Generator: Adobe Illustrator 16.0.4, SVG Export Plug-In . SVG Version: 6.00 Build 0)  -->
<!DOCTYPE svg PUBLIC "-//W3C//DTD SVG 1.1//EN" "http://www.w3.org/Graphics/SVG/1.1/DTD/svg11.dtd">
<svg version="1.1" id="Layer_1" xmlns="http://www.w3.org/2000/svg" xmlns:xlink="http://www.w3.org/1999/xlink" x="0px" y="0px"
	 width="1440px" height="910px" viewBox="0 0 1440 910" enable-background="new 0 0 1440 910" xml:space="preserve">
<defs>
  <link xmlns="http://www.w3.org/1999/xhtml" href='http://fonts.googleapis.com/css?family=Droid+Sans:400,700' rel='stylesheet' type='text/css' />
  <style type="text/css">
  <![CDATA[
  /*@font-face {
    font-family: DroidSans;
    src: url('http://fonts.googleapis.com/css?family=Droid+Sans:400,700');
  }*/
  text {
    font-family: DroidSans, 'DroidSans', 'Droid Sans', verdana, sans-serif;
    font-size: 12px;
    stroke-miterlimit: 10;
  }
  .commander {
    font-weight: bold;
    font-size: 12px;
  }
  .ident {
    font-size: 13.5px;
  }
  .size {
    font-size: 9px;
  }
  ]]>
  </style>
</defs>
<path fill="none" stroke="#2C74DD" stroke-width="3" stroke-linecap="round" d="M1051.7,504.3c8.4,5.4,21.1,17.1,31.9,24"/>
<polygon fill="#2C74DD" points="1095.2,533.4 1075.9,532.4 1082.9,527.6 1082.2,519.2 "/>
<path fill="none" stroke="#003A9E" stroke-width="3" stroke-linecap="round" d="M1053.6,523.5c1.6,1.2,3.3,2.1,5.1,2.6
	c0.6,1,1.1,2,1.6,3.1"/>
<polygon fill="#003A9E" points="1064.5,541.3 1051.6,526.9 1059.9,528.5 1065.3,522 "/>
<circle fill="#003A9E" stroke="#003A9E" cx="1064.6" cy="546.9" r="4.5"/>
<path fill="none" stroke="#003A9E" stroke-width="3" stroke-linecap="round" d="M1027.4,500.3c10.3,6.9,21,9.5,34.2,22.9
	c21.4,21.6,11.3,39,41.3,56.9"/>
<polygon fill="#003A9E" points="1113.9,586.3 1094.8,583.7 1102.1,579.5 1102,571 "/>
<path fill="#003A9E" stroke="#003A9E" d="M1122.5,581.3c2.5,0,4.5,2,4.5,4.5c0,2.5-2,4.5-4.5,4.5c-2.5,0-4.5-2-4.5-4.5
	C1118,583.3,1120,581.3,1122.5,581.3z"/>
<text transform="matrix(1 0 0 1 1076.5908 599.4004)" fill="#003A9E">Harburg</text>
<path fill="none" stroke="#00235E" stroke-width="3" stroke-linecap="round" d="M1046.1,502c18.1,14.6,16.3,20.8,30.6,29.1"/>
<polygon fill="#00235E" points="1088.1,536.8 1068.8,535.3 1075.9,530.6 1075.4,522.2 "/>
<path fill="none" stroke="#00235E" stroke-width="3" stroke-linecap="round" d="M1026.6,470.5c11.2,4.7,44.9,16.2,52.2,21.8
	c1.4,1.1,3.5,3.3,5.7,6"/>
<polygon fill="#00235E" points="1092,508.5 1075.3,498.7 1083.7,497.6 1087,489.8 "/>
<path fill="#00235E" stroke="#00235E" d="M1099,515.4c2.5,0,4.5,2,4.5,4.5c0,2.5-2,4.5-4.5,4.5c-2.5,0-4.5-2-4.5-4.5
	C1094.5,517.4,1096.5,515.4,1099,515.4z"/>
<text transform="matrix(1 0 0 1 1099.7832 513.4814)" fill="#00235E">Oettingen</text>
<path fill="none" stroke="#00235E" stroke-width="3" stroke-linecap="round" d="M1046,490.1c8.6,7.8,30.7,15.8,45,22.5"/>
<polygon fill="#00235E" points="1102,518.9 1082.8,516.7 1090.1,512.3 1089.9,503.8 "/>
<circle fill="#00235E" stroke="#00235E" cx="1099" cy="532.8" r="4.5"/>
<text transform="matrix(1 0 0 1 1105.0957 536.4355)" fill="#00235E">Munningen</text>
<path fill="none" stroke="#00235E" stroke-width="3" stroke-linecap="round" d="M1038.5,488.1c6.3,5.2,11,10.2,17.5,13.5
	c5.6,2.8,20.2,13.4,30.5,20.7"/>
<polygon fill="#00235E" points="1097.1,529.2 1078.1,525.4 1085.7,521.6 1086.2,513.2 "/>
<circle fill="#00235E" stroke="#00235E" cx="1099" cy="519.9" r="4.5"/>
<text transform="matrix(1 0 0 1 1099.7832 513.4814)" fill="#00235E">Oettingen</text>
<rect x="1077.3" y="427.4" fill="none" width="22.5" height="15"/>
<rect x="1073.6" y="435.6" fill="#FFFFFF" stroke="#003A9E" stroke-width="0.75" stroke-miterlimit="10" width="30" height="15"/>
<text transform="matrix(1 0 0 1 1108.8398 447.5381)" fill="#003A9E" class="commander">Nansouty</text>
<line fill="none" stroke="#003A9E" stroke-miterlimit="10" x1="1073.6" y1="450.6" x2="1103.6" y2="435.6"/>
<rect x="1110.4" y="556" fill="none" width="22.5" height="15"/>
<rect x="1106.5" y="564.1" fill="#FFFFFF" stroke="#2C74DD" stroke-width="0.75" stroke-miterlimit="10" width="30" height="15"/>
<circle fill="#2C74DD" cx="1121.5" cy="571.6" r="3.7"/>
<text transform="matrix(1 0 0 1 1141.9131 576.1123)" fill="#2C74DD" class="commander">Sorbier</text>
<line fill="none" x1="1106.7" y1="579.2" x2="1136.7" y2="564.2"/>
<rect x="968.2" y="521.5" fill="none" width="22.5" height="15"/>
<rect x="964.4" y="529.8" fill="#FFFFFF" stroke="#003A9E" stroke-width="0.75" stroke-miterlimit="10" width="30" height="15"/>
<text transform="matrix(1 0 0 1 999.6738 541.6807)" fill="#003A9E" class="commander">Vialannes</text>
<line fill="none" stroke="#003A9E" stroke-miterlimit="10" x1="964.4" y1="544.8" x2="994.4" y2="529.8"/>
<rect x="1069.8" y="601.5" fill="none" width="22.5" height="15"/>
<text transform="matrix(1 0 0 1 1078.5811 608.3135)" fill="#003A9E" class="size">X</text>
<rect x="1066" y="609.7" fill="#FFFFFF" stroke="#003A9E" stroke-width="0.75" stroke-miterlimit="10" width="30" height="15"/>
<text transform="matrix(1 0 0 1 1078.5068 622.042)" fill="#003A9E" class="ident">I</text>
<text transform="matrix(1 0 0 1 1101.292 621.6143)" fill="#003A9E" class="commander">Eppler</text>
<line fill="none" x1="1066" y1="624.7" x2="1096" y2="609.7"/>
<rect x="986.9" y="499.4" fill="none" width="22.5" height="15"/>
<text transform="matrix(1 0 0 1 993.2393 506.2598)" fill="#00235E" class="size">XX</text>
<rect x="983.2" y="507.7" fill="#FFFFFF" stroke="#00235E" stroke-width="0.75" stroke-miterlimit="10" width="30" height="15"/>
<text transform="matrix(1 0 0 1 991.0508 519.9883)" fill="#00235E" class="ident">III</text>
<text transform="matrix(1 0 0 1 1018.4111 519.5605)" fill="#00235E" class="commander">Gudin</text>
<line fill="none" x1="983.2" y1="522.7" x2="1013.2" y2="507.7"/>
<rect x="1108.1" y="477.6" fill="none" width="22.5" height="15"/>
<text transform="matrix(1 0 0 1 1114.4209 484.4863)" fill="#00235E" class="size">XX</text>
<rect x="1104.3" y="485.9" fill="#FFFFFF" stroke="#00235E" stroke-width="0.75" stroke-miterlimit="10" width="30" height="15"/>
<text transform="matrix(1 0 0 1 1114.5195 498.2148)" fill="#00235E" class="ident">II</text>
<text transform="matrix(1 0 0 1 1139.5928 497.7871)" fill="#00235E" class="commander">Friant</text>
<line fill="none" x1="1104.3" y1="500.9" x2="1134.3" y2="485.9"/>
<rect x="1110.5" y="537.5" fill="none" width="22.5" height="15"/>
<text transform="matrix(1 0 0 1 1116.8271 544.3691)" fill="#00235E" class="size">XX</text>
<rect x="1106.7" y="545.8" fill="#FFFFFF" stroke="#00235E" stroke-width="0.75" stroke-miterlimit="10" width="30" height="15"/>
<text transform="matrix(1 0 0 1 1119.2139 558.0977)" fill="#00235E" class="ident">I</text>
<text transform="matrix(1 0 0 1 1141.999 557.6699)" fill="#00235E" class="commander">Bisson</text>
<line fill="none" x1="1106.7" y1="560.8" x2="1136.7" y2="545.8"/>
<rect x="1108.2" y="453" fill="none" width="22.5" height="15"/>
<text transform="matrix(1 0 0 1 1112.0811 459.8115)" fill="#00235E" class="size">XXX</text>
<rect x="1104.5" y="461.2" fill="#FFFFFF" stroke="#00235E" stroke-width="0.75" stroke-miterlimit="10" width="30" height="15"/>
<text transform="matrix(1 0 0 1 1116.9287 473.54)" fill="#00235E" class="ident">I</text>
<text transform="matrix(1 0 0 1 1139.7139 473.1123)" fill="#00235E" class="commander">Davout</text>
<line fill="none" x1="1104.5" y1="476.2" x2="1134.5" y2="461.2"/>
</svg>
