<?xml version="1.0" encoding="utf-8"?>
<!-- Generator: Adobe Illustrator 16.0.4, SVG Export Plug-In . SVG Version: 6.00 Build 0)  -->
<!DOCTYPE svg PUBLIC "-//W3C//DTD SVG 1.1//EN" "http://www.w3.org/Graphics/SVG/1.1/DTD/svg11.dtd">
<svg version="1.1" id="Layer_1" xmlns="http://www.w3.org/2000/svg" xmlns:xlink="http://www.w3.org/1999/xlink" x="0px" y="0px"
	 width="1440px" height="910px" viewBox="0 0 1440 910" enable-background="new 0 0 1440 910" xml:space="preserve">
<defs>
  <link xmlns="http://www.w3.org/1999/xhtml" href='http://fonts.googleapis.com/css?family=Droid+Sans:400,700' rel='stylesheet' type='text/css' />
  <style type="text/css">
  <![CDATA[
  /*@font-face {
    font-family: DroidSans;
    src: url('http://fonts.googleapis.com/css?family=Droid+Sans:400,700');
  }*/
  text {
    font-family: DroidSans, 'DroidSans', 'Droid Sans', verdana, sans-serif;
    font-size: 12px;
    stroke-miterlimit: 10;
  }
  .commander {
    font-weight: bold;
    font-size: 12px;
  }
  .ident {
    font-size: 13.5px;
  }
  .size {
    font-size: 9px;
  }
  ]]>
  </style>
</defs>
<path fill="none" stroke="#2C74DD" stroke-width="3" stroke-linecap="round" d="M349.5,333.3c22.7-9.6,42.2-5.4,66.5-9
	c5.4-0.8,15.2-2.9,23.4-4.8"/>
<polygon fill="#2C74DD" points="451.7,316.6 435.9,327.8 438.4,319.7 432.6,313.6 "/>
<path fill="#2C74DD" stroke="#2C74DD" d="M462.9,312.6c2.5,0,4.5,2,4.5,4.5c0,2.5-2,4.5-4.5,4.5c-2.5,0-4.5-2-4.5-4.5
	C458.4,314.6,460.4,312.6,462.9,312.6z"/>
<text transform="matrix(1 0 0 1 454.5107 332.4346)" fill="#2C74DD">Bad Dürkheim</text>
<path fill="none" stroke="#003A9E" stroke-width="3" stroke-linecap="round" d="M546.2,315c1.5,1,5.4,1.1,7.1,2
	c9.1,3.9,16.3,4.7,24.3,9.9"/>
<polygon fill="#003A9E" points="587.1,335.3 568.7,329.3 576.7,326.5 578.1,318.1 "/>
<path fill="#003A9E" stroke="#003A9E" d="M595.3,337.1c2.5,0,4.5,2,4.5,4.5c0,2.5-2,4.5-4.5,4.5c-2.5,0-4.5-2-4.5-4.5
	C590.8,339.2,592.8,337.1,595.3,337.1z"/>
<text transform="matrix(1 0 0 1 530.7842 349.5586)" fill="#003A9E">Heidelberg</text>
<path fill="none" stroke="#003A9E" stroke-width="3" stroke-linecap="round" d="M671,373.4c15.8-15.5,26-13.8,39.3-8.9"/>
<polygon fill="#003A9E" points="722.3,368.7 702.9,369.7 709.4,364.2 707.8,355.9 "/>
<path fill="#003A9E" stroke="#003A9E" d="M707.7,365.6c2.5,0,4.5,2,4.5,4.5c0,2.5-2,4.5-4.5,4.5c-2.5,0-4.5-2-4.5-4.5
	C703.2,367.6,705.2,365.6,707.7,365.6z"/>
<text transform="matrix(1 0 0 1 711.1494 383.7119)" fill="#003A9E">Crossing Neckar</text>
<path fill="none" stroke="#00235E" stroke-width="3" stroke-linecap="round" d="M452.9,322.5c15.3-9.8,46.9-13.6,68.7-11"/>
<polygon fill="#00235E" points="534.3,312.5 515.8,318.3 520.6,311.3 517,303.7 "/>
<circle fill="#00235E" stroke="#00235E" cx="541.3" cy="305.6" r="4.5"/>
<text transform="matrix(1 0 0 1 544.0518 299.6006)" fill="#00235E">Mannheim</text>
<path fill="none" stroke="#00235E" stroke-width="3" stroke-linecap="round" d="M541.3,310c22.6,4.1,51.7,16.6,70.4,24
	c2.8,1.1,4.8,2.2,6.3,3.3"/>
<polygon fill="#00235E" points="628.2,345.1 609.4,340.3 617.2,336.9 618.1,328.5 "/>
<path fill="#00235E" stroke="#00235E" d="M629.1,341.7c2.5,0,4.5,2,4.5,4.5c0,2.5-2,4.5-4.5,4.5c-2.5,0-4.5-2-4.5-4.5
	C624.6,343.7,626.6,341.7,629.1,341.7z"/>
<text transform="matrix(1 0 0 1 633.1299 359.8223)" fill="#00235E">Neckargemund</text>
<path fill="none" stroke="#00235E" stroke-width="3" stroke-linecap="round" d="M602.9,344.8c-1.2,0.3,27.4-3.8,32.9-7.1
	c7.2-4.3,10.8-2.3,19.3-17c5.2,9.3,9.7,14.3,15.3,19"/>
<polygon fill="#00235E" points="680.5,347.5 661.9,342.1 669.7,339 670.9,330.7 "/>
<path fill="#00235E" stroke="#00235E" d="M682.7,340c2.5,0,4.5,2,4.5,4.5c0,2.5-2,4.5-4.5,4.5c-2.5,0-4.5-2-4.5-4.5
	C678.2,342.1,680.2,340,682.7,340z"/>
<text transform="matrix(1 0 0 1 671.7734 338.1445)" fill="#00235E">Neunkirchen</text>
<path fill="none" stroke="#00235E" stroke-width="3" stroke-linecap="round" d="M507.7,303.7c1.3,0.1,8.9,0.3,16,0.5"/>
<polygon fill="#00235E" points="536.4,304.5 518.4,311.3 522.8,304.1 518.7,296.7 "/>
<circle fill="#00235E" stroke="#00235E" cx="541.3" cy="305.4" r="4.5"/>
<text transform="matrix(1 0 0 1 544.0527 299.5996)" fill="#00235E">Mannheim</text>
<rect x="405" y="287.4" fill="none" width="22.5" height="15"/>
<rect x="401" y="295.5" fill="#FFFFFF" stroke="#2C74DD" stroke-width="0.75" stroke-miterlimit="10" width="30" height="15"/>
<circle fill="#2C74DD" cx="416" cy="303" r="3.7"/>
<text transform="matrix(1 0 0 1 436.4756 307.5215)" fill="#2C74DD" class="commander">Sorbier</text>
<line fill="none" x1="401.2" y1="310.6" x2="431.2" y2="295.6"/>
<rect x="511.7" y="348" fill="none" width="22.5" height="15"/>
<rect x="507.9" y="356.3" fill="#FFFFFF" stroke="#003A9E" stroke-width="0.75" stroke-miterlimit="10" width="30" height="15"/>
<text transform="matrix(1 0 0 1 543.1738 368.1807)" fill="#003A9E" class="commander">Vialannes</text>
<line fill="none" stroke="#003A9E" stroke-miterlimit="10" x1="507.9" y1="371.3" x2="537.9" y2="356.3"/>
<rect x="689.8" y="376" fill="none" width="22.5" height="15"/>
<text transform="matrix(1 0 0 1 698.5811 382.8135)" fill="#003A9E" class="size">X</text>
<rect x="686" y="384.2" fill="#FFFFFF" stroke="#003A9E" stroke-width="0.75" stroke-miterlimit="10" width="30" height="15"/>
<text transform="matrix(1 0 0 1 698.5068 396.542)" fill="#003A9E" class="ident">I</text>
<text transform="matrix(1 0 0 1 721.292 396.1143)" fill="#003A9E" class="commander">Eppler</text>
<line fill="none" x1="686" y1="399.2" x2="716" y2="384.2"/>
<rect x="496.2" y="260.9" fill="none" width="22.5" height="15"/>
<text transform="matrix(1 0 0 1 502.542 267.7598)" fill="#00235E" class="size">XX</text>
<rect x="492.5" y="269.2" fill="#FFFFFF" stroke="#00235E" stroke-width="0.75" stroke-miterlimit="10" width="30" height="15"/>
<text transform="matrix(1 0 0 1 500.3535 281.4883)" fill="#00235E" class="ident">III</text>
<text transform="matrix(1 0 0 1 527.7139 281.0605)" fill="#00235E" class="commander">Gudin</text>
<line fill="none" x1="492.5" y1="284.2" x2="522.5" y2="269.2"/>
<rect x="607.3" y="351.1" fill="none" width="22.5" height="15"/>
<text transform="matrix(1 0 0 1 613.6709 357.9863)" fill="#00235E" class="size">XX</text>
<rect x="603.6" y="359.4" fill="#FFFFFF" stroke="#00235E" stroke-width="0.75" stroke-miterlimit="10" width="30" height="15"/>
<text transform="matrix(1 0 0 1 613.7695 371.7148)" fill="#00235E" class="ident">II</text>
<text transform="matrix(1 0 0 1 638.8428 371.2871)" fill="#00235E" class="commander">Friant</text>
<line fill="none" x1="603.6" y1="374.4" x2="633.6" y2="359.4"/>
<rect x="688.5" y="303.5" fill="none" width="22.5" height="15"/>
<text transform="matrix(1 0 0 1 694.8271 310.3691)" fill="#00235E" class="size">XX</text>
<rect x="684.7" y="311.8" fill="#FFFFFF" stroke="#00235E" stroke-width="0.75" stroke-miterlimit="10" width="30" height="15"/>
<text transform="matrix(1 0 0 1 697.2139 324.0977)" fill="#00235E" class="ident">I</text>
<text transform="matrix(1 0 0 1 719.999 323.6699)" fill="#00235E" class="commander">Bisson</text>
<line fill="none" x1="684.7" y1="326.8" x2="714.7" y2="311.8"/>
<rect x="496.2" y="234" fill="none" width="22.5" height="15"/>
<text transform="matrix(1 0 0 1 500.0811 240.8115)" fill="#00235E" class="size">XXX</text>
<rect x="492.5" y="242.2" fill="#FFFFFF" stroke="#00235E" stroke-width="0.75" stroke-miterlimit="10" width="30" height="15"/>
<text transform="matrix(1 0 0 1 504.9287 254.54)" fill="#00235E" class="ident">I</text>
<text transform="matrix(1 0 0 1 527.7139 254.1123)" fill="#00235E" class="commander">Davout</text>
<line fill="none" x1="492.5" y1="257.2" x2="522.5" y2="242.2"/>
</svg>
