<?xml version="1.0" encoding="utf-8"?>
<!-- Generator: Adobe Illustrator 16.0.4, SVG Export Plug-In . SVG Version: 6.00 Build 0)  -->
<!DOCTYPE svg PUBLIC "-//W3C//DTD SVG 1.1//EN" "http://www.w3.org/Graphics/SVG/1.1/DTD/svg11.dtd">
<svg version="1.1" id="Layer_1" xmlns="http://www.w3.org/2000/svg" xmlns:xlink="http://www.w3.org/1999/xlink" x="0px" y="0px"
	 width="1440px" height="910px" viewBox="0 0 1440 910" enable-background="new 0 0 1440 910" xml:space="preserve">
<defs>
  <link xmlns="http://www.w3.org/1999/xhtml" href='http://fonts.googleapis.com/css?family=Droid+Sans:400,700' rel='stylesheet' type='text/css' />
  <style type="text/css">
  <![CDATA[
  /*@font-face {
    font-family: DroidSans;
    src: url('http://fonts.googleapis.com/css?family=Droid+Sans:400,700');
  }*/
  text {
    font-family: DroidSans, 'DroidSans', 'Droid Sans', verdana, sans-serif;
    font-size: 12px;
    stroke-miterlimit: 10;
  }
  .commander {
    font-weight: bold;
    font-size: 12px;
  }
  .ident {
    font-size: 13.5px;
  }
  .size {
    font-size: 9px;
  }
  ]]>
  </style>
</defs>
<path fill="none" stroke="#003A9E" stroke-width="3" stroke-linecap="round" d="M547.3,307.5c1.3,0.7,1.6,1.6,0.5,2.7
	c0.6,0.8,0.9,0.8,1.3,0.4c1.4,0.8,2.7,1.6,4.1,2.4c12.5,5.4,23.9,12.9,33.9,22.2c2.1,1.7,5.4,3,7.5,2.2c1.7,0,3.5-0.3,5.3-0.7
	c20.7-4.1,28.9,4.2,27.8,20.1c0.4-0.3,1.1-0.4,1.6-0.2c1.6,1,4.3,1,6.4,0.2c15.3,0.8,26.2-2.3,27.9-12.9c0.1-0.4,0-0.7-0.2-0.9
	c0.6,0,1.2,0,1.8,0c3.4-0.2,6.3-1.4,7.9-3.4c0.4,0.1,0.7,0.4,1,0.7c0.1-0.1,0.3-0.1,0.5-0.1c1,0.4,1.9,0.7,2.9,1
	c2.3,1.5,4.3,3.5,5.8,5.8"/>
<polygon fill="#003A9E" points="688.5,358.6 674.2,345.6 682.6,346.3 687.4,339.3 "/>
<path fill="#003A9E" stroke="#003A9E" d="M677.8,354.9c2.5,0,4.5,2,4.5,4.5c0,2.5-2,4.5-4.5,4.5c-2.5,0-4.5-2-4.5-4.5
	C673.3,357,675.3,354.9,677.8,354.9z"/>
<text transform="matrix(1 0 0 1 593.1387 371.0225)" fill="#003A9E">Aglasterhausen</text>
<path fill="#2C74DD" stroke="#2C74DD" d="M714.6,357.1c2.5,0,4.5,2,4.5,4.5c0,2.5-2,4.5-4.5,4.5c-2.5,0-4.5-2-4.5-4.5
	C710.1,359.1,712.1,357.1,714.6,357.1z"/>
<path fill="none" stroke="#003A9E" stroke-width="3" stroke-linecap="round" d="M715,359.5c5.6-3,10.9-7.5,16.3-13.8
	c1.3-1.5,2.6-3.4,3.7-4.8c7.5-4.1,16.2-5.9,25.4-4.9"/>
<polygon fill="#003A9E" points="772.8,338.8 753.7,342.3 759.4,336 756.7,327.9 "/>
<path fill="#003A9E" stroke="#003A9E" d="M783.4,334.9c2.5,0,4.5,2,4.5,4.5c0,2.5-2,4.5-4.5,4.5c-2.5,0-4.5-2-4.5-4.5
	C778.9,336.9,781,334.9,783.4,334.9z"/>
<text transform="matrix(1 0 0 1 787.5371 332.9971)" fill="#003A9E">Adelsheim</text>
<path fill="none" stroke="#003A9E" stroke-width="3" stroke-linecap="round" d="M809,390.9c24.3-10.6,42.8-11.6,67.9-1.1
	c3.3,1.4,7,2.3,10.5,2.9"/>
<polygon fill="#003A9E" points="900.1,394.3 881.3,399.2 886.5,392.5 883.3,384.7 "/>
<path fill="#003A9E" stroke="#003A9E" d="M905,394.9c2.5,0,4.5,2,4.5,4.5c0,2.5-2,4.5-4.5,4.5c-2.5,0-4.5-2-4.5-4.5
	C900.5,397,902.6,394.9,905,394.9z"/>
<text transform="matrix(1 0 0 1 909.7422 393.0381)" fill="#003A9E">Langenburg</text>
<path fill="none" stroke="#00235E" stroke-width="3" stroke-linecap="round" d="M694,369.2c4.8,1.4,5.9-3.8,2.5-5.1
	c2.2-0.4,5.4-1,9.2-1.6"/>
<polygon fill="#00235E" points="718.2,360.6 701.6,370.5 704.7,362.6 699.4,356 "/>
<path fill="#00235E" stroke="#00235E" d="M714.6,357.1c2.5,0,4.5,2,4.5,4.5c0,2.5-2,4.5-4.5,4.5c-2.5,0-4.5-2-4.5-4.5
	C710.1,359.1,712.1,357.1,714.6,357.1z"/>
<text transform="matrix(1 0 0 1 688.0166 381.208)" fill="#00235E">Mosbach</text>
<path fill="none" stroke="#00235E" stroke-width="3" stroke-linecap="round" d="M729.1,352c18.5-5.9,22.4-1.2,41.6,5.9
	c5.6,2,10.4,8.4,17,13.2"/>
<polygon fill="#00235E" points="796.5,380.2 778.7,372.6 786.9,370.5 789.1,362.3 "/>
<path fill="#00235E" stroke="#00235E" d="M802.9,372.6c2.5,0,4.5,2,4.5,4.5c0,2.5-2,4.5-4.5,4.5c-2.5,0-4.5-2-4.5-4.5
	C798.4,374.6,800.4,372.6,802.9,372.6z"/>
<text transform="matrix(1 0 0 1 804.9092 370.6553)" fill="#00235E">Iagsthausen</text>
<path fill="none" stroke="#00235E" stroke-width="3" stroke-linecap="round" d="M722.2,359.3c2.2,1,11.8,5.3,14.3,3.6
	c19.2,4.6,15.9,8.1,32,16.7c6.6,3.6,13.4,5.8,20.1,7.5"/>
<polygon fill="#00235E" points="801.1,389.8 782,393 787.7,386.8 785.2,378.7 "/>
<path fill="#00235E" stroke="#00235E" d="M806.1,384.6c2.5,0,4.5,2,4.5,4.5c0,2.5-2,4.5-4.5,4.5c-2.5,0-4.5-2-4.5-4.5
	C801.6,386.7,803.6,384.6,806.1,384.6z"/>
<text transform="matrix(1 0 0 1 810.1592 382.7451)" fill="#00235E">Sindringen</text>
<path fill="none" stroke="#00235E" stroke-width="3" stroke-linecap="round" d="M719.9,365.2c12.9,3,11,1.4,23.6,4.8
	c4.8,1.3,19.7,14.3,26.6,16.7c10,3.5,14.9,5.1,20.7,6.5"/>
<polygon fill="#00235E" points="801.4,400.3 782.3,397.1 789.7,393.1 790,384.7 "/>
<path fill="#00235E" stroke="#00235E" d="M806.1,384.6c2.5,0,4.5,2,4.5,4.5c0,2.5-2,4.5-4.5,4.5c-2.5,0-4.5-2-4.5-4.5
	C801.6,386.7,803.6,384.6,806.1,384.6z"/>
<text transform="matrix(1 0 0 1 810.1592 382.7451)" fill="#00235E">Sindringen</text>
<rect x="594.7" y="309.2" fill="none" width="22.5" height="15"/>
<rect x="590.9" y="317.5" fill="#FFFFFF" stroke="#003A9E" stroke-width="0.75" stroke-miterlimit="10" width="30" height="15"/>
<text transform="matrix(1 0 0 1 626.1738 329.3721)" fill="#003A9E" class="commander">Nansouty</text>
<line fill="none" stroke="#003A9E" stroke-miterlimit="10" x1="590.9" y1="332.5" x2="620.9" y2="317.5"/>
<rect x="671.6" y="397.4" fill="none" width="22.5" height="15"/>
<rect x="667.7" y="405.5" fill="#FFFFFF" stroke="#2C74DD" stroke-width="0.75" stroke-miterlimit="10" width="30" height="15"/>
<circle fill="#2C74DD" cx="682.7" cy="413" r="3.7"/>
<text transform="matrix(1 0 0 1 703.1104 417.5215)" fill="#2C74DD" class="commander">Sorbier</text>
<line fill="none" x1="667.9" y1="420.6" x2="697.9" y2="405.6"/>
<rect x="787.7" y="290.5" fill="none" width="22.5" height="15"/>
<rect x="783.9" y="298.8" fill="#FFFFFF" stroke="#003A9E" stroke-width="0.75" stroke-miterlimit="10" width="30" height="15"/>
<text transform="matrix(1 0 0 1 819.1738 310.6807)" fill="#003A9E" class="commander">Vialannes</text>
<line fill="none" stroke="#003A9E" stroke-miterlimit="10" x1="783.9" y1="313.8" x2="813.9" y2="298.8"/>
<rect x="929.8" y="404" fill="none" width="22.5" height="15"/>
<text transform="matrix(1 0 0 1 938.5811 410.8135)" fill="#003A9E" class="size">X</text>
<rect x="926" y="412.2" fill="#FFFFFF" stroke="#003A9E" stroke-width="0.75" stroke-miterlimit="10" width="30" height="15"/>
<text transform="matrix(1 0 0 1 938.5068 424.542)" fill="#003A9E" class="ident">I</text>
<text transform="matrix(1 0 0 1 961.292 424.1143)" fill="#003A9E" class="commander">Eppler</text>
<line fill="none" x1="926" y1="427.2" x2="956" y2="412.2"/>
<rect x="671.4" y="375.9" fill="none" width="22.5" height="15"/>
<text transform="matrix(1 0 0 1 677.7393 382.7598)" fill="#00235E" class="size">XX</text>
<rect x="667.7" y="384.2" fill="#FFFFFF" stroke="#00235E" stroke-width="0.75" stroke-miterlimit="10" width="30" height="15"/>
<text transform="matrix(1 0 0 1 675.5508 396.4883)" fill="#00235E" class="ident">III</text>
<text transform="matrix(1 0 0 1 702.9111 396.0605)" fill="#00235E" class="commander">Gudin</text>
<line fill="none" x1="667.7" y1="399.2" x2="697.7" y2="384.2"/>
<rect x="832.3" y="333.1" fill="none" width="22.5" height="15"/>
<text transform="matrix(1 0 0 1 838.6709 339.9863)" fill="#00235E" class="size">XX</text>
<rect x="828.6" y="341.4" fill="#FFFFFF" stroke="#00235E" stroke-width="0.75" stroke-miterlimit="10" width="30" height="15"/>
<text transform="matrix(1 0 0 1 838.7695 353.7148)" fill="#00235E" class="ident">II</text>
<text transform="matrix(1 0 0 1 863.8428 353.2871)" fill="#00235E" class="commander">Friant</text>
<line fill="none" x1="828.6" y1="356.4" x2="858.6" y2="341.4"/>
<rect x="764.2" y="403.5" fill="none" width="22.5" height="15"/>
<text transform="matrix(1 0 0 1 770.542 410.3691)" fill="#00235E" class="size">XX</text>
<rect x="760.5" y="411.8" fill="#FFFFFF" stroke="#00235E" stroke-width="0.75" stroke-miterlimit="10" width="30" height="15"/>
<text transform="matrix(1 0 0 1 772.9287 424.0977)" fill="#00235E" class="ident">I</text>
<text transform="matrix(1 0 0 1 795.7139 423.6699)" fill="#00235E" class="commander">Bisson</text>
<line fill="none" x1="760.5" y1="426.8" x2="790.5" y2="411.8"/>
<rect x="764.2" y="431" fill="none" width="22.5" height="15"/>
<text transform="matrix(1 0 0 1 768.0811 437.8115)" fill="#00235E" class="size">XXX</text>
<rect x="760.5" y="439.2" fill="#FFFFFF" stroke="#00235E" stroke-width="0.75" stroke-miterlimit="10" width="30" height="15"/>
<text transform="matrix(1 0 0 1 772.9287 451.54)" fill="#00235E" class="ident">I</text>
<text transform="matrix(1 0 0 1 795.7139 451.1123)" fill="#00235E" class="commander">Davout</text>
<line fill="none" x1="760.5" y1="454.2" x2="790.5" y2="439.2"/>
</svg>
