<svg id="Troop_Movements_by_Day_10_16_Revisions" xmlns="http://www.w3.org/2000/svg" viewBox="0 0 1440 910">
  <style>
    .st0{fill:none;stroke:#ED2939;stroke-width:3;stroke-linecap:round;stroke-linejoin:round;} .st1{fill:#ED2939;} .st2{opacity:0.5;fill:#FFFFFF;enable-background:new ;} .st3{fill:none;stroke:#999999;stroke-width:3;stroke-linecap:round;stroke-linejoin:round;} .st4{fill:#999999;} .st5{font-family:&apos;DroidSans&apos;;} .st6{font-size:9px;} .st7{fill:#FFFFFF;stroke:#ED2939;stroke-width:0.75;stroke-miterlimit:10;} .st8{font-family:&apos;DroidSans-Bold&apos;;} .st9{font-size:12px;} .st10{fill:none;} .st11{fill:#0072BB;} .st12{fill:#FFFFFF;stroke:#0072BB;stroke-width:0.75;stroke-miterlimit:10;} .st13{fill:none;stroke:#0072BB;stroke-width:0.75;stroke-miterlimit:10;} .st14{font-size:13.5px;}
  </style>
  <path class="st0" d="M960.2 384.7s42.8-49.3 64.9-73.5"/>
  <path class="st1" d="M1033.8 301.9l-6.7 18.2-2.6-8.1-8.2-1.8z"/>
  <path class="st0" d="M1130.8 336.3l7.2-27.6"/>
  <path class="st1" d="M1141.2 296.4l2.5 19.2-6-6-8.1 2.3z"/>
  <path class="st2" d="M969.8 863.1h113v43.3h-113z"/>
  <path class="st3" d="M1071.3 870.8l-.6 18.1"/>
  <path class="st4" d="M1070.3 901.6l-6.8-18.1 7.2 4.4 7.5-4z"/>
  <text transform="translate(27.3 706.8)" class="st1 st5 st6">
    XX
  </text>
  <path class="st7" d="M17.2 708.2h30v15h-30z"/>
  <text transform="translate(52.5 720.1)" class="st1 st8 st9">
    Jellachich
  </text>
  <path class="st10" d="M17.2 723.2l30-15"/>
  <text transform="translate(364.5 793.1)" class="st1 st5 st6">
    XXX
  </text>
  <path class="st7" d="M356.9 794.5h30v15h-30z"/>
  <text transform="translate(393.1 806.4)" class="st1 st8 st9">
    John
  </text>
  <path class="st10" d="M356.9 809.5l30-15"/>
  <text transform="translate(1097.2 351.3)" class="st1 st5 st6">
    XXX
  </text>
  <path class="st7" d="M1089.6 352.7h30v15h-30z"/>
  <text transform="translate(1124.8 364.6)" class="st1 st8 st9">
    Kienmayer
  </text>
  <path class="st10" d="M1089.6 367.7l30-15"/>
  <text transform="translate(983.6 878.8)" class="st1 st5 st6">
    XXX
  </text>
  <path class="st7" d="M976 880.2h30v15h-30z"/>
  <text transform="translate(1011.2 892.1)" class="st1 st8 st9">
    Charles
  </text>
  <path class="st10" d="M976 895.2l30-15"/>
  <text transform="translate(1042.8 277.3)" class="st1 st5 st6">
    XXX
  </text>
  <path class="st7" d="M1035.1 278.7h30v15h-30z"/>
  <text transform="translate(1070.4 290.6)" class="st1 st8 st9">
    Kutu
  </text>
  <text transform="translate(1098 290.6)" class="st1 st8 st9">
    z
  </text>
  <text transform="translate(1103.4 290.6)" class="st1 st8 st9">
    ov
  </text>
  <path class="st10" d="M1035.1 293.7l30-15"/>
  <text transform="translate(920.9 425.1)" class="st11 st5 st6">
    XXX
  </text>
  <path class="st12" d="M913.2 426.6h30v15h-30z"/>
  <text transform="translate(864.2 438.4)" class="st11 st8 st9">
    Mortier
  </text>
  <path class="st10" d="M913.2 441.6l30-15"/>
  <text transform="translate(1011.3 491.9)" class="st11 st5 st6">
    XXXX
  </text>
  <path class="st12" d="M1006.1 493.3h30v15h-30z"/>
  <text transform="translate(1041.4 505.2)" class="st11 st8 st9">
    Napoleon
  </text>
  <path class="st10" d="M1006.1 508.3l30-15"/>
  <text transform="translate(992.7 390)" class="st11 st5 st6">
    XXX
  </text>
  <path class="st12" d="M985.1 391.4h30v15h-30z"/>
  <text transform="translate(1020.3 403.3)" class="st11 st8 st9">
    Mu
  </text>
  <text transform="translate(1038.8 403.3)" class="st11 st8 st9">
    r
  </text>
  <text transform="translate(1043.9 403.3)" class="st11 st8 st9">
    at
  </text>
  <path class="st13" d="M985.1 406.4l30-15"/>
  <text transform="translate(120.5 461.5)" class="st11 st5 st6">
    XXX
  </text>
  <path class="st12" d="M112.9 462.9h30v15h-30z"/>
  <text transform="translate(119.2 475.2)" class="st11 st5 st14">
    VII
  </text>
  <text transform="translate(52.5 474.8)" class="st11 st8 st9">
    Augereau
  </text>
  <path class="st10" d="M112.9 477.9l30-15"/>
  <text transform="translate(256.3 726.1)" class="st11 st5 st6">
    XXX
  </text>
  <path class="st12" d="M248.7 727.5h30v15h-30z"/>
  <text transform="translate(257.4 739.8)" class="st11 st5 st14">
    VI
  </text>
  <text transform="translate(221 739.4)" class="st11 st8 st9">
    Ney
  </text>
  <path class="st10" d="M248.7 742.5l30-15"/>
  <text transform="translate(998.6 414.5)" class="st11 st5 st6">
    XXX
  </text>
  <path class="st12" d="M991 415.9h30v15h-30z"/>
  <text transform="translate(1026.2 427.8)" class="st11 st8 st9">
    Lannes
  </text>
  <text transform="translate(1001.9 428.2)" class="st11 st5 st14">
    V
  </text>
  <path class="st10" d="M991 430.9l30-15"/>
  <text transform="translate(1039.7 459.8)" class="st11 st5 st6">
    XXX
  </text>
  <path class="st12" d="M1032.1 461.2h30v15h-30z"/>
  <text transform="translate(1040.7 473.5)" class="st11 st5 st14">
    IV
  </text>
  <text transform="translate(1067.4 473.1)" class="st11 st8 st9">
    Soult
  </text>
  <path class="st10" d="M1032.1 476.2l30-15"/>
  <text transform="translate(1022 524.9)" class="st11 st5 st6">
    XXX
  </text>
  <path class="st12" d="M1014.4 526.3h30v15h-30z"/>
  <text transform="translate(1049.6 538.2)" class="st11 st8 st9">
    Davout
  </text>
  <text transform="translate(1022.3 538.7)" class="st11 st5 st14">
    III
  </text>
  <path class="st10" d="M1014.4 541.3l30-15"/>
  <text transform="translate(823.5 675.8)" class="st11 st5 st6">
    XXX
  </text>
  <path class="st12" d="M815.9 677.2h30v15h-30z"/>
  <text transform="translate(826.1 689.6)" class="st11 st5 st14">
    II
  </text>
  <text transform="translate(851.1 689.1)" class="st11 st8 st9">
    Marmont
  </text>
  <path class="st10" d="M815.9 692.2l30-15"/>
  <text transform="translate(871.8 486.9)" class="st11 st5 st6">
    XXX
  </text>
  <path class="st12" d="M864.2 488.4h30v15h-30z"/>
  <text transform="translate(876.6 500.7)" class="st11 st5 st14">
    I
  </text>
  <text transform="translate(899.4 500.2)" class="st11 st8 st9">
    Bernado
  </text>
  <text transform="translate(948.2 500.2)" class="st11 st8 st9">
    t
  </text>
  <text transform="translate(953.3 500.2)" class="st11 st8 st9">
    te
  </text>
  <path class="st10" d="M864.2 503.4l30-15"/>
</svg>
