<svg id="Troop_Movements_by_Day_10_16_Revisions" xmlns="http://www.w3.org/2000/svg" viewBox="0 0 1440 910">
  <style>
    .st0{fill:none;stroke:#ED2939;stroke-width:3;stroke-linecap:round;stroke-linejoin:round;} .st1{fill:#ED2939;} .st2{opacity:0.5;fill:#FFFFFF;enable-background:new ;} .st3{fill:none;stroke:#999999;stroke-width:3;stroke-linecap:round;stroke-linejoin:round;} .st4{fill:#999999;} .st5{fill:none;stroke:#0072BB;stroke-width:3;stroke-linecap:round;stroke-linejoin:round;} .st6{fill:#0072BB;} .st7{fill:none;} .st8{font-family:&apos;DroidSans&apos;;} .st9{font-size:9px;} .st10{fill:#FFFFFF;stroke:#ED2939;stroke-width:0.75;stroke-miterlimit:10;} .st11{font-family:&apos;DroidSans-Bold&apos;;} .st12{font-size:12px;} .st13{fill:#FFFFFF;stroke:#0072BB;stroke-width:0.75;stroke-miterlimit:10;} .st14{fill:none;stroke:#0072BB;stroke-width:0.75;stroke-miterlimit:10;} .st15{font-size:13.5px;}
  </style>
  <path class="st0" d="M996.2 335.4c7.5-9.4 17.9-16.1 28.2-24.8"/>
  <path class="st1" d="M1033.8 301.9l-8.3 17.5-1.8-8.3-8.1-2.5z"/>
  <path class="st2" d="M969.8 863.1h113v43.3h-113z"/>
  <path class="st3" d="M1071.3 870.8l-.6 18.1"/>
  <path class="st4" d="M1070.3 901.6l-6.8-18.1 7.2 4.4 7.5-4z"/>
  <path class="st5" d="M1031.6 473.1c-4-11.9-22.4-45.5-33.7-65.2"/>
  <path class="st6" d="M991.4 397l15.4 11.8h-8.5l-4.1 7.3z"/>
  <path class="st7" d="M987.2 391.6c2.5 0 4.5 2 4.5 4.5s-2 4.5-4.5 4.5-4.5-2-4.5-4.5 2-4.5 4.5-4.5z"/>
  <text transform="translate(27.3 706.8)" class="st1 st8 st9">
    XX
  </text>
  <path class="st10" d="M17.2 708.2h30v15h-30z"/>
  <text transform="translate(52.5 720.1)" class="st1 st11 st12">
    Jellachich
  </text>
  <path class="st7" d="M17.2 723.2l30-15"/>
  <text transform="translate(404.5 803.1)" class="st1 st8 st9">
    XXX
  </text>
  <path class="st10" d="M396.9 804.5h30v15h-30z"/>
  <text transform="translate(433.1 816.4)" class="st1 st11 st12">
    John
  </text>
  <path class="st7" d="M396.9 819.5l30-15"/>
  <text transform="translate(1147.2 301.3)" class="st1 st8 st9">
    XXX
  </text>
  <path class="st10" d="M1139.6 302.7h30v15h-30z"/>
  <text transform="translate(1174.8 314.6)" class="st1 st11 st12">
    Kienmayer
  </text>
  <path class="st7" d="M1139.6 317.7l30-15"/>
  <text transform="translate(983.6 878.8)" class="st1 st8 st9">
    XXX
  </text>
  <path class="st10" d="M976 880.2h30v15h-30z"/>
  <text transform="translate(1011.2 892.1)" class="st1 st11 st12">
    Charles
  </text>
  <path class="st7" d="M976 895.2l30-15"/>
  <text transform="translate(1046.8 283.4)" class="st1 st8 st9">
    XXX
  </text>
  <path class="st10" d="M1039.1 284.8h30v15h-30z"/>
  <text transform="translate(1074.4 296.7)" class="st1 st11 st12">
    Kutu
  </text>
  <text transform="translate(1102 296.7)" class="st1 st11 st12">
    z
  </text>
  <text transform="translate(1107.4 296.7)" class="st1 st11 st12">
    ov
  </text>
  <path class="st7" d="M1039.1 299.8l30-15"/>
  <text transform="translate(920.9 406.5)" class="st6 st8 st9">
    XXX
  </text>
  <path class="st13" d="M913.2 407.9h30v15h-30z"/>
  <text transform="translate(864.2 419.8)" class="st6 st11 st12">
    Mortier
  </text>
  <path class="st7" d="M913.2 422.9l30-15"/>
  <text transform="translate(1015.2 400.6)" class="st6 st8 st9">
    XXXX
  </text>
  <path class="st13" d="M1010.1 402h30v15h-30z"/>
  <text transform="translate(1045.3 413.9)" class="st6 st11 st12">
    Napoleon
  </text>
  <path class="st7" d="M1010.1 417l30-15"/>
  <text transform="translate(955.8 336.5)" class="st6 st8 st9">
    XXX
  </text>
  <path class="st13" d="M948.2 337.9h30v15h-30z"/>
  <text transform="translate(983.4 349.8)" class="st6 st11 st12">
    Mu
  </text>
  <text transform="translate(1001.9 349.8)" class="st6 st11 st12">
    r
  </text>
  <text transform="translate(1007 349.8)" class="st6 st11 st12">
    at
  </text>
  <path class="st14" d="M948.2 352.9l30-15"/>
  <text transform="translate(120.5 461.5)" class="st6 st8 st9">
    XXX
  </text>
  <path class="st13" d="M112.9 462.9h30v15h-30z"/>
  <text transform="translate(119.2 475.2)" class="st6 st8 st15">
    VII
  </text>
  <text transform="translate(52.5 474.8)" class="st6 st11 st12">
    Augereau
  </text>
  <path class="st7" d="M112.9 477.9l30-15"/>
  <text transform="translate(256.3 726.1)" class="st6 st8 st9">
    XXX
  </text>
  <path class="st13" d="M248.7 727.5h30v15h-30z"/>
  <text transform="translate(257.4 739.8)" class="st6 st8 st15">
    VI
  </text>
  <text transform="translate(221 739.4)" class="st6 st11 st12">
    Ney
  </text>
  <path class="st7" d="M248.7 742.5l30-15"/>
  <text transform="translate(1032 427.7)" class="st6 st8 st9">
    XXX
  </text>
  <path class="st13" d="M1024.4 429.1h30v15h-30z"/>
  <text transform="translate(1059.6 441)" class="st6 st11 st12">
    Lannes
  </text>
  <text transform="translate(1035.3 441.5)" class="st6 st8 st15">
    V
  </text>
  <path class="st7" d="M1024.4 444.1l30-15"/>
  <text transform="translate(970.1 365.7)" class="st6 st8 st9">
    XXX
  </text>
  <path class="st13" d="M962.5 367.1h30v15h-30z"/>
  <text transform="translate(971.1 379.4)" class="st6 st8 st15">
    IV
  </text>
  <text transform="translate(997.7 379)" class="st6 st11 st12">
    Soult
  </text>
  <path class="st7" d="M962.5 382.1l30-15"/>
  <text transform="translate(1034.8 488.1)" class="st6 st8 st9">
    XXX
  </text>
  <path class="st13" d="M1027.2 489.5h30v15h-30z"/>
  <text transform="translate(1062.4 501.4)" class="st6 st11 st12">
    Davout
  </text>
  <text transform="translate(1035.1 501.8)" class="st6 st8 st15">
    III
  </text>
  <path class="st7" d="M1027.2 504.5l30-15"/>
  <text transform="translate(823.5 680.3)" class="st6 st8 st9">
    XXX
  </text>
  <path class="st13" d="M815.9 681.7h30v15h-30z"/>
  <text transform="translate(826.1 694.1)" class="st6 st8 st15">
    II
  </text>
  <text transform="translate(851.1 693.6)" class="st6 st11 st12">
    Marmont
  </text>
  <path class="st7" d="M815.9 696.7l30-15"/>
  <text transform="translate(895.3 428.8)" class="st6 st8 st9">
    XXX
  </text>
  <path class="st13" d="M887.7 430.2h30v15h-30z"/>
  <text transform="translate(900.2 442.5)" class="st6 st8 st15">
    I
  </text>
  <text transform="translate(923 442.1)" class="st6 st11 st12">
    Bernado
  </text>
  <text transform="translate(971.8 442.1)" class="st6 st11 st12">
    t
  </text>
  <text transform="translate(976.9 442.1)" class="st6 st11 st12">
    te
  </text>
  <path class="st7" d="M887.7 445.2l30-15"/>
</svg>
