<svg id="Troop_Movements_by_Day_10_16_Revisions" xmlns="http://www.w3.org/2000/svg" viewBox="0 0 1440 910">
  <style>
    .st0{fill:none;} .st1{fill:#999999;stroke:#999999;} .st2{fill:#999999;} .st3{font-family:&apos;DroidSans&apos;;} .st4{font-size:12px;} .st5{fill:none;stroke:#999999;stroke-width:3;stroke-linecap:round;stroke-linejoin:round;} .st6{opacity:0.5;fill:#FFFFFF;enable-background:new ;} .st7{fill:#0072BB;stroke:#0072BB;} .st8{fill:none;stroke:#0072BB;stroke-width:3;stroke-linecap:round;stroke-linejoin:round;} .st9{fill:#0072BB;} .st10{fill:#ED2939;} .st11{font-size:9px;} .st12{fill:#FFFFFF;stroke:#ED2939;stroke-width:0.75;stroke-miterlimit:10;} .st13{font-family:&apos;DroidSans-Bold&apos;;} .st14{fill:#FFFFFF;stroke:#0072BB;stroke-width:0.75;stroke-miterlimit:10;} .st15{fill:none;stroke:#0072BB;stroke-width:0.75;stroke-miterlimit:10;} .st16{font-size:13.5px;}
  </style>
  <path class="st0" d="M1071.4 243h.2c.9.4-.3.9-.2 0 .3-.9-.9 4.5-.8 4.6 18.7-3 48.4-6.5 57.4-12.8.8-.7 1.7-1.4 2.7-1.9-.5-3.2-4.5-5-5-6.9.2-.1 4.8-3.3 4.8-3.8"/>
  <path class="st1" d="M1134.2 219c2.5 0 4.5 2 4.5 4.5s-2 4.5-4.5 4.5-4.5-2-4.5-4.5 2-4.5 4.5-4.5z"/>
  <text transform="translate(1139.2 219.3)" class="st2 st3 st4">
    Vyskov
  </text>
  <path class="st5" d="M1071.3 870.8l-.6 18.1"/>
  <path class="st2" d="M1070.3 901.6l-6.8-18.1 7.2 4.4 7.5-4z"/>
  <path class="st6" d="M969.8 863.1h113v43.3h-113z"/>
  <path class="st5" d="M1071.3 870.8l-.6 18.1"/>
  <path class="st2" d="M1070.3 901.6l-6.8-18.1 7.2 4.4 7.5-4z"/>
  <path class="st1" d="M1115.3 249.5c2.5 0 4.5 2 4.5 4.5s-2 4.5-4.5 4.5-4.5-2-4.5-4.5 2-4.5 4.5-4.5z"/>
  <text transform="translate(1118.8 249.9)" class="st2 st3 st4">
    Austerlitz
  </text>
  <path class="st7" d="M124.1 463.3c2.5 0 4.5 2 4.5 4.5s-2 4.5-4.5 4.5-4.5-2-4.5-4.5 2-4.5 4.5-4.5z"/>
  <path class="st8" d="M989.2 386c.1 0 59.6-100.5 75.2-126.8"/>
  <path class="st9" d="M1071.5 248.7l-3.9 19-3.7-7.6-8.5-.5z"/>
  <path class="st8" d="M987.7 334c31.2-2.9 62.3-32 85.3-46.9 8.1-5.2 13.8-16.3 24.9-20.3 1.9-1.1 3.7-2.2 5.4-3.5"/>
  <path class="st9" d="M1113.9 256.3l-10.9 16-.5-8.5-7.6-3.8z"/>
  <path class="st1" d="M1115.4 249.6c2.5 0 4.5 2 4.5 4.5s-2 4.5-4.5 4.5-4.5-2-4.5-4.5 2-4.5 4.5-4.5z"/>
  <text transform="translate(1118.8 249.9)" class="st2 st3 st4">
    Austerlitz
  </text>
  <text transform="translate(27.3 706.8)" class="st10 st3 st11">
    XX
  </text>
  <path class="st12" d="M17.2 708.2h30v15h-30z"/>
  <text transform="translate(52.5 720.1)" class="st10 st13 st4">
    Jellachich
  </text>
  <path class="st0" d="M17.2 723.2l30-15"/>
  <text transform="translate(574.5 833.1)" class="st10 st3 st11">
    XXX
  </text>
  <path class="st12" d="M566.9 834.5h30v15h-30z"/>
  <text transform="translate(603.1 846.4)" class="st10 st13 st4">
    John
  </text>
  <path class="st0" d="M566.9 849.5l30-15"/>
  <text transform="translate(1177.2 231.3)" class="st10 st3 st11">
    XXX
  </text>
  <path class="st12" d="M1169.6 232.7h30v15h-30z"/>
  <text transform="translate(1204.8 244.6)" class="st10 st13 st4">
    Kienmayer
  </text>
  <path class="st0" d="M1169.6 247.7l30-15"/>
  <text transform="translate(983.6 878.8)" class="st10 st3 st11">
    XXX
  </text>
  <path class="st12" d="M976 880.2h30v15h-30z"/>
  <text transform="translate(1011.2 892.1)" class="st10 st13 st4">
    Charles
  </text>
  <path class="st0" d="M976 895.2l30-15"/>
  <text transform="translate(1105.8 160.1)" class="st10 st3 st11">
    XXX
  </text>
  <path class="st12" d="M1098.2 161.5h30v15h-30z"/>
  <text transform="translate(1133.5 173.4)" class="st10 st13 st4">
    Buxhöwden
  </text>
  <path class="st0" d="M1098.2 176.5l30-15"/>
  <text transform="translate(1105.8 187.7)" class="st10 st3 st11">
    XXX
  </text>
  <path class="st12" d="M1098.2 189.1h30v15h-30z"/>
  <text transform="translate(1133.5 201)" class="st10 st13 st4">
    Kutu
  </text>
  <text transform="translate(1161.1 201)" class="st10 st13 st4">
    z
  </text>
  <text transform="translate(1166.5 201)" class="st10 st13 st4">
    ov
  </text>
  <path class="st0" d="M1098.2 204.1l30-15"/>
  <text transform="translate(916.6 425.1)" class="st9 st3 st11">
    XXX
  </text>
  <path class="st14" d="M909 426.6h30v15h-30z"/>
  <text transform="translate(859.9 438.4)" class="st9 st13 st4">
    Mortier
  </text>
  <path class="st0" d="M909 441.6l30-15"/>
  <text transform="translate(1069.3 300.2)" class="st9 st3 st11">
    XXXX
  </text>
  <path class="st14" d="M1064.1 301.6h30v15h-30z"/>
  <text transform="translate(1099.4 313.5)" class="st9 st13 st4">
    Napoleon
  </text>
  <path class="st0" d="M1064.1 316.6l30-15"/>
  <text transform="translate(1098.3 279.2)" class="st9 st3 st11">
    XXX
  </text>
  <path class="st14" d="M1090.6 280.6h30v15h-30z"/>
  <text transform="translate(1125.9 292.5)" class="st9 st13 st4">
    Mu
  </text>
  <text transform="translate(1144.4 292.5)" class="st9 st13 st4">
    r
  </text>
  <text transform="translate(1149.5 292.5)" class="st9 st13 st4">
    at
  </text>
  <path class="st15" d="M1090.6 295.6l30-15"/>
  <text transform="translate(120.5 461.5)" class="st9 st3 st11">
    XXX
  </text>
  <path class="st14" d="M112.9 462.9h30v15h-30z"/>
  <text transform="translate(119.2 475.2)" class="st9 st3 st16">
    VII
  </text>
  <text transform="translate(52.5 474.8)" class="st9 st13 st4">
    Augereau
  </text>
  <path class="st0" d="M112.9 477.9l30-15"/>
  <text transform="translate(256.3 726.1)" class="st9 st3 st11">
    XXX
  </text>
  <path class="st14" d="M248.7 727.5h30v15h-30z"/>
  <text transform="translate(257.4 739.8)" class="st9 st3 st16">
    VI
  </text>
  <text transform="translate(221 739.4)" class="st9 st13 st4">
    Ney
  </text>
  <path class="st0" d="M248.7 742.5l30-15"/>
  <text transform="translate(1063.5 224.4)" class="st9 st3 st11">
    XXX
  </text>
  <path class="st14" d="M1055.9 225.8h30v15h-30z"/>
  <text transform="translate(1091.1 237.7)" class="st9 st13 st4">
    Lannes
  </text>
  <text transform="translate(1066.8 238.1)" class="st9 st3 st16">
    V
  </text>
  <path class="st0" d="M1055.9 240.8l30-15"/>
  <text transform="translate(1132.8 260.9)" class="st9 st3 st11">
    XXX
  </text>
  <path class="st14" d="M1125.1 262.3h30v15h-30z"/>
  <text transform="translate(1133.8 274.7)" class="st9 st3 st16">
    IV
  </text>
  <text transform="translate(1160.4 274.2)" class="st9 st13 st4">
    Soult
  </text>
  <path class="st0" d="M1125.1 277.3l30-15"/>
  <text transform="translate(1022.4 485.6)" class="st9 st3 st11">
    XXX
  </text>
  <path class="st14" d="M1014.8 487h30v15h-30z"/>
  <text transform="translate(1050 498.9)" class="st9 st13 st4">
    Davout
  </text>
  <text transform="translate(1022.7 499.3)" class="st9 st3 st16">
    III
  </text>
  <path class="st0" d="M1014.8 502l30-15"/>
  <text transform="translate(823.5 680.3)" class="st9 st3 st11">
    XXX
  </text>
  <path class="st14" d="M815.9 681.7h30v15h-30z"/>
  <text transform="translate(826.1 694.1)" class="st9 st3 st16">
    II
  </text>
  <text transform="translate(851.1 693.6)" class="st9 st13 st4">
    Marmont
  </text>
  <path class="st0" d="M815.9 696.7l30-15"/>
  <text transform="translate(913.6 338)" class="st9 st3 st11">
    XXX
  </text>
  <path class="st14" d="M905.9 339.4h30v15h-30z"/>
  <text transform="translate(918.4 351.7)" class="st9 st3 st16">
    I
  </text>
  <text transform="translate(941.2 351.3)" class="st9 st13 st4">
    Bernado
  </text>
  <text transform="translate(990 351.3)" class="st9 st13 st4">
    t
  </text>
  <text transform="translate(995.1 351.3)" class="st9 st13 st4">
    te
  </text>
  <path class="st0" d="M905.9 354.4l30-15"/>
</svg>
