<svg id="Troop_Movements_by_Day_10_16_Revisions" xmlns="http://www.w3.org/2000/svg" viewBox="0 0 1440 910">
  <style>
    .st0{fill:none;stroke:#999999;stroke-width:3;stroke-linecap:round;stroke-linejoin:round;} .st1{fill:#999999;} .st2{opacity:0.5;fill:#FFFFFF;enable-background:new ;} .st3{fill:#999999;stroke:#999999;} .st4{font-family:&apos;DroidSans&apos;;} .st5{font-size:12px;} .st6{fill:#ED2939;} .st7{font-size:9px;} .st8{fill:#FFFFFF;stroke:#ED2939;stroke-width:0.75;stroke-miterlimit:10;} .st9{font-family:&apos;DroidSans-Bold&apos;;} .st10{fill:none;} .st11{fill:#0072BB;} .st12{fill:#FFFFFF;stroke:#0072BB;stroke-width:0.75;stroke-miterlimit:10;} .st13{fill:none;stroke:#0072BB;stroke-width:0.75;stroke-miterlimit:10;} .st14{font-size:13.5px;}
  </style>
  <path class="st0" d="M1071.3 870.8l-.6 18.1"/>
  <path class="st1" d="M1070.3 901.6l-6.8-18.1 7.2 4.4 7.5-4z"/>
  <path class="st2" d="M969.8 863.1h113v43.3h-113z"/>
  <path class="st0" d="M1071.3 870.8l-.6 18.1"/>
  <path class="st1" d="M1070.3 901.6l-6.8-18.1 7.2 4.4 7.5-4z"/>
  <path class="st3" d="M1072.9 239.3c2.5 0 4.5 2 4.5 4.5s-2 4.5-4.5 4.5-4.5-2-4.5-4.5 2-4.5 4.5-4.5z"/>
  <text transform="translate(1042.5 239.5)" class="st1 st4 st5">
    Brunn
  </text>
  <path class="st3" d="M885.1 749.2c2.5 0 4.5 2 4.5 4.5s-2 4.5-4.5 4.5-4.5-2-4.5-4.5 2-4.5 4.5-4.5z"/>
  <text transform="translate(887.7 749.4)" class="st1 st4 st5">
    G
  </text>
  <text transform="translate(896 749.4)" class="st1 st4 st5">
    r
  </text>
  <text transform="translate(900.6 749.4)" class="st1 st4 st5">
    az
  </text>
  <text transform="translate(27.3 706.8)" class="st6 st4 st7">
    XX
  </text>
  <path class="st8" d="M17.2 708.2h30v15h-30z"/>
  <text transform="translate(52.5 720.1)" class="st6 st9 st5">
    Jellachich
  </text>
  <path class="st10" d="M17.2 723.2l30-15"/>
  <text transform="translate(695.1 839.7)" class="st6 st4 st7">
    XXX
  </text>
  <path class="st8" d="M687.5 841.1h30v15h-30z"/>
  <text transform="translate(723.8 853)" class="st6 st9 st5">
    John
  </text>
  <path class="st10" d="M687.5 856.1l30-15"/>
  <text transform="translate(1177.2 231.3)" class="st6 st4 st7">
    XXX
  </text>
  <path class="st8" d="M1169.6 232.7h30v15h-30z"/>
  <text transform="translate(1204.8 244.6)" class="st6 st9 st5">
    Kienmayer
  </text>
  <path class="st10" d="M1169.6 247.7l30-15"/>
  <text transform="translate(983.6 878.8)" class="st6 st4 st7">
    XXX
  </text>
  <path class="st8" d="M976 880.2h30v15h-30z"/>
  <text transform="translate(1011.2 892.1)" class="st6 st9 st5">
    Charles
  </text>
  <path class="st10" d="M976 895.2l30-15"/>
  <text transform="translate(1190.7 115.7)" class="st6 st4 st7">
    XXX
  </text>
  <path class="st8" d="M1183.1 117.1h30v15h-30z"/>
  <text transform="translate(1218.4 129)" class="st6 st9 st5">
    Buxhöwden
  </text>
  <text transform="translate(1190 145.4)" class="st6 st4 st7">
    XXX
  </text>
  <path class="st8" d="M1182.4 146.8h30v15h-30z"/>
  <text transform="translate(1217.6 158.7)" class="st6 st9 st5">
    Kutu
  </text>
  <text transform="translate(1245.2 158.7)" class="st6 st9 st5">
    z
  </text>
  <text transform="translate(1250.6 158.7)" class="st6 st9 st5">
    ov
  </text>
  <path class="st10" d="M1182.4 161.8l30-15"/>
  <text transform="translate(906.8 425.1)" class="st11 st4 st7">
    XXX
  </text>
  <path class="st12" d="M899.2 426.6h30v15h-30z"/>
  <text transform="translate(850.1 438.4)" class="st11 st9 st5">
    Mortier
  </text>
  <path class="st10" d="M899.2 441.6l30-15"/>
  <text transform="translate(1047.8 207.6)" class="st11 st4 st7">
    XXXX
  </text>
  <path class="st12" d="M1042.7 209h30v15h-30z"/>
  <text transform="translate(1077.9 220.9)" class="st11 st9 st5">
    Napoleon
  </text>
  <path class="st10" d="M1042.7 224l30-15"/>
  <text transform="translate(1104.8 306.7)" class="st11 st4 st7">
    XXX
  </text>
  <path class="st12" d="M1097.1 308.1h30v15h-30z"/>
  <text transform="translate(1132.4 320)" class="st11 st9 st5">
    Mu
  </text>
  <text transform="translate(1150.9 320)" class="st11 st9 st5">
    r
  </text>
  <text transform="translate(1156 320)" class="st11 st9 st5">
    at
  </text>
  <path class="st13" d="M1097.1 323.1l30-15"/>
  <text transform="translate(120.5 461.5)" class="st11 st4 st7">
    XXX
  </text>
  <path class="st12" d="M112.9 462.9h30v15h-30z"/>
  <text transform="translate(119.2 475.2)" class="st11 st4 st14">
    VII
  </text>
  <text transform="translate(52.5 474.8)" class="st11 st9 st5">
    Augereau
  </text>
  <path class="st10" d="M112.9 477.9l30-15"/>
  <text transform="translate(256.3 726.1)" class="st11 st4 st7">
    XXX
  </text>
  <path class="st12" d="M248.7 727.5h30v15h-30z"/>
  <text transform="translate(257.4 739.8)" class="st11 st4 st14">
    VI
  </text>
  <text transform="translate(221 739.4)" class="st11 st9 st5">
    Ney
  </text>
  <path class="st10" d="M248.7 742.5l30-15"/>
  <text transform="translate(1096.5 280.4)" class="st11 st4 st7">
    XXX
  </text>
  <path class="st12" d="M1088.8 281.8h30v15h-30z"/>
  <text transform="translate(1124.1 293.7)" class="st11 st9 st5">
    Lannes
  </text>
  <text transform="translate(1099.8 294.1)" class="st11 st4 st14">
    V
  </text>
  <path class="st10" d="M1088.8 296.8l30-15"/>
  <text transform="translate(1082.5 253.5)" class="st11 st4 st7">
    XXX
  </text>
  <path class="st12" d="M1074.9 254.9h30v15h-30z"/>
  <text transform="translate(1083.5 267.2)" class="st11 st4 st14">
    IV
  </text>
  <text transform="translate(1110.1 266.8)" class="st11 st9 st5">
    Soult
  </text>
  <path class="st10" d="M1074.9 269.9l30-15"/>
  <text transform="translate(1020.8 479.8)" class="st11 st4 st7">
    XXX
  </text>
  <path class="st12" d="M1013.2 481.2h30v15h-30z"/>
  <text transform="translate(1048.4 493.1)" class="st11 st9 st5">
    Davout
  </text>
  <text transform="translate(1021.1 493.5)" class="st11 st4 st14">
    III
  </text>
  <path class="st10" d="M1013.2 496.2l30-15"/>
  <text transform="translate(852.8 695.8)" class="st11 st4 st7">
    XXX
  </text>
  <path class="st12" d="M845.2 697.2h30v15h-30z"/>
  <text transform="translate(855.3 709.5)" class="st11 st4 st14">
    II
  </text>
  <text transform="translate(880.4 709.1)" class="st11 st9 st5">
    Marmont
  </text>
  <path class="st10" d="M845.2 712.2l30-15"/>
  <text transform="translate(909.2 188.9)" class="st11 st4 st7">
    XXX
  </text>
  <path class="st12" d="M901.5 190.3h30v15h-30z"/>
  <text transform="translate(914 202.7)" class="st11 st4 st14">
    I
  </text>
  <text transform="translate(936.8 202.2)" class="st11 st9 st5">
    Bernado
  </text>
  <text transform="translate(985.6 202.2)" class="st11 st9 st5">
    t
  </text>
  <text transform="translate(990.7 202.2)" class="st11 st9 st5">
    te
  </text>
  <path class="st10" d="M901.5 205.3l30-15"/>
</svg>
