<svg id="Troop_Movements_by_Day_10_16_Revisions" xmlns="http://www.w3.org/2000/svg" viewBox="0 0 1440 910">
  <style>
    .st0{fill:#999999;} .st1{font-family:&apos;DroidSans&apos;;} .st2{font-size:12px;} .st3{fill:none;stroke:#0072BB;stroke-width:3;stroke-miterlimit:10;} .st4{fill:#0072BB;} .st5{fill:none;stroke:#0072BB;stroke-width:2;stroke-linecap:round;} .st6{opacity:0.5;fill:#FFFFFF;enable-background:new ;} .st7{fill:#ED2939;} .st8{fill:none;stroke:#999999;stroke-width:3;stroke-linecap:round;stroke-miterlimit:10;} .st9{fill:none;stroke:#ED2939;stroke-width:3;stroke-linecap:round;stroke-linejoin:round;} .st10{font-size:9px;} .st11{fill:#FFFFFF;stroke:#ED2939;stroke-width:0.75;stroke-miterlimit:10;} .st12{font-family:&apos;DroidSans-Bold&apos;;} .st13{fill:none;} .st14{fill:#FFFFFF;stroke:#0072BB;stroke-width:0.75;stroke-miterlimit:10;} .st15{font-size:13.5px;} .st16{fill:none;stroke:#0072BB;stroke-width:0.75;stroke-miterlimit:10;}
  </style>
  <text transform="translate(908.6 182.7)" class="st0 st1 st2">
    Bamburg
  </text>
  <path class="st0" d="M904.2 195.4c-1.4 0-2.6-.5-3.6-1.5-2-2-2-5.2 0-7.2 2-1.9 5.2-1.9 7.2 0 2 2 2 5.2 0 7.2-1 1-2.3 1.5-3.6 1.5z"/>
  <path class="st3" d="M451.4 447s29.4 8.3 46.9 11.4c11.3 2 23.7-13.5 23.7-13.5l21.5-1.2 20.9 10.5 19 5.2"/>
  <path class="st4" d="M595.6 462.7l-19.2 2.4 6-6-2.1-8.2z"/>
  <path class="st3" d="M508.4 462.1s4.5 8.8 11.3 12.7c11.9 6.9 43.2 14.3 60.8 18.2"/>
  <path class="st4" d="M593 495.5l-19.1 3.5 5.7-6.3-2.6-8.1z"/>
  <path class="st0" d="M593.7 501.4c-2.8 0-5.1-2.3-5.1-5.1 0-1.3.5-2.6 1.5-3.6 2-1.9 5.2-1.9 7.2 0 2 2 2 5.2 0 7.2-1 1-2.3 1.5-3.6 1.5z"/>
  <text transform="translate(600 455.5)" class="st0 st1 st2">
    Ludwigsberg
  </text>
  <path class="st3" d="M601.8 397.2l37-13.8"/>
  <path class="st4" d="M650.7 379l-14.2 13.1 1.4-8.4-6.5-5.3z"/>
  <path id="Line_3_4-10" class="st3" d="M585.3 337.3l2.2.4"/>
  <path class="st3" d="M587.6 337.7s5.9 12 7.5 19.9c4.5 23.3 27.3 13.1 40.4 5"/>
  <path class="st4" d="M647.1 357.5l-13.3 14 .9-8.4-6.9-4.9z"/>
  <text transform="translate(732.5 207.6)" class="st0 st1 st2">
    Wurzburg
  </text>
  <text transform="translate(732.6 207.7)" class="st0 st1 st2">
    Würzburg
  </text>
  <path class="st0" d="M728.1 220.3c-2.7-.1-4.9-2.3-5-5 0-1.4.5-2.7 1.5-3.6 2-1.9 5.1-1.9 7.1 0s2 5.1.1 7.1c-.9 1-2.2 1.5-3.7 1.5z"/>
  <path class="st6" d="M1317.6 667.7h97V731h-97z"/>
  <text transform="translate(1324.2 710.6)" class="st7 st1 st2">
    In Strengberg
  </text>
  <path class="st8" d="M1324.2 719.4h25.6"/>
  <path class="st0" d="M1362.5 719.4l-17.9 7.3 4.2-7.3-4.2-7.3z"/>
  <path class="st9" d="M981.6 491.7s-2.8-7.9-5-10.9-3.7-4.6-5.3-7"/>
  <path class="st7" d="M965.8 462.2l14.6 12.8-8.5-.5-4.6 7z"/>
  <text transform="translate(993.4 838)" class="st7 st1 st10">
    XX
  </text>
  <path class="st11" d="M983.3 839.4h30v15h-30z"/>
  <text transform="translate(1018.6 851.3)" class="st7 st12 st2">
    Hiller
  </text>
  <path class="st13" d="M983.3 854.4l30-15"/>
  <text transform="translate(907.1 705.2)" class="st7 st1 st10">
    XX
  </text>
  <path class="st11" d="M897.1 706.6h30v15h-30z"/>
  <text transform="translate(933.3 718.5)" class="st7 st12 st2">
    Werneck
  </text>
  <path class="st13" d="M897.1 721.6l30-15"/>
  <text transform="translate(1334.3 679.7)" class="st7 st1 st10">
    XX
  </text>
  <path class="st11" d="M1324.2 681.2h30v15h-30z"/>
  <text transform="translate(1359.5 693)" class="st7 st12 st2">
    Gyulai
  </text>
  <path class="st13" d="M1324.2 696.2l30-15"/>
  <text transform="translate(963.4 514.1)" class="st7 st1 st10">
    XXX
  </text>
  <path class="st11" d="M955.7 515.5h30v15h-30z"/>
  <text transform="translate(991 527.4)" class="st7 st12 st2">
    Kienmayer
  </text>
  <path class="st13" d="M955.7 530.5l30-15"/>
  <text transform="translate(826.5 679.2)" class="st7 st1 st10">
    XX
  </text>
  <path class="st11" d="M816.4 680.6h30v15h-30z"/>
  <text transform="translate(851.7 692.5)" class="st7 st12 st2">
    Gottesheim
  </text>
  <path class="st13" d="M816.4 695.6l30-15"/>
  <text transform="translate(755.5 698.1)" class="st7 st1 st10">
    XX
  </text>
  <path class="st11" d="M745.4 699.5h30v15h-30z"/>
  <text transform="translate(700.6 711.4)" class="st7 st12 st2">
    Klenau
  </text>
  <path class="st13" d="M745.4 714.5l30-15"/>
  <text transform="translate(606.7 766.6)" class="st7 st1 st10">
    XXX
  </text>
  <path class="st11" d="M599.1 768h30v15h-30z"/>
  <text transform="translate(635.3 779.9)" class="st7 st12 st2">
    John
  </text>
  <path class="st13" d="M599.1 783l30-15"/>
  <text transform="translate(788.5 735.2)" class="st7 st1 st10">
    XX
  </text>
  <path class="st11" d="M778.5 736.7h30v15h-30z"/>
  <text transform="translate(813.7 748.5)" class="st7 st12 st2">
    Riesch
  </text>
  <path class="st13" d="M778.5 751.7l30-15"/>
  <text transform="translate(690.7 797.4)" class="st7 st1 st10">
    XX
  </text>
  <path class="st13" d="M680.6 813.8l30-15"/>
  <path class="st11" d="M680.6 798.8h30v15h-30z"/>
  <text transform="translate(716.8 810.7)" class="st7 st12 st2">
    Jellachich
  </text>
  <text transform="translate(747 247)" class="st4 st1 st10">
    XXX
  </text>
  <path class="st14" d="M739.4 248.4h30v15h-30z"/>
  <text transform="translate(749.6 260.7)" class="st4 st1 st15">
    II
  </text>
  <text transform="translate(774.6 260.3)" class="st4 st12 st2">
    Marmont
  </text>
  <path class="st13" d="M739.4 263.4l30-15"/>
  <text transform="translate(658.9 338.6)" class="st4 st1 st10">
    XXX
  </text>
  <path class="st14" d="M651.3 340h30v15h-30z"/>
  <text transform="translate(686.6 351.9)" class="st4 st12 st2">
    Davout
  </text>
  <text transform="translate(659.2 352.3)" class="st4 st1 st15">
    III
  </text>
  <path class="st13" d="M651.3 355l30-15"/>
  <text transform="translate(659.6 370.3)" class="st4 st1 st10">
    XXX
  </text>
  <path class="st14" d="M652 371.7h30v15h-30z"/>
  <text transform="translate(660.7 384)" class="st4 st1 st15">
    IV
  </text>
  <text transform="translate(687.3 383.6)" class="st4 st12 st2">
    Soult
  </text>
  <path class="st13" d="M652 386.7l30-15"/>
  <text transform="translate(612.7 463.8)" class="st4 st1 st10">
    XXX
  </text>
  <path class="st14" d="M605.1 465.2h30v15h-30z"/>
  <text transform="translate(640.4 477.1)" class="st4 st12 st2">
    Lannes
  </text>
  <text transform="translate(616 477.6)" class="st4 st1 st15">
    V
  </text>
  <path class="st13" d="M605.1 480.2l30-15"/>
  <text transform="translate(607.3 427.1)" class="st4 st1 st10">
    XXXX
  </text>
  <path class="st14" d="M602.1 428.5h30v15h-30z"/>
  <text transform="translate(637.4 440.4)" class="st4 st12 st2">
    Napoleon
  </text>
  <path class="st13" d="M602.1 443.5l30-15"/>
  <text transform="translate(930.5 192.1)" class="st4 st1 st10">
    XXX
  </text>
  <path class="st14" d="M922.9 193.5h30v15h-30z"/>
  <text transform="translate(958.1 205.4)" class="st4 st12 st2">
    Bavarians
  </text>
  <path class="st13" d="M922.9 208.5l30-15"/>
  <text transform="translate(746.3 219.7)" class="st4 st1 st10">
    XXX
  </text>
  <path class="st14" d="M738.7 221.1h30v15h-30z"/>
  <text transform="translate(751.1 233.5)" class="st4 st1 st15">
    I
  </text>
  <text transform="translate(773.9 233)" class="st4 st12 st2">
    Bernadotte
  </text>
  <path class="st13" d="M738.7 236.1l30-15"/>
  <text transform="translate(606.1 503.8)" class="st4 st1 st10">
    XXX
  </text>
  <path class="st14" d="M598.4 505.2h30v15h-30z"/>
  <text transform="translate(633.7 517.1)" class="st4 st12 st2">
    Murat
  </text>
  <path class="st16" d="M598.4 520.2l30-15"/>
  <text transform="translate(606.1 528.5)" class="st4 st1 st10">
    XXX
  </text>
  <path class="st14" d="M598.4 530h30v15h-30z"/>
  <text transform="translate(607.1 542.3)" class="st4 st1 st15">
    VI
  </text>
  <text transform="translate(633.7 541.8)" class="st4 st12 st2">
    Ney
  </text>
  <path class="st13" d="M598.4 545l30-15"/>
  <text transform="translate(769.4 648.9)" class="st7 st1 st10">
    XXX
  </text>
  <path class="st11" d="M761.8 650.3h30v15h-30z"/>
  <text transform="translate(797 662.2)" class="st7 st12 st2">
    Mack
  </text>
  <path class="st13" d="M761.8 665.3l30-15"/>
  <text transform="translate(684.7 772.4)" class="st7 st1 st10">
    XX
  </text>
  <path class="st11" d="M674.6 773.8h30v15h-30z"/>
  <text transform="translate(709.8 785.7)" class="st7 st12 st2">
    Schwarzenberg
  </text>
  <path class="st13" d="M674.6 788.8l30-15"/>
  <text transform="translate(814.5 569.2)" class="st7 st1 st10">
    XX
  </text>
  <path class="st13" d="M804.4 585.6l30-15"/>
  <path class="st11" d="M804.4 570.6h30v15h-30z"/>
  <text transform="translate(840.7 582.5)" class="st7 st12 st2">
    Auffenberg
  </text>
</svg>
