<svg id="Troop_Movements_by_Day_10_16_Revisions" xmlns="http://www.w3.org/2000/svg" viewBox="0 0 1440 910">
  <style>
    .st0{fill:none;stroke:#999999;stroke-width:10;stroke-linecap:round;} .st1{fill:none;stroke:#0072BB;stroke-width:3;stroke-linecap:round;stroke-miterlimit:10;} .st2{fill:#0072BB;} .st3{fill:none;stroke:#0072BB;stroke-width:2;stroke-linecap:round;} .st4{fill:none;stroke:#0072BB;stroke-width:7;stroke-linecap:round;} .st5{fill:#999999;} .st6{font-family:&apos;DroidSans&apos;;} .st7{font-size:12px;} .st8{opacity:0.5;fill:#FFFFFF;enable-background:new ;} .st9{fill:#ED2939;} .st10{fill:none;stroke:#999999;stroke-width:3;stroke-linecap:round;stroke-miterlimit:10;} .st11{fill:none;stroke:#ED2939;stroke-width:3;stroke-linecap:round;stroke-miterlimit:10;} .st12{font-size:9px;} .st13{fill:#FFFFFF;stroke:#ED2939;stroke-width:0.75;stroke-miterlimit:10;} .st14{font-family:&apos;DroidSans-Bold&apos;;} .st15{fill:none;} .st16{fill:#FFFFFF;stroke:#0072BB;stroke-width:0.75;stroke-miterlimit:10;} .st17{font-size:13.5px;} .st18{fill:none;stroke:#0072BB;stroke-width:0.75;stroke-miterlimit:10;}
  </style>
  <path class="st1" d="M257.9 555.9l64.6-3.9"/>
  <path class="st2" d="M335.1 551.2l-17.4 8.4 3.8-7.6-4.7-7z"/>
  <path class="st1" d="M351.6 530.1l15.8 8.3"/>
  <path class="st2" d="M378.6 544.3l-19.2-1.9 7.1-4.5-.3-8.4z"/>
  <path class="st1" d="M443.4 374.8l10.7-14.3"/>
  <path class="st2" d="M461.7 350.3l-4.8 18.7-3.4-7.8-8.4-.9z"/>
  <path class="st1" d="M422.4 226.9l19.3 61.7"/>
  <path class="st2" d="M445.5 300.7l-12.3-14.9 8.2 1.9 5.8-6.3z"/>
  <path class="st5" d="M429.5 164.9c-2.8 0-5.1-2.3-5.1-5.1 0-1.3.5-2.6 1.5-3.6 2-1.9 5.2-1.9 7.2 0 2 2 2 5.2 0 7.2-1 1-2.2 1.5-3.6 1.5z"/>
  <text transform="translate(424 152.3)" class="st2 st6 st7">
    Mainz
  </text>
  <path class="st1" d="M404.6 166.9l10.3-3.2"/>
  <path class="st2" d="M427.1 159.9l-14.9 12.3 1.8-8.2-6.2-5.7z"/>
  <path class="st8" d="M1317.6 667.7h97V731h-97z"/>
  <text transform="translate(1324.2 710.6)" class="st9 st6 st7">
    In Strengberg
  </text>
  <path class="st10" d="M1324.2 719.4h25.6"/>
  <path class="st5" d="M1362.5 719.4l-17.9 7.3 4.2-7.3-4.2-7.3z"/>
  <path class="st11" d="M841.3 775.6l-18.2-16.8"/>
  <path class="st9" d="M813.7 750.1l18.1 6.8-8 2.5-1.9 8.3z"/>
  <text transform="translate(993.4 838)" class="st9 st6 st12">
    XX
  </text>
  <path class="st13" d="M983.3 839.4h30v15h-30z"/>
  <text transform="translate(1018.6 851.3)" class="st9 st14 st7">
    Hiller
  </text>
  <path class="st15" d="M983.3 854.4l30-15"/>
  <text transform="translate(882.6 703.7)" class="st9 st6 st12">
    XX
  </text>
  <path class="st13" d="M872.5 705.1h30v15h-30z"/>
  <text transform="translate(908.8 717)" class="st9 st14 st7">
    Werneck
  </text>
  <path class="st15" d="M872.5 720.1l30-15"/>
  <text transform="translate(1334.3 679.7)" class="st9 st6 st12">
    XX
  </text>
  <path class="st13" d="M1324.2 681.2h30v15h-30z"/>
  <text transform="translate(1359.5 693)" class="st9 st14 st7">
    Gyulai
  </text>
  <path class="st15" d="M1324.2 696.2l30-15"/>
  <text transform="translate(963.4 514.1)" class="st9 st6 st12">
    XXX
  </text>
  <path class="st13" d="M955.7 515.5h30v15h-30z"/>
  <text transform="translate(991 527.4)" class="st9 st14 st7">
    Kienmayer
  </text>
  <path class="st15" d="M955.7 530.5l30-15"/>
  <text transform="translate(1054.5 593.7)" class="st9 st6 st12">
    XX
  </text>
  <path class="st13" d="M1044.5 595.1h30v15h-30z"/>
  <text transform="translate(1079.7 607)" class="st9 st14 st7">
    Gottesheim
  </text>
  <path class="st15" d="M1044.5 610.1l30-15"/>
  <text transform="translate(680.4 750.3)" class="st9 st6 st12">
    XX
  </text>
  <path class="st13" d="M670.3 751.7h30v15h-30z"/>
  <text transform="translate(705.5 763.6)" class="st9 st14 st7">
    Schwarzenberg
  </text>
  <path class="st15" d="M670.3 766.7l30-15"/>
  <text transform="translate(623.9 711.9)" class="st9 st6 st12">
    XX
  </text>
  <path class="st13" d="M613.9 713.3h30v15h-30z"/>
  <text transform="translate(569.1 725.2)" class="st9 st14 st7">
    Klenau
  </text>
  <path class="st15" d="M613.9 728.3l30-15"/>
  <text transform="translate(663.2 832.8)" class="st9 st6 st12">
    XXX
  </text>
  <path class="st13" d="M655.5 834.2h30v15h-30z"/>
  <text transform="translate(691.8 846.1)" class="st9 st14 st7">
    John
  </text>
  <path class="st15" d="M655.5 849.2l30-15"/>
  <text transform="translate(819.3 734.7)" class="st9 st6 st12">
    XX
  </text>
  <path class="st13" d="M809.2 736.1h30v15h-30z"/>
  <text transform="translate(844.4 748)" class="st9 st14 st7">
    Riesch
  </text>
  <path class="st15" d="M809.2 751.1l30-15"/>
  <text transform="translate(680.4 777.7)" class="st9 st6 st12">
    XX
  </text>
  <path class="st15" d="M670.3 794.1l30-15"/>
  <path class="st13" d="M670.3 779.1h30v15h-30z"/>
  <text transform="translate(706.6 791)" class="st9 st14 st7">
    Jellachich
  </text>
  <text transform="translate(401.1 123.6)" class="st2 st6 st12">
    XXX
  </text>
  <path class="st16" d="M393.5 125h30v15h-30z"/>
  <text transform="translate(403.7 137.4)" class="st2 st6 st17">
    II
  </text>
  <text transform="translate(428.8 136.9)" class="st2 st14 st7">
    Marmont
  </text>
  <path class="st15" d="M393.5 140l30-15"/>
  <text transform="translate(415.4 300.4)" class="st2 st6 st12">
    XXX
  </text>
  <path class="st16" d="M407.8 301.8h30v15h-30z"/>
  <text transform="translate(443 313.7)" class="st2 st14 st7">
    Davout
  </text>
  <text transform="translate(415.7 314.2)" class="st2 st6 st17">
    III
  </text>
  <path class="st15" d="M407.8 316.8l30-15"/>
  <text transform="translate(442.2 335.8)" class="st2 st6 st12">
    XXX
  </text>
  <path class="st16" d="M434.6 337.2h30v15h-30z"/>
  <text transform="translate(443.3 349.5)" class="st2 st6 st17">
    IV
  </text>
  <text transform="translate(469.9 349.1)" class="st2 st14 st7">
    Soult
  </text>
  <path class="st15" d="M434.6 352.2l30-15"/>
  <text transform="translate(386.9 530.5)" class="st2 st6 st12">
    XXX
  </text>
  <path class="st16" d="M379.3 532h30v15h-30z"/>
  <text transform="translate(414.6 543.8)" class="st2 st14 st7">
    Lannes
  </text>
  <text transform="translate(390.2 544.3)" class="st2 st6 st17">
    V
  </text>
  <path class="st15" d="M379.3 547l30-15"/>
  <text transform="translate(317.9 516.4)" class="st2 st6 st12">
    XXXX
  </text>
  <path class="st16" d="M312.8 517.8h30v15h-30z"/>
  <text transform="translate(253 529.7)" class="st2 st14 st7">
    Napoleon
  </text>
  <path class="st15" d="M312.8 532.8l30-15"/>
  <text transform="translate(1020.6 282.9)" class="st2 st6 st12">
    XXX
  </text>
  <path class="st16" d="M1013 284.3h30v15h-30z"/>
  <text transform="translate(1048.2 296.2)" class="st2 st14 st7">
    Bavarians
  </text>
  <path class="st15" d="M1013 299.3l30-15"/>
  <text transform="translate(738.5 129.9)" class="st2 st6 st12">
    XXX
  </text>
  <path class="st16" d="M730.8 131.3h30v15h-30z"/>
  <text transform="translate(743.3 143.6)" class="st2 st6 st17">
    I
  </text>
  <text transform="translate(766.1 143.2)" class="st2 st14 st7">
    Bernadotte
  </text>
  <path class="st15" d="M730.8 146.3l30-15"/>
  <text transform="translate(361.9 561.9)" class="st2 st6 st12">
    XXX
  </text>
  <path class="st16" d="M354.2 563.3h30v15h-30z"/>
  <text transform="translate(389.5 575.2)" class="st2 st14 st7">
    Murat
  </text>
  <path class="st18" d="M354.2 578.3l30-15"/>
  <text transform="translate(398.1 459.4)" class="st2 st6 st12">
    XXX
  </text>
  <path class="st16" d="M390.5 460.8h30v15h-30z"/>
  <text transform="translate(399.1 473.2)" class="st2 st6 st17">
    VI
  </text>
  <text transform="translate(425.7 472.7)" class="st2 st14 st7">
    Ney
  </text>
  <path class="st15" d="M390.5 475.8l30-15"/>
  <text transform="translate(769.4 648.9)" class="st9 st6 st12">
    XXX
  </text>
  <path class="st13" d="M761.8 650.3h30v15h-30z"/>
  <text transform="translate(797 662.2)" class="st9 st14 st7">
    Mack
  </text>
  <path class="st15" d="M761.8 665.3l30-15"/>
  <text transform="translate(814.5 569.2)" class="st9 st6 st12">
    XX
  </text>
  <path class="st15" d="M804.4 585.6l30-15"/>
  <path class="st13" d="M804.4 570.6h30v15h-30z"/>
  <text transform="translate(840.7 582.5)" class="st9 st14 st7">
    Auffenberg
  </text>
</svg>
