<svg id="Troop_Movements_by_Day_10_16_Revisions" xmlns="http://www.w3.org/2000/svg" viewBox="0 0 1440 910">
  <style>
    .st0{fill:none;stroke:#0072BB;stroke-width:3;stroke-miterlimit:10;} .st1{fill:#0072BB;} .st2{font-family:&apos;DroidSans&apos;;} .st3{font-size:12px;} .st4{fill:none;stroke:#0072BB;stroke-width:2;stroke-linecap:round;} .st5{fill:#999999;} .st6{fill:none;stroke:#999999;stroke-width:10;stroke-linecap:round;} .st7{fill:none;stroke:#ED2939;stroke-width:3;stroke-linecap:round;stroke-linejoin:round;} .st8{fill:#ED2939;} .st9{opacity:0.5;fill:#FFFFFF;enable-background:new ;} .st10{fill:none;stroke:#999999;stroke-width:3;stroke-linecap:round;stroke-miterlimit:10;} .st11{font-size:9px;} .st12{fill:#FFFFFF;stroke:#ED2939;stroke-width:0.75;stroke-miterlimit:10;} .st13{font-family:&apos;DroidSans-Bold&apos;;} .st14{fill:none;} .st15{fill:#FFFFFF;stroke:#0072BB;stroke-width:0.75;stroke-miterlimit:10;} .st16{font-size:13.5px;} .st17{fill:none;stroke:#0072BB;stroke-width:0.75;stroke-miterlimit:10;}
  </style>
  <!--path class="st0" d="M340.1 551.2l15.7-.3 24-30.4 7.5-20.4 28.5-30.5 25.6-15.9"/>
  <path class="st1" d="M452.2 447l-11.4 15.7-.2-8.5-7.5-4z"/-->
  <path class="st0" d="M455.7 448.4s9.1 5.2 24 9c5.3 1.3 10.7 2.4 16.1 3.2"/>
  <path class="st1" d="M508.4 462.1l-18.7 5.1 5.1-6.8-3.3-7.7z"/>
  <text transform="translate(437.5 472.3)" class="st5 st2 st3">
    Ettlingen
  </text>
  <path class="st0" d="M518.7 475.3l61.5 16 9.8-2.5-1.5-11.9.4-3.6"/>
  <path class="st1" d="M595.6 462.5l-2.3 19.3-4.3-7.3-8.5.1z"/>
  <text transform="translate(600 455.5)" class="st5 st2 st3">
    Ludwigsberg
  </text>
  <path id="Line_2_4-6" class="st0" d="M502.4 323.3l1.3.6"/>
  <path class="st0" d="M503.7 324s9.3-.8 14.4 2.3 1.9 13.2 8.7 11.3c11.2-3.2 34.5-2.2 48-1.3"/>
  <path class="st1" d="M587.5 337.7l-18.5 5.6 4.9-6.9-3.6-7.6z"/>
  <text transform="translate(732.5 207.6)" class="st2 st3">
    Wurzburg
  </text>
  <text transform="translate(732.6 207.7)" class="st5 st2 st3">
    Würzburg
  </text>
  <path class="st5" d="M728.1 220.3c-2.7-.1-4.9-2.3-5-5 0-1.4.5-2.7 1.5-3.6 2-1.9 5.1-1.9 7.1 0s2 5.1.1 7.1c-.9 1-2.2 1.5-3.7 1.5z"/>
  <path class="st7" d="M683.1 812.5s-4.5.5-13-6c-4-3-7.3-6.1-10.5-8.7"/>
  <path class="st8" d="M648.6 791.5l19.1 2.9-7.4 4.1-.1 8.5z"/>
  <path class="st9" d="M1317.6 667.7h97V731h-97z"/>
  <text transform="translate(1324.2 710.6)" class="st8 st2 st3">
    In Strengberg
  </text>
  <path class="st10" d="M1324.2 719.4h25.6"/>
  <path class="st5" d="M1362.5 719.4l-17.9 7.3 4.2-7.3-4.2-7.3z"/>
  <path class="st7" d="M981.6 491.7s-2.8-7.9-5-10.9-3.7-4.6-5.3-7"/>
  <path class="st8" d="M965.8 462.2l14.6 12.8-8.5-.5-4.6 7z"/>
  <text transform="translate(993.4 838)" class="st8 st2 st11">
    XX
  </text>
  <path class="st12" d="M983.3 839.4h30v15h-30z"/>
  <text transform="translate(1018.6 851.3)" class="st8 st13 st3">
    Hiller
  </text>
  <path class="st14" d="M983.3 854.4l30-15"/>
  <text transform="translate(907.1 705.2)" class="st8 st2 st11">
    XX
  </text>
  <path class="st12" d="M897.1 706.6h30v15h-30z"/>
  <text transform="translate(933.3 718.5)" class="st8 st13 st3">
    Werneck
  </text>
  <path class="st14" d="M897.1 721.6l30-15"/>
  <text transform="translate(1334.3 679.7)" class="st8 st2 st11">
    XX
  </text>
  <path class="st12" d="M1324.2 681.2h30v15h-30z"/>
  <text transform="translate(1359.5 693)" class="st8 st13 st3">
    Gyulai
  </text>
  <path class="st14" d="M1324.2 696.2l30-15"/>
  <text transform="translate(978.4 501.3)" class="st8 st2 st11">
    XXX
  </text>
  <path class="st12" d="M970.7 502.7h30v15h-30z"/>
  <text transform="translate(1006 514.6)" class="st8 st13 st3">
    Kienmayer
  </text>
  <path class="st14" d="M970.7 517.7l30-15"/>
  <text transform="translate(986.5 679.2)" class="st8 st2 st11">
    XX
  </text>
  <path class="st12" d="M976.4 680.6h30v15h-30z"/>
  <text transform="translate(1011.7 692.5)" class="st8 st13 st3">
    Gottesheim
  </text>
  <path class="st14" d="M976.4 695.6l30-15"/>
  <text transform="translate(755.5 698.1)" class="st8 st2 st11">
    XX
  </text>
  <path class="st12" d="M745.4 699.5h30v15h-30z"/>
  <text transform="translate(700.6 711.4)" class="st8 st13 st3">
    Klenau
  </text>
  <path class="st14" d="M745.4 714.5l30-15"/>
  <text transform="translate(685.8 817.3)" class="st8 st2 st11">
    XXX
  </text>
  <path class="st12" d="M678.2 818.7h30v15h-30z"/>
  <text transform="translate(714.4 830.6)" class="st8 st13 st3">
    John
  </text>
  <path class="st14" d="M678.2 833.7l30-15"/>
  <text transform="translate(788.5 735.2)" class="st8 st2 st11">
    XX
  </text>
  <path class="st12" d="M778.5 736.7h30v15h-30z"/>
  <text transform="translate(813.7 748.5)" class="st8 st13 st3">
    Riesch
  </text>
  <path class="st14" d="M778.5 751.7l30-15"/>
  <text transform="translate(713.8 792.1)" class="st8 st2 st11">
    XX
  </text>
  <path class="st14" d="M703.7 808.5l30-15"/>
  <path class="st12" d="M703.7 793.5h30v15h-30z"/>
  <text transform="translate(739.9 805.4)" class="st8 st13 st3">
    Jellachich
  </text>
  <text transform="translate(747 247)" class="st1 st2 st11">
    XXX
  </text>
  <path class="st15" d="M739.4 248.4h30v15h-30z"/>
  <text transform="translate(749.6 260.7)" class="st1 st2 st16">
    II
  </text>
  <text transform="translate(774.6 260.3)" class="st1 st13 st3">
    Marmont
  </text>
  <path class="st14" d="M739.4 263.4l30-15"/>
  <text transform="translate(599.7 329.3)" class="st1 st2 st11">
    XXX
  </text>
  <path class="st15" d="M592.1 330.7h30v15h-30z"/>
  <text transform="translate(627.3 342.6)" class="st1 st13 st3">
    Davout
  </text>
  <text transform="translate(600 343)" class="st1 st2 st16">
    III
  </text>
  <path class="st14" d="M592.1 345.7l30-15"/>
  <text transform="translate(590.9 388.6)" class="st1 st2 st11">
    XXX
  </text>
  <path class="st15" d="M583.3 390h30v15h-30z"/>
  <text transform="translate(592 402.3)" class="st1 st2 st16">
    IV
  </text>
  <text transform="translate(618.6 401.9)" class="st1 st13 st3">
    Soult
  </text>
  <path class="st14" d="M583.3 405l30-15"/>
  <text transform="translate(609.7 431.8)" class="st1 st2 st11">
    XXX
  </text>
  <path class="st15" d="M602.1 433.2h30v15h-30z"/>
  <text transform="translate(637.4 445.1)" class="st1 st13 st3">
    Lannes
  </text>
  <text transform="translate(613 445.6)" class="st1 st2 st16">
    V
  </text>
  <path class="st14" d="M602.1 448.2l30-15"/>
  <text transform="translate(327.6 515.2)" class="st1 st2 st11">
    XXXX
  </text>
  <path class="st15" d="M322.4 516.6h30v15h-30z"/>
  <text transform="translate(263 528.5)" class="st1 st13 st3">
    Napoleon
  </text>
  <path class="st14" d="M322.4 531.6l30-15"/>
  <text transform="translate(930.5 192.1)" class="st1 st2 st11">
    XXX
  </text>
  <path class="st15" d="M922.9 193.5h30v15h-30z"/>
  <text transform="translate(958.1 205.4)" class="st1 st13 st3">
    Bavarians
  </text>
  <path class="st14" d="M922.9 208.5l30-15"/>
  <text transform="translate(746.3 219.7)" class="st1 st2 st11">
    XXX
  </text>
  <path class="st15" d="M738.7 221.1h30v15h-30z"/>
  <text transform="translate(751.1 233.5)" class="st1 st2 st16">
    I
  </text>
  <text transform="translate(773.9 233)" class="st1 st13 st3">
    Bernadotte
  </text>
  <path class="st14" d="M738.7 236.1l30-15"/>
  <text transform="translate(496.6 430.7)" class="st1 st2 st11">
    XXX
  </text>
  <path class="st15" d="M489 432.1h30v15h-30z"/>
  <text transform="translate(524.2 444)" class="st1 st13 st3">
    Murat
  </text>
  <path class="st17" d="M489 447.1l30-15"/>
  <text transform="translate(607.9 487.7)" class="st1 st2 st11">
    XXX
  </text>
  <path class="st15" d="M600.3 489.1h30v15h-30z"/>
  <text transform="translate(609 501.4)" class="st1 st2 st16">
    VI
  </text>
  <text transform="translate(635.6 501)" class="st1 st13 st3">
    Ney
  </text>
  <path class="st14" d="M600.3 504.1l30-15"/>
  <text transform="translate(769.4 648.9)" class="st8 st2 st11">
    XXX
  </text>
  <path class="st12" d="M761.8 650.3h30v15h-30z"/>
  <text transform="translate(797 662.2)" class="st8 st13 st3">
    Mack
  </text>
  <path class="st14" d="M761.8 665.3l30-15"/>
  <text transform="translate(682.7 750.5)" class="st8 st2 st11">
    XX
  </text>
  <path class="st12" d="M672.6 751.9h30v15h-30z"/>
  <text transform="translate(707.9 763.8)" class="st8 st13 st3">
    Schwarzenberg
  </text>
  <path class="st14" d="M672.6 766.9l30-15"/>
  <text transform="translate(814.5 569.2)" class="st8 st2 st11">
    XX
  </text>
  <path class="st14" d="M804.4 585.6l30-15"/>
  <path class="st12" d="M804.4 570.6h30v15h-30z"/>
  <text transform="translate(840.7 582.5)" class="st8 st13 st3">
    Auffenberg
  </text>
</svg>
