<svg id="Troop_Movements_by_Day_10_16_Revisions" xmlns="http://www.w3.org/2000/svg" viewBox="0 0 1440 910">
  <style>
    .st0{fill:#999999;} .st1{fill:none;stroke:#0072BB;stroke-width:3;stroke-linecap:round;} .st2{fill:none;stroke:#0072BB;stroke-width:3;stroke-linecap:round;stroke-miterlimit:10;} .st3{fill:#0072BB;} .st4{fill:none;stroke:#999999;stroke-width:7;stroke-linecap:round;} .st5{font-family:&apos;DroidSans&apos;;} .st6{font-size:12px;} .st7{fill:none;stroke:#999999;stroke-width:10;stroke-linecap:round;} .st8{fill:none;stroke:#0072BB;stroke-width:3;stroke-miterlimit:10;} .st9{fill:none;stroke:#0072BB;stroke-width:2;stroke-linecap:round;} .st10{opacity:0.5;fill:#FFFFFF;enable-background:new ;} .st11{fill:#ED2939;} .st12{fill:none;stroke:#999999;stroke-width:3;stroke-linecap:round;stroke-miterlimit:10;} .st13{font-size:9px;} .st14{fill:#FFFFFF;stroke:#ED2939;stroke-width:0.75;stroke-miterlimit:10;} .st15{font-family:&apos;DroidSans-Bold&apos;;} .st16{fill:none;} .st17{fill:#FFFFFF;stroke:#0072BB;stroke-width:0.75;stroke-miterlimit:10;} .st18{font-size:13.5px;} .st19{fill:none;stroke:#0072BB;stroke-width:0.75;stroke-miterlimit:10;}
  </style>
  <path class="st0" d="M982.3 286.6c-1.4 0-2.6-.5-3.6-1.5-2-2-2-5.2 0-7.2 2-1.9 5.2-1.9 7.2 0 2 2 2 5.2 0 7.2-1 1-2.2 1.5-3.6 1.5z"/>
  <path class="st2" d="M1005.8 300.6l-16.4-13.4"/>
  <path class="st3" d="M979.5 279.2l18.5 5.6-7.9 3-1.3 8.4z"/>
  <text transform="translate(275.9 541.4)" class="st0 st5 st6">
    Strasbourg
  </text>
  <path class="st8" d="M401 463.9l12.7-17.5 14.8 7.3 13-18.3"/>
  <path class="st3" d="M453.9 432.8L439 445.1l1.9-8.2-6.3-5.7z"/>
  <path class="st8" d="M381.4 545.4l20.3-21.8 12.7-37"/>
  <path class="st3" d="M418.5 474.5l1.1 19.3-5.5-6.3-8.3 1.6z"/>
  <path class="st8" d="M461.6 347.7l4.2 11.8 6.6 3.6-2.3 7.4 11.9 19.1"/>
  <path class="st3" d="M488.7 400.4L473 389.1l8.5-.3 4-7.4z"/>
  <text transform="translate(424 152.3)" class="st0 st5 st6">
    Mainz
  </text>
  <path class="st0" d="M429.5 164.9c-2.8 0-5.1-2.3-5.1-5.1 0-1.3.5-2.6 1.5-3.6 2-1.9 5.2-1.9 7.2 0 2 2 2 5.2 0 7.2-1 1-2.2 1.5-3.6 1.5z"/>
  <path class="st10" d="M1317.6 667.7h97V731h-97z"/>
  <text transform="translate(1324.2 710.6)" class="st11 st5 st6">
    In Strengberg
  </text>
  <path class="st12" d="M1324.2 719.4h25.6"/>
  <path class="st0" d="M1362.5 719.4l-17.9 7.3 4.2-7.3-4.2-7.3z"/>
  <text transform="translate(993.4 838)" class="st11 st5 st13">
    XX
  </text>
  <path class="st14" d="M983.3 839.4h30v15h-30z"/>
  <text transform="translate(1018.6 851.3)" class="st11 st15 st6">
    Hiller
  </text>
  <path class="st16" d="M983.3 854.4l30-15"/>
  <text transform="translate(1334.3 679.7)" class="st11 st5 st13">
    XX
  </text>
  <path class="st14" d="M1324.2 681.2h30v15h-30z"/>
  <text transform="translate(1359.5 693)" class="st11 st15 st6">
    Gyulai
  </text>
  <path class="st16" d="M1324.2 696.2l30-15"/>
  <text transform="translate(963.4 514.1)" class="st11 st5 st13">
    XXX
  </text>
  <path class="st14" d="M955.7 515.5h30v15h-30z"/>
  <text transform="translate(991 527.4)" class="st11 st15 st6">
    Kienmayer
  </text>
  <path class="st16" d="M955.7 530.5l30-15"/>
  <text transform="translate(1054.5 594.7)" class="st11 st5 st13">
    XX
  </text>
  <path class="st14" d="M1044.4 596.1h30v15h-30z"/>
  <text transform="translate(1079.7 608)" class="st11 st15 st6">
    Gottesheim
  </text>
  <path class="st16" d="M1044.4 611.1l30-15"/>
  <text transform="translate(622.8 714.8)" class="st11 st5 st13">
    XX
  </text>
  <path class="st14" d="M612.7 716.2h30v15h-30z"/>
  <text transform="translate(568 728.1)" class="st11 st15 st6">
    Klenau
  </text>
  <path class="st16" d="M612.7 731.2l30-15"/>
  <text transform="translate(663.2 832.8)" class="st11 st5 st13">
    XXX
  </text>
  <path class="st14" d="M655.5 834.2h30v15h-30z"/>
  <text transform="translate(691.8 846.1)" class="st11 st15 st6">
    John
  </text>
  <path class="st16" d="M655.5 849.2l30-15"/>
  <text transform="translate(795.5 735.5)" class="st11 st5 st13">
    XX
  </text>
  <path class="st14" d="M785.5 736.9h30v15h-30z"/>
  <text transform="translate(820.7 748.8)" class="st11 st15 st6">
    Riesch
  </text>
  <path class="st16" d="M785.5 751.9l30-15"/>
  <text transform="translate(679.8 778.1)" class="st11 st5 st13">
    XX
  </text>
  <path class="st16" d="M669.7 794.5l30-15"/>
  <path class="st14" d="M669.7 779.5h30v15h-30z"/>
  <text transform="translate(705.9 791.4)" class="st11 st15 st6">
    Jellachich
  </text>
  <text transform="translate(401.1 123.6)" class="st3 st5 st13">
    XXX
  </text>
  <path class="st17" d="M393.5 125h30v15h-30z"/>
  <text transform="translate(403.7 137.4)" class="st3 st5 st18">
    II
  </text>
  <text transform="translate(428.8 136.9)" class="st3 st15 st6">
    Marmont
  </text>
  <path class="st16" d="M393.5 140l30-15"/>
  <text transform="translate(464.6 304)" class="st3 st5 st13">
    XXX
  </text>
  <path class="st17" d="M457 305.4h30v15h-30z"/>
  <text transform="translate(492.2 317.3)" class="st3 st15 st6">
    Davout
  </text>
  <text transform="translate(464.9 317.7)" class="st3 st5 st18">
    III
  </text>
  <path class="st16" d="M457 320.4l30-15"/>
  <text transform="translate(444.5 394.5)" class="st3 st5 st13">
    XXX
  </text>
  <path class="st17" d="M436.9 395.9h30v15h-30z"/>
  <text transform="translate(445.6 408.2)" class="st3 st5 st18">
    IV
  </text>
  <text transform="translate(472.2 407.8)" class="st3 st15 st6">
    Soult
  </text>
  <path class="st16" d="M436.9 410.9l30-15"/>
  <text transform="translate(416.9 462.4)" class="st3 st5 st13">
    XXX
  </text>
  <path class="st17" d="M409.3 463.8h30v15h-30z"/>
  <text transform="translate(444.5 475.7)" class="st3 st15 st6">
    Lannes
  </text>
  <text transform="translate(420.2 476.1)" class="st3 st5 st18">
    V
  </text>
  <path class="st16" d="M409.3 478.8l30-15"/>
  <text transform="translate(317.9 516.4)" class="st3 st5 st13">
    XXXX
  </text>
  <path class="st17" d="M312.8 517.8h30v15h-30z"/>
  <text transform="translate(253 529.7)" class="st3 st15 st6">
    Napoleon
  </text>
  <path class="st16" d="M312.8 532.8l30-15"/>
  <text transform="translate(977 255.9)" class="st3 st5 st13">
    XXX
  </text>
  <path class="st17" d="M969.4 257.3h30v15h-30z"/>
  <text transform="translate(1004.7 269.2)" class="st3 st15 st6">
    Bavarians
  </text>
  <path class="st16" d="M969.4 272.3l30-15"/>
  <text transform="translate(738.5 129.9)" class="st3 st5 st13">
    XXX
  </text>
  <path class="st17" d="M730.8 131.3h30v15h-30z"/>
  <text transform="translate(743.3 143.6)" class="st3 st5 st18">
    I
  </text>
  <text transform="translate(766.1 143.2)" class="st3 st15 st6">
    Bernadotte
  </text>
  <path class="st16" d="M730.8 146.3l30-15"/>
  <text transform="translate(358.1 550.8)" class="st3 st5 st13">
    XXX
  </text>
  <path class="st17" d="M350.5 552.2h30v15h-30z"/>
  <text transform="translate(385.7 564.1)" class="st3 st15 st6">
    Murat
  </text>
  <path class="st19" d="M350.5 567.2l30-15"/>
  <text transform="translate(460.4 426.3)" class="st3 st5 st13">
    XXX
  </text>
  <path class="st17" d="M452.8 427.8h30v15h-30z"/>
  <text transform="translate(461.4 440.1)" class="st3 st5 st18">
    VI
  </text>
  <text transform="translate(488.1 439.6)" class="st3 st15 st6">
    Ney
  </text>
  <path class="st16" d="M452.8 442.8l30-15"/>
  <text transform="translate(769.4 648.9)" class="st11 st5 st13">
    XXX
  </text>
  <path class="st14" d="M761.8 650.3h30v15h-30z"/>
  <text transform="translate(797 662.2)" class="st11 st15 st6">
    Mack
  </text>
  <path class="st16" d="M761.8 665.3l30-15"/>
  <text transform="translate(882.6 703.7)" class="st11 st5 st13">
    XX
  </text>
  <path class="st14" d="M872.5 705.1h30v15h-30z"/>
  <text transform="translate(908.8 717)" class="st11 st15 st6">
    Werneck
  </text>
  <path class="st16" d="M872.5 720.1l30-15"/>
  <text transform="translate(679.8 750.7)" class="st11 st5 st13">
    XX
  </text>
  <path class="st14" d="M669.7 752.1h30v15h-30z"/>
  <text transform="translate(704.9 764)" class="st11 st15 st6">
    Schwarzenberg
  </text>
  <path class="st16" d="M669.7 767.1l30-15"/>
  <text transform="translate(814.5 569.2)" class="st11 st5 st13">
    XX
  </text>
  <path class="st16" d="M804.4 585.6l30-15"/>
  <path class="st14" d="M804.4 570.6h30v15h-30z"/>
  <text transform="translate(840.7 582.5)" class="st11 st15 st6">
    Auffenberg
  </text>
</svg>
