<svg id="Troop_Movements_by_Day_10_16_Revisions" xmlns="http://www.w3.org/2000/svg" viewBox="0 0 1440 910">
  <style>
    .st0{fill:#999999;} .st1{font-family:&apos;DroidSans&apos;;} .st2{font-size:12px;} .st3{fill:none;stroke:#0072BB;stroke-width:2;stroke-linecap:round;} .st4{fill:none;stroke:#0072BB;stroke-width:3;stroke-linecap:round;stroke-miterlimit:10;} .st5{fill:#0072BB;} .st6{fill:none;stroke:#0072BB;stroke-width:3;stroke-miterlimit:10;} .st7{fill:none;stroke:#ED2939;stroke-width:3;stroke-linecap:round;stroke-linejoin:round;} .st8{fill:#ED2939;} .st9{font-size:9px;} .st10{fill:#FFFFFF;stroke:#ED2939;stroke-width:0.75;stroke-miterlimit:10;} .st11{font-family:&apos;DroidSans-Bold&apos;;} .st12{fill:none;} .st13{fill:#FFFFFF;stroke:#0072BB;stroke-width:0.75;stroke-miterlimit:10;} .st14{font-size:13.5px;} .st15{fill:none;stroke:#0072BB;stroke-width:0.75;stroke-miterlimit:10;}
  </style>
  <text transform="translate(908.6 182.7)" class="st0 st1 st2">
    Bamburg
  </text>
  <path class="st0" d="M904.2 195.4c-1.4 0-2.6-.5-3.6-1.5-2-2-2-5.2 0-7.2 2-1.9 5.2-1.9 7.2 0 2 2 2 5.2 0 7.2-1 1-2.3 1.5-3.6 1.5z"/>
  <path class="st4" d="M593.8 482.8l13.8 13.7"/>
  <path class="st5" d="M616.6 505.5l-17.9-7.4 8.2-2.2 2.1-8.2z"/>
  <text transform="translate(600 455.5)" class="st0 st1 st2">
    Ludwigsberg
  </text>
  <path class="st0" d="M595.6 468.1c-1.3 0-2.6-.6-3.5-1.5-1.9-2-1.9-5.1 0-7.1 2-1.9 5.1-1.9 7.1 0 1.9 1.9 1.9 5.1 0 7-.9 1.1-2.2 1.6-3.6 1.6z"/>
  <path class="st4" d="M650.7 379l31.1-3.4 7.6 17.8"/>
  <path class="st5" d="M694.3 405.1l-13.7-13.6 8.4 1.1 5.1-6.8z"/>
  <path class="st4" d="M644.9 356.1l.6.4 1.6 1 54 12.1"/>
  <path class="st5" d="M713.5 372.4l-19.1 3.2 5.8-6.2-2.6-8.1z"/>
  <path class="st6" d="M728.5 213.4l-2.8 50.9s-2.2 14.4-21.3 25.2c-11.3 6.4-2.4 9.1 6.7 10.3"/>
  <path class="st5" d="M723.6 302.1l-19 3.9 5.5-6.4-2.8-8z"/>
  <path class="st6" d="M728.3 215l36.4 52 9.2 9.2"/>
  <path class="st5" d="M782.8 285.3l-17.8-7.6 8.2-2.1 2.2-8.2z"/>
  <path class="st7" d="M1096 682c8.6.2 18.2.4 22.6 1 7 1 16 7 23 7s26 10 30 11.5 20.5 0 22 .5 44.5 18 53 22.5 34 32 45.5 27 26.5-20 28.5-31 11.5-14 16-15.5 32.5-5 41.5-6.5 29-.5 33.5-6 16-19 24-21 10-2 10-2"/>
  <path class="st8" d="M1083.2 681.7l17.8 7.7-4.1-7.4 4.4-7.2z"/>
  <path class="st7" d="M965.8 462.2c-1.2-.1-2.3.4-3 1.3v3c0 2.5.3 15.8 0 17.5s-.2 4.3-2.2 5.8c-2.4 1.7-3.8 4.5-3.7 7.5-.3 3.5-.8 7-1.6 10.5"/>
  <path class="st8" d="M951.8 520l-2.5-19.2 6 6 8.2-2.3z"/>
  <text transform="translate(993.4 838)" class="st8 st1 st9">
    XX
  </text>
  <path class="st10" d="M983.3 839.4h30v15h-30z"/>
  <text transform="translate(1018.6 851.3)" class="st8 st11 st2">
    Hiller
  </text>
  <path class="st12" d="M983.3 854.4l30-15"/>
  <text transform="translate(867.2 699)" class="st8 st1 st9">
    XX
  </text>
  <path class="st10" d="M857.1 700.4h30v15h-30z"/>
  <text transform="translate(893.4 712.3)" class="st8 st11 st2">
    Werneck
  </text>
  <path class="st12" d="M857.1 715.4l30-15"/>
  <text transform="translate(1139.5 682.6)" class="st8 st1 st9">
    XX
  </text>
  <path class="st10" d="M1129.5 684h30v15h-30z"/>
  <text transform="translate(1164.7 695.9)" class="st8 st11 st2">
    Gyulai
  </text>
  <path class="st12" d="M1129.5 699l30-15"/>
  <text transform="translate(963.4 514.1)" class="st8 st1 st9">
    XXX
  </text>
  <path class="st10" d="M955.7 515.5h30v15h-30z"/>
  <text transform="translate(991 527.4)" class="st8 st11 st2">
    Kienmayer
  </text>
  <path class="st12" d="M955.7 530.5l30-15"/>
  <text transform="translate(610.4 714.5)" class="st8 st1 st9">
    XX
  </text>
  <path class="st10" d="M600.3 715.9h30v15h-30z"/>
  <text transform="translate(527.1 727.8)" class="st8 st11 st2">
    Gottesheim
  </text>
  <path class="st12" d="M600.3 730.9l30-15"/>
  <text transform="translate(703.3 697.4)" class="st8 st1 st9">
    XX
  </text>
  <path class="st10" d="M693.2 698.8h30v15h-30z"/>
  <text transform="translate(648.4 710.7)" class="st8 st11 st2">
    Klenau
  </text>
  <path class="st12" d="M693.2 713.8l30-15"/>
  <text transform="translate(615.7 741.3)" class="st8 st1 st9">
    XXX
  </text>
  <path class="st10" d="M608.1 742.7h30v15h-30z"/>
  <text transform="translate(578.9 754.6)" class="st8 st11 st2">
    John
  </text>
  <path class="st12" d="M608.1 757.7l30-15"/>
  <text transform="translate(788.5 735.2)" class="st8 st1 st9">
    XX
  </text>
  <path class="st10" d="M778.5 736.7h30v15h-30z"/>
  <text transform="translate(813.7 748.5)" class="st8 st11 st2">
    Riesch
  </text>
  <path class="st12" d="M778.5 751.7l30-15"/>
  <text transform="translate(690.7 790.9)" class="st8 st1 st9">
    XX
  </text>
  <path class="st12" d="M680.7 807.3l30-15"/>
  <path class="st10" d="M680.7 792.3h30v15h-30z"/>
  <text transform="translate(716.9 804.2)" class="st8 st11 st2">
    Jellachich
  </text>
  <text transform="translate(728 310.6)" class="st5 st1 st9">
    XXX
  </text>
  <path class="st13" d="M720.4 312h30v15h-30z"/>
  <text transform="translate(730.6 324.3)" class="st5 st1 st14">
    II
  </text>
  <text transform="translate(755.6 323.9)" class="st5 st11 st2">
    Marmont
  </text>
  <path class="st12" d="M720.4 327l30-15"/>
  <text transform="translate(742.5 374.3)" class="st5 st1 st9">
    XXX
  </text>
  <path class="st13" d="M734.9 375.7h30v15h-30z"/>
  <text transform="translate(770.2 387.5)" class="st5 st11 st2">
    Davout
  </text>
  <text transform="translate(742.8 388)" class="st5 st1 st14">
    III
  </text>
  <path class="st12" d="M734.9 390.7l30-15"/>
  <text transform="translate(703.5 401.4)" class="st5 st1 st9">
    XXX
  </text>
  <path class="st13" d="M695.9 402.8h30v15h-30z"/>
  <text transform="translate(704.5 415.1)" class="st5 st1 st14">
    IV
  </text>
  <text transform="translate(731.1 414.7)" class="st5 st11 st2">
    Soult
  </text>
  <path class="st12" d="M695.9 417.8l30-15"/>
  <text transform="translate(633.9 466.1)" class="st5 st1 st9">
    XXX
  </text>
  <path class="st13" d="M626.3 467.5h30v15h-30z"/>
  <text transform="translate(661.5 479.4)" class="st5 st11 st2">
    Lannes
  </text>
  <text transform="translate(637.2 479.9)" class="st5 st1 st14">
    V
  </text>
  <path class="st12" d="M626.3 482.5l30-15"/>
  <text transform="translate(630.4 428.9)" class="st5 st1 st9">
    XXXX
  </text>
  <path class="st13" d="M625.3 430.4h30v15h-30z"/>
  <text transform="translate(660.5 442.2)" class="st5 st11 st2">
    Napoleon
  </text>
  <path class="st12" d="M625.3 445.4l30-15"/>
  <text transform="translate(946.5 196.3)" class="st5 st1 st9">
    XXX
  </text>
  <path class="st13" d="M938.9 197.7h30v15h-30z"/>
  <text transform="translate(974.1 209.6)" class="st5 st11 st2">
    Bavarians
  </text>
  <path class="st12" d="M938.9 212.7l30-15"/>
  <text transform="translate(793.1 280.5)" class="st5 st1 st9">
    XXX
  </text>
  <path class="st13" d="M785.5 281.9h30v15h-30z"/>
  <text transform="translate(797.9 294.3)" class="st5 st1 st14">
    I
  </text>
  <text transform="translate(820.7 293.8)" class="st5 st11 st2">
    Bernadotte
  </text>
  <path class="st12" d="M785.5 296.9l30-15"/>
  <text transform="translate(639.9 502)" class="st5 st1 st9">
    XXX
  </text>
  <path class="st13" d="M632.3 503.4h30v15h-30z"/>
  <text transform="translate(667.5 515.3)" class="st5 st11 st2">
    Murat
  </text>
  <path class="st15" d="M632.3 518.4l30-15"/>
  <text transform="translate(610.6 519.2)" class="st5 st1 st9">
    XXX
  </text>
  <path class="st13" d="M603 520.6h30v15h-30z"/>
  <text transform="translate(611.6 532.9)" class="st5 st1 st14">
    VI
  </text>
  <text transform="translate(638.2 532.5)" class="st5 st11 st2">
    Ney
  </text>
  <path class="st12" d="M603 535.6l30-15"/>
  <text transform="translate(804.4 648.9)" class="st8 st1 st9">
    XXX
  </text>
  <path class="st10" d="M796.8 650.3h30v15h-30z"/>
  <text transform="translate(832 662.2)" class="st8 st11 st2">
    Mack
  </text>
  <path class="st12" d="M796.8 665.3l30-15"/>
  <text transform="translate(778.5 676.8)" class="st8 st1 st9">
    XX
  </text>
  <path class="st10" d="M768.4 678.2h30v15h-30z"/>
  <text transform="translate(803.6 690.1)" class="st8 st11 st2">
    Schwarzenberg
  </text>
  <path class="st12" d="M768.4 693.2l30-15"/>
  <text transform="translate(814.5 569.2)" class="st8 st1 st9">
    XX
  </text>
  <path class="st12" d="M804.4 585.6l30-15"/>
  <path class="st10" d="M804.4 570.6h30v15h-30z"/>
  <text transform="translate(840.7 582.5)" class="st8 st11 st2">
    Auffenberg
  </text>
</svg>
