<svg id="Troop_Movements_by_Day_10_16_Revisions" xmlns="http://www.w3.org/2000/svg" viewBox="0 0 1440 910">
  <style>
    .st0{fill:none;stroke:#0072BB;stroke-width:3;stroke-miterlimit:10;} .st1{fill:#0072BB;} .st2{fill:none;stroke:#0072BB;stroke-width:2;stroke-linecap:round;} .st3{fill:none;stroke:#ED2939;stroke-width:3;stroke-linecap:round;stroke-linejoin:round;} .st4{fill:#ED2939;} .st5{font-family:&apos;DroidSans&apos;;} .st6{font-size:9px;} .st7{fill:#FFFFFF;stroke:#ED2939;stroke-width:0.75;stroke-miterlimit:10;} .st8{font-family:&apos;DroidSans-Bold&apos;;} .st9{font-size:12px;} .st10{fill:none;} .st11{fill:#FFFFFF;stroke:#0072BB;stroke-width:0.75;stroke-miterlimit:10;} .st12{font-size:13.5px;} .st13{fill:none;stroke:#0072BB;stroke-width:0.75;stroke-miterlimit:10;}
  </style>
  <path class="st0" d="M597 462.6c5.6-1.8 11.7-.8 16.5 2.5l11.1 11.6 36.6 9.2 30.3 2.2"/>
  <path class="st1" d="M704.2 488.9l-18.4 6 4.8-7-3.7-7.6z"/>
  <path class="st0" d="M697.9 519.2l18.6-2.3 18.3 6.2 20.6-2.1"/>
  <path class="st1" d="M768 519.7l-17.1 9.1 3.5-7.7-4.9-6.9z"/>
  <path class="st0" d="M679 516.3l17.3 7.4 20.1-2.3 18.6 6.3 21.2-2.5"/>
  <path class="st1" d="M768.7 522.9l-16.4 10.4 2.9-8-5.4-6.4z"/>
  <path class="st0" d="M657.1 490.2l34.7 2.9"/>
  <path class="st1" d="M704.5 493.9l-18.4 6.1 4.7-7-3.7-7.6z"/>
  <path class="st0" d="M726.1 386.6l.8 1.3s10.4-4.5 45.7 11.4c15.1 6.8 23.3 13.2 27.8 18.4"/>
  <path class="st1" d="M805.6 429.2l-14.5-12.8 8.4.6 4.7-7.1z"/>
  <path class="st0" d="M773.3 329.8l-.1 12.5 10.2 9.7 11.3 24.7"/>
  <path class="st1" d="M800 388.3L785.9 375l8.4.9 4.9-6.9z"/>
  <path class="st0" d="M817.3 320.2l21.4 29.8"/>
  <path class="st1" d="M846.1 360.3L829.7 350l8.4-.8 3.5-7.7z"/>
  <path class="st3" d="M951.8 520c-1.5 2.3 3.3-15.5 3.3-15.5s-1.7-12.3-.7-15 3.5-4 3.8-7 2-12.7-.2-16.2-3-4.7-8.5-3.7-10.5 2-12.7 2-7.5 1.5-12 1.3h-1.1"/>
  <path class="st4" d="M911.1 462.7l19-3.3-5.7 6.2 2.6 8.1z"/>
  <text transform="translate(993.4 838)" class="st4 st5 st6">
    XX
  </text>
  <path class="st7" d="M983.3 839.4h30v15h-30z"/>
  <text transform="translate(1018.6 851.3)" class="st4 st8 st9">
    Hiller
  </text>
  <path class="st10" d="M983.3 854.4l30-15"/>
  <text transform="translate(812.6 647.3)" class="st4 st5 st6">
    XX
  </text>
  <path class="st7" d="M802.5 648.7h30v15h-30z"/>
  <text transform="translate(838.7 660.6)" class="st4 st8 st9">
    Werneck
  </text>
  <path class="st10" d="M802.5 663.7l30-15"/>
  <text transform="translate(843.8 597.9)" class="st4 st5 st6">
    XX
  </text>
  <path class="st7" d="M833.7 599.3h30v15h-30z"/>
  <text transform="translate(869 611.2)" class="st4 st8 st9">
    Gyulai
  </text>
  <path class="st10" d="M833.7 614.3l30-15"/>
  <text transform="translate(963.4 514.1)" class="st4 st5 st6">
    XXX
  </text>
  <path class="st7" d="M955.7 515.5h30v15h-30z"/>
  <text transform="translate(991 527.4)" class="st4 st8 st9">
    Kienmayer
  </text>
  <path class="st10" d="M955.7 530.5l30-15"/>
  <text transform="translate(753.4 576.9)" class="st4 st5 st6">
    XX
  </text>
  <path class="st7" d="M743.3 578.3h30v15h-30z"/>
  <text transform="translate(672.4 590.2)" class="st4 st8 st9">
    Gottesheim
  </text>
  <path class="st10" d="M743.3 593.3l30-15"/>
  <text transform="translate(729.5 615)" class="st4 st5 st6">
    XX
  </text>
  <path class="st7" d="M719.4 616.4h30v15h-30z"/>
  <text transform="translate(674.6 628.3)" class="st4 st8 st9">
    Klenau
  </text>
  <path class="st10" d="M719.4 631.4l30-15"/>
  <text transform="translate(717.4 820.4)" class="st4 st5 st6">
    XXX
  </text>
  <path class="st7" d="M709.8 821.8h30v15h-30z"/>
  <text transform="translate(746.1 833.7)" class="st4 st8 st9">
    John
  </text>
  <path class="st10" d="M709.8 836.8l30-15"/>
  <text transform="translate(788.5 735.2)" class="st4 st5 st6">
    XX
  </text>
  <path class="st7" d="M778.5 736.7h30v15h-30z"/>
  <text transform="translate(813.7 748.5)" class="st4 st8 st9">
    Riesch
  </text>
  <path class="st10" d="M778.5 751.7l30-15"/>
  <text transform="translate(711.3 677.5)" class="st4 st5 st6">
    XX
  </text>
  <path class="st10" d="M701.2 693.9l30-15"/>
  <path class="st7" d="M701.2 678.9h30v15h-30z"/>
  <text transform="translate(641.3 690.8)" class="st4 st8 st9">
    Jellachich
  </text>
  <text transform="translate(803.3 388.6)" class="st1 st5 st6">
    XXX
  </text>
  <path class="st11" d="M795.7 390h30v15h-30z"/>
  <text transform="translate(805.9 402.3)" class="st1 st5 st12">
    II
  </text>
  <text transform="translate(831 401.9)" class="st1 st8 st9">
    Marmont
  </text>
  <path class="st10" d="M795.7 405l30-15"/>
  <text transform="translate(819 431.9)" class="st1 st5 st6">
    XXX
  </text>
  <path class="st11" d="M811.4 433.3h30v15h-30z"/>
  <text transform="translate(846.7 445.2)" class="st1 st8 st9">
    Davout
  </text>
  <text transform="translate(819.3 445.6)" class="st1 st5 st12">
    III
  </text>
  <path class="st10" d="M811.4 448.3l30-15"/>
  <text transform="translate(722.4 413.4)" class="st1 st5 st6">
    XXX
  </text>
  <path class="st11" d="M714.8 414.8h30v15h-30z"/>
  <text transform="translate(723.4 427.1)" class="st1 st5 st12">
    IV
  </text>
  <text transform="translate(750 426.7)" class="st1 st8 st9">
    Soult
  </text>
  <path class="st10" d="M714.8 429.8l30-15"/>
  <text transform="translate(715.9 489.6)" class="st1 st5 st6">
    XXX
  </text>
  <path class="st11" d="M708.3 491h30v15h-30z"/>
  <text transform="translate(743.5 502.9)" class="st1 st8 st9">
    Lannes
  </text>
  <text transform="translate(719.2 503.3)" class="st1 st5 st12">
    V
  </text>
  <path class="st10" d="M708.3 506l30-15"/>
  <text transform="translate(689 454.9)" class="st1 st5 st6">
    XXXX
  </text>
  <path class="st11" d="M683.9 456.4h30v15h-30z"/>
  <text transform="translate(719.1 468.2)" class="st1 st8 st9">
    Napoleon
  </text>
  <path class="st10" d="M683.9 471.4l30-15"/>
  <text transform="translate(895 289.5)" class="st1 st5 st6">
    XXX
  </text>
  <path class="st11" d="M887.4 290.9h30v15h-30z"/>
  <text transform="translate(922.6 302.8)" class="st1 st8 st9">
    Bavarians
  </text>
  <path class="st10" d="M887.4 305.9l30-15"/>
  <text transform="translate(858.6 367.1)" class="st1 st5 st6">
    XXX
  </text>
  <path class="st11" d="M851 368.5h30v15h-30z"/>
  <text transform="translate(863.5 380.8)" class="st1 st5 st12">
    I
  </text>
  <text transform="translate(886.3 380.4)" class="st1 st8 st9">
    Bernadotte
  </text>
  <path class="st10" d="M851 383.5l30-15"/>
  <text transform="translate(650.5 512.7)" class="st1 st5 st6">
    XXX
  </text>
  <path class="st11" d="M642.8 514.1h30v15h-30z"/>
  <text transform="translate(605.6 526)" class="st1 st8 st9">
    Murat
  </text>
  <path class="st13" d="M642.8 529.1l30-15"/>
  <text transform="translate(808.9 506)" class="st1 st5 st6">
    XXX
  </text>
  <path class="st11" d="M801.3 507.4h30v15h-30z"/>
  <text transform="translate(809.9 519.8)" class="st1 st5 st12">
    VI
  </text>
  <text transform="translate(776.5 519.3)" class="st1 st8 st9">
    Ney
  </text>
  <path class="st10" d="M801.3 522.4l30-15"/>
  <text transform="translate(809.4 538.9)" class="st4 st5 st6">
    XXX
  </text>
  <path class="st7" d="M801.8 540.3h30v15h-30z"/>
  <text transform="translate(837 552.2)" class="st4 st8 st9">
    Mack
  </text>
  <path class="st10" d="M801.8 555.3l30-15"/>
  <text transform="translate(772.2 621.1)" class="st4 st5 st6">
    XX
  </text>
  <path class="st7" d="M762.1 622.5h30v15h-30z"/>
  <text transform="translate(797.4 634.4)" class="st4 st8 st9">
    Schwarzenberg
  </text>
  <path class="st10" d="M762.1 637.5l30-15"/>
  <text transform="translate(800 573)" class="st4 st5 st6">
    XX
  </text>
  <path class="st10" d="M789.9 589.4l30-15"/>
  <path class="st7" d="M789.9 574.4h30v15h-30z"/>
  <text transform="translate(826.2 586.3)" class="st4 st8 st9">
    Auffenberg
  </text>
</svg>
