<?xml version="1.0" encoding="utf-8"?>
<!-- Generator: Adobe Illustrator 15.0.2, SVG Export Plug-In . SVG Version: 6.00 Build 0)  -->
<!DOCTYPE svg PUBLIC "-//W3C//DTD SVG 1.1//EN" "http://www.w3.org/Graphics/SVG/1.1/DTD/svg11.dtd">
<svg version="1.1" id="Roads" xmlns="http://www.w3.org/2000/svg" xmlns:xlink="http://www.w3.org/1999/xlink" x="0px" y="0px"
	 width="1440px" height="910px" viewBox="0 0 1440 910" enable-background="new 0 0 1440 910" xml:space="preserve">
<g id="roads">
	<g>
		<defs>
			<rect id="SVGID_1_" x="-253.16" y="-447.83" width="1682.94" height="1070.77"/>
		</defs>
		<clipPath id="SVGID_2_">
			<use xlink:href="#SVGID_1_"  overflow="visible"/>
		</clipPath>
		
			<polyline clip-path="url(#SVGID_2_)" fill="none" stroke="#7e4e23" stroke-width="1.5001" stroke-linejoin="round" stroke-miterlimit="10" points="
			607.12,548.11 607.37,542.5 604.69,536.63 602.52,530.13 602.27,530 601.51,529.11 599.85,527.45 599.08,526.69 598.32,525.54 
			597.04,523.37 596.02,522.23 595.51,521.71 594.88,521.33 594.11,521.08 593.34,521.08 591.43,520.95 589.9,520.7 589.26,520.57 
			588.75,520.19 588.25,519.8 587.86,519.42 587.48,518.53 587.48,517.51 587.86,514.32 587.99,512.66 587.74,511.13 587.22,507.95 
			587.48,503.1 584.67,501.19 578.68,499.41 571.67,498.13 566.31,495.96 566.44,495.71 564.91,494.56 562.87,492.78 561.85,491.88 
			560.96,490.86 560.07,489.59 557.77,485.38 556.5,483.47 555.48,482.19 553.44,480.28 552.67,479.52 551.01,476.84 547.83,472.89 
			544.26,467.79 536.6,457.72 535.46,456.57 533.93,454.27 530.87,453.25 		"/>
		
			<polyline clip-path="url(#SVGID_2_)" fill="none" stroke="#7e4e23" stroke-width="1.5001" stroke-linejoin="round" stroke-miterlimit="10" points="
			538.39,455.42 538.77,455.42 540.94,456.19 544.89,457.84 546.93,458.48 547.95,458.74 549.99,458.99 551.14,459.25 
			554.71,460.39 556.62,461.03 558.41,461.29 560.32,461.54 565.29,461.92 571.79,463.58 574.6,463.58 578.05,464.6 579.32,464.73 
			581.1,464.6 585.06,464.09 587.48,463.58 589.14,463.45 592.2,463.45 595.13,463.33 596.41,463.33 597.81,463.45 598.96,463.84 
			600.61,464.6 603.42,466 605.33,466.64 606.35,466.89 607.37,467.02 609.79,466.89 614.26,465.88 617.32,466.26 617.32,466.51 
			619.48,467.02 620.5,467.41 621.01,468.04 622.03,469.45 622.29,469.83 622.67,469.96 623.05,470.08 623.56,469.96 624.97,469.45 
			625.86,469.32 626.88,469.7 628.79,470.46 633.64,472.89 632.74,473.01 634.91,475.57 635.68,475.95 636.57,476.2 640.14,476.46 
			642.82,476.84 644.09,476.97 644.73,476.84 645.37,476.59 647.15,475.57 647.79,475.31 648.3,475.31 648.94,475.31 650.21,475.69 
			652.51,476.97 652.13,477.09 652.89,478.37 653.65,479.13 654.67,479.77 655.82,480.41 656.84,480.79 659.9,481.43 662.71,482.45 
			664.49,482.96 669.47,484.11 671.12,484.74 674.31,486.66 678.77,487.04 686.3,490.35 686.3,490.73 687.7,491.76 689.48,493.67 
			690.25,494.43 693.05,496.22 695.73,498.13 697.52,499.15 700.07,500.17 701.34,500.81 705.42,503.74 706.44,504.25 708.1,505.01 
			709.25,505.65 710.27,506.29 711.92,507.82 712.69,508.46 713.58,508.84 714.48,509.22 716.9,508.97 719.83,507.05 720.85,506.29 
			721.74,505.53 724.16,502.72 725.19,501.7 731.05,497.11 732.58,495.58 735.39,492.01 736.66,489.97 737.3,488.57 738.57,484.62 
			740.36,481.56 745.33,477.86 745.58,478.24 749.79,476.08 750.56,475.82 751.45,475.57 752.6,475.44 756.17,475.69 758.21,475.69 
			759.36,475.57 760.89,475.44 764.84,474.16 769.43,473.27 771.6,471.36 774.53,473.14 774.66,473.01 775.93,473.27 777.08,473.4 
			782.31,473.14 786,472.25 789.32,470.72 792.76,470.97 796.21,469.32 799.78,469.45 800.16,468.94 803.22,464.98 804.11,464.09 
			805.13,463.2 811.5,457.08 815.58,453.64 819.92,453.64 825.66,452.24 830,448.79 834.46,444.71 840.32,441.78 845.42,438.85 
			851.42,434.9 859.45,432.73 865.31,429.03 870.16,425.21 872.07,422.4 875.51,422.66 879.34,425.84 887.75,430.3 893.75,432.22 		
			"/>
		
			<polyline clip-path="url(#SVGID_2_)" fill="none" stroke="#7e4e23" stroke-width="1.5001" stroke-linejoin="round" stroke-miterlimit="10" points="
			530.87,453.38 528.06,453 528.19,453.13 526.02,453.25 524.36,453.25 522.45,453.13 520.92,452.74 517.35,452.74 508.43,455.8 
			508.68,456.06 506.13,456.95 504.22,457.97 501.92,458.86 500.78,459.76 498.61,461.92 497.84,462.43 496.95,462.69 
			495.17,462.82 493.63,463.2 488.15,464.35 480.63,465.24 472.34,466.13 460.23,468.68 450.03,470.85 444.67,470.85 440.97,471.23 
			441.1,471.36 438.43,471.87 435.75,472.12 435.11,472.25 434.47,472.51 433.45,473.27 432.69,473.65 431.67,474.03 430.27,474.29 
			427.08,474.93 422.62,475.05 418.66,473.65 412.8,473.78 408.72,473.53 404.38,473.53 404.51,473.4 402.6,472.89 399.67,472.51 
			395.33,473.14 389.21,473.14 383.73,472.51 379.26,475.05 376.46,476.97 372.38,479.13 368.68,482.19 365.75,483.09 
			360.78,485.89 355.55,486.66 352.36,489.72 352.11,494.69 349.94,496.98 347.9,500.43 347.01,501.32 346.24,501.83 345.35,502.34 
			343.95,502.85 343.31,503.23 342.54,504 341.78,505.14 340.5,507.44 340.25,508.33 340.12,508.97 340.12,509.86 340.76,511.52 
			341.01,512.66 338.34,516.62 333.36,521.33 328.26,524.9 328.39,525.03 326.09,527.58 322.78,531.02 321.76,532.3 319.85,534.85 
			318.32,537.52 315,541.99 315,542.24 314.11,542.75 313.09,543.13 309.26,544.28 308.5,544.79 307.86,545.43 307.61,546.19 
			307.48,546.96 307.61,547.98 308.12,549.89 308.24,550.65 307.99,551.42 307.73,552.06 307.48,552.57 305.95,554.1 305.31,554.99 
			304.93,555.75 304.8,557.79 304.42,558.94 303.78,559.83 302.51,561.11 297.66,564.81 303.78,564.68 306.46,565.7 306.2,565.57 
			306.97,566.21 307.35,566.85 307.73,567.61 307.99,568.5 308.5,571.56 308.37,572.46 308.12,573.35 304.29,579.08 305.06,579.34 
			304.8,580.36 304.67,581.76 304.67,583.16 304.67,584.82 305.06,586.86 305.82,589.92 305.95,590.69 305.95,591.58 305.57,592.98 
			305.18,594.13 304.42,595.27 302.89,597.06 297.66,603.82 297.4,603.43 295.37,605.22 294.35,606.24 293.45,607.51 292.94,608.54 
			292.56,609.68 292.43,610.96 292.43,612.1 292.56,614.53 292.56,615.54 292.31,616.82 291.8,618.86 288.22,624.98 280.83,634.67 
					"/>
		
			<polyline clip-path="url(#SVGID_2_)" fill="none" stroke="#7e4e23" stroke-width="1.5001" stroke-linejoin="round" stroke-miterlimit="10" points="
			534.44,448.16 538.52,439.87 539.67,437.45 541.58,432.35 543.87,427.38 545.53,423.55 548.85,413.1 553.56,402.9 561.09,399.71 
			575.11,393.72 578.3,389.64 587.86,387.22 598.32,382.63 605.71,378.42 605.59,374.59 608.39,371.28 608.65,371.41 609.16,370.64 
			609.67,369.62 611.07,366.05 612.6,362.74 612.73,355.98 612.34,353.3 612.34,350.37 612.09,348.84 611.83,347.57 611.2,345.91 
			609.54,342.59 609.16,341.7 609.03,340.68 609.03,339.79 609.16,339.03 609.54,338.26 610.56,336.73 610.81,336.09 611.07,335.46 
			611.07,334.69 610.81,334.05 610.43,333.42 609.92,332.78 608.52,331.63 608.14,331.12 607.88,330.61 607.75,329.97 
			607.63,329.08 607.12,323.47 607.12,322.58 607.37,321.56 608.65,318.75 609.16,317.48 609.28,316.84 609.41,315.44 
			609.79,313.53 610.05,312.76 611.2,310.85 611.71,309.57 611.83,308.94 611.83,308.17 611.71,306.64 611.07,303.46 610.81,302.56 
			610.3,301.54 608.77,299.38 606.73,297.34 606.09,296.45 603.93,292.62 602.78,290.83 599.47,286.12 597.3,285.61 603.29,285.48 
			615.27,290.83 617.95,292.36 619.23,293 620.38,293.38 622.93,293.89 624.07,294.15 629.43,296.83 636.44,298.48 636.06,298.87 
			636.82,299.63 637.21,300.65 637.33,301.42 636.95,303.2 636.95,304.09 637.08,304.73 637.33,305.24 637.72,305.62 638.23,306.13 
			638.99,306.64 640.27,307.15 641.92,307.54 644.48,308.17 645.62,308.68 646.64,309.32 648.3,310.72 649.19,311.23 649.96,311.49 
			652.51,312.13 654.16,312.63 659.9,315.19 665,320.79 669.34,321.43 669.34,321.18 672.4,322.07 674.18,322.83 675.97,323.73 
			681.45,327.3 683.49,328.44 685.4,329.21 690.63,331.12 692.03,331.76 693.56,332.65 698.66,336.86 698.79,336.73 700.45,338 
			701.98,338.9 703.51,339.54 707.33,341.19 708.36,341.7 709.12,342.34 710.14,343.23 711.16,344.25 713.84,348.08 714.98,349.35 
			715.88,350.37 717.28,351.39 718.43,352.16 719.7,352.67 725.06,354.32 732.2,358.79 735.9,364.01 735.77,364.01 736.91,367.46 
			737.81,371.15 738.19,372.3 738.83,373.83 739.85,375.1 740.61,375.87 741.38,376.25 742.14,376.63 742.91,376.76 743.67,376.89 
			744.31,376.89 746.99,376.25 748.26,376.12 749.03,376.25 749.67,376.38 750.3,376.63 751.07,377.02 752.34,378.16 752.85,378.67 
			753.24,379.31 753.87,380.97 754.77,384.03 755.4,385.3 756.3,386.32 756.93,387.09 757.83,387.73 758.97,388.24 762.93,389.13 
			767.52,392.06 774.66,391.42 783.97,390.53 788.56,394.48 788.17,394.74 789.7,396.78 790.6,398.05 790.98,398.82 792,401.49 
			792.89,403.41 794.17,405.06 795.19,406.21 795.95,406.72 796.72,407.23 799.01,408.12 802.45,409.14 805,409.78 817.25,413.22 
			817.12,413.61 819.79,414.63 825.28,416.67 827.06,417.17 829.48,417.81 832.16,418.19 834.33,418.45 836.37,418.58 
			838.79,418.45 840.07,418.58 841.6,418.96 845.04,420.11 847.97,420.87 849.12,421 853.97,421.13 857.03,421.51 857.79,421.64 
			858.56,422.02 861.11,423.17 862.89,423.55 863.78,423.68 864.68,423.68 865.57,423.42 866.72,423.17 872.96,422.27 		"/>
		
			<polyline clip-path="url(#SVGID_2_)" fill="none" stroke="#7e4e23" stroke-width="1.5001" stroke-linejoin="round" stroke-miterlimit="10" points="
			657.74,316.2 657.23,322.96 657.1,322.96 656.72,323.98 656.33,324.87 655.7,325.89 654.67,327.17 653.15,328.95 650.34,331.5 
			649.19,332.65 646.51,336.35 640.01,344.13 633.64,352.54 632.49,353.81 631.34,354.58 628.92,355.6 628.15,355.85 625.86,356.24 
			622.8,357.26 620.63,357.64 619.74,358.02 618.34,358.79 615.66,360.83 614.26,361.72 611.45,364.91 		"/>
		
			<polyline clip-path="url(#SVGID_2_)" fill="none" stroke="#7e4e23" stroke-width="1.5001" stroke-linejoin="round" stroke-miterlimit="10" points="
			527.3,447.77 527.04,447.9 525.51,445.86 524.88,444.97 524.62,444.08 523.85,441.53 523.22,440.25 522.33,439.1 520.29,436.55 
			519.01,434.9 516.46,430.3 510.98,425.59 504.98,421 501.54,419.21 500.65,418.58 499.76,417.69 497.59,415.01 496.57,413.86 
			494.02,411.44 491.21,409.02 489.94,407.74 488.03,405.45 484.71,401.24 481.52,397.54 479.36,394.74 473.62,387.47 
			468.01,382.24 463.54,377.14 457.3,368.6 452.83,358.91 451.82,351.9 450.67,347.31 444.8,344.51 437.28,346.04 434.35,344.76 
			432.94,341.7 429.63,339.03 425.8,334.05 422.23,330.36 417.64,328.7 414.58,325.76 408.21,324.62 401.19,319.39 396.22,317.22 
			391.38,316.97 385.13,317.99 378.5,314.8 369.19,312.38 363.58,311.87 355.17,308.3 349.17,306.64 342.03,306.26 335.4,307.03 		
			"/>
		
			<polyline clip-path="url(#SVGID_2_)" fill="none" stroke="#7e4e23" stroke-width="1.5001" stroke-linejoin="round" stroke-miterlimit="10" points="
			349.3,314.17 353.13,307.79 353,301.67 353.38,298.87 351.6,295.43 355.55,292.75 358.1,289.43 358.22,289.56 360.01,287.27 
			361.29,285.61 363.33,282.42 364.6,280.64 368.81,277.58 368.68,277.45 369.57,276.81 370.47,276.17 371.49,275.79 372.63,275.28 
			374.8,275.16 377.48,276.43 381.43,280.25 384.87,283.95 386.66,286.12 392.27,292.62 395.84,294.02 401.07,294.79 401.07,294.92 
			402.34,295.3 403.36,295.43 404,295.3 405.91,294.92 407.19,294.92 408.21,295.04 409.36,295.43 414.45,297.59 417.77,299.63 
			418.54,300.4 420.19,302.82 420.83,303.84 421.47,305.24 422.23,306.9 422.74,307.79 423.38,308.56 426.57,311.74 428.61,311.87 
			431.67,312.76 431.54,313.02 433.45,314.04 434.22,314.42 435.49,314.8 437.41,315.19 438.81,315.82 440.47,316.59 442.13,317.35 
			446.84,319.52 446.84,319.14 448.25,319.27 450.28,319.65 451.05,319.9 451.69,320.29 452.45,320.92 453.6,322.71 454.49,323.6 
			455.64,324.49 458.44,326.28 462.4,329.21 464.06,330.61 465.97,332.4 470.81,337.37 483.31,338.26 482.8,342.59 482.8,342.08 
			482.16,344.13 481.14,346.16 479.99,347.95 477.19,351.78 476.55,352.79 475.53,354.71 473.36,361.46 473.11,362.87 
			472.73,365.16 472.47,366.31 471.7,368.73 471.45,369.24 470.94,369.88 468.01,375.23 465.08,378.93 463.03,384.16 463.42,383.78 
			462.65,386.32 462.27,387.34 461.63,388.49 460.49,390.02 457.68,393.21 454.88,395.89 454.75,395.76 453.34,395.89 
			452.96,396.01 452.45,396.27 451.94,396.9 450.54,398.82 450.28,399.58 450.16,400.35 450.16,401.11 450.41,402.39 		"/>
		
			<polyline clip-path="url(#SVGID_2_)" fill="none" stroke="#7e4e23" stroke-width="1.5001" stroke-linejoin="round" stroke-miterlimit="10" points="
			452.45,412.97 459.98,413.48 468.65,415.52 474.38,416.79 474.38,416.92 476.42,417.56 479.99,419.21 484.07,420.74 
			485.99,421.38 488.15,421.89 489.68,422.02 490.83,422.02 493.38,421.76 501.16,421.51 506.13,421.38 510.98,425.59 
			517.35,430.69 519.26,426.99 523.6,423.17 528.57,422.53 532.4,418.71 532.01,415.65 530.36,412.59 529.59,410.29 529.34,410.42 
			528.7,408.89 528.32,407.1 527.81,403.54 527.42,401.49 526.15,397.03 526.28,397.92 526.02,394.61 525.39,392.06 525.26,391.17 
			525.26,390.15 525.51,387.98 525.51,386.45 524.62,382.12 524.36,380.33 523.73,374.34 523.85,374.34 523.6,372.68 523.09,371.03 
			521.94,368.73 520.92,366.05 520.41,365.03 519.14,363.12 518.75,362.35 518.5,361.59 518.37,360.57 518.37,359.3 518.5,358.02 
			519.26,353.69 519.39,352.54 519.26,351.65 519.01,349.99 518.5,348.59 517.86,347.06 516.59,344.38 516.08,343.23 515.69,341.32 
			515.44,338.51 513.53,333.29 516.59,329.72 516.46,328.95 517.23,327.3 517.61,326.28 517.86,325 517.99,323.98 518.12,321.81 
			518.12,318.63 518.37,314.04 518.25,312.13 518.12,311.62 517.86,310.85 517.99,304.35 520.03,298.48 520.92,295.3 521.43,294.02 
			522.58,292.11 522.96,290.71 523.34,289.69 523.47,288.79 523.09,287.01 520.29,279.87 517.23,271.2 517.48,257.43 517.23,257.43 
			517.35,249.02 517.23,245.07 516.97,240.35 516.84,238.31 516.97,235.63 517.86,232.45 523.73,229.38 523.73,229.51 525,228.62 
			527.42,226.84 528.32,226.33 529.34,225.94 531.76,225.18 532.65,224.92 533.29,224.54 533.93,224.03 534.69,223.27 
			537.11,220.72 537.63,220.33 538.26,219.95 539.03,219.7 540.18,219.31 544.26,218.55 545.27,218.29 546.68,217.91 548.08,217.27 
			548.85,216.76 549.74,216 551.91,213.7 553.44,212.56 558.03,210.01 562.23,208.48 564.15,207.58 565.04,207.08 565.68,206.44 
			566.44,205.8 567.59,204.53 567.72,199.81 570.52,194.96 570.65,194.96 573.07,191.27 574.47,189.48 575.62,187.95 577.79,185.79 
			581.87,181.96 586.59,177.63 593.85,171.89 596.66,169.85 599.47,167.55 601.51,165.39 605.33,161.18 606.99,158.63 
			606.22,153.27 606.35,153.27 606.48,152 606.73,150.6 607.12,148.94 607.63,147.67 608.14,146.14 610.81,140.4 611.96,138.36 
			612.6,137.47 613.24,136.83 615.4,135.04 616.68,134.15 619.1,133.13 619.99,132.62 621.14,131.86 622.29,130.84 623.95,129.05 
			624.84,127.65 625.73,125.87 626.37,123.57 627.39,118.6 627.13,118.6 627.01,117.2 626.75,115.67 625.73,110.95 625.48,106.62 
			625.35,105.59 624.71,102.79 624.58,101.26 624.58,100.11 624.97,98.71 625.48,97.31 626.37,95.52 630.58,86.73 626.11,86.73 
			620.5,84.81 611.71,85.2 611.71,85.32 609.54,85.32 606.35,85.32 602.27,85.32 594.24,85.58 591.56,85.58 589.9,85.45 
			587.61,85.2 585.95,84.81 583.91,84.3 575.24,81.25 570.52,79.59 563.51,80.73 556.11,80.35 550.89,82.27 546.04,87.11 
			542.85,92.72 542.85,92.84 542.22,93.87 541.58,95.27 540.68,97.31 539.54,100.37 538.65,102.03 537.88,103.17 537.11,104.06 
			533.8,107.25 531.89,109.16 526.79,109.67 519.77,108.91 511.61,109.42 509.7,109.29 504.86,108.53 502.94,108.27 501.67,108.4 
			500.39,108.53 495.29,109.67 494.15,109.93 492.74,110.06 491.09,109.93 488.41,109.42 485.48,109.04 483.95,108.65 
			482.93,108.02 482.03,107.38 479.23,104.7 478.34,104.06 477.32,103.43 475.78,102.92 474.77,102.66 473.11,102.41 471.45,102.54 
			469.54,102.79 467.88,103.17 466.35,103.94 464.57,104.83 462.78,106.23 458.57,109.93 457.04,110.95 453.73,113.12 
			452.58,114.01 451.31,115.16 448.88,118.73 446.71,115.54 437.66,113.12 432.3,111.33 429.12,107 426.06,104.06 420.83,103.17 
			414.07,105.59 411.65,107.38 410.12,108.4 408.72,109.04 407.44,109.42 406.04,109.55 404.77,109.29 403.62,109.04 402.21,108.27 
			400.94,107.76 400.05,107.51 399.16,107.38 398.39,107.51 397.5,107.76 395.46,108.65 394.31,108.91 393.42,109.16 391.38,109.29 
			390.49,109.55 389.21,109.93 388.06,110.57 386.91,111.46 384.75,113.5 383.98,114.01 383.22,114.39 382.32,114.52 381.43,114.65 
			380.41,114.77 377.22,114.65 376.33,114.77 375.31,114.9 373.78,115.41 371.36,116.43 370.08,116.81 368.94,117.07 366.13,117.45 
			364.6,117.83 362.3,118.73 360.39,119.62 353.51,122.55 353.63,122.55 349.94,123.83 344.33,125.1 342.29,125.87 341.39,126.38 
			340.76,126.76 338.59,128.41 336.42,129.95 334.51,131.6 330.43,135.81 330.17,130.71 330.3,130.71 330.17,128.92 329.92,127.91 
			328.64,124.46 328.26,123.32 328.13,122.3 328.26,121.28 328.39,120.51 329.28,117.71 329.54,116.3 329.41,114.65 329.03,108.65 
			328.77,107.64 328.52,106.62 326.99,103.55 325.97,100.75 325.59,99.35 324.31,94.76 326.22,83.79 326.35,79.71 324.82,74.23 
			324.05,70.15 322.91,66.97 		"/>
		
			<polyline clip-path="url(#SVGID_2_)" fill="none" stroke="#7e4e23" stroke-width="1.5001" stroke-linejoin="round" stroke-miterlimit="10" points="
			336.93,137.34 336.29,137.08 338.85,137.85 342.16,139.12 346.88,140.4 349.68,141.55 350.83,142.06 351.85,142.82 354.91,145.24 
			356.19,146.14 361.67,149.96 361.67,149.83 362.94,150.6 366,152 369.06,153.4 370.85,154.17 373.91,155.06 377.86,156.08 
			379.65,156.59 382.71,157.61 385.13,158.5 386.28,159.14 388.57,160.92 390.36,162.07 396.35,165.13 398.9,166.66 401.07,168.32 
			404.51,171.25 407.95,174.18 407.95,174.06 410.12,175.33 411.65,176.1 412.93,176.48 414.58,176.99 418.03,177.75 419.3,178.14 
			421.47,179.03 424.78,180.81 425.55,181.07 426.31,181.32 427.08,181.32 427.97,181.19 431.8,180.18 437.15,179.03 441.23,178.14 
			443.53,177.88 448.75,178.26 453.6,178.26 457.17,175.59 463.16,173.54 464.18,178.39 465.08,182.22 465.46,184.89 465.58,186.29 
			465.46,187.31 466.86,192.16 466.6,192.29 467.37,194.71 468.9,199.04 472.09,206.69 471.83,206.82 472.21,208.99 472.47,211.03 
			472.47,213.07 472.09,217.27 472.21,218.68 472.34,219.7 472.73,220.59 473.75,222.88 474.51,224.03 475.53,230.28 475.78,232.06 
			476.68,235 476.93,236.4 477.06,237.54 476.93,238.57 476.55,239.84 475.78,240.73 475.02,241.37 472.6,243.16 470.94,245.58 
			469.54,252.97 469.67,252.21 469.03,253.74 468.26,254.88 467.24,256.03 464.95,258.2 464.44,258.84 464.06,259.47 463.42,260.75 
			462.52,264.19 461.63,266.74 458.83,272.48 458.32,272.86 457.68,274.01 457.04,275.41 457.04,277.19 458.95,281.4 463.93,286.5 
			465.33,288.41 466.73,290.33 468.01,291.6 469.16,292.62 475.15,297.34 479.23,300.14 480.63,304.22 484.84,308.3 488.28,312.13 
			488.28,318.88 487.77,323.85 487.77,326.28 485.22,328.44 483.95,334.56 483.31,338.26 		"/>
		
			<polyline clip-path="url(#SVGID_2_)" fill="none" stroke="#7e4e23" stroke-width="1.5001" stroke-linejoin="round" stroke-miterlimit="10" points="
			482.8,342.08 480.25,340.56 473.62,342.34 470.3,343.62 470.3,343.49 467.24,344.63 465.71,345.27 464.57,345.53 461.63,345.78 
			458.19,345.78 450.67,347.31 		"/>
		
			<polyline clip-path="url(#SVGID_2_)" fill="none" stroke="#7e4e23" stroke-width="1.5001" stroke-linejoin="round" stroke-miterlimit="10" points="
			483.31,338.26 488.54,334.82 492.87,333.29 498.35,333.03 502.56,329.97 505.75,329.08 511.36,331.89 513.78,333.03 		"/>
		
			<polyline clip-path="url(#SVGID_2_)" fill="none" stroke="#7e4e23" stroke-width="1.5001" stroke-linejoin="round" stroke-miterlimit="10" points="
			502.56,325 499.76,319.39 496.7,315.82 494.53,308.17 501.67,305.37 505.88,304.73 508.81,304.6 509.58,301.67 509.7,301.8 
			510.34,301.29 510.85,301.03 511.49,300.78 512.25,300.78 513.66,301.16 516.97,302.44 517.99,304.35 		"/>
		
			<polyline clip-path="url(#SVGID_2_)" fill="none" stroke="#7e4e23" stroke-width="1.5001" stroke-linejoin="round" stroke-miterlimit="10" points="
			525.64,283.06 532.65,281.78 537.37,279.36 542.6,278.34 542.47,278.08 544.13,277.7 545.4,277.45 546.42,277.45 547.7,277.45 
			548.59,277.58 549.61,277.7 552.8,278.85 554.07,279.23 555.35,279.36 557.26,279.11 559.56,278.72 562.62,279.74 562.62,279.49 
			566.95,280.51 571.79,281.14 573.33,281.14 576,280.89 576.9,280.89 577.66,281.02 578.94,281.65 579.96,281.91 580.59,282.04 
			583.02,282.17 584.93,282.8 585.7,282.93 586.33,282.93 587.1,282.8 588.88,282.42 592.96,281.53 597.04,282.42 601.89,278.21 
			602.01,278.34 603.29,277.45 605.08,276.43 608.52,274.64 611.58,273.37 613.49,272.22 615.15,270.95 617.57,269.03 618.46,268.4 
			620.25,266.49 621.14,265.72 622.67,264.57 625.09,263.17 626.62,262.66 628.15,262.28 630.58,261.89 635.17,261.64 
			636.19,261.51 637.08,261.26 638.48,260.62 642.43,258.58 646.13,257.05 647.15,256.67 648.3,255.9 649.19,255.27 649.83,254.37 
			650.47,253.48 651.62,251.06 652.25,249.02 652.51,248 652.63,246.85 652.76,244.81 652.63,243.03 652.51,241.62 652,239.58 
			651.87,238.31 652.13,236.53 652.89,233.34 653.02,231.43 652.76,229.64 652,226.33 652,224.67 656.08,224.54 659.39,224.03 
			660.67,223.65 661.69,223.27 663.22,222.38 666.15,220.21 666.91,219.7 667.68,219.44 668.7,219.06 669.98,218.81 671,218.81 
			672.4,218.81 674.57,216.25 674.82,211.41 674.18,205.67 674.44,205.67 674.44,204.4 674.57,203.25 674.82,201.98 675.2,201.08 
			675.84,200.06 676.61,199.3 677.63,198.54 678.65,197.9 679.92,197.38 682.34,196.62 685.53,194.84 686.93,194.33 688.72,193.94 
			691.91,193.69 693.44,193.43 695.86,192.92 700.83,191.65 713.84,188.08 		"/>
		
			<polyline clip-path="url(#SVGID_2_)" fill="none" stroke="#7e4e23" stroke-width="1.5001" stroke-linejoin="round" stroke-miterlimit="10" points="
			648.17,223.9 648.17,224.03 646,223.39 643.96,223.14 642.05,223.14 639.76,223.27 637.33,223.52 634.28,224.03 633.13,224.41 
			629.3,225.69 628.41,225.82 627.39,225.94 626.62,225.82 625.61,225.69 624.58,225.3 623.18,224.54 619.48,222.88 619.74,222.5 
			616.93,221.22 614.77,220.46 612.34,220.08 610.94,219.95 609.79,219.95 608.14,220.33 606.48,221.1 604.57,222.25 601.89,224.41 
			599.47,228.37 599.34,231.17 599.21,233.46 598.57,236.78 598.57,240.35 598.45,242.26 598.06,244.56 597.68,246.21 
			597.42,246.72 597.04,247.23 596.66,247.62 596.15,248 595.51,248.25 594.75,248.38 592.96,248.51 592.33,248.64 591.94,248.76 
			591.69,249.02 591.56,249.27 591.43,249.78 591.43,250.29 591.82,250.8 592.2,251.19 593.6,252.46 594.24,252.97 594.75,253.86 
			595.64,255.39 596.02,255.9 596.66,256.54 598.45,257.81 598.96,258.33 599.34,258.71 599.72,259.47 600.23,260.49 600.87,262.41 
			601.25,263.55 601.51,265.46 601.51,267 601.38,269.16 601.12,271.08 600.87,271.97 600.49,272.86 598.57,276.05 598.06,277.96 
			597.81,278.34 597.55,278.6 597.42,278.98 597.04,282.42 		"/>
		
			<polyline clip-path="url(#SVGID_2_)" fill="none" stroke="#7e4e23" stroke-width="1.5001" stroke-linejoin="round" stroke-miterlimit="10" points="
			557.39,276.3 557.26,276.3 554.2,270.18 553.31,268.4 552.54,267.25 551.01,265.34 550.12,264.45 548.85,263.55 547.7,262.66 
			544.38,260.75 542.73,259.47 540.3,256.8 536.73,251.82 535.46,250.29 533.54,248.13 532.65,247.23 531.51,246.34 526.53,243.03 
			525.13,241.88 523.73,240.48 521.43,237.8 519.52,235.76 517.86,232.45 513.78,232.45 510.21,231.04 508.3,230.28 503.58,227.73 
			497.71,225.18 494.4,223.27 492.49,222.25 487.9,220.21 488.15,219.95 486.75,218.93 485.6,217.78 484.71,216.89 483.69,215.62 
			482.54,213.96 480.38,210.01 479.48,208.73 478.34,207.71 475.02,205.03 472.85,203.63 466.22,199.43 458.7,196.62 453.6,195.09 
			447.61,194.33 447.73,193.94 445.69,193.69 443.27,193.69 438.04,193.82 431.54,193.82 430.52,193.94 429.5,194.07 427.84,194.46 
			426.31,195.22 424.91,196.11 421.85,198.41 420.83,199.04 419.68,199.55 419.17,199.68 418.66,199.81 418.15,199.68 
			417.77,199.55 417.64,199.3 417.39,198.79 417.39,198.02 418.15,195.98 418.28,195.09 418.15,194.46 418.03,194.07 417.64,193.56 
			417.26,193.31 416.88,193.05 416.37,192.8 414.84,192.54 413.69,192.54 410.76,192.67 409.23,192.54 407.83,192.29 406.29,191.78 
			403.11,190.63 386.91,191.52 380.41,194.84 377.99,192.16 376.46,190.89 373.53,188.97 369.7,185.91 368.3,184.89 363.71,181.32 
			360.14,176.22 360.01,176.35 358.1,174.31 355.42,171.76 354.53,170.74 353.89,169.98 352.36,167.68 351.34,166.66 350.19,165.51 
			345.09,161.43 		"/>
		
			<polyline clip-path="url(#SVGID_2_)" fill="none" stroke="#7e4e23" stroke-width="1.5001" stroke-linejoin="round" stroke-miterlimit="10" points="
			364.22,184 364.22,184.51 363.71,185.66 363.07,186.68 362.43,187.7 360.78,189.61 360.39,190.25 360.01,190.89 359.88,191.65 
			359.76,192.67 359.88,193.56 360.14,194.84 360.9,199.17 361.16,199.17 361.92,203.51 361.92,204.91 361.92,206.06 361.67,207.46 
			361.16,208.86 360.65,210.39 359.76,212.18 357.59,215.49 353,216.89 353.13,217.15 351.6,218.42 350.19,219.19 348.41,219.82 
			345.98,220.46 344.2,221.1 342.93,221.61 341.65,222.38 339.99,223.39 337.57,225.18 336.17,226.33 333.62,228.62 332.34,229.64 
			330.43,230.79 327.75,232.19 325.97,233.21 323.67,234.61 320.74,236.65 315.38,237.67 310.92,237.93 311.18,237.8 310.28,237.54 
			309.65,237.29 307.48,235.89 304.04,232.57 304.16,225.3 304.04,222.76 303.53,219.95 302.76,215.75 302.25,212.3 302.51,212.3 
			303.14,211.28 304.8,209.24 305.44,207.97 305.95,206.95 306.97,203.89 308.88,199.94 309.65,197.51 309.9,193.43 307.86,189.74 
			304.67,181.07 301.87,174.31 296.64,169.34 292.69,168.06 293.07,167.94 291.92,167.04 291.03,166.54 289.76,165.9 288.61,165.39 
			287.33,165.26 284.53,165 282.87,164.88 276.88,163.47 275.73,163.35 274.58,163.47 273.56,163.73 271.27,164.62 270.5,164.75 
			269.99,164.62 269.48,164.49 269.1,164.24 267.31,162.33 265.66,161.05 263.87,160.03 261.7,159.27 258.9,158.5 253.8,157.48 
			251,157.23 248.06,157.23 243.98,154.17 238.63,148.18 237.22,141.04 235.57,136.45 234.04,131.48 229.7,118.85 229.45,118.98 
			227.28,115.03 225.24,110.44 224.22,108.4 217.72,99.35 217.46,99.6 215.29,97.31 213.51,95.78 209.3,92.72 204.71,90.04 
			202.67,89.02 200.63,88.26 198.46,87.62 194.77,86.85 192.72,86.09 191.32,85.45 187.88,83.41 185.84,82.52 178.57,82.14 
			173.85,80.35 175.25,85.83 175,85.83 175,87.75 175,90.55 174.75,92.84 174.49,94.5 174.24,96.8 173.22,100.88 171.81,106.49 
			171.43,108.02 171.17,109.16 170.66,111.08 170.41,112.48 170.03,117.58 169.9,119.62 169.9,122.81 168.88,129.56 167.61,136.19 
			167.86,136.32 166.58,141.04 164.93,148.05 164.67,149.32 164.55,150.73 164.55,151.87 164.55,153.15 164.8,155.57 165.18,158.25 
			166.2,163.6 166.97,167.43 167.99,173.93 168.75,177.11 170.79,183.11 171.05,184.25 171.17,185.4 171.17,186.93 170.92,188.59 
			170.41,190.12 169.26,193.56 168.88,195.09 168.75,196.75 168.63,197.77 168.75,199.43 168.88,201.46 169.39,203.51 
			170.16,205.42 171.17,207.33 172.96,210.01 175.51,214.21 167.22,210.65 165.95,210.01 164.42,209.11 157.79,204.4 152.43,201.85 
			144.91,198.79 147.97,202.74 147.97,202.87 148.99,204.02 151.29,205.67 152.31,206.82 152.94,208.09 154.6,212.05 155.88,214.47 
			156.64,215.49 158.17,217.53 160.59,220.84 161.99,222.38 164.8,224.67 165.57,225.56 167.09,227.73 170.03,230.28 172.07,232.57 
			174.75,235.25 173.85,238.69 174.36,238.57 174.49,239.2 174.75,239.84 175.13,240.35 175.64,240.86 176.4,241.5 180.23,244.17 
			180.87,246.34 185.2,243.54 185.07,243.41 185.71,243.16 186.48,243.16 189.03,243.16 190.43,243.16 191.7,242.9 195.15,242.26 
			198.08,241.88 200.5,243.79 200.5,243.92 202.54,246.09 207.13,248 206.88,248.38 208.28,249.53 208.92,250.04 209.55,250.42 
			210.45,250.55 211.34,250.55 213.51,249.91 216.19,249.4 220.78,250.29 226.13,253.22 228.43,253.86 229.32,254.25 230.08,254.63 
			231.61,255.9 235.18,259.47 237.1,260.87 240.66,260.62 242.83,258.2 243.09,258.84 243.98,258.58 244.62,258.45 245.38,258.58 
			246.28,258.71 248.44,259.47 249.59,256.03 253.16,254.88 259.15,253.74 261.83,253.22 263.87,252.59 267.7,251.06 268.97,250.68 
			270.63,250.42 272.29,250.55 285.04,248.89 285.04,248.64 286.44,248.25 288.86,248 290.01,247.74 290.9,247.36 293.2,246.21 
			294.09,245.96 294.98,245.83 295.49,245.96 296,246.21 296.39,246.6 296.77,247.11 297.53,248.89 297.92,249.66 299.45,251.44 
			299.96,252.33 300.34,253.48 300.98,256.16 302,258.96 303.4,264.19 300.59,270.69 300.98,275.79 304.8,280.64 306.71,284.72 
			306.59,291.98 306.84,291.73 306.33,292.36 305.95,292.87 305.44,293.38 303.65,294.53 303.14,294.92 303.02,295.3 302.76,296.06 
			302.63,296.95 302.76,297.85 302.89,299.5 302.89,300.4 302.63,301.16 301.74,302.82 301.61,303.58 301.74,304.09 302,304.6 
			302.38,304.99 303.65,305.62 304.16,306 304.67,306.52 305.06,307.28 305.31,308.05 305.44,308.94 305.57,312.25 306.46,316.72 
			306.84,317.86 307.35,318.88 307.86,319.65 308.75,320.79 310.28,327.04 317.81,324.49 323.29,322.2 329.92,323.09 334.89,321.69 
			339.36,321.94 342.42,321.05 346.88,319.01 349.3,314.17 		"/>
		
			<polyline clip-path="url(#SVGID_2_)" fill="none" stroke="#7e4e23" stroke-width="1.5001" stroke-linejoin="round" stroke-miterlimit="10" points="
			347.64,321.43 349.17,324.24 350.32,327.55 347.64,329.84 348.66,334.44 351.21,337.75 351.09,337.62 352.74,339.41 
			354.91,344.25 355.17,350.88 355.29,357.89 356.95,363.12 357.84,367.2 354.53,370 350.83,372.55 350.7,375.62 347.77,379.44 
			345.98,382.63 343.18,386.83 341.65,390.02 339.36,393.97 338.08,396.78 337.06,400.6 335.4,403.92 334.26,399.84 332.47,396.78 
			332.34,396.78 329.92,392.44 328.64,390.4 326.48,386.07 325.08,382.37 322.65,378.04 322.27,373.83 320.23,370.13 317.55,365.8 
			315,362.48 311.94,358.91 308.24,357.38 306.46,353.81 303.4,351.26 300.34,348.71 295.11,348.59 292.43,347.31 287.08,345.78 
			282.11,345.27 277.01,344.25 272.67,345.4 266.42,345.27 262.98,345.4 259.54,342.34 253.8,341.57 247.42,338.26 244.36,333.42 
			240.92,331.38 237.1,328.7 234.93,324.87 231.61,324.62 231.61,323.6 231.74,322.58 232.12,321.05 232.25,320.16 233.53,315.7 
			234.16,312.51 234.29,306.77 238.5,307.28 241.94,309.45 245.77,312.76 249.33,316.46 251.63,320.41 256.35,322.58 260.56,322.83 
			266.04,323.6 271.52,324.49 277.39,325 280.83,324.49 285.55,327.3 289.76,328.57 295.49,327.55 298.81,327.3 303.91,327.3 
			310.28,327.04 		"/>
		
			<polyline clip-path="url(#SVGID_2_)" fill="none" stroke="#7e4e23" stroke-width="1.5001" stroke-linejoin="round" stroke-miterlimit="10" points="
			234.93,324.87 237.35,324.87 241.05,324.11 246.79,322.96 251.63,320.41 		"/>
		
			<polyline clip-path="url(#SVGID_2_)" fill="none" stroke="#7e4e23" stroke-width="1.5001" stroke-linejoin="round" stroke-miterlimit="10" points="
			231.61,324.62 232.5,330.48 233.91,334.82 233.78,334.82 233.65,335.71 233.14,338 232.76,339.79 232.63,341.45 232.76,343.62 
			232.76,344.76 232.5,346.93 232.25,348.08 231.74,349.48 230.21,352.67 228.94,356.62 228.3,358.28 227.53,359.68 225.49,362.74 
			224.86,364.01 224.6,365.16 224.47,366.18 224.47,367.07 224.6,369.49 224.6,370.51 224.6,372.05 224.22,373.7 223.71,375.23 
			223.07,376.38 222.31,377.27 221.03,378.42 218.35,381.35 214.27,384.54 208.53,386.96 204.33,387.85 201.27,386.19 198.21,385.3 
			198.08,385.81 195.78,385.3 192.72,384.67 191.32,384.28 190.43,383.78 189.54,383.26 187.5,381.61 184.56,378.8 185.07,379.44 
			184.05,378.8 183.03,378.42 181.89,378.04 179.08,377.4 175.89,375.23 175,372.05 174.75,372.05 174.36,371.15 173.98,370.39 
			172.58,369.11 171.43,367.71 170.79,367.07 169.77,366.43 168.88,366.05 167.61,365.8 166.58,365.8 166.08,365.92 165.44,366.31 
			163.53,367.84 162.76,368.22 161.23,368.99 160.72,369.37 160.34,369.75 160.08,370.26 159.96,371.03 160.21,372.68 
			160.08,373.57 159.83,374.34 159.19,375.36 155.62,380.33 152.05,383.01 152.43,383.39 151.79,384.16 151.03,385.81 
			150.52,386.45 149.88,386.96 148.61,387.6 148.1,387.98 147.71,388.36 146.95,389.64 146.44,390.27 145.67,390.79 144.78,391.17 
			137.77,392.06 		"/>
		
			<polyline clip-path="url(#SVGID_2_)" fill="none" stroke="#7e4e23" stroke-width="1.5001" stroke-linejoin="round" stroke-miterlimit="10" points="
			106.4,387.73 108.57,391.04 105.51,385.18 105.64,385.18 105.13,384.16 104.36,383.01 103.34,381.86 102.45,381.1 102.07,380.71 
			101.43,380.46 98.88,379.57 94.04,378.55 84.22,378.42 87.66,371.03 88.04,371.28 89.32,369.24 90.85,367.07 92.63,364.91 
			94.8,362.48 99.65,357.51 98.88,357.13 101.43,353.05 102.07,351.78 102.83,350.12 105.13,342.85 105.26,342.98 106.4,339.54 
			107.55,335.46 107.93,334.56 109.34,331.63 110.23,329.34 110.99,325.76 111.63,321.69 117.24,310.08 117.37,310.08 
			119.79,305.37 121.19,302.82 122.72,300.52 127.95,293.26 130.63,287.52 137.39,288.41 145.42,291.47 150.27,289.69 154.86,291.6 
			154.86,297.97 160.59,302.95 160.47,303.08 161.49,304.22 162.76,305.11 167.99,308.17 170.16,309.19 174.36,309.96 
			179.21,305.75 186.99,300.52 199.99,299.12 199.86,299.5 200.63,299.63 201.39,300.01 203.18,301.29 207.64,304.22 213,307.03 
			212.36,306.77 213.13,307.28 213.64,307.54 214.4,307.79 215.04,307.79 216.06,307.66 218.73,307.28 222.69,306.64 224.47,306.52 
			226,306.52 229.32,306.77 231.49,306.9 232.89,306.9 234.29,306.77 		"/>
		
			<polyline clip-path="url(#SVGID_2_)" fill="none" stroke="#7e4e23" stroke-width="1.5001" stroke-linejoin="round" stroke-miterlimit="10" points="
			232.5,330.48 228.81,330.87 218.99,329.84 215.68,329.08 215.68,329.21 212.87,327.68 210.96,326.92 209.3,326.53 205.09,325.89 
			201.65,325.13 199.99,324.49 197.31,323.09 195.4,322.2 188.01,320.54 185.33,320.03 183.8,319.52 182.4,318.75 181.12,317.73 
			179.97,316.72 177.68,313.91 174.36,309.96 		"/>
		
			<polyline clip-path="url(#SVGID_2_)" fill="none" stroke="#7e4e23" stroke-width="1.5001" stroke-linejoin="round" stroke-miterlimit="10" points="
			174.36,309.96 168.63,310.85 163.91,309.7 158.81,309.83 154.6,308.3 152.94,307.66 151.79,307.41 150.01,307.15 146.57,306.77 
			144.65,306.39 143.38,305.75 138.92,303.33 136.88,302.69 132.16,305.11 132.41,305.49 120.56,312.63 118.13,314.17 
			114.43,315.82 		"/>
		
			<polyline clip-path="url(#SVGID_2_)" fill="none" stroke="#7e4e23" stroke-width="1.5001" stroke-linejoin="round" stroke-miterlimit="10" points="
			114.43,315.82 110.99,319.78 106.27,323.85 92.51,333.92 87.92,341.7 87.79,341.57 86.77,344.38 86.26,345.65 85.62,346.67 
			83.83,349.22 82.82,351.65 82.3,352.54 81.41,353.69 78.99,355.73 77.97,356.87 76.69,358.91 73.25,365.03 72.74,365.92 
			72.23,366.56 71.72,367.07 70.19,368.22 68.92,368.73 65.22,370.13 60.5,369.75 54.89,370.39 		"/>
		
			<polyline clip-path="url(#SVGID_2_)" fill="none" stroke="#7e4e23" stroke-width="1.5001" stroke-linejoin="round" stroke-miterlimit="10" points="
			64.58,370.13 69.3,370.77 72.87,374.21 76.06,376.51 84.22,378.42 83.45,382.75 83.32,382.63 82.3,385.81 81.41,388.11 
			76.95,396.01 77.21,396.14 76.57,397.67 75.04,400.6 73.63,404.17 72.87,405.83 71.85,407.62 69.94,410.16 69.43,411.18 
			69.17,412.2 68.15,415.9 67.51,419.6 67.26,420.36 66.75,421.26 65.09,424.95 62.92,429.54 63.05,429.67 61.9,431.71 
			61.27,433.49 60.88,435.02 60.63,438.21 59.99,441.27 60.63,446.24 60.76,446.24 61.01,447.13 61.52,448.03 62.03,448.92 
			62.67,449.68 64.33,451.09 67.64,453.38 68.28,453.89 68.66,454.4 69.17,455.29 69.94,457.59 71.21,459.76 71.85,461.41 
			72.36,462.82 72.61,464.35 72.87,466.38 72.87,468.17 72.87,469.32 72.74,470.46 71.72,475.18 71.59,477.99 71.85,480.41 
			76.06,481.94 76.06,481.68 78.74,481.94 80.01,482.19 82.82,483.47 86.26,485.38 87.41,486.15 88.04,486.91 88.55,487.8 
			89.32,489.97 89.57,490.48 90.08,490.86 90.59,491.25 92,491.63 92.63,492.01 93.14,492.52 94.16,493.92 94.93,494.56 
			95.57,494.81 97.73,495.45 99.14,496.09 100.16,496.86 101.94,498.64 103.09,499.41 104.11,499.79 105.13,500.04 107.04,500.17 
			108.19,500.17 108.95,500.04 109.72,499.66 110.23,499.15 110.87,498.26 113.54,494.43 115.46,499.41 120.81,500.68 
			120.69,500.81 122.72,501.44 125.66,502.08 128.46,502.97 129.86,503.23 131.39,503.48 133.82,503.61 136.49,503.74 
			137.77,503.48 141.08,502.72 142.11,502.46 142.87,502.21 143.89,501.7 144.91,501.06 147.33,499.02 150.65,496.73 152.69,500.43 
			152.56,500.55 152.82,501.44 153.07,502.08 154.09,503.74 154.6,504.51 155.62,507.31 156.51,508.97 158.81,510.11 163.27,508.46 
			163.27,508.59 163.91,508.2 166.08,506.8 166.97,506.42 169.26,505.65 169.77,505.4 170.16,505.14 170.66,504.38 171.05,503.48 
			171.43,502.34 171.81,500.3 173.73,498.89 177.3,502.21 177.42,501.95 178.06,502.46 179.59,504 180.48,504.63 181.25,505.01 
			182.78,505.4 183.42,505.78 183.8,506.29 183.92,506.67 184.31,508.08 186.35,510.24 189.54,508.97 193.49,509.73 192.98,509.73 
			194.13,509.6 196.29,508.97 197.7,508.84 198.59,508.97 200.38,509.48 201.9,509.73 205.35,509.86 209.3,510.37 211.6,510.37 
			214.53,510.88 220.14,508.2 225.37,507.05 227.91,504 228.04,504.12 230.21,502.97 233.14,500.68 234.8,499.66 235.95,499.15 
			239.52,498 242.32,496.98 250.74,492.27 260.68,488.7 262.47,486.91 262.6,487.17 264.38,485.76 265.53,485 266.55,484.49 
			269.23,483.34 270.12,482.83 270.63,482.45 271.27,481.81 271.9,481.05 273.31,478.5 277.01,474.03 277.39,474.03 278.79,473.01 
			279.55,472.38 280.19,471.61 281.21,469.96 281.98,469.06 282.62,468.43 283.38,468.04 284.14,467.79 284.78,467.66 
			287.46,467.66 288.61,467.53 291.41,467.02 293.2,466.51 294.09,466.13 295.11,465.62 295.88,464.98 297.4,463.58 297.79,463.2 
			298.3,462.94 298.94,462.94 299.45,463.07 301.48,464.09 307.73,463.71 314.62,462.94 319.46,464.86 319.34,465.11 321.5,466 
			322.78,466.38 323.8,466.51 325.84,466.51 328.39,466.64 339.48,468.43 350.06,473.27 349.17,473.4 349.94,474.03 350.7,474.8 
			352.36,477.22 356.95,478.75 359.37,479.01 360.27,482.96 360.78,485.89 361.67,490.99 364.6,496.47 368.55,500.43 371.74,503.61 
			373.53,507.82 374.8,513.56 374.42,518.91 372.89,521.84 369.45,521.46 367.02,520.19 366.89,520.44 365.37,519.68 364.09,519.04 
			363.2,518.78 362.43,518.65 361.92,518.65 361.29,518.78 359.5,519.55 358.74,519.68 357.84,519.8 357.21,519.68 356.57,519.55 
			355.93,519.17 354.27,517.76 350.06,515.72 343.31,515.6 339.61,514.7 336.42,511.52 336.04,511.9 334.89,511 333.87,510.5 
			333.23,510.24 331.58,510.24 330.94,510.11 330.05,509.73 328.77,508.71 328.13,508.46 327.5,508.2 326.73,508.08 323.93,508.33 
			321.38,508.33 316.15,508.84 315.51,509.09 315.13,509.48 314.87,509.86 314.49,510.62 309.9,514.32 305.44,516.74 305.69,517 
			304.8,517.64 304.04,517.89 303.14,518.15 302.12,518.27 301.23,518.27 300.21,518.02 299.06,517.64 297.92,517.13 296.26,516.36 
			293.45,517.76 291.16,519.55 289.12,522.86 285.29,522.86 281.21,523.63 277.26,527.32 268.85,532.04 266.68,533.57 
			266.55,533.44 265.28,533.83 263.36,533.95 261.07,533.95 258.39,532.17 256.09,531.28 256.22,531.15 254.82,530.26 
			253.67,529.37 252.52,528.35 251.5,527.07 249.85,524.39 249.85,524.65 248.57,524.01 246.28,523.25 243.73,522.1 242.58,521.84 
			239.9,521.46 239.01,521.21 238.37,520.82 237.48,520.19 235.95,518.27 234.16,516.87 233.4,516.23 231.1,513.3 228.94,511.13 
			225.49,506.8 214.27,510.62 217.97,513.81 222.31,517.64 236.97,527.71 242.83,532.04 247.04,539.44 253.8,543.26 262.09,544.03 
			268.21,544.79 273.95,547.21 277.52,548.62 280.7,553.33 281.34,555.63 284.14,557.16 284.14,556.9 285.29,556.9 286.31,557.03 
			286.95,557.28 287.97,557.79 289.5,559.45 292.56,561.62 294.98,563.79 297.92,564.81 		"/>
		
			<polyline clip-path="url(#SVGID_2_)" fill="none" stroke="#7e4e23" stroke-width="1.5001" stroke-linejoin="round" stroke-miterlimit="10" points="
			525.9,656.6 524.62,653.03 524.75,653.03 523.34,651.37 522.96,650.48 522.71,649.59 522.71,647.42 522.58,646.4 522.07,645.13 
			521.31,643.85 519.26,640.79 519.52,641.43 518.37,639.51 518.12,638.75 518.12,637.98 518.5,636.58 518.5,635.94 518.37,634.54 
			518.12,633.65 517.73,633.01 516.84,631.74 516.21,630.34 515.82,629.57 515.18,628.93 514.29,628.29 512.76,627.53 
			513.91,625.62 511.36,625.36 511.36,622.94 511.1,623.07 509.96,620.65 509.7,619.63 509.7,618.86 509.7,618.1 509.96,617.46 
			511.1,614.91 510.98,612.87 506.13,611.59 501.03,611.59 495.8,611.47 491.21,609.17 487.52,608.54 483.31,607.26 478.72,605.98 
			475.78,604.33 471.45,605.35 467.37,605.35 467.37,605.22 465.33,604.97 464.44,604.97 463.29,605.09 459.21,605.98 
			455.13,607.26 453.85,607.39 452.83,607.39 450.79,606.88 449.39,606.62 446.33,606.62 445.31,606.62 444.17,606.24 
			443.27,605.86 442.76,605.35 442.38,604.58 442,603.82 441.87,603.05 441.87,602.54 442,601.78 442.25,601.01 442.63,600.25 
			443.02,599.48 443.53,598.84 444.67,597.7 445.06,597.44 445.95,597.06 447.61,596.93 448.37,596.81 449.26,596.42 449.9,595.91 
			450.54,595.15 450.79,594.26 450.92,593.24 450.67,592.09 447.86,588.14 447.73,588.26 446.97,587.5 446.2,586.99 445.44,586.61 
			444.67,586.48 444.04,586.35 443.27,586.48 439.96,587.24 438.94,587.37 438.3,587.37 437.79,587.24 437.28,586.99 436.77,586.61 
			436.13,585.97 434.35,583.67 433.45,582.78 432.3,581.89 430.01,580.74 429.5,580.36 429.12,579.72 428.86,579.08 428.86,578.19 
			429.12,575.51 429.12,574.37 428.86,572.97 428.48,571.56 426.31,568.5 422.87,565.7 425.8,563.4 428.61,559.83 431.54,557.03 
			431.8,557.28 432.94,556.14 437.15,552.57 438.94,550.65 440.21,549 441.36,546.96 443.02,544.41 443.78,542.62 444.67,540.46 
			445.44,537.91 446.08,535.1 446.46,533.95 446.84,533.44 447.35,532.94 448.88,531.66 449.39,531.15 449.77,530.64 450.03,530 
			450.28,529.37 450.41,528.47 450.28,525.54 450.54,524.39 450.92,523.12 452.32,520.82 452.45,519.93 452.58,519.04 
			451.56,516.74 449.52,515.98 449.14,511.77 449.52,511.77 449.65,508.2 449.65,507.05 449.52,505.91 447.73,498.77 447.23,497.24 
			446.59,495.96 444.93,492.27 444.93,487.93 444.8,481.3 445.06,477.6 444.67,470.85 		"/>
		
			<polyline clip-path="url(#SVGID_2_)" fill="none" stroke="#7e4e23" stroke-width="1.5001" stroke-linejoin="round" stroke-miterlimit="10" points="
			444.67,470.85 444.55,466.89 443.65,462.56 442.25,458.99 440.85,455.42 440.47,453.89 440.21,452.36 440.34,450.7 440.47,449.05 
			440.85,447.52 441.49,445.61 444.67,438.21 444.04,437.96 445.06,435.79 445.57,434 446.84,428.39 448.63,422.4 449.14,419.73 
			449.14,411.69 445.82,410.03 443.91,402.39 443.27,399.58 443.53,399.58 443.02,395.89 441.87,391.55 441.61,390.4 441.49,389.51 
			440.85,383.14 441.23,379.06 440.34,374.08 440.34,369.37 438.94,364.27 437.66,358.28 434.6,352.16 433.45,348.2 434.35,344.76 
			432.94,341.7 428.22,345.65 424.4,349.22 420.32,353.3 412.93,356.87 408.59,360.95 407.06,364.01 402.98,367.33 397.11,370.77 
			391.5,371.66 387.81,371.66 383.85,373.45 380.92,374.59 378.12,373.06 377.99,373.19 376.46,371.92 375.18,371.15 372.38,372.55 
			371.1,370 368.3,366.18 363.33,365.67 361.03,364.78 359.5,363.25 356.95,363.12 355.29,357.89 355.17,350.88 358.22,346.93 
			357.59,347.19 358.61,346.67 359.63,346.29 360.65,346.04 362.56,345.91 363.45,345.78 364.09,345.4 364.73,344.89 365.49,343.87 
			366.13,342.72 366.64,341.32 367.66,338.26 368.3,336.99 370.85,335.2 375.44,334.82 378.12,333.8 378.24,333.16 380.16,330.1 
			381.05,328.95 382.32,327.42 383.47,326.53 384.62,325.76 385.64,325.26 386.91,324.87 388.95,324.36 390.1,323.98 391.25,323.47 
			392.4,322.71 396.22,317.22 399.67,313.4 402.72,311.49 404.89,307.41 406.04,303.08 407.7,299.5 411.91,296.45 416.62,289.94 
			417.77,285.61 420.19,283.82 422.11,282.17 423.38,279.62 424.27,275.28 424.4,275.41 424.91,274.01 425.42,270.82 425.68,269.8 
			425.93,269.16 426.31,268.52 427.33,267.51 430.52,265.59 429.76,263.68 432.94,261.89 432.94,261.77 434.09,260.75 
			434.86,259.73 435.37,258.84 436.9,255.9 440.34,250.42 440.59,250.17 442,248.89 444.04,247.11 446.97,244.17 446.84,244.17 
			448.88,239.46 449.77,237.93 450.67,236.78 451.82,235.63 453.09,234.36 457.17,231.3 458.83,230.02 460.1,228.75 461.12,227.6 
			463.93,221.61 464.57,218.93 465.71,214.21 465.46,214.47 465.97,212.05 466.35,209.5 466.99,206.44 467.5,204.91 468.13,203.51 
			474.77,193.31 474.64,193.94 475.78,192.54 478.34,189.61 479.86,187.82 480.76,186.42 481.65,184.64 485.35,177.37 
			485.86,176.86 488.15,173.8 489.17,172.4 489.56,171.63 490.07,170.36 490.58,168.06 491.09,166.54 493.63,163.47 493.13,164.24 
			494.4,163.35 495.93,162.58 497.21,162.2 500.14,161.69 501.54,161.31 503.46,160.67 504.73,160.03 505.88,159.27 506.77,158.5 
			507.66,157.48 508.81,155.95 509.83,154.68 510.72,153.79 511.23,153.27 512.38,152.64 515.44,151.24 517.99,149.96 519.26,149.2 
			520.67,148.18 525.39,144.48 525.26,144.35 526.92,143.46 528.57,142.69 532.91,140.65 532.01,140.91 533.93,138.36 534.95,136.7 
			535.97,134.54 537.37,130.84 538.26,128.92 538.77,123.19 538.39,123.32 537.88,119.24 537.63,118.09 537.24,116.94 
			536.48,115.03 535.59,113.12 534.69,111.71 533.67,110.06 531.89,109.16 		"/>
		
			<polyline clip-path="url(#SVGID_2_)" fill="none" stroke="#7e4e23" stroke-width="1.5001" stroke-linejoin="round" stroke-miterlimit="10" points="
			538.26,128.92 539.41,127.52 540.81,129.82 540.94,129.82 541.45,130.84 542.47,133.13 543.11,134.41 544,135.43 545.02,136.45 
			549.86,140.53 549.61,139.89 550.25,140.78 550.89,141.8 551.27,142.69 551.65,143.97 552.03,145.63 552.42,147.54 553.18,153.53 
			553.69,155.7 554.33,157.48 554.84,158.89 555.73,160.54 558.54,164.75 559.43,166.28 560.32,167.94 560.7,169.34 561.09,171 
			561.47,173.8 562.49,187.31 563.76,191.14 564.15,190.89 565.42,192.8 566.7,195.35 567.33,196.75 568.61,203.12 572.69,206.18 
			572.69,206.06 577.66,208.86 579.07,209.75 583.91,213.7 588.88,217.78 592.58,220.72 596.79,223.52 597.81,224.03 599.47,224.8 
			599.47,228.37 		"/>
		
			<polyline clip-path="url(#SVGID_2_)" fill="none" stroke="#7e4e23" stroke-width="1.5001" stroke-linejoin="round" stroke-miterlimit="10" points="
			562.49,187.31 559.68,188.59 559.68,188.33 558.92,188.59 558.28,188.84 555.22,190.63 554.33,191.01 553.56,191.27 
			551.91,191.52 547.83,191.78 546.17,192.03 544,192.67 542.34,192.8 540.56,192.8 537.75,192.29 536.35,192.16 531.38,192.29 
			529.59,192.03 528.44,191.91 527.3,191.52 524.11,190.12 517.1,188.72 517.1,188.59 515.06,188.59 509.45,188.08 506.77,188.08 
			505.49,188.08 504.47,188.33 503.33,188.59 502.18,189.1 493.25,195.09 487.52,199.04 481.52,200.83 476.17,200.7 469.41,201.46 
					"/>
		
			<polyline clip-path="url(#SVGID_2_)" fill="none" stroke="#7e4e23" stroke-width="1.5001" stroke-linejoin="round" stroke-miterlimit="10" points="
			380.41,194.84 384.11,204.14 384.36,203.89 385,204.78 385.64,205.42 387.68,206.95 394.18,212.56 394.05,212.56 395.2,214.09 
			398.65,218.68 400.05,220.72 406.55,229.13 407.95,233.21 408.08,233.08 408.34,234.23 410.12,237.42 412.67,241.88 412.8,241.88 
			414.45,244.17 415.99,246.21 416.75,247.11 417.52,247.74 418.15,248.13 418.92,248.25 419.68,248.38 421.47,248.38 
			422.87,248.64 423.51,248.76 424.02,249.15 424.4,249.4 424.91,250.04 425.42,251.06 425.8,252.21 425.8,253.48 425.68,256.03 
			425.93,257.43 426.44,258.71 427.84,261.13 428.74,263.17 430.52,265.59 432.82,268.01 438.94,270.05 438.81,270.18 
			440.59,270.82 444.04,271.84 447.35,273.24 453.09,275.28 455.26,276.17 457.04,277.19 		"/>
		
			<polyline clip-path="url(#SVGID_2_)" fill="none" stroke="#7e4e23" stroke-width="1.5001" stroke-linejoin="round" stroke-miterlimit="10" points="
			392.27,292.62 392.91,295.93 392.65,296.06 393.16,298.48 393.93,300.4 393.8,305.11 394.05,305.75 394.31,307.41 394.18,309.83 
			394.57,310.47 394.82,311.87 395.33,314.04 396.22,317.22 		"/>
		
			<polyline clip-path="url(#SVGID_2_)" fill="none" stroke="#7e4e23" stroke-width="1.5001" stroke-linejoin="round" stroke-miterlimit="10" points="
			351.6,295.43 355.68,296.57 358.48,297.34 362.3,298.74 		"/>
		
			<polyline clip-path="url(#SVGID_2_)" fill="none" stroke="#7e4e23" stroke-width="1.5001" stroke-linejoin="round" stroke-miterlimit="10" points="
			351.6,295.43 347.9,292.62 347.77,292.75 345.73,291.35 344.58,290.33 339.23,284.84 334,283.95 331.96,281.65 331.83,281.78 
			330.56,281.14 329.28,280.76 328.26,280.51 325.59,280.13 324.44,279.87 323.67,279.62 323.03,279.23 322.52,278.72 
			321.25,277.19 320.1,274.52 318.32,271.2 318.57,272.09 317.42,271.2 314.49,269.03 311.69,267.25 305.69,265.72 303.4,264.19 
			307.73,262.66 307.48,262.28 308.5,261.51 312.33,257.94 313.34,257.18 314.36,256.67 315.64,256.29 317.04,256.03 323.8,255.39 
			328.52,255.52 333.23,258.2 337.83,259.6 341.01,259.86 344.33,260.49 346.62,262.53 346.75,262.66 347.52,263.04 349.3,264.06 
			349.43,263.93 350.19,264.06 353.13,264.45 354.14,264.83 355.17,265.21 356.19,265.72 357.33,266.36 358.61,267.12 
			360.14,268.52 361.03,268.91 362.05,269.16 363.96,269.03 364.98,269.16 366,269.54 367.28,270.18 371.36,271.97 374.8,275.16 		
			"/>
		
			<polyline clip-path="url(#SVGID_2_)" fill="none" stroke="#7e4e23" stroke-width="1.5001" stroke-linejoin="round" stroke-miterlimit="10" points="
			597.3,285.61 593.98,293.77 593.6,293.64 593.09,295.3 592.71,296.7 592.07,298.23 591.31,300.52 590.29,302.69 589.39,304.6 
			585.44,309.83 585.57,309.96 584.16,311.49 583.14,312.38 582.13,313.14 580.59,313.91 578.94,314.67 577.28,315.19 
			572.43,316.33 570.65,316.84 564.4,319.27 562.74,320.03 559.68,321.56 557.52,322.96 556.24,323.98 552.54,327.04 549.86,329.59 
			548.85,330.36 547.95,330.99 546.81,331.63 545.4,332.01 533.8,335.46 533.93,335.58 531.63,336.6 529.08,337.62 524.75,338.26 
			519.26,338.26 514.55,335.84 		"/>
		
			<polyline clip-path="url(#SVGID_2_)" fill="none" stroke="#7e4e23" stroke-width="1.5001" stroke-linejoin="round" stroke-miterlimit="10" points="
			524.11,377.27 528.44,380.71 527.93,379.95 531.63,381.48 534.31,382.24 535.33,382.37 536.35,382.5 536.99,382.37 539.67,381.35 
			540.3,381.22 540.81,381.22 541.32,381.35 541.71,381.73 541.96,382.37 542.22,385.43 542.47,386.45 542.98,387.34 543.49,388.11 
			544.26,389 547.19,391.68 548.59,393.33 552.29,400.47 553.56,402.9 559.81,411.57 560.7,412.71 561.6,413.73 564.15,416.16 
			566.06,417.69 571.67,421.26 573.07,422.53 574.22,423.81 574.98,425.33 576.39,428.78 578.43,435.41 579.7,439.23 580.59,441.27 
			583.78,447.77 585.18,449.94 585.95,450.32 587.61,451.09 589.14,451.6 590.67,451.85 592.58,451.73 593.73,451.47 595.26,450.96 
			599.21,448.92 601.76,448.03 602.78,447.77 604.06,447.65 606.48,447.52 613.75,446.62 614.51,446.62 616.55,445.73 
			617.32,445.35 618.08,444.84 620.12,442.93 621.91,441.53 622.67,440.89 625.61,437.7 626.75,436.55 628.15,435.79 630.58,434.9 
			631.72,434.38 636.19,431.07 641.29,429.8 641.16,429.67 641.92,429.54 642.43,429.54 643.58,429.67 644.35,429.92 645.24,430.3 
			647.54,431.58 648.94,432.22 651.62,433.11 656.72,435.28 661.43,435.53 661.82,435.79 667.3,435.79 670.1,435.92 677.75,435.92 
			681.2,437.32 685.53,437.19 689.1,434.77 691.02,430.82 692.29,429.03 695.99,430.94 700.71,430.94 703.13,430.82 705.29,430.56 
			707.46,429.92 709.89,429.03 711.03,428.65 713.71,428.01 716.52,429.92 720.72,430.05 727.99,429.16 731.31,429.92 
			731.05,430.05 732.45,429.54 733.47,429.41 734.24,429.54 735.64,430.05 736.41,430.3 737.3,430.3 738.96,430.05 745.08,430.69 
			744.82,431.2 749.16,433.37 751.96,434.26 752.6,434.51 753.36,435.02 755.66,437.06 756.43,437.45 757.19,437.7 758.21,437.83 
			759.36,437.83 760.25,437.57 762.29,436.81 763.18,436.55 764.07,436.43 765.86,436.3 767.13,436.17 771.85,434.9 778.36,437.32 
			778.36,437.19 780.01,437.7 781.03,437.96 781.93,438.08 784.09,438.08 785.37,438.34 786.52,438.59 787.79,439.1 792.89,443.18 
			792.38,443.57 793.27,444.84 794.17,445.73 795.31,446.5 796.59,447.01 798.12,447.52 809.34,450.07 811.25,450.7 812.91,451.21 
			815.58,453.64 		"/>
		
			<polyline clip-path="url(#SVGID_2_)" fill="none" stroke="#7e4e23" stroke-width="1.5001" stroke-linejoin="round" stroke-miterlimit="10" points="
			657.74,316.2 655.57,313.65 654.16,312.63 		"/>
		
			<polyline clip-path="url(#SVGID_2_)" fill="none" stroke="#7e4e23" stroke-width="1.5001" stroke-linejoin="round" stroke-miterlimit="10" points="
			665,320.79 666.15,325.64 666.28,325.64 668.19,332.78 668.83,336.09 669.34,338.26 670.23,340.94 671.63,344.63 672.65,347.95 
			673.16,349.99 674.18,356.62 674.69,360.44 675.84,365.41 676.35,367.07 677.5,370 678.14,371.66 678.65,373.7 679.16,376.25 
			679.41,379.18 679.41,382.24 679.16,384.54 678.39,389.51 678.39,390.79 678.52,391.68 678.9,393.84 679.41,397.03 679.79,398.18 
			680.3,400.09 682.73,405.32 682.6,404.81 683.11,406.08 684,408.76 684.64,410.16 685.66,411.69 687.83,414.37 688.72,415.65 
			689.23,416.67 690.25,419.21 691.52,421 691.91,421.76 692.42,422.91 693.05,425.21 693.56,426.48 695.99,430.94 		"/>
		
			<polyline clip-path="url(#SVGID_2_)" fill="none" stroke="#7e4e23" stroke-width="1.5001" stroke-linejoin="round" stroke-miterlimit="10" points="
			677.75,435.92 673.8,432.98 670.23,430.43 667.81,428.9 664.62,427.25 663.22,425.97 663.22,426.1 662.58,425.08 662.33,424.19 
			662.2,423.04 662.45,420.62 662.45,419.6 662.2,418.71 661.82,417.94 661.18,417.3 660.41,416.67 658.37,415.26 656.97,414.5 
			654.16,413.48 653.53,413.1 652.63,412.46 650.08,409.91 652.51,407.74 653.15,407.36 654.04,406.34 654.67,405.83 655.18,405.45 
			656.46,405.06 658.88,404.68 660.03,404.43 661.31,403.79 662.96,402.39 663.86,402 664.62,402 665.77,402.13 666.66,402.39 
			669.08,403.15 669.85,403.28 670.49,403.28 672.01,403.02 674.69,402.39 676.48,402 677.63,401.88 679.03,401.88 681.58,402.77 		
			"/>
		
			<polyline clip-path="url(#SVGID_2_)" fill="none" stroke="#7e4e23" stroke-width="1.5001" stroke-linejoin="round" stroke-miterlimit="10" points="
			681.58,402.77 683.62,399.71 688.21,398.69 688.21,398.82 690.63,398.69 692.29,398.31 695.86,397.41 699.3,396.65 702.23,395.63 
			703.13,395.5 706.44,395.25 708.23,394.99 712.05,394.1 715.11,393.21 715.88,393.08 716.9,392.95 718.94,393.08 723.02,393.84 
			724.42,394.23 728.88,396.01 730.41,396.39 731.56,396.52 733.73,396.65 734.75,396.78 737.94,397.8 740.23,398.31 741.76,398.43 
			743.8,398.31 745.2,398.18 746.86,397.67 748.39,397.16 749.67,396.52 752.85,394.87 754,394.23 755.15,393.33 758.97,390.4 
			762.93,389.13 		"/>
		
			<polyline clip-path="url(#SVGID_2_)" fill="none" stroke="#7e4e23" stroke-width="1.5001" stroke-linejoin="round" stroke-miterlimit="10" points="
			650.08,409.91 647.03,408.38 647.15,408 644.35,405.83 641.41,402.51 639.88,400.99 634.28,397.16 632.49,396.14 631.21,395.5 
			627.52,393.72 628.28,394.1 624.97,391.81 623.18,390.79 621.78,390.15 619.23,389.38 618.08,388.62 616.93,387.6 615.79,386.32 
			614.64,385.05 612.98,382.5 611.96,381.35 611.45,380.84 610.81,380.46 608.65,379.44 605.71,378.42 		"/>
		
			<polyline clip-path="url(#SVGID_2_)" fill="none" stroke="#7e4e23" stroke-width="1.5001" stroke-linejoin="round" stroke-miterlimit="10" points="
			553.56,402.9 550.38,403.92 550.38,404.05 549.23,404.55 548.34,405.06 546.04,407.1 544,408.63 542.85,409.53 540.43,414.24 
			540.05,414.5 538.65,416.03 538.14,416.41 537.5,416.79 536.73,417.17 535.84,417.56 533.67,417.81 532.4,418.71 534.06,426.23 
			534.31,426.1 534.69,427.76 534.95,429.92 535.08,431.84 534.95,434.13 534.18,437.57 533.93,439.23 533.93,440.89 534.06,442.93 
			534.44,448.16 530.87,453.38 527.04,447.9 		"/>
		
			<polyline clip-path="url(#SVGID_2_)" fill="none" stroke="#7e4e23" stroke-width="1.5001" stroke-linejoin="round" stroke-miterlimit="10" points="
			530.87,453.25 528.83,457.84 526.53,462.82 526.66,462.82 523.47,469.7 522.45,471.61 520.54,474.93 519.77,476.46 519.14,477.99 
			517.48,482.32 516.33,484.87 515.82,486.27 515.18,488.7 514.55,491.88 513.4,496.35 516.97,499.79 518.25,502.85 518.37,502.85 
			519.26,504.51 519.9,506.03 520.41,507.44 520.92,509.22 521.31,511.9 521.43,513.3 521.43,515.08 521.05,516.49 520.29,518.65 
			518.12,522.73 517.35,524.52 516.97,525.92 516.46,528.6 515.95,529.75 515.69,530.26 515.18,530.77 513.4,532.43 512.89,533.19 
			512.76,534.08 512.89,536.12 512.89,537.14 512.64,538.42 512.25,539.56 511.49,540.84 508.81,544.15 507.79,545.43 
			505.49,549.76 504.35,551.29 502.43,553.84 501.8,554.73 501.41,555.63 500.9,557.03 500.65,559.45 500.39,560.73 499.5,563.91 
			498.99,566.08 497.84,572.33 496.44,581.89 497.71,585.84 497.46,590.18 495.93,593.87 493.51,594.77 490.71,596.93 
			489.04,598.72 488.15,602.42 489.3,605.86 491.21,609.17 		"/>
		
			<polyline clip-path="url(#SVGID_2_)" fill="none" stroke="#7e4e23" stroke-width="1.5001" stroke-linejoin="round" stroke-miterlimit="10" points="
			496.44,581.89 495.42,575.39 494.53,575 494.66,574.75 493.89,574.37 492.87,574.11 490.19,573.86 487.64,573.35 486.88,573.22 
			485.99,573.22 485.22,573.22 483.18,573.86 482.16,573.99 481.01,573.99 479.48,573.6 477.57,570.54 477.57,570.42 477.06,568.5 
			476.81,566.97 476.81,565.83 477.19,564.81 477.95,563.4 478.85,562.13 482.42,557.54 484.45,554.73 487.13,550.27 487.9,549 
			488.28,548.11 488.66,546.57 488.79,544.92 488.66,543.13 488.15,540.71 487.13,536.12 487.13,536.76 487.01,535.36 486.88,533.7 
			487.26,529.75 487.26,528.73 487.13,527.83 486.75,526.81 485.86,525.03 485.48,524.01 485.22,522.86 485.22,520.44 
			484.96,519.29 484.71,518.65 483.44,516.49 482.8,515.08 482.42,513.81 481.4,510.37 479.86,508.33 476.04,506.29 475.91,506.67 
			474.25,506.03 472.34,504.63 471.45,504.25 470.3,504.12 467.88,504.38 466.6,504.25 463.42,501.19 463.54,501.06 462.91,500.04 
			462.27,499.15 461.38,498.38 458.95,495.96 458.32,495.2 457.93,494.43 457.55,493.41 457.04,490.35 455.51,486.15 455,483.98 
			454.49,481.43 453.98,477.6 453.73,476.46 453.34,475.44 452.71,474.42 450.03,470.85 447.86,469.19 447.99,466.64 446.71,462.56 
			449.01,458.86 450.92,455.55 451.31,455.8 452.32,454.53 452.83,453.64 453.34,452.49 454.36,449.94 455.13,448.67 455.9,447.65 
			457.3,446.5 457.68,445.99 458.19,445.22 458.57,444.2 460.74,441.01 460.23,440.38 460.23,437.96 460.1,434.51 460.23,430.56 
			460.1,429.29 459.85,427.76 459.46,426.35 457.81,421.89 457.43,420.49 457.17,418.96 457.17,416.92 459.98,413.48 		"/>
		
			<polyline clip-path="url(#SVGID_2_)" fill="none" stroke="#7e4e23" stroke-width="1.5001" stroke-linejoin="round" stroke-miterlimit="10" points="
			445.82,410.03 445.69,415.01 443.4,421.38 443.53,421.38 442.38,425.59 441.87,426.86 441.23,428.01 440.59,428.78 438.81,430.94 
			437.53,432.22 436,434.26 434.86,435.79 433.07,438.46 431.8,441.14 431.03,442.8 429.25,447.65 431.16,450.19 430.65,450.07 
			430.65,450.83 430.39,451.73 430.01,452.49 429.12,454.53 428.86,455.17 428.74,455.93 428.74,456.7 428.86,459.5 428.86,462.43 
			428.99,464.47 427.08,474.93 426.31,478.88 427.08,481.43 424.27,487.93 422.49,490.23 423.13,489.59 422.62,490.73 
			422.11,492.39 421.21,495.71 419.3,500.17 415.99,502.97 414.07,505.53 413.82,505.78 412.8,508.46 412.42,510.37 412.16,511.9 
			412.03,513.05 412.03,515.34 414.45,517.51 415.47,522.86 418.41,524.65 417.77,524.27 423,528.86 423.89,529.88 424.53,530.89 
			425.04,531.92 425.68,534.59 426.95,537.91 427.21,539.18 427.46,541.35 427.71,542.37 428.1,543.64 428.86,545.55 430.14,548.62 
			428.74,550.53 425.93,555.37 424.91,560.6 425.93,563.28 423,559.96 418.92,559.07 418.79,559.2 417.64,558.81 415.09,558.18 
			413.44,557.79 408.84,555.88 406.42,554.61 403.36,552.44 403.24,552.7 401.45,551.67 399.54,550.27 396.22,547.21 396.48,547.85 
			395.46,546.57 394.44,545.43 393.16,544.41 391.38,543.13 390.1,542.5 389.21,541.99 387.81,541.6 385.64,540.97 384.87,540.71 
			384.24,540.2 383.34,539.44 382.07,537.52 380.79,536.12 376.46,530.26 375.06,525.8 372.89,521.84 		"/>
		
			<polyline clip-path="url(#SVGID_2_)" fill="none" stroke="#7e4e23" stroke-width="1.5001" stroke-linejoin="round" stroke-miterlimit="10" points="
			378.5,530.77 379.65,528.6 382.07,525.67 385.26,521.97 387.93,517.25 390.23,512.41 392.91,510.75 397.62,509.35 401.32,507.69 
			403.75,506.03 403.75,506.16 405.02,505.4 406.04,505.01 406.8,505.01 408.46,505.01 409.99,504.89 411.27,504.76 412.54,504.38 
			415.99,502.97 		"/>
		
			<polyline clip-path="url(#SVGID_2_)" fill="none" stroke="#7e4e23" stroke-width="1.5001" stroke-linejoin="round" stroke-miterlimit="10" points="
			378.5,530.77 376.2,534.85 376.59,534.59 373.4,537.14 372.63,537.65 371.1,538.29 370.34,538.67 368.04,540.58 366.51,541.48 
			361.92,542.75 357.21,543.13 352.36,543.64 349.55,542.5 345.47,540.58 345.35,540.84 343.44,540.2 341.78,539.69 339.87,540.71 
			340.63,540.33 339.74,540.58 338.97,540.46 338.72,540.33 338.34,539.95 337.57,538.67 337.06,538.29 336.68,538.16 
			336.42,538.16 335.66,538.29 334.76,538.92 333.36,540.2 332.98,540.58 332.72,541.35 331.96,543.52 331.7,544.03 331.45,544.41 
			331.07,544.79 330.43,545.05 329.67,545.3 329.03,545.55 328.26,545.55 326.48,545.55 323.93,545.68 322.4,545.55 321.5,545.43 
			320.74,545.17 320.1,544.79 319.46,544.28 318.44,543.26 315,542.24 		"/>
		
			<polyline clip-path="url(#SVGID_2_)" fill="none" stroke="#7e4e23" stroke-width="1.5001" stroke-linejoin="round" stroke-miterlimit="10" points="
			349.94,496.98 348.41,494.3 347.52,490.23 347.26,490.35 347.26,488.7 347.39,486.78 347.77,482.96 348.03,479.26 348.03,477.09 
			347.52,474.54 346.75,472 346.24,468.3 345.47,463.07 345.73,456.7 345.6,457.46 345.98,455.17 346.11,452.24 344.58,443.57 
			342.67,435.66 341.91,429.41 337.7,421.89 335.91,418.96 339.61,417.3 339.36,417.17 340.76,415.52 338.59,411.82 336.55,409.4 
			335.4,403.92 332.85,405.7 331.2,408.63 328.64,413.22 328.77,417.56 326.22,419.73 324.82,422.66 324.69,424.95 324.05,429.03 
			322.91,430.18 320.87,434.64 321.25,437.57 320.74,440.51 319.46,445.22 319.59,445.22 319.08,446.62 318.44,448.16 
			317.04,451.09 314.49,455.42 312.71,459.5 311.43,461.54 309.01,463.2 307.61,461.03 305.31,459.25 305.44,459.12 304.55,458.61 
			303.53,458.23 298.68,456.95 296.26,456.19 295.24,455.8 291.54,453.76 290.65,453.38 289.76,453.13 288.61,453 287.59,453 
			286.31,453.25 284.27,453.89 283.51,454.02 282.87,454.02 282.23,453.89 281.6,453.76 279.43,452.62 278.54,452.36 277.52,452.11 
			275.73,452.11 273.31,451.73 275.86,450.32 277.52,444.71 278.03,445.48 278.92,443.18 279.17,441.65 281.21,438.59 
			288.99,434.38 288.86,434.26 293.96,430.69 295.62,429.67 296.39,429.29 297.15,428.9 298.04,428.78 302,428.27 307.1,426.86 
			311.3,424.06 311.43,424.7 314.11,423.93 315.38,423.42 316.79,422.78 319.21,421.26 321.25,418.96 321.25,418.83 322.14,418.32 
			323.42,417.3 324.82,416.28 328.64,413.22 		"/>
		
			<polyline clip-path="url(#SVGID_2_)" fill="none" stroke="#7e4e23" stroke-width="1.5001" stroke-linejoin="round" stroke-miterlimit="10" points="
			273.31,451.73 271.52,454.4 271.39,455.17 270.63,458.1 269.61,461.8 268.85,463.84 268.08,465.37 267.31,466.51 266.42,467.53 
			265.4,468.3 264,468.94 259.15,470.34 252.4,473.27 248.95,474.16 249.08,474.29 247.68,474.93 245.89,475.95 245,476.46 
			244.11,476.84 242.07,477.48 241.18,477.86 238.37,479.64 234.55,480.16 229.96,481.05 225.49,482.32 223.07,485.13 
			223.83,484.49 221.03,486.91 220.01,488.19 219.5,488.95 219.24,489.59 218.61,491.63 217.72,494.18 216.44,498.26 213.76,499.92 
			213.25,502.59 213,504.38 213,508.84 214.53,510.88 		"/>
		
			<polyline clip-path="url(#SVGID_2_)" fill="none" stroke="#7e4e23" stroke-width="1.5001" stroke-linejoin="round" stroke-miterlimit="10" points="
			225.49,482.32 220.78,483.21 215.16,483.98 212.87,484.11 210.7,484.36 210.7,484.62 210.19,484.87 209.43,485.25 208.92,485.76 
			207.39,487.29 206.24,487.93 205.22,488.19 204.33,488.44 203.05,488.57 201.39,488.7 198.72,487.8 199.23,488.06 198.21,487.29 
			196.55,485.64 195.66,485.13 195.02,484.87 194.38,484.62 192.34,484.49 188.64,484.11 187.5,482.58 188.01,483.09 186.86,481.81 
			185.97,480.79 185.33,479.77 184.95,479.01 184.69,478.11 184.44,476.97 183.54,471.36 182.27,468.81 181.12,466.51 
			180.87,466.77 178.44,464.22 176.4,461.8 174.75,460.14 171.17,456.32 171.05,456.32 169.52,454.02 167.73,451.98 166.33,448.54 
			163.14,449.81 163.14,449.68 162.12,449.68 161.1,449.43 160.08,448.92 159.32,448.16 158.68,447.52 158.04,446.75 154.86,441.78 
			154.22,441.14 153.32,440.63 152.31,440.38 150.27,439.87 145.04,438.46 143,438.08 141.34,437.83 140.19,437.7 137.26,437.57 
			135.47,437.57 132.92,437.83 127.7,437.45 125.02,436.17 123.1,436.17 119.02,437.57 115.71,439.23 117.11,441.27 117.62,444.84 
			118.01,449.81 118.26,449.68 118.77,451.85 119.41,453.64 119.79,454.27 120.17,454.78 120.69,455.17 121.07,455.29 
			121.83,455.42 123.1,455.29 124.25,455.55 124.77,455.68 126.17,455.55 127.82,455.93 128.46,455.93 129.23,455.8 131.39,455.17 
			132.16,455.04 132.92,455.04 133.69,455.04 134.58,455.29 135.47,455.55 136.11,455.93 137.52,457.08 140.19,459.76 
			140.96,460.78 142.74,463.84 143.64,464.98 144.65,466.13 146.57,470.21 147.46,473.4 147.59,478.37 147.84,480.54 148.35,482.96 
			149.37,485.38 151.92,489.21 154.98,489.97 157.66,492.52 159.7,495.2 159.7,495.07 160.47,495.45 161.49,495.45 162.12,495.33 
			163.53,494.81 164.42,494.69 165.44,494.94 166.97,495.45 167.99,495.84 169.26,495.96 170.28,496.09 171.56,495.96 
			172.83,495.71 173.73,495.45 175.25,495.07 179.46,492.9 183.16,491.63 186.48,488.06 188.39,485.51 188.64,483.98 		"/>
		
			<polyline clip-path="url(#SVGID_2_)" fill="none" stroke="#7e4e23" stroke-width="1.5001" stroke-linejoin="round" stroke-miterlimit="10" points="
			115.71,439.23 114.69,435.28 113.42,432.35 110.48,428.39 109.34,427.25 106.27,427.5 103.09,427.12 97.86,427.5 94.55,423.29 
			93.91,419.6 93.01,417.69 91.74,415.77 89.45,412.46 89.06,409.27 89.57,404.94 89.45,405.7 89.57,404.55 89.45,403.41 
			89.19,402.39 88.81,401.37 88.17,400.35 87.41,399.46 84.73,396.78 82.94,394.61 80.01,390.66 78.48,385.81 79.12,385.69 
			78.74,383.65 78.61,382.37 78.61,380.59 78.74,378.93 78.99,377.27 		"/>
		
			<polyline clip-path="url(#SVGID_2_)" fill="none" stroke="#7e4e23" stroke-width="1.5001" stroke-linejoin="round" stroke-miterlimit="10" points="
			166.33,448.54 171.81,444.33 171.94,445.22 173.98,443.69 176.15,442.54 177.42,442.03 180.99,440.89 182.52,440.38 
			183.42,439.87 184.18,439.49 185.07,438.85 185.58,438.34 186.48,437.32 189.03,433.75 188.52,434.38 189.54,433.62 
			191.19,432.47 192.21,431.71 193.49,430.56 194.51,429.54 195.02,428.65 195.66,427.5 197.19,423.42 197.7,422.53 198.46,421.64 
			199.23,420.87 200.38,420.11 203.44,418.32 204.33,417.69 205.6,416.67 206.75,415.39 210.06,410.54 209.81,411.06 211.98,407.36 
			213.38,404.81 216.06,402.51 216.19,402.51 217.72,401.11 218.86,399.84 219.63,398.43 220.14,396.78 220.52,394.74 220.9,389.38 
			220.9,387.73 220.65,385.3 218.35,381.35 		"/>
		
			<polyline clip-path="url(#SVGID_2_)" fill="none" stroke="#7e4e23" stroke-width="1.5001" stroke-linejoin="round" stroke-miterlimit="10" points="
			208.41,412.97 216.19,416.54 217.46,417.43 218.61,418.71 219.63,420.11 221.29,423.42 221.92,424.32 222.56,424.83 
			223.58,425.33 224.73,425.59 225.62,425.72 227.79,425.97 228.68,426.1 229.7,426.48 230.47,426.86 231.36,427.5 232.12,428.27 
			233.02,429.41 234.8,431.96 235.31,432.6 235.95,432.98 236.58,433.24 237.86,433.49 241.81,433.88 242.96,434 244.36,434.51 
			246.02,435.28 248.19,436.55 250.23,438.08 252.14,439.74 255.46,443.05 256.99,444.2 258.77,445.22 264.26,447.9 268.59,450.32 
			273.31,451.73 		"/>
		
			<polyline clip-path="url(#SVGID_2_)" fill="none" stroke="#7e4e23" stroke-width="1.5001" stroke-linejoin="round" stroke-miterlimit="10" points="
			340.76,415.52 343.95,420.87 345.09,426.48 346.62,430.3 347.52,431.71 348.15,432.98 348.41,434.13 349.3,437.45 349.68,440.89 
			350.32,443.57 349.94,442.54 350.96,446.5 351.21,449.68 352.62,455.29 352.36,455.42 352.49,457.21 353.51,458.99 355.17,461.41 
			356.06,463.2 355.8,465.88 356.31,467.41 356.44,469.06 356.82,470.85 356.7,469.96 357.59,473.4 357.84,476.71 359.37,479.01 		
			"/>
		
			<polyline clip-path="url(#SVGID_2_)" fill="none" stroke="#7e4e23" stroke-width="1.5001" stroke-linejoin="round" stroke-miterlimit="10" points="
			343.95,420.87 347.01,422.15 350.7,422.66 354.53,424.06 357.59,422.15 360.01,418.45 362.56,415.77 365.75,412.2 367.92,410.67 
			372.25,409.91 373.91,408 374.29,404.05 372.76,398.94 371.49,396.27 370.08,394.1 370.98,390.79 373.53,386.71 377.48,381.86 
			379.14,378.93 380.92,374.59 		"/>
		
			<polyline clip-path="url(#SVGID_2_)" fill="none" stroke="#7e4e23" stroke-width="1.5001" stroke-linejoin="round" stroke-miterlimit="10" points="
			370.08,394.1 366.39,394.87 363.96,396.78 359.12,398.05 354.14,399.46 349.04,400.22 341.27,402.26 335.4,403.92 		"/>
		
			<polyline clip-path="url(#SVGID_2_)" fill="none" stroke="#7e4e23" stroke-width="1.5001" stroke-linejoin="round" stroke-miterlimit="10" points="
			370.08,394.1 377.1,396.52 380.41,396.9 385.38,398.94 388.19,399.33 390.49,399.33 395.33,398.31 399.03,397.67 401.19,399.58 
			401.19,399.71 402.6,400.6 405.53,402 407.95,403.54 413.56,404.81 418.28,403.15 420.96,403.92 425.42,405.96 427.46,406.98 
			430.9,408.12 435.11,410.03 437.41,410.54 440.08,409.02 439.45,409.02 440.97,408.89 442,409.02 443.14,409.14 445.82,410.03 
			449.01,411.57 452.45,412.97 		"/>
		
			<polyline clip-path="url(#SVGID_2_)" fill="none" stroke="#7e4e23" stroke-width="1.5001" stroke-linejoin="round" stroke-miterlimit="10" points="
			444.55,318.5 443.91,315.82 444.93,312.51 446.2,309.32 446.33,309.45 446.71,309.07 447.23,308.81 448.12,308.56 452.45,308.56 
			454.11,308.68 457.55,309.57 461.38,310.21 466.48,310.72 471.58,310.21 475.02,309.7 479.48,308.68 484.84,308.3 487.26,308.3 
			490.07,308.43 490.07,308.3 493,308.43 494.53,308.17 		"/>
		
			<line clip-path="url(#SVGID_2_)" fill="none" stroke="#7e4e23" stroke-width="1.5001" stroke-linejoin="round" stroke-miterlimit="10" x1="525.64" y1="283.06" x2="521.69" y2="283.44"/>
		
			<polyline clip-path="url(#SVGID_2_)" fill="none" stroke="#7e4e23" stroke-width="1.5001" stroke-linejoin="round" stroke-miterlimit="10" points="
			336.29,137.08 330.43,135.81 323.93,135.43 320.1,135.43 319.97,135.55 318.19,135.04 316.15,134.28 314.24,133.13 311.94,131.35 
			310.54,130.58 308.12,129.31 305.57,128.16 303.14,127.39 301.36,126.89 299.32,126.5 295.75,126.12 294.35,125.74 292.94,125.36 
			290.65,124.46 283.25,122.68 283.25,122.93 280.7,122.3 278.03,121.4 275.98,120.64 271.65,118.6 269.35,117.83 266.68,117.2 
			264,116.68 258.64,115.92 255.46,115.28 252.14,114.65 250.23,114.01 247.93,113.12 246.02,112.1 244.87,111.33 239.39,107.12 
			237.48,105.98 234.93,104.96 229.45,104.96 220.14,107.51 220.14,107.76 217.97,107.76 214.53,107.38 213.13,107.38 
			212.11,107.38 211.08,107.64 209.94,108.02 208.92,108.4 207.77,109.04 206.37,110.06 202.41,113.75 198.59,116.81 195.53,119.62 
			186.86,125.23 186.99,125.36 185.71,126.12 184.44,126.76 183.03,127.14 181.5,127.39 179.84,127.39 178.44,127.39 176.53,127.01 
			174.87,126.38 169.9,122.81 		"/>
		
			<polyline clip-path="url(#SVGID_2_)" fill="none" stroke="#7e4e23" stroke-width="1.5001" stroke-linejoin="round" stroke-miterlimit="10" points="
			330.43,135.81 328.77,138.62 329.79,142.44 329.92,142.44 329.79,143.84 329.03,146.9 328.9,148.43 329.03,150.22 329.67,153.02 
			329.79,155.06 329.92,157.48 329.79,159.91 329.67,162.96 330.17,168.7 330.3,171.12 330.17,172.78 329.92,173.8 329.67,174.31 
			329.41,174.82 328.64,175.59 327.75,176.22 325.2,177.37 324.56,177.75 324.05,178.26 323.29,179.41 322.14,181.58 321.5,182.47 
			318.44,186.04 317.55,187.44 315.64,190.5 314.49,192.03 313.47,193.18 309.9,193.43 		"/>
		
			<polyline clip-path="url(#SVGID_2_)" fill="none" stroke="#7e4e23" stroke-width="1.5001" stroke-linejoin="round" stroke-miterlimit="10" points="
			357.59,215.49 360.27,219.31 360.27,222.38 361.54,225.56 361.92,228.49 364.09,231.04 367.28,232.95 368.94,235.25 
			370.08,237.67 372.12,240.99 371.36,244.17 372.38,245.58 373.53,250.68 377.1,255.52 		"/>
		
			<polyline clip-path="url(#SVGID_2_)" fill="none" stroke="#7e4e23" stroke-width="1.5001" stroke-linejoin="round" stroke-miterlimit="10" points="
			305.44,183.24 302.38,185.4 300.59,188.59 295.11,193.69 290.65,195.47 285.93,196.49 286.06,196.75 283.13,197.13 281.72,197.51 
			280.57,197.9 279.55,198.41 278.41,199.17 276.75,201.08 275.6,201.98 274.33,202.74 270.5,204.65 268.59,205.8 266.8,207.46 
			264.89,209.63 261.83,212.94 261.07,209.75 260.81,209.88 259.92,207.84 259.28,206.69 258.64,205.8 256.73,203.51 255.97,202.36 
			252.78,196.75 252.14,195.35 251.76,194.07 251.76,193.31 251.89,192.8 252.27,191.52 253.16,190.25 254.44,188.97 251.76,186.93 
			251.89,186.81 247.17,180.43 246.02,178.77 245.64,177.88 245.25,176.99 244.11,172.65 243.6,171 242.71,169.59 240.41,166.66 
			240.03,166.02 239.77,165.39 239.52,164.49 239.39,163.09 239.26,161.69 239.39,160.8 239.65,159.52 240.16,157.87 240.66,156.84 
			241.18,156.08 248.06,157.23 		"/>
		
			<polyline clip-path="url(#SVGID_2_)" fill="none" stroke="#7e4e23" stroke-width="1.5001" stroke-linejoin="round" stroke-miterlimit="10" points="
			175.51,214.21 180.61,213.07 183.29,214.6 185.07,216.76 187.37,217.66 187.24,220.97 187.11,220.97 187.5,221.22 188.01,221.35 
			188.64,221.48 190.05,221.35 190.94,221.35 191.83,221.48 193.74,221.99 194.77,222.12 195.4,221.99 196.04,221.61 197.31,220.21 
			197.82,219.82 198.59,219.57 199.48,219.44 200.63,219.7 204.58,220.84 207.52,221.61 210.45,222.38 213.25,223.14 217.21,221.99 
			222.81,221.48 226.64,224.29 226.9,225.94 227.15,225.82 227.79,226.45 228.43,226.96 229.06,227.35 230.72,227.98 231.49,228.62 
			231.87,229 232.12,229.51 232.63,230.92 233.53,235.25 233.27,235.25 233.65,239.08 233.78,239.97 234.04,240.99 234.67,241.88 
			238.12,243.92 240.54,247.74 240.54,249.66 240.54,252.59 240.54,253.61 240.66,255.9 240.54,258.2 240.66,260.62 		"/>
		
			<polyline clip-path="url(#SVGID_2_)" fill="none" stroke="#7e4e23" stroke-width="1.5001" stroke-linejoin="round" stroke-miterlimit="10" points="
			237.1,260.87 227.28,261.26 227.28,261 226,260.87 223.96,260.37 223.07,260.24 221.54,260.37 219.63,260.75 218.73,260.87 
			217.59,261 215.55,260.75 198.97,262.79 204.84,268.52 		"/>
		
			<polyline clip-path="url(#SVGID_2_)" fill="none" stroke="#7e4e23" stroke-width="1.5001" stroke-linejoin="round" stroke-miterlimit="10" points="
			198.97,262.79 192.98,265.34 193.11,265.46 190.68,266.61 188.77,268.01 187.37,269.29 185.71,271.08 184.95,271.71 
			182.01,273.75 181.12,274.9 178.44,278.72 176.02,281.65 174.49,283.06 181.76,284.59 		"/>
		
			<polyline clip-path="url(#SVGID_2_)" fill="none" stroke="#7e4e23" stroke-width="1.5001" stroke-linejoin="round" stroke-miterlimit="10" points="
			174.49,283.06 170.54,282.17 170.41,282.42 169.52,282.04 168.75,281.53 168.24,281.02 167.86,280.38 167.61,279.74 
			167.48,279.11 167.22,276.68 166.97,274.64 166.2,269.93 163.27,268.27 160.34,266.1 158.68,263.17 158.81,263.04 156.39,259.35 
			155.75,258.07 155.24,256.67 154.22,252.84 153.71,251.7 153.07,250.68 151.41,248.89 150.65,247.87 150.01,246.85 149.63,245.83 
			151.16,240.6 151.29,234.49 151.29,232.57 155.75,233.59 159.96,233.59 159.96,233.72 164.04,232.83 165.31,232.83 166.58,232.95 
			174.75,235.25 		"/>
		
			<polyline clip-path="url(#SVGID_2_)" fill="none" stroke="#7e4e23" stroke-width="1.5001" stroke-linejoin="round" stroke-miterlimit="10" points="
			177.04,247.11 177.04,247.23 175,247.87 172.07,249.15 169.77,250.04 168.75,250.55 168.12,251.06 167.61,251.7 167.09,252.72 
			166.08,255.9 165.31,257.69 164.55,258.71 162.89,261 162.12,262.41 160.34,266.1 		"/>
		
			<line clip-path="url(#SVGID_2_)" fill="none" stroke="#7e4e23" stroke-width="1.5001" stroke-linejoin="round" stroke-miterlimit="10" x1="144.91" y1="198.79" x2="143.51" y2="195.73"/>
	</g>
</g>
</svg>
