<svg id="Troop_Movements_by_Day_10_16_Revisions" xmlns="http://www.w3.org/2000/svg" viewBox="0 0 1440 910">
  <style>
    .st0{fill:#999999;} .st1{font-family:&apos;DroidSans&apos;;} .st2{font-size:12px;} .st3{fill:none;stroke:#999999;stroke-width:10;stroke-linecap:round;} .st4{fill:none;stroke:#0072BB;stroke-width:3;stroke-linecap:round;stroke-linejoin:round;} .st5{fill:#0072BB;} .st6{fill:none;stroke:#0072BB;stroke-width:10;stroke-linecap:round;} .st7{fill:none;stroke:#ED2939;stroke-width:3;stroke-linecap:round;stroke-linejoin:round;} .st8{fill:#ED2939;} .st9{fill:none;stroke:#ED2939;stroke-width:10;stroke-linecap:round;} .st10{opacity:0.5;fill:#FFFFFF;enable-background:new ;} .st11{fill:none;stroke:#999999;stroke-width:3;stroke-linecap:round;stroke-miterlimit:10;} .st12{font-size:9px;} .st13{fill:#FFFFFF;stroke:#ED2939;stroke-width:0.75;stroke-miterlimit:10;} .st14{font-family:&apos;DroidSans-Bold&apos;;} .st15{fill:none;} .st16{fill:#FFFFFF;stroke:#0072BB;stroke-width:0.75;stroke-miterlimit:10;} .st17{fill:none;stroke:#0072BB;stroke-width:0.75;stroke-miterlimit:10;} .st18{font-size:13.5px;}
  </style>
  <text transform="translate(883.4 386.7)" class="st0 st1 st2">
    Hohenkammer
  </text>
  <path class="st4" d="M406.3 443.9l7.2-7.5 9.1-10.2 6.1-4.3 12.4-2.2 4.7-5.4 1.1-11.3-4.4-14.5-3.6-7.6-4-6.2"/>
  <path class="st5" d="M399.3 454.5l16.2-10.6-8.4-.6-3.7-7.7z"/>
  <text transform="translate(439.1 369.6)" class="st0 st1 st2">
    Günzbu
  </text>
  <text transform="translate(480.9 369.6)" class="st0 st1 st2">
    r
  </text>
  <text transform="translate(485.6 369.6)" class="st0 st1 st2">
    g
  </text>
  <path class="st4" d="M384.6 390.2l1.9-.3 14.2-4 13.8-3.6 6.9-5.4 10.5-2.2"/>
  <path class="st5" d="M372 392.1l18.8 4.6-5.3-6.6 3.1-7.9z"/>
  <text transform="translate(646.5 577.6)" class="st0 st1 st2">
    Landsbe
  </text>
  <text transform="translate(691.7 577.6)" class="st0 st1 st2">
    r
  </text>
  <text transform="translate(696.4 577.6)" class="st0 st1 st2">
    g
  </text>
  <path class="st4" d="M632.2 520.3l-1.8 5.5-1.1 4.3-.4 4.7-.3 4.8.7 4.3 1.1 4.4 4 10.1 3.9 10.1"/>
  <path class="st5" d="M640.9 580.9l-11.1-15.8 8.1 2.5 6.2-5.7z"/>
  <text transform="translate(852.2 472.5)" class="st0 st1 st2">
    Dachau
  </text>
  <path class="st4" d="M805.1 436.8l2.5 2.6 2.6 1.8 9.8 5.1 17 13 6 5.2"/>
  <path class="st5" d="M852.6 472.8l-18.3-6.2 8-2.7 1.5-8.4z"/>
  <text transform="translate(660.1 411.2)" class="st5 st1 st2">
    Augsbu
  </text>
  <text transform="translate(700.2 411.2)" class="st5 st1 st2">
    r
  </text>
  <text transform="translate(704.9 411.2)" class="st5 st1 st2">
    g
  </text>
  <path class="st4" d="M816.5 336.8l-2.9 1.8-64.4 39.9-10.2-7-16.3-20.7-16-14.9-8.3-9.4-5.9 14.9 1.1-1.1-2.1 7.2-1.1 2.9-1.9 3.3-3.2 4.4-8 9-8 7.7-.4-.4-4 .4-1 .3-1.5.8-1.4 1.8-4 5.4-.8 2.2-.3 2.2v2.1l.7 3.7h1.5l-7.5 11.2"/>
  <path class="st5" d="M643.5 415.1l3.9-19 3.7 7.6 8.5.5z"/>
  <text transform="translate(901.8 530.3)" class="st0 st1 st2">
    Munich
  </text>
  <path class="st4" d="M893.5 435.7l4.8 21.4.7-.3 1.1 4.7.7 6.2.4 5.4-.4 6.6-6.7 9.7-.7 4.8v4.7l.4 5.8 1.1 14.9-.1 2.2"/>
  <path class="st5" d="M894.7 534.5l-7.1-18 7.3 4.3 7.3-4.2z"/>
  <text transform="translate(660.1 411.2)" class="st0 st1 st2">
    Augsbu
  </text>
  <text transform="translate(700.2 411.2)" class="st0 st1 st2">
    r
  </text>
  <text transform="translate(704.9 411.2)" class="st0 st1 st2">
    g
  </text>
  <text transform="translate(325.6 633.1)" class="st0 st1 st2">
    Memmingen
  </text>
  <path class="st7" d="M416.3 661.1l-8.4-15.6-1.8-10.3"/>
  <path class="st8" d="M404 622.7l10.2 16.4-7.9-3-6.5 5.5z"/>
  <text transform="translate(301.6 397.4)" class="st8 st1 st2">
    Ulm
  </text>
  <text transform="translate(269.1 859.7)" class="st0 st1 st2">
    Bregenz
  </text>
  <text transform="translate(301.6 397.4)" class="st8 st1 st2">
    Ulm
  </text>
  <text transform="translate(301.6 397.4)" class="st8 st1 st2">
    Ulm
  </text>
  <text transform="translate(301.6 397.4)" class="st8 st1 st2">
    Ulm
  </text>
  <path class="st7" d="M897.8 532.6l13.6-32.6 3.3-6.9 5.5-14.5 6.5-14.2 4.7-10.9 9.5-29.7 13.4-29.1h4.5l11 20.5"/>
  <path class="st8" d="M977.2 425.6L961 415l8.4-.7 3.6-7.6z"/>
  <text transform="translate(301.6 397.4)" class="st8 st1 st2">
    Ulm
  </text>
  <text transform="translate(301.6 397.4)" class="st8 st1 st2">
    Ulm
  </text>
  <text transform="translate(301.6 397.4)" class="st8 st1 st2">
    Ulm
  </text>
  <text transform="translate(301.6 397.4)" class="st0 st1 st2">
    Ulm
  </text>
  <path class="st10" d="M1119.6 834.7h97V898h-97z"/>
  <path class="st11" d="M1210.3 847.3v25.5"/>
  <path class="st0" d="M1210.3 885.6l-7.3-18 7.3 4.3 7.4-4.3z"/>
  <text transform="translate(1134.7 874.2)" class="st8 st1 st12">
    XX
  </text>
  <path class="st13" d="M1124.6 875.7h30v15h-30z"/>
  <text transform="translate(1159.9 887.5)" class="st8 st14 st2">
    Hiller
  </text>
  <path class="st15" d="M1124.6 890.7l30-15"/>
  <text transform="translate(1132.2 846.3)" class="st8 st1 st12">
    XXX
  </text>
  <path class="st13" d="M1124.6 847.7h30v15h-30z"/>
  <text transform="translate(1159.9 859.6)" class="st8 st14 st2">
    Charles
  </text>
  <path class="st15" d="M1124.6 862.7l30-15"/>
  <text transform="translate(424.1 629.7)" class="st8 st1 st12">
    XX
  </text>
  <path class="st13" d="M414 631.1h30v15h-30z"/>
  <text transform="translate(449.3 643)" class="st8 st14 st2">
    Spangen
  </text>
  <path class="st15" d="M414 646.1l30-15"/>
  <text transform="translate(259.4 453.4)" class="st8 st1 st12">
    XX
  </text>
  <path class="st13" d="M249.3 454.8h30v15h-30z"/>
  <text transform="translate(284.6 466.7)" class="st8 st14 st2">
    Jellachich
  </text>
  <path class="st15" d="M249.3 469.8l30-15"/>
  <text transform="translate(284.5 871.6)" class="st8 st1 st12">
    XXX
  </text>
  <path class="st13" d="M276.9 873h30v15h-30z"/>
  <text transform="translate(313.2 884.9)" class="st8 st14 st2">
    John
  </text>
  <path class="st15" d="M276.9 888l30-15"/>
  <text transform="translate(299.5 362)" class="st8 st1 st12">
    XX
  </text>
  <path class="st13" d="M289.4 363.4h30v15h-30z"/>
  <text transform="translate(323.6 375.3)" class="st8 st14 st2">
    Schwarzenbe
  </text>
  <text transform="translate(399.4 375.3)" class="st8 st14 st2">
    r
  </text>
  <text transform="translate(404.5 375.3)" class="st8 st14 st2">
    g
  </text>
  <path class="st15" d="M289.4 378.4l30-15"/>
  <text transform="translate(438.8 306.9)" class="st8 st1 st12">
    XX
  </text>
  <path class="st13" d="M428.8 308.3h30v15h-30z"/>
  <text transform="translate(464 320.2)" class="st8 st14 st2">
    W
  </text>
  <text transform="translate(474.9 320.2)" class="st8 st14 st2">
    erneck
  </text>
  <path class="st15" d="M428.8 323.3l30-15"/>
  <text transform="translate(989.9 421.8)" class="st8 st1 st12">
    XXX
  </text>
  <path class="st13" d="M982.2 423.2h30v15h-30z"/>
  <text transform="translate(1017.5 435.1)" class="st8 st14 st2">
    Kienmayer
  </text>
  <text transform="translate(259.4 397.7)" class="st8 st1 st12">
    XX
  </text>
  <path class="st13" d="M249.3 399.1h30v15h-30z"/>
  <text transform="translate(284.6 411)" class="st8 st14 st2">
    Riesch
  </text>
  <path class="st15" d="M249.3 414.1l30-15"/>
  <text transform="translate(257 425.6)" class="st8 st1 st12">
    XXX
  </text>
  <path class="st13" d="M249.3 427h30v15h-30z"/>
  <text transform="translate(284.6 438.9)" class="st8 st14 st2">
    Ferdinand
  </text>
  <path class="st15" d="M249.3 442l30-15"/>
  <text transform="translate(903.5 361.4)" class="st5 st1 st12">
    XXX
  </text>
  <path class="st16" d="M895.9 362.8h30v15h-30z"/>
  <text transform="translate(931.1 374.7)" class="st5 st14 st2">
    Bavarians
  </text>
  <path class="st15" d="M895.9 377.8l30-15"/>
  <text transform="translate(671.6 425.7)" class="st5 st1 st12">
    XXXX
  </text>
  <path class="st16" d="M666.4 427.1h30v15h-30z"/>
  <text transform="translate(701.7 439)" class="st5 st14 st2">
    Napoleon
  </text>
  <path class="st15" d="M666.4 442.1l30-15"/>
  <text transform="translate(385.7 462.2)" class="st5 st1 st12">
    XXX
  </text>
  <path class="st16" d="M378.1 463.6h30v15h-30z"/>
  <text transform="translate(413.3 475.5)" class="st5 st14 st2">
    Mu
  </text>
  <text transform="translate(431.8 475.5)" class="st5 st14 st2">
    r
  </text>
  <text transform="translate(436.9 475.5)" class="st5 st14 st2">
    at
  </text>
  <path class="st17" d="M378.1 478.6l30-15"/>
  <text transform="translate(414.5 350.4)" class="st5 st1 st12">
    XXX
  </text>
  <path class="st16" d="M406.9 351.8h30v15h-30z"/>
  <text transform="translate(415.6 364.1)" class="st5 st1 st18">
    VI
  </text>
  <text transform="translate(379.2 363.7)" class="st5 st14 st2">
    Ney
  </text>
  <path class="st15" d="M406.9 366.8l30-15"/>
  <text transform="translate(371.1 401.4)" class="st5 st1 st12">
    XXX
  </text>
  <path class="st16" d="M363.5 402.8h30v15h-30z"/>
  <text transform="translate(398.8 414.7)" class="st5 st14 st2">
    Lannes
  </text>
  <text transform="translate(374.4 415.2)" class="st5 st1 st18">
    V
  </text>
  <path class="st15" d="M363.5 417.8l30-15"/>
  <text transform="translate(644.7 598)" class="st5 st1 st12">
    XXX
  </text>
  <path class="st16" d="M637.1 599.4h30v15h-30z"/>
  <text transform="translate(645.8 611.8)" class="st5 st1 st18">
    IV
  </text>
  <text transform="translate(672.4 611.3)" class="st5 st14 st2">
    Soult
  </text>
  <path class="st15" d="M637.1 614.4l30-15"/>
  <text transform="translate(805.2 411.1)" class="st5 st1 st12">
    XXX
  </text>
  <path class="st16" d="M797.6 412.5h30v15h-30z"/>
  <text transform="translate(832.9 424.4)" class="st5 st14 st2">
    Davout
  </text>
  <text transform="translate(805.5 424.9)" class="st5 st1 st18">
    III
  </text>
  <path class="st15" d="M797.6 427.5l30-15"/>
  <text transform="translate(789.3 347.2)" class="st5 st1 st12">
    XXX
  </text>
  <path class="st16" d="M781.7 348.6h30v15h-30z"/>
  <text transform="translate(791.9 360.9)" class="st5 st1 st18">
    II
  </text>
  <text transform="translate(816.9 360.5)" class="st5 st14 st2">
    Marmont
  </text>
  <path class="st15" d="M781.7 363.6l30-15"/>
  <text transform="translate(868.1 549.3)" class="st5 st1 st12">
    XXX
  </text>
  <path class="st16" d="M860.5 550.7h30v15h-30z"/>
  <text transform="translate(873 563)" class="st5 st1 st18">
    I
  </text>
  <text transform="translate(895.7 562.6)" class="st5 st14 st2">
    Bernado
  </text>
  <text transform="translate(944.5 562.6)" class="st5 st14 st2">
    t
  </text>
  <text transform="translate(949.6 562.6)" class="st5 st14 st2">
    te
  </text>
  <path class="st15" d="M860.5 565.7l30-15"/>
  <text transform="translate(179 424.2)" class="st8 st1 st12">
    XXXX
  </text>
  <path class="st13" d="M173.9 425.6h30v15h-30z"/>
  <text transform="translate(210.1 437.5)" class="st8 st14 st2">
    Mack
  </text>
</svg>
