<svg id="Troop_Movements_by_Day_10_16_Revisions" xmlns="http://www.w3.org/2000/svg" viewBox="0 0 1440 910">
  <style>
    .st0{fill:none;stroke:#0072BB;stroke-width:3;stroke-linecap:round;stroke-linejoin:round;} .st1{fill:#0072BB;} .st2{fill:#999999;} .st3{font-family:&apos;DroidSans&apos;;} .st4{font-size:12px;} .st5{fill:none;stroke:#999999;stroke-width:10;stroke-linecap:round;} .st6{fill:none;stroke:#ED2939;stroke-width:3;stroke-linecap:round;stroke-linejoin:round;} .st7{fill:#ED2939;} .st8{fill:none;stroke:#ED2939;stroke-width:10;stroke-linecap:round;} .st9{opacity:0.5;fill:#FFFFFF;enable-background:new ;} .st10{fill:none;stroke:#999999;stroke-width:3;stroke-linecap:round;stroke-miterlimit:10;} .st11{font-size:9px;} .st12{fill:#FFFFFF;stroke:#ED2939;stroke-width:0.75;stroke-miterlimit:10;} .st13{font-family:&apos;DroidSans-Bold&apos;;} .st14{fill:none;} .st15{fill:#FFFFFF;stroke:#0072BB;stroke-width:0.75;stroke-miterlimit:10;} .st16{fill:none;stroke:#0072BB;stroke-width:0.75;stroke-miterlimit:10;} .st17{font-size:13.5px;}
  </style>
  <path class="st0" d="M367.6 385.2l2.4-.1 14.5-2.2 14.2-4 13.8-3.6 6.9-5.4 10.5-2.2"/>
  <path class="st1" d="M354.9 385.9l18.2 6.4-4.6-7.1 3.9-7.5z"/>
  <path class="st0" d="M347 425.1l-1.8-3-5.8-6.9-6.2-15.6 16.7-4.7 22.1-5.8"/>
  <path class="st1" d="M348.1 437.7l4.8-18.7-6.7 5.2-7.8-3.2z"/>
  <path class="st0" d="M641.3 590.2l-10.6 1.1.4.3-7.6 1.5-7.6.7-1.9.4-1.8.7-2.9 2.2-2.2 1.1-2.9 1.1-4 .7-9 1.8-12.7.4-11.3-4-16.7.3-11.6-.7h-12.4l.4-.3-4.4-.5-8.4-1.1-12.3 1.8h-17.4l-12.7-1.8-2.8 1.7"/>
  <path class="st1" d="M458 604.2l11.6-15.5.1 8.4 7.5 4.1z"/>
  <path class="st0" d="M641.5 412.1l11.5 7.7-.4-.4-11.1-7.3-3.6-2.6-3.3-.4-2.9-.3-4.3.3h1.8l-6.6 4.4-7.6-3.4-12.9-5.5-8.8-3.3-6.9-3.9-12.7-5.8-5.6-2.1-14.4 5.7-12-2.6-12.9-6.4-8.3-8-4-2.6v-.3l-5.2.6-9.5 1.8-13.8 2.9h-6.5l-8-1.1-14.2-5.8-9.4-1.1-20-6.9 4 6.2 3.6 7.6 3.4 14.5-2.1 15.3-4.7 5.4-12.4 2.2-6.1 4.3-7.7 8.6"/>
  <path class="st1" d="M399.2 439l6.9-18.1 2.5 8.1 8.2 1.9z"/>
  <text transform="translate(901.8 530.3)" class="st2 st3 st4">
    Munich
  </text>
  <path class="st0" d="M411.3 435.4l11.7-13.3 4.5-2.2 13.2-3 6.8-7.6 2.9-16.4-4.5-13.2 4 2.9 9.4 1.1 14.2 4.8 8 1.1h6.5l13.8-2.9 10.5-1.8 6.2 5.4v.3l4 2.6 10.3 5 6.9 2.4 14 2.6 13.4-5.7 5.6 2.1 12.7 7.8 5.9 2.9 9.8 3.3 13.9 5.5 10.6 2.4 6.6-2.4h-1.8l4.3-2.3 2.9.3 6.3 2.4 8.6 5.6"/>
  <path class="st1" d="M402.9 444.9l17.3-8.6-8.3-1.6-2.7-8.1z"/>
  <text transform="translate(325.6 633.1)" class="st2 st3 st4">
    Memmingen
  </text>
  <path class="st6" d="M352.3 475.4l-.6-5.2-12-21.4-7.1-10.3 7.5-3.8-.7-.3-1-3.7-6.2-10.6"/>
  <path class="st7" d="M353.9 488l5-18.7-6.7 5.2-7.8-3.4z"/>
  <text transform="translate(269.1 859.7)" class="st2 st3 st4">
    Bregenz
  </text>
  <path class="st5" d="M334.6 396.8h1"/>
  <text transform="translate(301.6 397.4)" class="st7 st3 st4">
    Ulm
  </text>
  <text transform="translate(301.6 397.4)" class="st7 st3 st4">
    Ulm
  </text>
  <text transform="translate(301.6 397.4)" class="st7 st3 st4">
    Ulm
  </text>
  <path class="st6" d="M977.2 425.6l7.2 6.9 5.5 4.3 15.9 10.2 4 3.6 3.3 3.7 2.2 4.3 4 9.8 5.8 18.9 3.6 10.9 2.5 5.8 9.1 18.5 3.7 5.7"/>
  <path class="st7" d="M1055.6 533.4l-19.3-2 7.2-4.4-.3-8.5z"/>
  <text transform="translate(301.6 397.4)" class="st2 st3 st4">
    Ulm
  </text>
  <path class="st9" d="M1119.6 834.7h97V898h-97z"/>
  <path class="st10" d="M1210.3 847.3v25.5"/>
  <path class="st2" d="M1210.3 885.6l-7.3-18 7.3 4.3 7.4-4.3z"/>
  <text transform="translate(1134.7 874.2)" class="st7 st3 st11">
    XX
  </text>
  <path class="st12" d="M1124.6 875.7h30v15h-30z"/>
  <text transform="translate(1159.9 887.5)" class="st7 st13 st4">
    Hiller
  </text>
  <path class="st14" d="M1124.6 890.7l30-15"/>
  <text transform="translate(1132.2 846.3)" class="st7 st3 st11">
    XXX
  </text>
  <path class="st12" d="M1124.6 847.7h30v15h-30z"/>
  <text transform="translate(1159.9 859.6)" class="st7 st13 st4">
    Charles
  </text>
  <path class="st14" d="M1124.6 862.7l30-15"/>
  <text transform="translate(416.1 629.7)" class="st7 st3 st11">
    XX
  </text>
  <path class="st12" d="M406 631.1h30v15h-30z"/>
  <text transform="translate(441.3 643)" class="st7 st13 st4">
    Spangen
  </text>
  <path class="st14" d="M406 646.1l30-15"/>
  <text transform="translate(347.1 507.3)" class="st7 st3 st11">
    XX
  </text>
  <path class="st12" d="M337 508.7h30v15h-30z"/>
  <text transform="translate(372.2 520.6)" class="st7 st13 st4">
    Jellachich
  </text>
  <path class="st14" d="M337 523.7l30-15"/>
  <text transform="translate(284.5 871.6)" class="st7 st3 st11">
    XXX
  </text>
  <path class="st12" d="M276.9 873h30v15h-30z"/>
  <text transform="translate(313.2 884.9)" class="st7 st13 st4">
    John
  </text>
  <path class="st14" d="M276.9 888l30-15"/>
  <text transform="translate(218.1 401.9)" class="st7 st3 st11">
    XX
  </text>
  <path class="st12" d="M208 403.3h30v15h-30z"/>
  <text transform="translate(242.3 415.2)" class="st7 st13 st4">
    Schwarzenbe
  </text>
  <text transform="translate(318.1 415.2)" class="st7 st13 st4">
    r
  </text>
  <text transform="translate(323.2 415.2)" class="st7 st13 st4">
    g
  </text>
  <path class="st14" d="M208 418.3l30-15"/>
  <text transform="translate(442 265.3)" class="st7 st3 st11">
    XX
  </text>
  <path class="st12" d="M431.9 266.7h30v15h-30z"/>
  <text transform="translate(467.2 278.6)" class="st7 st13 st4">
    W
  </text>
  <text transform="translate(478.1 278.6)" class="st7 st13 st4">
    erneck
  </text>
  <path class="st14" d="M431.9 281.7l30-15"/>
  <text transform="translate(1068.1 533.1)" class="st7 st3 st11">
    XXX
  </text>
  <path class="st12" d="M1060.5 534.5h30v15h-30z"/>
  <text transform="translate(1095.8 546.4)" class="st7 st13 st4">
    Kienmayer
  </text>
  <path class="st14" d="M1060.5 549.5l30-15"/>
  <text transform="translate(331.3 366.2)" class="st7 st3 st11">
    XX
  </text>
  <path class="st12" d="M321.2 367.6h30v15h-30z"/>
  <text transform="translate(356.5 379.5)" class="st7 st13 st4">
    Riesch
  </text>
  <path class="st14" d="M321.2 382.6l30-15"/>
  <text transform="translate(903.5 395.4)" class="st1 st3 st11">
    XXX
  </text>
  <path class="st15" d="M895.9 396.8h30v15h-30z"/>
  <text transform="translate(931.1 408.7)" class="st1 st13 st4">
    Bavarians
  </text>
  <path class="st14" d="M895.9 411.8l30-15"/>
  <text transform="translate(434.8 424.9)" class="st1 st3 st11">
    XXXX
  </text>
  <path class="st15" d="M429.7 426.3h30v15h-30z"/>
  <text transform="translate(464.9 438.2)" class="st1 st13 st4">
    Napoleon
  </text>
  <path class="st14" d="M429.7 441.3l30-15"/>
  <text transform="translate(415.7 479.2)" class="st1 st3 st11">
    XXX
  </text>
  <path class="st15" d="M408.1 480.6h30v15h-30z"/>
  <text transform="translate(443.3 492.5)" class="st1 st13 st4">
    Mu
  </text>
  <text transform="translate(461.8 492.5)" class="st1 st13 st4">
    r
  </text>
  <text transform="translate(466.9 492.5)" class="st1 st13 st4">
    at
  </text>
  <path class="st16" d="M408.1 495.6l30-15"/>
  <text transform="translate(382.9 351.3)" class="st1 st3 st11">
    XXX
  </text>
  <path class="st15" d="M375.2 352.7h30v15h-30z"/>
  <text transform="translate(383.9 365)" class="st1 st3 st17">
    VI
  </text>
  <text transform="translate(347.5 364.6)" class="st1 st13 st4">
    Ney
  </text>
  <path class="st14" d="M375.2 367.7l30-15"/>
  <text transform="translate(357.3 406.4)" class="st1 st3 st11">
    XXX
  </text>
  <path class="st15" d="M349.7 407.8h30v15h-30z"/>
  <text transform="translate(385 419.7)" class="st1 st13 st4">
    Lannes
  </text>
  <text transform="translate(360.6 420.1)" class="st1 st3 st17">
    V
  </text>
  <path class="st14" d="M349.7 422.8l30-15"/>
  <text transform="translate(452 613.5)" class="st1 st3 st11">
    XXX
  </text>
  <path class="st15" d="M444.4 614.9h30v15h-30z"/>
  <text transform="translate(453 627.2)" class="st1 st3 st17">
    IV
  </text>
  <text transform="translate(479.7 626.8)" class="st1 st13 st4">
    Soult
  </text>
  <path class="st14" d="M444.4 629.9l30-15"/>
  <text transform="translate(815.2 483.1)" class="st1 st3 st11">
    XXX
  </text>
  <path class="st15" d="M807.6 484.5h30v15h-30z"/>
  <text transform="translate(842.9 496.4)" class="st1 st13 st4">
    Davout
  </text>
  <text transform="translate(815.5 496.9)" class="st1 st3 st17">
    III
  </text>
  <path class="st14" d="M807.6 499.5l30-15"/>
  <text transform="translate(411.3 453.2)" class="st1 st3 st11">
    XXX
  </text>
  <path class="st15" d="M403.7 454.6h30v15h-30z"/>
  <text transform="translate(413.9 466.9)" class="st1 st3 st17">
    II
  </text>
  <text transform="translate(438.9 466.5)" class="st1 st13 st4">
    Marmont
  </text>
  <path class="st14" d="M403.7 469.6l30-15"/>
  <text transform="translate(914.2 543.6)" class="st1 st3 st11">
    XXX
  </text>
  <path class="st15" d="M906.6 545h30v15h-30z"/>
  <text transform="translate(919.1 557.3)" class="st1 st3 st17">
    I
  </text>
  <text transform="translate(941.9 556.9)" class="st1 st13 st4">
    Bernado
  </text>
  <text transform="translate(990.7 556.9)" class="st1 st13 st4">
    t
  </text>
  <text transform="translate(995.8 556.9)" class="st1 st13 st4">
    te
  </text>
  <path class="st14" d="M906.6 560l30-15"/>
  <text transform="translate(253 371.2)" class="st7 st3 st11">
    XXXX
  </text>
  <path class="st12" d="M247.9 372.6h30v15h-30z"/>
  <text transform="translate(284.1 384.5)" class="st7 st13 st4">
    Mack
  </text>
</svg>
