<svg id="Troop_Movements_by_Day_10_16_Revisions" xmlns="http://www.w3.org/2000/svg" viewBox="0 0 1440 910">
  <style>
    .st0{fill:none;stroke:#0072BB;stroke-width:10;stroke-linecap:round;} .st1{fill:#0072BB;} .st2{font-family:&apos;DroidSans&apos;;} .st3{font-size:12px;} .st4{fill:#999999;} .st5{fill:none;stroke:#999999;stroke-width:10;stroke-linecap:round;} .st6{fill:none;stroke:#ED2939;stroke-width:10;stroke-linecap:round;} .st7{fill:#ED2939;} .st8{opacity:0.5;fill:#FFFFFF;enable-background:new ;} .st9{fill:none;stroke:#999999;stroke-width:3;stroke-linecap:round;stroke-miterlimit:10;} .st10{font-size:9px;} .st11{fill:#FFFFFF;stroke:#ED2939;stroke-width:0.75;stroke-miterlimit:10;} .st12{font-family:&apos;DroidSans-Bold&apos;;} .st13{fill:none;} .st14{fill:#FFFFFF;stroke:#0072BB;stroke-width:0.75;stroke-miterlimit:10;} .st15{fill:none;stroke:#0072BB;stroke-width:0.75;stroke-miterlimit:10;} .st16{font-size:13.5px;}
  </style>
  <text transform="translate(301.6 397.4)" class="st1 st2 st3">
    Ulm
  </text>
  <text transform="translate(901.8 530.3)" class="st4 st2 st3">
    Munich
  </text>
  <text transform="translate(301.6 397.4)" class="st7 st2 st3">
    Ulm
  </text>
  <text transform="translate(301.6 397.4)" class="st7 st2 st3">
    Ulm
  </text>
  <text transform="translate(301.6 397.4)" class="st7 st2 st3">
    Ulm
  </text>
  <text transform="translate(301.6 397.4)" class="st7 st2 st3">
    Ulm
  </text>
  <text transform="translate(301.6 397.4)" class="st7 st2 st3">
    Ulm
  </text>
  <text transform="translate(301.6 397.4)" class="st4 st2 st3">
    Ulm
  </text>
  <path class="st8" d="M1119.6 834.7h97V898h-97z"/>
  <path class="st9" d="M1210.3 847.3v25.5"/>
  <path class="st4" d="M1210.3 885.6l-7.3-18 7.3 4.3 7.4-4.3z"/>
  <text transform="translate(1134.7 874.2)" class="st7 st2 st10">
    XX
  </text>
  <path class="st11" d="M1124.6 875.7h30v15h-30z"/>
  <text transform="translate(1159.9 887.5)" class="st7 st12 st3">
    Hiller
  </text>
  <path class="st13" d="M1124.6 890.7l30-15"/>
  <text transform="translate(1132.2 846.3)" class="st7 st2 st10">
    XXX
  </text>
  <path class="st11" d="M1124.6 847.7h30v15h-30z"/>
  <text transform="translate(1159.9 859.6)" class="st7 st12 st3">
    Charles
  </text>
  <path class="st13" d="M1124.6 862.7l30-15"/>
  <text transform="translate(272.4 808.6)" class="st7 st2 st10">
    XX
  </text>
  <path class="st11" d="M262.4 810h30v15h-30z"/>
  <text transform="translate(297.6 821.9)" class="st7 st12 st3">
    Jellachich
  </text>
  <path class="st13" d="M262.4 825l30-15"/>
  <text transform="translate(276 849.4)" class="st7 st2 st10">
    XXX
  </text>
  <path class="st11" d="M268.3 850.8h30v15h-30z"/>
  <text transform="translate(304.6 862.7)" class="st7 st12 st3">
    John
  </text>
  <path class="st13" d="M268.3 865.8l30-15"/>
  <text transform="translate(577.6 21.9)" class="st7 st2 st10">
    XX
  </text>
  <path class="st11" d="M567.6 23.3h30v15h-30z"/>
  <text transform="translate(602.8 35.2)" class="st7 st12 st3">
    Schwarzenbe
  </text>
  <text transform="translate(678.6 35.2)" class="st7 st12 st3">
    r
  </text>
  <text transform="translate(683.7 35.2)" class="st7 st12 st3">
    g
  </text>
  <path class="st13" d="M567.6 38.3l30-15"/>
  <text transform="translate(1181.1 476.6)" class="st7 st2 st10">
    XXX
  </text>
  <path class="st11" d="M1173.4 478h30v15h-30z"/>
  <text transform="translate(1208.7 489.9)" class="st7 st12 st3">
    Kienmayer
  </text>
  <path class="st13" d="M1173.4 493l30-15"/>
  <text transform="translate(572.4 51.4)" class="st7 st2 st10">
    XXX
  </text>
  <path class="st11" d="M564.8 52.8h30v15h-30z"/>
  <text transform="translate(600 64.7)" class="st7 st12 st3">
    Ferdinand
  </text>
  <path class="st13" d="M564.8 67.8l30-15"/>
  <text transform="translate(880.1 383.3)" class="st1 st2 st10">
    XXX
  </text>
  <path class="st14" d="M872.5 384.7h30v15h-30z"/>
  <text transform="translate(907.7 396.6)" class="st1 st12 st3">
    Bavarians
  </text>
  <path class="st13" d="M872.5 399.7l30-15"/>
  <text transform="translate(370.9 367.8)" class="st1 st2 st10">
    XXXX
  </text>
  <path class="st14" d="M365.7 369.2h30v15h-30z"/>
  <text transform="translate(401 381.1)" class="st1 st12 st3">
    Napoleon
  </text>
  <path class="st13" d="M365.7 384.2l30-15"/>
  <text transform="translate(539.7 104.1)" class="st1 st2 st10">
    XXX
  </text>
  <path class="st14" d="M532.1 105.5h30v15h-30z"/>
  <text transform="translate(567.3 117.4)" class="st1 st12 st3">
    Mu
  </text>
  <text transform="translate(585.8 117.4)" class="st1 st12 st3">
    r
  </text>
  <text transform="translate(590.9 117.4)" class="st1 st12 st3">
    at
  </text>
  <path class="st15" d="M532.1 120.5l30-15"/>
  <text transform="translate(515.3 311.6)" class="st1 st2 st10">
    XXX
  </text>
  <path class="st14" d="M507.7 313h30v15h-30z"/>
  <text transform="translate(516.3 325.3)" class="st1 st2 st16">
    VI
  </text>
  <text transform="translate(479.9 324.9)" class="st1 st12 st3">
    Ney
  </text>
  <path class="st13" d="M507.7 328l30-15"/>
  <text transform="translate(460.9 200.4)" class="st1 st2 st10">
    XXX
  </text>
  <path class="st14" d="M453.2 201.8h30v15h-30z"/>
  <text transform="translate(488.5 213.7)" class="st1 st12 st3">
    Lannes
  </text>
  <text transform="translate(464.2 214.1)" class="st1 st2 st16">
    V
  </text>
  <path class="st13" d="M453.2 216.8l30-15"/>
  <text transform="translate(565.9 185.5)" class="st1 st2 st10">
    XXX
  </text>
  <path class="st14" d="M558.3 186.9h30v15h-30z"/>
  <text transform="translate(566.9 199.2)" class="st1 st2 st16">
    IV
  </text>
  <text transform="translate(593.5 198.8)" class="st1 st12 st3">
    Soult
  </text>
  <path class="st13" d="M558.3 201.9l30-15"/>
  <text transform="translate(834.7 461.1)" class="st1 st2 st10">
    XXX
  </text>
  <path class="st14" d="M827.1 462.5h30v15h-30z"/>
  <text transform="translate(862.3 474.4)" class="st1 st12 st3">
    Davout
  </text>
  <text transform="translate(835 474.8)" class="st1 st2 st16">
    III
  </text>
  <path class="st13" d="M827.1 477.5l30-15"/>
  <text transform="translate(362.2 410.2)" class="st1 st2 st10">
    XXX
  </text>
  <path class="st14" d="M354.6 411.6h30v15h-30z"/>
  <text transform="translate(364.8 424)" class="st1 st2 st16">
    II
  </text>
  <text transform="translate(389.9 423.5)" class="st1 st12 st3">
    Marmont
  </text>
  <path class="st13" d="M354.6 426.6l30-15"/>
  <text transform="translate(911.2 554.4)" class="st1 st2 st10">
    XXX
  </text>
  <path class="st14" d="M903.6 555.8h30v15h-30z"/>
  <text transform="translate(916 568.1)" class="st1 st2 st16">
    I
  </text>
  <text transform="translate(938.8 567.7)" class="st1 st12 st3">
    Bernado
  </text>
  <text transform="translate(987.6 567.7)" class="st1 st12 st3">
    t
  </text>
  <text transform="translate(992.7 567.7)" class="st1 st12 st3">
    te
  </text>
  <path class="st13" d="M903.6 570.8l30-15"/>
  <text transform="translate(269 405.7)" class="st7 st2 st10">
    XXXX
  </text>
  <path class="st11" d="M263.9 407.1h30v15h-30z"/>
  <text transform="translate(300.1 419)" class="st7 st12 st3">
    Mack
  </text>
</svg>
