<svg id="Troop_Movements_by_Day_10_16_Revisions" xmlns="http://www.w3.org/2000/svg" viewBox="0 0 1440 910">
  <style>
    .st0{fill:none;stroke:#0072BB;stroke-width:3;stroke-linecap:round;stroke-linejoin:round;} .st1{fill:#0072BB;} .st2{fill:none;stroke:#999999;stroke-width:10;stroke-linecap:round;} .st3{fill:#999999;} .st4{font-family:&apos;DroidSans&apos;;} .st5{font-size:12px;} .st6{fill:none;stroke:#ED2939;stroke-width:3;stroke-linecap:round;stroke-linejoin:round;} .st7{fill:#ED2939;} .st8{fill:none;stroke:#ED2939;stroke-width:10;stroke-linecap:round;} .st9{opacity:0.5;fill:#FFFFFF;enable-background:new ;} .st10{fill:none;stroke:#999999;stroke-width:3;stroke-linecap:round;stroke-miterlimit:10;} .st11{font-size:9px;} .st12{fill:#FFFFFF;stroke:#ED2939;stroke-width:0.75;stroke-miterlimit:10;} .st13{font-family:&apos;DroidSans-Bold&apos;;} .st14{fill:none;} .st15{fill:#FFFFFF;stroke:#0072BB;stroke-width:0.75;stroke-miterlimit:10;} .st16{fill:none;stroke:#0072BB;stroke-width:0.75;stroke-miterlimit:10;} .st17{font-size:13.5px;}
  </style>
  <path class="st0" d="M844.3 196.6l5.4 9.8 1.8 13 3.1 5.5 1.4 3.2 2.6 7.7 1.9 4.3.4 4-.3 4.7.4 2.6-.4 3.2-2.1 12.4-.4 3.6 1 3.6.4 2.9 1.7 2.2 2.1 2.2 2.6 5.4.5 2.9 3.8 7.6 1.3 6.6 1.5 4.7.7 4.7h-.4l.5 4.4"/>
  <path class="st1" d="M875.2 330.5l-9.2-17.1 7.7 3.5 6.8-5z"/>
  <path class="st0" d="M491.1 386.6h1.9l13.8-2.9 10.5-1.8 6.2 5.4v.3l4 2.6 8.3 4 6.9 4.4 16 3.6 13.4-4.7 7.6 2.1 12.7 5.8"/>
  <path class="st1" d="M478.5 385.5l17.3 8.6-3.7-7.6 4.8-6.9z"/>
  <path class="st0" d="M434.1 355.7l5.6-9.1"/>
  <path class="st1" d="M429.9 367.7l13.1-14.2-8.3 1.4-5.4-6.5z"/>
  <path class="st0" d="M492.1 381.6h1.9l13.8-2.9 10.5-1.8 6.2 5.4v.3l4 2.6 8.3 4 6.9 4.4 16 3.6 13.4-4.7"/>
  <path class="st1" d="M479.5 380.5l17.3 8.6-3.7-7.6 4.8-6.9z"/>
  <path class="st0" d="M654.6 421.4l-.6 2.4v17.8"/>
  <path class="st1" d="M652.5 454.3l-5.4-18.6 6.8 5 7.7-3.5z"/>
  <path class="st0" d="M836.3 196.6l5.9 14.8-.3 8 2.1 5.5 1.5 3.2 3.6 7.7 2.8 4.3.5 2-.3 3.7.4 2.6-.4 3.2-2.2 12.4-.3 3.6v3.6l.3 2.9 2.8 5.2 1 2.2 3.7 5.4 1.4 2.9 1 2.6"/>
  <path class="st1" d="M865 304l-13.9-13.4 8.4.9 5-6.8z"/>
  <path class="st0" d="M845.3 192.6l9.9 14.8.8 8 1.1 5.5 1.4 3.2 3.6 7.7 1.9 4.3 1.4 4 .7 4.7.4 2.6-.4 3.2L864 263l-.4 3.6v3.6l.4 2.9.7 2.2 1.1 2.2 3.6 5.4 1.5 2.9 2.9 7.6 3.2 6.6 1.5 4.7.1.4"/>
  <path class="st1" d="M879.9 317.8l-9.4-16.9 7.7 3.3 6.8-5.1z"/>
  <text transform="translate(660.1 411.2)" class="st3 st4 st5">
    Augsbu
  </text>
  <text transform="translate(700.2 411.2)" class="st3 st4 st5">
    r
  </text>
  <text transform="translate(704.9 411.2)" class="st3 st4 st5">
    g
  </text>
  <path class="st0" d="M622.9 229.2l-2.6 12.8 2.3 8.3 8.7 18.4 3.6 17.1 4 14.5v13.4l2.6 14.2-1.1 11.6 1.8 18.1.4 2.6.7 3.2 3.2 12.4 1.5 10.5h-.7l1.8 8 .4 2.8.3.7"/>
  <path class="st1" d="M654 409.8l-12.7-14.6 8.3 1.6 5.6-6.3z"/>
  <path class="st6" d="M776.8 982l-10.6-1.8-11.9-3.6-13.1-3.7-8.4-4.7-12.3 2.9h-11.6v-.3l-5.8-.8h-2.6l-3.2.4-11.6 2.5-11.7 3.7-3.6.3h-2.9l-5.8-1.4-4-.7h-11.6l-3.3-1.1-2.5-1.1-1.5-1.5-1.1-2.1-1.1-2.2-.3-2.2v-1.5l.3-2.1.8-2.2 1.1-2.2 1-2.2 1.5-1.8 3.3-3.3 1.1-.7 2.5-1.1 4.7-.3 2.2-.4 2.5-1.1 1.9-1.4 1.8-2.2.7-2.6.4-2.9-.8-3.2-8-11.3-.3.4-2.2-2.2-2.2-1.4-2.2-1.1-2.1-.4-1.8-.4-2.2.4-9.5 2.2-2.9.3h-1.8l-1.4-.3-1.5-.7-1.4-1.1-1.9-1.8-5-6.6-2.6-2.5-3.2-2.6-6.6-3.2-1.4-1.1-1.1-1.8-.7-1.8v-2.6l.7-7.6v-3.3l-.7-4-1.1-4-6.2-8.7-9.8-8 8.3-6.5.4-.4-8.3-9.4-11.7-2.5-.3.3-3.3-1.1-7.3-1.8-4.7-1.1-13-5.4-6.9-3.6-8.8-6.2-.3.7-5.1-2.9-5.4-4-9.5-8.7.8 1.8-3-3.6-2.9-3.3-3.6-2.9-5.1-3.6-3.6-1.8-2.5-1.5-4-1.1-6.2-1.8-2.2-.7-1.8-1.5-1.9-1.6"/>
  <path class="st7" d="M462.4 774l17 9.2-8.3 1.4-2.9 7.9z"/>
  <text transform="translate(301.6 397.4)" class="st7 st4 st5">
    Ulm
  </text>
  <text transform="translate(269.1 859.7)" class="st3 st4 st5">
    Bregenz
  </text>
  <text transform="translate(301.6 397.4)" class="st7 st4 st5">
    Ulm
  </text>
  <path class="st6" d="M372 377.1l-22.1 5.8-4.5 1.3"/>
  <path class="st7" d="M333.2 387.6l15.2-11.9-2.1 8.2 6.1 5.9z"/>
  <text transform="translate(301.6 397.4)" class="st7 st4 st5">
    Ulm
  </text>
  <text transform="translate(301.6 397.4)" class="st7 st4 st5">
    Ulm
  </text>
  <path class="st6" d="M431.9 369.7l-10.5 2.2-6.9 5.4-13.8 3.6-14.2 4-14.5 2.2-22.1 5.8-4.5 1.3"/>
  <path class="st7" d="M333.2 397.6l15.2-11.9-2.1 8.2 6.1 5.9z"/>
  <text transform="translate(901.8 530.3)" class="st3 st4 st5">
    Munich
  </text>
  <path class="st6" d="M848.6 472.8l7.3 13 3.6 4.8 5.9 7.2 2.5 3.3 1.8 3.6.1.5"/>
  <path class="st7" d="M874.4 517l-13.3-14 8.4 1.3 5.2-6.6z"/>
  <text transform="translate(301.6 397.4)" class="st7 st4 st5">
    Ulm
  </text>
  <text transform="translate(301.6 397.4)" class="st7 st4 st5">
    Ulm
  </text>
  <text transform="translate(301.6 397.4)" class="st7 st4 st5">
    Ulm
  </text>
  <path class="st6" d="M431.9 364.7l-10.5 2.2-6.9 5.4-13.8 3.6-14.2 4-14.5 2.2-22.1 5.8-4.5 1.3"/>
  <path class="st7" d="M333.2 392.6l15.2-11.9-2.1 8.2 6.1 5.9z"/>
  <text transform="translate(301.6 397.4)" class="st3 st4 st5">
    Ulm
  </text>
  <path class="st9" d="M1119.6 834.7h97V898h-97z"/>
  <path class="st10" d="M1210.3 847.3v25.5"/>
  <path class="st3" d="M1210.3 885.6l-7.3-18 7.3 4.3 7.4-4.3z"/>
  <text transform="translate(1134.7 874.2)" class="st7 st4 st11">
    XX
  </text>
  <path class="st12" d="M1124.6 875.7h30v15h-30z"/>
  <text transform="translate(1159.9 887.5)" class="st7 st13 st5">
    Hiller
  </text>
  <path class="st14" d="M1124.6 890.7l30-15"/>
  <text transform="translate(1132.2 846.3)" class="st7 st4 st11">
    XXX
  </text>
  <path class="st12" d="M1124.6 847.7h30v15h-30z"/>
  <text transform="translate(1159.9 859.6)" class="st7 st13 st5">
    Charles
  </text>
  <path class="st14" d="M1124.6 862.7l30-15"/>
  <text transform="translate(460.7 749)" class="st7 st4 st11">
    XX
  </text>
  <path class="st12" d="M450.7 750.4h30v15h-30z"/>
  <text transform="translate(485.9 762.3)" class="st7 st13 st5">
    Spangen
  </text>
  <path class="st14" d="M450.7 765.4l30-15"/>
  <text transform="translate(352.8 444.4)" class="st7 st4 st11">
    XX
  </text>
  <path class="st12" d="M342.7 445.8h30v15h-30z"/>
  <text transform="translate(378 457.7)" class="st7 st13 st5">
    Jellachich
  </text>
  <path class="st14" d="M342.7 460.8l30-15"/>
  <text transform="translate(284.5 871.6)" class="st7 st4 st11">
    XXX
  </text>
  <path class="st12" d="M276.9 873h30v15h-30z"/>
  <text transform="translate(313.2 884.9)" class="st7 st13 st5">
    John
  </text>
  <path class="st14" d="M276.9 888l30-15"/>
  <text transform="translate(391.3 402.1)" class="st7 st4 st11">
    XX
  </text>
  <path class="st12" d="M381.2 403.6h30v15h-30z"/>
  <text transform="translate(416.5 415.4)" class="st7 st13 st5">
    Auffenbe
  </text>
  <text transform="translate(469.9 415.4)" class="st7 st13 st5">
    r
  </text>
  <text transform="translate(475 415.4)" class="st7 st13 st5">
    g
  </text>
  <path class="st14" d="M381.2 418.6l30-15"/>
  <text transform="translate(259.4 341.3)" class="st7 st4 st11">
    XX
  </text>
  <path class="st12" d="M249.3 342.8h30v15h-30z"/>
  <text transform="translate(283.6 354.6)" class="st7 st13 st5">
    Schwarzenbe
  </text>
  <text transform="translate(359.4 354.6)" class="st7 st13 st5">
    r
  </text>
  <text transform="translate(364.5 354.6)" class="st7 st13 st5">
    g
  </text>
  <path class="st14" d="M249.3 357.8l30-15"/>
  <text transform="translate(422.1 386.5)" class="st7 st4 st11">
    XX
  </text>
  <path class="st12" d="M412 387.9h30v15h-30z"/>
  <text transform="translate(447.3 399.8)" class="st7 st13 st5">
    W
  </text>
  <text transform="translate(458.2 399.8)" class="st7 st13 st5">
    erneck
  </text>
  <path class="st14" d="M412 402.9l30-15"/>
  <text transform="translate(355.5 418.6)" class="st7 st4 st11">
    XX
  </text>
  <path class="st12" d="M345.4 420h30v15h-30z"/>
  <text transform="translate(380.7 431.9)" class="st7 st13 st5">
    Gyulai
  </text>
  <path class="st14" d="M345.4 435l30-15"/>
  <text transform="translate(883.3 492.4)" class="st7 st4 st11">
    XXXX
  </text>
  <path class="st12" d="M878.1 493.9h30v15h-30z"/>
  <text transform="translate(913.4 505.7)" class="st7 st13 st5">
    Kienmayer
  </text>
  <path class="st14" d="M878.1 508.9l30-15"/>
  <text transform="translate(361.5 358.1)" class="st7 st4 st11">
    XX
  </text>
  <path class="st12" d="M351.4 359.5h30v15h-30z"/>
  <text transform="translate(386.7 371.4)" class="st7 st13 st5">
    Riesch
  </text>
  <path class="st14" d="M351.4 374.5l30-15"/>
  <text transform="translate(257 425.6)" class="st7 st4 st11">
    XXX
  </text>
  <path class="st12" d="M249.3 427h30v15h-30z"/>
  <text transform="translate(284.6 438.9)" class="st7 st13 st5">
    Ferdinand
  </text>
  <path class="st14" d="M249.3 442l30-15"/>
  <text transform="translate(915 297.7)" class="st1 st4 st11">
    XXX
  </text>
  <path class="st15" d="M907.4 299.1h30v15h-30z"/>
  <text transform="translate(942.6 311)" class="st1 st13 st5">
    Bavarians
  </text>
  <path class="st14" d="M907.4 314.1l30-15"/>
  <text transform="translate(668.5 384)" class="st1 st4 st11">
    XXXX
  </text>
  <path class="st15" d="M663.4 385.4h30v15h-30z"/>
  <text transform="translate(698.6 397.3)" class="st1 st13 st5">
    Napoleon
  </text>
  <path class="st14" d="M663.4 400.4l30-15"/>
  <text transform="translate(508 399.4)" class="st1 st4 st11">
    XXX
  </text>
  <path class="st15" d="M500.4 400.8h30v15h-30z"/>
  <text transform="translate(535.6 412.7)" class="st1 st13 st5">
    Mu
  </text>
  <text transform="translate(554.1 412.7)" class="st1 st13 st5">
    r
  </text>
  <text transform="translate(559.2 412.7)" class="st1 st13 st5">
    at
  </text>
  <path class="st16" d="M500.4 415.8l30-15"/>
  <text transform="translate(416.6 323.2)" class="st1 st4 st11">
    XXX
  </text>
  <path class="st15" d="M409 324.7h30v15h-30z"/>
  <text transform="translate(417.6 337)" class="st1 st4 st17">
    VI
  </text>
  <text transform="translate(381.2 336.5)" class="st1 st13 st5">
    Ney
  </text>
  <path class="st14" d="M409 339.7l30-15"/>
  <text transform="translate(475 355)" class="st1 st4 st11">
    XXX
  </text>
  <path class="st15" d="M467.4 356.4h30v15h-30z"/>
  <text transform="translate(502.6 368.3)" class="st1 st13 st5">
    Lannes
  </text>
  <text transform="translate(478.3 368.7)" class="st1 st4 st17">
    V
  </text>
  <path class="st14" d="M467.4 371.4l30-15"/>
  <text transform="translate(656.8 468)" class="st1 st4 st11">
    XXX
  </text>
  <path class="st15" d="M649.2 469.4h30v15h-30z"/>
  <text transform="translate(657.8 481.7)" class="st1 st4 st17">
    IV
  </text>
  <text transform="translate(684.4 481.3)" class="st1 st13 st5">
    Soult
  </text>
  <path class="st14" d="M649.2 484.4l30-15"/>
  <text transform="translate(789.7 417.8)" class="st1 st4 st11">
    XXX
  </text>
  <path class="st15" d="M782.1 419.2h30v15h-30z"/>
  <text transform="translate(817.4 431.1)" class="st1 st13 st5">
    Davout
  </text>
  <text transform="translate(790 431.6)" class="st1 st4 st17">
    III
  </text>
  <path class="st14" d="M782.1 434.2l30-15"/>
  <text transform="translate(788 298.2)" class="st1 st4 st11">
    XXX
  </text>
  <path class="st15" d="M780.4 299.6h30v15h-30z"/>
  <text transform="translate(790.5 311.9)" class="st1 st4 st17">
    II
  </text>
  <text transform="translate(815.6 311.5)" class="st1 st13 st5">
    Marmont
  </text>
  <path class="st14" d="M780.4 314.6l30-15"/>
  <text transform="translate(892.5 321.8)" class="st1 st4 st11">
    XXX
  </text>
  <path class="st15" d="M884.9 323.2h30v15h-30z"/>
  <text transform="translate(897.3 335.6)" class="st1 st4 st17">
    I
  </text>
  <text transform="translate(920.1 335.1)" class="st1 st13 st5">
    Bernado
  </text>
  <text transform="translate(968.9 335.1)" class="st1 st13 st5">
    t
  </text>
  <text transform="translate(974 335.1)" class="st1 st13 st5">
    te
  </text>
  <path class="st14" d="M884.9 338.2l30-15"/>
  <text transform="translate(255.2 368.6)" class="st7 st4 st11">
    XXXX
  </text>
  <path class="st12" d="M250.1 370h30v15h-30z"/>
  <text transform="translate(286.3 381.9)" class="st7 st13 st5">
    Mack
  </text>
</svg>
