<svg id="Troop_Movements_by_Day_10_16_Revisions" xmlns="http://www.w3.org/2000/svg" viewBox="0 0 1440 910">
  <style>
    .st0{fill:none;stroke:#0072BB;stroke-width:3;stroke-linecap:round;stroke-linejoin:round;} .st1{fill:#0072BB;} .st2{fill:#999999;} .st3{font-family:&apos;DroidSans&apos;;} .st4{font-size:12px;} .st5{fill:none;stroke:#999999;stroke-width:10;stroke-linecap:round;} .st6{fill:#ED2939;} .st7{fill:none;stroke:#ED2939;stroke-width:3;stroke-linecap:round;stroke-linejoin:round;} .st8{opacity:0.5;fill:#FFFFFF;enable-background:new ;} .st9{fill:none;stroke:#999999;stroke-width:3;stroke-linecap:round;stroke-miterlimit:10;} .st10{font-size:9px;} .st11{fill:#FFFFFF;stroke:#ED2939;stroke-width:0.75;stroke-miterlimit:10;} .st12{font-family:&apos;DroidSans-Bold&apos;;} .st13{fill:none;} .st14{fill:#FFFFFF;stroke:#0072BB;stroke-width:0.75;stroke-miterlimit:10;} .st15{fill:none;stroke:#0072BB;stroke-width:0.75;stroke-miterlimit:10;} .st16{font-size:13.5px;}
  </style>
  <path class="st0" d="M391.5 612.7l-13.1-4.4-4.7-6.8-2.2-2.2-2.1-1.8 2.5-.4-30.1-13.8-31.6-5.1-7.3-.3h-5.8l-2.9-.4-3.6-1.1-4.2-1.5-1.6-.8"/>
  <path class="st1" d="M273.2 568.9l19.3.7-6.8 4.9.8 8.4z"/>
  <path class="st0" d="M391.5 612.7l-13.1-4.4-4.7-6.8-2.2-2.2-2.1-1.8 2.5-.4-30.1-13.8-31.6-5.1-7.3-.3h-5.8l-2.9-.4-3.6-1.1-4.2-1.5-1.6-.8"/>
  <text transform="translate(901.8 530.3)" class="st2 st3 st4">
    Munich
  </text>
  <text transform="translate(348 372)" class="st2 st3 st4">
    Elchingen
  </text>
  <path class="st0" d="M387.6 382.2l1.9-.3 14.2-4 13.8-3.6 6.9-5.4 10.5-2.2"/>
  <path class="st1" d="M375 384.1l18.8 4.6-5.3-6.6 3.1-7.9z"/>
  <text transform="translate(269.1 859.7)" class="st2 st3 st4">
    Bregenz
  </text>
  <text transform="translate(301.6 397.4)" class="st6 st3 st4">
    Ulm
  </text>
  <path class="st7" d="M290.5 290.6l-19.1-24.8"/>
  <path class="st6" d="M263.6 255.7l16.8 9.7-8.4 1.2-3.2 7.8z"/>
  <text transform="translate(301.6 397.4)" class="st6 st3 st4">
    Ulm
  </text>
  <text transform="translate(301.6 397.4)" class="st6 st3 st4">
    Ulm
  </text>
  <path class="st7" d="M1091.5 523.2l2.9-.7 3.6-.4 6.9-.3 20.7-2.6h2.2l5.8-2.5 2.2-1.1 2.2-1.5 3.3-3.1"/>
  <path class="st6" d="M1151 502.9l-8.9 17.1-1.5-8.3-8-2.8z"/>
  <text transform="translate(301.6 397.4)" class="st6 st3 st4">
    Ulm
  </text>
  <text transform="translate(301.6 397.4)" class="st6 st3 st4">
    Ulm
  </text>
  <text transform="translate(301.6 397.4)" class="st6 st3 st4">
    Ulm
  </text>
  <path class="st7" d="M372 381.1l-22.1 5.8-4.5 1.3"/>
  <path class="st6" d="M333.2 391.6l15.2-11.9-2.1 8.2 6.1 5.9z"/>
  <path class="st7" d="M270.9 303.6l-19.1-24.8"/>
  <path class="st6" d="M244 268.7l16.8 9.7-8.4 1.1-3.2 7.9z"/>
  <text transform="translate(301.6 397.4)" class="st2 st3 st4">
    Ulm
  </text>
  <path class="st8" d="M1119.6 834.7h97V898h-97z"/>
  <path class="st9" d="M1210.3 847.3v25.5"/>
  <path class="st2" d="M1210.3 885.6l-7.3-18 7.3 4.3 7.4-4.3z"/>
  <text transform="translate(1134.7 874.2)" class="st6 st3 st10">
    XX
  </text>
  <path class="st11" d="M1124.6 875.7h30v15h-30z"/>
  <text transform="translate(1159.9 887.5)" class="st6 st12 st4">
    Hiller
  </text>
  <path class="st13" d="M1124.6 890.7l30-15"/>
  <text transform="translate(1132.2 846.3)" class="st6 st3 st10">
    XXX
  </text>
  <path class="st11" d="M1124.6 847.7h30v15h-30z"/>
  <text transform="translate(1159.9 859.6)" class="st6 st12 st4">
    Charles
  </text>
  <path class="st13" d="M1124.6 862.7l30-15"/>
  <text transform="translate(331 617.8)" class="st6 st3 st10">
    XX
  </text>
  <path class="st11" d="M321 619.2h30v15h-30z"/>
  <text transform="translate(356.2 631.1)" class="st6 st12 st4">
    Jellachich
  </text>
  <path class="st13" d="M321 634.2l30-15"/>
  <text transform="translate(284.5 871.6)" class="st6 st3 st10">
    XXX
  </text>
  <path class="st11" d="M276.9 873h30v15h-30z"/>
  <text transform="translate(313.2 884.9)" class="st6 st12 st4">
    John
  </text>
  <path class="st13" d="M276.9 888l30-15"/>
  <text transform="translate(180 231.8)" class="st6 st3 st10">
    XX
  </text>
  <path class="st11" d="M169.9 233.3h30v15h-30z"/>
  <text transform="translate(204.1 245.1)" class="st6 st12 st4">
    Schwarzenbe
  </text>
  <text transform="translate(279.9 245.1)" class="st6 st12 st4">
    r
  </text>
  <text transform="translate(285 245.1)" class="st6 st12 st4">
    g
  </text>
  <path class="st13" d="M169.9 248.3l30-15"/>
  <text transform="translate(379.8 241.5)" class="st6 st3 st10">
    XX
  </text>
  <path class="st11" d="M369.7 242.9h30v15h-30z"/>
  <text transform="translate(405 254.8)" class="st6 st12 st4">
    W
  </text>
  <text transform="translate(415.9 254.8)" class="st6 st12 st4">
    erneck
  </text>
  <path class="st13" d="M369.7 257.9l30-15"/>
  <text transform="translate(1146.5 467.7)" class="st6 st3 st10">
    XXX
  </text>
  <path class="st11" d="M1138.9 469.1h30v15h-30z"/>
  <text transform="translate(1174.1 481)" class="st6 st12 st4">
    Kienmayer
  </text>
  <path class="st13" d="M1138.9 484.1l30-15"/>
  <text transform="translate(352.8 396.5)" class="st6 st3 st10">
    XX
  </text>
  <path class="st11" d="M342.7 397.9h30v15h-30z"/>
  <text transform="translate(378 409.8)" class="st6 st12 st4">
    Riesch
  </text>
  <path class="st13" d="M342.7 412.9l30-15"/>
  <text transform="translate(180 202.7)" class="st6 st3 st10">
    XXX
  </text>
  <path class="st11" d="M172.4 204.1h30v15h-30z"/>
  <text transform="translate(207.6 216)" class="st6 st12 st4">
    Ferdinand
  </text>
  <path class="st13" d="M172.4 219.1l30-15"/>
  <text transform="translate(903.5 395.4)" class="st1 st3 st10">
    XXX
  </text>
  <path class="st14" d="M895.9 396.8h30v15h-30z"/>
  <text transform="translate(931.1 408.7)" class="st1 st12 st4">
    Bavarians
  </text>
  <path class="st13" d="M895.9 411.8l30-15"/>
  <text transform="translate(446.8 360.8)" class="st1 st3 st10">
    XXXX
  </text>
  <path class="st14" d="M441.6 362.2h30v15h-30z"/>
  <text transform="translate(476.9 374.1)" class="st1 st12 st4">
    Napoleon
  </text>
  <path class="st13" d="M441.6 377.2l30-15"/>
  <text transform="translate(398.5 320.8)" class="st1 st3 st10">
    XXX
  </text>
  <path class="st14" d="M390.9 322.2h30v15h-30z"/>
  <text transform="translate(426.1 334.1)" class="st1 st12 st4">
    Mu
  </text>
  <text transform="translate(444.6 334.1)" class="st1 st12 st4">
    r
  </text>
  <text transform="translate(449.7 334.1)" class="st1 st12 st4">
    at
  </text>
  <path class="st15" d="M390.9 337.2l30-15"/>
  <text transform="translate(304 370.2)" class="st1 st3 st10">
    XXX
  </text>
  <path class="st14" d="M296.4 371.6h30v15h-30z"/>
  <text transform="translate(305 383.9)" class="st1 st3 st16">
    VI
  </text>
  <text transform="translate(268.7 383.5)" class="st1 st12 st4">
    Ney
  </text>
  <path class="st13" d="M296.4 386.6l30-15"/>
  <text transform="translate(287.1 343.5)" class="st1 st3 st10">
    XXX
  </text>
  <path class="st14" d="M279.5 344.9h30v15h-30z"/>
  <text transform="translate(314.8 356.8)" class="st1 st12 st4">
    Lannes
  </text>
  <text transform="translate(290.4 357.2)" class="st1 st3 st16">
    V
  </text>
  <path class="st13" d="M279.5 359.9l30-15"/>
  <text transform="translate(263.7 551.4)" class="st1 st3 st10">
    XXX
  </text>
  <path class="st14" d="M256.1 552.8h30v15h-30z"/>
  <text transform="translate(264.7 565.1)" class="st1 st3 st16">
    IV
  </text>
  <text transform="translate(291.4 564.7)" class="st1 st12 st4">
    Soult
  </text>
  <path class="st13" d="M256.1 567.8l30-15"/>
  <text transform="translate(815.2 483.1)" class="st1 st3 st10">
    XXX
  </text>
  <path class="st14" d="M807.6 484.5h30v15h-30z"/>
  <text transform="translate(842.9 496.4)" class="st1 st12 st4">
    Davout
  </text>
  <text transform="translate(815.5 496.9)" class="st1 st3 st16">
    III
  </text>
  <path class="st13" d="M807.6 499.5l30-15"/>
  <text transform="translate(299.3 440.2)" class="st1 st3 st10">
    XXX
  </text>
  <path class="st14" d="M291.7 441.6h30v15h-30z"/>
  <text transform="translate(301.9 453.9)" class="st1 st3 st16">
    II
  </text>
  <text transform="translate(326.9 453.5)" class="st1 st12 st4">
    Marmont
  </text>
  <path class="st13" d="M291.7 456.6l30-15"/>
  <text transform="translate(914.2 543.6)" class="st1 st3 st10">
    XXX
  </text>
  <path class="st14" d="M906.6 545h30v15h-30z"/>
  <text transform="translate(919.1 557.3)" class="st1 st3 st16">
    I
  </text>
  <text transform="translate(941.9 556.9)" class="st1 st12 st4">
    Bernado
  </text>
  <text transform="translate(990.7 556.9)" class="st1 st12 st4">
    t
  </text>
  <text transform="translate(995.8 556.9)" class="st1 st12 st4">
    te
  </text>
  <path class="st13" d="M906.6 560l30-15"/>
  <text transform="translate(329 422.7)" class="st6 st3 st10">
    XXXX
  </text>
  <path class="st11" d="M323.9 424.1h30v15h-30z"/>
  <text transform="translate(360.1 436)" class="st6 st12 st4">
    Mack
  </text>
</svg>
