<svg id="Troop_Movements_by_Day_10_16_Revisions" xmlns="http://www.w3.org/2000/svg" viewBox="0 0 1440 910">
  <style>
    .st0{fill:none;stroke:#0072BB;stroke-width:3;stroke-linecap:round;stroke-linejoin:round;} .st1{fill:#0072BB;} .st2{fill:none;stroke:#0072BB;stroke-width:10;stroke-linecap:round;} .st3{fill:#999999;} .st4{font-family:&apos;DroidSans&apos;;} .st5{font-size:12px;} .st6{fill:none;stroke:#999999;stroke-width:10;stroke-linecap:round;} .st7{fill:none;stroke:#ED2939;stroke-width:10;stroke-linecap:round;} .st8{fill:none;stroke:#ED2939;stroke-width:3;stroke-linecap:round;stroke-linejoin:round;} .st9{fill:#ED2939;} .st10{opacity:0.5;fill:#FFFFFF;enable-background:new ;} .st11{fill:none;stroke:#999999;stroke-width:3;stroke-linecap:round;stroke-miterlimit:10;} .st12{font-size:9px;} .st13{fill:#FFFFFF;stroke:#ED2939;stroke-width:0.75;stroke-miterlimit:10;} .st14{font-family:&apos;DroidSans-Bold&apos;;} .st15{fill:none;} .st16{fill:#FFFFFF;stroke:#0072BB;stroke-width:0.75;stroke-miterlimit:10;} .st17{fill:none;stroke:#0072BB;stroke-width:0.75;stroke-miterlimit:10;} .st18{font-size:13.5px;}
  </style>
  <path class="st0" d="M540.2 286l-11.6 9.5-16.7 9.8-16 2.5h-10.5l-11.3 5.1-8.3 3.2-8-4.3-.4.4-4.3-3.7-3.7-2.1-8-2.1-3.6-1.2-10-5.9-12.1-6.4-6.6-2.6-7.3-6.3-7.3-.4-3.4 13.6-.5 8-4.5 7.2-6.4 8.8-8.3 10.8-5.1 9.1-.9 1.4"/>
  <path class="st1" d="M358.3 351l3.9-19 3.7 7.6 8.4.6z"/>
  <text transform="translate(301.6 397.4)" class="st3 st4 st5">
    Ulm
  </text>
  <path class="st0" d="M251.4 571.9l3.6-1.5 3.9-4.7 3.6-5.8 5.1-9.6 7.3-14.4 5-9.3 1.8-4.4 2.5-5h-.4l3.6-11.4 1.5-8.4-1.1-8.3 4.8-12.7"/>
  <path class="st1" d="M297.1 464.5l.5 19.4-5.3-6.6-8.4 1.4z"/>
  <path class="st0" d="M251.4 571.9l3.6-1.5 3.9-4.7 3.6-5.8 5.1-9.6 7.3-14.4 5-9.3 1.8-4.4 2.5-5h-.4l3.6-11.4 1.5-8.4-1.1-8.3 4.8-12.7"/>
  <text transform="translate(901.8 530.3)" class="st3 st4 st5">
    Munich
  </text>
  <text transform="translate(301.6 397.4)" class="st3 st4 st5">
    Ulm
  </text>
  <text transform="translate(269.1 859.7)" class="st3 st4 st5">
    Bregenz
  </text>
  <path class="st8" d="M284 150.6l19.2-24.8"/>
  <path class="st9" d="M310.9 115.7l-5.1 18.7-3.2-7.8-8.4-1.2z"/>
  <text transform="translate(301.6 397.4)" class="st3 st4 st5">
    Ulm
  </text>
  <text transform="translate(301.6 397.4)" class="st3 st4 st5">
    Ulm
  </text>
  <text transform="translate(1192.7 493.2)" class="st3 st4 st5">
    Ampfing
  </text>
  <path class="st8" d="M1148.9 504.7l2.1-1.8 8.4-9.1 3.2-3.2 4-2.2 6.9-2.6 5.4-2"/>
  <path class="st9" d="M1190.8 479.4l-14.2 13.1 1.4-8.3-6.5-5.4z"/>
  <text transform="translate(301.6 397.4)" class="st3 st4 st5">
    Ulm
  </text>
  <text transform="translate(301.6 397.4)" class="st3 st4 st5">
    Ulm
  </text>
  <text transform="translate(301.6 397.4)" class="st3 st4 st5">
    Ulm
  </text>
  <path class="st8" d="M303.6 163.6l19.2-24.8"/>
  <path class="st9" d="M330.5 128.7l-5.1 18.7-3.2-7.9-8.4-1.1z"/>
  <path class="st10" d="M1119.6 834.7h97V898h-97z"/>
  <path class="st11" d="M1210.3 847.3v25.5"/>
  <path class="st3" d="M1210.3 885.6l-7.3-18 7.3 4.3 7.4-4.3z"/>
  <text transform="translate(1134.7 874.2)" class="st9 st4 st12">
    XX
  </text>
  <path class="st13" d="M1124.6 875.7h30v15h-30z"/>
  <text transform="translate(1159.9 887.5)" class="st9 st14 st5">
    Hiller
  </text>
  <path class="st15" d="M1124.6 890.7l30-15"/>
  <text transform="translate(1132.2 846.3)" class="st9 st4 st12">
    XXX
  </text>
  <path class="st13" d="M1124.6 847.7h30v15h-30z"/>
  <text transform="translate(1159.9 859.6)" class="st9 st14 st5">
    Charles
  </text>
  <path class="st15" d="M1124.6 862.7l30-15"/>
  <text transform="translate(274.1 683.9)" class="st9 st4 st12">
    XX
  </text>
  <path class="st13" d="M264 685.3h30v15h-30z"/>
  <text transform="translate(299.2 697.2)" class="st9 st14 st5">
    Jellachich
  </text>
  <path class="st15" d="M264 700.3l30-15"/>
  <text transform="translate(284.5 871.6)" class="st9 st4 st12">
    XXX
  </text>
  <path class="st13" d="M276.9 873h30v15h-30z"/>
  <text transform="translate(313.2 884.9)" class="st9 st14 st5">
    John
  </text>
  <path class="st15" d="M276.9 888l30-15"/>
  <text transform="translate(371.3 100.1)" class="st9 st4 st12">
    XX
  </text>
  <path class="st13" d="M361.2 101.5h30v15h-30z"/>
  <text transform="translate(396.5 113.4)" class="st9 st14 st5">
    Schwarzenbe
  </text>
  <text transform="translate(472.3 113.4)" class="st9 st14 st5">
    r
  </text>
  <text transform="translate(477.4 113.4)" class="st9 st14 st5">
    g
  </text>
  <path class="st15" d="M361.2 116.5l30-15"/>
  <text transform="translate(387.3 237.2)" class="st9 st4 st12">
    XX
  </text>
  <path class="st13" d="M377.3 238.6h30v15h-30z"/>
  <text transform="translate(412.5 250.5)" class="st9 st14 st5">
    W
  </text>
  <text transform="translate(423.4 250.5)" class="st9 st14 st5">
    erneck
  </text>
  <path class="st15" d="M377.3 253.6l30-15"/>
  <text transform="translate(1190.8 452.6)" class="st9 st4 st12">
    XXX
  </text>
  <path class="st13" d="M1183.2 454h30v15h-30z"/>
  <text transform="translate(1218.4 465.9)" class="st9 st14 st5">
    Kienmayer
  </text>
  <path class="st15" d="M1183.2 469l30-15"/>
  <text transform="translate(276.4 412.1)" class="st9 st4 st12">
    XX
  </text>
  <path class="st13" d="M266.3 413.5h30v15h-30z"/>
  <text transform="translate(301.6 425.4)" class="st9 st14 st5">
    Riesch
  </text>
  <path class="st15" d="M266.3 428.5l30-15"/>
  <text transform="translate(369.9 127.8)" class="st9 st4 st12">
    XXX
  </text>
  <path class="st13" d="M362.2 129.3h30v15h-30z"/>
  <text transform="translate(397.5 141.1)" class="st9 st14 st5">
    Ferdinand
  </text>
  <path class="st15" d="M362.2 144.3l30-15"/>
  <text transform="translate(903.5 395.4)" class="st1 st4 st12">
    XXX
  </text>
  <path class="st16" d="M895.9 396.8h30v15h-30z"/>
  <text transform="translate(931.1 408.7)" class="st1 st14 st5">
    Bavarians
  </text>
  <path class="st15" d="M895.9 411.8l30-15"/>
  <text transform="translate(365.6 375.3)" class="st1 st4 st12">
    XXXX
  </text>
  <path class="st16" d="M360.4 376.7h30v15h-30z"/>
  <text transform="translate(395.7 388.6)" class="st1 st14 st5">
    Napoleon
  </text>
  <path class="st15" d="M360.4 391.7l30-15"/>
  <text transform="translate(398.5 320.8)" class="st1 st4 st12">
    XXX
  </text>
  <path class="st16" d="M390.9 322.2h30v15h-30z"/>
  <text transform="translate(426.1 334.1)" class="st1 st14 st5">
    Mu
  </text>
  <text transform="translate(444.6 334.1)" class="st1 st14 st5">
    r
  </text>
  <text transform="translate(449.7 334.1)" class="st1 st14 st5">
    at
  </text>
  <path class="st17" d="M390.9 337.2l30-15"/>
  <text transform="translate(317.6 372)" class="st1 st4 st12">
    XXX
  </text>
  <path class="st16" d="M310 373.4h30v15h-30z"/>
  <text transform="translate(318.6 385.7)" class="st1 st4 st18">
    VI
  </text>
  <text transform="translate(282.2 385.3)" class="st1 st14 st5">
    Ney
  </text>
  <path class="st15" d="M310 388.4l30-15"/>
  <text transform="translate(352 400.1)" class="st1 st4 st12">
    XXX
  </text>
  <path class="st16" d="M344.4 401.5h30v15h-30z"/>
  <text transform="translate(379.6 413.4)" class="st1 st14 st5">
    Lannes
  </text>
  <text transform="translate(355.3 413.8)" class="st1 st4 st18">
    V
  </text>
  <path class="st15" d="M344.4 416.5l30-15"/>
  <text transform="translate(306.5 467.8)" class="st1 st4 st12">
    XXX
  </text>
  <path class="st16" d="M298.9 469.2h30v15h-30z"/>
  <text transform="translate(307.5 481.5)" class="st1 st4 st18">
    IV
  </text>
  <text transform="translate(334.1 481.1)" class="st1 st14 st5">
    Soult
  </text>
  <path class="st15" d="M298.9 484.2l30-15"/>
  <text transform="translate(849.2 483.8)" class="st1 st4 st12">
    XXX
  </text>
  <path class="st16" d="M841.6 485.2h30v15h-30z"/>
  <text transform="translate(876.9 497.1)" class="st1 st14 st5">
    Davout
  </text>
  <text transform="translate(849.5 497.5)" class="st1 st4 st18">
    III
  </text>
  <path class="st15" d="M841.6 500.2l30-15"/>
  <text transform="translate(356.4 424.9)" class="st1 st4 st12">
    XXX
  </text>
  <path class="st16" d="M348.8 426.3h30v15h-30z"/>
  <text transform="translate(359 438.6)" class="st1 st4 st18">
    II
  </text>
  <text transform="translate(384 438.2)" class="st1 st14 st5">
    Marmont
  </text>
  <path class="st15" d="M348.8 441.3l30-15"/>
  <text transform="translate(911.2 554.4)" class="st1 st4 st12">
    XXX
  </text>
  <path class="st16" d="M903.6 555.8h30v15h-30z"/>
  <text transform="translate(916 568.1)" class="st1 st4 st18">
    I
  </text>
  <text transform="translate(938.8 567.7)" class="st1 st14 st5">
    Bernado
  </text>
  <text transform="translate(987.6 567.7)" class="st1 st14 st5">
    t
  </text>
  <text transform="translate(992.7 567.7)" class="st1 st14 st5">
    te
  </text>
  <path class="st15" d="M903.6 570.8l30-15"/>
  <text transform="translate(299 444.7)" class="st9 st4 st12">
    XXXX
  </text>
  <path class="st13" d="M293.9 446.1h30v15h-30z"/>
  <text transform="translate(330.1 458)" class="st9 st14 st5">
    Mack
  </text>
</svg>
