<svg id="Troop_Movements_by_Day_10_16_Revisions" xmlns="http://www.w3.org/2000/svg" viewBox="0 0 1440 910">
  <style>
    .st0{fill:none;stroke:#0072BB;stroke-width:3;stroke-linecap:round;stroke-linejoin:round;} .st1{fill:#0072BB;} .st2{fill:none;stroke:#0072BB;stroke-width:10;stroke-linecap:round;} .st3{font-family:&apos;DroidSans&apos;;} .st4{font-size:12px;} .st5{fill:#999999;} .st6{fill:none;stroke:#999999;stroke-width:10;stroke-linecap:round;} .st7{fill:none;stroke:#ED2939;stroke-width:10;stroke-linecap:round;} .st8{fill:#ED2939;} .st9{fill:none;stroke:#ED2939;stroke-width:3;stroke-linecap:round;stroke-linejoin:round;} .st10{opacity:0.5;fill:#FFFFFF;enable-background:new ;} .st11{fill:none;stroke:#999999;stroke-width:3;stroke-linecap:round;stroke-miterlimit:10;} .st12{font-size:9px;} .st13{fill:#FFFFFF;stroke:#ED2939;stroke-width:0.75;stroke-miterlimit:10;} .st14{font-family:&apos;DroidSans-Bold&apos;;} .st15{fill:none;} .st16{fill:#FFFFFF;stroke:#0072BB;stroke-width:0.75;stroke-miterlimit:10;} .st17{fill:none;stroke:#0072BB;stroke-width:0.75;stroke-miterlimit:10;} .st18{font-size:13.5px;} .st19{fill:none;stroke:#ED2939;stroke-width:3;stroke-linecap:round;stroke-miterlimit:10;}
  </style>
  <path class="st0" d="M431.1 225l3.6-31.1"/>
  <path class="st1" d="M436.2 181.3l5.2 18.6-6.8-5.1-7.7 3.4z"/>
  <text transform="translate(301.6 397.4)" class="st1 st3 st4">
    Ulm
  </text>
  <text transform="translate(901.8 530.3)" class="st5 st3 st4">
    Munich
  </text>
  <text transform="translate(301.6 397.4)" class="st8 st3 st4">
    Ulm
  </text>
  <text transform="translate(269.1 859.7)" class="st5 st3 st4">
    Bregenz
  </text>
  <text transform="translate(515.1 149.2)" class="st8 st3 st4">
    Nördlingen
  </text>
  <path class="st9" d="M474 92.6l19.2-24.8"/>
  <path class="st8" d="M500.9 57.7l-5.1 18.7-3.2-7.8-8.4-1.2z"/>
  <text transform="translate(301.6 397.4)" class="st8 st3 st4">
    Ulm
  </text>
  <text transform="translate(301.6 397.4)" class="st8 st3 st4">
    Ulm
  </text>
  <text transform="translate(1192.7 493.2)" class="st5 st3 st4">
    Ampfing
  </text>
  <text transform="translate(301.6 397.4)" class="st8 st3 st4">
    Ulm
  </text>
  <text transform="translate(301.6 397.4)" class="st8 st3 st4">
    Ulm
  </text>
  <text transform="translate(301.6 397.4)" class="st5 st3 st4">
    Ulm
  </text>
  <text transform="translate(515.1 149.2)" class="st5 st3 st4">
    Nördlingen
  </text>
  <path class="st9" d="M493.6 103.6l19.2-24.8"/>
  <path class="st8" d="M520.5 68.7l-5.1 18.7-3.2-7.9-8.4-1.1z"/>
  <path class="st10" d="M1119.6 834.7h97V898h-97z"/>
  <path class="st11" d="M1210.3 847.3v25.5"/>
  <path class="st5" d="M1210.3 885.6l-7.3-18 7.3 4.3 7.4-4.3z"/>
  <text transform="translate(1134.7 874.2)" class="st8 st3 st12">
    XX
  </text>
  <path class="st13" d="M1124.6 875.7h30v15h-30z"/>
  <text transform="translate(1159.9 887.5)" class="st8 st14 st4">
    Hiller
  </text>
  <path class="st15" d="M1124.6 890.7l30-15"/>
  <text transform="translate(1132.2 846.3)" class="st8 st3 st12">
    XXX
  </text>
  <path class="st13" d="M1124.6 847.7h30v15h-30z"/>
  <text transform="translate(1159.9 859.6)" class="st8 st14 st4">
    Charles
  </text>
  <path class="st15" d="M1124.6 862.7l30-15"/>
  <text transform="translate(286.3 700.9)" class="st8 st3 st12">
    XX
  </text>
  <path class="st13" d="M276.2 702.3h30v15h-30z"/>
  <text transform="translate(311.5 714.2)" class="st8 st14 st4">
    Jellachich
  </text>
  <path class="st15" d="M276.2 717.3l30-15"/>
  <text transform="translate(284.5 871.6)" class="st8 st3 st12">
    XXX
  </text>
  <path class="st13" d="M276.9 873h30v15h-30z"/>
  <text transform="translate(313.2 884.9)" class="st8 st14 st4">
    John
  </text>
  <path class="st15" d="M276.9 888l30-15"/>
  <text transform="translate(440.6 115.7)" class="st8 st3 st12">
    XX
  </text>
  <path class="st13" d="M430.5 117.1h30v15h-30z"/>
  <text transform="translate(465.8 129)" class="st8 st14 st4">
    Schwarzenbe
  </text>
  <text transform="translate(541.6 129)" class="st8 st14 st4">
    r
  </text>
  <text transform="translate(546.7 129)" class="st8 st14 st4">
    g
  </text>
  <path class="st15" d="M430.5 132.1l30-15"/>
  <text transform="translate(454.4 208.5)" class="st8 st3 st12">
    XX
  </text>
  <path class="st13" d="M444.3 209.9h30v15h-30z"/>
  <text transform="translate(479.5 221.8)" class="st8 st14 st4">
    W
  </text>
  <text transform="translate(490.4 221.8)" class="st8 st14 st4">
    erneck
  </text>
  <path class="st15" d="M444.3 224.9l30-15"/>
  <text transform="translate(1190.8 454.3)" class="st8 st3 st12">
    XXX
  </text>
  <path class="st13" d="M1183.2 455.7h30v15h-30z"/>
  <text transform="translate(1218.4 467.6)" class="st8 st14 st4">
    Kienmayer
  </text>
  <path class="st15" d="M1183.2 470.7l30-15"/>
  <text transform="translate(444.1 156)" class="st8 st3 st12">
    XXX
  </text>
  <path class="st13" d="M436.5 157.4h30v15h-30z"/>
  <text transform="translate(471.8 169.3)" class="st8 st14 st4">
    Ferdinand
  </text>
  <path class="st15" d="M436.5 172.4l30-15"/>
  <text transform="translate(903.5 395.4)" class="st1 st3 st12">
    XXX
  </text>
  <path class="st16" d="M895.9 396.8h30v15h-30z"/>
  <text transform="translate(931.1 408.7)" class="st1 st14 st4">
    Bavarians
  </text>
  <path class="st15" d="M895.9 411.8l30-15"/>
  <text transform="translate(362.6 372.2)" class="st1 st3 st12">
    XXXX
  </text>
  <path class="st16" d="M357.4 373.7h30v15h-30z"/>
  <text transform="translate(392.7 385.5)" class="st1 st14 st4">
    Napoleon
  </text>
  <path class="st15" d="M357.4 388.7l30-15"/>
  <text transform="translate(362.7 173.3)" class="st1 st3 st12">
    XXX
  </text>
  <path class="st16" d="M355.1 174.7h30v15h-30z"/>
  <text transform="translate(390.4 186.6)" class="st1 st14 st4">
    Mu
  </text>
  <text transform="translate(408.9 186.6)" class="st1 st14 st4">
    r
  </text>
  <text transform="translate(414 186.6)" class="st1 st14 st4">
    at
  </text>
  <path class="st17" d="M355.1 189.7l30-15"/>
  <text transform="translate(402.1 204.2)" class="st1 st3 st12">
    XXX
  </text>
  <path class="st16" d="M394.5 205.7h30v15h-30z"/>
  <text transform="translate(403.1 218)" class="st1 st3 st18">
    VI
  </text>
  <text transform="translate(366.7 217.5)" class="st1 st14 st4">
    Ney
  </text>
  <path class="st15" d="M394.5 220.7l30-15"/>
  <text transform="translate(362 399.2)" class="st1 st3 st12">
    XXX
  </text>
  <path class="st16" d="M354.4 400.6h30v15h-30z"/>
  <text transform="translate(389.6 412.5)" class="st1 st14 st4">
    Lannes
  </text>
  <text transform="translate(365.3 412.9)" class="st1 st3 st18">
    V
  </text>
  <path class="st15" d="M354.4 415.6l30-15"/>
  <text transform="translate(400.5 340.5)" class="st1 st3 st12">
    XXX
  </text>
  <path class="st16" d="M392.8 341.9h30v15h-30z"/>
  <text transform="translate(401.5 354.2)" class="st1 st3 st18">
    IV
  </text>
  <text transform="translate(428.1 353.8)" class="st1 st14 st4">
    Soult
  </text>
  <path class="st15" d="M392.8 356.9l30-15"/>
  <text transform="translate(849.2 483.8)" class="st1 st3 st12">
    XXX
  </text>
  <path class="st16" d="M841.6 485.2h30v15h-30z"/>
  <text transform="translate(876.9 497.1)" class="st1 st14 st4">
    Davout
  </text>
  <text transform="translate(849.5 497.5)" class="st1 st3 st18">
    III
  </text>
  <path class="st15" d="M841.6 500.2l30-15"/>
  <text transform="translate(368 429.6)" class="st1 st3 st12">
    XXX
  </text>
  <path class="st16" d="M360.4 431h30v15h-30z"/>
  <text transform="translate(370.5 443.3)" class="st1 st3 st18">
    II
  </text>
  <text transform="translate(395.6 442.9)" class="st1 st14 st4">
    Marmont
  </text>
  <path class="st15" d="M360.4 446l30-15"/>
  <text transform="translate(911.2 554.4)" class="st1 st3 st12">
    XXX
  </text>
  <path class="st16" d="M903.6 555.8h30v15h-30z"/>
  <text transform="translate(916 568.1)" class="st1 st3 st18">
    I
  </text>
  <text transform="translate(938.8 567.7)" class="st1 st14 st4">
    Bernado
  </text>
  <text transform="translate(987.6 567.7)" class="st1 st14 st4">
    t
  </text>
  <text transform="translate(992.7 567.7)" class="st1 st14 st4">
    te
  </text>
  <path class="st15" d="M903.6 570.8l30-15"/>
  <text transform="translate(269 405.7)" class="st8 st3 st12">
    XXXX
  </text>
  <path class="st13" d="M263.9 407.1h30v15h-30z"/>
  <text transform="translate(300.1 419)" class="st8 st14 st4">
    Mack
  </text>
  <path class="st15" d="M293.7 722.5l7.9 43.3"/>
  <path class="st19" d="M293.7 722.5l5.7 30.8"/>
  <path class="st8" d="M301.6 765.8l-10.4-16.3 8 2.8 6.4-5.5z"/>
</svg>
