<svg id="Troop_Movements_by_Day_10_16_Revisions" xmlns="http://www.w3.org/2000/svg" viewBox="0 0 1440 910">
  <style>
    .st0{fill:none;stroke:#0072BB;stroke-width:3;stroke-linecap:round;stroke-linejoin:round;} .st1{fill:#0072BB;} .st2{fill:#999999;} .st3{font-family:&apos;DroidSans&apos;;} .st4{font-size:12px;} .st5{fill:none;stroke:#ED2939;stroke-width:3;stroke-linecap:round;stroke-linejoin:round;} .st6{fill:#ED2939;} .st7{fill:none;stroke:#ED2939;stroke-width:10;stroke-linecap:round;} .st8{fill:none;stroke:#999999;stroke-width:10;stroke-linecap:round;} .st9{opacity:0.5;fill:#FFFFFF;enable-background:new ;} .st10{fill:none;stroke:#999999;stroke-width:3;stroke-linecap:round;stroke-miterlimit:10;} .st11{font-size:9px;} .st12{fill:#FFFFFF;stroke:#ED2939;stroke-width:0.75;stroke-miterlimit:10;} .st13{font-family:&apos;DroidSans-Bold&apos;;} .st14{fill:none;} .st15{fill:#FFFFFF;stroke:#0072BB;stroke-width:0.75;stroke-miterlimit:10;} .st16{fill:none;stroke:#0072BB;stroke-width:0.75;stroke-miterlimit:10;} .st17{font-size:13.5px;}
  </style>
  <path class="st0" d="M706.1 63.3l4 5.5 4 5.4 3.6 3.7 3.3 2.9 17 12.4 8.6 9 7 11.6.5.2"/>
  <path class="st1" d="M765.6 119.4l-19.2-1.9 7.1-4.5-.3-8.4z"/>
  <path class="st0" d="M634.9 302v-.7l-4-14.5-3.6-17.1-8.7-17.4-3.3-11.3 2.6-11.8"/>
  <path class="st1" d="M634.9 314.7l7.1-18-7.3 4.3-7.4-4.1z"/>
  <path class="st0" d="M480.4 303.8l-11.3 5.1-8.3 3.2-8-4.3-.4.4-4.3-3.7-3.7-2.1-8 3.9-3.6-7.2-8-7.9-2-.6"/>
  <path class="st1" d="M410.7 286.8l19.2-1.7-6.2 5.7 1.9 8.3z"/>
  <path class="st0" d="M631.9 302v-.7l-6-14.5-3.6-17.1-7.7-16.4-3.3-12.3 3.6-9.8"/>
  <path class="st1" d="M631.9 314.7l6.9-18.1-7.2 4.4-7.4-4z"/>
  <path class="st0" d="M676.5 363.3l47.2-8.5-16-14.9-10.7-14.5-17.8-24.3-12.7-27.6-4.9-20-2.3-15-16.7-8-22.4 6.3-7.3-3.3"/>
  <path class="st1" d="M664 365.5l18.9 4-5.4-6.4 2.8-8z"/>
  <path class="st0" d="M758.3 210.7l-1.5 12.4v-1.5l-1.6 83.1"/>
  <path class="st1" d="M755 317.4l-7-18 7.2 4.3 7.4-4.1z"/>
  <path class="st0" d="M667.1 126.5l9.8 2.5 10.9 1.9 14.6 1.4 14.5-1.4 9.8-1.5 12.7-2.9 19.7-1.1h6.9l2 2.4 1.5 1.6 12.8-3.6 1.4-.8 6.2 21.8 8.7 10.2 23.9 35.4"/>
  <path class="st1" d="M829.6 203l-16.1-10.8 8.4-.6 3.7-7.6z"/>
  <path class="st0" d="M738.2 98.2l8 11.6 7.5 11.6H765l8 .4-4.5-.4 12.9.4 6.3-.8 6.2 21.8 6.7 10.2 10 15 4.5 6.1 3.6 5.5 14.9 9 .9 2.2.8 1.8 2.9 4.3"/>
  <path class="st1" d="M845.2 207.4l-16-10.8 8.5-.5 3.7-7.6z"/>
  <text transform="translate(621.9 220.8)" class="st2 st3 st4">
    Donauwörth
  </text>
  <path class="st0" d="M506.3 150.8l16.2 4.2 19.9 11.9 20.2 3.2 10.7 8.4 14.1 5.7 12.1 11.5 10.9 14.2 6.5 7.6.2.4"/>
  <path class="st1" d="M622.9 229.2L608 216.9l8.4.3 4.5-7.2z"/>
  <path class="st5" d="M302.8 454.6l-.1 2.9-1.8 11.6-3.3 3.3-5.8 12.7 1.1 8.3-1.5 8.4-3.6 13.4h.4l-1.5 4"/>
  <path class="st6" d="M307 442.6l-12.4 14.9 8.3-1.8 5.7 6.2z"/>
  <text transform="translate(301.6 397.4)" class="st6 st3 st4">
    Ulm
  </text>
  <text transform="translate(439.1 369.6)" class="st6 st3 st4">
    Günzbu
  </text>
  <text transform="translate(480.9 369.6)" class="st6 st3 st4">
    r
  </text>
  <text transform="translate(485.6 369.6)" class="st6 st3 st4">
    g
  </text>
  <text transform="translate(301.6 397.4)" class="st6 st3 st4">
    Ulm
  </text>
  <text transform="translate(301.6 397.4)" class="st6 st3 st4">
    Ulm
  </text>
  <path class="st5" d="M743 371.5l6.2 8 9.1 10.5 9.4 12 .6.7"/>
  <path class="st6" d="M776.8 412.1l-17.4-8.5 8.3-1.7 2.6-8z"/>
  <text transform="translate(439.1 369.6)" class="st2 st3 st4">
    Günzbu
  </text>
  <text transform="translate(480.9 369.6)" class="st2 st3 st4">
    r
  </text>
  <text transform="translate(485.6 369.6)" class="st2 st3 st4">
    g
  </text>
  <text transform="translate(301.6 397.4)" class="st2 st3 st4">
    Ulm
  </text>
  <path class="st9" d="M1119.6 834.7h97V898h-97z"/>
  <path class="st10" d="M1210.3 847.3v25.5"/>
  <path class="st2" d="M1210.3 885.6l-7.3-18 7.3 4.3 7.4-4.3z"/>
  <text transform="translate(1134.7 874.2)" class="st6 st3 st11">
    XX
  </text>
  <path class="st12" d="M1124.6 875.7h30v15h-30z"/>
  <text transform="translate(1159.9 887.5)" class="st6 st13 st4">
    Hiller
  </text>
  <path class="st14" d="M1124.6 890.7l30-15"/>
  <text transform="translate(1132.2 846.3)" class="st6 st3 st11">
    XXX
  </text>
  <path class="st12" d="M1124.6 847.7h30v15h-30z"/>
  <text transform="translate(1159.9 859.6)" class="st6 st13 st4">
    Charles
  </text>
  <path class="st14" d="M1124.6 862.7l30-15"/>
  <text transform="translate(636 881.9)" class="st6 st3 st11">
    XX
  </text>
  <path class="st12" d="M625.9 883.3h30v15h-30z"/>
  <text transform="translate(661.2 895.2)" class="st6 st13 st4">
    Spangen
  </text>
  <path class="st14" d="M625.9 898.3l30-15"/>
  <text transform="translate(323.4 444.3)" class="st6 st3 st11">
    XX
  </text>
  <path class="st12" d="M313.3 445.7h30v15h-30z"/>
  <text transform="translate(348.6 457.6)" class="st6 st13 st4">
    Jellachich
  </text>
  <path class="st14" d="M313.3 460.7l30-15"/>
  <text transform="translate(284.5 871.6)" class="st6 st3 st11">
    XXX
  </text>
  <path class="st12" d="M276.9 873h30v15h-30z"/>
  <text transform="translate(313.2 884.9)" class="st6 st13 st4">
    John
  </text>
  <path class="st14" d="M276.9 888l30-15"/>
  <text transform="translate(571.5 348.4)" class="st6 st3 st11">
    XX
  </text>
  <path class="st12" d="M561.5 349.8h30v15h-30z"/>
  <text transform="translate(596.7 361.7)" class="st6 st13 st4">
    Auffenbe
  </text>
  <text transform="translate(650.1 361.7)" class="st6 st13 st4">
    r
  </text>
  <text transform="translate(655.2 361.7)" class="st6 st13 st4">
    g
  </text>
  <path class="st14" d="M561.5 364.8l30-15"/>
  <text transform="translate(462.4 417.9)" class="st6 st3 st11">
    XX
  </text>
  <path class="st12" d="M452.3 419.3h30v15h-30z"/>
  <text transform="translate(487.6 431.2)" class="st6 st13 st4">
    W
  </text>
  <text transform="translate(498.5 431.2)" class="st6 st13 st4">
    erneck
  </text>
  <path class="st14" d="M452.3 434.3l30-15"/>
  <text transform="translate(470.7 378.6)" class="st6 st3 st11">
    XX
  </text>
  <path class="st12" d="M460.6 380.1h30v15h-30z"/>
  <text transform="translate(495.9 391.9)" class="st6 st13 st4">
    Gyulai
  </text>
  <path class="st14" d="M460.6 395.1l30-15"/>
  <text transform="translate(760.2 363.2)" class="st6 st3 st11">
    XXX
  </text>
  <path class="st12" d="M752.6 364.6h30v15h-30z"/>
  <text transform="translate(787.9 376.5)" class="st6 st13 st4">
    Kienmayer
  </text>
  <path class="st14" d="M752.6 379.6l30-15"/>
  <text transform="translate(442.4 394.1)" class="st6 st3 st11">
    XX
  </text>
  <path class="st12" d="M432.3 395.5h30v15h-30z"/>
  <text transform="translate(467.6 407.4)" class="st6 st13 st4">
    Riesch
  </text>
  <path class="st14" d="M432.3 410.5l30-15"/>
  <text transform="translate(350.2 404.7)" class="st6 st3 st11">
    XXX
  </text>
  <path class="st12" d="M342.6 406.1h30v15h-30z"/>
  <text transform="translate(377.8 418)" class="st6 st13 st4">
    Ferdinand
  </text>
  <path class="st14" d="M342.6 421.1l30-15"/>
  <text transform="translate(766.2 89.5)" class="st1 st3 st11">
    XXX
  </text>
  <path class="st15" d="M758.6 90.9h30v15h-30z"/>
  <text transform="translate(793.9 102.8)" class="st1 st13 st4">
    Bavarians
  </text>
  <path class="st14" d="M758.6 105.9l30-15"/>
  <text transform="translate(618.6 190.2)" class="st1 st3 st11">
    XXXX
  </text>
  <path class="st15" d="M613.4 191.6h30v15h-30z"/>
  <text transform="translate(648.7 203.5)" class="st1 st13 st4">
    Napoleon
  </text>
  <path class="st14" d="M613.4 206.6l30-15"/>
  <text transform="translate(558.6 275.3)" class="st1 st3 st11">
    XXX
  </text>
  <path class="st15" d="M551 276.7h30v15h-30z"/>
  <text transform="translate(586.2 288.6)" class="st1 st13 st4">
    Mu
  </text>
  <text transform="translate(604.7 288.6)" class="st1 st13 st4">
    r
  </text>
  <text transform="translate(609.8 288.6)" class="st1 st13 st4">
    at
  </text>
  <path class="st16" d="M551 291.7l30-15"/>
  <text transform="translate(430.2 262.9)" class="st1 st3 st11">
    XXX
  </text>
  <path class="st15" d="M422.6 264.3h30v15h-30z"/>
  <text transform="translate(431.2 276.6)" class="st1 st3 st17">
    VI
  </text>
  <text transform="translate(394.8 276.2)" class="st1 st13 st4">
    Ney
  </text>
  <path class="st14" d="M422.6 279.3l30-15"/>
  <text transform="translate(605.6 311.9)" class="st1 st3 st11">
    XXX
  </text>
  <path class="st15" d="M598 313.3h30v15h-30z"/>
  <text transform="translate(633.2 325.2)" class="st1 st13 st4">
    Lannes
  </text>
  <text transform="translate(608.9 325.6)" class="st1 st3 st17">
    V
  </text>
  <path class="st14" d="M598 328.3l30-15"/>
  <text transform="translate(660.5 383.7)" class="st1 st3 st11">
    XXX
  </text>
  <path class="st15" d="M652.9 385.1h30v15h-30z"/>
  <text transform="translate(661.5 397.5)" class="st1 st3 st17">
    IV
  </text>
  <text transform="translate(688.1 397)" class="st1 st13 st4">
    Soult
  </text>
  <path class="st14" d="M652.9 400.1l30-15"/>
  <text transform="translate(754.3 326.1)" class="st1 st3 st11">
    XXX
  </text>
  <path class="st15" d="M746.6 327.5h30v15h-30z"/>
  <text transform="translate(781.9 339.4)" class="st1 st13 st4">
    Davout
  </text>
  <text transform="translate(754.5 339.9)" class="st1 st3 st17">
    III
  </text>
  <path class="st14" d="M746.6 342.5l30-15"/>
  <text transform="translate(822.9 210.4)" class="st1 st3 st11">
    XXX
  </text>
  <path class="st15" d="M815.3 211.8h30v15h-30z"/>
  <text transform="translate(825.5 224.1)" class="st1 st3 st17">
    II
  </text>
  <text transform="translate(850.5 223.7)" class="st1 st13 st4">
    Marmont
  </text>
  <path class="st14" d="M815.3 226.8l30-15"/>
  <text transform="translate(866.7 195.3)" class="st1 st3 st11">
    XXX
  </text>
  <path class="st15" d="M859.1 196.7h30v15h-30z"/>
  <text transform="translate(871.5 209)" class="st1 st3 st17">
    I
  </text>
  <text transform="translate(894.3 208.6)" class="st1 st13 st4">
    Bernado
  </text>
  <text transform="translate(943.1 208.6)" class="st1 st13 st4">
    t
  </text>
  <text transform="translate(948.2 208.6)" class="st1 st13 st4">
    te
  </text>
  <path class="st14" d="M859.1 211.7l30-15"/>
</svg>
