<svg id="Troop_Movements_by_Day_10_16_Revisions" xmlns="http://www.w3.org/2000/svg" viewBox="0 0 1440 910">
  <style>
    .st0{fill:none;stroke:#0072BB;stroke-width:3;stroke-linecap:round;stroke-linejoin:round;} .st1{fill:#0072BB;} .st2{fill:none;stroke:#0072BB;stroke-width:10;stroke-linecap:round;} .st3{font-family:&apos;DroidSans&apos;;} .st4{font-size:12px;} .st5{fill:none;} .st6{fill:#999999;} .st7{fill:none;stroke:#999999;stroke-width:10;stroke-linecap:round;} .st8{fill:none;stroke:#ED2939;stroke-width:3;stroke-linecap:round;stroke-linejoin:round;} .st9{fill:#ED2939;} .st10{fill:none;stroke:#ED2939;stroke-width:10;stroke-linecap:round;} .st11{opacity:0.5;fill:#FFFFFF;enable-background:new ;} .st12{fill:none;stroke:#999999;stroke-width:3;stroke-linecap:round;stroke-miterlimit:10;} .st13{font-size:9px;} .st14{fill:#FFFFFF;stroke:#ED2939;stroke-width:0.75;stroke-miterlimit:10;} .st15{font-family:&apos;DroidSans-Bold&apos;;} .st16{fill:#FFFFFF;stroke:#0072BB;stroke-width:0.75;stroke-miterlimit:10;} .st17{fill:none;stroke:#0072BB;stroke-width:0.75;stroke-miterlimit:10;} .st18{font-size:13.5px;}
  </style>
  <path class="st0" d="M872.2 332.5l3.7 3.1 2.5 12.3v4.4l-.7 6.1v2.9l.4 2.6 1.8 7.2-2.3 9.5-1.4-2.6.3.8"/>
  <path class="st1" d="M880.9 390.7l-10.2-16.4 7.9 3 6.5-5.4z"/>
  <path class="st0" d="M436.3 378.2l18.6 6.4 9.4 1.1 14.2 5.8 8 1.1"/>
  <path class="st1" d="M424.5 373.5l14 13.3-1.3-8.3 6.7-5.3z"/>
  <text transform="translate(301.6 397.4)" class="st1 st3 st4">
    Ulm
  </text>
  <text transform="translate(301.6 397.4)" class="st1 st3 st4">
    Ulm
  </text>
  <path class="st0" d="M360.2 387.7l9.8-2.6 14.5-2.2 14.2-4 13.8-3.6 6.9-5.4 10.5-2.2"/>
  <path class="st1" d="M347.9 390.9l19.1 2.6-5.9-6.1 2.2-8.1z"/>
  <path class="st0" d="M654 446.6l-1.5 7.7-5.1 17-3.6 16-1.4 5.1-2.9 6.2 1.8.7-9.1 21-1.8 5.5-.3 1.1"/>
  <path class="st1" d="M628.6 539.6l-4.9-18.8 6.7 5.2 7.8-3.2z"/>
  <path class="st5" d="M747 371.5l6.2 8 9.1 10.5 9.4 12 5.4 6.5 3.7 3.6 8 7 7.2 6.8 2.9 3.3 6.2 7.6 2.5 2.6 2.6 1.8 9.8 5.1"/>
  <path class="st0" d="M861.7 297.4L863 308l-39.4 24.7"/>
  <path class="st1" d="M812.8 339.4l11.3-15.7.3 8.4 7.4 4z"/>
  <text transform="translate(886.9 443.7)" class="st6 st3 st4">
    Heimhausen
  </text>
  <path class="st0" d="M882.3 327.6l-1.5-2.2 10.6 4.4 7.6 2.1 2.9.4 2.9.4 1.8-.4 7.6-2.9 1.8-.4h1.5l1.4.4 1.1 1.1.8 1.8.7 8.7.7 2.9 1.5 2.5 1.4 2.2 2.2 2.6 8.3 7.6 4 4.7 10.6 20.3 3.6 6.9h-4.5l-9.1 2.9v.4l-3.2 1.4-2.6 1.5-6.5 5.8-5.8 4.4-3.3 2.5-6.9 13.4-1.1.8-3.9 4.3-1.5 1.1-.7.4"/>
  <path class="st1" d="M893.5 435.7l12.1-15.1-.1 8.5 7.2 4.3z"/>
  <text transform="translate(660.1 411.2)" class="st1 st3 st4">
    Augsbu
  </text>
  <text transform="translate(700.2 411.2)" class="st1 st3 st4">
    r
  </text>
  <text transform="translate(704.9 411.2)" class="st1 st3 st4">
    g
  </text>
  <path class="st8" d="M466 778l-3.6-4-12.3-16.7-4-12.7-6.2-11.2 4.3-8.4 1.1-15.2-3.6-16.3-5.1-12-9-9.1-2.3-2.3"/>
  <path class="st9" d="M416.3 661.1l17.8 7.5-8.1 2.2-2.2 8.2z"/>
  <text transform="translate(301.6 397.4)" class="st9 st3 st4">
    Ulm
  </text>
  <text transform="translate(269.1 859.7)" class="st6 st3 st4">
    Bregenz
  </text>
  <text transform="translate(301.6 397.4)" class="st9 st3 st4">
    Ulm
  </text>
  <text transform="translate(301.6 397.4)" class="st9 st3 st4">
    Ulm
  </text>
  <text transform="translate(301.6 397.4)" class="st9 st3 st4">
    Ulm
  </text>
  <text transform="translate(901.8 530.3)" class="st6 st3 st4">
    Munich
  </text>
  <text transform="translate(301.6 397.4)" class="st9 st3 st4">
    Ulm
  </text>
  <text transform="translate(301.6 397.4)" class="st9 st3 st4">
    Ulm
  </text>
  <text transform="translate(301.6 397.4)" class="st9 st3 st4">
    Ulm
  </text>
  <text transform="translate(301.6 397.4)" class="st6 st3 st4">
    Ulm
  </text>
  <path class="st11" d="M1119.6 834.7h97V898h-97z"/>
  <path class="st12" d="M1210.3 847.3v25.5"/>
  <path class="st6" d="M1210.3 885.6l-7.3-18 7.3 4.3 7.4-4.3z"/>
  <text transform="translate(1134.7 874.2)" class="st9 st3 st13">
    XX
  </text>
  <path class="st14" d="M1124.6 875.7h30v15h-30z"/>
  <text transform="translate(1159.9 887.5)" class="st9 st15 st4">
    Hiller
  </text>
  <path class="st5" d="M1124.6 890.7l30-15"/>
  <text transform="translate(1132.2 846.3)" class="st9 st3 st13">
    XXX
  </text>
  <path class="st14" d="M1124.6 847.7h30v15h-30z"/>
  <text transform="translate(1159.9 859.6)" class="st9 st15 st4">
    Charles
  </text>
  <path class="st5" d="M1124.6 862.7l30-15"/>
  <text transform="translate(447.2 661.3)" class="st9 st3 st13">
    XX
  </text>
  <path class="st14" d="M437.2 662.7h30v15h-30z"/>
  <text transform="translate(472.4 674.6)" class="st9 st15 st4">
    Spangen
  </text>
  <path class="st5" d="M437.2 677.7l30-15"/>
  <text transform="translate(259.4 453.4)" class="st9 st3 st13">
    XX
  </text>
  <path class="st14" d="M249.3 454.8h30v15h-30z"/>
  <text transform="translate(284.6 466.7)" class="st9 st15 st4">
    Jellachich
  </text>
  <path class="st5" d="M249.3 469.8l30-15"/>
  <text transform="translate(284.5 871.6)" class="st9 st3 st13">
    XXX
  </text>
  <path class="st14" d="M276.9 873h30v15h-30z"/>
  <text transform="translate(313.2 884.9)" class="st9 st15 st4">
    John
  </text>
  <path class="st5" d="M276.9 888l30-15"/>
  <text transform="translate(329.7 357.4)" class="st9 st3 st13">
    XX
  </text>
  <path class="st14" d="M319.6 358.8h30v15h-30z"/>
  <text transform="translate(353.9 370.7)" class="st9 st15 st4">
    Schwarzenbe
  </text>
  <text transform="translate(429.7 370.7)" class="st9 st15 st4">
    r
  </text>
  <text transform="translate(434.8 370.7)" class="st9 st15 st4">
    g
  </text>
  <path class="st5" d="M319.6 373.8l30-15"/>
  <text transform="translate(460.6 333.6)" class="st9 st3 st13">
    XX
  </text>
  <path class="st14" d="M450.5 335h30v15h-30z"/>
  <text transform="translate(485.8 346.9)" class="st9 st15 st4">
    W
  </text>
  <text transform="translate(496.7 346.9)" class="st9 st15 st4">
    erneck
  </text>
  <path class="st5" d="M450.5 350l30-15"/>
  <text transform="translate(912.2 545.2)" class="st9 st3 st13">
    XXX
  </text>
  <path class="st14" d="M904.6 546.6h30v15h-30z"/>
  <text transform="translate(939.8 558.5)" class="st9 st15 st4">
    Kienmayer
  </text>
  <path class="st5" d="M904.6 561.6l30-15"/>
  <text transform="translate(288.7 404.2)" class="st9 st3 st13">
    XX
  </text>
  <path class="st14" d="M278.6 405.6h30v15h-30z"/>
  <text transform="translate(313.9 417.5)" class="st9 st15 st4">
    Riesch
  </text>
  <path class="st5" d="M278.6 420.6l30-15"/>
  <text transform="translate(257 425.6)" class="st9 st3 st13">
    XXX
  </text>
  <path class="st14" d="M249.3 427h30v15h-30z"/>
  <text transform="translate(284.6 438.9)" class="st9 st15 st4">
    Ferdinand
  </text>
  <path class="st5" d="M249.3 442l30-15"/>
  <text transform="translate(823.5 396.4)" class="st1 st3 st13">
    XXX
  </text>
  <path class="st16" d="M815.9 397.8h30v15h-30z"/>
  <text transform="translate(851.1 409.7)" class="st1 st15 st4">
    Bavarians
  </text>
  <path class="st5" d="M815.9 412.8l30-15"/>
  <text transform="translate(671.6 425.7)" class="st1 st3 st13">
    XXXX
  </text>
  <path class="st16" d="M666.4 427.1h30v15h-30z"/>
  <text transform="translate(701.7 439)" class="st1 st15 st4">
    Napoleon
  </text>
  <path class="st5" d="M666.4 442.1l30-15"/>
  <text transform="translate(413.7 387.2)" class="st1 st3 st13">
    XXX
  </text>
  <path class="st16" d="M406.1 388.6h30v15h-30z"/>
  <text transform="translate(441.3 400.5)" class="st1 st15 st4">
    Mu
  </text>
  <text transform="translate(459.8 400.5)" class="st1 st15 st4">
    r
  </text>
  <text transform="translate(464.9 400.5)" class="st1 st15 st4">
    at
  </text>
  <path class="st17" d="M406.1 403.6l30-15"/>
  <text transform="translate(366.5 337.1)" class="st1 st3 st13">
    XXX
  </text>
  <path class="st16" d="M358.9 338.5h30v15h-30z"/>
  <text transform="translate(367.5 350.9)" class="st1 st3 st18">
    VI
  </text>
  <text transform="translate(331.2 350.4)" class="st1 st15 st4">
    Ney
  </text>
  <path class="st5" d="M358.9 353.5l30-15"/>
  <text transform="translate(369.5 399.2)" class="st1 st3 st13">
    XXX
  </text>
  <path class="st16" d="M361.9 400.6h30v15h-30z"/>
  <text transform="translate(397.2 412.5)" class="st1 st15 st4">
    Lannes
  </text>
  <text transform="translate(372.8 412.9)" class="st1 st3 st18">
    V
  </text>
  <path class="st5" d="M361.9 415.6l30-15"/>
  <text transform="translate(643.5 544.9)" class="st1 st3 st13">
    XXX
  </text>
  <path class="st16" d="M635.9 546.3h30v15h-30z"/>
  <text transform="translate(644.5 558.6)" class="st1 st3 st18">
    IV
  </text>
  <text transform="translate(671.2 558.2)" class="st1 st15 st4">
    Soult
  </text>
  <path class="st5" d="M635.9 561.3l30-15"/>
  <text transform="translate(815.2 461.1)" class="st1 st3 st13">
    XXX
  </text>
  <path class="st16" d="M807.6 462.5h30v15h-30z"/>
  <text transform="translate(842.9 474.4)" class="st1 st15 st4">
    Davout
  </text>
  <text transform="translate(815.5 474.9)" class="st1 st3 st18">
    III
  </text>
  <path class="st5" d="M807.6 477.5l30-15"/>
  <text transform="translate(782.3 338.2)" class="st1 st3 st13">
    XXX
  </text>
  <path class="st16" d="M774.7 339.6h30v15h-30z"/>
  <text transform="translate(784.9 351.9)" class="st1 st3 st18">
    II
  </text>
  <text transform="translate(809.9 351.5)" class="st1 st15 st4">
    Marmont
  </text>
  <path class="st5" d="M774.7 354.6l30-15"/>
  <text transform="translate(900.2 455.6)" class="st1 st3 st13">
    XXX
  </text>
  <path class="st16" d="M892.6 457h30v15h-30z"/>
  <text transform="translate(905.1 469.3)" class="st1 st3 st18">
    I
  </text>
  <text transform="translate(927.9 468.9)" class="st1 st15 st4">
    Bernado
  </text>
  <text transform="translate(976.7 468.9)" class="st1 st15 st4">
    t
  </text>
  <text transform="translate(981.8 468.9)" class="st1 st15 st4">
    te
  </text>
  <path class="st5" d="M892.6 472l30-15"/>
  <text transform="translate(229 374.2)" class="st9 st3 st13">
    XXXX
  </text>
  <path class="st14" d="M223.9 375.6h30v15h-30z"/>
  <text transform="translate(260.1 387.5)" class="st9 st15 st4">
    Mack
  </text>
</svg>
