<svg id="Troop_Movements_by_Day_10_16_Revisions" xmlns="http://www.w3.org/2000/svg" viewBox="0 0 1440 910">
  <style>
    .st0{fill:none;} .st1{fill:none;stroke:#0072BB;stroke-width:3;stroke-linecap:round;stroke-linejoin:round;} .st2{fill:#0072BB;} .st3{fill:none;stroke:#0072BB;stroke-width:10;stroke-linecap:round;} .st4{font-family:&apos;DroidSans&apos;;} .st5{font-size:12px;} .st6{fill:#999999;} .st7{fill:none;stroke:#999999;stroke-width:10;stroke-linecap:round;} .st8{fill:none;stroke:#ED2939;stroke-width:10;stroke-linecap:round;} .st9{fill:#ED2939;} .st10{opacity:0.5;fill:#FFFFFF;enable-background:new ;} .st11{fill:none;stroke:#999999;stroke-width:3;stroke-linecap:round;stroke-miterlimit:10;} .st12{font-size:9px;} .st13{fill:#FFFFFF;stroke:#ED2939;stroke-width:0.75;stroke-miterlimit:10;} .st14{font-family:&apos;DroidSans-Bold&apos;;} .st15{fill:#FFFFFF;stroke:#0072BB;stroke-width:0.75;stroke-miterlimit:10;} .st16{fill:none;stroke:#0072BB;stroke-width:0.75;stroke-miterlimit:10;} .st17{font-size:13.5px;}
  </style>
  <path class="st0" d="M498.4 168.4l-3.2 2.2-3.3 1.5-3.3 1-5.8 1.5-3.6 1.1-2.9 1.4-3.3 2.2-3.2 2.6-3.7 4.3-2.5 3.3-5.5 8.7-.3 1.8-7.6 2.9-13.1 1.1-7.3 5.1-1.8 3.6-2.9 8.7-1.4 4-1.9 3.3-2.1 2.9-1.8 1.4-1.9 1.1-2.5.4-5.5.3-2.9.8-2.9 1.1-2.9 1.4 1.8-.7-8.7 11.2m0 0l.4 20 4.7 14.9"/>
  <path class="st0" d="M509.3 152.8l-10.9 15.6-3.2 2.2-3.3 1.5-3.3 1-5.8 1.5-3.6 1.1-2.9 1.4-3.3 2.2-3.2 2.6-3.7 4.3-2.5 3.3-5.5 8.7-.3 1.8-7.6 2.9-13.1 1.1-7.3 5.1"/>
  <path class="st1" d="M558.1 130l3.6-31.1"/>
  <path class="st2" d="M563.2 86.3l5.2 18.6-6.8-5.1-7.7 3.4z"/>
  <text transform="translate(301.6 397.4)" class="st2 st4 st5">
    Ulm
  </text>
  <path class="st1" d="M381.4 244.6l.4 20 4.7 14.9 2.6 11.6-9.5 8-10.5 7.2-.4 8.8-8.3 10.8-5.1 9.1-8 12-4.4 9.1-6.5 11.2-3.6 8-2.3 8.8"/>
  <path class="st2" d="M325.2 395.6l.4-19.3 5 6.8 8.4-1z"/>
  <path class="st1" d="M386.5 279.5l-4.7-14.9-.4-20 8.7-11.2-1.8.7 2.9-1.4 2.9-1.1 2.9-.8 5.5-.3 2.5-.4 1.9-1.1 1.8-1.4 2.1-2.9 1.9-3.3 1.4-4 2.9-8.7 1.8-3.6 7.3-5.1 13.1-1.1 7.6-2.9"/>
  <path class="st1" d="M389.7 258.6l.1 8 4.7 14.9 2.6 11.6-9.5 8-10.5 7.2-.4 8.8-8.3 10.8-5.1 9.1-8 12-4.4 9.1-6.5 11.2-3.6 8-2.9 10.9-4.7 9.4"/>
  <path class="st2" d="M385.8 261.3l3.6-14.7 4.2 14.6z"/>
  <text transform="translate(901.8 530.3)" class="st6 st4 st5">
    Munich
  </text>
  <text transform="translate(301.6 397.4)" class="st9 st4 st5">
    Ulm
  </text>
  <text transform="translate(301.6 397.4)" class="st9 st4 st5">
    Ulm
  </text>
  <text transform="translate(301.6 397.4)" class="st9 st4 st5">
    Ulm
  </text>
  <text transform="translate(301.6 397.4)" class="st9 st4 st5">
    Ulm
  </text>
  <text transform="translate(301.6 397.4)" class="st9 st4 st5">
    Ulm
  </text>
  <text transform="translate(301.6 397.4)" class="st6 st4 st5">
    Ulm
  </text>
  <path class="st10" d="M1119.6 834.7h97V898h-97z"/>
  <path class="st11" d="M1210.3 847.3v25.5"/>
  <path class="st6" d="M1210.3 885.6l-7.3-18 7.3 4.3 7.4-4.3z"/>
  <text transform="translate(1134.7 874.2)" class="st9 st4 st12">
    XX
  </text>
  <path class="st13" d="M1124.6 875.7h30v15h-30z"/>
  <text transform="translate(1159.9 887.5)" class="st9 st14 st5">
    Hiller
  </text>
  <path class="st0" d="M1124.6 890.7l30-15"/>
  <text transform="translate(1132.2 846.3)" class="st9 st4 st12">
    XXX
  </text>
  <path class="st13" d="M1124.6 847.7h30v15h-30z"/>
  <text transform="translate(1159.9 859.6)" class="st9 st14 st5">
    Charles
  </text>
  <path class="st0" d="M1124.6 862.7l30-15"/>
  <text transform="translate(272.7 788.4)" class="st9 st4 st12">
    XX
  </text>
  <path class="st13" d="M262.6 789.9h30v15h-30z"/>
  <text transform="translate(297.9 801.7)" class="st9 st14 st5">
    Jellachich
  </text>
  <path class="st0" d="M262.6 804.9l30-15"/>
  <text transform="translate(270 846.6)" class="st9 st4 st12">
    XXX
  </text>
  <path class="st13" d="M262.4 848h30v15h-30z"/>
  <text transform="translate(298.6 859.9)" class="st9 st14 st5">
    John
  </text>
  <path class="st0" d="M262.4 863l30-15"/>
  <text transform="translate(573.4 31.9)" class="st9 st4 st12">
    XX
  </text>
  <path class="st13" d="M563.3 33.3h30v15h-30z"/>
  <text transform="translate(598.6 45.2)" class="st9 st14 st5">
    Schwarzenbe
  </text>
  <text transform="translate(674.4 45.2)" class="st9 st14 st5">
    r
  </text>
  <text transform="translate(679.5 45.2)" class="st9 st14 st5">
    g
  </text>
  <path class="st0" d="M563.3 48.3l30-15"/>
  <text transform="translate(614.6 122.2)" class="st9 st4 st12">
    XX
  </text>
  <path class="st13" d="M604.5 123.6h30v15h-30z"/>
  <text transform="translate(639.7 135.5)" class="st9 st14 st5">
    W
  </text>
  <text transform="translate(650.6 135.5)" class="st9 st14 st5">
    erneck
  </text>
  <path class="st0" d="M604.5 138.6l30-15"/>
  <text transform="translate(1181.1 481.2)" class="st9 st4 st12">
    XXX
  </text>
  <path class="st13" d="M1173.4 482.6h30v15h-30z"/>
  <text transform="translate(1208.7 494.5)" class="st9 st14 st5">
    Kienmayer
  </text>
  <path class="st0" d="M1173.4 497.6l30-15"/>
  <text transform="translate(571.7 58.1)" class="st9 st4 st12">
    XXX
  </text>
  <path class="st13" d="M564.1 59.5h30v15h-30z"/>
  <text transform="translate(599.3 71.4)" class="st9 st14 st5">
    Ferdinand
  </text>
  <path class="st0" d="M564.1 74.5l30-15"/>
  <text transform="translate(868.2 389.6)" class="st2 st4 st12">
    XXX
  </text>
  <path class="st15" d="M860.6 391h30v15h-30z"/>
  <text transform="translate(895.9 402.9)" class="st2 st14 st5">
    Bavarians
  </text>
  <path class="st0" d="M860.6 406l30-15"/>
  <text transform="translate(370.9 364.4)" class="st2 st4 st12">
    XXXX
  </text>
  <path class="st15" d="M365.7 365.8h30v15h-30z"/>
  <text transform="translate(401 377.7)" class="st2 st14 st5">
    Napoleon
  </text>
  <path class="st0" d="M365.7 380.8l30-15"/>
  <text transform="translate(525.2 135.6)" class="st2 st4 st12">
    XXX
  </text>
  <path class="st15" d="M517.6 137h30v15h-30z"/>
  <text transform="translate(552.9 148.9)" class="st2 st14 st5">
    Mu
  </text>
  <text transform="translate(571.4 148.9)" class="st2 st14 st5">
    r
  </text>
  <text transform="translate(576.5 148.9)" class="st2 st14 st5">
    at
  </text>
  <path class="st16" d="M517.6 152l30-15"/>
  <text transform="translate(325.3 334.6)" class="st2 st4 st12">
    XXX
  </text>
  <path class="st15" d="M317.7 336h30v15h-30z"/>
  <text transform="translate(326.3 348.3)" class="st2 st4 st17">
    VI
  </text>
  <text transform="translate(289.9 347.9)" class="st2 st14 st5">
    Ney
  </text>
  <path class="st0" d="M317.7 351l30-15"/>
  <text transform="translate(412.6 251.5)" class="st2 st4 st12">
    XXX
  </text>
  <path class="st15" d="M405 252.9h30v15h-30z"/>
  <text transform="translate(440.2 264.8)" class="st2 st14 st5">
    Lannes
  </text>
  <text transform="translate(415.9 265.2)" class="st2 st4 st17">
    V
  </text>
  <path class="st0" d="M405 267.9l30-15"/>
  <text transform="translate(611.6 149.8)" class="st2 st4 st12">
    XXX
  </text>
  <path class="st15" d="M604 151.2h30v15h-30z"/>
  <text transform="translate(612.6 163.5)" class="st2 st4 st17">
    IV
  </text>
  <text transform="translate(639.2 163.1)" class="st2 st14 st5">
    Soult
  </text>
  <path class="st0" d="M604 166.2l30-15"/>
  <text transform="translate(834.7 468.3)" class="st2 st4 st12">
    XXX
  </text>
  <path class="st15" d="M827.1 469.7h30v15h-30z"/>
  <text transform="translate(862.3 481.6)" class="st2 st14 st5">
    Davout
  </text>
  <text transform="translate(835 482.1)" class="st2 st4 st17">
    III
  </text>
  <path class="st0" d="M827.1 484.7l30-15"/>
  <text transform="translate(360.7 410.2)" class="st2 st4 st12">
    XXX
  </text>
  <path class="st15" d="M353.1 411.6h30v15h-30z"/>
  <text transform="translate(363.3 424)" class="st2 st4 st17">
    II
  </text>
  <text transform="translate(388.4 423.5)" class="st2 st14 st5">
    Marmont
  </text>
  <path class="st0" d="M353.1 426.6l30-15"/>
  <text transform="translate(911.2 554.4)" class="st2 st4 st12">
    XXX
  </text>
  <path class="st15" d="M903.6 555.8h30v15h-30z"/>
  <text transform="translate(916 568.1)" class="st2 st4 st17">
    I
  </text>
  <text transform="translate(938.8 567.7)" class="st2 st14 st5">
    Bernado
  </text>
  <text transform="translate(987.6 567.7)" class="st2 st14 st5">
    t
  </text>
  <text transform="translate(992.7 567.7)" class="st2 st14 st5">
    te
  </text>
  <path class="st0" d="M903.6 570.8l30-15"/>
  <text transform="translate(269 405.7)" class="st9 st4 st12">
    XXXX
  </text>
  <path class="st13" d="M263.9 407.1h30v15h-30z"/>
  <text transform="translate(300.1 419)" class="st9 st14 st5">
    Mack
  </text>
</svg>
