<svg id="Troop_Movements_by_Day_10_16_Revisions" xmlns="http://www.w3.org/2000/svg" viewBox="0 0 1440 910">
  <style>
    .st0{fill:none;stroke:#0072BB;stroke-width:3;stroke-linecap:round;stroke-linejoin:round;} .st1{fill:#0072BB;} .st2{fill:none;stroke:#0072BB;stroke-width:10;stroke-linecap:round;} .st3{font-family:&apos;DroidSans&apos;;} .st4{font-size:12px;} .st5{fill:none;stroke:#999999;stroke-width:10;stroke-linecap:round;} .st6{fill:#999999;} .st7{fill:none;stroke:#ED2939;stroke-width:3;stroke-linecap:round;stroke-linejoin:round;} .st8{fill:#ED2939;} .st9{fill:none;stroke:#ED2939;stroke-width:10;stroke-linecap:round;} .st10{opacity:0.5;fill:#FFFFFF;enable-background:new ;} .st11{fill:none;stroke:#999999;stroke-width:3;stroke-linecap:round;stroke-miterlimit:10;} .st12{font-size:9px;} .st13{fill:#FFFFFF;stroke:#ED2939;stroke-width:0.75;stroke-miterlimit:10;} .st14{font-family:&apos;DroidSans-Bold&apos;;} .st15{fill:none;} .st16{fill:#FFFFFF;stroke:#0072BB;stroke-width:0.75;stroke-miterlimit:10;} .st17{fill:none;stroke:#0072BB;stroke-width:0.75;stroke-miterlimit:10;} .st18{font-size:13.5px;}
  </style>
  <path class="st0" d="M706.1 63.3l4 5.5 4 5.4 3.6 3.7 3.3 2.9 17 12.4 8.6 9 7 11.6 12 5.6 6.9-1 8 .4 1 .6 7.4-1.6 2.3 7.2 4.2 17.8 10.7 13.2 8 17 2 14.1 9.1-2.5 8.4 5.1"/>
  <path class="st1" d="M844.3 196.6l-19-3.4 7.5-3.9.3-8.5z"/>
  <path class="st0" d="M570.7 398l1.4-.5 7.6 2.1 12.7 5.8 5.9 2.9 9.8 3.3 11.9 5.5 6.6 1.4 7.6-4.4h-1.8l4.3-.3 2.9.3 3.3.4 7.6 2.6-5.4-21.8-1.8-8h.7l-1.5-10.5-3.2-12.4-.7-3.2-.4-2.6-1.8-18.1 1.1-11.6-2.6-14.2"/>
  <path class="st1" d="M558.7 402.2l19.3 1-6.4-5.5 1.6-8.4z"/>
  <text transform="translate(439.1 369.6)" class="st1 st3 st4">
    Günzbu
  </text>
  <text transform="translate(480.9 369.6)" class="st1 st3 st4">
    r
  </text>
  <text transform="translate(485.6 369.6)" class="st1 st3 st4">
    g
  </text>
  <path class="st0" d="M460.8 312.1l-8-4.3-.4.4-4.3-3.7-3.7-2.1-8 3.9-3.6-7.2-8-10.9-14.1-1.4m37 50l3.3-4 4.7-8.3 5.1-12.4"/>
  <path class="st1" d="M439.7 346.6l17-9.2-8.4-1.4-2.9-7.9z"/>
  <path class="st0" d="M590.3 399.9l1.1.5 5.9 2.9 9.8 3.3 11.9 5.5 6.6 1.4 7.6-4.4h-1.8l4.3-.3 2.9.3 3.3.4 3.6 2.6-4.4-16.8-1.8-9h.7l-2.5-9.5-3.2-12.4-.7-3.2-.4-2.6-1.8-18.1 1.1-11.6-.6-14.2"/>
  <path class="st1" d="M578.7 394.6l13.3 14.1-.8-8.4 6.9-4.9z"/>
  <text transform="translate(660.1 411.2)" class="st6 st3 st4">
    Augsbu
  </text>
  <text transform="translate(700.2 411.2)" class="st6 st3 st4">
    r
  </text>
  <text transform="translate(704.9 411.2)" class="st6 st3 st4">
    g
  </text>
  <path class="st0" d="M752.1 233.2l-3.3 5.1-8 10.9-1.8 2.9-2.9 5.4-6.2 19.3-.7 4-1.1 6.5-.7 3.3-2.2 6.8-.7 1.5-1.5 1.8-8.3 15.3-8.3 10.5 8.3 9.4 16 14.9 8.4 10.7"/>
  <path class="st1" d="M747 371.5l-16.8-9.5 8.3-1.2 3.2-7.9z"/>
  <path class="st0" d="M760.9 203.7l4.2-2.8 12.4-4.3 15.6-.8 12-8.7"/>
  <path class="st1" d="M750.3 210.7l19-3.7-7.6-3.8-.5-8.5z"/>
  <text transform="translate(621.9 220.8)" class="st6 st3 st4">
    Donauwörth
  </text>
  <path class="st7" d="M776.8 982l-10.6-1.8-11.9-3.6-13.1-3.7-8.4-4.7-12.3 2.9h-11.6v-.3l-5.8-.8h-2.6l-3.2.4-11.6 2.5-11.7 3.7-3.6.3h-2.9l-5.8-1.4-4-.7h-11.6l-3.3-1.1-2.5-1.1-1.5-1.5-1.1-2.1-1.1-2.2-.3-2.2v-1.5l.3-2.1.8-2.2 1.1-2.2 1-2.2 1.5-1.8 3.3-3.3 1.1-.7 2.5-1.1 4.7-.3 2.2-.4 2.5-1.1 1.9-1.4 1.8-2.2.7-2.6.4-2.9-.8-3.2-8-11.3-.3.4-2.2-2.2-2.2-1.4-2.2-1.1-2.1-.4-1.8-.4-2.2.4-9.5 2.2-2.9.3h-1.8l-1.4-.3-1.5-.7-1.4-1.1-1.9-1.8-5-6.6-2.6-2.5-3.2-2.6-6.6-3.2-1.4-1.1-1.1-1.8-.7-1.8v-2.6l.7-7.6v-3.3l-.7-4-.6-1.9"/>
  <path class="st8" d="M592 866.2l15.3 11.8h-8.4l-4.2 7.4z"/>
  <text transform="translate(301.6 397.4)" class="st8 st3 st4">
    Ulm
  </text>
  <text transform="translate(269.1 859.7)" class="st6 st3 st4">
    Bregenz
  </text>
  <text transform="translate(439.1 369.6)" class="st8 st3 st4">
    Günzbu
  </text>
  <text transform="translate(480.9 369.6)" class="st8 st3 st4">
    r
  </text>
  <text transform="translate(485.6 369.6)" class="st8 st3 st4">
    g
  </text>
  <text transform="translate(439.1 369.6)" class="st8 st3 st4">
    Günzbu
  </text>
  <text transform="translate(480.9 369.6)" class="st8 st3 st4">
    r
  </text>
  <text transform="translate(485.6 369.6)" class="st8 st3 st4">
    g
  </text>
  <text transform="translate(439.1 369.6)" class="st8 st3 st4">
    Günzbu
  </text>
  <text transform="translate(480.9 369.6)" class="st8 st3 st4">
    r
  </text>
  <text transform="translate(485.6 369.6)" class="st8 st3 st4">
    g
  </text>
  <path class="st7" d="M374 376.8l-2 .3-22.1 5.8-16.7 4.7"/>
  <path class="st8" d="M386.5 374.9l-18.8-4.5 5.3 6.6-3.1 7.8z"/>
  <text transform="translate(439.1 369.6)" class="st8 st3 st4">
    Günzbu
  </text>
  <text transform="translate(480.9 369.6)" class="st8 st3 st4">
    r
  </text>
  <text transform="translate(485.6 369.6)" class="st8 st3 st4">
    g
  </text>
  <text transform="translate(439.1 369.6)" class="st8 st3 st4">
    Günzbu
  </text>
  <text transform="translate(480.9 369.6)" class="st8 st3 st4">
    r
  </text>
  <text transform="translate(485.6 369.6)" class="st8 st3 st4">
    g
  </text>
  <path class="st7" d="M419.7 373.2l-5.2 4.1-13.8 3.6-14.2 4-14.5 2.2-22.1 5.8-16.7 4.7"/>
  <path class="st8" d="M431.9 369.7l-19.3-1.3 6.3 5.6-1.7 8.3z"/>
  <path class="st7" d="M773.1 408.5l3.7 3.6 8 7 7.2 6.8 2.9 3.3 6.2 7.6 2.5 2.6 2.6 1.8 9.8 5.1 17 13 6 5.2"/>
  <path class="st8" d="M848.6 472.8l-18.3-6.2 8-2.7 1.5-8.4z"/>
  <text transform="translate(439.1 369.6)" class="st6 st3 st4">
    Günzbu
  </text>
  <text transform="translate(480.9 369.6)" class="st6 st3 st4">
    r
  </text>
  <text transform="translate(485.6 369.6)" class="st6 st3 st4">
    g
  </text>
  <text transform="translate(301.6 397.4)" class="st6 st3 st4">
    Ulm
  </text>
  <path class="st10" d="M1119.6 834.7h97V898h-97z"/>
  <path class="st11" d="M1210.3 847.3v25.5"/>
  <path class="st6" d="M1210.3 885.6l-7.3-18 7.3 4.3 7.4-4.3z"/>
  <text transform="translate(1134.7 874.2)" class="st8 st3 st12">
    XX
  </text>
  <path class="st13" d="M1124.6 875.7h30v15h-30z"/>
  <text transform="translate(1159.9 887.5)" class="st8 st14 st4">
    Hiller
  </text>
  <path class="st15" d="M1124.6 890.7l30-15"/>
  <text transform="translate(1132.2 846.3)" class="st8 st3 st12">
    XXX
  </text>
  <path class="st13" d="M1124.6 847.7h30v15h-30z"/>
  <text transform="translate(1159.9 859.6)" class="st8 st14 st4">
    Charles
  </text>
  <path class="st15" d="M1124.6 862.7l30-15"/>
  <text transform="translate(572.1 838.1)" class="st8 st3 st12">
    XX
  </text>
  <path class="st13" d="M562 839.5h30v15h-30z"/>
  <text transform="translate(597.3 851.4)" class="st8 st14 st4">
    Spangen
  </text>
  <path class="st15" d="M562 854.5l30-15"/>
  <text transform="translate(337 410.6)" class="st8 st3 st12">
    XX
  </text>
  <path class="st13" d="M326.9 412h30v15h-30z"/>
  <text transform="translate(362.2 423.9)" class="st8 st14 st4">
    Jellachich
  </text>
  <path class="st15" d="M326.9 427l30-15"/>
  <text transform="translate(284.5 871.6)" class="st8 st3 st12">
    XXX
  </text>
  <path class="st13" d="M276.9 873h30v15h-30z"/>
  <text transform="translate(313.2 884.9)" class="st8 st14 st4">
    John
  </text>
  <path class="st15" d="M276.9 888l30-15"/>
  <text transform="translate(513.5 361.5)" class="st8 st3 st12">
    XX
  </text>
  <path class="st13" d="M503.4 363h30v15h-30z"/>
  <text transform="translate(538.7 374.8)" class="st8 st14 st4">
    Auffenbe
  </text>
  <text transform="translate(592.1 374.8)" class="st8 st14 st4">
    r
  </text>
  <text transform="translate(597.2 374.8)" class="st8 st14 st4">
    g
  </text>
  <path class="st15" d="M503.4 378l30-15"/>
  <text transform="translate(311.6 350.2)" class="st8 st3 st12">
    XX
  </text>
  <path class="st13" d="M301.6 351.6h30v15h-30z"/>
  <text transform="translate(335.8 363.5)" class="st8 st14 st4">
    Schwarzenbe
  </text>
  <text transform="translate(411.6 363.5)" class="st8 st14 st4">
    r
  </text>
  <text transform="translate(416.7 363.5)" class="st8 st14 st4">
    g
  </text>
  <path class="st15" d="M301.6 366.6l30-15"/>
  <text transform="translate(466.1 340.6)" class="st8 st3 st12">
    XX
  </text>
  <path class="st13" d="M456.1 342h30v15h-30z"/>
  <text transform="translate(491.3 353.9)" class="st8 st14 st4">
    W
  </text>
  <text transform="translate(502.2 353.9)" class="st8 st14 st4">
    erneck
  </text>
  <path class="st15" d="M456.1 357l30-15"/>
  <text transform="translate(389.2 377.8)" class="st8 st3 st12">
    XX
  </text>
  <path class="st13" d="M379.2 379.2h30v15h-30z"/>
  <text transform="translate(414.4 391.1)" class="st8 st14 st4">
    Gyulai
  </text>
  <path class="st15" d="M379.2 394.2l30-15"/>
  <text transform="translate(854.1 470.9)" class="st8 st3 st12">
    XXX
  </text>
  <path class="st13" d="M846.5 472.3h30v15h-30z"/>
  <text transform="translate(881.7 484.2)" class="st8 st14 st4">
    Kienmayer
  </text>
  <path class="st15" d="M846.5 487.3l30-15"/>
  <text transform="translate(439.4 407.1)" class="st8 st3 st12">
    XX
  </text>
  <path class="st13" d="M429.3 408.5h30v15h-30z"/>
  <text transform="translate(464.6 420.4)" class="st8 st14 st4">
    Riesch
  </text>
  <path class="st15" d="M429.3 423.5l30-15"/>
  <text transform="translate(218.3 395.1)" class="st8 st3 st12">
    XXX
  </text>
  <path class="st13" d="M210.7 396.5h30v15h-30z"/>
  <text transform="translate(245.9 408.4)" class="st8 st14 st4">
    Ferdinand
  </text>
  <path class="st15" d="M210.7 411.5l30-15"/>
  <text transform="translate(864.4 173.3)" class="st1 st3 st12">
    XXX
  </text>
  <path class="st16" d="M856.8 174.7h30v15h-30z"/>
  <text transform="translate(892.1 186.6)" class="st1 st14 st4">
    Bavarians
  </text>
  <path class="st15" d="M856.8 189.7l30-15"/>
  <text transform="translate(626.4 235.1)" class="st1 st3 st12">
    XXXX
  </text>
  <path class="st16" d="M621.3 236.5h30v15h-30z"/>
  <text transform="translate(656.5 248.4)" class="st1 st14 st4">
    Napoleon
  </text>
  <path class="st15" d="M621.3 251.5l30-15"/>
  <text transform="translate(525.2 399.9)" class="st1 st3 st12">
    XXX
  </text>
  <path class="st16" d="M517.6 401.3h30v15h-30z"/>
  <text transform="translate(552.9 413.2)" class="st1 st14 st4">
    Mu
  </text>
  <text transform="translate(571.4 413.2)" class="st1 st14 st4">
    r
  </text>
  <text transform="translate(576.5 413.2)" class="st1 st14 st4">
    at
  </text>
  <path class="st17" d="M517.6 416.3l30-15"/>
  <text transform="translate(415.7 337.2)" class="st1 st3 st12">
    XXX
  </text>
  <path class="st16" d="M408 338.6h30v15h-30z"/>
  <text transform="translate(416.7 350.9)" class="st1 st3 st18">
    VI
  </text>
  <text transform="translate(380.3 350.5)" class="st1 st14 st4">
    Ney
  </text>
  <path class="st15" d="M408 353.6l30-15"/>
  <text transform="translate(556 422.1)" class="st1 st3 st12">
    XXX
  </text>
  <path class="st16" d="M548.3 423.5h30v15h-30z"/>
  <text transform="translate(583.6 435.4)" class="st1 st14 st4">
    Lannes
  </text>
  <text transform="translate(559.3 435.9)" class="st1 st3 st18">
    V
  </text>
  <path class="st15" d="M548.3 438.5l30-15"/>
  <text transform="translate(667.1 422)" class="st1 st3 st12">
    XXX
  </text>
  <path class="st16" d="M659.5 423.4h30v15h-30z"/>
  <text transform="translate(668.1 435.7)" class="st1 st3 st18">
    IV
  </text>
  <text transform="translate(694.7 435.3)" class="st1 st14 st4">
    Soult
  </text>
  <path class="st15" d="M659.5 438.4l30-15"/>
  <text transform="translate(758.1 379)" class="st1 st3 st12">
    XXX
  </text>
  <path class="st16" d="M750.4 380.4h30v15h-30z"/>
  <text transform="translate(785.7 392.3)" class="st1 st14 st4">
    Davout
  </text>
  <text transform="translate(758.3 392.7)" class="st1 st3 st18">
    III
  </text>
  <path class="st15" d="M750.4 395.4l30-15"/>
  <text transform="translate(727.2 214.4)" class="st1 st3 st12">
    XXX
  </text>
  <path class="st16" d="M719.5 215.8h30v15h-30z"/>
  <text transform="translate(729.7 228.1)" class="st1 st3 st18">
    II
  </text>
  <text transform="translate(754.8 227.7)" class="st1 st14 st4">
    Marmont
  </text>
  <path class="st15" d="M719.5 230.8l30-15"/>
  <text transform="translate(856.2 200.4)" class="st1 st3 st12">
    XXX
  </text>
  <path class="st16" d="M848.6 201.8h30v15h-30z"/>
  <text transform="translate(861 214.1)" class="st1 st3 st18">
    I
  </text>
  <text transform="translate(883.8 213.7)" class="st1 st14 st4">
    Bernado
  </text>
  <text transform="translate(932.6 213.7)" class="st1 st14 st4">
    t
  </text>
  <text transform="translate(937.7 213.7)" class="st1 st14 st4">
    te
  </text>
  <path class="st15" d="M848.6 216.8l30-15"/>
</svg>
