<svg id="Troop_Movements_by_Day_10_16_Revisions" xmlns="http://www.w3.org/2000/svg" viewBox="0 0 1440 910">
  <style>
    .st0{fill:#0072BB;} .st1{fill:none;stroke:#0072BB;stroke-width:10;stroke-linecap:round;} .st2{font-family:&apos;DroidSans&apos;;} .st3{font-size:12px;} .st4{fill:none;stroke:#0072BB;stroke-width:3;stroke-linecap:round;stroke-linejoin:round;} .st5{fill:none;stroke:#999999;stroke-width:10;stroke-linecap:round;} .st6{fill:#999999;} .st7{fill:none;stroke:#ED2939;stroke-width:3;stroke-linecap:round;stroke-linejoin:round;} .st8{fill:#ED2939;} .st9{opacity:0.5;fill:#FFFFFF;enable-background:new ;} .st10{fill:none;stroke:#999999;stroke-width:3;stroke-linecap:round;stroke-miterlimit:10;} .st11{font-size:9px;} .st12{fill:#FFFFFF;stroke:#ED2939;stroke-width:0.75;stroke-miterlimit:10;} .st13{font-family:&apos;DroidSans-Bold&apos;;} .st14{fill:none;} .st15{fill:#FFFFFF;stroke:#0072BB;stroke-width:0.75;stroke-miterlimit:10;} .st16{fill:none;stroke:#0072BB;stroke-width:0.75;stroke-miterlimit:10;} .st17{font-size:13.5px;}
  </style>
  <path class="st0" d="M710.1 66.8l-16.5-10.1 8.4-.9 3.4-7.8z"/>
  <text transform="translate(621.9 220.8)" class="st0 st2 st3">
    Donauwörth
  </text>
  <path class="st4" d="M611.6 218.2l-6.2-6.3-9.9-13.2-11.1-11.5-15.1-5.7-8.7-7.4-17.2-3.2"/>
  <path class="st0" d="M617.9 229.2l-3.1-19.1-4 7.4-8.5.2z"/>
  <path class="st4" d="M506.9 299.3l-16 2.5h-10.1"/>
  <path class="st0" d="M469.1 306.9l14.1-13.3-1.3 8.4 6.5 5.3z"/>
  <text transform="translate(621.9 220.8)" class="st0 st2 st3">
    Donauwörth
  </text>
  <path class="st4" d="M608.2 220.4l-6.8-5.5-10.9-14.2-10.1-10.5-13.1-4.7-9.7-8.4-17.2-3.2-19.9-14.9-14.2-6.2"/>
  <path class="st0" d="M614.9 231.2l-3.9-19-3.7 7.6-8.4.5z"/>
  <text transform="translate(621.9 220.8)" class="st6 st2 st3">
    Donauwörth
  </text>
  <path class="st4" d="M603.2 224.2l-5.8-6.3-9.9-13.2-10.1-10.5-13.1-4.7-9.7-8.4-16.2-3.2-20.9-16.9-14.2-6.2-12.8-.7-18.8 2.9-17.8-8.1-27.5-6.9-15-1.4"/>
  <path class="st0" d="M611.9 233.5l-6.8-18.1-2.5 8.1-8.3 1.8z"/>
  <path class="st4" d="M603.8 224.7l-6.4-6.8-9.9-13.2-10.1-10.5-13.1-4.7-9.7-8.4-16.2-3.2-20.9-16.9-14.2-6.2-12.8-.7-18.8 2.9-17.8-8.1-27.5-6.9-15-1.4"/>
  <path class="st0" d="M604.8 220.1l7.1 13.4-12.8-8.1z"/>
  <text transform="translate(763.5 211.4)" class="st6 st2 st3">
    Neubu
  </text>
  <text transform="translate(799.8 211.4)" class="st6 st2 st3">
    r
  </text>
  <text transform="translate(804.5 211.4)" class="st6 st2 st3">
    g
  </text>
  <path class="st4" d="M758.3 148.7l-1.3 44.2"/>
  <path class="st0" d="M755 205.4l-4.6-18.8 6.6 5.3 7.9-3.1z"/>
  <path class="st4" d="M576 51l-5.4 4.7-6.9 5.1-3.3 12.3L547 91.7l7.2 3.2 9.5 5.8 2.2 2.2 4.7 6.9 1.8 2.9 1.8 4 2.2 4.7 1.4 2.6 1.8 2.1 9.1 9.1 5.8.4 8.7 2.5-.3.7 5.4 2.9 2.2 1.1 3.6 1.1 5.5 1.1 4 1.8 4.7 2.2 4.7 2.2 6.9 3.2-1.8-7.6 2.9-9.4 3.6-9.1.4.4 1.1-1.1 1.4-.7 2.6-.8 5.1-1.4"/>
  <path class="st0" d="M667.4 121.1l-15.2 12 2.1-8.2-6.1-5.8z"/>
  <path class="st4" d="M696.6 59.3l4 5.5 4 5.4 2.6 3.7 3.3 2.9 16 13.4 1.2.8"/>
  <path class="st0" d="M738.2 98.2l-18.9-4.1 7.6-3.7.7-8.4z"/>
  <path class="st4" d="M413.4 135.6l15 1.4 28.5 7.9 15.8 7.1 18.8-2.9 2.2.2"/>
  <path class="st0" d="M506.3 150.8l-18.6 5.2 5.1-6.8-3.4-7.7z"/>
  <path class="st7" d="M283.2 527.1l-2.3 4.8-7.3 12.4-5.1 11.6-3.6 5.8"/>
  <path class="st8" d="M287.8 515.2l-13.4 14 8.4-1.3 5.2 6.7z"/>
  <text transform="translate(439.1 369.6)" class="st8 st2 st3">
    Günzbu
  </text>
  <text transform="translate(480.9 369.6)" class="st8 st2 st3">
    r
  </text>
  <text transform="translate(485.6 369.6)" class="st8 st2 st3">
    g
  </text>
  <text transform="translate(439.1 369.6)" class="st8 st2 st3">
    Günzbu
  </text>
  <text transform="translate(480.9 369.6)" class="st8 st2 st3">
    r
  </text>
  <text transform="translate(485.6 369.6)" class="st8 st2 st3">
    g
  </text>
  <text transform="translate(301.6 397.4)" class="st8 st2 st3">
    Ulm
  </text>
  <text transform="translate(439.1 369.6)" class="st8 st2 st3">
    Günzbu
  </text>
  <text transform="translate(480.9 369.6)" class="st8 st2 st3">
    r
  </text>
  <text transform="translate(485.6 369.6)" class="st8 st2 st3">
    g
  </text>
  <text transform="translate(301.6 397.4)" class="st8 st2 st3">
    Ulm
  </text>
  <text transform="translate(301.6 397.4)" class="st6 st2 st3">
    Ulm
  </text>
  <path class="st7" d="M754.3 210.7l-1.5 12.4v-1.5l-1.8 5.8-2.9 5.8-3.3 5.1-8 10.9-1.8 2.9-2.9 5.4-6.2 19.3-.7 4-1.1 6.5-.7 3.3-2.2 6.8-.7 1.5-1.5 1.8-8.3 15.3-8.3 10.5 8.3 9.4 16 14.9 8.4 10.7"/>
  <path class="st8" d="M743 371.5l-16.8-9.5 8.3-1.2 3.2-7.9z"/>
  <text transform="translate(439.1 369.6)" class="st6 st2 st3">
    Günzbu
  </text>
  <text transform="translate(480.9 369.6)" class="st6 st2 st3">
    r
  </text>
  <text transform="translate(485.6 369.6)" class="st6 st2 st3">
    g
  </text>
  <path class="st7" d="M397.1 604.9l-.8-9.4-2.5-9.9.3 2.6-1-5.1-.4-4.7-1.5-4.4.8-7.6-2.6-5.1-4.7-6.9-2.9-5-.4-5.1.8-.4-4-16-.8-9-2.9-11.3 1.1 2.9-1.8-7.6-1.1-9.8-2.5-9.4-.7-3.3-1.8-3.6-2.6-4-4.3-10.9-3.3-16-9.1-15.2-6.2-10.6-5.8-6.9-.6-3.1"/>
  <path class="st8" d="M333.2 397.6l10.8 16.1-8-2.7-6.3 5.7z"/>
  <path class="st9" d="M1119.6 834.7h97V898h-97z"/>
  <path class="st10" d="M1210.3 847.3v25.5"/>
  <path class="st6" d="M1210.3 885.6l-7.3-18 7.3 4.3 7.4-4.3z"/>
  <text transform="translate(1134.7 874.2)" class="st8 st2 st11">
    XX
  </text>
  <path class="st12" d="M1124.6 875.7h30v15h-30z"/>
  <text transform="translate(1159.9 887.5)" class="st8 st13 st3">
    Hiller
  </text>
  <path class="st14" d="M1124.6 890.7l30-15"/>
  <text transform="translate(1132.2 846.3)" class="st8 st2 st11">
    XXX
  </text>
  <path class="st12" d="M1124.6 847.7h30v15h-30z"/>
  <text transform="translate(1159.9 859.6)" class="st8 st13 st3">
    Charles
  </text>
  <path class="st14" d="M1124.6 862.7l30-15"/>
  <text transform="translate(636 881.9)" class="st8 st2 st11">
    XX
  </text>
  <path class="st12" d="M625.9 883.3h30v15h-30z"/>
  <text transform="translate(661.2 895.2)" class="st8 st13 st3">
    Spangen
  </text>
  <path class="st14" d="M625.9 898.3l30-15"/>
  <text transform="translate(270 422.6)" class="st8 st2 st11">
    XXXX
  </text>
  <path class="st12" d="M264.8 424h30v15h-30z"/>
  <text transform="translate(301.1 435.9)" class="st8 st13 st3">
    Mack
  </text>
  <text transform="translate(286.1 495.3)" class="st8 st2 st11">
    XX
  </text>
  <path class="st12" d="M276 496.7h30v15h-30z"/>
  <text transform="translate(311.2 508.6)" class="st8 st13 st3">
    Jellachich
  </text>
  <path class="st14" d="M276 511.7l30-15"/>
  <text transform="translate(281.5 851)" class="st8 st2 st11">
    XXX
  </text>
  <path class="st12" d="M273.9 852.4h30v15h-30z"/>
  <text transform="translate(310.1 864.3)" class="st8 st13 st3">
    John
  </text>
  <path class="st14" d="M273.9 867.4l30-15"/>
  <text transform="translate(573.1 309.6)" class="st8 st2 st11">
    XX
  </text>
  <path class="st12" d="M563 311h30v15h-30z"/>
  <text transform="translate(598.3 322.9)" class="st8 st13 st3">
    Auffenbe
  </text>
  <text transform="translate(651.7 322.9)" class="st8 st13 st3">
    r
  </text>
  <text transform="translate(656.8 322.9)" class="st8 st13 st3">
    g
  </text>
  <path class="st14" d="M563 326l30-15"/>
  <text transform="translate(464.4 429.9)" class="st8 st2 st11">
    XX
  </text>
  <path class="st12" d="M454.3 431.3h30v15h-30z"/>
  <text transform="translate(489.6 443.2)" class="st8 st13 st3">
    W
  </text>
  <text transform="translate(500.5 443.2)" class="st8 st13 st3">
    erneck
  </text>
  <path class="st14" d="M454.3 446.3l30-15"/>
  <text transform="translate(461.4 378.7)" class="st8 st2 st11">
    XX
  </text>
  <path class="st12" d="M451.3 380.1h30v15h-30z"/>
  <text transform="translate(486.6 392)" class="st8 st13 st3">
    Gyulai
  </text>
  <path class="st14" d="M451.3 395.1l30-15"/>
  <text transform="translate(747.3 370.9)" class="st8 st2 st11">
    XXX
  </text>
  <path class="st12" d="M739.7 372.3h30v15h-30z"/>
  <text transform="translate(775 384.2)" class="st8 st13 st3">
    Kienmayer
  </text>
  <path class="st14" d="M739.7 387.3l30-15"/>
  <text transform="translate(444.4 406)" class="st8 st2 st11">
    XX
  </text>
  <path class="st12" d="M434.3 407.5h30v15h-30z"/>
  <text transform="translate(469.6 419.3)" class="st8 st13 st3">
    Riesch
  </text>
  <path class="st14" d="M434.3 422.5l30-15"/>
  <text transform="translate(393.5 624.5)" class="st8 st2 st11">
    XXX
  </text>
  <path class="st12" d="M385.9 625.9h30v15h-30z"/>
  <text transform="translate(421.2 637.8)" class="st8 st13 st3">
    Ferdinand
  </text>
  <path class="st14" d="M385.9 640.9l30-15"/>
  <text transform="translate(604 49.5)" class="st0 st2 st11">
    XXX
  </text>
  <path class="st15" d="M596.4 50.9h30v15h-30z"/>
  <text transform="translate(631.7 62.8)" class="st0 st13 st3">
    Bavarians
  </text>
  <path class="st14" d="M596.4 65.9l30-15"/>
  <text transform="translate(517.3 138.1)" class="st0 st2 st11">
    XXXX
  </text>
  <path class="st15" d="M512.2 139.5h30v15h-30z"/>
  <text transform="translate(547.4 151.4)" class="st0 st13 st3">
    Napoleon
  </text>
  <path class="st14" d="M512.2 154.5l30-15"/>
  <text transform="translate(630.6 189.9)" class="st0 st2 st11">
    XXX
  </text>
  <path class="st15" d="M623 191.3h30v15h-30z"/>
  <text transform="translate(658.2 203.2)" class="st0 st13 st3">
    Mu
  </text>
  <text transform="translate(676.7 203.2)" class="st0 st13 st3">
    r
  </text>
  <text transform="translate(681.8 203.2)" class="st0 st13 st3">
    at
  </text>
  <path class="st16" d="M623 206.3l30-15"/>
  <text transform="translate(512.8 278)" class="st0 st2 st11">
    XXX
  </text>
  <path class="st15" d="M505.2 279.4h30v15h-30z"/>
  <text transform="translate(513.8 291.8)" class="st0 st2 st17">
    VI
  </text>
  <text transform="translate(477.4 291.3)" class="st0 st13 st3">
    Ney
  </text>
  <path class="st14" d="M505.2 294.4l30-15"/>
  <text transform="translate(632.7 229.2)" class="st0 st2 st11">
    XXX
  </text>
  <path class="st15" d="M625.1 230.6h30v15h-30z"/>
  <text transform="translate(660.3 242.5)" class="st0 st13 st3">
    Lannes
  </text>
  <text transform="translate(636 243)" class="st0 st2 st17">
    V
  </text>
  <path class="st14" d="M625.1 245.6l30-15"/>
  <text transform="translate(632.7 254.8)" class="st0 st2 st11">
    XXX
  </text>
  <path class="st15" d="M625.1 256.2h30v15h-30z"/>
  <text transform="translate(633.7 268.5)" class="st0 st2 st17">
    IV
  </text>
  <text transform="translate(660.3 268.1)" class="st0 st13 st3">
    Soult
  </text>
  <path class="st14" d="M625.1 271.2l30-15"/>
  <text transform="translate(769.5 177)" class="st0 st2 st11">
    XXX
  </text>
  <path class="st15" d="M761.9 178.4h30v15h-30z"/>
  <text transform="translate(797.2 190.3)" class="st0 st13 st3">
    Davout
  </text>
  <text transform="translate(769.8 190.7)" class="st0 st2 st17">
    III
  </text>
  <path class="st14" d="M761.9 193.4l30-15"/>
  <text transform="translate(677.9 108.5)" class="st0 st2 st11">
    XXX
  </text>
  <path class="st15" d="M670.3 109.9h30v15h-30z"/>
  <text transform="translate(680.5 122.2)" class="st0 st2 st17">
    II
  </text>
  <text transform="translate(705.6 121.8)" class="st0 st13 st3">
    Marmont
  </text>
  <path class="st14" d="M670.3 124.9l30-15"/>
  <text transform="translate(751.1 93.1)" class="st0 st2 st11">
    XXX
  </text>
  <path class="st15" d="M743.4 94.5h30v15h-30z"/>
  <text transform="translate(755.9 106.8)" class="st0 st2 st17">
    I
  </text>
  <text transform="translate(778.7 106.4)" class="st0 st13 st3">
    Bernado
  </text>
  <text transform="translate(827.5 106.4)" class="st0 st13 st3">
    t
  </text>
  <text transform="translate(832.6 106.4)" class="st0 st13 st3">
    te
  </text>
  <path class="st14" d="M743.4 109.5l30-15"/>
</svg>
