<?xml version="1.0" encoding="utf-8"?>
<!-- Generator: Adobe Illustrator 21.1.0, SVG Export Plug-In . SVG Version: 6.00 Build 0)  -->
<svg version="1.1" id="Troop_Movements_by_Day_10_16_Revisions"
	 xmlns="http://www.w3.org/2000/svg" xmlns:xlink="http://www.w3.org/1999/xlink" x="0px" y="0px" viewBox="0 0 1440 910"
	 style="enable-background:new 0 0 1440 910;" xml:space="preserve">
<style type="text/css">
	.st0{fill:none;}
	.st1{fill:none;stroke:#ED2939;stroke-width:3;stroke-linecap:round;stroke-linejoin:round;}
	.st2{fill:#ED2939;}
	.st3{opacity:0.5;fill:#FFFFFF;enable-background:new    ;}
	.st4{fill:#BF7C00;}
	.st5{font-family:'DroidSans';}
	.st6{font-size:12px;}
	.st7{fill:none;stroke:#999999;stroke-width:3;stroke-linecap:round;stroke-miterlimit:10;}
	.st8{fill:#999999;}
	.st9{font-size:9px;}
	.st10{fill:#FFFFFF;stroke:#ED2939;stroke-width:0.75;stroke-miterlimit:10;}
	.st11{font-family:'DroidSans-Bold';}
	.st12{fill:#FFFFFF;stroke:#BF7C00;stroke-width:0.75;stroke-miterlimit:10;}
	.st13{fill:#0072BB;}
	.st14{fill:#FFFFFF;stroke:#0072BB;stroke-width:0.75;stroke-miterlimit:10;}
	.st15{fill:none;stroke:#0072BB;stroke-width:0.75;stroke-miterlimit:10;}
	.st16{font-size:13.5px;}
</style>
<circle class="st0" cx="1194.8" cy="418.7" r="4.5"/>
<path class="st1" d="M841.8,414.6c11-2.3,13.2,1.2,19.7,3.5"/>
<polygon class="st2" points="882.3,422.1 850.6,427.9 860,417.4 855.6,404 "/>
<rect x="1184.6" y="33.7" class="st3" width="117" height="97.3"/>
<text transform="matrix(1 0 0 1 1191.2 110.6)" class="st4 st5 st6">Approaching</text>
<line class="st7" x1="1191.2" y1="119.4" x2="1216.8" y2="119.4"/>
<polygon class="st8" points="1229.5,119.4 1211.6,126.7 1215.8,119.4 1211.6,112.1 "/>
<circle class="st0" cx="509.4" cy="387.8" r="4.5"/>
<text transform="matrix(1 0 0 1 539.8 560.5)" class="st2 st5 st9">XXX</text>
<rect x="532.2" y="561.9" class="st10" width="30" height="15"/>
<text transform="matrix(1 0 0 1 568.4 573.8)" class="st2 st11 st6">John</text>
<line class="st0" x1="532.2" y1="576.9" x2="562.2" y2="561.9"/>
<text transform="matrix(1 0 0 1 1205.5 392.8)" class="st2 st5 st9">XXXX</text>
<rect x="1200.4" y="394.3" class="st10" width="30" height="15"/>
<text transform="matrix(1 0 0 1 1235.6 406.1)" class="st2 st11 st6">Auerspe</text>
<text transform="matrix(1 0 0 1 1283.1 406.1)" class="st2 st11 st6">r</text>
<text transform="matrix(1 0 0 1 1288.2 406.1)" class="st2 st11 st6">g</text>
<line class="st0" x1="1200.4" y1="409.3" x2="1230.4" y2="394.3"/>
<text transform="matrix(1 0 0 1 899.6 404.7)" class="st2 st5 st9">XX</text>
<rect x="889.5" y="406.1" class="st10" width="30" height="15"/>
<text transform="matrix(1 0 0 1 924.7 418)" class="st2 st11 st6">Kienmayer</text>
<line class="st0" x1="889.5" y1="421.1" x2="919.5" y2="406.1"/>
<text transform="matrix(1 0 0 1 900.6 431.2)" class="st2 st5 st9">XXXX</text>
<rect x="895.4" y="432.6" class="st10" width="30" height="15"/>
<text transform="matrix(1 0 0 1 930.7 444.5)" class="st2 st11 st6">Merveldt</text>
<line class="st0" x1="895.4" y1="447.6" x2="925.4" y2="432.6"/>
<text transform="matrix(1 0 0 1 1196.6 46.2)" class="st4 st5 st9">XXXX</text>
<rect x="1191.4" y="47.6" class="st12" width="30" height="15"/>
<text transform="matrix(1 0 0 1 1226.7 59.5)" class="st4 st11 st6">Bennigsen</text>
<line class="st0" x1="1191.4" y1="62.6" x2="1221.4" y2="47.6"/>
<text transform="matrix(1 0 0 1 672 830)" class="st2 st5 st9">XXX</text>
<rect x="664.4" y="831.4" class="st10" width="30" height="15"/>
<text transform="matrix(1 0 0 1 699.6 843.3)" class="st2 st11 st6">Charles</text>
<line class="st0" x1="664.4" y1="846.4" x2="694.4" y2="831.4"/>
<text transform="matrix(1 0 0 1 1196.6 76.2)" class="st4 st5 st9">XXXX</text>
<rect x="1191.4" y="77.6" class="st12" width="30" height="15"/>
<text transform="matrix(1 0 0 1 1226.7 89.5)" class="st4 st11 st6">Buxhöwden</text>
<line class="st0" x1="1191.4" y1="92.6" x2="1221.4" y2="77.6"/>
<text transform="matrix(1 0 0 1 900.6 457.2)" class="st4 st5 st9">XXXX</text>
<rect x="895.4" y="458.6" class="st12" width="30" height="15"/>
<text transform="matrix(1 0 0 1 930.7 470.5)" class="st4 st11 st6">Kutu</text>
<text transform="matrix(1 0 0 1 958.3 470.5)" class="st4 st11 st6">z</text>
<text transform="matrix(1 0 0 1 963.7 470.5)" class="st4 st11 st6">ov</text>
<line class="st0" x1="895.4" y1="473.6" x2="925.4" y2="458.6"/>
<text transform="matrix(1 0 0 1 607.1 457.2)" class="st13 st5 st9">XXXX</text>
<rect x="601.9" y="458.6" class="st14" width="30" height="15"/>
<text transform="matrix(1 0 0 1 637.2 470.5)" class="st13 st11 st6">Napoleon</text>
<line class="st0" x1="601.9" y1="473.6" x2="631.9" y2="458.6"/>
<text transform="matrix(1 0 0 1 760.6 414.1)" class="st13 st5 st9">XXX</text>
<rect x="753" y="415.5" class="st14" width="30" height="15"/>
<text transform="matrix(1 0 0 1 788.3 427.4)" class="st13 st11 st6">Mu</text>
<text transform="matrix(1 0 0 1 806.8 427.4)" class="st13 st11 st6">r</text>
<text transform="matrix(1 0 0 1 811.9 427.4)" class="st13 st11 st6">at</text>
<line class="st15" x1="753" y1="430.5" x2="783" y2="415.5"/>
<text transform="matrix(1 0 0 1 285.9 440.6)" class="st13 st5 st9">XXXX</text>
<rect x="280.7" y="442" class="st14" width="30" height="15"/>
<text transform="matrix(1 0 0 1 287 454.3)" class="st13 st5 st16">VII</text>
<text transform="matrix(1 0 0 1 220.3 453.9)" class="st13 st11 st6">Augereau</text>
<line class="st0" x1="280.7" y1="457" x2="310.7" y2="442"/>
<text transform="matrix(1 0 0 1 515.3 402.2)" class="st13 st5 st9">XXX</text>
<rect x="507.7" y="403.7" class="st14" width="30" height="15"/>
<text transform="matrix(1 0 0 1 516.3 416)" class="st13 st5 st16">VI</text>
<text transform="matrix(1 0 0 1 479.9 415.5)" class="st13 st11 st6">Ney</text>
<line class="st0" x1="507.7" y1="418.7" x2="537.7" y2="403.7"/>
<text transform="matrix(1 0 0 1 740.9 356.9)" class="st13 st5 st9">XXX</text>
<rect x="733.3" y="358.4" class="st14" width="30" height="15"/>
<text transform="matrix(1 0 0 1 768.5 370.2)" class="st13 st11 st6">Lannes</text>
<text transform="matrix(1 0 0 1 744.2 370.7)" class="st13 st5 st16">V</text>
<line class="st0" x1="733.3" y1="373.4" x2="763.3" y2="358.4"/>
<text transform="matrix(1 0 0 1 691.6 422.6)" class="st13 st5 st9">XXX</text>
<rect x="684" y="424" class="st14" width="30" height="15"/>
<text transform="matrix(1 0 0 1 692.6 436.3)" class="st13 st5 st16">IV</text>
<text transform="matrix(1 0 0 1 719.2 435.9)" class="st13 st11 st6">Soult</text>
<line class="st0" x1="684" y1="439" x2="714" y2="424"/>
<text transform="matrix(1 0 0 1 747.3 389.1)" class="st13 st5 st9">XXX</text>
<rect x="739.7" y="390.5" class="st14" width="30" height="15"/>
<text transform="matrix(1 0 0 1 774.9 402.4)" class="st13 st11 st6">Davout</text>
<text transform="matrix(1 0 0 1 747.6 402.8)" class="st13 st5 st16">III</text>
<line class="st0" x1="739.7" y1="405.5" x2="769.7" y2="390.5"/>
<text transform="matrix(1 0 0 1 666.1 401.5)" class="st13 st5 st9">XXX</text>
<rect x="658.5" y="402.9" class="st14" width="30" height="15"/>
<text transform="matrix(1 0 0 1 668.6 415.2)" class="st13 st5 st16">II</text>
<text transform="matrix(1 0 0 1 693.7 414.8)" class="st13 st11 st6">Marmont</text>
<line class="st0" x1="658.5" y1="417.9" x2="688.5" y2="402.9"/>
<text transform="matrix(1 0 0 1 731.4 444.4)" class="st13 st5 st9">XXX</text>
<rect x="723.7" y="445.8" class="st14" width="30" height="15"/>
<text transform="matrix(1 0 0 1 736.2 458.2)" class="st13 st5 st16">I</text>
<text transform="matrix(1 0 0 1 759 457.7)" class="st13 st11 st6">Bernado</text>
<text transform="matrix(1 0 0 1 807.8 457.7)" class="st13 st11 st6">t</text>
<text transform="matrix(1 0 0 1 812.9 457.7)" class="st13 st11 st6">te</text>
<line class="st0" x1="723.7" y1="460.8" x2="753.7" y2="445.8"/>
<text transform="matrix(1 0 0 1 491 524.8)" class="st2 st5 st9">XX</text>
<rect x="480.9" y="526.2" class="st10" width="30" height="15"/>
<text transform="matrix(1 0 0 1 516.2 538.1)" class="st2 st11 st6">Jellachich</text>
<line class="st0" x1="480.9" y1="541.2" x2="510.9" y2="526.2"/>
</svg>
