<?xml version="1.0" encoding="utf-8"?>
<!-- Generator: Adobe Illustrator 21.1.0, SVG Export Plug-In . SVG Version: 6.00 Build 0)  -->
<svg version="1.1" id="Troop_Movements_by_Day_10_16_Revisions"
	 xmlns="http://www.w3.org/2000/svg" xmlns:xlink="http://www.w3.org/1999/xlink" x="0px" y="0px" viewBox="0 0 1440 910"
	 style="enable-background:new 0 0 1440 910;" xml:space="preserve">
<style type="text/css">
	.st0{opacity:0.5;fill:#FFFFFF;enable-background:new    ;}
	.st1{fill:#BF7C00;}
	.st2{font-family:'DroidSans';}
	.st3{font-size:12px;}
	.st4{fill:none;stroke:#999999;stroke-width:3;stroke-linecap:round;stroke-miterlimit:10;}
	.st5{fill:#999999;}
	.st6{fill:#ED2939;}
	.st7{font-size:9px;}
	.st8{fill:#FFFFFF;stroke:#ED2939;stroke-width:0.75;stroke-miterlimit:10;}
	.st9{font-family:'DroidSans-Bold';}
	.st10{fill:none;}
	.st11{fill:#FFFFFF;stroke:#BF7C00;stroke-width:0.75;stroke-miterlimit:10;}
	.st12{fill:#0072BB;}
	.st13{fill:#FFFFFF;stroke:#0072BB;stroke-width:0.75;stroke-miterlimit:10;}
	.st14{fill:none;stroke:#0072BB;stroke-width:0.75;stroke-miterlimit:10;}
	.st15{font-size:13.5px;}
</style>
<rect x="1184.6" y="33.7" class="st0" width="117" height="97.3"/>
<text transform="matrix(1 0 0 1 1191.2 110.6)" class="st1 st2 st3">Approaching</text>
<line class="st4" x1="1191.2" y1="119.4" x2="1216.8" y2="119.4"/>
<polygon class="st5" points="1229.5,119.4 1211.6,126.7 1215.8,119.4 1211.6,112.1 "/>
<text transform="matrix(1 0 0 1 467.1 560.3)" class="st6 st2 st7">XX</text>
<rect x="457" y="561.7" class="st8" width="30" height="15"/>
<text transform="matrix(1 0 0 1 492.2 573.6)" class="st6 st9 st3">Jellachich</text>
<line class="st10" x1="457" y1="576.7" x2="487" y2="561.7"/>
<text transform="matrix(1 0 0 1 661.7 604.8)" class="st6 st2 st7">XXX</text>
<rect x="654.1" y="606.3" class="st8" width="30" height="15"/>
<text transform="matrix(1 0 0 1 690.3 618.1)" class="st6 st9 st3">John</text>
<line class="st10" x1="654.1" y1="621.3" x2="684.1" y2="606.3"/>
<text transform="matrix(1 0 0 1 1205.5 392.8)" class="st6 st2 st7">XXXX</text>
<rect x="1200.4" y="394.3" class="st8" width="30" height="15"/>
<text transform="matrix(1 0 0 1 1235.6 406.1)" class="st6 st9 st3">Auerspe</text>
<text transform="matrix(1 0 0 1 1283.1 406.1)" class="st6 st9 st3">r</text>
<text transform="matrix(1 0 0 1 1288.2 406.1)" class="st6 st9 st3">g</text>
<line class="st10" x1="1200.4" y1="409.3" x2="1230.4" y2="394.3"/>
<text transform="matrix(1 0 0 1 1123.6 443.8)" class="st6 st2 st7">XX</text>
<rect x="1113.5" y="445.2" class="st8" width="30" height="15"/>
<text transform="matrix(1 0 0 1 1148.8 457.1)" class="st6 st9 st3">Kienmayer</text>
<line class="st10" x1="1113.5" y1="460.2" x2="1143.5" y2="445.2"/>
<text transform="matrix(1 0 0 1 1053.5 480.1)" class="st6 st2 st7">XXXX</text>
<rect x="1048.3" y="481.5" class="st8" width="30" height="15"/>
<text transform="matrix(1 0 0 1 1083.6 493.4)" class="st6 st9 st3">Merveldt</text>
<line class="st10" x1="1048.3" y1="496.5" x2="1078.3" y2="481.5"/>
<text transform="matrix(1 0 0 1 1196.6 46.2)" class="st1 st2 st7">XXXX</text>
<rect x="1191.4" y="47.6" class="st11" width="30" height="15"/>
<text transform="matrix(1 0 0 1 1226.7 59.5)" class="st1 st9 st3">Bennigsen</text>
<line class="st10" x1="1191.4" y1="62.6" x2="1221.4" y2="47.6"/>
<text transform="matrix(1 0 0 1 1058.2 741.1)" class="st6 st2 st7">XXX</text>
<rect x="1050.6" y="742.5" class="st8" width="30" height="15"/>
<text transform="matrix(1 0 0 1 1085.8 754.4)" class="st6 st9 st3">Charles</text>
<line class="st10" x1="1050.6" y1="757.5" x2="1080.6" y2="742.5"/>
<text transform="matrix(1 0 0 1 1196.6 76.2)" class="st1 st2 st7">XXXX</text>
<rect x="1191.4" y="77.6" class="st11" width="30" height="15"/>
<text transform="matrix(1 0 0 1 1226.7 89.5)" class="st1 st9 st3">Buxhöwden</text>
<line class="st10" x1="1191.4" y1="92.6" x2="1221.4" y2="77.6"/>
<text transform="matrix(1 0 0 1 1112.7 395.7)" class="st1 st2 st7">XXXX</text>
<rect x="1107.5" y="397.1" class="st11" width="30" height="15"/>
<text transform="matrix(1 0 0 1 1142.8 409)" class="st1 st9 st3">Kutu</text>
<text transform="matrix(1 0 0 1 1170.4 409)" class="st1 st9 st3">z</text>
<text transform="matrix(1 0 0 1 1175.8 409)" class="st1 st9 st3">ov</text>
<line class="st10" x1="1107.5" y1="412.1" x2="1137.5" y2="397.1"/>
<text transform="matrix(1 0 0 1 959.4 391.5)" class="st12 st2 st7">XXXX</text>
<rect x="954.3" y="392.9" class="st13" width="30" height="15"/>
<text transform="matrix(1 0 0 1 989.5 404.8)" class="st12 st9 st3">Napoleon</text>
<line class="st10" x1="954.3" y1="407.9" x2="984.3" y2="392.9"/>
<text transform="matrix(1 0 0 1 1076.5 415.1)" class="st12 st2 st7">XXX</text>
<rect x="1068.8" y="416.5" class="st13" width="30" height="15"/>
<text transform="matrix(1 0 0 1 1104.1 428.4)" class="st12 st9 st3">Mu</text>
<text transform="matrix(1 0 0 1 1122.6 428.4)" class="st12 st9 st3">r</text>
<text transform="matrix(1 0 0 1 1127.7 428.4)" class="st12 st9 st3">at</text>
<line class="st14" x1="1068.8" y1="431.5" x2="1098.8" y2="416.5"/>
<text transform="matrix(1 0 0 1 530.4 472.7)" class="st12 st2 st7">XXXX</text>
<rect x="525.2" y="474.1" class="st13" width="30" height="15"/>
<text transform="matrix(1 0 0 1 531.5 486.4)" class="st12 st2 st15">VII</text>
<text transform="matrix(1 0 0 1 464.8 486)" class="st12 st9 st3">Augereau</text>
<line class="st10" x1="525.2" y1="489.1" x2="555.2" y2="474.1"/>
<text transform="matrix(1 0 0 1 634.7 548.1)" class="st12 st2 st7">XXX</text>
<rect x="627" y="549.5" class="st13" width="30" height="15"/>
<text transform="matrix(1 0 0 1 635.7 561.8)" class="st12 st2 st15">VI</text>
<text transform="matrix(1 0 0 1 599.3 561.4)" class="st12 st9 st3">Ney</text>
<line class="st10" x1="627" y1="564.5" x2="657" y2="549.5"/>
<text transform="matrix(1 0 0 1 1042.5 445.1)" class="st12 st2 st7">XXX</text>
<rect x="1034.8" y="446.6" class="st13" width="30" height="15"/>
<text transform="matrix(1 0 0 1 1070.1 458.4)" class="st12 st9 st3">Lannes</text>
<text transform="matrix(1 0 0 1 1045.8 458.9)" class="st12 st2 st15">V</text>
<line class="st10" x1="1034.8" y1="461.6" x2="1064.8" y2="446.6"/>
<text transform="matrix(1 0 0 1 1010.2 424.5)" class="st12 st2 st7">XXX</text>
<rect x="1002.6" y="425.9" class="st13" width="30" height="15"/>
<text transform="matrix(1 0 0 1 1011.3 438.2)" class="st12 st2 st15">IV</text>
<text transform="matrix(1 0 0 1 1037.9 437.8)" class="st12 st9 st3">Soult</text>
<line class="st10" x1="1002.6" y1="440.9" x2="1032.6" y2="425.9"/>
<text transform="matrix(1 0 0 1 1007.9 457.9)" class="st12 st2 st7">XXX</text>
<rect x="1000.3" y="459.3" class="st13" width="30" height="15"/>
<text transform="matrix(1 0 0 1 1035.5 471.2)" class="st12 st9 st3">Davout</text>
<text transform="matrix(1 0 0 1 1008.2 471.6)" class="st12 st2 st15">III</text>
<line class="st10" x1="1000.3" y1="474.3" x2="1030.3" y2="459.3"/>
<text transform="matrix(1 0 0 1 963.9 470.8)" class="st12 st2 st7">XXX</text>
<rect x="956.3" y="472.3" class="st13" width="30" height="15"/>
<text transform="matrix(1 0 0 1 966.5 484.6)" class="st12 st2 st15">II</text>
<text transform="matrix(1 0 0 1 991.6 484.1)" class="st12 st9 st3">Marmont</text>
<line class="st10" x1="956.3" y1="487.3" x2="986.3" y2="472.3"/>
<text transform="matrix(1 0 0 1 934.6 437.6)" class="st12 st2 st7">XXX</text>
<rect x="927" y="439" class="st13" width="30" height="15"/>
<text transform="matrix(1 0 0 1 939.5 451.3)" class="st12 st2 st15">I</text>
<text transform="matrix(1 0 0 1 962.3 450.9)" class="st12 st9 st3">Bernado</text>
<text transform="matrix(1 0 0 1 1011.1 450.9)" class="st12 st9 st3">t</text>
<text transform="matrix(1 0 0 1 1016.2 450.9)" class="st12 st9 st3">te</text>
<line class="st10" x1="927" y1="454" x2="957" y2="439"/>
</svg>
