<?xml version="1.0" encoding="utf-8"?>
<!-- Generator: Adobe Illustrator 21.1.0, SVG Export Plug-In . SVG Version: 6.00 Build 0)  -->
<svg version="1.1" id="Troop_Movements_by_Day_10_16_Revisions"
	 xmlns="http://www.w3.org/2000/svg" xmlns:xlink="http://www.w3.org/1999/xlink" x="0px" y="0px" viewBox="0 0 1440 910"
	 style="enable-background:new 0 0 1440 910;" xml:space="preserve">
<style type="text/css">
	.st0{opacity:0.5;fill:#FFFFFF;enable-background:new    ;}
	.st1{fill:#BF7C00;}
	.st2{font-family:'DroidSans';}
	.st3{font-size:12px;}
	.st4{fill:none;stroke:#999999;stroke-width:3;stroke-linecap:round;stroke-miterlimit:10;}
	.st5{fill:#999999;}
	.st6{fill:#ED2939;}
	.st7{font-size:9px;}
	.st8{fill:#FFFFFF;stroke:#ED2939;stroke-width:0.75;stroke-miterlimit:10;}
	.st9{font-family:'DroidSans-Bold';}
	.st10{fill:none;}
	.st11{fill:#FFFFFF;stroke:#BF7C00;stroke-width:0.75;stroke-miterlimit:10;}
	.st12{fill:#0072BB;}
	.st13{fill:#FFFFFF;stroke:#0072BB;stroke-width:0.75;stroke-miterlimit:10;}
	.st14{fill:none;stroke:#0072BB;stroke-width:0.75;stroke-miterlimit:10;}
	.st15{font-size:13.5px;}
</style>
<rect x="1184.6" y="33.7" class="st0" width="117" height="97.3"/>
<text transform="matrix(1 0 0 1 1191.2 110.6)" class="st1 st2 st3">Approaching</text>
<line class="st4" x1="1191.2" y1="119.4" x2="1216.8" y2="119.4"/>
<polygon class="st5" points="1229.5,119.4 1211.6,126.7 1215.8,119.4 1211.6,112.1 "/>
<text transform="matrix(1 0 0 1 467.1 560.3)" class="st6 st2 st7">XX</text>
<rect x="457" y="561.7" class="st8" width="30" height="15"/>
<text transform="matrix(1 0 0 1 492.2 573.6)" class="st6 st9 st3">Jellachich</text>
<line class="st10" x1="457" y1="576.7" x2="487" y2="561.7"/>
<text transform="matrix(1 0 0 1 664.7 604.8)" class="st6 st2 st7">XXX</text>
<rect x="657" y="606.3" class="st8" width="30" height="15"/>
<text transform="matrix(1 0 0 1 693.3 618.1)" class="st6 st9 st3">John</text>
<line class="st10" x1="657" y1="621.3" x2="687" y2="606.3"/>
<text transform="matrix(1 0 0 1 1205.5 392.8)" class="st6 st2 st7">XXXX</text>
<rect x="1200.4" y="394.3" class="st8" width="30" height="15"/>
<text transform="matrix(1 0 0 1 1235.6 406.1)" class="st6 st9 st3">Auerspe</text>
<text transform="matrix(1 0 0 1 1283.1 406.1)" class="st6 st9 st3">r</text>
<text transform="matrix(1 0 0 1 1288.2 406.1)" class="st6 st9 st3">g</text>
<line class="st10" x1="1200.4" y1="409.3" x2="1230.4" y2="394.3"/>
<text transform="matrix(1 0 0 1 1216.1 438)" class="st6 st2 st7">XX</text>
<rect x="1206" y="439.4" class="st8" width="30" height="15"/>
<text transform="matrix(1 0 0 1 1241.2 451.3)" class="st6 st9 st3">Kienmayer</text>
<line class="st10" x1="1206" y1="454.4" x2="1236" y2="439.4"/>
<text transform="matrix(1 0 0 1 1196.6 46.2)" class="st1 st2 st7">XXXX</text>
<rect x="1191.4" y="47.6" class="st11" width="30" height="15"/>
<text transform="matrix(1 0 0 1 1226.7 59.5)" class="st1 st9 st3">Bennigsen</text>
<line class="st10" x1="1191.4" y1="62.6" x2="1221.4" y2="47.6"/>
<text transform="matrix(1 0 0 1 1098.2 711.1)" class="st6 st2 st7">XXX</text>
<rect x="1090.6" y="712.5" class="st8" width="30" height="15"/>
<text transform="matrix(1 0 0 1 1125.8 724.4)" class="st6 st9 st3">Charles</text>
<line class="st10" x1="1090.6" y1="727.5" x2="1120.6" y2="712.5"/>
<text transform="matrix(1 0 0 1 1196.6 76.2)" class="st1 st2 st7">XXXX</text>
<rect x="1191.4" y="77.6" class="st11" width="30" height="15"/>
<text transform="matrix(1 0 0 1 1226.7 89.5)" class="st1 st9 st3">Buxhöwden</text>
<line class="st10" x1="1191.4" y1="92.6" x2="1221.4" y2="77.6"/>
<text transform="matrix(1 0 0 1 1115.4 371.5)" class="st1 st2 st7">XXXX</text>
<rect x="1110.3" y="372.9" class="st11" width="30" height="15"/>
<text transform="matrix(1 0 0 1 1145.5 384.8)" class="st1 st9 st3">Kutu</text>
<text transform="matrix(1 0 0 1 1173.1 384.8)" class="st1 st9 st3">z</text>
<text transform="matrix(1 0 0 1 1178.5 384.8)" class="st1 st9 st3">ov</text>
<line class="st10" x1="1110.3" y1="387.9" x2="1140.3" y2="372.9"/>
<text transform="matrix(1 0 0 1 1016.8 382.1)" class="st12 st2 st7">XXX</text>
<rect x="1009.1" y="383.5" class="st13" width="30" height="15"/>
<text transform="matrix(1 0 0 1 960.1 395.4)" class="st12 st9 st3">Mortier</text>
<line class="st10" x1="1009.1" y1="398.5" x2="1039.1" y2="383.5"/>
<text transform="matrix(1 0 0 1 973.3 415.9)" class="st12 st2 st7">XXXX</text>
<rect x="968.1" y="417.4" class="st13" width="30" height="15"/>
<text transform="matrix(1 0 0 1 1003.4 429.2)" class="st12 st9 st3">Napoleon</text>
<line class="st10" x1="968.1" y1="432.4" x2="998.1" y2="417.4"/>
<text transform="matrix(1 0 0 1 1140.3 427.2)" class="st12 st2 st7">XXX</text>
<rect x="1132.7" y="428.6" class="st13" width="30" height="15"/>
<text transform="matrix(1 0 0 1 1167.9 440.5)" class="st12 st9 st3">Mu</text>
<text transform="matrix(1 0 0 1 1186.4 440.5)" class="st12 st9 st3">r</text>
<text transform="matrix(1 0 0 1 1191.5 440.5)" class="st12 st9 st3">at</text>
<line class="st14" x1="1132.7" y1="443.6" x2="1162.7" y2="428.6"/>
<text transform="matrix(1 0 0 1 481.1 521.1)" class="st12 st2 st7">XXXX</text>
<rect x="475.9" y="522.5" class="st13" width="30" height="15"/>
<text transform="matrix(1 0 0 1 482.3 534.9)" class="st12 st2 st15">VII</text>
<text transform="matrix(1 0 0 1 415.5 534.4)" class="st12 st9 st3">Augereau</text>
<line class="st10" x1="475.9" y1="537.5" x2="505.9" y2="522.5"/>
<text transform="matrix(1 0 0 1 634.7 548.7)" class="st12 st2 st7">XXX</text>
<rect x="627" y="550.1" class="st13" width="30" height="15"/>
<text transform="matrix(1 0 0 1 635.7 562.4)" class="st12 st2 st15">VI</text>
<text transform="matrix(1 0 0 1 599.3 562)" class="st12 st9 st3">Ney</text>
<line class="st10" x1="627" y1="565.1" x2="657" y2="550.1"/>
<text transform="matrix(1 0 0 1 1088.6 397)" class="st12 st2 st7">XXX</text>
<rect x="1081" y="398.4" class="st13" width="30" height="15"/>
<text transform="matrix(1 0 0 1 1116.2 410.3)" class="st12 st9 st3">Lannes</text>
<text transform="matrix(1 0 0 1 1091.9 410.7)" class="st12 st2 st15">V</text>
<line class="st10" x1="1081" y1="413.4" x2="1111" y2="398.4"/>
<text transform="matrix(1 0 0 1 1072.4 421.1)" class="st12 st2 st7">XXX</text>
<rect x="1064.8" y="422.5" class="st13" width="30" height="15"/>
<text transform="matrix(1 0 0 1 1073.4 434.8)" class="st12 st2 st15">IV</text>
<text transform="matrix(1 0 0 1 1100 434.4)" class="st12 st9 st3">Soult</text>
<line class="st10" x1="1064.8" y1="437.5" x2="1094.8" y2="422.5"/>
<text transform="matrix(1 0 0 1 1072.7 467.3)" class="st12 st2 st7">XXX</text>
<rect x="1065.1" y="468.7" class="st13" width="30" height="15"/>
<text transform="matrix(1 0 0 1 1100.3 480.6)" class="st12 st9 st3">Davout</text>
<text transform="matrix(1 0 0 1 1072.9 481)" class="st12 st2 st15">III</text>
<line class="st10" x1="1065.1" y1="483.7" x2="1095.1" y2="468.7"/>
<text transform="matrix(1 0 0 1 1029 515)" class="st12 st2 st7">XXX</text>
<rect x="1021.4" y="516.4" class="st13" width="30" height="15"/>
<text transform="matrix(1 0 0 1 1031.6 528.7)" class="st12 st2 st15">II</text>
<text transform="matrix(1 0 0 1 1056.6 528.3)" class="st12 st9 st3">Marmont</text>
<line class="st10" x1="1021.4" y1="531.4" x2="1051.4" y2="516.4"/>
<text transform="matrix(1 0 0 1 1012.6 436.3)" class="st12 st2 st7">XXX</text>
<rect x="1005" y="437.7" class="st13" width="30" height="15"/>
<text transform="matrix(1 0 0 1 1017.5 450)" class="st12 st2 st15">I</text>
<text transform="matrix(1 0 0 1 1040.2 449.6)" class="st12 st9 st3">Bernado</text>
<text transform="matrix(1 0 0 1 1089 449.6)" class="st12 st9 st3">t</text>
<text transform="matrix(1 0 0 1 1094.1 449.6)" class="st12 st9 st3">te</text>
<line class="st10" x1="1005" y1="452.7" x2="1035" y2="437.7"/>
</svg>
