<?xml version="1.0" encoding="utf-8"?>
<!-- Generator: Adobe Illustrator 21.1.0, SVG Export Plug-In . SVG Version: 6.00 Build 0)  -->
<svg version="1.1" id="Troop_Movements_by_Day_10_16_Revisions"
	 xmlns="http://www.w3.org/2000/svg" xmlns:xlink="http://www.w3.org/1999/xlink" x="0px" y="0px" viewBox="0 0 1440 910"
	 style="enable-background:new 0 0 1440 910;" xml:space="preserve">
<style type="text/css">
	.st0{fill:none;}
	.st1{fill:none;stroke:#ED2939;stroke-width:3;stroke-linecap:round;stroke-linejoin:round;}
	.st2{fill:#ED2939;}
	.st3{opacity:0.5;fill:#FFFFFF;enable-background:new    ;}
	.st4{fill:#BF7C00;}
	.st5{font-family:'DroidSans';}
	.st6{font-size:12px;}
	.st7{fill:none;stroke:#999999;stroke-width:3;stroke-linecap:round;stroke-miterlimit:10;}
	.st8{fill:#999999;}
	.st9{fill:#ED2939;stroke:#ED2939;}
	.st10{fill:none;stroke:#0072BB;stroke-width:3;stroke-linecap:round;stroke-linejoin:round;}
	.st11{fill:#0072BB;}
	.st12{fill:#999999;stroke:#999999;}
	.st13{font-size:9px;}
	.st14{fill:#FFFFFF;stroke:#ED2939;stroke-width:0.75;stroke-miterlimit:10;}
	.st15{font-family:'DroidSans-Bold';}
	.st16{fill:#FFFFFF;stroke:#BF7C00;stroke-width:0.75;stroke-miterlimit:10;}
	.st17{fill:#FFFFFF;stroke:#0072BB;stroke-width:0.75;stroke-miterlimit:10;}
	.st18{fill:none;stroke:#0072BB;stroke-width:0.75;stroke-miterlimit:10;}
	.st19{font-size:13.5px;}
</style>
<circle class="st0" cx="1194.8" cy="418.7" r="4.5"/>
<path class="st0" d="M795.1,414.5c8.4-4.8,20.8-3.2,32.9,1s6.9,0.5,17.7,12.9c5.2,6,3,19.6,5.9,22.1c1.6,1.3,3.4,2.3,5.4,2.8"/>
<path class="st1" d="M924,440.3l-0.4,0.2l9.1-4.7"/>
<polygon class="st2" points="944.1,430.3 931.3,444.8 931.9,436.3 924.8,431.7 "/>
<rect x="1184.6" y="33.7" class="st3" width="117" height="97.3"/>
<text transform="matrix(1 0 0 1 1191.2 110.6)" class="st4 st5 st6">Approaching</text>
<line class="st7" x1="1191.2" y1="119.4" x2="1216.8" y2="119.4"/>
<polygon class="st8" points="1229.5,119.4 1211.6,126.7 1215.8,119.4 1211.6,112.1 "/>
<ellipse class="st9" cx="726.4" cy="814.5" rx="4.5" ry="4.5"/>
<path class="st1" d="M920.9,435c2.8-0.2,5.5-1.1,7.9-2.6"/>
<polygon class="st2" points="938.6,424.3 929.1,441.2 927.9,432.8 920,429.7 "/>
<path class="st10" d="M698.8,429.4c8.3-0.9,15.8-5.2,20.8-11.8c0.1,0,0.1,0,0,0.1c0.2,0.5,0.5,0.9,0.9,1.2l0.5-0.2
	c3.2-1.4,6.4-1.6,8.4-0.6"/>
<polygon class="st11" points="739.8,425.3 720.8,421.6 728.4,417.8 728.8,409.4 "/>
<circle class="st12" cx="743.7" cy="426.4" r="4.5"/>
<text transform="matrix(1 0 0 1 748.7 419.5)" class="st8 st5 st6">Haag</text>
<text transform="matrix(1 0 0 1 559.8 560.5)" class="st2 st5 st13">XXX</text>
<rect x="552.2" y="561.9" class="st14" width="30" height="15"/>
<text transform="matrix(1 0 0 1 588.4 573.8)" class="st2 st15 st6">John</text>
<line class="st0" x1="552.2" y1="576.9" x2="582.2" y2="561.9"/>
<text transform="matrix(1 0 0 1 1205.5 392.8)" class="st2 st5 st13">XXXX</text>
<rect x="1200.4" y="394.3" class="st14" width="30" height="15"/>
<text transform="matrix(1 0 0 1 1235.6 406.1)" class="st2 st15 st6">Auerspe</text>
<text transform="matrix(1 0 0 1 1283.1 406.1)" class="st2 st15 st6">r</text>
<text transform="matrix(1 0 0 1 1288.2 406.1)" class="st2 st15 st6">g</text>
<line class="st0" x1="1200.4" y1="409.3" x2="1230.4" y2="394.3"/>
<text transform="matrix(1 0 0 1 915.5 453.7)" class="st2 st5 st13">XX</text>
<rect x="905.4" y="455.1" class="st14" width="30" height="15"/>
<text transform="matrix(1 0 0 1 940.6 467)" class="st2 st15 st6">Kienmayer</text>
<line class="st0" x1="905.4" y1="470.1" x2="935.4" y2="455.1"/>
<text transform="matrix(1 0 0 1 958.6 432.4)" class="st2 st5 st13">XXXX</text>
<rect x="953.4" y="433.8" class="st14" width="30" height="15"/>
<text transform="matrix(1 0 0 1 988.7 445.7)" class="st2 st15 st6">Merveldt</text>
<line class="st0" x1="953.4" y1="448.8" x2="983.4" y2="433.8"/>
<text transform="matrix(1 0 0 1 1196.6 46.2)" class="st4 st5 st13">XXXX</text>
<rect x="1191.4" y="47.6" class="st16" width="30" height="15"/>
<text transform="matrix(1 0 0 1 1226.7 59.5)" class="st4 st15 st6">Bennigsen</text>
<line class="st0" x1="1191.4" y1="62.6" x2="1221.4" y2="47.6"/>
<text transform="matrix(1 0 0 1 724.7 802.3)" class="st2 st5 st13">XXX</text>
<rect x="717.1" y="803.7" class="st14" width="30" height="15"/>
<text transform="matrix(1 0 0 1 752.3 815.6)" class="st2 st15 st6">Charles</text>
<line class="st0" x1="717.1" y1="818.7" x2="747.1" y2="803.7"/>
<text transform="matrix(1 0 0 1 1196.6 76.2)" class="st4 st5 st13">XXXX</text>
<rect x="1191.4" y="77.6" class="st16" width="30" height="15"/>
<text transform="matrix(1 0 0 1 1226.7 89.5)" class="st4 st15 st6">Buxhöwden</text>
<line class="st0" x1="1191.4" y1="92.6" x2="1221.4" y2="77.6"/>
<text transform="matrix(1 0 0 1 949.1 404.8)" class="st4 st5 st13">XXXX</text>
<rect x="943.9" y="406.2" class="st16" width="30" height="15"/>
<text transform="matrix(1 0 0 1 979.2 418.1)" class="st4 st15 st6">Kutu</text>
<text transform="matrix(1 0 0 1 1006.8 418.1)" class="st4 st15 st6">z</text>
<text transform="matrix(1 0 0 1 1012.2 418.1)" class="st4 st15 st6">ov</text>
<line class="st0" x1="943.9" y1="421.2" x2="973.9" y2="406.2"/>
<text transform="matrix(1 0 0 1 671 390.3)" class="st11 st5 st13">XXXX</text>
<rect x="665.8" y="391.7" class="st17" width="30" height="15"/>
<text transform="matrix(1 0 0 1 701.1 403.6)" class="st11 st15 st6">Napoleon</text>
<line class="st0" x1="665.8" y1="406.7" x2="695.8" y2="391.7"/>
<text transform="matrix(1 0 0 1 801.7 391.6)" class="st11 st5 st13">XXX</text>
<rect x="794.1" y="393" class="st17" width="30" height="15"/>
<text transform="matrix(1 0 0 1 829.3 404.9)" class="st11 st15 st6">Mu</text>
<text transform="matrix(1 0 0 1 847.8 404.9)" class="st11 st15 st6">r</text>
<text transform="matrix(1 0 0 1 852.9 404.9)" class="st11 st15 st6">at</text>
<line class="st18" x1="794.1" y1="408" x2="824.1" y2="393"/>
<text transform="matrix(1 0 0 1 285.9 440.6)" class="st11 st5 st13">XXXX</text>
<rect x="280.7" y="442" class="st17" width="30" height="15"/>
<text transform="matrix(1 0 0 1 287 454.3)" class="st11 st5 st19">VII</text>
<text transform="matrix(1 0 0 1 220.3 453.9)" class="st11 st15 st6">Augereau</text>
<line class="st0" x1="280.7" y1="457" x2="310.7" y2="442"/>
<text transform="matrix(1 0 0 1 594.9 440.6)" class="st11 st5 st13">XXX</text>
<rect x="587.3" y="442" class="st17" width="30" height="15"/>
<text transform="matrix(1 0 0 1 595.9 454.3)" class="st11 st5 st19">VI</text>
<text transform="matrix(1 0 0 1 559.6 453.9)" class="st11 st15 st6">Ney</text>
<line class="st0" x1="587.3" y1="457" x2="617.3" y2="442"/>
<text transform="matrix(1 0 0 1 810.7 366.5)" class="st11 st5 st13">XXX</text>
<rect x="803.1" y="367.9" class="st17" width="30" height="15"/>
<text transform="matrix(1 0 0 1 838.3 379.8)" class="st11 st15 st6">Lannes</text>
<text transform="matrix(1 0 0 1 814 380.2)" class="st11 st5 st19">V</text>
<line class="st0" x1="803.1" y1="382.9" x2="833.1" y2="367.9"/>
<text transform="matrix(1 0 0 1 758.9 430.2)" class="st11 st5 st13">XXX</text>
<rect x="751.3" y="431.6" class="st17" width="30" height="15"/>
<text transform="matrix(1 0 0 1 760 443.9)" class="st11 st5 st19">IV</text>
<text transform="matrix(1 0 0 1 786.6 443.5)" class="st11 st15 st6">Soult</text>
<line class="st0" x1="751.3" y1="446.6" x2="781.3" y2="431.6"/>
<text transform="matrix(1 0 0 1 798.7 415.6)" class="st11 st5 st13">XXX</text>
<rect x="791" y="417" class="st17" width="30" height="15"/>
<text transform="matrix(1 0 0 1 826.3 428.9)" class="st11 st15 st6">Davout</text>
<text transform="matrix(1 0 0 1 798.9 429.3)" class="st11 st5 st19">III</text>
<line class="st0" x1="791" y1="432" x2="821" y2="417"/>
<text transform="matrix(1 0 0 1 683.1 450.6)" class="st11 st5 st13">XXX</text>
<rect x="675.5" y="452" class="st17" width="30" height="15"/>
<text transform="matrix(1 0 0 1 685.7 464.3)" class="st11 st5 st19">II</text>
<text transform="matrix(1 0 0 1 710.8 463.9)" class="st11 st15 st6">Marmont</text>
<line class="st0" x1="675.5" y1="467" x2="705.5" y2="452"/>
<text transform="matrix(1 0 0 1 774.7 464.7)" class="st11 st5 st13">XXX</text>
<rect x="767.1" y="466.1" class="st17" width="30" height="15"/>
<text transform="matrix(1 0 0 1 779.6 478.4)" class="st11 st5 st19">I</text>
<text transform="matrix(1 0 0 1 802.4 478)" class="st11 st15 st6">Bernado</text>
<text transform="matrix(1 0 0 1 851.2 478)" class="st11 st15 st6">t</text>
<text transform="matrix(1 0 0 1 856.3 478)" class="st11 st15 st6">te</text>
<line class="st0" x1="767.1" y1="481.1" x2="797.1" y2="466.1"/>
<text transform="matrix(1 0 0 1 491 524.8)" class="st2 st5 st13">XX</text>
<rect x="480.9" y="526.2" class="st14" width="30" height="15"/>
<text transform="matrix(1 0 0 1 516.2 538.1)" class="st2 st15 st6">Jellachich</text>
<line class="st0" x1="480.9" y1="541.2" x2="510.9" y2="526.2"/>
</svg>
