<?xml version="1.0" encoding="utf-8"?>
<!-- Generator: Adobe Illustrator 21.1.0, SVG Export Plug-In . SVG Version: 6.00 Build 0)  -->
<svg version="1.1" id="Troop_Movements_by_Day_10_16_Revisions"
	 xmlns="http://www.w3.org/2000/svg" xmlns:xlink="http://www.w3.org/1999/xlink" x="0px" y="0px" viewBox="0 0 1440 910"
	 style="enable-background:new 0 0 1440 910;" xml:space="preserve">
<style type="text/css">
	.st0{opacity:0.5;fill:#FFFFFF;enable-background:new    ;}
	.st1{fill:#BF7C00;}
	.st2{font-family:'DroidSans';}
	.st3{font-size:12px;}
	.st4{fill:none;stroke:#999999;stroke-width:3;stroke-linecap:round;stroke-miterlimit:10;}
	.st5{fill:#999999;}
	.st6{fill:#ED2939;}
	.st7{font-size:9px;}
	.st8{fill:#FFFFFF;stroke:#ED2939;stroke-width:0.75;stroke-miterlimit:10;}
	.st9{font-family:'DroidSans-Bold';}
	.st10{fill:none;}
	.st11{fill:#FFFFFF;stroke:#BF7C00;stroke-width:0.75;stroke-miterlimit:10;}
	.st12{fill:#0072BB;}
	.st13{fill:#FFFFFF;stroke:#0072BB;stroke-width:0.75;stroke-miterlimit:10;}
	.st14{fill:none;stroke:#0072BB;stroke-width:0.75;stroke-miterlimit:10;}
	.st15{font-size:13.5px;}
</style>
<rect x="1184.6" y="33.7" class="st0" width="117" height="97.3"/>
<text transform="matrix(1 0 0 1 1191.2 110.6)" class="st1 st2 st3">Approaching</text>
<line class="st4" x1="1191.2" y1="119.4" x2="1216.8" y2="119.4"/>
<polygon class="st5" points="1229.5,119.4 1211.6,126.7 1215.8,119.4 1211.6,112.1 "/>
<text transform="matrix(1 0 0 1 644.5 625.6)" class="st6 st2 st7">XXX</text>
<rect x="636.9" y="627" class="st8" width="30" height="15"/>
<text transform="matrix(1 0 0 1 673.2 638.9)" class="st6 st9 st3">John</text>
<line class="st10" x1="636.9" y1="642" x2="666.9" y2="627"/>
<text transform="matrix(1 0 0 1 1205.5 392.8)" class="st6 st2 st7">XXXX</text>
<rect x="1200.4" y="394.3" class="st8" width="30" height="15"/>
<text transform="matrix(1 0 0 1 1235.6 406.1)" class="st6 st9 st3">Auerspe</text>
<text transform="matrix(1 0 0 1 1283.1 406.1)" class="st6 st9 st3">r</text>
<text transform="matrix(1 0 0 1 1288.2 406.1)" class="st6 st9 st3">g</text>
<line class="st10" x1="1200.4" y1="409.3" x2="1230.4" y2="394.3"/>
<text transform="matrix(1 0 0 1 1081.6 455.2)" class="st6 st2 st7">XX</text>
<rect x="1071.6" y="456.6" class="st8" width="30" height="15"/>
<text transform="matrix(1 0 0 1 1106.8 468.5)" class="st6 st9 st3">Kienmayer</text>
<line class="st10" x1="1071.6" y1="471.6" x2="1101.6" y2="456.6"/>
<text transform="matrix(1 0 0 1 992.6 491.2)" class="st6 st2 st7">XXXX</text>
<rect x="987.4" y="492.6" class="st8" width="30" height="15"/>
<text transform="matrix(1 0 0 1 1022.7 504.5)" class="st6 st9 st3">Merveldt</text>
<line class="st10" x1="987.4" y1="507.6" x2="1017.4" y2="492.6"/>
<text transform="matrix(1 0 0 1 1196.6 46.2)" class="st1 st2 st7">XXXX</text>
<rect x="1191.4" y="47.6" class="st11" width="30" height="15"/>
<text transform="matrix(1 0 0 1 1226.7 59.5)" class="st1 st9 st3">Bennigsen</text>
<line class="st10" x1="1191.4" y1="62.6" x2="1221.4" y2="47.6"/>
<text transform="matrix(1 0 0 1 1048.2 771.1)" class="st6 st2 st7">XXX</text>
<rect x="1040.6" y="772.5" class="st8" width="30" height="15"/>
<text transform="matrix(1 0 0 1 1075.8 784.4)" class="st6 st9 st3">Charles</text>
<line class="st10" x1="1040.6" y1="787.5" x2="1070.6" y2="772.5"/>
<text transform="matrix(1 0 0 1 1196.6 76.2)" class="st1 st2 st7">XXXX</text>
<rect x="1191.4" y="77.6" class="st11" width="30" height="15"/>
<text transform="matrix(1 0 0 1 1226.7 89.5)" class="st1 st9 st3">Buxhöwden</text>
<line class="st10" x1="1191.4" y1="92.6" x2="1221.4" y2="77.6"/>
<text transform="matrix(1 0 0 1 1061.7 421.9)" class="st1 st2 st7">XXXX</text>
<rect x="1056.6" y="423.3" class="st11" width="30" height="15"/>
<text transform="matrix(1 0 0 1 1091.8 435.2)" class="st1 st9 st3">Kutu</text>
<text transform="matrix(1 0 0 1 1119.4 435.2)" class="st1 st9 st3">z</text>
<text transform="matrix(1 0 0 1 1124.8 435.2)" class="st1 st9 st3">ov</text>
<line class="st10" x1="1056.6" y1="438.3" x2="1086.6" y2="423.3"/>
<text transform="matrix(1 0 0 1 953.6 389.9)" class="st12 st2 st7">XXXX</text>
<rect x="948.5" y="391.3" class="st13" width="30" height="15"/>
<text transform="matrix(1 0 0 1 983.7 403.2)" class="st12 st9 st3">Napoleon</text>
<line class="st10" x1="948.5" y1="406.3" x2="978.5" y2="391.3"/>
<text transform="matrix(1 0 0 1 1016.1 437.9)" class="st12 st2 st7">XXX</text>
<rect x="1008.5" y="439.3" class="st13" width="30" height="15"/>
<text transform="matrix(1 0 0 1 1043.8 451.2)" class="st12 st9 st3">Mu</text>
<text transform="matrix(1 0 0 1 1062.3 451.2)" class="st12 st9 st3">r</text>
<text transform="matrix(1 0 0 1 1067.4 451.2)" class="st12 st9 st3">at</text>
<line class="st14" x1="1008.5" y1="454.3" x2="1038.5" y2="439.3"/>
<text transform="matrix(1 0 0 1 530.4 472.7)" class="st12 st2 st7">XXXX</text>
<rect x="525.2" y="474.1" class="st13" width="30" height="15"/>
<text transform="matrix(1 0 0 1 531.5 486.4)" class="st12 st2 st15">VII</text>
<text transform="matrix(1 0 0 1 464.8 486)" class="st12 st9 st3">Augereau</text>
<line class="st10" x1="525.2" y1="489.1" x2="555.2" y2="474.1"/>
<text transform="matrix(1 0 0 1 631.7 551.3)" class="st12 st2 st7">XXX</text>
<rect x="624.1" y="552.8" class="st13" width="30" height="15"/>
<text transform="matrix(1 0 0 1 632.7 565.1)" class="st12 st2 st15">VI</text>
<text transform="matrix(1 0 0 1 596.3 564.6)" class="st12 st9 st3">Ney</text>
<line class="st10" x1="624.1" y1="567.8" x2="654.1" y2="552.8"/>
<text transform="matrix(1 0 0 1 986.1 412.1)" class="st12 st2 st7">XXX</text>
<rect x="978.5" y="413.5" class="st13" width="30" height="15"/>
<text transform="matrix(1 0 0 1 1013.8 425.4)" class="st12 st9 st3">Lannes</text>
<text transform="matrix(1 0 0 1 989.4 425.8)" class="st12 st2 st15">V</text>
<line class="st10" x1="978.5" y1="428.5" x2="1008.5" y2="413.5"/>
<text transform="matrix(1 0 0 1 927.8 418.7)" class="st12 st2 st7">XXX</text>
<rect x="920.2" y="420.1" class="st13" width="30" height="15"/>
<text transform="matrix(1 0 0 1 928.8 432.5)" class="st12 st2 st15">IV</text>
<text transform="matrix(1 0 0 1 955.4 432)" class="st12 st9 st3">Soult</text>
<line class="st10" x1="920.2" y1="435.1" x2="950.2" y2="420.1"/>
<text transform="matrix(1 0 0 1 981.6 451.7)" class="st12 st2 st7">XXX</text>
<rect x="974" y="453.1" class="st13" width="30" height="15"/>
<text transform="matrix(1 0 0 1 1009.3 465)" class="st12 st9 st3">Davout</text>
<text transform="matrix(1 0 0 1 981.9 465.4)" class="st12 st2 st15">III</text>
<line class="st10" x1="974" y1="468.1" x2="1004" y2="453.1"/>
<text transform="matrix(1 0 0 1 944.2 465.7)" class="st12 st2 st7">XXX</text>
<rect x="936.6" y="467.1" class="st13" width="30" height="15"/>
<text transform="matrix(1 0 0 1 946.8 479.4)" class="st12 st2 st15">II</text>
<text transform="matrix(1 0 0 1 971.8 479)" class="st12 st9 st3">Marmont</text>
<line class="st10" x1="936.6" y1="482.1" x2="966.6" y2="467.1"/>
<text transform="matrix(1 0 0 1 895.2 433.2)" class="st12 st2 st7">XXX</text>
<rect x="887.6" y="434.6" class="st13" width="30" height="15"/>
<text transform="matrix(1 0 0 1 900 446.9)" class="st12 st2 st15">I</text>
<text transform="matrix(1 0 0 1 922.8 446.5)" class="st12 st9 st3">Bernado</text>
<text transform="matrix(1 0 0 1 971.6 446.5)" class="st12 st9 st3">t</text>
<text transform="matrix(1 0 0 1 976.7 446.5)" class="st12 st9 st3">te</text>
<line class="st10" x1="887.6" y1="449.6" x2="917.6" y2="434.6"/>
<text transform="matrix(1 0 0 1 491 524.8)" class="st6 st2 st7">XX</text>
<rect x="480.9" y="526.2" class="st8" width="30" height="15"/>
<text transform="matrix(1 0 0 1 516.2 538.1)" class="st6 st9 st3">Jellachich</text>
<line class="st10" x1="480.9" y1="541.2" x2="510.9" y2="526.2"/>
</svg>
