<?xml version="1.0" encoding="utf-8"?>
<!-- Generator: Adobe Illustrator 21.1.0, SVG Export Plug-In . SVG Version: 6.00 Build 0)  -->
<svg version="1.1" id="Troop_Movements_by_Day_10_16_Revisions"
	 xmlns="http://www.w3.org/2000/svg" xmlns:xlink="http://www.w3.org/1999/xlink" x="0px" y="0px" viewBox="0 0 1440 910"
	 style="enable-background:new 0 0 1440 910;" xml:space="preserve">
<style type="text/css">
	.st0{fill:none;}
	.st1{opacity:0.5;fill:#FFFFFF;enable-background:new    ;}
	.st2{fill:#BF7C00;}
	.st3{font-family:'DroidSans';}
	.st4{font-size:12px;}
	.st5{fill:none;stroke:#999999;stroke-width:3;stroke-linecap:round;stroke-miterlimit:10;}
	.st6{fill:#999999;}
	.st7{fill:none;stroke:#0072BB;stroke-width:3;stroke-linecap:round;stroke-linejoin:round;}
	.st8{fill:#0072BB;}
	.st9{fill:#ED2939;}
	.st10{font-size:9px;}
	.st11{fill:#FFFFFF;stroke:#ED2939;stroke-width:0.75;stroke-miterlimit:10;}
	.st12{font-family:'DroidSans-Bold';}
	.st13{fill:#FFFFFF;stroke:#BF7C00;stroke-width:0.75;stroke-miterlimit:10;}
	.st14{fill:#FFFFFF;stroke:#0072BB;stroke-width:0.75;stroke-miterlimit:10;}
	.st15{fill:none;stroke:#0072BB;stroke-width:0.75;stroke-miterlimit:10;}
	.st16{font-size:13.5px;}
</style>
<circle class="st0" cx="1194.8" cy="418.7" r="4.5"/>
<rect x="1184.6" y="33.7" class="st1" width="117" height="97.3"/>
<text transform="matrix(1 0 0 1 1191.2 110.6)" class="st2 st3 st4">Approaching</text>
<line class="st5" x1="1191.2" y1="119.4" x2="1216.8" y2="119.4"/>
<polygon class="st6" points="1229.5,119.4 1211.6,126.7 1215.8,119.4 1211.6,112.1 "/>
<path class="st7" d="M623.2,233.9c10,10.7-2,20.5-2.8,34.7c-0.9,16.2-7.6,12,3,26.5c1.2,1.7,9.4,10.3,7,7.6
	c6.6,4.6,14.8,9.2,21.5,15.4l1.7,1.7"/>
<polygon class="st8" points="661.6,329.6 644.5,320.5 652.8,319.1 655.7,311.2 "/>
<path class="st7" d="M532.9,453.3c10.6-10,39.3-5.7,56.1-6.7"/>
<polygon class="st8" points="601.5,444.8 584.6,454.3 587.9,446.5 582.8,439.8 "/>
<path class="st7" d="M667.1,411.7c-0.5-5.6,2.5-8.7,9.2-9.6c2.3-2.9,4.9-5.5,7.7-7.9"/>
<polygon class="st8" points="695.2,388.1 683.4,403.4 683.4,394.9 676.1,390.7 "/>
<text transform="matrix(1 0 0 1 427.7 464.6)" class="st9 st3 st10">XX</text>
<rect x="417.6" y="466.1" class="st11" width="30" height="15"/>
<text transform="matrix(1 0 0 1 452.9 477.9)" class="st9 st12 st4">Jellachich</text>
<line class="st0" x1="417.6" y1="481.1" x2="447.6" y2="466.1"/>
<text transform="matrix(1 0 0 1 519.8 560.5)" class="st9 st3 st10">XXX</text>
<rect x="512.2" y="561.9" class="st11" width="30" height="15"/>
<text transform="matrix(1 0 0 1 548.4 573.8)" class="st9 st12 st4">John</text>
<line class="st0" x1="512.2" y1="576.9" x2="542.2" y2="561.9"/>
<text transform="matrix(1 0 0 1 1205.5 392.8)" class="st9 st3 st10">XXXX</text>
<rect x="1200.4" y="394.3" class="st11" width="30" height="15"/>
<text transform="matrix(1 0 0 1 1235.6 406.1)" class="st9 st12 st4">Auerspe</text>
<text transform="matrix(1 0 0 1 1283.1 406.1)" class="st9 st12 st4">r</text>
<text transform="matrix(1 0 0 1 1288.2 406.1)" class="st9 st12 st4">g</text>
<line class="st0" x1="1200.4" y1="409.3" x2="1230.4" y2="394.3"/>
<text transform="matrix(1 0 0 1 770.1 405.5)" class="st9 st3 st10">XX</text>
<rect x="760" y="407" class="st11" width="30" height="15"/>
<text transform="matrix(1 0 0 1 795.3 418.8)" class="st9 st12 st4">Kienmayer</text>
<line class="st0" x1="760" y1="422" x2="790" y2="407"/>
<text transform="matrix(1 0 0 1 860.5 421.7)" class="st9 st3 st10">XXXX</text>
<rect x="855.4" y="423.1" class="st11" width="30" height="15"/>
<text transform="matrix(1 0 0 1 890.6 435)" class="st9 st12 st4">Merveldt</text>
<line class="st0" x1="855.4" y1="438.1" x2="885.4" y2="423.1"/>
<text transform="matrix(1 0 0 1 1196.6 46.2)" class="st2 st3 st10">XXXX</text>
<rect x="1191.4" y="47.6" class="st13" width="30" height="15"/>
<text transform="matrix(1 0 0 1 1226.7 59.5)" class="st2 st12 st4">Bennigsen</text>
<line class="st0" x1="1191.4" y1="62.6" x2="1221.4" y2="47.6"/>
<text transform="matrix(1 0 0 1 631.2 847.2)" class="st9 st3 st10">XXX</text>
<rect x="623.6" y="848.6" class="st11" width="30" height="15"/>
<text transform="matrix(1 0 0 1 658.8 860.5)" class="st9 st12 st4">Charles</text>
<line class="st0" x1="623.6" y1="863.6" x2="653.6" y2="848.6"/>
<text transform="matrix(1 0 0 1 1196.6 76.2)" class="st2 st3 st10">XXXX</text>
<rect x="1191.4" y="77.6" class="st13" width="30" height="15"/>
<text transform="matrix(1 0 0 1 1226.7 89.5)" class="st2 st12 st4">Buxhöwden</text>
<line class="st0" x1="1191.4" y1="92.6" x2="1221.4" y2="77.6"/>
<text transform="matrix(1 0 0 1 839.7 388.3)" class="st2 st3 st10">XXXX</text>
<rect x="834.6" y="389.7" class="st13" width="30" height="15"/>
<text transform="matrix(1 0 0 1 869.8 401.6)" class="st2 st12 st4">Kutu</text>
<text transform="matrix(1 0 0 1 897.4 401.6)" class="st2 st12 st4">z</text>
<text transform="matrix(1 0 0 1 902.8 401.6)" class="st2 st12 st4">ov</text>
<line class="st0" x1="834.6" y1="404.7" x2="864.6" y2="389.7"/>
<text transform="matrix(1 0 0 1 676.6 426.9)" class="st8 st3 st10">XXXX</text>
<rect x="671.4" y="428.3" class="st14" width="30" height="15"/>
<text transform="matrix(1 0 0 1 706.6 440.2)" class="st8 st12 st4">Napoleon</text>
<line class="st0" x1="671.4" y1="443.3" x2="701.4" y2="428.3"/>
<text transform="matrix(1 0 0 1 673.7 323.5)" class="st8 st3 st10">XXX</text>
<rect x="666.1" y="325" class="st14" width="30" height="15"/>
<text transform="matrix(1 0 0 1 701.4 336.8)" class="st8 st12 st4">Mu</text>
<text transform="matrix(1 0 0 1 719.9 336.8)" class="st8 st12 st4">r</text>
<text transform="matrix(1 0 0 1 725 336.8)" class="st8 st12 st4">at</text>
<line class="st15" x1="666.1" y1="340" x2="696.1" y2="325"/>
<text transform="matrix(1 0 0 1 245.9 510.6)" class="st8 st3 st10">XXXX</text>
<rect x="240.7" y="512" class="st14" width="30" height="15"/>
<text transform="matrix(1 0 0 1 247 524.3)" class="st8 st3 st16">VII</text>
<text transform="matrix(1 0 0 1 180.3 523.9)" class="st8 st12 st4">Augereau</text>
<line class="st0" x1="240.7" y1="527" x2="270.7" y2="512"/>
<text transform="matrix(1 0 0 1 478.5 387.4)" class="st8 st3 st10">XXX</text>
<rect x="470.8" y="388.8" class="st14" width="30" height="15"/>
<text transform="matrix(1 0 0 1 479.5 401.2)" class="st8 st3 st16">VI</text>
<text transform="matrix(1 0 0 1 443.1 400.7)" class="st8 st12 st4">Ney</text>
<line class="st0" x1="470.8" y1="403.8" x2="500.8" y2="388.8"/>
<text transform="matrix(1 0 0 1 558.8 311.2)" class="st8 st3 st10">XXX</text>
<rect x="551.2" y="312.6" class="st14" width="30" height="15"/>
<text transform="matrix(1 0 0 1 586.4 324.5)" class="st8 st12 st4">Lannes</text>
<text transform="matrix(1 0 0 1 562.1 324.9)" class="st8 st3 st16">V</text>
<line class="st0" x1="551.2" y1="327.6" x2="581.2" y2="312.6"/>
<text transform="matrix(1 0 0 1 598.5 459.7)" class="st8 st3 st10">XXX</text>
<rect x="590.8" y="461.1" class="st14" width="30" height="15"/>
<text transform="matrix(1 0 0 1 599.5 473.4)" class="st8 st3 st16">IV</text>
<text transform="matrix(1 0 0 1 626.1 473)" class="st8 st12 st4">Soult</text>
<line class="st0" x1="590.8" y1="476.1" x2="620.8" y2="461.1"/>
<text transform="matrix(1 0 0 1 704.5 378.5)" class="st8 st3 st10">XXX</text>
<rect x="696.9" y="379.9" class="st14" width="30" height="15"/>
<text transform="matrix(1 0 0 1 732.2 391.8)" class="st8 st12 st4">Davout</text>
<text transform="matrix(1 0 0 1 704.8 392.2)" class="st8 st3 st16">III</text>
<line class="st0" x1="696.9" y1="394.9" x2="726.9" y2="379.9"/>
<text transform="matrix(1 0 0 1 514 388)" class="st8 st3 st10">XXX</text>
<rect x="506.4" y="389.4" class="st14" width="30" height="15"/>
<text transform="matrix(1 0 0 1 516.6 401.7)" class="st8 st3 st16">II</text>
<text transform="matrix(1 0 0 1 541.6 401.3)" class="st8 st12 st4">Marmont</text>
<line class="st0" x1="506.4" y1="404.4" x2="536.4" y2="389.4"/>
<text transform="matrix(1 0 0 1 679 453.2)" class="st8 st3 st10">XXX</text>
<rect x="671.4" y="454.6" class="st14" width="30" height="15"/>
<text transform="matrix(1 0 0 1 683.9 466.9)" class="st8 st3 st16">I</text>
<text transform="matrix(1 0 0 1 706.6 466.5)" class="st8 st12 st4">Bernado</text>
<text transform="matrix(1 0 0 1 755.4 466.5)" class="st8 st12 st4">t</text>
<text transform="matrix(1 0 0 1 760.5 466.5)" class="st8 st12 st4">te</text>
<line class="st0" x1="671.4" y1="469.6" x2="701.4" y2="454.6"/>
</svg>
