<?xml version="1.0" encoding="utf-8"?>
<!-- Generator: Adobe Illustrator 21.1.0, SVG Export Plug-In . SVG Version: 6.00 Build 0)  -->
<svg version="1.1" id="Troop_Movements_by_Day_10_16_Revisions"
	 xmlns="http://www.w3.org/2000/svg" xmlns:xlink="http://www.w3.org/1999/xlink" x="0px" y="0px" viewBox="0 0 1440 910"
	 style="enable-background:new 0 0 1440 910;" xml:space="preserve">
<style type="text/css">
	.st0{opacity:0.5;fill:#FFFFFF;enable-background:new    ;}
	.st1{fill:#BF7C00;}
	.st2{font-family:'DroidSans';}
	.st3{font-size:12px;}
	.st4{fill:none;stroke:#999999;stroke-width:3;stroke-linecap:round;stroke-miterlimit:10;}
	.st5{fill:#999999;}
	.st6{fill:#ED2939;}
	.st7{font-size:9px;}
	.st8{fill:#FFFFFF;stroke:#ED2939;stroke-width:0.75;stroke-miterlimit:10;}
	.st9{font-family:'DroidSans-Bold';}
	.st10{fill:none;}
	.st11{fill:#FFFFFF;stroke:#BF7C00;stroke-width:0.75;stroke-miterlimit:10;}
	.st12{fill:#0072BB;}
	.st13{fill:#FFFFFF;stroke:#0072BB;stroke-width:0.75;stroke-miterlimit:10;}
	.st14{fill:none;stroke:#0072BB;stroke-width:0.75;stroke-miterlimit:10;}
	.st15{font-size:13.5px;}
</style>
<rect x="1184.6" y="33.7" class="st0" width="117" height="97.3"/>
<text transform="matrix(1 0 0 1 1191.2 110.6)" class="st1 st2 st3">Approaching</text>
<line class="st4" x1="1191.2" y1="119.4" x2="1216.8" y2="119.4"/>
<polygon class="st5" points="1229.5,119.4 1211.6,126.7 1215.8,119.4 1211.6,112.1 "/>
<text transform="matrix(1 0 0 1 467.1 560.3)" class="st6 st2 st7">XX</text>
<rect x="457" y="561.7" class="st8" width="30" height="15"/>
<text transform="matrix(1 0 0 1 492.2 573.6)" class="st6 st9 st3">Jellachich</text>
<line class="st10" x1="457" y1="576.7" x2="487" y2="561.7"/>
<text transform="matrix(1 0 0 1 670.6 595.6)" class="st6 st2 st7">XXX</text>
<rect x="663" y="597" class="st8" width="30" height="15"/>
<text transform="matrix(1 0 0 1 699.3 608.9)" class="st6 st9 st3">John</text>
<line class="st10" x1="663" y1="612" x2="693" y2="597"/>
<text transform="matrix(1 0 0 1 1205.5 392.8)" class="st6 st2 st7">XXXX</text>
<rect x="1200.4" y="394.3" class="st8" width="30" height="15"/>
<text transform="matrix(1 0 0 1 1235.6 406.1)" class="st6 st9 st3">Auerspe</text>
<text transform="matrix(1 0 0 1 1283.1 406.1)" class="st6 st9 st3">r</text>
<text transform="matrix(1 0 0 1 1288.2 406.1)" class="st6 st9 st3">g</text>
<line class="st10" x1="1200.4" y1="409.3" x2="1230.4" y2="394.3"/>
<text transform="matrix(1 0 0 1 1115.6 379.3)" class="st6 st2 st7">XX</text>
<rect x="1105.5" y="380.7" class="st8" width="30" height="15"/>
<text transform="matrix(1 0 0 1 1140.8 392.6)" class="st6 st9 st3">Kienmayer</text>
<line class="st10" x1="1105.5" y1="395.7" x2="1135.5" y2="380.7"/>
<text transform="matrix(1 0 0 1 1196.6 46.2)" class="st1 st2 st7">XXXX</text>
<rect x="1191.4" y="47.6" class="st11" width="30" height="15"/>
<text transform="matrix(1 0 0 1 1226.7 59.5)" class="st1 st9 st3">Bennigsen</text>
<line class="st10" x1="1191.4" y1="62.6" x2="1221.4" y2="47.6"/>
<text transform="matrix(1 0 0 1 1111.2 701.1)" class="st6 st2 st7">XXX</text>
<rect x="1103.6" y="702.5" class="st8" width="30" height="15"/>
<text transform="matrix(1 0 0 1 1138.8 714.4)" class="st6 st9 st3">Charles</text>
<line class="st10" x1="1103.6" y1="717.5" x2="1133.6" y2="702.5"/>
<text transform="matrix(1 0 0 1 1196.6 76.2)" class="st1 st2 st7">XXXX</text>
<rect x="1191.4" y="77.6" class="st11" width="30" height="15"/>
<text transform="matrix(1 0 0 1 1226.7 89.5)" class="st1 st9 st3">Buxhöwden</text>
<line class="st10" x1="1191.4" y1="92.6" x2="1221.4" y2="77.6"/>
<text transform="matrix(1 0 0 1 1108.6 355.5)" class="st1 st2 st7">XXXX</text>
<rect x="1103.4" y="356.9" class="st11" width="30" height="15"/>
<text transform="matrix(1 0 0 1 1138.7 368.8)" class="st1 st9 st3">Kutu</text>
<text transform="matrix(1 0 0 1 1166.2999 368.8)" class="st1 st9 st3">z</text>
<text transform="matrix(1 0 0 1 1171.7 368.8)" class="st1 st9 st3">ov</text>
<line class="st10" x1="1103.4" y1="371.9" x2="1133.4" y2="356.9"/>
<text transform="matrix(1 0 0 1 1078.1 370.8)" class="st12 st2 st7">XXX</text>
<rect x="1070.5" y="372.3" class="st13" width="30" height="15"/>
<text transform="matrix(1 0 0 1 1021.4 384.1)" class="st12 st9 st3">Mortier</text>
<line class="st10" x1="1070.5" y1="387.3" x2="1100.5" y2="372.3"/>
<text transform="matrix(1 0 0 1 1072 436.4)" class="st12 st2 st7">XXXX</text>
<rect x="1066.8" y="437.8" class="st13" width="30" height="15"/>
<text transform="matrix(1 0 0 1 1102.1 449.7)" class="st12 st9 st3">Napoleon</text>
<line class="st10" x1="1066.8" y1="452.8" x2="1096.8" y2="437.8"/>
<text transform="matrix(1 0 0 1 1129.7 423.6)" class="st12 st2 st7">XXX</text>
<rect x="1122.1" y="425" class="st13" width="30" height="15"/>
<text transform="matrix(1 0 0 1 1157.3 436.9)" class="st12 st9 st3">Mu</text>
<text transform="matrix(1 0 0 1 1175.8 436.9)" class="st12 st9 st3">r</text>
<text transform="matrix(1 0 0 1 1180.9 436.9)" class="st12 st9 st3">at</text>
<line class="st14" x1="1122.1" y1="440" x2="1152.1" y2="425"/>
<text transform="matrix(1 0 0 1 481.1 521.1)" class="st12 st2 st7">XXXX</text>
<rect x="475.9" y="522.5" class="st13" width="30" height="15"/>
<text transform="matrix(1 0 0 1 482.3 534.9)" class="st12 st2 st15">VII</text>
<text transform="matrix(1 0 0 1 415.5 534.4)" class="st12 st9 st3">Augereau</text>
<line class="st10" x1="475.9" y1="537.5" x2="505.9" y2="522.5"/>
<text transform="matrix(1 0 0 1 640.4 544.8)" class="st12 st2 st7">XXX</text>
<rect x="632.8" y="546.2" class="st13" width="30" height="15"/>
<text transform="matrix(1 0 0 1 641.4 558.5)" class="st12 st2 st15">VI</text>
<text transform="matrix(1 0 0 1 605 558.1)" class="st12 st9 st3">Ney</text>
<line class="st10" x1="632.8" y1="561.2" x2="662.8" y2="546.2"/>
<text transform="matrix(1 0 0 1 1176.4 446.4)" class="st12 st2 st7">XXX</text>
<rect x="1168.8" y="447.8" class="st13" width="30" height="15"/>
<text transform="matrix(1 0 0 1 1204.1 459.7)" class="st12 st9 st3">Lannes</text>
<text transform="matrix(1 0 0 1 1179.7 460.1)" class="st12 st2 st15">V</text>
<line class="st10" x1="1168.8" y1="462.8" x2="1198.8" y2="447.8"/>
<text transform="matrix(1 0 0 1 1104.6 402.8)" class="st12 st2 st7">XXX</text>
<rect x="1097" y="404.2" class="st13" width="30" height="15"/>
<text transform="matrix(1 0 0 1 1105.6 416.5)" class="st12 st2 st15">IV</text>
<text transform="matrix(1 0 0 1 1132.3 416.1)" class="st12 st9 st3">Soult</text>
<line class="st10" x1="1097" y1="419.2" x2="1127" y2="404.2"/>
<text transform="matrix(1 0 0 1 1142.9 481.2)" class="st12 st2 st7">XXX</text>
<rect x="1135.3" y="482.6" class="st13" width="30" height="15"/>
<text transform="matrix(1 0 0 1 1170.5 494.5)" class="st12 st9 st3">Davout</text>
<text transform="matrix(1 0 0 1 1143.2 494.9)" class="st12 st2 st15">III</text>
<line class="st10" x1="1135.3" y1="497.6" x2="1165.3" y2="482.6"/>
<text transform="matrix(1 0 0 1 1054.5 544.2)" class="st12 st2 st7">XXX</text>
<rect x="1046.9" y="545.6" class="st13" width="30" height="15"/>
<text transform="matrix(1 0 0 1 1057.1 557.9)" class="st12 st2 st15">II</text>
<text transform="matrix(1 0 0 1 1082.2 557.5)" class="st12 st9 st3">Marmont</text>
<line class="st10" x1="1046.9" y1="560.6" x2="1076.9" y2="545.6"/>
<text transform="matrix(1 0 0 1 1077.9 461.3)" class="st12 st2 st7">XXX</text>
<rect x="1070.3" y="462.7" class="st13" width="30" height="15"/>
<text transform="matrix(1 0 0 1 1082.8 475.1)" class="st12 st2 st15">I</text>
<text transform="matrix(1 0 0 1 1105.5 474.6)" class="st12 st9 st3">Bernado</text>
<text transform="matrix(1 0 0 1 1154.3 474.6)" class="st12 st9 st3">t</text>
<text transform="matrix(1 0 0 1 1159.4 474.6)" class="st12 st9 st3">te</text>
<line class="st10" x1="1070.3" y1="477.7" x2="1100.3" y2="462.7"/>
</svg>
