<?xml version="1.0" encoding="utf-8"?>
<!-- Generator: Adobe Illustrator 21.1.0, SVG Export Plug-In . SVG Version: 6.00 Build 0)  -->
<svg version="1.1" id="Troop_Movements_by_Day_10_16_Revisions"
	 xmlns="http://www.w3.org/2000/svg" xmlns:xlink="http://www.w3.org/1999/xlink" x="0px" y="0px" viewBox="0 0 1440 910"
	 style="enable-background:new 0 0 1440 910;" xml:space="preserve">
<style type="text/css">
	.st0{opacity:0.5;fill:#FFFFFF;enable-background:new    ;}
	.st1{fill:#BF7C00;}
	.st2{font-family:'DroidSans';}
	.st3{font-size:12px;}
	.st4{fill:none;stroke:#999999;stroke-width:3;stroke-linecap:round;stroke-miterlimit:10;}
	.st5{fill:#999999;}
	.st6{fill:#ED2939;stroke:#ED2939;}
	.st7{fill:none;stroke:#0072BB;stroke-width:3;stroke-linecap:round;stroke-linejoin:round;}
	.st8{fill:#0072BB;}
	.st9{fill:#ED2939;}
	.st10{font-size:9px;}
	.st11{fill:#FFFFFF;stroke:#ED2939;stroke-width:0.75;stroke-miterlimit:10;}
	.st12{font-family:'DroidSans-Bold';}
	.st13{fill:none;}
	.st14{fill:#FFFFFF;stroke:#BF7C00;stroke-width:0.75;stroke-miterlimit:10;}
	.st15{fill:#FFFFFF;stroke:#0072BB;stroke-width:0.75;stroke-miterlimit:10;}
	.st16{fill:none;stroke:#0072BB;stroke-width:0.75;stroke-miterlimit:10;}
	.st17{font-size:13.5px;}
</style>
<rect x="1184.6" y="33.7" class="st0" width="117" height="97.3"/>
<text transform="matrix(1 0 0 1 1191.2 110.6)" class="st1 st2 st3">Approaching</text>
<line class="st4" x1="1191.2" y1="119.4" x2="1216.8" y2="119.4"/>
<polygon class="st5" points="1229.5,119.4 1211.6,126.7 1215.8,119.4 1211.6,112.1 "/>
<ellipse class="st6" cx="726.4" cy="814.5" rx="4.5" ry="4.5"/>
<path class="st7" d="M739.8,425.3c10-0.3,18-4.9,23.9-13h2.5"/>
<polygon class="st8" points="778.1,407.9 763.4,420.4 765.2,412.1 758.8,406.5 "/>
<path class="st7" d="M749.3,424.6c3.3-1.5,4.9-3.8,8.4-1.5c0.9-0.1,3.9-1.3,7.4-2.4"/>
<polygon class="st8" points="776.9,416 762.8,429.3 764.2,420.9 757.6,415.6 "/>
<path class="st7" d="M744.2,442.4c8,1.6,15.2,6.2,22.6,8.6"/>
<polygon class="st8" points="779.1,454.4 759.9,456.5 766,450.6 763.9,442.4 "/>
<path class="st7" d="M781.6,455.4L781.6,455.4c1.8,0.5,7.2,1.9,11.9,3.3"/>
<polygon class="st8" points="804.7,464.5 785.4,463.3 792.4,458.5 791.8,450.1 "/>
<text transform="matrix(1 0 0 1 569.8 560.5)" class="st9 st2 st10">XXX</text>
<rect x="562.2" y="561.9" class="st11" width="30" height="15"/>
<text transform="matrix(1 0 0 1 598.4 573.8)" class="st9 st12 st3">John</text>
<line class="st13" x1="562.2" y1="576.9" x2="592.2" y2="561.9"/>
<text transform="matrix(1 0 0 1 1205.5 392.8)" class="st9 st2 st10">XXXX</text>
<rect x="1200.4" y="394.3" class="st11" width="30" height="15"/>
<text transform="matrix(1 0 0 1 1235.6 406.1)" class="st9 st12 st3">Auerspe</text>
<text transform="matrix(1 0 0 1 1283.1 406.1)" class="st9 st12 st3">r</text>
<text transform="matrix(1 0 0 1 1288.2 406.1)" class="st9 st12 st3">g</text>
<line class="st13" x1="1200.4" y1="409.3" x2="1230.4" y2="394.3"/>
<text transform="matrix(1 0 0 1 915.5 455.7)" class="st9 st2 st10">XX</text>
<rect x="905.4" y="457.1" class="st11" width="30" height="15"/>
<text transform="matrix(1 0 0 1 940.6 469)" class="st9 st12 st3">Kienmayer</text>
<line class="st13" x1="905.4" y1="472.1" x2="935.4" y2="457.1"/>
<text transform="matrix(1 0 0 1 967 443.1)" class="st9 st2 st10">XXXX</text>
<rect x="961.8" y="444.5" class="st11" width="30" height="15"/>
<text transform="matrix(1 0 0 1 997.1 456.4)" class="st9 st12 st3">Merveldt</text>
<line class="st13" x1="961.8" y1="459.5" x2="991.8" y2="444.5"/>
<text transform="matrix(1 0 0 1 1196.6 46.2)" class="st1 st2 st10">XXXX</text>
<rect x="1191.4" y="47.6" class="st14" width="30" height="15"/>
<text transform="matrix(1 0 0 1 1226.7 59.5)" class="st1 st12 st3">Bennigsen</text>
<line class="st13" x1="1191.4" y1="62.6" x2="1221.4" y2="47.6"/>
<text transform="matrix(1 0 0 1 724.7 802.3)" class="st9 st2 st10">XXX</text>
<rect x="717.1" y="803.7" class="st11" width="30" height="15"/>
<text transform="matrix(1 0 0 1 752.3 815.6)" class="st9 st12 st3">Charles</text>
<line class="st13" x1="717.1" y1="818.7" x2="747.1" y2="803.7"/>
<text transform="matrix(1 0 0 1 1196.6 76.2)" class="st1 st2 st10">XXXX</text>
<rect x="1191.4" y="77.6" class="st14" width="30" height="15"/>
<text transform="matrix(1 0 0 1 1226.7 89.5)" class="st1 st12 st3">Buxhöwden</text>
<line class="st13" x1="1191.4" y1="92.6" x2="1221.4" y2="77.6"/>
<text transform="matrix(1 0 0 1 946.4 420.2)" class="st1 st2 st10">XXXX</text>
<rect x="941.2" y="421.7" class="st14" width="30" height="15"/>
<text transform="matrix(1 0 0 1 976.5 433.5)" class="st1 st12 st3">Kutu</text>
<text transform="matrix(1 0 0 1 1004.1 433.5)" class="st1 st12 st3">z</text>
<text transform="matrix(1 0 0 1 1009.5 433.5)" class="st1 st12 st3">ov</text>
<line class="st13" x1="941.2" y1="436.7" x2="971.2" y2="421.7"/>
<text transform="matrix(1 0 0 1 668.2 394)" class="st8 st2 st10">XXXX</text>
<rect x="663" y="395.5" class="st15" width="30" height="15"/>
<text transform="matrix(1 0 0 1 698.3 407.3)" class="st8 st12 st3">Napoleon</text>
<line class="st13" x1="663" y1="410.5" x2="693" y2="395.5"/>
<text transform="matrix(1 0 0 1 799.6 371.6)" class="st8 st2 st10">XXX</text>
<rect x="792" y="373" class="st15" width="30" height="15"/>
<text transform="matrix(1 0 0 1 827.2 384.9)" class="st8 st12 st3">Mu</text>
<text transform="matrix(1 0 0 1 845.7 384.9)" class="st8 st12 st3">r</text>
<text transform="matrix(1 0 0 1 850.8 384.9)" class="st8 st12 st3">at</text>
<line class="st16" x1="792" y1="388" x2="822" y2="373"/>
<text transform="matrix(1 0 0 1 285.9 440.6)" class="st8 st2 st10">XXXX</text>
<rect x="280.7" y="442" class="st15" width="30" height="15"/>
<text transform="matrix(1 0 0 1 287 454.3)" class="st8 st2 st17">VII</text>
<text transform="matrix(1 0 0 1 220.3 453.9)" class="st8 st12 st3">Augereau</text>
<line class="st13" x1="280.7" y1="457" x2="310.7" y2="442"/>
<text transform="matrix(1 0 0 1 604.9 446.5)" class="st8 st2 st10">XXX</text>
<rect x="597.3" y="447.9" class="st15" width="30" height="15"/>
<text transform="matrix(1 0 0 1 605.9 460.2)" class="st8 st2 st17">VI</text>
<text transform="matrix(1 0 0 1 569.6 459.8)" class="st8 st12 st3">Ney</text>
<line class="st13" x1="597.3" y1="462.9" x2="627.3" y2="447.9"/>
<text transform="matrix(1 0 0 1 847.4 392.5)" class="st8 st2 st10">XXX</text>
<rect x="839.8" y="393.9" class="st15" width="30" height="15"/>
<text transform="matrix(1 0 0 1 875 405.8)" class="st8 st12 st3">Lannes</text>
<text transform="matrix(1 0 0 1 850.7 406.3)" class="st8 st2 st17">V</text>
<line class="st13" x1="839.8" y1="408.9" x2="869.8" y2="393.9"/>
<text transform="matrix(1 0 0 1 783.5 402.3)" class="st8 st2 st10">XXX</text>
<rect x="775.9" y="403.7" class="st15" width="30" height="15"/>
<text transform="matrix(1 0 0 1 784.5 416)" class="st8 st2 st17">IV</text>
<text transform="matrix(1 0 0 1 811.1 415.6)" class="st8 st12 st3">Soult</text>
<line class="st13" x1="775.9" y1="418.7" x2="805.9" y2="403.7"/>
<text transform="matrix(1 0 0 1 799.2 427.2)" class="st8 st2 st10">XXX</text>
<rect x="791.6" y="428.6" class="st15" width="30" height="15"/>
<text transform="matrix(1 0 0 1 826.8 440.5)" class="st8 st12 st3">Davout</text>
<text transform="matrix(1 0 0 1 799.5 440.9)" class="st8 st2 st17">III</text>
<line class="st13" x1="791.6" y1="443.6" x2="821.6" y2="428.6"/>
<text transform="matrix(1 0 0 1 683.1 450.6)" class="st8 st2 st10">XXX</text>
<rect x="675.5" y="452" class="st15" width="30" height="15"/>
<text transform="matrix(1 0 0 1 685.7 464.3)" class="st8 st2 st17">II</text>
<text transform="matrix(1 0 0 1 710.8 463.9)" class="st8 st12 st3">Marmont</text>
<line class="st13" x1="675.5" y1="467" x2="705.5" y2="452"/>
<text transform="matrix(1 0 0 1 772.7 466.7)" class="st8 st2 st10">XXX</text>
<rect x="765.1" y="468.1" class="st15" width="30" height="15"/>
<text transform="matrix(1 0 0 1 777.6 480.4)" class="st8 st2 st17">I</text>
<text transform="matrix(1 0 0 1 800.4 480)" class="st8 st12 st3">Bernado</text>
<text transform="matrix(1 0 0 1 849.2 480)" class="st8 st12 st3">t</text>
<text transform="matrix(1 0 0 1 854.3 480)" class="st8 st12 st3">te</text>
<line class="st13" x1="765.1" y1="483.1" x2="795.1" y2="468.1"/>
<text transform="matrix(1 0 0 1 491 524.8)" class="st9 st2 st10">XX</text>
<rect x="480.9" y="526.2" class="st11" width="30" height="15"/>
<text transform="matrix(1 0 0 1 516.2 538.1)" class="st9 st12 st3">Jellachich</text>
<line class="st13" x1="480.9" y1="541.2" x2="510.9" y2="526.2"/>
</svg>
