<?xml version="1.0" encoding="utf-8"?>
<!-- Generator: Adobe Illustrator 21.1.0, SVG Export Plug-In . SVG Version: 6.00 Build 0)  -->
<svg version="1.1" id="Troop_Movements_by_Day_10_16_Revisions"
	 xmlns="http://www.w3.org/2000/svg" xmlns:xlink="http://www.w3.org/1999/xlink" x="0px" y="0px" viewBox="0 0 1440 910"
	 style="enable-background:new 0 0 1440 910;" xml:space="preserve">
<style type="text/css">
	.st0{opacity:0.5;fill:#FFFFFF;enable-background:new    ;}
	.st1{fill:#BF7C00;}
	.st2{font-family:'DroidSans';}
	.st3{font-size:12px;}
	.st4{fill:none;stroke:#999999;stroke-width:3;stroke-linecap:round;stroke-miterlimit:10;}
	.st5{fill:#999999;}
	.st6{fill:#ED2939;}
	.st7{font-size:9px;}
	.st8{fill:#FFFFFF;stroke:#ED2939;stroke-width:0.75;stroke-miterlimit:10;}
	.st9{font-family:'DroidSans-Bold';}
	.st10{fill:none;}
	.st11{fill:#FFFFFF;stroke:#BF7C00;stroke-width:0.75;stroke-miterlimit:10;}
	.st12{fill:#0072BB;}
	.st13{fill:#FFFFFF;stroke:#0072BB;stroke-width:0.75;stroke-miterlimit:10;}
	.st14{fill:none;stroke:#0072BB;stroke-width:0.75;stroke-miterlimit:10;}
	.st15{font-size:13.5px;}
</style>
<rect x="1184.6" y="33.7" class="st0" width="117" height="97.3"/>
<text transform="matrix(1 0 0 1 1191.2 110.6)" class="st1 st2 st3">Approaching</text>
<line class="st4" x1="1191.2" y1="119.4" x2="1216.8" y2="119.4"/>
<polygon class="st5" points="1229.5,119.4 1211.6,126.7 1215.8,119.4 1211.6,112.1 "/>
<text transform="matrix(1 0 0 1 639.8 600.5)" class="st6 st2 st7">XXX</text>
<rect x="632.2" y="601.9" class="st8" width="30" height="15"/>
<text transform="matrix(1 0 0 1 668.4 613.8)" class="st6 st9 st3">John</text>
<line class="st10" x1="632.2" y1="616.9" x2="662.2" y2="601.9"/>
<text transform="matrix(1 0 0 1 1205.5 392.8)" class="st6 st2 st7">XXXX</text>
<rect x="1200.4" y="394.3" class="st8" width="30" height="15"/>
<text transform="matrix(1 0 0 1 1235.6 406.1)" class="st6 st9 st3">Auerspe</text>
<text transform="matrix(1 0 0 1 1283.1 406.1)" class="st6 st9 st3">r</text>
<text transform="matrix(1 0 0 1 1288.2 406.1)" class="st6 st9 st3">g</text>
<line class="st10" x1="1200.4" y1="409.3" x2="1230.4" y2="394.3"/>
<text transform="matrix(1 0 0 1 1028.9 424)" class="st6 st2 st7">XX</text>
<rect x="1018.8" y="425.4" class="st8" width="30" height="15"/>
<text transform="matrix(1 0 0 1 1054.1 437.3)" class="st6 st9 st3">Kienmayer</text>
<line class="st10" x1="1018.8" y1="440.4" x2="1048.8" y2="425.4"/>
<text transform="matrix(1 0 0 1 1014.7 472.8)" class="st6 st2 st7">XXXX</text>
<rect x="1009.6" y="474.2" class="st8" width="30" height="15"/>
<text transform="matrix(1 0 0 1 1044.8 486.1)" class="st6 st9 st3">Merveldt</text>
<line class="st10" x1="1009.6" y1="489.2" x2="1039.6" y2="474.2"/>
<text transform="matrix(1 0 0 1 1196.6 46.2)" class="st1 st2 st7">XXXX</text>
<rect x="1191.4" y="47.6" class="st11" width="30" height="15"/>
<text transform="matrix(1 0 0 1 1226.7 59.5)" class="st1 st9 st3">Bennigsen</text>
<line class="st10" x1="1191.4" y1="62.6" x2="1221.4" y2="47.6"/>
<text transform="matrix(1 0 0 1 968.2 771.1)" class="st6 st2 st7">XXX</text>
<rect x="960.6" y="772.5" class="st8" width="30" height="15"/>
<text transform="matrix(1 0 0 1 995.8 784.4)" class="st6 st9 st3">Charles</text>
<line class="st10" x1="960.6" y1="787.5" x2="990.6" y2="772.5"/>
<text transform="matrix(1 0 0 1 1196.6 76.2)" class="st1 st2 st7">XXXX</text>
<rect x="1191.4" y="77.6" class="st11" width="30" height="15"/>
<text transform="matrix(1 0 0 1 1226.7 89.5)" class="st1 st9 st3">Buxhöwden</text>
<line class="st10" x1="1191.4" y1="92.6" x2="1221.4" y2="77.6"/>
<text transform="matrix(1 0 0 1 1062.6 444.5)" class="st1 st2 st7">XXXX</text>
<rect x="1057.4" y="445.9" class="st11" width="30" height="15"/>
<text transform="matrix(1 0 0 1 1092.7 457.8)" class="st1 st9 st3">Kutu</text>
<text transform="matrix(1 0 0 1 1120.2999 457.8)" class="st1 st9 st3">z</text>
<text transform="matrix(1 0 0 1 1125.7 457.8)" class="st1 st9 st3">ov</text>
<line class="st10" x1="1057.4" y1="460.9" x2="1087.4" y2="445.9"/>
<text transform="matrix(1 0 0 1 931.5 372.8)" class="st12 st2 st7">XXXX</text>
<rect x="926.4" y="374.2" class="st13" width="30" height="15"/>
<text transform="matrix(1 0 0 1 961.6 386.1)" class="st12 st9 st3">Napoleon</text>
<line class="st10" x1="926.4" y1="389.2" x2="956.4" y2="374.2"/>
<text transform="matrix(1 0 0 1 954.3 421.1)" class="st12 st2 st7">XXX</text>
<rect x="946.7" y="422.5" class="st13" width="30" height="15"/>
<text transform="matrix(1 0 0 1 981.9 434.4)" class="st12 st9 st3">Mu</text>
<text transform="matrix(1 0 0 1 1000.4 434.4)" class="st12 st9 st3">r</text>
<text transform="matrix(1 0 0 1 1005.5 434.4)" class="st12 st9 st3">at</text>
<line class="st14" x1="946.7" y1="437.5" x2="976.7" y2="422.5"/>
<text transform="matrix(1 0 0 1 530.4 472.7)" class="st12 st2 st7">XXXX</text>
<rect x="525.2" y="474.1" class="st13" width="30" height="15"/>
<text transform="matrix(1 0 0 1 531.5 486.4)" class="st12 st2 st15">VII</text>
<text transform="matrix(1 0 0 1 464.8 486)" class="st12 st9 st3">Augereau</text>
<line class="st10" x1="525.2" y1="489.1" x2="555.2" y2="474.1"/>
<text transform="matrix(1 0 0 1 634.7 548.1)" class="st12 st2 st7">XXX</text>
<rect x="627" y="549.5" class="st13" width="30" height="15"/>
<text transform="matrix(1 0 0 1 635.7 561.8)" class="st12 st2 st15">VI</text>
<text transform="matrix(1 0 0 1 599.3 561.4)" class="st12 st9 st3">Ney</text>
<line class="st10" x1="627" y1="564.5" x2="657" y2="549.5"/>
<text transform="matrix(1 0 0 1 919.3 397.3)" class="st12 st2 st7">XXX</text>
<rect x="911.7" y="398.7" class="st13" width="30" height="15"/>
<text transform="matrix(1 0 0 1 946.9 410.6)" class="st12 st9 st3">Lannes</text>
<text transform="matrix(1 0 0 1 922.6 411)" class="st12 st2 st15">V</text>
<line class="st10" x1="911.7" y1="413.7" x2="941.7" y2="398.7"/>
<text transform="matrix(1 0 0 1 885.7 409.9)" class="st12 st2 st7">XXX</text>
<rect x="878.1" y="411.3" class="st13" width="30" height="15"/>
<text transform="matrix(1 0 0 1 886.7 423.6)" class="st12 st2 st15">IV</text>
<text transform="matrix(1 0 0 1 913.4 423.2)" class="st12 st9 st3">Soult</text>
<line class="st10" x1="878.1" y1="426.3" x2="908.1" y2="411.3"/>
<text transform="matrix(1 0 0 1 986.1 444.5)" class="st12 st2 st7">XXX</text>
<rect x="978.4" y="445.9" class="st13" width="30" height="15"/>
<text transform="matrix(1 0 0 1 1013.7 457.8)" class="st12 st9 st3">Davout</text>
<text transform="matrix(1 0 0 1 986.3 458.3)" class="st12 st2 st15">III</text>
<line class="st10" x1="978.4" y1="460.9" x2="1008.4" y2="445.9"/>
<text transform="matrix(1 0 0 1 924 458.2)" class="st12 st2 st7">XXX</text>
<rect x="916.4" y="459.6" class="st13" width="30" height="15"/>
<text transform="matrix(1 0 0 1 926.6 471.9)" class="st12 st2 st15">II</text>
<text transform="matrix(1 0 0 1 951.6 471.5)" class="st12 st9 st3">Marmont</text>
<line class="st10" x1="916.4" y1="474.6" x2="946.4" y2="459.6"/>
<text transform="matrix(1 0 0 1 884 435.2)" class="st12 st2 st7">XXX</text>
<rect x="876.4" y="436.7" class="st13" width="30" height="15"/>
<text transform="matrix(1 0 0 1 888.9 449)" class="st12 st2 st15">I</text>
<text transform="matrix(1 0 0 1 911.7 448.5)" class="st12 st9 st3">Bernado</text>
<text transform="matrix(1 0 0 1 960.5 448.5)" class="st12 st9 st3">t</text>
<text transform="matrix(1 0 0 1 965.6 448.5)" class="st12 st9 st3">te</text>
<line class="st10" x1="876.4" y1="451.7" x2="906.4" y2="436.7"/>
<text transform="matrix(1 0 0 1 491 524.8)" class="st6 st2 st7">XX</text>
<rect x="480.9" y="526.2" class="st8" width="30" height="15"/>
<text transform="matrix(1 0 0 1 516.2 538.1)" class="st6 st9 st3">Jellachich</text>
<line class="st10" x1="480.9" y1="541.2" x2="510.9" y2="526.2"/>
</svg>
