<?xml version="1.0" encoding="utf-8"?>
<!-- Generator: Adobe Illustrator 21.1.0, SVG Export Plug-In . SVG Version: 6.00 Build 0)  -->
<svg version="1.1" id="Troop_Movements_by_Day_10_16_Revisions"
	 xmlns="http://www.w3.org/2000/svg" xmlns:xlink="http://www.w3.org/1999/xlink" x="0px" y="0px" viewBox="0 0 1440 910"
	 style="enable-background:new 0 0 1440 910;" xml:space="preserve">
<style type="text/css">
	.st0{fill:none;}
	.st1{opacity:0.5;fill:#FFFFFF;enable-background:new    ;}
	.st2{fill:#BF7C00;}
	.st3{font-family:'DroidSans';}
	.st4{font-size:12px;}
	.st5{fill:none;stroke:#999999;stroke-width:3;stroke-linecap:round;stroke-miterlimit:10;}
	.st6{fill:#999999;}
	.st7{fill:none;stroke:#0072BB;stroke-width:3;stroke-linecap:round;stroke-linejoin:round;}
	.st8{fill:#0072BB;}
	.st9{fill:#ED2939;}
	.st10{font-size:9px;}
	.st11{fill:#FFFFFF;stroke:#ED2939;stroke-width:0.75;stroke-miterlimit:10;}
	.st12{font-family:'DroidSans-Bold';}
	.st13{fill:#FFFFFF;stroke:#BF7C00;stroke-width:0.75;stroke-miterlimit:10;}
	.st14{fill:#FFFFFF;stroke:#0072BB;stroke-width:0.75;stroke-miterlimit:10;}
	.st15{fill:none;stroke:#0072BB;stroke-width:0.75;stroke-miterlimit:10;}
	.st16{font-size:13.5px;}
</style>
<circle class="st0" cx="1194.8" cy="418.7" r="4.5"/>
<rect x="1184.6" y="33.7" class="st1" width="117" height="97.3"/>
<text transform="matrix(1 0 0 1 1191.2 110.6)" class="st2 st3 st4">Approaching</text>
<line class="st5" x1="1191.2" y1="119.4" x2="1216.8" y2="119.4"/>
<polygon class="st6" points="1229.5,119.4 1211.6,126.7 1215.8,119.4 1211.6,112.1 "/>
<path class="st7" d="M509.3,390.4c1.1,2.3,9.6,11.1,13.1,16c6.7-0.5,16.7-0.4,22.8,4.5s5.5,17,14.2,21.8c5.1,2.8,13.7,0.1,21.1,2.6
	c1.9,0.7,7.4,3.4,7.7,3.6s-0.3,0.5-0.2,0.5s0.1,0.3-0.2,0s0.3,0,0.2-0.1c0.1-0.1,0.1-0.3,0.1-0.4c0.3,0.1,0.1-1.9,0.2-1.8l1.2,0.9"
	/>
<polygon class="st8" points="600.3,444.7 581.2,441.4 588.7,437.5 588.9,429 "/>
<text transform="matrix(1 0 0 1 549.8 560.5)" class="st9 st3 st10">XXX</text>
<rect x="542.2" y="561.9" class="st11" width="30" height="15"/>
<text transform="matrix(1 0 0 1 578.4 573.8)" class="st9 st12 st4">John</text>
<line class="st0" x1="542.2" y1="576.9" x2="572.2" y2="561.9"/>
<text transform="matrix(1 0 0 1 1205.5 392.8)" class="st9 st3 st10">XXXX</text>
<rect x="1200.4" y="394.3" class="st11" width="30" height="15"/>
<text transform="matrix(1 0 0 1 1235.6 406.1)" class="st9 st12 st4">Auerspe</text>
<text transform="matrix(1 0 0 1 1283.1 406.1)" class="st9 st12 st4">r</text>
<text transform="matrix(1 0 0 1 1288.2 406.1)" class="st9 st12 st4">g</text>
<line class="st0" x1="1200.4" y1="409.3" x2="1230.4" y2="394.3"/>
<text transform="matrix(1 0 0 1 887.1 381.6)" class="st9 st3 st10">XX</text>
<rect x="877.1" y="383" class="st11" width="30" height="15"/>
<text transform="matrix(1 0 0 1 912.3 394.9)" class="st9 st12 st4">Kienmayer</text>
<line class="st0" x1="877.1" y1="398" x2="907.1" y2="383"/>
<text transform="matrix(1 0 0 1 923.3 441.3)" class="st9 st3 st10">XXXX</text>
<rect x="918.2" y="442.7" class="st11" width="30" height="15"/>
<text transform="matrix(1 0 0 1 953.4 454.6)" class="st9 st12 st4">Merveldt</text>
<line class="st0" x1="918.2" y1="457.7" x2="948.2" y2="442.7"/>
<text transform="matrix(1 0 0 1 1196.6 46.2)" class="st2 st3 st10">XXXX</text>
<rect x="1191.4" y="47.6" class="st13" width="30" height="15"/>
<text transform="matrix(1 0 0 1 1226.7 59.5)" class="st2 st12 st4">Bennigsen</text>
<line class="st0" x1="1191.4" y1="62.6" x2="1221.4" y2="47.6"/>
<text transform="matrix(1 0 0 1 694.7 812.3)" class="st9 st3 st10">XXX</text>
<rect x="687.1" y="813.7" class="st11" width="30" height="15"/>
<text transform="matrix(1 0 0 1 722.3 825.6)" class="st9 st12 st4">Charles</text>
<line class="st0" x1="687.1" y1="828.7" x2="717.1" y2="813.7"/>
<text transform="matrix(1 0 0 1 1196.6 76.2)" class="st2 st3 st10">XXXX</text>
<rect x="1191.4" y="77.6" class="st13" width="30" height="15"/>
<text transform="matrix(1 0 0 1 1226.7 89.5)" class="st2 st12 st4">Buxhöwden</text>
<line class="st0" x1="1191.4" y1="92.6" x2="1221.4" y2="77.6"/>
<text transform="matrix(1 0 0 1 881.5 411.9)" class="st2 st3 st10">XXXX</text>
<rect x="876.3" y="413.3" class="st13" width="30" height="15"/>
<text transform="matrix(1 0 0 1 911.6 425.2)" class="st2 st12 st4">Kutu</text>
<text transform="matrix(1 0 0 1 939.2 425.2)" class="st2 st12 st4">z</text>
<text transform="matrix(1 0 0 1 944.6 425.2)" class="st2 st12 st4">ov</text>
<line class="st0" x1="876.3" y1="428.3" x2="906.3" y2="413.3"/>
<text transform="matrix(1 0 0 1 607.1 457.2)" class="st8 st3 st10">XXXX</text>
<rect x="601.9" y="458.6" class="st14" width="30" height="15"/>
<text transform="matrix(1 0 0 1 637.2 470.5)" class="st8 st12 st4">Napoleon</text>
<line class="st0" x1="601.9" y1="473.6" x2="631.9" y2="458.6"/>
<text transform="matrix(1 0 0 1 789.6 420)" class="st8 st3 st10">XXX</text>
<rect x="782" y="421.4" class="st14" width="30" height="15"/>
<text transform="matrix(1 0 0 1 817.3 433.3)" class="st8 st12 st4">Mu</text>
<text transform="matrix(1 0 0 1 835.8 433.3)" class="st8 st12 st4">r</text>
<text transform="matrix(1 0 0 1 840.9 433.3)" class="st8 st12 st4">at</text>
<line class="st15" x1="782" y1="436.4" x2="812" y2="421.4"/>
<text transform="matrix(1 0 0 1 285.9 440.6)" class="st8 st3 st10">XXXX</text>
<rect x="280.7" y="442" class="st14" width="30" height="15"/>
<text transform="matrix(1 0 0 1 287 454.3)" class="st8 st3 st16">VII</text>
<text transform="matrix(1 0 0 1 220.3 453.9)" class="st8 st12 st4">Augereau</text>
<line class="st0" x1="280.7" y1="457" x2="310.7" y2="442"/>
<text transform="matrix(1 0 0 1 612.2 414)" class="st8 st3 st10">XXX</text>
<rect x="604.6" y="415.4" class="st14" width="30" height="15"/>
<text transform="matrix(1 0 0 1 613.2 427.7)" class="st8 st3 st16">VI</text>
<text transform="matrix(1 0 0 1 576.8 427.3)" class="st8 st12 st4">Ney</text>
<line class="st0" x1="604.6" y1="430.4" x2="634.6" y2="415.4"/>
<text transform="matrix(1 0 0 1 767.6 371.5)" class="st8 st3 st10">XXX</text>
<rect x="760" y="372.9" class="st14" width="30" height="15"/>
<text transform="matrix(1 0 0 1 795.3 384.8)" class="st8 st12 st4">Lannes</text>
<text transform="matrix(1 0 0 1 770.9 385.3)" class="st8 st3 st16">V</text>
<line class="st0" x1="760" y1="387.9" x2="790" y2="372.9"/>
<text transform="matrix(1 0 0 1 714.1 419.2)" class="st8 st3 st10">XXX</text>
<rect x="706.5" y="420.6" class="st14" width="30" height="15"/>
<text transform="matrix(1 0 0 1 715.1 432.9)" class="st8 st3 st16">IV</text>
<text transform="matrix(1 0 0 1 741.7 432.5)" class="st8 st12 st4">Soult</text>
<line class="st0" x1="706.5" y1="435.6" x2="736.5" y2="420.6"/>
<text transform="matrix(1 0 0 1 756.1 396.2)" class="st8 st3 st10">XXX</text>
<rect x="748.5" y="397.7" class="st14" width="30" height="15"/>
<text transform="matrix(1 0 0 1 783.8 409.5)" class="st8 st12 st4">Davout</text>
<text transform="matrix(1 0 0 1 756.4 410)" class="st8 st3 st16">III</text>
<line class="st0" x1="748.5" y1="412.7" x2="778.5" y2="397.7"/>
<text transform="matrix(1 0 0 1 703.9 458.2)" class="st8 st3 st10">XXX</text>
<rect x="696.2" y="459.6" class="st14" width="30" height="15"/>
<text transform="matrix(1 0 0 1 706.4 471.9)" class="st8 st3 st16">II</text>
<text transform="matrix(1 0 0 1 731.5 471.5)" class="st8 st12 st4">Marmont</text>
<line class="st0" x1="696.2" y1="474.6" x2="726.2" y2="459.6"/>
<text transform="matrix(1 0 0 1 744.8 442.3)" class="st8 st3 st10">XXX</text>
<rect x="737.2" y="443.7" class="st14" width="30" height="15"/>
<text transform="matrix(1 0 0 1 749.7 456)" class="st8 st3 st16">I</text>
<text transform="matrix(1 0 0 1 772.5 455.6)" class="st8 st12 st4">Bernado</text>
<text transform="matrix(1 0 0 1 821.3 455.6)" class="st8 st12 st4">t</text>
<text transform="matrix(1 0 0 1 826.4 455.6)" class="st8 st12 st4">te</text>
<line class="st0" x1="737.2" y1="458.7" x2="767.2" y2="443.7"/>
<text transform="matrix(1 0 0 1 491 524.8)" class="st9 st3 st10">XX</text>
<rect x="480.9" y="526.2" class="st11" width="30" height="15"/>
<text transform="matrix(1 0 0 1 516.2 538.1)" class="st9 st12 st4">Jellachich</text>
<line class="st0" x1="480.9" y1="541.2" x2="510.9" y2="526.2"/>
</svg>
