<?xml version="1.0" encoding="utf-8"?>
<!-- Generator: Adobe Illustrator 21.1.0, SVG Export Plug-In . SVG Version: 6.00 Build 0)  -->
<svg version="1.1" id="Troop_Movements_by_Day_10_16_Revisions"
	 xmlns="http://www.w3.org/2000/svg" xmlns:xlink="http://www.w3.org/1999/xlink" x="0px" y="0px" viewBox="0 0 1440 910"
	 style="enable-background:new 0 0 1440 910;" xml:space="preserve">
<style type="text/css">
	.st0{opacity:0.5;fill:#FFFFFF;enable-background:new    ;}
	.st1{fill:#BF7C00;}
	.st2{font-family:'DroidSans';}
	.st3{font-size:12px;}
	.st4{fill:none;stroke:#999999;stroke-width:3;stroke-linecap:round;stroke-miterlimit:10;}
	.st5{fill:#999999;}
	.st6{fill:#ED2939;}
	.st7{font-size:9px;}
	.st8{fill:#FFFFFF;stroke:#ED2939;stroke-width:0.75;stroke-miterlimit:10;}
	.st9{font-family:'DroidSans-Bold';}
	.st10{fill:none;}
	.st11{fill:#FFFFFF;stroke:#BF7C00;stroke-width:0.75;stroke-miterlimit:10;}
	.st12{fill:#0072BB;}
	.st13{fill:#FFFFFF;stroke:#0072BB;stroke-width:0.75;stroke-miterlimit:10;}
	.st14{fill:none;stroke:#0072BB;stroke-width:0.75;stroke-miterlimit:10;}
	.st15{font-size:13.5px;}
</style>
<rect x="1184.6" y="33.7" class="st0" width="117" height="97.3"/>
<text transform="matrix(1 0 0 1 1191.2 110.6)" class="st1 st2 st3">Approaching</text>
<line class="st4" x1="1191.2" y1="119.4" x2="1216.8" y2="119.4"/>
<polygon class="st5" points="1229.5,119.4 1211.6,126.7 1215.8,119.4 1211.6,112.1 "/>
<text transform="matrix(1 0 0 1 467.1 560.3)" class="st6 st2 st7">XX</text>
<rect x="457" y="561.7" class="st8" width="30" height="15"/>
<text transform="matrix(1 0 0 1 492.2 573.6)" class="st6 st9 st3">Jellachich</text>
<line class="st10" x1="457" y1="576.7" x2="487" y2="561.7"/>
<text transform="matrix(1 0 0 1 644.5 625.6)" class="st6 st2 st7">XXX</text>
<rect x="636.9" y="627" class="st8" width="30" height="15"/>
<text transform="matrix(1 0 0 1 673.2 638.9)" class="st6 st9 st3">John</text>
<line class="st10" x1="636.9" y1="642" x2="666.9" y2="627"/>
<text transform="matrix(1 0 0 1 1205.5 392.8)" class="st6 st2 st7">XXXX</text>
<rect x="1200.4" y="394.3" class="st8" width="30" height="15"/>
<text transform="matrix(1 0 0 1 1235.6 406.1)" class="st6 st9 st3">Auerspe</text>
<text transform="matrix(1 0 0 1 1283.1 406.1)" class="st6 st9 st3">r</text>
<text transform="matrix(1 0 0 1 1288.2 406.1)" class="st6 st9 st3">g</text>
<line class="st10" x1="1200.4" y1="409.3" x2="1230.4" y2="394.3"/>
<text transform="matrix(1 0 0 1 1242.5 437.6)" class="st6 st2 st7">XX</text>
<rect x="1232.4" y="439" class="st8" width="30" height="15"/>
<text transform="matrix(1 0 0 1 1267.7 450.9)" class="st6 st9 st3">Kienmayer</text>
<line class="st10" x1="1232.4" y1="454" x2="1262.4" y2="439"/>
<text transform="matrix(1 0 0 1 1196.6 46.2)" class="st1 st2 st7">XXXX</text>
<rect x="1191.4" y="47.6" class="st11" width="30" height="15"/>
<text transform="matrix(1 0 0 1 1226.7 59.5)" class="st1 st9 st3">Bennigsen</text>
<line class="st10" x1="1191.4" y1="62.6" x2="1221.4" y2="47.6"/>
<text transform="matrix(1 0 0 1 1108.2 701.1)" class="st6 st2 st7">XXX</text>
<rect x="1100.6" y="702.5" class="st8" width="30" height="15"/>
<text transform="matrix(1 0 0 1 1135.8 714.4)" class="st6 st9 st3">Charles</text>
<line class="st10" x1="1100.6" y1="717.5" x2="1130.6" y2="702.5"/>
<text transform="matrix(1 0 0 1 1196.6 76.2)" class="st1 st2 st7">XXXX</text>
<rect x="1191.4" y="77.6" class="st11" width="30" height="15"/>
<text transform="matrix(1 0 0 1 1226.7 89.5)" class="st1 st9 st3">Buxhöwden</text>
<line class="st10" x1="1191.4" y1="92.6" x2="1221.4" y2="77.6"/>
<text transform="matrix(1 0 0 1 1100.7 364.5)" class="st1 st2 st7">XXXX</text>
<rect x="1095.5" y="365.9" class="st11" width="30" height="15"/>
<text transform="matrix(1 0 0 1 1130.8 377.8)" class="st1 st9 st3">Kutu</text>
<text transform="matrix(1 0 0 1 1158.4 377.8)" class="st1 st9 st3">z</text>
<text transform="matrix(1 0 0 1 1163.8 377.8)" class="st1 st9 st3">ov</text>
<line class="st10" x1="1095.5" y1="380.9" x2="1125.5" y2="365.9"/>
<text transform="matrix(1 0 0 1 1045.7 392.5)" class="st12 st2 st7">XXX</text>
<rect x="1038" y="393.9" class="st13" width="30" height="15"/>
<text transform="matrix(1 0 0 1 989 405.8)" class="st12 st9 st3">Mortier</text>
<line class="st10" x1="1038" y1="408.9" x2="1068" y2="393.9"/>
<text transform="matrix(1 0 0 1 1051.4 460.2)" class="st12 st2 st7">XXXX</text>
<rect x="1046.3" y="461.7" class="st13" width="30" height="15"/>
<text transform="matrix(1 0 0 1 1081.5 473.5)" class="st12 st9 st3">Napoleon</text>
<line class="st10" x1="1046.3" y1="476.7" x2="1076.3" y2="461.7"/>
<text transform="matrix(1 0 0 1 1138 425.2)" class="st12 st2 st7">XXX</text>
<rect x="1130.4" y="426.6" class="st13" width="30" height="15"/>
<text transform="matrix(1 0 0 1 1165.6 438.5)" class="st12 st9 st3">Mu</text>
<text transform="matrix(1 0 0 1 1184.1 438.5)" class="st12 st9 st3">r</text>
<text transform="matrix(1 0 0 1 1189.2 438.5)" class="st12 st9 st3">at</text>
<line class="st14" x1="1130.4" y1="441.6" x2="1160.4" y2="426.6"/>
<text transform="matrix(1 0 0 1 481.1 521.1)" class="st12 st2 st7">XXXX</text>
<rect x="475.9" y="522.5" class="st13" width="30" height="15"/>
<text transform="matrix(1 0 0 1 482.3 534.9)" class="st12 st2 st15">VII</text>
<text transform="matrix(1 0 0 1 415.5 534.4)" class="st12 st9 st3">Augereau</text>
<line class="st10" x1="475.9" y1="537.5" x2="505.9" y2="522.5"/>
<text transform="matrix(1 0 0 1 631.7 548.1)" class="st12 st2 st7">XXX</text>
<rect x="624.1" y="549.5" class="st13" width="30" height="15"/>
<text transform="matrix(1 0 0 1 632.7 561.8)" class="st12 st2 st15">VI</text>
<text transform="matrix(1 0 0 1 596.3 561.4)" class="st12 st9 st3">Ney</text>
<line class="st10" x1="624.1" y1="564.5" x2="654.1" y2="549.5"/>
<text transform="matrix(1 0 0 1 1103.4 442.5)" class="st12 st2 st7">XXX</text>
<rect x="1095.8" y="443.9" class="st13" width="30" height="15"/>
<text transform="matrix(1 0 0 1 1131.1 455.8)" class="st12 st9 st3">Lannes</text>
<text transform="matrix(1 0 0 1 1106.7 456.2)" class="st12 st2 st15">V</text>
<line class="st10" x1="1095.8" y1="458.9" x2="1125.8" y2="443.9"/>
<text transform="matrix(1 0 0 1 1081.2 405.2)" class="st12 st2 st7">XXX</text>
<rect x="1073.6" y="406.6" class="st13" width="30" height="15"/>
<text transform="matrix(1 0 0 1 1082.2 418.9)" class="st12 st2 st15">IV</text>
<text transform="matrix(1 0 0 1 1108.8 418.5)" class="st12 st9 st3">Soult</text>
<line class="st10" x1="1073.6" y1="421.6" x2="1103.6" y2="406.6"/>
<text transform="matrix(1 0 0 1 1152.7 463.5)" class="st12 st2 st7">XXX</text>
<rect x="1145.1" y="464.9" class="st13" width="30" height="15"/>
<text transform="matrix(1 0 0 1 1180.3 476.8)" class="st12 st9 st3">Davout</text>
<text transform="matrix(1 0 0 1 1153 477.2)" class="st12 st2 st15">III</text>
<line class="st10" x1="1145.1" y1="479.9" x2="1175.1" y2="464.9"/>
<text transform="matrix(1 0 0 1 1061.1 539)" class="st12 st2 st7">XXX</text>
<rect x="1053.5" y="540.4" class="st13" width="30" height="15"/>
<text transform="matrix(1 0 0 1 1063.7 552.7)" class="st12 st2 st15">II</text>
<text transform="matrix(1 0 0 1 1088.7 552.3)" class="st12 st9 st3">Marmont</text>
<line class="st10" x1="1053.5" y1="555.4" x2="1083.5" y2="540.4"/>
<text transform="matrix(1 0 0 1 1030.1 420.8)" class="st12 st2 st7">XXX</text>
<rect x="1022.5" y="422.2" class="st13" width="30" height="15"/>
<text transform="matrix(1 0 0 1 1035 434.5)" class="st12 st2 st15">I</text>
<text transform="matrix(1 0 0 1 1057.8 434.1)" class="st12 st9 st3">Bernado</text>
<text transform="matrix(1 0 0 1 1106.6001 434.1)" class="st12 st9 st3">t</text>
<text transform="matrix(1 0 0 1 1111.7001 434.1)" class="st12 st9 st3">te</text>
<line class="st10" x1="1022.5" y1="437.2" x2="1052.5" y2="422.2"/>
</svg>
