<?xml version="1.0" encoding="utf-8"?>
<!-- Generator: Adobe Illustrator 21.1.0, SVG Export Plug-In . SVG Version: 6.00 Build 0)  -->
<svg version="1.1" id="Troop_Movements_by_Day_10_16_Revisions"
	 xmlns="http://www.w3.org/2000/svg" xmlns:xlink="http://www.w3.org/1999/xlink" x="0px" y="0px" viewBox="0 0 1440 910"
	 style="enable-background:new 0 0 1440 910;" xml:space="preserve">
<style type="text/css">
	.st0{fill:none;}
	.st1{opacity:0.5;fill:#FFFFFF;enable-background:new    ;}
	.st2{fill:#BF7C00;}
	.st3{font-family:'DroidSans';}
	.st4{font-size:12px;}
	.st5{fill:none;stroke:#999999;stroke-width:3;stroke-linecap:round;stroke-miterlimit:10;}
	.st6{fill:#999999;}
	.st7{fill:none;stroke:#0072BB;stroke-width:3;stroke-linecap:round;stroke-linejoin:round;}
	.st8{fill:#0072BB;}
	.st9{fill:#ED2939;}
	.st10{font-size:9px;}
	.st11{fill:#FFFFFF;stroke:#ED2939;stroke-width:0.75;stroke-miterlimit:10;}
	.st12{font-family:'DroidSans-Bold';}
	.st13{fill:#FFFFFF;stroke:#BF7C00;stroke-width:0.75;stroke-miterlimit:10;}
	.st14{fill:#FFFFFF;stroke:#0072BB;stroke-width:0.75;stroke-miterlimit:10;}
	.st15{fill:none;stroke:#0072BB;stroke-width:0.75;stroke-miterlimit:10;}
	.st16{font-size:13.5px;}
</style>
<circle class="st0" cx="1194.8" cy="418.7" r="4.5"/>
<rect x="1184.6" y="33.7" class="st1" width="117" height="97.3"/>
<text transform="matrix(1 0 0 1 1191.2 110.6)" class="st2 st3 st4">Approaching</text>
<line class="st5" x1="1191.2" y1="119.4" x2="1216.8" y2="119.4"/>
<polygon class="st6" points="1229.5,119.4 1211.6,126.7 1215.8,119.4 1211.6,112.1 "/>
<path class="st7" d="M804.7,464.5c1.1,0.4,11.9,7.2,18.3,9.6"/>
<polygon class="st8" points="834,480.5 814.8,478 822.1,473.8 822,465.3 "/>
<text transform="matrix(1 0 0 1 569.8 570.5)" class="st9 st3 st10">XXX</text>
<rect x="562.2" y="571.9" class="st11" width="30" height="15"/>
<text transform="matrix(1 0 0 1 598.4 583.8)" class="st9 st12 st4">John</text>
<line class="st0" x1="562.2" y1="586.9" x2="592.2" y2="571.9"/>
<text transform="matrix(1 0 0 1 1205.5 392.8)" class="st9 st3 st10">XXXX</text>
<rect x="1200.4" y="394.3" class="st11" width="30" height="15"/>
<text transform="matrix(1 0 0 1 1235.6 406.1)" class="st9 st12 st4">Auerspe</text>
<text transform="matrix(1 0 0 1 1283.1 406.1)" class="st9 st12 st4">r</text>
<text transform="matrix(1 0 0 1 1288.2 406.1)" class="st9 st12 st4">g</text>
<line class="st0" x1="1200.4" y1="409.3" x2="1230.4" y2="394.3"/>
<text transform="matrix(1 0 0 1 986.4 427.8)" class="st9 st3 st10">XX</text>
<rect x="976.3" y="429.2" class="st11" width="30" height="15"/>
<text transform="matrix(1 0 0 1 1011.6 441.1)" class="st9 st12 st4">Kienmayer</text>
<line class="st0" x1="976.3" y1="444.2" x2="1006.3" y2="429.2"/>
<text transform="matrix(1 0 0 1 969.4 457.5)" class="st9 st3 st10">XXXX</text>
<rect x="964.2" y="458.9" class="st11" width="30" height="15"/>
<text transform="matrix(1 0 0 1 999.5 470.8)" class="st9 st12 st4">Merveldt</text>
<line class="st0" x1="964.2" y1="473.9" x2="994.2" y2="458.9"/>
<text transform="matrix(1 0 0 1 1196.6 46.2)" class="st2 st3 st10">XXXX</text>
<rect x="1191.4" y="47.6" class="st13" width="30" height="15"/>
<text transform="matrix(1 0 0 1 1226.7 59.5)" class="st2 st12 st4">Bennigsen</text>
<line class="st0" x1="1191.4" y1="62.6" x2="1221.4" y2="47.6"/>
<text transform="matrix(1 0 0 1 782.1 792.5)" class="st9 st3 st10">XXX</text>
<rect x="774.5" y="793.9" class="st11" width="30" height="15"/>
<text transform="matrix(1 0 0 1 809.7 805.8)" class="st9 st12 st4">Charles</text>
<line class="st0" x1="774.5" y1="808.9" x2="804.5" y2="793.9"/>
<text transform="matrix(1 0 0 1 1196.6 76.2)" class="st2 st3 st10">XXXX</text>
<rect x="1191.4" y="77.6" class="st13" width="30" height="15"/>
<text transform="matrix(1 0 0 1 1226.7 89.5)" class="st2 st12 st4">Buxhöwden</text>
<line class="st0" x1="1191.4" y1="92.6" x2="1221.4" y2="77.6"/>
<text transform="matrix(1 0 0 1 960.8 403.2)" class="st2 st3 st10">XXXX</text>
<rect x="955.7" y="404.6" class="st13" width="30" height="15"/>
<text transform="matrix(1 0 0 1 990.9 416.5)" class="st2 st12 st4">Kutu</text>
<text transform="matrix(1 0 0 1 1018.5 416.5)" class="st2 st12 st4">z</text>
<text transform="matrix(1 0 0 1 1023.9 416.5)" class="st2 st12 st4">ov</text>
<line class="st0" x1="955.7" y1="419.6" x2="985.7" y2="404.6"/>
<text transform="matrix(1 0 0 1 796.6 367.7)" class="st8 st3 st10">XXXX</text>
<rect x="791.5" y="369.1" class="st14" width="30" height="15"/>
<text transform="matrix(1 0 0 1 826.7 381)" class="st8 st12 st4">Napoleon</text>
<line class="st0" x1="791.5" y1="384.1" x2="821.5" y2="369.1"/>
<text transform="matrix(1 0 0 1 885.1 411.1)" class="st8 st3 st10">XXX</text>
<rect x="877.5" y="412.5" class="st14" width="30" height="15"/>
<text transform="matrix(1 0 0 1 912.8 424.4)" class="st8 st12 st4">Mu</text>
<text transform="matrix(1 0 0 1 931.3 424.4)" class="st8 st12 st4">r</text>
<text transform="matrix(1 0 0 1 936.4 424.4)" class="st8 st12 st4">at</text>
<line class="st15" x1="877.5" y1="427.5" x2="907.5" y2="412.5"/>
<text transform="matrix(1 0 0 1 285.9 440.6)" class="st8 st3 st10">XXXX</text>
<rect x="280.7" y="442" class="st14" width="30" height="15"/>
<text transform="matrix(1 0 0 1 287 454.3)" class="st8 st3 st16">VII</text>
<text transform="matrix(1 0 0 1 220.3 453.9)" class="st8 st12 st4">Augereau</text>
<line class="st0" x1="280.7" y1="457" x2="310.7" y2="442"/>
<text transform="matrix(1 0 0 1 604.9 446.5)" class="st8 st3 st10">XXX</text>
<rect x="597.3" y="447.9" class="st14" width="30" height="15"/>
<text transform="matrix(1 0 0 1 605.9 460.2)" class="st8 st3 st16">VI</text>
<text transform="matrix(1 0 0 1 569.6 459.8)" class="st8 st12 st4">Ney</text>
<line class="st0" x1="597.3" y1="462.9" x2="627.3" y2="447.9"/>
<text transform="matrix(1 0 0 1 847.4 388.4)" class="st8 st3 st10">XXX</text>
<rect x="839.8" y="389.8" class="st14" width="30" height="15"/>
<text transform="matrix(1 0 0 1 875 401.7)" class="st8 st12 st4">Lannes</text>
<text transform="matrix(1 0 0 1 850.7 402.2)" class="st8 st3 st16">V</text>
<line class="st0" x1="839.8" y1="404.8" x2="869.8" y2="389.8"/>
<text transform="matrix(1 0 0 1 795.8 401.9)" class="st8 st3 st10">XXX</text>
<rect x="788.2" y="403.3" class="st14" width="30" height="15"/>
<text transform="matrix(1 0 0 1 796.8 415.6)" class="st8 st3 st16">IV</text>
<text transform="matrix(1 0 0 1 823.4 415.2)" class="st8 st12 st4">Soult</text>
<line class="st0" x1="788.2" y1="418.3" x2="818.2" y2="403.3"/>
<text transform="matrix(1 0 0 1 837.3 428)" class="st8 st3 st10">XXX</text>
<rect x="829.7" y="429.4" class="st14" width="30" height="15"/>
<text transform="matrix(1 0 0 1 864.9 441.3)" class="st8 st12 st4">Davout</text>
<text transform="matrix(1 0 0 1 837.6 441.7)" class="st8 st3 st16">III</text>
<line class="st0" x1="829.7" y1="444.4" x2="859.7" y2="429.4"/>
<text transform="matrix(1 0 0 1 805.1 444.8)" class="st8 st3 st10">XXX</text>
<rect x="797.5" y="446.3" class="st14" width="30" height="15"/>
<text transform="matrix(1 0 0 1 807.6 458.6)" class="st8 st3 st16">II</text>
<text transform="matrix(1 0 0 1 832.7 458.1)" class="st8 st12 st4">Marmont</text>
<line class="st0" x1="797.5" y1="461.3" x2="827.5" y2="446.3"/>
<text transform="matrix(1 0 0 1 838 480.1)" class="st8 st3 st10">XXX</text>
<rect x="830.4" y="481.5" class="st14" width="30" height="15"/>
<text transform="matrix(1 0 0 1 842.9 493.8)" class="st8 st3 st16">I</text>
<text transform="matrix(1 0 0 1 865.7 493.4)" class="st8 st12 st4">Bernado</text>
<text transform="matrix(1 0 0 1 914.5 493.4)" class="st8 st12 st4">t</text>
<text transform="matrix(1 0 0 1 919.6 493.4)" class="st8 st12 st4">te</text>
<line class="st0" x1="830.4" y1="496.5" x2="860.4" y2="481.5"/>
<text transform="matrix(1 0 0 1 491 524.8)" class="st9 st3 st10">XX</text>
<rect x="480.9" y="526.2" class="st11" width="30" height="15"/>
<text transform="matrix(1 0 0 1 516.2 538.1)" class="st9 st12 st4">Jellachich</text>
<line class="st0" x1="480.9" y1="541.2" x2="510.9" y2="526.2"/>
</svg>
