<?xml version="1.0" encoding="utf-8"?>
<!-- Generator: Adobe Illustrator 21.1.0, SVG Export Plug-In . SVG Version: 6.00 Build 0)  -->
<svg version="1.1" id="Troop_Movements_by_Day_10_16_Revisions"
	 xmlns="http://www.w3.org/2000/svg" xmlns:xlink="http://www.w3.org/1999/xlink" x="0px" y="0px" viewBox="0 0 1440 910"
	 style="enable-background:new 0 0 1440 910;" xml:space="preserve">
<style type="text/css">
	.st0{opacity:0.5;fill:#FFFFFF;enable-background:new    ;}
	.st1{fill:#BF7C00;}
	.st2{font-family:'DroidSans';}
	.st3{font-size:12px;}
	.st4{fill:none;stroke:#999999;stroke-width:3;stroke-linecap:round;stroke-miterlimit:10;}
	.st5{fill:#999999;}
	.st6{fill:none;stroke:#0072BB;stroke-width:3;stroke-linecap:round;stroke-linejoin:round;}
	.st7{fill:#0072BB;}
	.st8{fill:#ED2939;}
	.st9{font-size:9px;}
	.st10{fill:#FFFFFF;stroke:#ED2939;stroke-width:0.75;stroke-miterlimit:10;}
	.st11{font-family:'DroidSans-Bold';}
	.st12{fill:none;}
	.st13{fill:#FFFFFF;stroke:#BF7C00;stroke-width:0.75;stroke-miterlimit:10;}
	.st14{fill:#FFFFFF;stroke:#0072BB;stroke-width:0.75;stroke-miterlimit:10;}
	.st15{fill:none;stroke:#0072BB;stroke-width:0.75;stroke-miterlimit:10;}
	.st16{font-size:13.5px;}
</style>
<rect x="1184.6" y="33.7" class="st0" width="117" height="97.3"/>
<text transform="matrix(1 0 0 1 1191.2 110.6)" class="st1 st2 st3">Approaching</text>
<line class="st4" x1="1191.2" y1="119.4" x2="1216.8" y2="119.4"/>
<polygon class="st5" points="1229.5,119.4 1211.6,126.7 1215.8,119.4 1211.6,112.1 "/>
<path class="st6" d="M280,456.4c3.7-0.8,7.7,0.6,17.4,5.6c2.9,1.4,5.8,3.1,8.4,5.1c7.8-1.1,17.7,4.1,27.7,3.4
	c5.7-0.4,8-1.9,12.6-4.1c15.6-4.1,21.7,3.2,32.7,5.8c5.4,1.3,14.9,2.5,21.1,5.2c4.2,1.8,19.7,12.8,26.5,15.2
	c12.4,4.3,9.2,3.1,23.9,3.8c10.5,0.5,11.8-9,20.9-5.6c2.9,1.1,10.7,6.4,12.3,8.4c0.4,0,0.7-0.3,0.9-0.6c3.2,2.5,12.8,7.2,17.7,8.1
	c0.4,0.1,20-1.4,18.7-1.2c3-0.5,6-1.1,8.9-1.9"/>
<polygon class="st7" points="541.4,498.5 527.5,511.9 528.7,503.5 522.1,498.3 "/>
<path class="st6" d="M860.4,459.4c4.7-6.7,11.7-4.6,23.9-5.6l2.2-0.2"/>
<polygon class="st7" points="899.1,452.4 882,461.3 885.5,453.6 880.6,446.7 "/>
<text transform="matrix(1 0 0 1 619.8 580.5)" class="st8 st2 st9">XXX</text>
<rect x="612.2" y="581.9" class="st10" width="30" height="15"/>
<text transform="matrix(1 0 0 1 648.4 593.8)" class="st8 st11 st3">John</text>
<line class="st12" x1="612.2" y1="596.9" x2="642.2" y2="581.9"/>
<text transform="matrix(1 0 0 1 1205.5 392.8)" class="st8 st2 st9">XXXX</text>
<rect x="1200.4" y="394.3" class="st10" width="30" height="15"/>
<text transform="matrix(1 0 0 1 1235.6 406.1)" class="st8 st11 st3">Auerspe</text>
<text transform="matrix(1 0 0 1 1283.1 406.1)" class="st8 st11 st3">r</text>
<text transform="matrix(1 0 0 1 1288.2 406.1)" class="st8 st11 st3">g</text>
<line class="st12" x1="1200.4" y1="409.3" x2="1230.4" y2="394.3"/>
<text transform="matrix(1 0 0 1 1030.7 441.5)" class="st8 st2 st9">XX</text>
<rect x="1020.6" y="442.9" class="st10" width="30" height="15"/>
<text transform="matrix(1 0 0 1 1055.9 454.8)" class="st8 st11 st3">Kienmayer</text>
<line class="st12" x1="1020.6" y1="457.9" x2="1050.6" y2="442.9"/>
<text transform="matrix(1 0 0 1 1019.7 469.9)" class="st8 st2 st9">XXXX</text>
<rect x="1014.5" y="471.3" class="st10" width="30" height="15"/>
<text transform="matrix(1 0 0 1 1049.8 483.2)" class="st8 st11 st3">Merveldt</text>
<line class="st12" x1="1014.5" y1="486.3" x2="1044.5" y2="471.3"/>
<text transform="matrix(1 0 0 1 1196.6 46.2)" class="st1 st2 st9">XXXX</text>
<rect x="1191.4" y="47.6" class="st13" width="30" height="15"/>
<text transform="matrix(1 0 0 1 1226.7 59.5)" class="st1 st11 st3">Bennigsen</text>
<line class="st12" x1="1191.4" y1="62.6" x2="1221.4" y2="47.6"/>
<text transform="matrix(1 0 0 1 908.2 771.1)" class="st8 st2 st9">XXX</text>
<rect x="900.6" y="772.5" class="st10" width="30" height="15"/>
<text transform="matrix(1 0 0 1 935.8 784.4)" class="st8 st11 st3">Charles</text>
<line class="st12" x1="900.6" y1="787.5" x2="930.6" y2="772.5"/>
<text transform="matrix(1 0 0 1 1196.6 76.2)" class="st1 st2 st9">XXXX</text>
<rect x="1191.4" y="77.6" class="st13" width="30" height="15"/>
<text transform="matrix(1 0 0 1 1226.7 89.5)" class="st1 st11 st3">Buxhöwden</text>
<line class="st12" x1="1191.4" y1="92.6" x2="1221.4" y2="77.6"/>
<text transform="matrix(1 0 0 1 1022.4 414.1)" class="st1 st2 st9">XXXX</text>
<rect x="1017.3" y="415.5" class="st13" width="30" height="15"/>
<text transform="matrix(1 0 0 1 1052.5 427.4)" class="st1 st11 st3">Kutu</text>
<text transform="matrix(1 0 0 1 1080.1 427.4)" class="st1 st11 st3">z</text>
<text transform="matrix(1 0 0 1 1085.5 427.4)" class="st1 st11 st3">ov</text>
<line class="st12" x1="1017.3" y1="430.5" x2="1047.3" y2="415.5"/>
<text transform="matrix(1 0 0 1 876.2 407.3)" class="st7 st2 st9">XXXX</text>
<rect x="871.1" y="408.7" class="st14" width="30" height="15"/>
<text transform="matrix(1 0 0 1 906.3 420.6)" class="st7 st11 st3">Napoleon</text>
<line class="st12" x1="871.1" y1="423.7" x2="901.1" y2="408.7"/>
<text transform="matrix(1 0 0 1 950.5 427.7)" class="st7 st2 st9">XXX</text>
<rect x="942.8" y="429.1" class="st14" width="30" height="15"/>
<text transform="matrix(1 0 0 1 978.1 441)" class="st7 st11 st3">Mu</text>
<text transform="matrix(1 0 0 1 996.6 441)" class="st7 st11 st3">r</text>
<text transform="matrix(1 0 0 1 1001.7 441)" class="st7 st11 st3">at</text>
<line class="st15" x1="942.8" y1="444.1" x2="972.8" y2="429.1"/>
<text transform="matrix(1 0 0 1 530.4 472.7)" class="st7 st2 st9">XXXX</text>
<rect x="525.2" y="474.1" class="st14" width="30" height="15"/>
<text transform="matrix(1 0 0 1 531.5 486.4)" class="st7 st2 st16">VII</text>
<text transform="matrix(1 0 0 1 464.8 486)" class="st7 st11 st3">Augereau</text>
<line class="st12" x1="525.2" y1="489.1" x2="555.2" y2="474.1"/>
<text transform="matrix(1 0 0 1 633.7 533.3)" class="st7 st2 st9">XXX</text>
<rect x="626.1" y="534.7" class="st14" width="30" height="15"/>
<text transform="matrix(1 0 0 1 634.7 547)" class="st7 st2 st16">VI</text>
<text transform="matrix(1 0 0 1 598.3 546.6)" class="st7 st11 st3">Ney</text>
<line class="st12" x1="626.1" y1="549.7" x2="656.1" y2="534.7"/>
<text transform="matrix(1 0 0 1 914.2 368.9)" class="st7 st2 st9">XXX</text>
<rect x="906.6" y="370.3" class="st14" width="30" height="15"/>
<text transform="matrix(1 0 0 1 941.8 382.2)" class="st7 st11 st3">Lannes</text>
<text transform="matrix(1 0 0 1 917.5 382.6)" class="st7 st2 st16">V</text>
<line class="st12" x1="906.6" y1="385.3" x2="936.6" y2="370.3"/>
<text transform="matrix(1 0 0 1 911.2 390.5)" class="st7 st2 st9">XXX</text>
<rect x="903.6" y="391.9" class="st14" width="30" height="15"/>
<text transform="matrix(1 0 0 1 912.2 404.2)" class="st7 st2 st16">IV</text>
<text transform="matrix(1 0 0 1 938.9 403.8)" class="st7 st11 st3">Soult</text>
<line class="st12" x1="903.6" y1="406.9" x2="933.6" y2="391.9"/>
<text transform="matrix(1 0 0 1 916.9 440.6)" class="st7 st2 st9">XXX</text>
<rect x="909.3" y="442" class="st14" width="30" height="15"/>
<text transform="matrix(1 0 0 1 944.6 453.9)" class="st7 st11 st3">Davout</text>
<text transform="matrix(1 0 0 1 917.2 454.3)" class="st7 st2 st16">III</text>
<line class="st12" x1="909.3" y1="457" x2="939.3" y2="442"/>
<text transform="matrix(1 0 0 1 909.7 464.7)" class="st7 st2 st9">XXX</text>
<rect x="902" y="466.1" class="st14" width="30" height="15"/>
<text transform="matrix(1 0 0 1 912.2 478.5)" class="st7 st2 st16">II</text>
<text transform="matrix(1 0 0 1 937.3 478)" class="st7 st11 st3">Marmont</text>
<line class="st12" x1="902" y1="481.1" x2="932" y2="466.1"/>
<text transform="matrix(1 0 0 1 838.7 477.5)" class="st7 st2 st9">XXX</text>
<rect x="831.1" y="479" class="st14" width="30" height="15"/>
<text transform="matrix(1 0 0 1 843.6 491.3)" class="st7 st2 st16">I</text>
<text transform="matrix(1 0 0 1 866.4 490.8)" class="st7 st11 st3">Bernado</text>
<text transform="matrix(1 0 0 1 915.2 490.8)" class="st7 st11 st3">t</text>
<text transform="matrix(1 0 0 1 920.3 490.8)" class="st7 st11 st3">te</text>
<line class="st12" x1="831.1" y1="494" x2="861.1" y2="479"/>
<text transform="matrix(1 0 0 1 491 524.8)" class="st8 st2 st9">XX</text>
<rect x="480.9" y="526.2" class="st10" width="30" height="15"/>
<text transform="matrix(1 0 0 1 516.2 538.1)" class="st8 st11 st3">Jellachich</text>
<line class="st12" x1="480.9" y1="541.2" x2="510.9" y2="526.2"/>
</svg>
