<?xml version="1.0" encoding="utf-8"?>
<!-- Generator: Adobe Illustrator 21.1.0, SVG Export Plug-In . SVG Version: 6.00 Build 0)  -->
<svg version="1.1" id="Troop_Movements_by_Day_10_16_Revisions"
	 xmlns="http://www.w3.org/2000/svg" xmlns:xlink="http://www.w3.org/1999/xlink" x="0px" y="0px" viewBox="0 0 1440 910"
	 style="enable-background:new 0 0 1440 910;" xml:space="preserve">
<style type="text/css">
	.st0{opacity:0.5;fill:#FFFFFF;enable-background:new    ;}
	.st1{fill:#BF7C00;}
	.st2{font-family:'DroidSans';}
	.st3{font-size:12px;}
	.st4{fill:none;stroke:#999999;stroke-width:3;stroke-linecap:round;stroke-miterlimit:10;}
	.st5{fill:#999999;}
	.st6{fill:#999999;stroke:#999999;}
	.st7{fill:none;}
	.st8{fill:#ED2939;}
	.st9{font-size:9px;}
	.st10{fill:#FFFFFF;stroke:#ED2939;stroke-width:0.75;stroke-miterlimit:10;}
	.st11{font-family:'DroidSans-Bold';}
	.st12{fill:#FFFFFF;stroke:#BF7C00;stroke-width:0.75;stroke-miterlimit:10;}
	.st13{fill:#0072BB;}
	.st14{fill:#FFFFFF;stroke:#0072BB;stroke-width:0.75;stroke-miterlimit:10;}
	.st15{fill:none;stroke:#0072BB;stroke-width:0.75;stroke-miterlimit:10;}
	.st16{font-size:13.5px;}
</style>
<rect x="1184.6" y="33.7" class="st0" width="117" height="97.3"/>
<text transform="matrix(1 0 0 1 1191.2 110.6)" class="st1 st2 st3">Approaching</text>
<line class="st4" x1="1191.2" y1="119.4" x2="1216.8" y2="119.4"/>
<polygon class="st5" points="1229.5,119.4 1211.6,126.7 1215.8,119.4 1211.6,112.1 "/>
<circle class="st6" cx="606.7" cy="392.4" r="4.5"/>
<text transform="matrix(1 0 0 1 611.2 385.5)" class="st5 st2 st3">Augsbu</text>
<text transform="matrix(1 0 0 1 651.3 385.5)" class="st5 st2 st3">r</text>
<text transform="matrix(1 0 0 1 656 385.5)" class="st5 st2 st3">g</text>
<circle class="st7" cx="625" cy="233.3" r="4.5"/>
<circle class="st6" cx="505.4" cy="390.8" r="4.5"/>
<text transform="matrix(1 0 0 1 484.7 378.9)" class="st5 st2 st3">Ulm</text>
<text transform="matrix(1 0 0 1 509.8 550.5)" class="st8 st2 st9">XXX</text>
<rect x="502.2" y="551.9" class="st10" width="30" height="15"/>
<text transform="matrix(1 0 0 1 538.4 563.8)" class="st8 st11 st3">John</text>
<line class="st7" x1="502.2" y1="566.9" x2="532.2" y2="551.9"/>
<text transform="matrix(1 0 0 1 1205.5 392.8)" class="st8 st2 st9">XXXX</text>
<rect x="1200.4" y="394.3" class="st10" width="30" height="15"/>
<text transform="matrix(1 0 0 1 1235.6 406.1)" class="st8 st11 st3">Auerspe</text>
<text transform="matrix(1 0 0 1 1283.1 406.1)" class="st8 st11 st3">r</text>
<text transform="matrix(1 0 0 1 1288.2 406.1)" class="st8 st11 st3">g</text>
<line class="st7" x1="1200.4" y1="409.3" x2="1230.4" y2="394.3"/>
<text transform="matrix(1 0 0 1 762.4 407)" class="st8 st2 st9">XX</text>
<rect x="752.3" y="408.4" class="st10" width="30" height="15"/>
<text transform="matrix(1 0 0 1 787.5 420.3)" class="st8 st11 st3">Kienmayer</text>
<line class="st7" x1="752.3" y1="423.4" x2="782.3" y2="408.4"/>
<text transform="matrix(1 0 0 1 858.4 426.4)" class="st8 st2 st9">XXX</text>
<rect x="850.8" y="427.8" class="st10" width="30" height="15"/>
<text transform="matrix(1 0 0 1 886.1 439.7)" class="st8 st11 st3">Merveldt</text>
<line class="st7" x1="850.8" y1="442.8" x2="880.8" y2="427.8"/>
<text transform="matrix(1 0 0 1 1196.6 46.2)" class="st1 st2 st9">XXXX</text>
<rect x="1191.4" y="47.6" class="st12" width="30" height="15"/>
<text transform="matrix(1 0 0 1 1226.7 59.5)" class="st1 st11 st3">Bennigsen</text>
<line class="st7" x1="1191.4" y1="62.6" x2="1221.4" y2="47.6"/>
<text transform="matrix(1 0 0 1 610.3 853.2)" class="st8 st2 st9">XXX</text>
<rect x="602.7" y="854.6" class="st10" width="30" height="15"/>
<text transform="matrix(1 0 0 1 637.9 866.5)" class="st8 st11 st3">Charles</text>
<line class="st7" x1="602.7" y1="869.6" x2="632.7" y2="854.6"/>
<text transform="matrix(1 0 0 1 1196.6 76.2)" class="st1 st2 st9">XXXX</text>
<rect x="1191.4" y="77.6" class="st12" width="30" height="15"/>
<text transform="matrix(1 0 0 1 1226.7 89.5)" class="st1 st11 st3">Buxhöwden</text>
<line class="st7" x1="1191.4" y1="92.6" x2="1221.4" y2="77.6"/>
<text transform="matrix(1 0 0 1 850 393.8)" class="st1 st2 st9">XXXX</text>
<rect x="844.9" y="395.2" class="st12" width="30" height="15"/>
<text transform="matrix(1 0 0 1 880.1 407.1)" class="st1 st11 st3">Kutu</text>
<text transform="matrix(1 0 0 1 907.7 407.1)" class="st1 st11 st3">z</text>
<text transform="matrix(1 0 0 1 913.1 407.1)" class="st1 st11 st3">ov</text>
<line class="st7" x1="844.9" y1="410.2" x2="874.9" y2="395.2"/>
<text transform="matrix(1 0 0 1 587.1 356.2)" class="st13 st2 st9">XXXX</text>
<rect x="581.9" y="357.6" class="st14" width="30" height="15"/>
<text transform="matrix(1 0 0 1 617.2 369.5)" class="st13 st11 st3">Napoleon</text>
<line class="st7" x1="581.9" y1="372.6" x2="611.9" y2="357.6"/>
<text transform="matrix(1 0 0 1 617.7 225.2)" class="st13 st2 st9">XXX</text>
<rect x="610.1" y="226.6" class="st14" width="30" height="15"/>
<text transform="matrix(1 0 0 1 645.3 238.5)" class="st13 st11 st3">Mu</text>
<text transform="matrix(1 0 0 1 663.8 238.5)" class="st13 st11 st3">r</text>
<text transform="matrix(1 0 0 1 668.9 238.5)" class="st13 st11 st3">at</text>
<line class="st15" x1="610.1" y1="241.6" x2="640.1" y2="226.6"/>
<text transform="matrix(1 0 0 1 245.9 510.6)" class="st13 st2 st9">XXXX</text>
<rect x="240.7" y="512" class="st14" width="30" height="15"/>
<text transform="matrix(1 0 0 1 247 524.3)" class="st13 st2 st16">VII</text>
<text transform="matrix(1 0 0 1 180.3 523.9)" class="st13 st11 st3">Augereau</text>
<line class="st7" x1="240.7" y1="527" x2="270.7" y2="512"/>
<text transform="matrix(1 0 0 1 475.3 392.2)" class="st13 st2 st9">XXX</text>
<rect x="467.7" y="393.7" class="st14" width="30" height="15"/>
<text transform="matrix(1 0 0 1 476.3 406)" class="st13 st2 st16">VI</text>
<text transform="matrix(1 0 0 1 439.9 405.5)" class="st13 st11 st3">Ney</text>
<line class="st7" x1="467.7" y1="408.7" x2="497.7" y2="393.7"/>
<text transform="matrix(1 0 0 1 555.1 305.4)" class="st13 st2 st9">XXX</text>
<rect x="547.4" y="306.8" class="st14" width="30" height="15"/>
<text transform="matrix(1 0 0 1 582.7 318.7)" class="st13 st11 st3">Lannes</text>
<text transform="matrix(1 0 0 1 558.4 319.1)" class="st13 st2 st16">V</text>
<line class="st7" x1="547.4" y1="321.8" x2="577.4" y2="306.8"/>
<text transform="matrix(1 0 0 1 530.5 441.3)" class="st13 st2 st9">XXX</text>
<rect x="522.8" y="442.7" class="st14" width="30" height="15"/>
<text transform="matrix(1 0 0 1 531.5 455.1)" class="st13 st2 st16">IV</text>
<text transform="matrix(1 0 0 1 558.1 454.6)" class="st13 st11 st3">Soult</text>
<line class="st7" x1="522.8" y1="457.7" x2="552.8" y2="442.7"/>
<text transform="matrix(1 0 0 1 653.7 403.2)" class="st13 st2 st9">XXX</text>
<rect x="646.1" y="404.6" class="st14" width="30" height="15"/>
<text transform="matrix(1 0 0 1 681.3 416.5)" class="st13 st11 st3">Davout</text>
<text transform="matrix(1 0 0 1 654 416.9)" class="st13 st2 st16">III</text>
<line class="st7" x1="646.1" y1="419.6" x2="676.1" y2="404.6"/>
<text transform="matrix(1 0 0 1 514 388)" class="st13 st2 st9">XXX</text>
<rect x="506.4" y="389.4" class="st14" width="30" height="15"/>
<text transform="matrix(1 0 0 1 516.6 401.7)" class="st13 st2 st16">II</text>
<text transform="matrix(1 0 0 1 541.6 401.3)" class="st13 st11 st3">Marmont</text>
<line class="st7" x1="506.4" y1="404.4" x2="536.4" y2="389.4"/>
<text transform="matrix(1 0 0 1 676.2 433.6)" class="st13 st2 st9">XXX</text>
<rect x="668.6" y="435" class="st14" width="30" height="15"/>
<text transform="matrix(1 0 0 1 681.1 447.3)" class="st13 st2 st16">I</text>
<text transform="matrix(1 0 0 1 703.8 446.9)" class="st13 st11 st3">Bernado</text>
<text transform="matrix(1 0 0 1 752.6 446.9)" class="st13 st11 st3">t</text>
<text transform="matrix(1 0 0 1 757.7 446.9)" class="st13 st11 st3">te</text>
<line class="st7" x1="668.6" y1="450" x2="698.6" y2="435"/>
<text transform="matrix(1 0 0 1 427.7 464.6)" class="st8 st2 st9">XX</text>
<rect x="417.6" y="466.1" class="st10" width="30" height="15"/>
<text transform="matrix(1 0 0 1 452.9 477.9)" class="st8 st11 st3">Jellachich</text>
<line class="st7" x1="417.6" y1="481.1" x2="447.6" y2="466.1"/>
</svg>
