<?xml version="1.0" encoding="utf-8"?>
<!-- Generator: Adobe Illustrator 21.1.0, SVG Export Plug-In . SVG Version: 6.00 Build 0)  -->
<svg version="1.1" id="Troop_Movements_by_Day_10_16_Revisions"
	 xmlns="http://www.w3.org/2000/svg" xmlns:xlink="http://www.w3.org/1999/xlink" x="0px" y="0px" viewBox="0 0 1440 910"
	 style="enable-background:new 0 0 1440 910;" xml:space="preserve">
<style type="text/css">
	.st0{fill:none;}
	.st1{opacity:0.5;fill:#FFFFFF;enable-background:new    ;}
	.st2{fill:#BF7C00;}
	.st3{font-family:'DroidSans';}
	.st4{font-size:12px;}
	.st5{fill:none;stroke:#999999;stroke-width:3;stroke-linecap:round;stroke-miterlimit:10;}
	.st6{fill:#999999;}
	.st7{fill:none;stroke:#0072BB;stroke-width:3;stroke-linecap:round;stroke-linejoin:round;}
	.st8{fill:#0072BB;}
	.st9{fill:#999999;stroke:#999999;}
	.st10{fill:#ED2939;}
	.st11{font-size:9px;}
	.st12{fill:#FFFFFF;stroke:#ED2939;stroke-width:0.75;stroke-miterlimit:10;}
	.st13{font-family:'DroidSans-Bold';}
	.st14{fill:#FFFFFF;stroke:#BF7C00;stroke-width:0.75;stroke-miterlimit:10;}
	.st15{fill:#FFFFFF;stroke:#0072BB;stroke-width:0.75;stroke-miterlimit:10;}
	.st16{fill:none;stroke:#0072BB;stroke-width:0.75;stroke-miterlimit:10;}
	.st17{font-size:13.5px;}
</style>
<circle class="st0" cx="1194.8" cy="418.7" r="4.5"/>
<rect x="1184.6" y="33.7" class="st1" width="117" height="97.3"/>
<text transform="matrix(1 0 0 1 1191.2 110.6)" class="st2 st3 st4">Approaching</text>
<line class="st5" x1="1191.2" y1="119.4" x2="1216.8" y2="119.4"/>
<polygon class="st6" points="1229.5,119.4 1211.6,126.7 1215.8,119.4 1211.6,112.1 "/>
<path class="st7" d="M670.8,357.7c0.2,1.3,0.3,2.6,0.1,3.9c0.9,7.4,2.1,17.9,4.4,25.7c1.1,3.8,1.8,6.6,3.4,9.9s1.2,8.8,1.7,13.1"/>
<polygon class="st8" points="680.4,423 672.8,405.2 680.2,409.3 687.4,404.9 "/>
<path class="st7" d="M254.1,513.4c-17.5-8.5-4.2-23.8-0.3-31.6c3.9-7.8,7.9-16.3,14.2-19.9"/>
<polygon class="st8" points="279.5,456.5 266.6,470.9 267.2,462.5 260.2,457.8 "/>
<circle class="st9" cx="509.4" cy="387.8" r="4.5"/>
<text transform="matrix(1 0 0 1 484.7 378.9)" class="st6 st3 st4">Ulm</text>
<path class="st7" d="M692.8,323.3c-4.6,12.1-2.2,12.4,6,17.5c2.9,1.9,2.4,6.4,3,6.7c3.1-0.9,17.4-2.1,20.1-0.7s7.4,5,12.1,8.8"/>
<polygon class="st8" points="743.9,363.7 725.4,358.1 733.3,355.1 734.7,346.7 "/>
<path class="st7" d="M517.2,384.1c11.7-2.9,23.2,1.1,37.6,1.5s30.5-1.2,45.2-0.4"/>
<polygon class="st8" points="612.6,387 593.9,392 599,385.3 595.7,377.5 "/>
<text transform="matrix(1 0 0 1 529.8 560.5)" class="st10 st3 st11">XXX</text>
<rect x="522.2" y="561.9" class="st12" width="30" height="15"/>
<text transform="matrix(1 0 0 1 558.4 573.8)" class="st10 st13 st4">John</text>
<line class="st0" x1="522.2" y1="576.9" x2="552.2" y2="561.9"/>
<text transform="matrix(1 0 0 1 1205.5 392.8)" class="st10 st3 st11">XXXX</text>
<rect x="1200.4" y="394.3" class="st12" width="30" height="15"/>
<text transform="matrix(1 0 0 1 1235.6 406.1)" class="st10 st13 st4">Auerspe</text>
<text transform="matrix(1 0 0 1 1283.1 406.1)" class="st10 st13 st4">r</text>
<text transform="matrix(1 0 0 1 1288.2 406.1)" class="st10 st13 st4">g</text>
<line class="st0" x1="1200.4" y1="409.3" x2="1230.4" y2="394.3"/>
<text transform="matrix(1 0 0 1 777.5 408.1)" class="st10 st3 st11">XX</text>
<rect x="767.4" y="409.5" class="st12" width="30" height="15"/>
<text transform="matrix(1 0 0 1 802.6 421.4)" class="st10 st13 st4">Kienmayer</text>
<line class="st0" x1="767.4" y1="424.5" x2="797.4" y2="409.5"/>
<text transform="matrix(1 0 0 1 838.1 394.3)" class="st2 st3 st11">XXXX</text>
<rect x="832.9" y="395.7" class="st14" width="30" height="15"/>
<text transform="matrix(1 0 0 1 868.2 407.6)" class="st2 st13 st4">Merveldt</text>
<line class="st0" x1="832.9" y1="410.7" x2="862.9" y2="395.7"/>
<text transform="matrix(1 0 0 1 1196.6 46.2)" class="st2 st3 st11">XXXX</text>
<rect x="1191.4" y="47.6" class="st14" width="30" height="15"/>
<text transform="matrix(1 0 0 1 1226.7 59.5)" class="st2 st13 st4">Bennigsen</text>
<line class="st0" x1="1191.4" y1="62.6" x2="1221.4" y2="47.6"/>
<text transform="matrix(1 0 0 1 656.4 837.3)" class="st10 st3 st11">XXX</text>
<rect x="648.8" y="838.8" class="st12" width="30" height="15"/>
<text transform="matrix(1 0 0 1 684.1 850.6)" class="st10 st13 st4">Charles</text>
<line class="st0" x1="648.8" y1="853.8" x2="678.8" y2="838.8"/>
<text transform="matrix(1 0 0 1 1196.6 76.2)" class="st2 st3 st11">XXXX</text>
<rect x="1191.4" y="77.6" class="st14" width="30" height="15"/>
<text transform="matrix(1 0 0 1 1226.7 89.5)" class="st2 st13 st4">Buxhöwden</text>
<line class="st0" x1="1191.4" y1="92.6" x2="1221.4" y2="77.6"/>
<text transform="matrix(1 0 0 1 838.1 430.9)" class="st10 st3 st11">XXXX</text>
<rect x="832.9" y="432.3" class="st12" width="30" height="15"/>
<text transform="matrix(1 0 0 1 868.2 444.2)" class="st10 st13 st4">Kutu</text>
<text transform="matrix(1 0 0 1 895.8 444.2)" class="st10 st13 st4">z</text>
<text transform="matrix(1 0 0 1 901.2 444.2)" class="st10 st13 st4">ov</text>
<line class="st0" x1="832.9" y1="447.3" x2="862.9" y2="432.3"/>
<text transform="matrix(1 0 0 1 669.6 448.8)" class="st8 st3 st11">XXXX</text>
<rect x="664.4" y="450.2" class="st15" width="30" height="15"/>
<text transform="matrix(1 0 0 1 699.7 462.1)" class="st8 st13 st4">Napoleon</text>
<line class="st0" x1="664.4" y1="465.2" x2="694.4" y2="450.2"/>
<text transform="matrix(1 0 0 1 652.5 387.7)" class="st8 st3 st11">XXX</text>
<rect x="644.9" y="389.1" class="st15" width="30" height="15"/>
<text transform="matrix(1 0 0 1 680.2 401)" class="st8 st13 st4">Mu</text>
<text transform="matrix(1 0 0 1 698.7 401)" class="st8 st13 st4">r</text>
<text transform="matrix(1 0 0 1 703.8 401)" class="st8 st13 st4">at</text>
<line class="st16" x1="644.9" y1="404.1" x2="674.9" y2="389.1"/>
<text transform="matrix(1 0 0 1 285 440.8)" class="st8 st3 st11">XXXX</text>
<rect x="279.8" y="442.2" class="st15" width="30" height="15"/>
<text transform="matrix(1 0 0 1 286.2 454.5)" class="st8 st3 st17">VII</text>
<text transform="matrix(1 0 0 1 219.4 454.1)" class="st8 st13 st4">Augereau</text>
<line class="st0" x1="279.8" y1="457.2" x2="309.8" y2="442.2"/>
<text transform="matrix(1 0 0 1 515.3 402.2)" class="st8 st3 st11">XXX</text>
<rect x="507.7" y="403.7" class="st15" width="30" height="15"/>
<text transform="matrix(1 0 0 1 516.3 416)" class="st8 st3 st17">VI</text>
<text transform="matrix(1 0 0 1 479.9 415.5)" class="st8 st13 st4">Ney</text>
<line class="st0" x1="507.7" y1="418.7" x2="537.7" y2="403.7"/>
<text transform="matrix(1 0 0 1 751.5 354.1)" class="st8 st3 st11">XXX</text>
<rect x="743.8" y="355.5" class="st15" width="30" height="15"/>
<text transform="matrix(1 0 0 1 779.1 367.4)" class="st8 st13 st4">Lannes</text>
<text transform="matrix(1 0 0 1 754.8 367.8)" class="st8 st3 st17">V</text>
<line class="st0" x1="743.8" y1="370.5" x2="773.8" y2="355.5"/>
<text transform="matrix(1 0 0 1 701.3 430.5)" class="st8 st3 st11">XXX</text>
<rect x="693.7" y="431.9" class="st15" width="30" height="15"/>
<text transform="matrix(1 0 0 1 702.3 444.2)" class="st8 st3 st17">IV</text>
<text transform="matrix(1 0 0 1 728.9 443.8)" class="st8 st13 st4">Soult</text>
<line class="st0" x1="693.7" y1="446.9" x2="723.7" y2="431.9"/>
<text transform="matrix(1 0 0 1 707 369.6)" class="st8 st3 st11">XXX</text>
<rect x="699.3" y="371" class="st15" width="30" height="15"/>
<text transform="matrix(1 0 0 1 734.6 382.9)" class="st8 st13 st4">Davout</text>
<text transform="matrix(1 0 0 1 707.2 383.3)" class="st8 st3 st17">III</text>
<line class="st0" x1="699.3" y1="386" x2="729.3" y2="371"/>
<text transform="matrix(1 0 0 1 576.8 361.5)" class="st8 st3 st11">XXX</text>
<rect x="569.2" y="362.9" class="st15" width="30" height="15"/>
<text transform="matrix(1 0 0 1 579.4 375.3)" class="st8 st3 st17">II</text>
<text transform="matrix(1 0 0 1 604.4 374.8)" class="st8 st13 st4">Marmont</text>
<line class="st0" x1="569.2" y1="377.9" x2="599.2" y2="362.9"/>
<text transform="matrix(1 0 0 1 697.5 470.4)" class="st8 st3 st11">XXX</text>
<rect x="689.9" y="471.8" class="st15" width="30" height="15"/>
<text transform="matrix(1 0 0 1 702.4 484.1)" class="st8 st3 st17">I</text>
<text transform="matrix(1 0 0 1 725.2 483.7)" class="st8 st13 st4">Bernado</text>
<text transform="matrix(1 0 0 1 774 483.7)" class="st8 st13 st4">t</text>
<text transform="matrix(1 0 0 1 779.1 483.7)" class="st8 st13 st4">te</text>
<line class="st0" x1="689.9" y1="486.8" x2="719.9" y2="471.8"/>
<text transform="matrix(1 0 0 1 491 524.8)" class="st10 st3 st11">XX</text>
<rect x="480.9" y="526.2" class="st12" width="30" height="15"/>
<text transform="matrix(1 0 0 1 516.2 538.1)" class="st10 st13 st4">Jellachich</text>
<line class="st0" x1="480.9" y1="541.2" x2="510.9" y2="526.2"/>
</svg>
