<?xml version="1.0" encoding="utf-8"?>
<!-- Generator: Adobe Illustrator 21.1.0, SVG Export Plug-In . SVG Version: 6.00 Build 0)  -->
<svg version="1.1" id="Troop_Movements_by_Day_10_16_Revisions"
	 xmlns="http://www.w3.org/2000/svg" xmlns:xlink="http://www.w3.org/1999/xlink" x="0px" y="0px" viewBox="0 0 1440 910"
	 style="enable-background:new 0 0 1440 910;" xml:space="preserve">
<style type="text/css">
	.st0{fill:none;}
	.st1{fill:#999999;stroke:#999999;}
	.st2{fill:#999999;}
	.st3{font-family:'DroidSans';}
	.st4{font-size:12px;}
	.st5{opacity:0.5;fill:#FFFFFF;enable-background:new    ;}
	.st6{fill:#BF7C00;}
	.st7{fill:none;stroke:#999999;stroke-width:3;stroke-linecap:round;stroke-miterlimit:10;}
	.st8{fill:#ED2939;}
	.st9{font-size:9px;}
	.st10{fill:#FFFFFF;stroke:#ED2939;stroke-width:0.75;stroke-miterlimit:10;}
	.st11{font-family:'DroidSans-Bold';}
	.st12{fill:#FFFFFF;stroke:#BF7C00;stroke-width:0.75;stroke-miterlimit:10;}
	.st13{fill:#0072BB;}
	.st14{fill:#FFFFFF;stroke:#0072BB;stroke-width:0.75;stroke-miterlimit:10;}
	.st15{fill:none;stroke:#0072BB;stroke-width:0.75;stroke-miterlimit:10;}
	.st16{font-size:13.5px;}
</style>
<circle class="st0" cx="1194.8" cy="418.7" r="4.5"/>
<circle class="st1" cx="781.1" cy="412.6" r="4.5"/>
<text transform="matrix(1 0 0 1 784.7 405.8)" class="st2 st3 st4">Mühldorf</text>
<rect x="1184.6" y="33.7" class="st5" width="117" height="97.3"/>
<text transform="matrix(1 0 0 1 1191.2 110.6)" class="st6 st3 st4">Approaching</text>
<line class="st7" x1="1191.2" y1="119.4" x2="1216.8" y2="119.4"/>
<polygon class="st2" points="1229.5,119.4 1211.6,126.7 1215.8,119.4 1211.6,112.1 "/>
<circle class="st1" cx="837.2" cy="411" r="4.5"/>
<text transform="matrix(1 0 0 1 841.4 424.2)" class="st2 st3 st4">B</text>
<text transform="matrix(1 0 0 1 848.9 424.2)" class="st2 st3 st4">r</text>
<text transform="matrix(1 0 0 1 853.5 424.2)" class="st2 st3 st4">aunau</text>
<text transform="matrix(1 0 0 1 867 433.6)" class="st8 st3 st9">XXX</text>
<rect x="859.4" y="435" class="st10" width="30" height="15"/>
<text transform="matrix(1 0 0 1 894.6 446.9)" class="st8 st11 st4">Merveldt</text>
<line class="st0" x1="859.4" y1="450" x2="889.4" y2="435"/>
<circle class="st1" cx="507.9" cy="378.8" r="4.5"/>
<text transform="matrix(1 0 0 1 513.7 371.9)" class="st2 st3 st4">Elchingen Abbey</text>
<circle class="st0" cx="625" cy="233.3" r="4.5"/>
<text transform="matrix(1 0 0 1 648.5 444.9)" class="st2 st3 st4">Munich</text>
<text transform="matrix(1 0 0 1 489.8 530.5)" class="st8 st3 st9">XXX</text>
<rect x="482.2" y="531.9" class="st10" width="30" height="15"/>
<text transform="matrix(1 0 0 1 518.4 543.8)" class="st8 st11 st4">John</text>
<line class="st0" x1="482.2" y1="546.9" x2="512.2" y2="531.9"/>
<text transform="matrix(1 0 0 1 1205.5 392.8)" class="st8 st3 st9">XXXX</text>
<rect x="1200.4" y="394.3" class="st10" width="30" height="15"/>
<text transform="matrix(1 0 0 1 1235.6 406.1)" class="st8 st11 st4">Auerspe</text>
<text transform="matrix(1 0 0 1 1283.1 406.1)" class="st8 st11 st4">r</text>
<text transform="matrix(1 0 0 1 1288.2 406.1)" class="st8 st11 st4">g</text>
<line class="st0" x1="1200.4" y1="409.3" x2="1230.4" y2="394.3"/>
<text transform="matrix(1 0 0 1 769 426.2)" class="st8 st3 st9">XX</text>
<rect x="758.9" y="427.6" class="st10" width="30" height="15"/>
<text transform="matrix(1 0 0 1 794.2 439.5)" class="st8 st11 st4">Kienmayer</text>
<line class="st0" x1="758.9" y1="442.6" x2="788.9" y2="427.6"/>
<text transform="matrix(1 0 0 1 1196.6 46.2)" class="st6 st3 st9">XXXX</text>
<rect x="1191.4" y="47.6" class="st12" width="30" height="15"/>
<text transform="matrix(1 0 0 1 1226.7 59.5)" class="st6 st11 st4">Bennigsen</text>
<line class="st0" x1="1191.4" y1="62.6" x2="1221.4" y2="47.6"/>
<text transform="matrix(1 0 0 1 610.3 853.2)" class="st8 st3 st9">XXX</text>
<rect x="602.7" y="854.6" class="st10" width="30" height="15"/>
<text transform="matrix(1 0 0 1 637.9 866.5)" class="st8 st11 st4">Charles</text>
<line class="st0" x1="602.7" y1="869.6" x2="632.7" y2="854.6"/>
<text transform="matrix(1 0 0 1 1196.6 76.2)" class="st6 st3 st9">XXXX</text>
<rect x="1191.4" y="77.6" class="st12" width="30" height="15"/>
<text transform="matrix(1 0 0 1 1226.7 89.5)" class="st6 st11 st4">Buxhöwden</text>
<line class="st0" x1="1191.4" y1="92.6" x2="1221.4" y2="77.6"/>
<text transform="matrix(1 0 0 1 849.6 396.6)" class="st6 st3 st9">XXXX</text>
<rect x="844.4" y="398" class="st12" width="30" height="15"/>
<text transform="matrix(1 0 0 1 879.7 409.9)" class="st6 st11 st4">Kutu</text>
<text transform="matrix(1 0 0 1 907.3 409.9)" class="st6 st11 st4">z</text>
<text transform="matrix(1 0 0 1 912.7 409.9)" class="st6 st11 st4">ov</text>
<line class="st0" x1="844.4" y1="413" x2="874.4" y2="398"/>
<text transform="matrix(1 0 0 1 527.1 344.2)" class="st13 st3 st9">XXXX</text>
<rect x="521.9" y="345.6" class="st14" width="30" height="15"/>
<text transform="matrix(1 0 0 1 557.2 357.5)" class="st13 st11 st4">Napoleon</text>
<line class="st0" x1="521.9" y1="360.6" x2="551.9" y2="345.6"/>
<text transform="matrix(1 0 0 1 617.7 229.2)" class="st13 st3 st9">XXX</text>
<rect x="610.1" y="230.6" class="st14" width="30" height="15"/>
<text transform="matrix(1 0 0 1 645.3 242.5)" class="st13 st11 st4">Mu</text>
<text transform="matrix(1 0 0 1 663.8 242.5)" class="st13 st11 st4">r</text>
<text transform="matrix(1 0 0 1 668.9 242.5)" class="st13 st11 st4">at</text>
<line class="st15" x1="610.1" y1="245.6" x2="640.1" y2="230.6"/>
<text transform="matrix(1 0 0 1 248.3 510.6)" class="st13 st3 st9">XXX</text>
<rect x="240.7" y="512" class="st14" width="30" height="15"/>
<text transform="matrix(1 0 0 1 247 524.3)" class="st13 st3 st16">VII</text>
<text transform="matrix(1 0 0 1 180.3 523.9)" class="st13 st11 st4">Augereau</text>
<text transform="matrix(1 0 0 1 478.5 387.4)" class="st13 st3 st9">XXX</text>
<rect x="470.8" y="388.8" class="st14" width="30" height="15"/>
<text transform="matrix(1 0 0 1 479.5 401.2)" class="st13 st3 st16">VI</text>
<text transform="matrix(1 0 0 1 443.1 400.7)" class="st13 st11 st4">Ney</text>
<line class="st0" x1="470.8" y1="403.8" x2="500.8" y2="388.8"/>
<text transform="matrix(1 0 0 1 558.8 311.2)" class="st13 st3 st9">XXX</text>
<rect x="551.2" y="312.6" class="st14" width="30" height="15"/>
<text transform="matrix(1 0 0 1 586.4 324.5)" class="st13 st11 st4">Lannes</text>
<text transform="matrix(1 0 0 1 562.1 324.9)" class="st13 st3 st16">V</text>
<line class="st0" x1="551.2" y1="327.6" x2="581.2" y2="312.6"/>
<text transform="matrix(1 0 0 1 521 448.6)" class="st13 st3 st9">XXX</text>
<rect x="513.4" y="450" class="st14" width="30" height="15"/>
<text transform="matrix(1 0 0 1 522 462.3)" class="st13 st3 st16">IV</text>
<text transform="matrix(1 0 0 1 548.6 461.9)" class="st13 st11 st4">Soult</text>
<line class="st0" x1="513.4" y1="465" x2="543.4" y2="450"/>
<text transform="matrix(1 0 0 1 643.4 387.5)" class="st13 st3 st9">XXX</text>
<rect x="635.8" y="388.9" class="st14" width="30" height="15"/>
<text transform="matrix(1 0 0 1 671.1 400.8)" class="st13 st11 st4">Davout</text>
<text transform="matrix(1 0 0 1 643.7 401.2)" class="st13 st3 st16">III</text>
<line class="st0" x1="635.8" y1="403.9" x2="665.8" y2="388.9"/>
<text transform="matrix(1 0 0 1 524 397)" class="st13 st3 st9">XXX</text>
<rect x="516.4" y="398.4" class="st14" width="30" height="15"/>
<text transform="matrix(1 0 0 1 526.6 410.7)" class="st13 st3 st16">II</text>
<text transform="matrix(1 0 0 1 551.6 410.3)" class="st13 st11 st4">Marmont</text>
<line class="st0" x1="516.4" y1="413.4" x2="546.4" y2="398.4"/>
<text transform="matrix(1 0 0 1 672.7 409.3)" class="st13 st3 st9">XXX</text>
<rect x="665.1" y="410.8" class="st14" width="30" height="15"/>
<text transform="matrix(1 0 0 1 677.5 423.1)" class="st13 st3 st16">I</text>
<text transform="matrix(1 0 0 1 700.3 422.6)" class="st13 st11 st4">Bernado</text>
<text transform="matrix(1 0 0 1 749.1 422.6)" class="st13 st11 st4">t</text>
<text transform="matrix(1 0 0 1 754.2 422.6)" class="st13 st11 st4">te</text>
<line class="st0" x1="665.1" y1="425.8" x2="695.1" y2="410.8"/>
<text transform="matrix(1 0 0 1 457.7 494.6)" class="st8 st3 st9">XX</text>
<rect x="447.6" y="496.1" class="st10" width="30" height="15"/>
<text transform="matrix(1 0 0 1 482.9 507.9)" class="st8 st11 st4">Jellachich</text>
<line class="st0" x1="447.6" y1="511.1" x2="477.6" y2="496.1"/>
</svg>
