<?xml version="1.0" encoding="utf-8"?>
<!-- Generator: Adobe Illustrator 21.1.0, SVG Export Plug-In . SVG Version: 6.00 Build 0)  -->
<svg version="1.1" id="Troop_Movements_by_Day_10_16_Revisions"
	 xmlns="http://www.w3.org/2000/svg" xmlns:xlink="http://www.w3.org/1999/xlink" x="0px" y="0px" viewBox="0 0 1440 910"
	 style="enable-background:new 0 0 1440 910;" xml:space="preserve">
<style type="text/css">
	.st0{opacity:0.5;fill:#FFFFFF;enable-background:new    ;}
	.st1{fill:#BF7C00;}
	.st2{font-family:'DroidSans';}
	.st3{font-size:12px;}
	.st4{fill:none;stroke:#999999;stroke-width:3;stroke-linecap:round;stroke-miterlimit:10;}
	.st5{fill:#999999;}
	.st6{fill:#ED2939;}
	.st7{font-size:9px;}
	.st8{fill:#FFFFFF;stroke:#ED2939;stroke-width:0.75;stroke-miterlimit:10;}
	.st9{font-family:'DroidSans-Bold';}
	.st10{fill:none;}
	.st11{fill:#FFFFFF;stroke:#BF7C00;stroke-width:0.75;stroke-miterlimit:10;}
	.st12{fill:#0072BB;}
	.st13{fill:#FFFFFF;stroke:#0072BB;stroke-width:0.75;stroke-miterlimit:10;}
	.st14{fill:none;stroke:#0072BB;stroke-width:0.75;stroke-miterlimit:10;}
	.st15{font-size:13.5px;}
</style>
<rect x="1184.6" y="33.7" class="st0" width="117" height="97.3"/>
<text transform="matrix(1 0 0 1 1191.2 110.6)" class="st1 st2 st3">Approaching</text>
<line class="st4" x1="1191.2" y1="119.4" x2="1216.8" y2="119.4"/>
<polygon class="st5" points="1229.5,119.4 1211.6,126.7 1215.8,119.4 1211.6,112.1 "/>
<text transform="matrix(1 0 0 1 491 524.8)" class="st6 st2 st7">XX</text>
<rect x="480.9" y="526.2" class="st8" width="30" height="15"/>
<text transform="matrix(1 0 0 1 516.2 538.1)" class="st6 st9 st3">Jellachich</text>
<line class="st10" x1="480.9" y1="541.2" x2="510.9" y2="526.2"/>
<text transform="matrix(1 0 0 1 656.4 604.8)" class="st6 st2 st7">XXX</text>
<rect x="648.8" y="606.3" class="st8" width="30" height="15"/>
<text transform="matrix(1 0 0 1 685 618.1)" class="st6 st9 st3">John</text>
<line class="st10" x1="648.8" y1="621.3" x2="678.8" y2="606.3"/>
<text transform="matrix(1 0 0 1 1205.5 392.8)" class="st6 st2 st7">XXXX</text>
<rect x="1200.4" y="394.3" class="st8" width="30" height="15"/>
<text transform="matrix(1 0 0 1 1235.6 406.1)" class="st6 st9 st3">Auerspe</text>
<text transform="matrix(1 0 0 1 1283.1 406.1)" class="st6 st9 st3">r</text>
<text transform="matrix(1 0 0 1 1288.2 406.1)" class="st6 st9 st3">g</text>
<line class="st10" x1="1200.4" y1="409.3" x2="1230.4" y2="394.3"/>
<text transform="matrix(1 0 0 1 1101.5 438.9)" class="st6 st2 st7">XX</text>
<rect x="1091.4" y="440.3" class="st8" width="30" height="15"/>
<text transform="matrix(1 0 0 1 1126.7 452.2)" class="st6 st9 st3">Kienmayer</text>
<line class="st10" x1="1091.4" y1="455.3" x2="1121.4" y2="440.3"/>
<text transform="matrix(1 0 0 1 1005.6 473)" class="st6 st2 st7">XXXX</text>
<rect x="1000.4" y="474.4" class="st8" width="30" height="15"/>
<text transform="matrix(1 0 0 1 1035.7 486.3)" class="st6 st9 st3">Merveldt</text>
<line class="st10" x1="1000.4" y1="489.4" x2="1030.4" y2="474.4"/>
<text transform="matrix(1 0 0 1 1196.6 46.2)" class="st1 st2 st7">XXXX</text>
<rect x="1191.4" y="47.6" class="st11" width="30" height="15"/>
<text transform="matrix(1 0 0 1 1226.7 59.5)" class="st1 st9 st3">Bennigsen</text>
<line class="st10" x1="1191.4" y1="62.6" x2="1221.4" y2="47.6"/>
<text transform="matrix(1 0 0 1 1048.2 771.1)" class="st6 st2 st7">XXX</text>
<rect x="1040.6" y="772.5" class="st8" width="30" height="15"/>
<text transform="matrix(1 0 0 1 1075.8 784.4)" class="st6 st9 st3">Charles</text>
<line class="st10" x1="1040.6" y1="787.5" x2="1070.6" y2="772.5"/>
<text transform="matrix(1 0 0 1 1196.6 76.2)" class="st1 st2 st7">XXXX</text>
<rect x="1191.4" y="77.6" class="st11" width="30" height="15"/>
<text transform="matrix(1 0 0 1 1226.7 89.5)" class="st1 st9 st3">Buxhöwden</text>
<line class="st10" x1="1191.4" y1="92.6" x2="1221.4" y2="77.6"/>
<text transform="matrix(1 0 0 1 1082.5 408.7)" class="st1 st2 st7">XXXX</text>
<rect x="1077.4" y="410.1" class="st11" width="30" height="15"/>
<text transform="matrix(1 0 0 1 1112.6 422)" class="st1 st9 st3">Kutu</text>
<text transform="matrix(1 0 0 1 1140.2 422)" class="st1 st9 st3">z</text>
<text transform="matrix(1 0 0 1 1145.6 422)" class="st1 st9 st3">ov</text>
<line class="st10" x1="1077.4" y1="425.1" x2="1107.4" y2="410.1"/>
<text transform="matrix(1 0 0 1 874.1 394.2)" class="st12 st2 st7">XXXX</text>
<rect x="868.9" y="395.6" class="st13" width="30" height="15"/>
<text transform="matrix(1 0 0 1 904.2 407.5)" class="st12 st9 st3">Napoleon</text>
<line class="st10" x1="868.9" y1="410.6" x2="898.9" y2="395.6"/>
<text transform="matrix(1 0 0 1 1036.9 423.7)" class="st12 st2 st7">XXX</text>
<rect x="1029.3" y="425.1" class="st13" width="30" height="15"/>
<text transform="matrix(1 0 0 1 1064.6 437)" class="st12 st9 st3">Mu</text>
<text transform="matrix(1 0 0 1 1083.1 437)" class="st12 st9 st3">r</text>
<text transform="matrix(1 0 0 1 1088.2 437)" class="st12 st9 st3">at</text>
<line class="st14" x1="1029.3" y1="440.1" x2="1059.3" y2="425.1"/>
<text transform="matrix(1 0 0 1 530.4 472.7)" class="st12 st2 st7">XXXX</text>
<rect x="525.2" y="474.1" class="st13" width="30" height="15"/>
<text transform="matrix(1 0 0 1 531.5 486.4)" class="st12 st2 st15">VII</text>
<text transform="matrix(1 0 0 1 464.8 486)" class="st12 st9 st3">Augereau</text>
<line class="st10" x1="525.2" y1="489.1" x2="555.2" y2="474.1"/>
<text transform="matrix(1 0 0 1 626.4 551.3)" class="st12 st2 st7">XXX</text>
<rect x="618.8" y="552.8" class="st13" width="30" height="15"/>
<text transform="matrix(1 0 0 1 627.4 565.1)" class="st12 st2 st15">VI</text>
<text transform="matrix(1 0 0 1 591 564.6)" class="st12 st9 st3">Ney</text>
<line class="st10" x1="618.8" y1="567.8" x2="648.8" y2="552.8"/>
<text transform="matrix(1 0 0 1 995.5 437.8)" class="st12 st2 st7">XXX</text>
<rect x="987.9" y="439.2" class="st13" width="30" height="15"/>
<text transform="matrix(1 0 0 1 1023.1 451.1)" class="st12 st9 st3">Lannes</text>
<text transform="matrix(1 0 0 1 998.8 451.5)" class="st12 st2 st15">V</text>
<line class="st10" x1="987.9" y1="454.2" x2="1017.9" y2="439.2"/>
<text transform="matrix(1 0 0 1 978.8 409.8)" class="st12 st2 st7">XXX</text>
<rect x="971.2" y="411.2" class="st13" width="30" height="15"/>
<text transform="matrix(1 0 0 1 979.8 423.5)" class="st12 st2 st15">IV</text>
<text transform="matrix(1 0 0 1 1006.4 423.1)" class="st12 st9 st3">Soult</text>
<line class="st10" x1="971.2" y1="426.2" x2="1001.2" y2="411.2"/>
<text transform="matrix(1 0 0 1 918.4 430.8)" class="st12 st2 st7">XXX</text>
<rect x="910.8" y="432.2" class="st13" width="30" height="15"/>
<text transform="matrix(1 0 0 1 946 444.1)" class="st12 st9 st3">Davout</text>
<text transform="matrix(1 0 0 1 918.6 444.5)" class="st12 st2 st15">III</text>
<line class="st10" x1="910.8" y1="447.2" x2="940.8" y2="432.2"/>
<text transform="matrix(1 0 0 1 909.4 476.9)" class="st12 st2 st7">XXX</text>
<rect x="901.8" y="478.3" class="st13" width="30" height="15"/>
<text transform="matrix(1 0 0 1 912 490.6)" class="st12 st2 st15">II</text>
<text transform="matrix(1 0 0 1 937.1 490.2)" class="st12 st9 st3">Marmont</text>
<line class="st10" x1="901.8" y1="493.3" x2="931.8" y2="478.3"/>
<text transform="matrix(1 0 0 1 940.2 452.6)" class="st12 st2 st7">XXX</text>
<rect x="932.6" y="454.1" class="st13" width="30" height="15"/>
<text transform="matrix(1 0 0 1 945 466.4)" class="st12 st2 st15">I</text>
<text transform="matrix(1 0 0 1 967.8 465.9)" class="st12 st9 st3">Bernado</text>
<text transform="matrix(1 0 0 1 1016.6 465.9)" class="st12 st9 st3">t</text>
<text transform="matrix(1 0 0 1 1021.7 465.9)" class="st12 st9 st3">te</text>
<line class="st10" x1="932.6" y1="469.1" x2="962.6" y2="454.1"/>
</svg>
