<?xml version="1.0" encoding="utf-8"?>
<!-- Generator: Adobe Illustrator 21.1.0, SVG Export Plug-In . SVG Version: 6.00 Build 0)  -->
<svg version="1.1" id="Troop_Movements_by_Day_10_16_Revisions"
	 xmlns="http://www.w3.org/2000/svg" xmlns:xlink="http://www.w3.org/1999/xlink" x="0px" y="0px" viewBox="0 0 1440 910"
	 style="enable-background:new 0 0 1440 910;" xml:space="preserve">
<style type="text/css">
	.st0{opacity:0.5;fill:#FFFFFF;enable-background:new    ;}
	.st1{fill:#BF7C00;}
	.st2{font-family:'DroidSans';}
	.st3{font-size:12px;}
	.st4{fill:none;stroke:#999999;stroke-width:3;stroke-linecap:round;stroke-miterlimit:10;}
	.st5{fill:#999999;}
	.st6{fill:none;stroke:#0072BB;stroke-width:3;stroke-linecap:round;stroke-linejoin:round;}
	.st7{fill:#0072BB;}
	.st8{fill:#ED2939;}
	.st9{font-size:9px;}
	.st10{fill:#FFFFFF;stroke:#ED2939;stroke-width:0.75;stroke-miterlimit:10;}
	.st11{font-family:'DroidSans-Bold';}
	.st12{fill:none;}
	.st13{fill:#FFFFFF;stroke:#BF7C00;stroke-width:0.75;stroke-miterlimit:10;}
	.st14{fill:#FFFFFF;stroke:#0072BB;stroke-width:0.75;stroke-miterlimit:10;}
	.st15{fill:none;stroke:#0072BB;stroke-width:0.75;stroke-miterlimit:10;}
	.st16{font-size:13.5px;}
</style>
<rect x="1184.6" y="33.7" class="st0" width="117" height="97.3"/>
<text transform="matrix(1 0 0 1 1191.2 110.6)" class="st1 st2 st3">Approaching</text>
<line class="st4" x1="1191.2" y1="119.4" x2="1216.8" y2="119.4"/>
<polygon class="st5" points="1229.5,119.4 1211.6,126.7 1215.8,119.4 1211.6,112.1 "/>
<path class="st6" d="M609.8,483.5c0,4.2,3.3,7.4,4.3,12.4c1.4,6.8,6.4,16,10.6,22.4"/>
<polygon class="st7" points="629,530.2 615.8,516.1 624.1,517.4 629.5,510.8 "/>
<path class="st6" d="M867.1,387c4.7-4.2,9.3-7.7,13.2-8c-2.1,0.2,14.7,9.1,17.7,10.5l10.8,5.2"/>
<polygon class="st7" points="920,400.6 900.7,398.9 907.9,394.3 907.5,385.9 "/>
<path class="st6" d="M846.4,414.7c4.9,0.3,10.3,0.8,12.4,1.1c4.2,0.7,8.3,1.7,12.3,3.1"/>
<polygon class="st7" points="883.3,422.4 864,424.4 870.2,418.5 868.2,410.3 "/>
<path class="st6" d="M829.5,475.3c3.4,4.2,8.8,2.1,16.9-0.3c1.5-0.5,3.9-2.8,6.2-5.5"/>
<polygon class="st7" points="860.4,459.4 855.1,478 852,470.1 843.6,469 "/>
<text transform="matrix(1 0 0 1 609.8 570.5)" class="st8 st2 st9">XXX</text>
<rect x="602.2" y="571.9" class="st10" width="30" height="15"/>
<text transform="matrix(1 0 0 1 638.4 583.8)" class="st8 st11 st3">John</text>
<line class="st12" x1="602.2" y1="586.9" x2="632.2" y2="571.9"/>
<text transform="matrix(1 0 0 1 1205.5 392.8)" class="st8 st2 st9">XXXX</text>
<rect x="1200.4" y="394.3" class="st10" width="30" height="15"/>
<text transform="matrix(1 0 0 1 1235.6 406.1)" class="st8 st11 st3">Auerspe</text>
<text transform="matrix(1 0 0 1 1283.1 406.1)" class="st8 st11 st3">r</text>
<text transform="matrix(1 0 0 1 1288.2 406.1)" class="st8 st11 st3">g</text>
<line class="st12" x1="1200.4" y1="409.3" x2="1230.4" y2="394.3"/>
<text transform="matrix(1 0 0 1 1043 469.8)" class="st8 st2 st9">XX</text>
<rect x="1032.9" y="471.2" class="st10" width="30" height="15"/>
<text transform="matrix(1 0 0 1 1068.2 483.1)" class="st8 st11 st3">Kienmayer</text>
<line class="st12" x1="1032.9" y1="486.2" x2="1062.9" y2="471.2"/>
<text transform="matrix(1 0 0 1 1061.5 440.5)" class="st8 st2 st9">XXXX</text>
<rect x="1056.3" y="441.9" class="st10" width="30" height="15"/>
<text transform="matrix(1 0 0 1 1091.6 453.8)" class="st8 st11 st3">Merveldt</text>
<line class="st12" x1="1056.3" y1="456.9" x2="1086.3" y2="441.9"/>
<text transform="matrix(1 0 0 1 1196.6 46.2)" class="st1 st2 st9">XXXX</text>
<rect x="1191.4" y="47.6" class="st13" width="30" height="15"/>
<text transform="matrix(1 0 0 1 1226.7 59.5)" class="st1 st11 st3">Bennigsen</text>
<line class="st12" x1="1191.4" y1="62.6" x2="1221.4" y2="47.6"/>
<text transform="matrix(1 0 0 1 878.2 771.1)" class="st8 st2 st9">XXX</text>
<rect x="870.6" y="772.5" class="st10" width="30" height="15"/>
<text transform="matrix(1 0 0 1 905.8 784.4)" class="st8 st11 st3">Charles</text>
<line class="st12" x1="870.6" y1="787.5" x2="900.6" y2="772.5"/>
<text transform="matrix(1 0 0 1 1196.6 76.2)" class="st1 st2 st9">XXXX</text>
<rect x="1191.4" y="77.6" class="st13" width="30" height="15"/>
<text transform="matrix(1 0 0 1 1226.7 89.5)" class="st1 st11 st3">Buxhöwden</text>
<line class="st12" x1="1191.4" y1="92.6" x2="1221.4" y2="77.6"/>
<text transform="matrix(1 0 0 1 1035.1 416.9)" class="st1 st2 st9">XXXX</text>
<rect x="1029.9" y="418.3" class="st13" width="30" height="15"/>
<text transform="matrix(1 0 0 1 1065.2 430.2)" class="st1 st11 st3">Kutu</text>
<text transform="matrix(1 0 0 1 1092.7999 430.2)" class="st1 st11 st3">z</text>
<text transform="matrix(1 0 0 1 1098.2 430.2)" class="st1 st11 st3">ov</text>
<line class="st12" x1="1029.9" y1="433.3" x2="1059.9" y2="418.3"/>
<text transform="matrix(1 0 0 1 861.5 394.4)" class="st7 st2 st9">XXXX</text>
<rect x="856.3" y="395.8" class="st14" width="30" height="15"/>
<text transform="matrix(1 0 0 1 891.6 407.7)" class="st7 st11 st3">Napoleon</text>
<line class="st12" x1="856.3" y1="410.8" x2="886.3" y2="395.8"/>
<text transform="matrix(1 0 0 1 941.5 413.6)" class="st7 st2 st9">XXX</text>
<rect x="933.9" y="415" class="st14" width="30" height="15"/>
<text transform="matrix(1 0 0 1 969.1 426.9)" class="st7 st11 st3">Mu</text>
<text transform="matrix(1 0 0 1 987.6 426.9)" class="st7 st11 st3">r</text>
<text transform="matrix(1 0 0 1 992.7 426.9)" class="st7 st11 st3">at</text>
<line class="st15" x1="933.9" y1="430" x2="963.9" y2="415"/>
<text transform="matrix(1 0 0 1 285.9 440.6)" class="st7 st2 st9">XXXX</text>
<rect x="280.7" y="442" class="st14" width="30" height="15"/>
<text transform="matrix(1 0 0 1 287 454.3)" class="st7 st2 st16">VII</text>
<text transform="matrix(1 0 0 1 220.3 453.9)" class="st7 st11 st3">Augereau</text>
<line class="st12" x1="280.7" y1="457" x2="310.7" y2="442"/>
<text transform="matrix(1 0 0 1 634.7 532.4)" class="st7 st2 st9">XXX</text>
<rect x="627" y="533.9" class="st14" width="30" height="15"/>
<text transform="matrix(1 0 0 1 635.7 546.2)" class="st7 st2 st16">VI</text>
<text transform="matrix(1 0 0 1 599.3 545.7)" class="st7 st11 st3">Ney</text>
<line class="st12" x1="627" y1="548.9" x2="657" y2="533.9"/>
<text transform="matrix(1 0 0 1 927.7 376.9)" class="st7 st2 st9">XXX</text>
<rect x="920.1" y="378.3" class="st14" width="30" height="15"/>
<text transform="matrix(1 0 0 1 955.3 390.2)" class="st7 st11 st3">Lannes</text>
<text transform="matrix(1 0 0 1 931 390.6)" class="st7 st2 st16">V</text>
<line class="st12" x1="920.1" y1="393.3" x2="950.1" y2="378.3"/>
<text transform="matrix(1 0 0 1 880.2 425.7)" class="st7 st2 st9">XXX</text>
<rect x="872.6" y="427.1" class="st14" width="30" height="15"/>
<text transform="matrix(1 0 0 1 881.2 439.5)" class="st7 st2 st16">IV</text>
<text transform="matrix(1 0 0 1 907.8 439)" class="st7 st11 st3">Soult</text>
<line class="st12" x1="872.6" y1="442.1" x2="902.6" y2="427.1"/>
<text transform="matrix(1 0 0 1 927 447.6)" class="st7 st2 st9">XXX</text>
<rect x="919.4" y="449" class="st14" width="30" height="15"/>
<text transform="matrix(1 0 0 1 954.6 460.9)" class="st7 st11 st3">Davout</text>
<text transform="matrix(1 0 0 1 927.3 461.3)" class="st7 st2 st16">III</text>
<line class="st12" x1="919.4" y1="464" x2="949.4" y2="449"/>
<text transform="matrix(1 0 0 1 832.2 446.1)" class="st7 st2 st9">XXX</text>
<rect x="824.6" y="447.5" class="st14" width="30" height="15"/>
<text transform="matrix(1 0 0 1 834.8 459.8)" class="st7 st2 st16">II</text>
<text transform="matrix(1 0 0 1 859.8 459.4)" class="st7 st11 st3">Marmont</text>
<line class="st12" x1="824.6" y1="462.5" x2="854.6" y2="447.5"/>
<text transform="matrix(1 0 0 1 832.2 487.1)" class="st7 st2 st9">XXX</text>
<rect x="824.5" y="488.5" class="st14" width="30" height="15"/>
<text transform="matrix(1 0 0 1 837 500.8)" class="st7 st2 st16">I</text>
<text transform="matrix(1 0 0 1 859.8 500.4)" class="st7 st11 st3">Bernado</text>
<text transform="matrix(1 0 0 1 908.6 500.4)" class="st7 st11 st3">t</text>
<text transform="matrix(1 0 0 1 913.7 500.4)" class="st7 st11 st3">te</text>
<line class="st12" x1="824.5" y1="503.5" x2="854.5" y2="488.5"/>
<text transform="matrix(1 0 0 1 491 524.8)" class="st8 st2 st9">XX</text>
<rect x="480.9" y="526.2" class="st10" width="30" height="15"/>
<text transform="matrix(1 0 0 1 516.2 538.1)" class="st8 st11 st3">Jellachich</text>
<line class="st12" x1="480.9" y1="541.2" x2="510.9" y2="526.2"/>
</svg>
