<?xml version="1.0" encoding="utf-8"?>
<!-- Generator: Adobe Illustrator 21.1.0, SVG Export Plug-In . SVG Version: 6.00 Build 0)  -->
<svg version="1.1" id="Troop_Movements_by_Day_10_16_Revisions"
	 xmlns="http://www.w3.org/2000/svg" xmlns:xlink="http://www.w3.org/1999/xlink" x="0px" y="0px" viewBox="0 0 1440 910"
	 style="enable-background:new 0 0 1440 910;" xml:space="preserve">
<style type="text/css">
	.st0{fill:none;}
	.st1{opacity:0.5;fill:#FFFFFF;enable-background:new    ;}
	.st2{fill:#BF7C00;}
	.st3{font-family:'DroidSans';}
	.st4{font-size:12px;}
	.st5{fill:none;stroke:#999999;stroke-width:3;stroke-linecap:round;stroke-miterlimit:10;}
	.st6{fill:#999999;}
	.st7{fill:#ED2939;}
	.st8{font-size:9px;}
	.st9{fill:#FFFFFF;stroke:#ED2939;stroke-width:0.75;stroke-miterlimit:10;}
	.st10{font-family:'DroidSans-Bold';}
	.st11{fill:#FFFFFF;stroke:#BF7C00;stroke-width:0.75;stroke-miterlimit:10;}
	.st12{fill:#0072BB;}
	.st13{fill:#FFFFFF;stroke:#0072BB;stroke-width:0.75;stroke-miterlimit:10;}
	.st14{fill:none;stroke:#0072BB;stroke-width:0.75;stroke-miterlimit:10;}
	.st15{font-size:13.5px;}
</style>
<circle class="st0" cx="1194.8" cy="418.7" r="4.5"/>
<rect x="1184.6" y="33.7" class="st1" width="117" height="97.3"/>
<text transform="matrix(1 0 0 1 1191.2 110.6)" class="st2 st3 st4">Approaching</text>
<line class="st5" x1="1191.2" y1="119.4" x2="1216.8" y2="119.4"/>
<polygon class="st6" points="1229.5,119.4 1211.6,126.7 1215.8,119.4 1211.6,112.1 "/>
<text transform="matrix(1 0 0 1 629.8 590.5)" class="st7 st3 st8">XXX</text>
<rect x="622.2" y="591.9" class="st9" width="30" height="15"/>
<text transform="matrix(1 0 0 1 658.4 603.8)" class="st7 st10 st4">John</text>
<line class="st0" x1="622.2" y1="606.9" x2="652.2" y2="591.9"/>
<text transform="matrix(1 0 0 1 1205.5 392.8)" class="st7 st3 st8">XXXX</text>
<rect x="1200.4" y="394.3" class="st9" width="30" height="15"/>
<text transform="matrix(1 0 0 1 1235.6 406.1)" class="st7 st10 st4">Auerspe</text>
<text transform="matrix(1 0 0 1 1283.1 406.1)" class="st7 st10 st4">r</text>
<text transform="matrix(1 0 0 1 1288.2 406.1)" class="st7 st10 st4">g</text>
<line class="st0" x1="1200.4" y1="409.3" x2="1230.4" y2="394.3"/>
<text transform="matrix(1 0 0 1 1018.1 421.5)" class="st7 st3 st8">XX</text>
<rect x="1008" y="422.9" class="st9" width="30" height="15"/>
<text transform="matrix(1 0 0 1 1043.2 434.8)" class="st7 st10 st4">Kienmayer</text>
<line class="st0" x1="1008" y1="437.9" x2="1038" y2="422.9"/>
<text transform="matrix(1 0 0 1 1023.1 459.7)" class="st7 st3 st8">XXXX</text>
<rect x="1017.9" y="461.1" class="st9" width="30" height="15"/>
<text transform="matrix(1 0 0 1 1053.2 473)" class="st7 st10 st4">Merveldt</text>
<line class="st0" x1="1017.9" y1="476.1" x2="1047.9" y2="461.1"/>
<text transform="matrix(1 0 0 1 1196.6 46.2)" class="st2 st3 st8">XXXX</text>
<rect x="1191.4" y="47.6" class="st11" width="30" height="15"/>
<text transform="matrix(1 0 0 1 1226.7 59.5)" class="st2 st10 st4">Bennigsen</text>
<line class="st0" x1="1191.4" y1="62.6" x2="1221.4" y2="47.6"/>
<text transform="matrix(1 0 0 1 938.2 771.1)" class="st7 st3 st8">XXX</text>
<rect x="930.6" y="772.5" class="st9" width="30" height="15"/>
<text transform="matrix(1 0 0 1 965.8 784.4)" class="st7 st10 st4">Charles</text>
<line class="st0" x1="930.6" y1="787.5" x2="960.6" y2="772.5"/>
<text transform="matrix(1 0 0 1 1196.6 76.2)" class="st2 st3 st8">XXXX</text>
<rect x="1191.4" y="77.6" class="st11" width="30" height="15"/>
<text transform="matrix(1 0 0 1 1226.7 89.5)" class="st2 st10 st4">Buxhöwden</text>
<line class="st0" x1="1191.4" y1="92.6" x2="1221.4" y2="77.6"/>
<text transform="matrix(1 0 0 1 1050.1 442.2)" class="st2 st3 st8">XXXX</text>
<rect x="1044.9" y="443.7" class="st11" width="30" height="15"/>
<text transform="matrix(1 0 0 1 1080.2 455.5)" class="st2 st10 st4">Kutu</text>
<text transform="matrix(1 0 0 1 1107.7999 455.5)" class="st2 st10 st4">z</text>
<text transform="matrix(1 0 0 1 1113.2 455.5)" class="st2 st10 st4">ov</text>
<line class="st0" x1="1044.9" y1="458.7" x2="1074.9" y2="443.7"/>
<text transform="matrix(1 0 0 1 856.7 433.6)" class="st12 st3 st8">XXXX</text>
<rect x="851.6" y="435" class="st13" width="30" height="15"/>
<text transform="matrix(1 0 0 1 886.8 446.9)" class="st12 st10 st4">Napoleon</text>
<line class="st0" x1="851.6" y1="450" x2="881.6" y2="435"/>
<text transform="matrix(1 0 0 1 964 478.4)" class="st12 st3 st8">XXX</text>
<rect x="956.4" y="479.8" class="st13" width="30" height="15"/>
<text transform="matrix(1 0 0 1 991.6 491.7)" class="st12 st10 st4">Mu</text>
<text transform="matrix(1 0 0 1 1010.1 491.7)" class="st12 st10 st4">r</text>
<text transform="matrix(1 0 0 1 1015.2 491.7)" class="st12 st10 st4">at</text>
<line class="st14" x1="956.4" y1="494.8" x2="986.4" y2="479.8"/>
<text transform="matrix(1 0 0 1 530.4 472.7)" class="st12 st3 st8">XXXX</text>
<rect x="525.2" y="474.1" class="st13" width="30" height="15"/>
<text transform="matrix(1 0 0 1 531.5 486.4)" class="st12 st3 st15">VII</text>
<text transform="matrix(1 0 0 1 464.8 486)" class="st12 st10 st4">Augereau</text>
<line class="st0" x1="525.2" y1="489.1" x2="555.2" y2="474.1"/>
<text transform="matrix(1 0 0 1 623.9 527.6)" class="st12 st3 st8">XXX</text>
<rect x="616.3" y="529" class="st13" width="30" height="15"/>
<text transform="matrix(1 0 0 1 624.9 541.3)" class="st12 st3 st15">VI</text>
<text transform="matrix(1 0 0 1 588.5 540.9)" class="st12 st10 st4">Ney</text>
<line class="st0" x1="616.3" y1="544" x2="646.2" y2="529"/>
<text transform="matrix(1 0 0 1 963.3 389)" class="st12 st3 st8">XXX</text>
<rect x="955.7" y="390.4" class="st13" width="30" height="15"/>
<text transform="matrix(1 0 0 1 990.9 402.3)" class="st12 st10 st4">Lannes</text>
<text transform="matrix(1 0 0 1 966.6 402.7)" class="st12 st3 st15">V</text>
<line class="st0" x1="955.7" y1="405.4" x2="985.7" y2="390.4"/>
<text transform="matrix(1 0 0 1 933.7 410.5)" class="st12 st3 st8">XXX</text>
<rect x="926.1" y="411.9" class="st13" width="30" height="15"/>
<text transform="matrix(1 0 0 1 934.7 424.3)" class="st12 st3 st15">IV</text>
<text transform="matrix(1 0 0 1 961.3 423.8)" class="st12 st10 st4">Soult</text>
<line class="st0" x1="926.1" y1="426.9" x2="956.1" y2="411.9"/>
<text transform="matrix(1 0 0 1 951.6 433.3)" class="st12 st3 st8">XXX</text>
<rect x="944" y="434.7" class="st13" width="30" height="15"/>
<text transform="matrix(1 0 0 1 979.2 446.6)" class="st12 st10 st4">Davout</text>
<text transform="matrix(1 0 0 1 951.8 447.1)" class="st12 st3 st15">III</text>
<line class="st0" x1="944" y1="449.7" x2="974" y2="434.7"/>
<text transform="matrix(1 0 0 1 908.2 454.6)" class="st12 st3 st8">XXX</text>
<rect x="900.6" y="456" class="st13" width="30" height="15"/>
<text transform="matrix(1 0 0 1 910.7 468.3)" class="st12 st3 st15">II</text>
<text transform="matrix(1 0 0 1 935.8 467.9)" class="st12 st10 st4">Marmont</text>
<line class="st0" x1="900.6" y1="471" x2="930.6" y2="456"/>
<text transform="matrix(1 0 0 1 860.9 477.8)" class="st12 st3 st8">XXX</text>
<rect x="853.3" y="479.2" class="st13" width="30" height="15"/>
<text transform="matrix(1 0 0 1 865.8 491.5)" class="st12 st3 st15">I</text>
<text transform="matrix(1 0 0 1 888.6 491.1)" class="st12 st10 st4">Bernado</text>
<text transform="matrix(1 0 0 1 937.4 491.1)" class="st12 st10 st4">t</text>
<text transform="matrix(1 0 0 1 942.5 491.1)" class="st12 st10 st4">te</text>
<line class="st0" x1="853.3" y1="494.2" x2="883.3" y2="479.2"/>
<text transform="matrix(1 0 0 1 491 524.8)" class="st7 st3 st8">XX</text>
<rect x="480.9" y="526.2" class="st9" width="30" height="15"/>
<text transform="matrix(1 0 0 1 516.2 538.1)" class="st7 st10 st4">Jellachich</text>
<line class="st0" x1="480.9" y1="541.2" x2="510.9" y2="526.2"/>
</svg>
