<?xml version="1.0" encoding="utf-8"?>
<!-- Generator: Adobe Illustrator 21.1.0, SVG Export Plug-In . SVG Version: 6.00 Build 0)  -->
<svg version="1.1" id="Troop_Movements_by_Day_10_16_Revisions"
	 xmlns="http://www.w3.org/2000/svg" xmlns:xlink="http://www.w3.org/1999/xlink" x="0px" y="0px" viewBox="0 0 1440 910"
	 style="enable-background:new 0 0 1440 910;" xml:space="preserve">
<style type="text/css">
	.st0{opacity:0.5;fill:#FFFFFF;enable-background:new    ;}
	.st1{fill:#BF7C00;}
	.st2{font-family:'DroidSans';}
	.st3{font-size:12px;}
	.st4{fill:none;stroke:#999999;stroke-width:3;stroke-linecap:round;stroke-miterlimit:10;}
	.st5{fill:#999999;}
	.st6{fill:#ED2939;}
	.st7{font-size:9px;}
	.st8{fill:#FFFFFF;stroke:#ED2939;stroke-width:0.75;stroke-miterlimit:10;}
	.st9{font-family:'DroidSans-Bold';}
	.st10{fill:none;}
	.st11{fill:#FFFFFF;stroke:#BF7C00;stroke-width:0.75;stroke-miterlimit:10;}
	.st12{fill:#0072BB;}
	.st13{fill:#FFFFFF;stroke:#0072BB;stroke-width:0.75;stroke-miterlimit:10;}
	.st14{fill:none;stroke:#0072BB;stroke-width:0.75;stroke-miterlimit:10;}
	.st15{font-size:13.5px;}
</style>
<rect x="1184.6" y="33.7" class="st0" width="117" height="97.3"/>
<text transform="matrix(1 0 0 1 1191.2 110.6)" class="st1 st2 st3">Approaching</text>
<line class="st4" x1="1191.2" y1="119.4" x2="1216.8" y2="119.4"/>
<polygon class="st5" points="1229.5,119.4 1211.6,126.7 1215.8,119.4 1211.6,112.1 "/>
<text transform="matrix(1 0 0 1 589.8 570.5)" class="st6 st2 st7">XXX</text>
<rect x="582.2" y="571.9" class="st8" width="30" height="15"/>
<text transform="matrix(1 0 0 1 618.4 583.8)" class="st6 st9 st3">John</text>
<line class="st10" x1="582.2" y1="586.9" x2="612.2" y2="571.9"/>
<text transform="matrix(1 0 0 1 1205.5 392.8)" class="st6 st2 st7">XXXX</text>
<rect x="1200.4" y="394.3" class="st8" width="30" height="15"/>
<text transform="matrix(1 0 0 1 1235.6 406.1)" class="st6 st9 st3">Auerspe</text>
<text transform="matrix(1 0 0 1 1283.1 406.1)" class="st6 st9 st3">r</text>
<text transform="matrix(1 0 0 1 1288.2 406.1)" class="st6 st9 st3">g</text>
<line class="st10" x1="1200.4" y1="409.3" x2="1230.4" y2="394.3"/>
<text transform="matrix(1 0 0 1 1033.8 445.3)" class="st6 st2 st7">XX</text>
<rect x="1023.7" y="446.7" class="st8" width="30" height="15"/>
<text transform="matrix(1 0 0 1 1058.9 458.6)" class="st6 st9 st3">Kienmayer</text>
<line class="st10" x1="1023.7" y1="461.7" x2="1053.7" y2="446.7"/>
<text transform="matrix(1 0 0 1 997 462.5)" class="st6 st2 st7">XXXX</text>
<rect x="991.8" y="463.9" class="st8" width="30" height="15"/>
<text transform="matrix(1 0 0 1 1027.1 475.8)" class="st6 st9 st3">Merveldt</text>
<line class="st10" x1="991.8" y1="478.9" x2="1021.8" y2="463.9"/>
<text transform="matrix(1 0 0 1 1196.6 46.2)" class="st1 st2 st7">XXXX</text>
<rect x="1191.4" y="47.6" class="st11" width="30" height="15"/>
<text transform="matrix(1 0 0 1 1226.7 59.5)" class="st1 st9 st3">Bennigsen</text>
<line class="st10" x1="1191.4" y1="62.6" x2="1221.4" y2="47.6"/>
<text transform="matrix(1 0 0 1 848.2 771.1)" class="st6 st2 st7">XXX</text>
<rect x="840.6" y="772.5" class="st8" width="30" height="15"/>
<text transform="matrix(1 0 0 1 875.8 784.4)" class="st6 st9 st3">Charles</text>
<line class="st10" x1="840.6" y1="787.5" x2="870.6" y2="772.5"/>
<text transform="matrix(1 0 0 1 1196.6 76.2)" class="st1 st2 st7">XXXX</text>
<rect x="1191.4" y="77.6" class="st11" width="30" height="15"/>
<text transform="matrix(1 0 0 1 1226.7 89.5)" class="st1 st9 st3">Buxhöwden</text>
<line class="st10" x1="1191.4" y1="92.6" x2="1221.4" y2="77.6"/>
<text transform="matrix(1 0 0 1 1012.6 421.2)" class="st1 st2 st7">XXXX</text>
<rect x="1007.4" y="422.6" class="st11" width="30" height="15"/>
<text transform="matrix(1 0 0 1 1042.7 434.5)" class="st1 st9 st3">Kutu</text>
<text transform="matrix(1 0 0 1 1070.2999 434.5)" class="st1 st9 st3">z</text>
<text transform="matrix(1 0 0 1 1075.7 434.5)" class="st1 st9 st3">ov</text>
<line class="st10" x1="1007.4" y1="437.6" x2="1037.4" y2="422.6"/>
<text transform="matrix(1 0 0 1 814.1 399.9)" class="st12 st2 st7">XXXX</text>
<rect x="808.9" y="401.3" class="st13" width="30" height="15"/>
<text transform="matrix(1 0 0 1 844.2 413.2)" class="st12 st9 st3">Napoleon</text>
<line class="st10" x1="808.9" y1="416.3" x2="838.9" y2="401.3"/>
<text transform="matrix(1 0 0 1 901.4 414)" class="st12 st2 st7">XXX</text>
<rect x="893.8" y="415.4" class="st13" width="30" height="15"/>
<text transform="matrix(1 0 0 1 929 427.3)" class="st12 st9 st3">Mu</text>
<text transform="matrix(1 0 0 1 947.5 427.3)" class="st12 st9 st3">r</text>
<text transform="matrix(1 0 0 1 952.6 427.3)" class="st12 st9 st3">at</text>
<line class="st14" x1="893.8" y1="430.4" x2="923.8" y2="415.4"/>
<text transform="matrix(1 0 0 1 285.9 440.6)" class="st12 st2 st7">XXXX</text>
<rect x="280.7" y="442" class="st13" width="30" height="15"/>
<text transform="matrix(1 0 0 1 287 454.3)" class="st12 st2 st15">VII</text>
<text transform="matrix(1 0 0 1 220.3 453.9)" class="st12 st9 st3">Augereau</text>
<line class="st10" x1="280.7" y1="457" x2="310.7" y2="442"/>
<text transform="matrix(1 0 0 1 594.9 483.4)" class="st12 st2 st7">XXX</text>
<rect x="587.3" y="484.9" class="st13" width="30" height="15"/>
<text transform="matrix(1 0 0 1 595.9 497.2)" class="st12 st2 st15">VI</text>
<text transform="matrix(1 0 0 1 559.6 496.7)" class="st12 st9 st3">Ney</text>
<line class="st10" x1="587.3" y1="499.9" x2="617.3" y2="484.9"/>
<text transform="matrix(1 0 0 1 868.3 380.5)" class="st12 st2 st7">XXX</text>
<rect x="860.7" y="381.9" class="st13" width="30" height="15"/>
<text transform="matrix(1 0 0 1 896 393.8)" class="st12 st9 st3">Lannes</text>
<text transform="matrix(1 0 0 1 871.6 394.2)" class="st12 st2 st15">V</text>
<line class="st10" x1="860.7" y1="396.9" x2="890.7" y2="381.9"/>
<text transform="matrix(1 0 0 1 830.9 427.8)" class="st12 st2 st7">XXX</text>
<rect x="823.3" y="429.2" class="st13" width="30" height="15"/>
<text transform="matrix(1 0 0 1 831.9 441.5)" class="st12 st2 st15">IV</text>
<text transform="matrix(1 0 0 1 858.6 441.1)" class="st12 st9 st3">Soult</text>
<line class="st10" x1="823.3" y1="444.2" x2="853.3" y2="429.2"/>
<text transform="matrix(1 0 0 1 907.4 440.6)" class="st12 st2 st7">XXX</text>
<rect x="899.8" y="442" class="st13" width="30" height="15"/>
<text transform="matrix(1 0 0 1 935 453.9)" class="st12 st9 st3">Davout</text>
<text transform="matrix(1 0 0 1 907.6 454.3)" class="st12 st2 st15">III</text>
<line class="st10" x1="899.8" y1="457" x2="929.8" y2="442"/>
<text transform="matrix(1 0 0 1 811.4 462.1)" class="st12 st2 st7">XXX</text>
<rect x="803.8" y="463.5" class="st13" width="30" height="15"/>
<text transform="matrix(1 0 0 1 814 475.8)" class="st12 st2 st15">II</text>
<text transform="matrix(1 0 0 1 839 475.4)" class="st12 st9 st3">Marmont</text>
<line class="st10" x1="803.8" y1="478.5" x2="833.8" y2="463.5"/>
<text transform="matrix(1 0 0 1 836.9 484.8)" class="st12 st2 st7">XXX</text>
<rect x="829.3" y="486.2" class="st13" width="30" height="15"/>
<text transform="matrix(1 0 0 1 841.8 498.5)" class="st12 st2 st15">I</text>
<text transform="matrix(1 0 0 1 864.6 498.1)" class="st12 st9 st3">Bernado</text>
<text transform="matrix(1 0 0 1 913.4 498.1)" class="st12 st9 st3">t</text>
<text transform="matrix(1 0 0 1 918.5 498.1)" class="st12 st9 st3">te</text>
<line class="st10" x1="829.3" y1="501.2" x2="859.3" y2="486.2"/>
<text transform="matrix(1 0 0 1 491 524.8)" class="st6 st2 st7">XX</text>
<rect x="480.9" y="526.2" class="st8" width="30" height="15"/>
<text transform="matrix(1 0 0 1 516.2 538.1)" class="st6 st9 st3">Jellachich</text>
<line class="st10" x1="480.9" y1="541.2" x2="510.9" y2="526.2"/>
</svg>
