<?xml version="1.0" encoding="utf-8"?>
<!-- Generator: Adobe Illustrator 21.1.0, SVG Export Plug-In . SVG Version: 6.00 Build 0)  -->
<svg version="1.1" id="Troop_Movements_by_Day_10_16_Revisions"
	 xmlns="http://www.w3.org/2000/svg" xmlns:xlink="http://www.w3.org/1999/xlink" x="0px" y="0px" viewBox="0 0 1440 910"
	 style="enable-background:new 0 0 1440 910;" xml:space="preserve">
<style type="text/css">
	.st0{fill:none;}
	.st1{opacity:0.5;fill:#FFFFFF;enable-background:new    ;}
	.st2{fill:#999999;}
	.st3{font-family:'DroidSans';}
	.st4{font-size:12px;}
	.st5{fill:none;stroke:#999999;stroke-width:3;stroke-linecap:round;stroke-miterlimit:10;}
	.st6{fill:#ED2939;}
	.st7{font-size:9px;}
	.st8{fill:#FFFFFF;stroke:#ED2939;stroke-width:0.75;stroke-miterlimit:10;}
	.st9{font-family:'DroidSans-Bold';}
	.st10{fill:none;stroke:#0072BB;stroke-width:3;stroke-linecap:round;stroke-linejoin:round;}
	.st11{fill:#0072BB;}
	.st12{fill:#999999;stroke:#999999;}
	.st13{fill:#BF7C00;}
	.st14{fill:#FFFFFF;stroke:#BF7C00;stroke-width:0.75;stroke-miterlimit:10;}
	.st15{fill:#FFFFFF;stroke:#0072BB;stroke-width:0.75;stroke-miterlimit:10;}
	.st16{fill:none;stroke:#0072BB;stroke-width:0.75;stroke-miterlimit:10;}
	.st17{font-size:13.5px;}
</style>
<circle class="st0" cx="1194.8" cy="418.7" r="4.5"/>
<circle class="st0" cx="781.1" cy="412.6" r="4.5"/>
<rect x="1184.6" y="33.7" class="st1" width="117" height="97.3"/>
<text transform="matrix(1 0 0 1 1191.2 110.6)" class="st2 st3 st4">Approaching</text>
<line class="st5" x1="1191.2" y1="119.4" x2="1216.8" y2="119.4"/>
<polygon class="st2" points="1229.5,119.4 1211.6,126.7 1215.8,119.4 1211.6,112.1 "/>
<circle class="st0" cx="837.2" cy="411" r="4.5"/>
<text transform="matrix(1 0 0 1 867.7 435.2)" class="st6 st3 st7">XXX</text>
<rect x="860.1" y="436.7" class="st8" width="30" height="15"/>
<text transform="matrix(1 0 0 1 895.4 448.5)" class="st6 st9 st4">Merveldt</text>
<line class="st0" x1="860.1" y1="451.7" x2="890.1" y2="436.7"/>
<path class="st10" d="M513.6,378.3c-0.3,0.3-0.7,0.8-0.6,0.3c25.8,1.3,53.4,3.7,81.1,6h1.5"/>
<polygon class="st11" points="608.1,386.9 589.2,391.2 594.6,384.7 591.6,376.8 "/>
<circle class="st12" cx="606.7" cy="392.4" r="4.5"/>
<text transform="matrix(1 0 0 1 611.2 385.5)" class="st2 st3 st4">Augsbu</text>
<text transform="matrix(1 0 0 1 651.3 385.5)" class="st2 st3 st4">r</text>
<text transform="matrix(1 0 0 1 656 385.5)" class="st2 st3 st4">g</text>
<circle class="st0" cx="625" cy="233.3" r="4.5"/>
<text transform="matrix(1 0 0 1 484.7 378.9)" class="st11 st3 st4">Ulm</text>
<text transform="matrix(1 0 0 1 499.8 540.5)" class="st6 st3 st7">XXX</text>
<rect x="492.2" y="541.9" class="st8" width="30" height="15"/>
<text transform="matrix(1 0 0 1 528.4 553.8)" class="st6 st9 st4">John</text>
<line class="st0" x1="492.2" y1="556.9" x2="522.2" y2="541.9"/>
<text transform="matrix(1 0 0 1 1205.5 392.8)" class="st6 st3 st7">XXXX</text>
<rect x="1200.4" y="394.3" class="st8" width="30" height="15"/>
<text transform="matrix(1 0 0 1 1235.6 406.1)" class="st6 st9 st4">Auerspe</text>
<text transform="matrix(1 0 0 1 1283.1 406.1)" class="st6 st9 st4">r</text>
<text transform="matrix(1 0 0 1 1288.2 406.1)" class="st6 st9 st4">g</text>
<line class="st0" x1="1200.4" y1="409.3" x2="1230.4" y2="394.3"/>
<text transform="matrix(1 0 0 1 769.7 426.6)" class="st6 st3 st7">XX</text>
<rect x="759.6" y="428" class="st8" width="30" height="15"/>
<text transform="matrix(1 0 0 1 794.9 439.9)" class="st6 st9 st4">Kienmayer</text>
<line class="st0" x1="759.6" y1="443" x2="789.6" y2="428"/>
<text transform="matrix(1 0 0 1 1196.6 46.2)" class="st13 st3 st7">XXXX</text>
<rect x="1191.4" y="47.6" class="st14" width="30" height="15"/>
<text transform="matrix(1 0 0 1 1226.7 59.5)" class="st13 st9 st4">Bennigsen</text>
<line class="st0" x1="1191.4" y1="62.6" x2="1221.4" y2="47.6"/>
<text transform="matrix(1 0 0 1 610.3 853.2)" class="st6 st3 st7">XXX</text>
<rect x="602.7" y="854.6" class="st8" width="30" height="15"/>
<text transform="matrix(1 0 0 1 637.9 866.5)" class="st6 st9 st4">Charles</text>
<line class="st0" x1="602.7" y1="869.6" x2="632.7" y2="854.6"/>
<text transform="matrix(1 0 0 1 1196.6 76.2)" class="st13 st3 st7">XXXX</text>
<rect x="1191.4" y="77.6" class="st14" width="30" height="15"/>
<text transform="matrix(1 0 0 1 1226.7 89.5)" class="st13 st9 st4">Buxhöwden</text>
<line class="st0" x1="1191.4" y1="92.6" x2="1221.4" y2="77.6"/>
<text transform="matrix(1 0 0 1 850 396.8)" class="st13 st3 st7">XXXX</text>
<rect x="844.9" y="398.2" class="st14" width="30" height="15"/>
<text transform="matrix(1 0 0 1 880.1 410.1)" class="st13 st9 st4">Kutu</text>
<text transform="matrix(1 0 0 1 907.7 410.1)" class="st13 st9 st4">z</text>
<text transform="matrix(1 0 0 1 913.1 410.1)" class="st13 st9 st4">ov</text>
<line class="st0" x1="844.9" y1="413.2" x2="874.9" y2="398.2"/>
<text transform="matrix(1 0 0 1 596.4 359.4)" class="st11 st3 st7">XXXX</text>
<rect x="591.2" y="360.8" class="st15" width="30" height="15"/>
<text transform="matrix(1 0 0 1 626.5 372.7)" class="st11 st9 st4">Napoleon</text>
<line class="st0" x1="591.2" y1="375.8" x2="621.2" y2="360.8"/>
<text transform="matrix(1 0 0 1 617.7 225.2)" class="st11 st3 st7">XXX</text>
<rect x="610.1" y="226.6" class="st15" width="30" height="15"/>
<text transform="matrix(1 0 0 1 645.3 238.5)" class="st11 st9 st4">Mu</text>
<text transform="matrix(1 0 0 1 663.8 238.5)" class="st11 st9 st4">r</text>
<text transform="matrix(1 0 0 1 668.9 238.5)" class="st11 st9 st4">at</text>
<line class="st16" x1="610.1" y1="241.6" x2="640.1" y2="226.6"/>
<text transform="matrix(1 0 0 1 245.9 510.6)" class="st11 st3 st7">XXXX</text>
<rect x="240.7" y="512" class="st15" width="30" height="15"/>
<text transform="matrix(1 0 0 1 247 524.3)" class="st11 st3 st17">VII</text>
<text transform="matrix(1 0 0 1 180.3 523.9)" class="st11 st9 st4">Augereau</text>
<line class="st0" x1="240.7" y1="527" x2="270.7" y2="512"/>
<text transform="matrix(1 0 0 1 478.5 387.4)" class="st11 st3 st7">XXX</text>
<rect x="470.8" y="388.8" class="st15" width="30" height="15"/>
<text transform="matrix(1 0 0 1 479.5 401.2)" class="st11 st3 st17">VI</text>
<text transform="matrix(1 0 0 1 443.1 400.7)" class="st11 st9 st4">Ney</text>
<line class="st0" x1="470.8" y1="403.8" x2="500.8" y2="388.8"/>
<text transform="matrix(1 0 0 1 558.8 311.2)" class="st11 st3 st7">XXX</text>
<rect x="551.2" y="312.6" class="st15" width="30" height="15"/>
<text transform="matrix(1 0 0 1 586.4 324.5)" class="st11 st9 st4">Lannes</text>
<text transform="matrix(1 0 0 1 562.1 324.9)" class="st11 st3 st17">V</text>
<line class="st0" x1="551.2" y1="327.6" x2="581.2" y2="312.6"/>
<text transform="matrix(1 0 0 1 519.2 444.9)" class="st11 st3 st7">XXX</text>
<rect x="511.6" y="446.3" class="st15" width="30" height="15"/>
<text transform="matrix(1 0 0 1 520.2 458.6)" class="st11 st3 st17">IV</text>
<text transform="matrix(1 0 0 1 546.8 458.2)" class="st11 st9 st4">Soult</text>
<line class="st0" x1="511.6" y1="461.3" x2="541.6" y2="446.3"/>
<text transform="matrix(1 0 0 1 693 404)" class="st11 st3 st7">XXX</text>
<rect x="685.4" y="405.4" class="st15" width="30" height="15"/>
<text transform="matrix(1 0 0 1 720.7 417.3)" class="st11 st9 st4">Davout</text>
<text transform="matrix(1 0 0 1 693.3 417.7)" class="st11 st3 st17">III</text>
<line class="st0" x1="685.4" y1="420.4" x2="715.4" y2="405.4"/>
<text transform="matrix(1 0 0 1 514 388)" class="st11 st3 st7">XXX</text>
<rect x="506.4" y="389.4" class="st15" width="30" height="15"/>
<text transform="matrix(1 0 0 1 516.6 401.7)" class="st11 st3 st17">II</text>
<text transform="matrix(1 0 0 1 541.6 401.3)" class="st11 st9 st4">Marmont</text>
<line class="st0" x1="506.4" y1="404.4" x2="536.4" y2="389.4"/>
<text transform="matrix(1 0 0 1 663.8 431.4)" class="st11 st3 st7">XXX</text>
<rect x="656.1" y="432.8" class="st15" width="30" height="15"/>
<text transform="matrix(1 0 0 1 668.6 445.1)" class="st11 st3 st17">I</text>
<text transform="matrix(1 0 0 1 691.4 444.7)" class="st11 st9 st4">Bernado</text>
<text transform="matrix(1 0 0 1 740.2 444.7)" class="st11 st9 st4">t</text>
<text transform="matrix(1 0 0 1 745.3 444.7)" class="st11 st9 st4">te</text>
<line class="st0" x1="656.1" y1="447.8" x2="686.1" y2="432.8"/>
<text transform="matrix(1 0 0 1 427.7 464.6)" class="st6 st3 st7">XX</text>
<rect x="417.6" y="466.1" class="st8" width="30" height="15"/>
<text transform="matrix(1 0 0 1 452.9 477.9)" class="st6 st9 st4">Jellachich</text>
<line class="st0" x1="417.6" y1="481.1" x2="447.6" y2="466.1"/>
</svg>
