<?xml version="1.0" encoding="utf-8"?>
<!-- Generator: Adobe Illustrator 21.1.0, SVG Export Plug-In . SVG Version: 6.00 Build 0)  -->
<svg version="1.1" id="Troop_Movements_by_Day_10_16_Revisions"
	 xmlns="http://www.w3.org/2000/svg" xmlns:xlink="http://www.w3.org/1999/xlink" x="0px" y="0px" viewBox="0 0 1440 910"
	 style="enable-background:new 0 0 1440 910;" xml:space="preserve">
<style type="text/css">
	.st0{opacity:0.5;fill:#FFFFFF;enable-background:new    ;}
	.st1{fill:#BF7C00;}
	.st2{font-family:'DroidSans';}
	.st3{font-size:12px;}
	.st4{fill:none;stroke:#999999;stroke-width:3;stroke-linecap:round;stroke-miterlimit:10;}
	.st5{fill:#999999;}
	.st6{fill:#ED2939;}
	.st7{font-size:9px;}
	.st8{fill:#FFFFFF;stroke:#ED2939;stroke-width:0.75;stroke-miterlimit:10;}
	.st9{font-family:'DroidSans-Bold';}
	.st10{fill:none;}
	.st11{fill:#FFFFFF;stroke:#BF7C00;stroke-width:0.75;stroke-miterlimit:10;}
	.st12{fill:#0072BB;}
	.st13{fill:#FFFFFF;stroke:#0072BB;stroke-width:0.75;stroke-miterlimit:10;}
	.st14{fill:none;stroke:#0072BB;stroke-width:0.75;stroke-miterlimit:10;}
	.st15{font-size:13.5px;}
</style>
<rect x="1184.6" y="33.7" class="st0" width="117" height="97.3"/>
<text transform="matrix(1 0 0 1 1191.2 110.6)" class="st1 st2 st3">Approaching</text>
<line class="st4" x1="1191.2" y1="119.4" x2="1216.8" y2="119.4"/>
<polygon class="st5" points="1229.5,119.4 1211.6,126.7 1215.8,119.4 1211.6,112.1 "/>
<text transform="matrix(1 0 0 1 467.1 560.3)" class="st6 st2 st7">XX</text>
<rect x="457" y="561.7" class="st8" width="30" height="15"/>
<text transform="matrix(1 0 0 1 492.2 573.6)" class="st6 st9 st3">Jellachich</text>
<line class="st10" x1="457" y1="576.7" x2="487" y2="561.7"/>
<text transform="matrix(1 0 0 1 665.5 604.8)" class="st6 st2 st7">XXX</text>
<rect x="657.9" y="606.3" class="st8" width="30" height="15"/>
<text transform="matrix(1 0 0 1 694.1 618.1)" class="st6 st9 st3">John</text>
<line class="st10" x1="657.9" y1="621.3" x2="687.9" y2="606.3"/>
<text transform="matrix(1 0 0 1 1205.5 392.8)" class="st6 st2 st7">XXXX</text>
<rect x="1200.4" y="394.3" class="st8" width="30" height="15"/>
<text transform="matrix(1 0 0 1 1235.6 406.1)" class="st6 st9 st3">Auerspe</text>
<text transform="matrix(1 0 0 1 1283.1 406.1)" class="st6 st9 st3">r</text>
<text transform="matrix(1 0 0 1 1288.2 406.1)" class="st6 st9 st3">g</text>
<line class="st10" x1="1200.4" y1="409.3" x2="1230.4" y2="394.3"/>
<text transform="matrix(1 0 0 1 1136.8 427.6)" class="st6 st2 st7">XX</text>
<rect x="1126.7" y="429" class="st8" width="30" height="15"/>
<text transform="matrix(1 0 0 1 1162 440.9)" class="st6 st9 st3">Kienmayer</text>
<line class="st10" x1="1126.7" y1="444" x2="1156.7" y2="429"/>
<text transform="matrix(1 0 0 1 1093.3 491.6)" class="st6 st2 st7">XXXX</text>
<rect x="1088.2" y="493" class="st8" width="30" height="15"/>
<text transform="matrix(1 0 0 1 1123.4 504.9)" class="st6 st9 st3">Merveldt</text>
<line class="st10" x1="1088.2" y1="508" x2="1118.2" y2="493"/>
<text transform="matrix(1 0 0 1 1196.6 46.2)" class="st1 st2 st7">XXXX</text>
<rect x="1191.4" y="47.6" class="st11" width="30" height="15"/>
<text transform="matrix(1 0 0 1 1226.7 59.5)" class="st1 st9 st3">Bennigsen</text>
<line class="st10" x1="1191.4" y1="62.6" x2="1221.4" y2="47.6"/>
<text transform="matrix(1 0 0 1 1078.2 721.1)" class="st6 st2 st7">XXX</text>
<rect x="1070.6" y="722.5" class="st8" width="30" height="15"/>
<text transform="matrix(1 0 0 1 1105.8 734.4)" class="st6 st9 st3">Charles</text>
<line class="st10" x1="1070.6" y1="737.5" x2="1100.6" y2="722.5"/>
<text transform="matrix(1 0 0 1 1196.6 76.2)" class="st1 st2 st7">XXXX</text>
<rect x="1191.4" y="77.6" class="st11" width="30" height="15"/>
<text transform="matrix(1 0 0 1 1226.7 89.5)" class="st1 st9 st3">Buxhöwden</text>
<line class="st10" x1="1191.4" y1="92.6" x2="1221.4" y2="77.6"/>
<text transform="matrix(1 0 0 1 1112.7 395.2)" class="st1 st2 st7">XXXX</text>
<rect x="1107.5" y="396.7" class="st11" width="30" height="15"/>
<text transform="matrix(1 0 0 1 1142.8 408.5)" class="st1 st9 st3">Kutu</text>
<text transform="matrix(1 0 0 1 1170.4 408.5)" class="st1 st9 st3">z</text>
<text transform="matrix(1 0 0 1 1175.8 408.5)" class="st1 st9 st3">ov</text>
<line class="st10" x1="1107.5" y1="411.7" x2="1137.5" y2="396.7"/>
<text transform="matrix(1 0 0 1 1034.7 393.8)" class="st12 st2 st7">XXX</text>
<rect x="1027.1" y="395.3" class="st13" width="30" height="15"/>
<text transform="matrix(1 0 0 1 978 407.1)" class="st12 st9 st3">Mortier</text>
<line class="st10" x1="1027.1" y1="410.3" x2="1057.1" y2="395.3"/>
<text transform="matrix(1 0 0 1 955.1 407.7)" class="st12 st2 st7">XXXX</text>
<rect x="949.9" y="409.1" class="st13" width="30" height="15"/>
<text transform="matrix(1 0 0 1 985.2 421)" class="st12 st9 st3">Napoleon</text>
<line class="st10" x1="949.9" y1="424.1" x2="979.9" y2="409.1"/>
<text transform="matrix(1 0 0 1 1100.6 441.5)" class="st12 st2 st7">XXX</text>
<rect x="1093" y="442.9" class="st13" width="30" height="15"/>
<text transform="matrix(1 0 0 1 1128.3 454.8)" class="st12 st9 st3">Mu</text>
<text transform="matrix(1 0 0 1 1146.8 454.8)" class="st12 st9 st3">r</text>
<text transform="matrix(1 0 0 1 1151.9 454.8)" class="st12 st9 st3">at</text>
<line class="st14" x1="1093" y1="457.9" x2="1123" y2="442.9"/>
<text transform="matrix(1 0 0 1 530.4 472.7)" class="st12 st2 st7">XXXX</text>
<rect x="525.2" y="474.1" class="st13" width="30" height="15"/>
<text transform="matrix(1 0 0 1 531.5 486.4)" class="st12 st2 st15">VII</text>
<text transform="matrix(1 0 0 1 464.8 486)" class="st12 st9 st3">Augereau</text>
<line class="st10" x1="525.2" y1="489.1" x2="555.2" y2="474.1"/>
<text transform="matrix(1 0 0 1 635.5 548.7)" class="st12 st2 st7">XXX</text>
<rect x="627.9" y="550.1" class="st13" width="30" height="15"/>
<text transform="matrix(1 0 0 1 636.5 562.4)" class="st12 st2 st15">VI</text>
<text transform="matrix(1 0 0 1 600.1 562)" class="st12 st9 st3">Ney</text>
<line class="st10" x1="627.9" y1="565.1" x2="657.9" y2="550.1"/>
<text transform="matrix(1 0 0 1 1086.4 406.6)" class="st12 st2 st7">XXX</text>
<rect x="1078.7" y="408" class="st13" width="30" height="15"/>
<text transform="matrix(1 0 0 1 1114 419.9)" class="st12 st9 st3">Lannes</text>
<text transform="matrix(1 0 0 1 1089.7 420.4)" class="st12 st2 st15">V</text>
<line class="st10" x1="1078.7" y1="423" x2="1108.7" y2="408"/>
<text transform="matrix(1 0 0 1 1050.4 422.1)" class="st12 st2 st7">XXX</text>
<rect x="1042.8" y="423.5" class="st13" width="30" height="15"/>
<text transform="matrix(1 0 0 1 1051.5 435.8)" class="st12 st2 st15">IV</text>
<text transform="matrix(1 0 0 1 1078.1 435.4)" class="st12 st9 st3">Soult</text>
<line class="st10" x1="1042.8" y1="438.5" x2="1072.8" y2="423.5"/>
<text transform="matrix(1 0 0 1 1065 469.6)" class="st12 st2 st7">XXX</text>
<rect x="1057.3" y="471" class="st13" width="30" height="15"/>
<text transform="matrix(1 0 0 1 1092.6 482.9)" class="st12 st9 st3">Davout</text>
<text transform="matrix(1 0 0 1 1065.2 483.3)" class="st12 st2 st15">III</text>
<line class="st10" x1="1057.3" y1="486" x2="1087.3" y2="471"/>
<text transform="matrix(1 0 0 1 1000.2 487.4)" class="st12 st2 st7">XXX</text>
<rect x="992.6" y="488.8" class="st13" width="30" height="15"/>
<text transform="matrix(1 0 0 1 1002.8 501.1)" class="st12 st2 st15">II</text>
<text transform="matrix(1 0 0 1 1027.8 500.7)" class="st12 st9 st3">Marmont</text>
<line class="st10" x1="992.6" y1="503.8" x2="1022.6" y2="488.8"/>
<text transform="matrix(1 0 0 1 997.6 439.3)" class="st12 st2 st7">XXX</text>
<rect x="990" y="440.7" class="st13" width="30" height="15"/>
<text transform="matrix(1 0 0 1 1002.4 453)" class="st12 st2 st15">I</text>
<text transform="matrix(1 0 0 1 1025.2 452.6)" class="st12 st9 st3">Bernado</text>
<text transform="matrix(1 0 0 1 1074 452.6)" class="st12 st9 st3">t</text>
<text transform="matrix(1 0 0 1 1079.1 452.6)" class="st12 st9 st3">te</text>
<line class="st10" x1="990" y1="455.7" x2="1020" y2="440.7"/>
</svg>
